<svg width="91" height="87" viewBox="0 0 91 87" fill="none" xmlns="http://www.w3.org/2000/svg">
<g filter="url(#filter0_d_226_15226)">
<path fill-rule="evenodd" clip-rule="evenodd" d="M14.136 15.8364C13.3399 14.3726 13.684 12.2921 15.1136 10.7259C16.8565 8.81622 19.553 8.39402 21.1362 9.78284C21.1946 9.834 21.2505 9.8869 21.3042 9.94144C22.1059 8.07355 24.6393 7.27215 27.0381 8.1524C29.3631 9.00558 30.7254 11.1318 30.2183 13.0144C32.1576 12.9289 33.9888 14.6016 34.4249 16.9514C34.8401 19.1889 33.8508 21.2884 32.1618 21.9931C33.2138 23.6136 32.6183 26.0206 30.721 27.5481C28.7638 29.124 26.1393 29.1857 24.7515 27.7236C23.8591 29.2097 21.7447 29.9615 19.5813 29.4373C17.0762 28.8304 15.4421 26.7392 15.8913 24.7404C14.2271 24.5794 12.6572 23.1828 12.0898 21.1823C11.4358 18.8762 12.3452 16.5835 14.136 15.8364ZM22.9374 23.2287C25.4467 23.2287 27.4809 21.2345 27.4809 18.7745C27.4809 16.3146 25.4467 14.3204 22.9374 14.3204C20.4281 14.3204 18.394 16.3146 18.394 18.7745C18.394 21.2345 20.4281 23.2287 22.9374 23.2287Z" fill="white"/>
<path fill-rule="evenodd" clip-rule="evenodd" d="M37.1724 8.51115C36.642 6.89224 37.3653 4.85836 39.0817 3.53889C41.1745 1.9301 43.9511 1.99255 45.2835 3.67837C45.3324 3.7403 45.3787 3.80357 45.4224 3.86806C46.5653 2.13125 49.2476 1.78222 51.4889 3.10308C53.6615 4.38343 54.6383 6.7723 53.7877 8.5775C55.7452 8.84193 57.2744 10.8587 57.2831 13.3055C57.2915 15.6351 55.9187 17.5716 54.0993 17.976C54.8575 19.7991 53.823 22.1166 51.6453 23.3125C49.3987 24.5462 46.7598 24.1336 45.6366 22.4094C44.4725 23.7451 42.2186 24.12 40.1482 23.2005C37.7506 22.1357 36.4953 19.7333 37.3087 17.8007C35.6714 17.3377 34.3535 15.6462 34.1496 13.5275C33.9147 11.0854 35.243 8.93947 37.1724 8.51115ZM44.6393 17.5523C47.1517 18.0063 49.5514 16.365 49.9993 13.8864C50.4472 11.4077 48.7737 9.03034 46.2613 8.57634C43.7489 8.12235 41.3491 9.76365 40.9012 12.2423C40.4533 14.7209 42.1269 17.0983 44.6393 17.5523Z" fill="white"/>
<path fill-rule="evenodd" clip-rule="evenodd" d="M61.6525 11.9361C61.6423 10.2325 62.9527 8.51706 64.9903 7.78535C67.4746 6.89323 70.0992 7.80137 70.8526 9.81375C70.8804 9.88801 70.9052 9.96273 70.9272 10.0378C72.5461 8.73278 75.2073 9.22018 76.9378 11.1632C78.615 13.0462 78.8149 15.6191 77.4535 17.0779C79.2363 17.9282 80.0756 20.3157 79.3361 22.6479C78.6319 24.8688 76.7326 26.293 74.8765 26.1216C75.0414 28.0893 73.348 29.9799 70.9088 30.453C68.3926 30.941 66.0061 29.7414 65.4637 27.7564C63.947 28.6724 61.6864 28.3405 59.9961 26.8321C58.0386 25.0854 57.5777 22.4141 58.9431 20.8226C57.5257 19.8813 56.788 17.868 57.2415 15.7885C57.7642 13.3916 59.6846 11.7544 61.6525 11.9361ZM65.9987 22.8269C68.2521 24.0271 71.0386 23.1978 72.2227 20.9747C73.4068 18.7516 72.54 15.9765 70.2866 14.7763C68.0332 13.5761 65.2466 14.4053 64.0626 16.6284C62.8785 18.8516 63.7453 21.6267 65.9987 22.8269Z" fill="white"/>
<path fill-rule="evenodd" clip-rule="evenodd" d="M72.9672 30.9271C72.9741 29.5694 74.0181 28.1907 75.6246 27.5897C77.5834 26.8569 79.6366 27.5578 80.2106 29.1552C80.2317 29.2139 80.2505 29.2729 80.267 29.3322C81.5498 28.2785 83.6349 28.6439 84.9768 30.1772C86.2775 31.6635 86.412 33.7127 85.3298 34.8874C86.7229 35.5492 87.3616 37.4452 86.7604 39.3109C86.188 41.087 84.6844 42.2387 83.2285 42.1187C83.3403 43.6854 81.9941 45.2068 80.0748 45.6051C78.0944 46.016 76.2306 45.0806 75.8221 43.503C74.6231 44.2471 72.8501 44.0024 71.5356 42.8146C70.0135 41.4394 69.6749 39.3139 70.7615 38.0335C69.6571 37.2954 69.0956 35.6975 69.4698 34.0363C69.9012 32.1213 71.4234 30.7997 72.9672 30.9271ZM76.2845 39.5695C78.0437 40.5064 80.2393 39.8211 81.1885 38.0388C82.1378 36.2565 81.4814 34.0521 79.7222 33.1151C77.9631 32.1782 75.7675 32.8635 74.8182 34.6458C73.869 36.4281 74.5254 38.6325 76.2845 39.5695Z" fill="white"/>
<path fill-rule="evenodd" clip-rule="evenodd" d="M10.1946 28.723C10.7856 27.4916 12.3272 26.6799 14.0447 26.8131C16.1388 26.9755 17.7013 28.4813 17.5346 30.1764C17.5285 30.2386 17.5201 30.3002 17.5096 30.3612C19.1281 29.9459 20.864 31.1601 21.4221 33.1218C21.9631 35.0233 21.2028 36.9433 19.7144 37.5535C20.6939 38.7445 20.4573 40.7382 19.1081 42.1799C17.8236 43.5525 15.9624 43.9636 14.6921 43.2385C14.1191 44.7104 12.2415 45.5242 10.3272 45.0743C8.3522 44.6103 7.06277 42.9716 7.37089 41.3647C5.96187 41.5336 4.45767 40.5612 3.77558 38.9254C2.98574 37.0312 3.59359 34.9556 5.13158 34.2511C4.44617 33.1129 4.62431 31.4222 5.67963 30.07C6.89611 28.5112 8.8478 27.9537 10.1946 28.723ZM9.4848 37.9838C10.6786 39.5798 12.9673 39.8855 14.5967 38.6667C16.2262 37.4478 16.5793 35.166 15.3855 33.57C14.1917 31.974 11.903 31.6683 10.2736 32.8871C8.64415 34.1059 8.291 36.3878 9.4848 37.9838Z" fill="white"/>
<path fill-rule="evenodd" clip-rule="evenodd" d="M72.4275 48.8916C72.2227 47.5957 73.0171 46.1328 74.4764 45.3317C76.2558 44.3549 78.35 44.7322 79.1539 46.1744C79.1835 46.2274 79.2109 46.2812 79.2362 46.3355C80.3119 45.148 82.385 45.2005 83.9215 46.4728C85.4106 47.7059 85.8601 49.6413 84.9971 50.9152C86.4471 51.3488 87.3602 53.0665 87.0697 54.9314C86.7932 56.7069 85.5188 58.0189 84.0922 58.1105C84.445 59.5891 83.3806 61.2314 81.5869 61.8836C79.7367 62.5565 77.7892 61.9288 77.1482 60.4823C76.1049 61.3614 74.3533 61.3793 72.8977 60.4332C71.2119 59.3374 70.5533 57.3584 71.4039 55.983C70.2205 55.4361 69.4281 53.9912 69.531 52.3532C69.6495 50.4655 70.9152 48.989 72.4275 48.8916ZM76.9824 56.6646C78.8291 57.3087 80.8449 56.3436 81.4848 54.509C82.1247 52.6744 81.1464 50.665 79.2997 50.0209C77.4531 49.3768 75.4373 50.3419 74.7974 52.1765C74.1575 54.0111 75.1358 56.0205 76.9824 56.6646Z" fill="white"/>
<path fill-rule="evenodd" clip-rule="evenodd" d="M5.49879 51.1171C4.86944 49.9658 5.12467 48.3208 6.22893 47.075C7.5754 45.556 9.67431 45.2058 10.917 46.293C10.9625 46.3328 11.0063 46.374 11.0483 46.4166C11.6614 44.9364 13.6309 44.2879 15.5059 44.9683C17.3233 45.6278 18.3984 47.2987 18.0149 48.7888C19.5262 48.7087 20.9644 50.0186 21.319 51.8723C21.6567 53.6372 20.8986 55.3017 19.5862 55.8685C20.4163 57.1419 19.9673 59.0467 18.4981 60.2649C16.9824 61.5217 14.9372 61.5866 13.8466 60.4403C13.1604 61.6196 11.517 62.2265 9.82762 61.8259C7.8713 61.3619 6.5846 59.7203 6.92231 58.1388C5.62428 58.0218 4.3921 56.9285 3.93741 55.352C3.41325 53.5346 4.10767 51.7181 5.49879 51.1171ZM12.4055 56.9015C14.3612 56.886 15.9341 55.2984 15.9187 53.3554C15.9033 51.4125 14.3054 49.85 12.3497 49.8655C10.394 49.881 8.82106 51.4686 8.83645 53.4115C8.85185 55.3545 10.4497 56.917 12.4055 56.9015Z" fill="white"/>
<path fill-rule="evenodd" clip-rule="evenodd" d="M58.2754 64.9245C59.0594 64.5267 59.8166 64.0936 60.5443 63.6275C59.9138 67.5027 60.9244 73.0514 62.2232 75.8736C63.7084 79.1009 66.7978 81.0092 69.8745 80.9148C69.814 81.1508 69.7815 81.401 69.7815 81.66C69.7815 83.095 70.7786 84.2583 72.0086 84.2583C73.2386 84.2583 74.2357 83.095 74.2357 81.66C74.2357 80.9062 73.9605 80.2273 73.521 79.7527C73.6295 79.6806 73.7356 79.6057 73.8392 79.5282C73.9231 79.6555 74.0184 79.7786 74.125 79.8961C75.0891 80.9589 76.6092 81.1506 77.5202 80.3242C78.4312 79.4978 78.3882 77.9663 77.4241 76.9035C77.1046 76.5513 76.7241 76.2948 76.325 76.1392C77.0745 74.0993 77.0225 71.6822 75.994 69.4473C74.4393 66.0691 69.3085 60.6453 65.3814 59.576C68.8332 55.8055 70.8955 51.0323 70.8955 45.8407C70.8955 33.6433 59.5119 23.7554 45.4695 23.7554C31.4272 23.7554 20.0436 33.6433 20.0436 45.8407C20.0436 51.0718 22.1373 55.8781 25.6367 59.6619C21.7512 60.9098 16.8321 66.1514 15.3156 69.4467C14.1622 71.953 14.2368 74.6884 15.2927 76.864C14.847 77.0632 14.4339 77.3953 14.1172 77.8442C13.29 79.0168 13.4342 80.5421 14.4393 81.2512C15.4444 81.9602 16.9297 81.5844 17.7569 80.4118C17.8702 80.2512 17.9653 80.0839 18.0425 79.9131C18.2537 80.0407 18.4734 80.158 18.7013 80.2644C18.7166 80.2716 18.7321 80.2787 18.7475 80.2857C18.5893 80.6153 18.4896 80.9887 18.4658 81.3878C18.3805 82.8203 19.3067 84.0408 20.5345 84.1139C21.7623 84.187 22.8268 83.085 22.9121 81.6526C22.9293 81.3634 22.9053 81.0829 22.8459 80.8187C25.4217 80.392 27.8289 78.6052 29.0863 75.8729C30.3566 73.1127 31.3512 67.7444 30.8044 63.8845C31.2883 64.1817 31.7846 64.4647 32.2926 64.7326V79.0586C32.2926 82.34 34.9527 85.0001 38.2341 85.0001H52.3339C55.6153 85.0001 58.2754 82.34 58.2754 79.0586V64.9245ZM37.8603 51.4082C37.8603 54.3807 35.4506 56.7904 32.4781 56.7904C29.5057 56.7904 27.096 54.3807 27.096 51.4082C27.096 48.4358 29.5057 46.0261 32.4781 46.0261C35.4506 46.0261 37.8603 48.4358 37.8603 51.4082ZM58.0899 56.7904C61.0624 56.7904 63.4721 54.3807 63.4721 51.4082C63.4721 48.4358 61.0624 46.0261 58.0899 46.0261C55.1175 46.0261 52.7078 48.4358 52.7078 51.4082C52.7078 54.3807 55.1175 56.7904 58.0899 56.7904ZM41.8044 56.0482L45.4676 50.4804L48.8897 55.6647C49.1872 56.0194 49.3663 56.4767 49.3663 56.9758C49.3663 58.1033 48.4523 59.0173 47.3248 59.0173C46.6241 59.0173 46.0059 58.6643 45.6382 58.1264C45.2371 58.6642 44.5627 59.0171 43.7984 59.0171C42.5684 59.0171 41.5713 58.1031 41.5713 56.9756C41.5713 56.6417 41.6588 56.3264 41.8139 56.0482H41.8044ZM32.9078 34.148C31.9554 34.148 31.2479 35.03 31.4545 35.9597L32.4561 40.4669C32.5032 40.6786 32.6909 40.8293 32.9078 40.8293C33.1247 40.8293 33.3125 40.6786 33.3595 40.4669L34.3611 35.9597C34.5677 35.03 33.8602 34.148 32.9078 34.148ZM27.6075 35.4914C26.7205 35.8383 26.3828 36.9174 26.9139 37.708L29.4884 41.5408C29.6093 41.7208 29.839 41.7927 30.041 41.7137C30.243 41.6348 30.363 41.4261 30.3297 41.2118L29.6208 36.6493C29.4746 35.7082 28.4945 35.1445 27.6075 35.4914ZM23.3496 41.2548C22.5384 40.7558 22.3979 39.6338 23.0611 38.9502C23.7242 38.2666 24.8499 38.3728 25.3734 39.1685L27.9112 43.0256C28.0304 43.2068 28.0078 43.4465 27.8568 43.6021C27.7058 43.7578 27.4669 43.7877 27.2822 43.6741L23.3496 41.2548ZM38.2049 35.4914C39.0919 35.8383 39.4295 36.9174 38.8985 37.708L36.324 41.5408C36.2031 41.7208 35.9733 41.7927 35.7713 41.7137C35.5693 41.6348 35.4493 41.4261 35.4826 41.2118L36.1915 36.6493C36.3378 35.7082 37.3179 35.1445 38.2049 35.4914ZM42.7591 39.0193C43.1868 38.1683 42.7165 37.1401 41.793 36.9072C40.8695 36.6742 39.9678 37.3563 39.9407 38.3084L39.8095 42.9237C39.8034 43.1405 39.9486 43.3325 40.1589 43.3855C40.3692 43.4385 40.5881 43.3384 40.6855 43.1446L42.7591 39.0193ZM45.5252 37.8601C46.4776 37.8602 47.1851 38.7422 46.9784 39.6719L45.9767 44.1791C45.9296 44.3908 45.7418 44.5414 45.525 44.5414C45.3081 44.5414 45.1203 44.3908 45.0733 44.1791L44.0718 39.6718C43.8652 38.7421 44.5728 37.8601 45.5252 37.8601ZM59.5961 35.9597C59.8027 35.03 59.0952 34.148 58.1428 34.148C57.1904 34.148 56.4829 35.03 56.6895 35.9597L57.6911 40.4669C57.7382 40.6786 57.9259 40.8293 58.1428 40.8293C58.3597 40.8293 58.5475 40.6786 58.5945 40.4669L59.5961 35.9597ZM63.4423 35.4914C64.3293 35.8383 64.6669 36.9174 64.1359 37.708L61.5614 41.5408C61.4405 41.7208 61.2107 41.7927 61.0087 41.7137C60.8068 41.6348 60.6867 41.4261 60.72 41.2118L61.4289 36.6493C61.5752 35.7082 62.5553 35.1445 63.4423 35.4914ZM67.7002 41.2548C68.5114 40.7558 68.6518 39.6338 67.9887 38.9502C67.3256 38.2666 66.1999 38.3728 65.6764 39.1685L63.1385 43.0256C63.0193 43.2068 63.042 43.4465 63.193 43.6021C63.344 43.7578 63.5828 43.7877 63.7676 43.6741L67.7002 41.2548ZM52.8457 35.4914C51.9587 35.8383 51.6211 36.9174 52.1522 37.708L54.7266 41.5408C54.8476 41.7208 55.0773 41.7927 55.2793 41.7137C55.4813 41.6348 55.6013 41.4261 55.568 41.2118L54.8591 36.6493C54.7129 35.7082 53.7327 35.1445 52.8457 35.4914ZM48.2911 39.0193C47.8634 38.1683 48.3337 37.1401 49.2572 36.9072C50.1807 36.6742 51.0824 37.3563 51.1094 38.3084L51.2407 42.9237C51.2468 43.1405 51.1016 43.3325 50.8913 43.3855C50.681 43.4385 50.4621 43.3384 50.3647 43.1446L48.2911 39.0193ZM41.7637 68.3986C41.7637 67.4412 42.5399 66.665 43.4973 66.665C44.4548 66.665 45.231 67.4412 45.231 68.3986V71.3931H41.7637V68.3986ZM48.2253 66.665C47.2679 66.665 46.4917 67.4412 46.4917 68.3986V71.3931H49.9589V68.3986C49.9589 67.4412 49.1828 66.665 48.2253 66.665ZM37.3505 68.9503C37.3505 68.2105 37.9502 67.6107 38.6901 67.6107C39.4299 67.6107 40.0297 68.2105 40.0297 68.9503V71.3932H37.3505V68.9503ZM38.69 76.1212C39.4299 76.1212 40.0296 75.5214 40.0296 74.7816V72.4963H37.3504V74.7816C37.3504 75.5214 37.9502 76.1212 38.69 76.1212ZM54.3718 74.7816C54.3718 75.5214 53.7721 76.1212 53.0322 76.1212C52.2924 76.1212 51.6926 75.5214 51.6926 74.7816V72.4963H54.3718V74.7816ZM53.0319 67.6107C52.292 67.6107 51.6922 68.2105 51.6922 68.9503V71.3932H54.3715V68.9503C54.3715 68.2105 53.7717 67.6107 53.0319 67.6107ZM41.7637 75.4907C41.7637 76.4481 42.5399 77.2243 43.4973 77.2243C44.4548 77.2243 45.231 76.4481 45.231 75.4907V72.4962H41.7637V75.4907ZM48.2253 77.2243C47.2679 77.2243 46.4917 76.4481 46.4917 75.4907V72.4962H49.9589V75.4907C49.9589 76.4481 49.1828 77.2243 48.2253 77.2243ZM71.6141 77.6211C69.4427 78.6344 66.5972 77.0979 65.2586 74.1892C63.9199 71.2804 63.3713 66.9313 64.1623 62.7821C68.1897 64.1301 71.7834 67.6109 73.122 70.5196C74.4607 73.4283 73.7855 76.6078 71.6141 77.6211ZM26.0505 74.1887C24.7119 77.0975 21.8665 78.634 19.695 77.6207C17.5236 76.6073 16.8484 73.4279 18.1871 70.5192C19.5257 67.6104 23.1194 64.1296 27.1468 62.7817C27.9378 66.9309 27.3892 71.28 26.0505 74.1887Z" fill="white"/>
</g>
<defs>
<filter id="filter0_d_226_15226" x="2.70951" y="2.30103" width="85.1337" height="84.6795" filterUnits="userSpaceOnUse" color-interpolation-filters="sRGB">
<feFlood flood-opacity="0" result="BackgroundImageFix"/>
<feColorMatrix in="SourceAlpha" type="matrix" values="0 0 0 0 0 0 0 0 0 0 0 0 0 0 0 0 0 0 127 0" result="hardAlpha"/>
<feOffset dy="1.26032"/>
<feGaussianBlur stdDeviation="0.36009"/>
<feComposite in2="hardAlpha" operator="out"/>
<feColorMatrix type="matrix" values="0 0 0 0 0 0 0 0 0 0 0 0 0 0 0 0 0 0 0.25 0"/>
<feBlend mode="normal" in2="BackgroundImageFix" result="effect1_dropShadow_226_15226"/>
<feBlend mode="normal" in="SourceGraphic" in2="effect1_dropShadow_226_15226" result="shape"/>
</filter>
</defs>
</svg>
