<svg width="449" height="255" viewBox="0 0 449 255" fill="none" xmlns="http://www.w3.org/2000/svg">
<path d="M365.866 36.6973C364.675 36.6973 363.478 36.3044 362.48 35.5002L360.083 33.5634L359.684 33.2411L357.287 31.3043C354.969 29.4319 354.607 26.0371 356.479 23.7196L363.901 14.5297L365.052 15.4567C367.763 17.6483 368.542 21.3316 367.179 24.3673C368.49 23.4066 370.059 22.9124 371.633 22.9124C373.288 22.9124 374.951 23.4557 376.339 24.576L377.487 25.503L370.065 34.6929C369 36.0128 367.44 36.6973 365.866 36.6973Z" fill="#873395"/>
<path d="M353.783 170.891H350.33V62.1893H366.175L358.517 77.1559L355.579 82.8988C363.176 88.519 368.121 97.5155 368.121 107.691C368.121 118.649 362.399 153.597 353.783 170.891ZM330.33 170.891H320.756C312.14 153.597 306.419 118.649 306.419 107.691C306.419 97.6905 311.198 88.8259 318.574 83.1904H318.344L307.598 62.1893H326.693C325.888 56.6397 324.467 51.7777 322.899 47.7046C324.025 51.7102 319.105 52.5113 314.983 52.5113C312.232 52.5113 309.838 52.1553 309.838 52.1553C309.838 52.1553 315.854 44.9728 319.888 44.9728C320.953 44.9728 321.883 45.4761 322.524 46.7438C319.381 38.9535 315.854 34.3678 315.575 34.0117L313.27 35.7859C312.291 36.541 311.134 36.9063 309.986 36.9063C308.368 36.9063 306.769 36.1819 305.707 34.8006L298.506 25.4357L299.675 24.5364C301.038 23.4897 302.643 22.9832 304.24 22.9832C305.876 22.9832 307.502 23.5174 308.835 24.5456C307.548 21.4792 308.414 17.8143 311.177 15.6902L312.346 14.7909L319.55 24.1527C321.364 26.5131 320.922 29.8987 318.562 31.7158L316.554 33.2628C317.131 33.9995 325.474 44.9328 327.933 62.1893H330.33V170.891ZM350.33 57.1093V52.2597C351.57 48.1036 353.065 44.54 354.493 41.6516C354.146 41.8235 353.765 41.9003 353.363 41.9003C352.427 41.9003 351.374 41.4828 350.33 40.8751V35.2365C350.732 35.2088 351.135 35.1935 351.534 35.1935C354.094 35.1935 356.383 35.8658 356.27 38.2937C358.124 35.0493 359.551 33.2321 359.591 33.183L360.549 33.9596C360.484 34.0394 356.804 38.7019 353.559 46.7469C354.201 45.4761 355.128 44.9728 356.196 44.9728C360.229 44.9728 366.245 52.1553 366.245 52.1553C366.245 52.1553 363.851 52.5113 361.101 52.5113C356.979 52.5113 352.058 51.7102 353.185 47.7046C352.114 50.4824 351.113 53.6286 350.33 57.1093ZM330.33 36.4673C328.178 35.6539 326.422 34.6625 326.422 34.6625C326.422 34.6625 328.178 33.4562 330.33 32.4341V36.4673ZM330.33 25.5524C329.421 24.5886 328.866 23.2902 328.866 21.8599V10.0486H330.33V25.5524Z" fill="#873395"/>
<path d="M350.333 170.891H330.332V62.1893H336.296C335.562 55.148 336.293 49.3099 336.996 43.9844C337.358 41.271 337.702 38.6282 337.831 35.9701C337.34 37.1027 336.256 37.514 334.942 37.514C333.521 37.514 331.83 37.0351 330.332 36.4673V32.4341C331.907 31.6851 333.693 31.0375 335.157 31.0375C336.391 31.0375 337.395 31.4948 337.852 32.741C337.8 30.9853 337.628 29.2081 337.254 27.3787L337.855 27.2528H337.343H334.261C332.711 27.2528 331.314 26.5991 330.332 25.5524V10.0486H330.344C333.828 10.0486 336.75 12.4244 337.6 15.6412C338.448 12.4244 341.37 10.0486 344.854 10.0486H346.33V21.8599C346.33 24.8403 343.917 27.2528 340.937 27.2528H338.481C339.669 33.1584 338.966 38.4993 338.217 44.1471C337.837 47.0293 337.438 50.0588 337.272 53.3492C337.61 52.0263 338.638 51.5629 339.918 51.5629C342.932 51.5629 347.337 54.1381 347.337 54.1381C347.337 54.1381 342.769 57.5022 339.755 57.5022C338.488 57.5022 337.496 56.9098 337.232 55.2247C337.186 57.4132 337.275 59.7276 337.539 62.1893H348.153C348.666 58.5919 349.433 55.2708 350.333 52.2597V57.1093C349.967 58.73 349.648 60.4243 349.393 62.1893H350.333V170.891ZM350.333 40.8751C347.524 39.236 344.808 36.2126 344.808 36.2126C344.808 36.2126 347.536 35.4329 350.333 35.2365V40.8751Z" fill="#873395"/>
<path d="M0 193.567H448.222V170.891H0V193.567Z" fill="#682B72"/>
<path d="M448.222 193.567H0V180.267H448.222V193.567Z" fill="#682B72"/>
<path d="M19.4238 254.957H42.4447V193.568H19.4238V254.957Z" fill="#682B72"/>
<path d="M407.324 254.957H430.345V193.568H407.324V254.957Z" fill="#682B72"/>
<path d="M430.345 214.412H407.324V193.568H430.345V203.614V214.412Z" fill="#682B72"/>
<path d="M42.4447 214.412H19.4238V193.568H42.4447V203.614V214.412Z" fill="#682B72"/>
<path d="M386.386 14.529C383.676 12.3375 379.91 12.3498 377.23 14.3203C378.59 11.2847 377.81 7.60132 375.1 5.40974L373.952 4.48276L366.527 13.6727C364.658 15.9901 365.017 19.385 367.334 21.2573L369.731 23.191L370.13 23.5164L372.528 25.4502C374.845 27.3225 378.24 26.9603 380.112 24.6459L387.534 15.456L386.386 14.529Z" fill="#682B72"/>
<path d="M358.787 59.291L357.557 59.248C358.324 37.3659 369.528 23.2772 369.641 23.136L370.599 23.9126C370.488 24.0476 359.543 37.8387 358.787 59.291Z" fill="#7C3C86"/>
<path d="M374.685 41.4971C374.685 41.4971 363.77 38.7008 364.219 37.5222C364.664 36.3466 374.685 41.4971 374.685 41.4971Z" fill="#7C3C86"/>
<path d="M354.854 26.1647C354.854 26.1647 368.15 22.3708 366.112 29.4183C364.074 36.4657 354.854 26.1647 354.854 26.1647Z" fill="#7C3C86"/>
<path d="M356.252 26.5682C356.252 26.5682 365.684 28.06 365.356 29.2018C365.028 30.3406 356.252 26.5682 356.252 26.5682Z" fill="#7C3C86"/>
<path d="M354.9 0.00187492C351.416 0.00187492 348.497 2.37762 347.647 5.59439C346.796 2.37762 343.874 0.00187492 340.39 0.00187492H338.914V11.8131C338.914 14.7935 341.33 17.2061 344.307 17.2061H347.389H347.904H350.986C353.964 17.2061 356.376 14.7935 356.376 11.8131V0.00187492H354.9Z" fill="#682B72"/>
<path d="M348.521 63.0117C344.828 50.6726 346.004 41.7804 347.044 33.9379C347.781 28.3546 348.481 23.0814 347.299 17.3323L348.505 17.0837C349.73 23.0384 349.018 28.413 348.266 34.1006C347.244 41.8203 346.084 50.5713 349.703 62.6588L348.521 63.0117Z" fill="#7C3C86"/>
<path d="M357.383 44.0911C357.383 44.0911 347.548 51.3564 347.192 44.6313C346.836 37.9061 357.383 44.0911 357.383 44.0911Z" fill="#7C3C86"/>
<path d="M356.114 44.1594C356.114 44.1594 347.934 45.6818 347.875 44.5952C347.817 43.5087 356.114 44.1594 356.114 44.1594Z" fill="#7C3C86"/>
<path d="M336.469 24.6162C336.469 24.6162 347.85 16.7646 348.176 24.0945C348.504 31.4243 336.469 24.6162 336.469 24.6162Z" fill="#7C3C86"/>
<path d="M337.926 24.5514C337.926 24.5514 347.34 22.9461 347.392 24.1309C347.444 25.3157 337.926 24.5514 337.926 24.5514Z" fill="#7C3C86"/>
<path d="M321.225 5.64429C318.463 7.76835 317.597 11.4333 318.886 14.4997C316.25 12.4677 312.487 12.3664 309.724 14.4905L308.555 15.3898L315.759 24.7547C317.573 27.1151 320.958 27.5571 323.319 25.7399L325.762 23.8615L326.17 23.5484L328.613 21.6699C330.974 19.8527 331.416 16.4672 329.599 14.1068L322.395 4.74497L321.225 5.64429Z" fill="#682B72"/>
<path d="M337.393 59.291C336.641 37.8387 325.693 24.0476 325.582 23.9126L326.54 23.136C326.653 23.2772 337.857 37.3659 338.627 59.248L337.393 59.291Z" fill="#7C3C86"/>
<path d="M319.887 42.106C319.887 42.106 335.593 44.4695 332.834 37.1949C330.071 29.9203 319.887 42.106 319.887 42.106Z" fill="#7C3C86"/>
<path d="M321.496 41.4971C321.496 41.4971 332.411 38.7008 331.963 37.5222C331.518 36.3466 321.496 41.4971 321.496 41.4971Z" fill="#7C3C86"/>
<path d="M365.625 72.8533L376.224 52.1437H317.643L328.39 73.1448H328.62C321.244 78.7803 316.465 87.6449 316.465 97.6452C316.465 111.94 326.204 167.055 339.4 170.554H355.232C368.43 167.055 378.17 111.94 378.17 97.6452C378.17 87.47 373.222 78.4734 365.625 72.8533Z" fill="#A439B5"/>
<path d="M368.565 67.11H325.305L328.392 73.1445L365.628 72.8529L368.565 67.11Z" fill="#753180"/>
<path d="M367.523 80.603C368.459 82.7608 368.103 84.9923 366.731 85.5878C365.356 86.1863 363.483 84.9218 362.544 82.767C361.608 80.6123 361.964 78.3808 363.336 77.7822C364.711 77.1868 366.583 78.4483 367.523 80.603Z" fill="#A439B5"/>
</svg>
