<svg width="232" height="233" viewBox="0 0 232 233" fill="none" xmlns="http://www.w3.org/2000/svg">
<g filter="url(#filter0_d_652_13887)">
<path d="M26.3926 208.716H225.993V9.11697H26.3926V208.716Z" fill="#B855C8"/>
<path d="M195.51 203.268H51.082L31.8496 184.036V39.7894C38.8882 59.7763 47.5774 77.4686 57.2464 93.0991C54.8447 99.983 53.5408 107.381 53.5408 115.088C53.5408 151.967 83.4374 181.861 120.317 181.861C127.997 181.861 135.373 180.565 142.238 178.181C172.188 196.883 195.51 203.268 195.51 203.268Z" fill="#B855C8"/>
<path d="M195.22 208.716H56.5318L54.2233 206.41L195.629 208.31L195.22 208.716ZM28.9114 181.098L26.3926 178.578V39.6907L26.8327 39.2476L28.9114 181.098Z" fill="#B855C8"/>
<path d="M213.862 190.071C202.997 174.08 191.588 159.077 179.983 145.084C184.527 136.063 187.085 125.871 187.085 115.085C187.085 78.2054 157.191 48.3076 120.311 48.3076C109.409 48.3076 99.1189 50.9215 90.0267 55.552C71.88 40.5187 56.1444 29.0155 44.8594 21.2153L56.6251 9.44916L196.676 11.0078L224.08 38.4118L225.646 178.283L213.862 190.071Z" fill="#B855C8"/>
<path d="M195.633 109.627C195.633 147.739 164.739 178.633 126.627 178.633C88.5146 178.633 57.6172 147.739 57.6172 109.627C57.6172 71.5145 88.5146 40.6172 126.627 40.6172C164.739 40.6172 195.633 71.5145 195.633 109.627Z" fill="#753180"/>
<path d="M190.161 109.492C190.161 144.581 161.716 173.021 126.631 173.021C91.5422 173.021 63.0977 144.581 63.0977 109.492C63.0977 74.4028 91.5422 45.9622 126.631 45.9622C161.716 45.9622 190.161 74.4028 190.161 109.492Z" fill="#B855C8"/>
<path d="M128.541 108.332C129.267 109.065 129.263 110.249 128.53 110.979C127.796 111.708 126.612 111.704 125.883 110.971C125.153 110.237 125.157 109.05 125.891 108.324C126.624 107.594 127.812 107.598 128.541 108.332Z" fill="#5B5C5E"/>
<path d="M189.668 109.393C189.668 144.628 161.104 173.188 125.873 173.188C90.6389 173.188 62.0781 144.628 62.0781 109.393C62.0781 74.159 90.6389 45.5981 125.873 45.5981C161.104 45.5981 189.668 74.159 189.668 109.393Z" fill="#682B72"/>
<path d="M184.209 109.392C184.209 141.607 158.093 167.723 125.878 167.723C93.6628 167.723 67.5469 141.607 67.5469 109.392C67.5469 77.1769 93.6628 51.061 125.878 51.061C158.093 51.061 184.209 77.1769 184.209 109.392Z" fill="#D486E1"/>
<path d="M127.197 60.792H124.699V53.1529H127.197V60.792Z" fill="#682B72"/>
<path d="M160.204 75.5576L159.555 74.9079L165.248 69.2142L165.898 69.864L160.204 75.5576Z" fill="#682B72"/>
<path d="M159.93 143.733L160.579 143.083L165.95 148.454L165.3 149.104L159.93 143.733Z" fill="#682B72"/>
<path d="M91.4219 143.147L92.0717 143.797L86.7122 149.156L86.0625 148.507L91.4219 143.147Z" fill="#682B72"/>
<path d="M92.0302 74.6354L91.3804 75.2852L86.0098 69.9145L86.6595 69.2685L92.0302 74.6354Z" fill="#682B72"/>
<path d="M108.174 64.1379L107.325 64.4834L104.471 57.4452L105.323 57.0997L108.174 64.1379Z" fill="#682B72"/>
<path d="M81.3375 90.873L80.9957 91.7256L73.7734 88.8375L74.1152 87.9849L81.3375 90.873Z" fill="#682B72"/>
<path d="M81.5136 128.906L81.893 129.74L75.1664 132.793L74.7871 131.959L81.5136 128.906Z" fill="#682B72"/>
<path d="M106.184 153.47L107.025 153.838L104.013 160.733L103.172 160.365L106.184 153.47Z" fill="#682B72"/>
<path d="M145.24 153.85L146.082 153.478L149.067 160.242L148.226 160.61L145.24 153.85Z" fill="#682B72"/>
<path d="M170.65 128.398L171.007 127.553L177.831 130.419L177.478 131.264L170.65 128.398Z" fill="#682B72"/>
<path d="M170.437 90.458L170.072 89.6167L177.227 86.5295L177.591 87.3708L170.437 90.458Z" fill="#682B72"/>
<path d="M146.211 65.2207L145.373 64.8414L148.505 57.882L149.339 58.2576L146.211 65.2207Z" fill="#682B72"/>
<path d="M174.244 110.364V107.724H182.326V110.364H174.244Z" fill="#682B72"/>
<path d="M125.072 157.101H127.791V165.424H125.072V157.101Z" fill="#682B72"/>
<path d="M77.643 108.295V110.777H70.0527V108.295H77.643Z" fill="#682B72"/>
<path d="M90.1608 151.304L89.5449 150.763L126.18 109.043L126.796 109.584L90.1608 151.304Z" fill="#2A2928"/>
<path d="M125.097 106.164L103.607 87.3075L123.065 108.192C122.547 109.491 122.806 111.031 123.857 112.086C125.266 113.51 127.56 113.517 128.98 112.105C130.399 110.693 130.407 108.402 128.999 106.983C127.947 105.924 126.403 105.653 125.097 106.164Z" fill="#2A2928"/>
<path d="M130.029 108.93L170.652 80.9552L128.478 106.512C127.317 105.73 125.759 105.659 124.504 106.459C122.818 107.537 122.322 109.779 123.4 111.465C124.478 113.151 126.72 113.643 128.406 112.565C129.664 111.762 130.254 110.312 130.029 108.93Z" fill="#2A2928"/>
<path d="M127.417 111.049C126.575 111.589 125.452 111.342 124.915 110.496C124.374 109.655 124.622 108.536 125.467 107.995C126.309 107.458 127.428 107.702 127.969 108.547C128.506 109.389 128.262 110.512 127.417 111.049Z" fill="#2A2928"/>
<path d="M230.748 45.0742L189.67 3.99996H230.748V45.0742Z" fill="#753180"/>
<path d="M21.2539 45.7988V4.72457H62.3319L21.2539 45.7988Z" fill="#753180"/>
<path d="M230.748 45.0742L227.785 6.94057L189.67 3.99996H230.748V45.0742Z" fill="#753180"/>
<path d="M21 45.0742L56.5611 6.62883L21 3.99996H62.078L56.9592 9.11503L56.6249 9.44923L44.8593 21.2153L26.8282 39.2456L26.3881 39.6888L21 45.0742Z" fill="#753180"/>
<path d="M62.078 214.267H21V173.189L62.078 214.267Z" fill="#753180"/>
<path d="M62.078 214.267L21 178.525V173.189L62.078 214.267Z" fill="#753180"/>
<path d="M231 214.99H189.922L231 173.912V214.99Z" fill="#753180"/>
<path d="M231 214.99L228.089 182.366L189.922 214.99L231 173.912V214.99Z" fill="#753180"/>
</g>
<defs>
<filter id="filter0_d_652_13887" x="0" y="0" width="232" height="232.99" filterUnits="userSpaceOnUse" color-interpolation-filters="sRGB">
<feFlood flood-opacity="0" result="BackgroundImageFix"/>
<feColorMatrix in="SourceAlpha" type="matrix" values="0 0 0 0 0 0 0 0 0 0 0 0 0 0 0 0 0 0 127 0" result="hardAlpha"/>
<feOffset dx="-10" dy="7"/>
<feGaussianBlur stdDeviation="5.5"/>
<feComposite in2="hardAlpha" operator="out"/>
<feColorMatrix type="matrix" values="0 0 0 0 0 0 0 0 0 0 0 0 0 0 0 0 0 0 0.25 0"/>
<feBlend mode="normal" in2="BackgroundImageFix" result="effect1_dropShadow_652_13887"/>
<feBlend mode="normal" in="SourceGraphic" in2="effect1_dropShadow_652_13887" result="shape"/>
</filter>
</defs>
</svg>
