<svg width="260" height="199" viewBox="0 0 260 199" fill="none" xmlns="http://www.w3.org/2000/svg">
<path d="M170.406 175.525H153.627V163.47H170.406V175.525ZM170.406 100.978H153.627V88.3523H170.406V100.978Z" fill="#873395"/>
<path d="M248.787 198.18H247.048V4.68924L248.787 11.2113L259.995 186.968L248.787 198.18ZM185.102 175.525H170.405V163.47H178.404V119.521L185.102 112.635V175.525ZM153.626 175.525H139.845V163.47H153.626V175.525ZM77.8994 175.525H63.2022V163.47H77.8994V175.525ZM46.4233 175.525H32.6426V163.47H41.7721V163.27H38.1375V140.114V131.496H35.2189V125.517L46.4233 113.465V175.525ZM77.8994 163.27H63.2022V109.879L77.8994 112.957V163.27ZM185.102 100.978H170.405V88.3522H185.102V100.978ZM153.626 100.978H139.845V88.3522H153.626V100.978ZM77.8994 100.978H63.2022V4.13243L63.8628 3.47542L66.8506 14.6833V26.7972H77.8994V100.978ZM46.4233 100.978H32.6426V18.4077L35.4644 15.5859L38.4523 26.7972V37.0852H46.4233V100.978ZM139.845 82.5633V58.5499C142.577 62.1429 144.202 66.6178 144.202 71.4799C144.202 76.3455 142.577 79.9109 139.845 82.5633ZM139.845 45.7236V38.7105L142.85 39.8517L139.845 45.7236Z" fill="#873395"/>
<path d="M14.1992 198.18H0V11.2112L11.2079 -4.57764e-05L14.1992 11.2112V92.1874H24.2555V26.7971L32.645 18.4077V100.978H14.1992V163.47H32.645V175.525H14.1992L25.4071 186.968L14.1992 198.18Z" fill="#873395"/>
<path d="M63.2067 175.526H46.4277V113.466L51.9505 107.525L63.2067 109.88V163.271H48.4542V163.471H63.2067V175.526ZM63.2067 100.979H46.4277V37.0862H52.6593V14.6843L63.2067 4.13344V100.979Z" fill="#873395"/>
<path d="M139.844 175.526H77.8984V163.471H97.9696V163.271H77.8984V112.958L105.512 118.737L108.109 125.518H111.031V131.497H108.109V140.115V163.271H104.644V163.471H139.844V175.526ZM139.844 100.979H77.8984V26.7982H86.3744V88.3533H117.249C108.078 85.9222 101.307 81.4197 101.307 71.4809C101.307 64.5301 104.63 58.3676 109.755 54.4495H109.596L107.452 50.2583L102.126 39.8527L113.338 28.6414L139.844 38.7115V45.7246L137.524 50.2583L135.48 54.249C137.13 55.4698 138.603 56.9187 139.844 58.5509V82.5643C136.995 85.3308 132.938 87.1118 128.256 88.3533H139.844V100.979Z" fill="#873395"/>
<path d="M247.051 198.18H234.592V175.525H185.105V112.635L189.618 107.991L192.61 109.9L201.532 100.978H185.105V88.3522H234.592V11.2112L245.799 -4.57764e-05L247.051 4.68922V198.18ZM204.26 100.978L207.86 119.521H222.059V163.47H234.592V100.978H204.26Z" fill="#873395"/>
<path d="M11.2051 186.97H25.4043V0.00137329H11.2051V186.97Z" fill="#682B72"/>
<path d="M245.801 186.97H260V0.00137329H245.801V186.97Z" fill="#682B72"/>
<path d="M25.4082 89.7676H245.8V80.9804H25.4082V89.7676Z" fill="#682B72"/>
<path d="M25.4082 164.313H245.8V155.523H25.4082V164.313Z" fill="#682B72"/>
<path d="M146.697 43.0386L154.063 28.6424H113.343L120.813 43.2427H120.972C115.843 47.1608 112.523 53.3197 112.523 60.2741C112.523 70.2128 119.291 78.5469 128.466 80.9814H139.473C148.644 78.5469 155.415 70.2128 155.415 60.2741C155.415 53.1987 151.978 46.9463 146.697 43.0386Z" fill="#A439B5"/>
<path d="M120.812 43.2422L146.696 43.0381L148.74 39.0474H118.664L120.812 43.2422Z" fill="#753180"/>
<path d="M35.4648 80.9814H49.664V15.5879H35.4648V80.9814Z" fill="#B855C8"/>
<path d="M63.8633 80.9814H78.0624V3.47741H63.8633V80.9814Z" fill="#682B72"/>
<path d="M78.0625 80.9814H97.5873V15.5879H78.0625V80.9814Z" fill="#753180"/>
<path d="M189.617 155.406H203.816V107.992H189.617V155.406Z" fill="#A439B5"/>
<path d="M219.07 155.406H233.269V107.992H219.07V155.406Z" fill="#A439B5"/>
<path d="M203.816 155.406H219.067V98.6926H203.816V155.406Z" fill="#753180"/>
<path d="M49.3496 152.062H119.322V120.285H49.3496V152.062Z" fill="#B855C8"/>
<path d="M49.3496 128.906H119.322V120.285H49.3496V128.906Z" fill="#9A4AA7"/>
<path d="M46.4316 120.285H122.241V114.306H46.4316V120.285Z" fill="#682B72"/>
<path d="M80.1152 136.17H89.2413V124.592H80.1152V136.17Z" fill="#A439B5"/>
<path d="M80.1152 129.076H89.2413V124.594H80.1152V129.076Z" fill="#8D3C9A"/>
<path d="M84.6783 127.976C83.9313 127.976 83.3262 129.187 83.3262 130.68C83.3262 132.174 83.9313 133.385 84.6783 133.385C85.4252 133.385 86.0304 132.174 86.0304 130.68C86.0304 129.187 85.4252 127.976 84.6783 127.976Z" fill="#682B72"/>
<path d="M52.9883 155.523H59.6624V152.062H52.9883V155.523Z" fill="#682B72"/>
<path d="M109.18 155.523H115.857V152.062H109.18V155.523Z" fill="#682B72"/>
<path d="M51.9467 107.523L49.3496 114.305H119.322L116.721 107.523H51.9467Z" fill="#B855C8"/>
</svg>
