<svg width="243" height="270" viewBox="0 0 243 270" fill="none" xmlns="http://www.w3.org/2000/svg">
<path d="M121.5 269.285C54.3984 269.285 0 264.29 0 258.132C0 255.408 10.6358 252.913 28.3056 250.973C32.0231 256.039 38.0245 259.333 44.7951 259.333H198.205C204.974 259.333 210.978 256.039 214.692 250.973C232.364 252.913 243 255.408 243 258.132C243 264.29 188.602 269.285 121.5 269.285Z" fill="black" fill-opacity="0.25"/>
<path d="M74.0684 68.0029H81.1919V53.3563H74.0684V68.0029Z" fill="#753180"/>
<path d="M77.9355 61.4736C75.8255 61.4736 74.0684 60.6797 74.0684 60.6797V59.0162C75.1181 59.5224 76.2906 59.8154 77.5301 59.8283C77.5435 59.8283 77.5564 59.8283 77.5693 59.8283C77.5712 59.8283 77.5712 59.8283 77.5731 59.8283C77.5899 59.8283 77.6071 59.8283 77.6257 59.8283C77.8796 59.8283 78.1315 59.8154 78.38 59.7949V61.4641C78.2304 61.4736 78.0832 61.4736 77.9355 61.4736ZM80.219 61.1151V59.4081C80.5536 59.2925 80.8781 59.1639 81.1922 59.0104V60.6797C80.8748 60.8608 80.5478 61.0047 80.219 61.1151Z" fill="#753180"/>
<path d="M80.2139 66.1162H78.375V61.4647C78.9783 61.4312 79.6016 61.3246 80.2139 61.1157V66.1162Z" fill="#753180"/>
<path d="M78.375 61.4629V59.7937C79.0117 59.732 79.6279 59.6029 80.2139 59.407V61.1139C79.6016 61.3228 78.9783 61.4294 78.375 61.4629Z" fill="#753180"/>
<path d="M161.008 68.0029H168.129V53.3563H161.008V68.0029Z" fill="#753180"/>
<path d="M164.875 61.4736C162.767 61.4736 161.008 60.6797 161.008 60.6797V59.0104C162.083 59.5372 163.293 59.8283 164.569 59.8283C164.579 59.8283 164.593 59.8283 164.602 59.8283C164.846 59.8245 165.085 59.8154 165.32 59.7949V61.4641C165.171 61.4736 165.023 61.4736 164.875 61.4736ZM167.16 61.1151V59.4081C167.494 59.2982 167.82 59.1639 168.13 59.0104V60.6797C167.815 60.8608 167.49 61.0047 167.16 61.1151Z" fill="#753180"/>
<path d="M167.161 66.1162H165.32V61.4647C165.923 61.4312 166.549 61.3246 167.161 61.1157V66.1162Z" fill="#753180"/>
<path d="M165.32 61.4629V59.7937C165.956 59.732 166.573 59.6029 167.161 59.407V61.1139C166.549 61.3228 165.923 61.4294 165.32 61.4629Z" fill="#753180"/>
<path d="M195.687 73.5281H47.3065C39.8467 73.5281 33.7988 76.3049 33.7988 83.7628V84.0353C33.7988 91.4966 36.5751 97.5449 44.035 97.5449H198.957C206.414 97.5449 209.191 91.4966 209.191 84.0353V83.7628C209.191 76.3049 203.144 73.5281 195.687 73.5281Z" fill="#753180"/>
<path d="M200.612 75.4312C200.612 75.8475 165.65 76.1816 122.523 76.1816C79.396 76.1816 44.4355 75.8475 44.4355 75.4312C44.4355 75.0201 79.396 74.6807 122.523 74.6807C165.65 74.6807 200.612 75.0201 200.612 75.4312Z" fill="#753180"/>
<path d="M199.223 86.7214C199.223 134.667 243 174.087 243 220.636C243 241.262 204.157 256.971 204.157 256.971L189.85 96.3285C189.85 96.3285 191.427 86.7214 199.223 86.7214Z" fill="#9530A5"/>
<path d="M217.182 250.493C217.316 250.153 217.445 249.81 217.56 249.461C218.306 248.787 219.032 248.06 219.726 247.27C229.654 240.22 240.71 230.368 240.949 221.32C240.949 197.654 216.977 153.6 203.722 124.431C202.015 116.426 200.662 108.422 199.898 100.455C199.773 98.3563 199.654 96.1713 199.539 93.9103C203.521 138.657 242.995 176.435 242.995 220.636C242.995 232.908 229.252 243.433 218.115 249.953C217.804 250.135 217.488 250.316 217.182 250.493Z" fill="#682B72"/>
<path d="M217.839 248.592C218.389 246.685 218.671 244.663 218.632 242.574C217.189 158.342 206.682 171.101 201.381 119.17C202.117 120.861 202.901 122.62 203.723 124.432C211.343 160.211 225.96 196.173 225.96 230.584C225.96 237.864 223.24 243.296 219.727 247.272C219.091 247.722 218.46 248.162 217.839 248.592Z" fill="#682B72"/>
<path d="M43.7755 86.7214C43.7755 134.667 0 174.087 0 220.636C0 241.262 38.8405 256.971 38.8405 256.971L53.1489 96.3285C53.1489 96.3285 51.5733 86.7214 43.7755 86.7214Z" fill="#9530A5"/>
<path d="M25.8127 250.493C14.5273 244.025 0 233.251 0 220.636C0 219.523 0.0262935 218.414 0.0745729 217.305C0.494747 207.846 2.66062 198.663 5.8222 189.632C16.5603 158.957 38.7846 130.004 43.0566 97.505C43.2134 96.3152 43.3463 95.1111 43.4543 93.9046C43.3405 96.166 43.221 98.3506 43.0939 100.45C42.3544 108.189 41.057 115.957 39.4213 123.728C26.2367 152.887 1.87477 197.462 1.87477 221.32C2.11569 230.512 13.5168 240.531 23.5627 247.601C24.1679 248.26 24.7931 248.882 25.4317 249.461C25.5493 249.81 25.6765 250.153 25.8127 250.493Z" fill="#682B72"/>
<path d="M25.2025 248.735C24.6628 248.367 24.1155 247.988 23.5649 247.602C19.9085 243.597 17.0371 238.069 17.0371 230.584C17.0371 195.948 31.846 159.743 39.4234 123.729C40.2131 121.98 40.9636 120.288 41.6658 118.658C36.3832 171.187 25.8149 158.066 24.3641 242.573C24.3287 244.719 24.6236 246.784 25.2025 248.735Z" fill="#682B72"/>
<path d="M199.224 83.2757H43.776C40.1029 174.686 26.0522 140.732 24.3624 239.127C24.1665 250.537 33.3888 259.887 44.7956 259.887H198.206C209.611 259.887 218.832 250.537 218.636 239.127C216.949 140.732 202.9 174.686 199.224 83.2757Z" fill="#A439B5"/>
<path d="M199.264 88.667H173.843V86.7215H199.225C199.24 87.0499 199.249 87.3711 199.264 87.7019V88.667ZM155.3 88.667H86.8956V86.7215H155.3V88.667ZM68.352 88.667H43.7773V86.7215H68.352V88.667Z" fill="#682B72"/>
<path d="M195.211 260.156H47.795C36.8327 260.156 27.9727 251.164 28.1591 240.209C28.26 234.31 28.4077 228.908 28.596 223.941C48.7271 225.304 111.276 226.371 160.077 226.371C183.381 226.371 203.558 226.126 214.466 225.556C214.628 230.075 214.753 234.945 214.843 240.209C215.035 251.164 206.172 260.156 195.211 260.156Z" fill="#A439B5"/>
<path d="M88.6778 132.738H86.891V88.6659H88.6778V132.738ZM68.3474 132.738H66.5625V88.6659H68.3474V132.738Z" fill="#682B72"/>
<path d="M77.6204 155.579C76.4698 155.579 75.3178 155.086 74.5204 154.096L67.8264 146.601C67.0085 145.587 66.5625 144.325 66.5625 143.026V132.739H68.3474V142.939C68.3474 144.095 68.7451 145.214 69.4717 146.118L74.8641 152.786C75.5735 153.661 76.597 154.1 77.6204 154.1C78.6433 154.1 79.6667 153.661 80.3742 152.786L85.7671 146.118C86.4952 145.214 86.891 144.095 86.891 142.939V132.739H88.6778V143.026C88.6778 144.325 88.2318 145.587 87.4139 146.601L80.7179 154.096C79.9206 155.086 78.7705 155.579 77.6204 155.579Z" fill="#682B72"/>
<path d="M85.7674 146.117L80.3745 152.785C78.9577 154.54 76.2836 154.54 74.8644 152.785L69.472 146.117C68.7454 145.213 68.3477 144.095 68.3477 142.939V73.5262H86.8912V142.939C86.8912 144.095 86.4954 145.213 85.7674 146.117Z" fill="#A439B5"/>
<path d="M68.3477 128.681H86.8912V105.245H68.3477V128.681Z" fill="#A439B5"/>
<path d="M175.625 132.738H173.838V88.6659H175.625V132.738ZM155.295 132.738H153.508V88.6659H155.295V132.738Z" fill="#682B72"/>
<path d="M164.564 155.579C163.417 155.579 162.265 155.086 161.467 154.096L154.772 146.601C153.954 145.587 153.508 144.325 153.508 143.026V132.739H155.295V142.939C155.295 144.095 155.691 145.214 156.417 146.118L161.811 152.786C162.518 153.661 163.541 154.1 164.564 154.1C165.587 154.1 166.61 153.661 167.322 152.786L172.714 146.118C173.441 145.214 173.838 144.095 173.838 142.939V132.739H175.625V143.026C175.625 144.325 175.176 145.587 174.359 146.601L167.662 154.096C166.868 155.086 165.716 155.579 164.564 155.579Z" fill="#682B72"/>
<path d="M172.72 146.117L167.328 152.785C165.908 154.54 163.236 154.54 161.817 152.785L156.423 146.117C155.697 145.213 155.301 144.095 155.301 142.939V73.5262H173.843V142.939C173.843 144.095 173.447 145.213 172.72 146.117Z" fill="#A439B5"/>
<path d="M155.301 128.681H173.844V105.245H155.301V128.681Z" fill="#A439B5"/>
<path d="M130.774 73.5283H109.514V71.7358C109.514 68.6344 112.03 66.1158 115.136 66.1158H125.151C128.257 66.1158 130.774 68.6344 130.774 71.7358V73.5283Z" fill="#753180"/>
<path d="M130.771 73.5283H110.072V71.7358C110.072 69.2692 111.759 67.7305 114.615 67.0173C114.615 67.0173 111.708 69.6239 112.526 71.5154C113.344 73.4055 130.771 73.5283 130.771 73.5283Z" fill="#682B72"/>
<path d="M130.776 73.5283C130.776 73.5283 130.314 70.6454 127.045 68.5001C124.254 66.6703 115.287 66.2238 114.654 66.1378C114.815 66.1248 114.975 66.1158 115.138 66.1158H125.153C128.259 66.1158 130.776 68.6344 130.776 71.7358V73.5283Z" fill="#753180"/>
<path d="M198.774 193.247H44.0389C36.6445 193.247 31.1139 186.465 32.6 179.222L33.177 176.406C34.2917 170.976 39.0718 167.081 44.6158 167.081H198.239C203.846 167.081 208.664 171.068 209.711 176.574L210.247 179.39C211.614 186.585 206.097 193.247 198.774 193.247Z" fill="#A439B5"/>
<path d="M82.397 66.1158H72.8406C70.3363 66.1158 68.3047 68.1473 68.3047 70.6512V73.5283H86.9305V70.6512C86.9305 68.1473 84.9008 66.1158 82.397 66.1158Z" fill="#9530A5"/>
<path d="M169.344 66.1158H159.789C157.283 66.1158 155.252 68.1473 155.252 70.6512V73.5283H173.881V70.6512C173.881 68.1473 171.849 66.1158 169.344 66.1158Z" fill="#9530A5"/>
<path d="M164.571 59.8281C160.053 59.8281 156.394 56.1666 156.394 51.6498C156.394 32.1894 140.561 16.3533 121.101 16.3533C101.635 16.3533 85.8025 32.1894 85.8025 51.6498C85.8025 56.1666 82.1428 59.8281 77.6261 59.8281C73.1089 59.8281 69.4473 56.1666 69.4473 51.6498C69.4473 23.1745 92.618 -3.05176e-05 121.101 -3.05176e-05C149.578 -3.05176e-05 172.749 23.1745 172.749 51.6498C172.749 56.1666 169.088 59.8281 164.571 59.8281Z" fill="#A439B5"/>
<path d="M72.44 55.0381C71.9974 55.0381 71.5547 53.9047 71.5547 51.649C71.5547 23.1737 98.1294 2.59094 121.095 2.59094C146.099 2.59094 170.224 21.7153 170.224 50.1906C170.224 51.9645 169.665 53.04 169.124 53.04C168.618 53.04 168.13 52.1026 168.13 49.9233C168.13 30.4634 151.278 5.86057 121.095 5.86057C91.7245 5.86057 73.3267 32.1886 73.3267 51.649C73.3267 53.9047 72.8841 55.0381 72.44 55.0381Z" fill="#A439B5"/>
<path d="M164.57 59.8281C163.294 59.8281 162.085 59.537 161.009 59.0102C158.277 57.6919 156.394 54.8912 156.394 51.6498C156.394 36.4915 146.788 23.5331 133.346 18.5474C129.53 17.1282 125.403 16.3533 121.101 16.3533C101.635 16.3533 85.8024 32.1894 85.8024 51.6498C85.8024 54.8855 83.9205 57.6866 81.1924 59.0102C80.8784 59.1637 80.5538 59.2923 80.2192 59.408C79.6332 59.6039 79.017 59.733 78.3803 59.7947C78.1317 59.8152 77.8798 59.8281 77.626 59.8281C77.6093 59.8281 77.5901 59.8281 77.5734 59.8281C77.5715 59.8281 77.5715 59.8281 77.5696 59.8281C77.5567 59.8281 77.5438 59.8281 77.5304 59.8281C75.1609 59.8004 75.8129 58.7005 76.8922 56.9787C77.1327 57.0274 77.3774 57.0552 77.626 57.0552C78.0796 57.0552 78.539 56.9696 78.9835 56.7884C80.3631 56.2187 81.1958 54.8855 81.1924 53.4796C81.1905 53.0313 81.1045 52.5724 80.9214 52.1335C80.55 51.2296 79.8478 50.5594 79.0132 50.2062C79.7192 32.5144 93.376 11.8552 121.101 11.8552C149.578 11.8552 161.004 32.8447 161.004 50.1914C161.004 50.7702 161.138 51.3582 161.358 51.9466C161.129 52.4246 161.004 52.9586 161.004 53.5002C161.004 53.9481 161.095 54.4075 161.277 54.8482C161.841 56.2244 163.17 57.0552 164.575 57.0552C164.633 57.0552 164.695 57.0552 164.752 57.0518C166.033 58.6947 166.678 59.8152 164.604 59.8281C164.594 59.8281 164.58 59.8281 164.57 59.8281Z" fill="#9A35AA"/>
<path d="M77.6212 57.0547C76.2206 57.0547 74.8912 56.2239 74.3233 54.8477C74.1422 54.407 74.0566 53.9476 74.0547 53.4997C74.0509 52.0939 74.8836 50.7602 76.2636 50.1909C76.2636 50.1909 78.2495 51.6773 79 53.5C79.749 55.3203 78.9787 56.788 78.9787 56.788C78.5341 56.9691 78.0748 57.0547 77.6212 57.0547Z" fill="#753180"/>
<path d="M78.9807 56.79C78.9807 56.79 77.5371 55.6715 76.7866 53.8507C76.0357 52.0285 76.2656 50.193 76.2656 50.193C76.7101 50.0118 77.169 49.9257 77.6212 49.9257C79.0232 49.9257 80.3531 50.757 80.9186 52.1351C81.1016 52.5739 81.1877 53.0329 81.1896 53.4812C81.193 54.8871 80.3602 56.2202 78.9807 56.79Z" fill="#753180"/>
<path d="M78.9827 56.79C78.9827 56.79 81.552 54.7212 80.269 52.1777C79.2886 49.9874 76.2676 50.193 76.2676 50.193C78.0879 49.4425 80.172 50.3125 80.9206 52.1351C81.6715 53.9554 80.803 56.0396 78.9827 56.79Z" fill="#753180"/>
<path d="M164.571 57.0547C163.165 57.0547 161.837 56.2239 161.272 54.8477C161.091 54.407 161 53.9476 161 53.4997C160.995 52.0939 161.832 50.7602 163.208 50.1909C163.208 50.1909 164.25 51.6773 165 53.5C165.75 55.3203 165.924 56.788 165.924 56.788C165.479 56.9691 165.02 57.0547 164.571 57.0547Z" fill="#753180"/>
<path d="M165.925 56.79C165.925 56.79 164.481 55.6715 163.731 53.8507C162.985 52.0285 163.21 50.193 163.21 50.193C163.654 50.0118 164.113 49.9257 164.567 49.9257C165.968 49.9257 167.297 50.757 167.865 52.1351C168.047 52.5739 168.133 53.0329 168.133 53.4812C168.138 54.8871 167.306 56.2202 165.925 56.79Z" fill="#753180"/>
<path d="M165.928 56.79C165.928 56.79 168.5 54.7212 167.219 52.1777C166.234 49.9874 163.213 50.193 163.213 50.193C165.034 49.4425 167.118 50.3125 167.869 52.1351C168.619 53.9554 167.749 56.0396 165.928 56.79Z" fill="#753180"/>
<path d="M129.028 68.1013L129.324 69.1582L128.269 68.8633L127.973 67.8064L129.028 68.1013Z" fill="#753180"/>
<path d="M68.3477 73.5283H86.8912V71.2391H68.3477V73.5283Z" fill="#682B72"/>
</svg>
