<svg width="1728" height="1077" viewBox="0 0 1728 1077" fill="none" xmlns="http://www.w3.org/2000/svg">
<g clip-path="url(#clip0_820_8025)">
<rect width="1728" height="1077" fill="#E4A771"/>
<g clip-path="url(#clip1_820_8025)">
<path d="M1391.64 16.4158C1391.64 16.4158 1288.55 216.992 1326.32 236.926C1350.91 249.911 1339.51 142.528 1491.97 54.7979C1491.97 54.7979 1407.38 174.325 1424.71 197.722C1442.04 221.124 1513.2 93.1799 1605.34 56.6292C1605.34 56.6292 1541.24 186.777 1566.31 187.499C1591.38 188.225 1668.79 60.281 1699.84 47.4888C1699.84 47.4888 1642.47 136.881 1696.51 221.039C1750.54 305.197 1733.42 -11 1733.42 -11L1391.64 16.4158Z" fill="#043F22"/>
<path d="M1326.16 236.847C1326.16 236.847 1365.24 65.2845 1436.21 12.322" stroke="#8C7417" stroke-width="2" stroke-miterlimit="10" stroke-linecap="round" stroke-linejoin="round"/>
<path d="M1422.7 197.597C1422.7 197.597 1517.99 42.8433 1573.32 1.09852" stroke="#8C7417" stroke-width="2" stroke-miterlimit="10" stroke-linecap="round" stroke-linejoin="round"/>
<path d="M1603.4 146C1597.91 137.845 1650.4 12.7649 1688.73 -22M1703.27 231C1697.79 222.845 1689.67 34.7649 1728 0" stroke="#8C7417" stroke-width="2" stroke-miterlimit="10" stroke-linecap="round" stroke-linejoin="round"/>
</g>
<path d="M1590.85 1350.48H174.965V6.7007H1590.85V1350.48Z" fill="#E4A771"/>
<path d="M212.245 -8.44066C212.245 -8.44066 266.559 113.085 277.872 113.196C289.184 113.306 290.916 -27.8234 290.916 -27.8234C290.916 -27.8234 380.945 123.032 398.307 118.168C415.669 113.306 380.98 -27.4767 380.98 -27.4767C380.98 -27.4767 445.326 70.3236 456.927 71.2104C468.529 72.1 446.557 -37.1976 446.557 -37.1976L321.036 -78.9999L197.57 -65.8631L212.245 -8.44066Z" fill="#626129"/>
<path d="M1144.71 -6.73727C1144.71 -6.73727 1165.91 118.987 1183.46 121.521C1201.01 124.056 1183.63 18.3485 1214.03 -37.198L1144.71 -6.73727Z" fill="#043F22"/>
<path d="M552.692 -50.7054C552.692 -50.7054 525.572 73.9894 541.036 82.2644C556.503 90.5394 579.727 -14.1572 628.892 -55.8708L552.692 -50.7054Z" fill="#043F22"/>
<path d="M1297.96 -10.3224C1297.96 -10.3224 1198.91 186.302 1235.2 205.843C1258.83 218.572 1247.87 113.305 1394.34 27.3034C1394.34 27.3034 1313.08 144.476 1329.73 167.411C1346.38 190.352 1414.74 64.9292 1503.27 29.0986C1503.27 29.0986 1441.68 156.683 1465.77 157.389C1489.85 158.102 1564.22 32.6785 1594.05 20.1383C1594.05 20.1383 1648.34 -1.89551 1700.26 80.6045C1752.17 163.105 1626.32 -37.198 1626.32 -37.198L1297.96 -10.3224Z" fill="#043F22"/>
<path d="M1235.2 205.844C1235.2 205.844 1273.46 37.8551 1342.96 -14.0041" stroke="#8C7417" stroke-width="2" stroke-miterlimit="10" stroke-linecap="round" stroke-linejoin="round"/>
<path d="M1329.73 167.411C1329.73 167.411 1423.03 15.8813 1477.21 -24.9938" stroke="#8C7417" stroke-width="2" stroke-miterlimit="10" stroke-linecap="round" stroke-linejoin="round"/>
<path d="M1465.77 157.39C1460.23 149.405 1552.15 -17.4872 1590.85 -51.5278" stroke="#8C7417" stroke-width="2" stroke-miterlimit="10" stroke-linecap="round" stroke-linejoin="round"/>
<path d="M242.17 -54.7474C242.17 -54.7474 388.394 113.292 358.17 140.585C338.486 158.36 322.285 53.7092 158.236 3.89253C158.236 3.89253 266.954 98.9221 256.65 125.002C246.345 151.08 148.04 45.0848 53.0071 30.6445C53.0071 30.6445 145.287 140.297 122.098 146.516C98.9095 152.732 -5.22115 48.1164 -37.366 42.7977C-37.366 42.7977 38.4547 115.168 9.11044 207.139C-20.2315 299.108 -83.2917 -5.42523 -83.2917 -5.42523L242.17 -54.7474Z" fill="#043F22"/>
<path d="M358.172 140.584C358.172 140.584 278.218 -13.6253 197.57 -47.9858" stroke="#8C7417" stroke-width="2" stroke-miterlimit="10" stroke-linecap="round" stroke-linejoin="round"/>
<path d="M256.651 125.001C256.651 125.001 127.489 -0.60435 64.5032 -27.824" stroke="#8C7417" stroke-width="2" stroke-miterlimit="10" stroke-linecap="round" stroke-linejoin="round"/>
<path d="M1295.88 498.565C1295.88 382.016 1377.92 276.352 1456.21 276.352H1476.78C1555.06 276.352 1637.1 382.016 1637.1 498.565V924.951H1295.88V498.565Z" fill="#602B1C"/>
<path d="M1306.66 506.926C1306.66 400.181 1383.51 313.647 1456.86 313.647H1476.12C1549.47 313.647 1626.32 400.181 1626.32 506.926V924.951H1306.66V506.926Z" fill="#5972BF"/>
<path d="M1329.73 546.581V546.578C1329.73 461.226 1395.49 392.032 1458.25 392.032H1474.73C1537.49 392.032 1603.25 461.226 1603.25 546.578V546.581V880.833H1329.73V546.581Z" fill="#EE5C39"/>
<path d="M1466.49 392.032V880.833" stroke="#1C1C20" stroke-width="2.66667" stroke-miterlimit="10"/>
<path d="M469.943 493.19C469.943 376.641 387.901 270.979 309.612 270.979H289.045C210.755 270.979 128.713 376.641 128.713 493.19V919.576H469.943V493.19Z" fill="#602B1C"/>
<path d="M459.161 501.551C459.161 394.806 382.305 308.272 308.964 308.272H289.695C216.355 308.272 139.497 394.806 139.497 501.551V919.576H459.161V501.551Z" fill="#5972BF"/>
<path d="M436.09 541.202C436.09 455.851 370.328 386.657 307.573 386.657H291.087C228.331 386.657 162.569 455.851 162.569 541.202V875.457H436.09V541.202Z" fill="#EE5C39"/>
<path d="M299.327 386.657V875.457" stroke="#1C1C20" stroke-width="2.66667" stroke-miterlimit="10"/>
<path d="M904.957 44.0662C904.957 44.0662 903.87 81.1036 953.944 95.345C1004.02 109.589 1024.27 106.799 1040.43 128.604C1040.43 128.604 1021.44 97.7503 978.575 86.8979C935.713 76.0455 904.957 44.0662 904.957 44.0662Z" fill="#EE5C39"/>
<path d="M1129.42 171.556C1129.42 171.556 1159.17 188.581 1173.36 216.277C1187.55 243.969 1200.73 233.751 1197.36 218.572C1193.99 203.393 1144.77 170.997 1129.42 171.556Z" fill="#43568F"/>
<path d="M1100.25 125.413C1112.86 108.79 1080.65 105.71 1089.52 124.386C1080.65 105.71 1061.74 130.643 1083.21 132.696C1061.74 130.643 1075.03 158.655 1087.64 142.033C1075.03 158.655 1107.24 161.735 1098.38 143.06C1107.24 161.735 1126.16 136.803 1104.69 134.75C1126.16 136.803 1112.86 108.79 1100.25 125.413Z" fill="#5972BF"/>
<path d="M1100.11 134.311C1100.46 131.081 1097.97 128.197 1094.57 127.872C1091.16 127.547 1088.13 129.901 1087.78 133.131C1087.44 136.365 1089.92 139.248 1093.33 139.574C1096.73 139.899 1099.77 137.544 1100.11 134.311Z" fill="#F2E1C5"/>
<path d="M1056.78 106.194C1056.78 106.194 1041.47 60.8361 1029.93 67.8372C1018.38 74.8356 1056.78 106.194 1056.78 106.194Z" fill="#5972BF"/>
<path d="M1007.18 77.8159C1007.18 77.8159 981.918 39.6095 970.954 52.4023C959.989 65.1978 1007.18 77.8159 1007.18 77.8159Z" fill="#F2E1C5"/>
<path d="M1130.2 146.113C1130.2 146.113 1156.8 119.052 1162.47 127.604C1168.14 136.153 1130.2 146.113 1130.2 146.113Z" fill="#43568F"/>
<path d="M1197.96 190.022C1197.96 190.022 1218.55 195.591 1214.1 201.699C1209.64 207.811 1197.96 190.022 1197.96 190.022Z" fill="#5972BF"/>
<path d="M1130.7 159.524C1130.7 159.524 1144.55 159.836 1163.49 169.073C1182.43 178.315 1188.49 171.467 1185.29 164.746C1182.09 158.024 1143.73 154.014 1130.7 159.524Z" fill="#F2E1C5"/>
<path d="M1237.59 328.138C1237.59 328.138 1241.25 269.856 1220.31 276.349C1199.36 282.844 1237.59 328.138 1237.59 328.138Z" fill="#EE5C39"/>
<path d="M1245.38 376.909C1245.38 376.909 1237.04 334.725 1225.63 341.036C1214.23 347.346 1245.38 376.909 1245.38 376.909Z" fill="#F2E1C5"/>
<path d="M1253.16 430.438C1253.16 430.438 1248.7 391.019 1237.84 397.066C1226.97 403.113 1253.16 430.438 1253.16 430.438Z" fill="#5972BF"/>
<path d="M1274.4 328.138C1274.4 328.138 1270.74 269.856 1291.68 276.349C1312.63 282.844 1274.4 328.138 1274.4 328.138Z" fill="#EE5C39"/>
<path d="M1266.62 376.909C1266.62 376.909 1274.96 334.725 1286.36 341.036C1297.77 347.346 1266.62 376.909 1266.62 376.909Z" fill="#F2E1C5"/>
<path d="M1258.82 430.438C1258.82 430.438 1263.29 391.019 1274.15 397.066C1285.02 403.113 1258.82 430.438 1258.82 430.438Z" fill="#5972BF"/>
<path d="M1256 455.539C1256 455.539 1236.88 528.084 1256 528.084C1275.11 528.084 1256 455.539 1256 455.539Z" fill="#43568F"/>
<path d="M1256 245.219C1256 245.219 1242.55 280.644 1256 280.644C1269.45 280.644 1256 245.219 1256 245.219Z" fill="#43568F"/>
<path d="M860.861 44.0662C860.861 44.0662 861.948 81.1036 811.877 95.345C761.803 109.589 741.553 106.799 725.383 128.604C725.383 128.604 744.379 97.7503 787.241 86.8979C830.105 76.0455 860.861 44.0662 860.861 44.0662Z" fill="#EE5C39"/>
<path d="M636.401 171.556C636.401 171.556 606.65 188.581 592.457 216.277C578.267 243.969 565.085 233.751 568.455 218.572C571.825 203.393 621.053 170.997 636.401 171.556Z" fill="#43568F"/>
<path d="M665.565 125.413C652.952 108.79 685.161 105.71 676.3 124.386C685.161 105.71 704.077 130.643 682.607 132.696C704.077 130.643 690.785 158.655 678.175 142.033C690.785 158.655 658.576 161.735 667.44 143.06C658.576 161.735 639.663 136.803 661.133 134.75C639.663 136.803 652.952 108.79 665.565 125.413Z" fill="#5972BF"/>
<path d="M665.705 134.311C665.362 131.081 667.846 128.197 671.25 127.872C674.656 127.547 677.692 129.901 678.034 133.131C678.377 136.365 675.896 139.248 672.493 139.574C669.086 139.899 666.048 137.544 665.705 134.311Z" fill="#F2E1C5"/>
<path d="M709.04 106.194C709.04 106.194 724.34 60.8361 735.891 67.8372C747.438 74.8356 709.04 106.194 709.04 106.194Z" fill="#5972BF"/>
<path d="M758.641 77.8159C758.641 77.8159 783.9 39.6095 794.865 52.4023C805.829 65.1978 758.641 77.8159 758.641 77.8159Z" fill="#F2E1C5"/>
<path d="M635.612 146.113C635.612 146.113 609.022 119.052 603.35 127.604C597.677 136.153 635.612 146.113 635.612 146.113Z" fill="#43568F"/>
<path d="M567.858 190.022C567.858 190.022 547.268 195.591 551.723 201.699C556.177 207.811 567.858 190.022 567.858 190.022Z" fill="#5972BF"/>
<path d="M635.125 159.524C635.125 159.524 621.275 159.836 602.333 169.073C583.391 178.315 577.328 171.467 580.528 164.746C583.728 158.024 622.096 154.014 635.125 159.524Z" fill="#F2E1C5"/>
<path d="M528.228 328.138C528.228 328.138 524.564 269.856 545.51 276.349C566.457 282.844 528.228 328.138 528.228 328.138Z" fill="#EE5C39"/>
<path d="M520.443 376.909C520.443 376.909 528.783 334.725 540.189 341.036C551.592 347.346 520.443 376.909 520.443 376.909Z" fill="#F2E1C5"/>
<path d="M512.656 430.438C512.656 430.438 517.118 391.019 527.984 397.066C538.849 403.113 512.656 430.438 512.656 430.438Z" fill="#5972BF"/>
<path d="M491.417 328.138C491.417 328.138 495.082 269.856 474.135 276.349C453.188 282.844 491.417 328.138 491.417 328.138Z" fill="#EE5C39"/>
<path d="M499.205 376.909C499.205 376.909 490.865 334.725 479.459 341.036C468.055 347.346 499.205 376.909 499.205 376.909Z" fill="#F2E1C5"/>
<path d="M506.993 430.438C506.993 430.438 502.53 391.019 491.665 397.066C480.799 403.113 506.993 430.438 506.993 430.438Z" fill="#5972BF"/>
<path d="M509.823 455.539C509.823 455.539 528.938 528.084 509.823 528.084C490.709 528.084 509.823 455.539 509.823 455.539Z" fill="#43568F"/>
<path d="M509.825 245.219C509.825 245.219 523.276 280.644 509.825 280.644C496.374 280.644 509.825 245.219 509.825 245.219Z" fill="#43568F"/>
<path d="M1216.12 426.524C1216.12 279.278 1055.89 145.785 902.994 145.785H862.828C709.93 145.785 549.705 279.278 549.705 426.524V965.222H1216.12V426.524Z" fill="#602B1C"/>
<path d="M549.705 399.646C549.705 252.403 709.93 118.906 862.828 118.906H902.994C1055.89 118.906 1216.12 252.403 1216.12 399.646V426.524C1216.12 279.278 1055.89 145.784 902.994 145.784H862.828C709.93 145.784 549.705 279.278 549.705 426.524V399.646Z" fill="#3E1F0D"/>
<path d="M1195.06 432.864C1195.06 296.925 1044.96 186.721 901.723 186.721H864.095C720.861 186.721 570.763 296.925 570.763 432.864V965.222H1195.06V432.864Z" fill="#5972BF"/>
<path d="M882.909 186.721V965.222" stroke="#1C1C20" stroke-width="2.66667" stroke-miterlimit="10"/>
<path d="M955.472 276.349C955.472 276.349 966.949 231.558 984.396 243.203C1001.84 254.848 955.472 276.349 955.472 276.349Z" fill="#9BAAD9"/>
<path d="M989.703 268.399C989.703 268.399 1017.92 260.337 1017.92 268.399C1017.92 276.462 989.703 268.399 989.703 268.399Z" fill="#43568F"/>
<path d="M1120.03 339.015C1120.03 339.015 1102.78 316.34 1110.8 313.703C1118.83 311.067 1120.03 339.015 1120.03 339.015Z" fill="#43568F"/>
<path d="M1028.17 258.81C1035.97 258.423 1043.8 259.348 1051.44 260.928C1059.11 262.462 1066.56 264.914 1073.75 267.894C1077.36 269.378 1080.81 271.186 1084.27 272.936L1089.26 275.924C1090.08 276.432 1090.93 276.905 1091.73 277.44L1094.08 279.136C1100.48 283.455 1106.04 288.838 1110.87 294.603C1104.39 290.443 1098.28 286.164 1091.63 282.627C1085.1 278.98 1078.4 275.637 1071.45 272.802C1064.57 269.837 1057.48 267.262 1050.27 264.957C1043.04 262.667 1035.71 260.638 1028.17 258.81Z" fill="#1C1C20"/>
<path d="M1045.04 276.706C1045.04 274.529 1043.19 272.769 1040.89 272.769C1038.6 272.769 1036.74 274.529 1036.74 276.706C1036.74 278.88 1038.6 280.644 1040.89 280.644C1043.19 280.644 1045.04 278.88 1045.04 276.706Z" fill="#F2E1C5"/>
<path d="M1064.24 282.727C1064.24 280.553 1062.39 278.787 1060.09 278.787C1057.8 278.787 1055.94 280.553 1055.94 282.727C1055.94 284.901 1057.8 286.664 1060.09 286.664C1062.39 286.664 1064.24 284.901 1064.24 282.727Z" fill="#F2E1C5"/>
<path d="M1081.55 290.604C1081.55 288.43 1079.69 286.664 1077.4 286.664C1075.11 286.664 1073.25 288.43 1073.25 290.604C1073.25 292.778 1075.11 294.541 1077.4 294.541C1079.69 294.541 1081.55 292.778 1081.55 290.604Z" fill="#F2E1C5"/>
<path d="M1096.95 300.346C1096.95 298.172 1095.09 296.406 1092.8 296.406C1090.51 296.406 1088.65 298.172 1088.65 300.346C1088.65 302.52 1090.51 304.283 1092.8 304.283C1095.09 304.283 1096.95 302.52 1096.95 300.346Z" fill="#F2E1C5"/>
<path d="M1141.42 384.671C1141.42 384.671 1132.9 442.948 1147.02 443.878C1161.15 444.811 1141.42 384.671 1141.42 384.671Z" fill="#9BAAD9"/>
<path d="M1150.95 459.302C1150.95 459.302 1138.68 492.896 1150.95 492.896C1163.22 492.896 1150.95 459.302 1150.95 459.302Z" fill="#43568F"/>
<path d="M1136.47 361.881C1161.75 361.881 1138.12 339.456 1138.12 363.445C1138.12 339.456 1114.49 361.881 1139.77 361.881C1114.49 361.881 1138.12 384.303 1138.12 360.317C1138.12 384.303 1161.75 361.881 1136.47 361.881Z" fill="#1C1C20"/>
<path d="M1149.3 518.482C1174.57 518.482 1150.95 496.06 1150.95 520.047C1150.95 496.06 1127.32 518.482 1152.6 518.482C1127.32 518.482 1150.95 540.907 1150.95 516.918C1150.95 540.907 1174.57 518.482 1149.3 518.482Z" fill="#1C1C20"/>
<path d="M1110.27 546.897H933.06C925.173 546.897 918.776 540.829 918.776 533.341V358.408C918.776 320.511 951.149 289.787 991.08 289.787C1064.79 289.787 1124.55 346.502 1124.55 416.462V533.341C1124.55 540.829 1118.16 546.897 1110.27 546.897Z" fill="#43568F"/>
<path d="M918.776 517.334L930.203 528.084L941.632 517.334L953.058 528.084L964.493 517.334L975.905 528.084L987.331 517.334L998.751 528.084L1010.18 517.334L1021.61 528.084L1033.04 517.334L1044.47 528.084L1055.91 517.334L1067.34 528.084L1078.77 517.334L1090.21 528.084L1101.64 517.334L1113.1 528.084L1124.55 517.334" stroke="#9BAAD9" stroke-width="2.66667" stroke-miterlimit="10"/>
<path d="M1021.67 321.366C1021.67 321.366 1013.25 302.029 1021.67 302.029C1030.08 302.029 1021.67 321.366 1021.67 321.366Z" fill="#F2E1C5"/>
<path d="M1006.59 328.138C1006.59 328.138 993.759 316.377 1000 313.794C1006.24 311.212 1006.59 328.138 1006.59 328.138Z" fill="#9BAAD9"/>
<path d="M989.704 336.429C989.704 336.429 974.741 327.214 980.348 323.548C985.955 319.879 989.704 336.429 989.704 336.429Z" fill="#9BAAD9"/>
<path d="M977.628 345.094C977.628 345.094 964.791 341.543 967.983 337.762C971.174 333.981 977.628 345.094 977.628 345.094Z" fill="#9BAAD9"/>
<path d="M1036.74 328.138C1036.74 328.138 1049.57 316.377 1043.33 313.794C1037.09 311.212 1036.74 328.138 1036.74 328.138Z" fill="#9BAAD9"/>
<path d="M1053.63 336.429C1053.63 336.429 1068.59 327.214 1062.99 323.548C1057.38 319.879 1053.63 336.429 1053.63 336.429Z" fill="#9BAAD9"/>
<path d="M1065.7 345.094C1065.7 345.094 1078.54 341.543 1075.35 337.762C1072.15 333.981 1065.7 345.094 1065.7 345.094Z" fill="#9BAAD9"/>
<path d="M969.042 353.625C969.042 353.625 942.018 361.706 941.908 353.98C941.794 346.253 969.042 353.625 969.042 353.625Z" fill="#F2E1C5"/>
<path d="M1074.29 353.625C1074.29 353.625 1101.32 361.706 1101.43 353.98C1101.54 346.253 1074.29 353.625 1074.29 353.625Z" fill="#F2E1C5"/>
<path d="M1043.63 357.323C1043.43 356.393 1037.82 330.541 1021.66 329.821C1005.51 330.541 999.9 356.393 999.704 357.323C974.836 359.876 955.472 379.852 955.472 404.132V487.986C955.472 494.17 960.312 499.39 966.771 500.177L986.769 502.612C1009.94 505.434 1033.39 505.434 1056.56 502.612L1076.56 500.177C1083.02 499.39 1087.86 494.17 1087.86 487.986V404.132C1087.86 379.852 1068.49 359.876 1043.63 357.323Z" fill="#C2A131"/>
<path d="M1045.87 370.413C1055.2 377.019 1062.85 385.784 1068.37 395.652C1071.05 400.632 1073.18 405.916 1074.51 411.423C1075.71 416.906 1076.17 422.727 1076.17 428.169L1076.69 461.242L1076.71 463.309C1076.71 463.605 1076.71 464.053 1076.67 464.561C1076.61 465.034 1076.55 465.515 1076.4 465.972C1075.89 467.837 1074.66 469.431 1073.16 470.557C1071.64 471.691 1069.82 472.382 1067.95 472.6C1067.49 472.672 1067 472.67 1066.56 472.694L1065.48 472.702L1063.3 472.721L1045.87 472.866L1048.58 470.302L1048.61 480.345L1048.62 482.856L1048.61 484.191C1048.6 484.793 1048.51 485.393 1048.36 485.981C1047.76 488.346 1046.09 490.311 1044.07 491.501C1043.06 492.106 1041.95 492.539 1040.81 492.8C1040.24 492.939 1039.66 493.009 1039.07 493.06L1038.2 493.098L1037.54 493.101L1032.25 493.114L1021.67 493.146L1011.09 493.119L1005.8 493.103L1005.13 493.101L1004.26 493.063C1003.68 493.012 1003.09 492.942 1002.53 492.802C1001.38 492.542 1000.27 492.109 999.26 491.504C997.238 490.314 995.573 488.349 994.973 485.981C994.826 485.395 994.735 484.793 994.718 484.191L994.709 482.856L994.718 480.345L994.752 470.302L997.459 472.874L980.035 472.726L977.858 472.71L976.77 472.699C976.334 472.678 975.839 472.68 975.383 472.608C973.517 472.388 971.693 471.697 970.175 470.563C968.668 469.434 967.44 467.84 966.927 465.972C966.78 465.515 966.717 465.034 966.658 464.561C966.624 464.053 966.613 463.605 966.624 463.309L966.641 461.242L967.156 428.169C967.156 422.727 967.612 416.906 968.813 411.42C970.152 405.916 972.276 400.63 974.964 395.65C980.486 385.781 988.128 377.017 997.459 370.413C988.768 377.713 981.7 386.684 976.923 396.558C974.595 401.525 972.913 406.714 971.82 411.995C970.911 417.36 970.702 422.584 970.931 428.169L971.446 461.242L971.463 463.309C971.461 463.701 971.483 463.941 971.495 464.121C971.534 464.328 971.551 464.537 971.631 464.736C971.86 465.545 972.446 466.289 973.219 466.848C973.995 467.407 974.969 467.768 975.983 467.864C976.243 467.905 976.479 467.889 976.77 467.905L977.858 467.897L980.035 467.878L997.459 467.73L1000.16 467.709L1000.17 470.302L1000.2 480.345L1000.21 482.856C1000.21 483.24 1000.2 483.772 1000.22 484.033C1000.23 484.267 1000.27 484.498 1000.32 484.723C1000.55 485.626 1001.24 486.486 1002.21 487.051C1002.69 487.333 1003.24 487.543 1003.81 487.669C1004.09 487.742 1004.39 487.768 1004.68 487.795L1005.13 487.814H1005.8L1011.09 487.798L1021.67 487.774L1032.25 487.801L1037.54 487.817L1038.2 487.819L1038.65 487.798C1038.95 487.771 1039.24 487.744 1039.53 487.672C1040.1 487.545 1040.64 487.336 1041.13 487.054C1042.1 486.489 1042.78 485.626 1043.01 484.726C1043.07 484.498 1043.11 484.269 1043.12 484.033C1043.14 483.772 1043.12 483.24 1043.13 482.856L1043.14 480.345L1043.18 470.302L1043.18 467.717L1045.87 467.738L1063.3 467.883L1065.48 467.902L1066.56 467.91C1066.86 467.894 1067.09 467.913 1067.35 467.872C1068.37 467.773 1069.34 467.413 1070.12 466.854C1070.9 466.292 1071.48 465.548 1071.71 464.739C1071.79 464.54 1071.81 464.328 1071.84 464.123C1071.86 463.941 1071.88 463.701 1071.88 463.309L1071.9 461.242L1072.41 428.169C1072.64 422.584 1072.43 417.36 1071.52 411.995C1070.43 406.712 1068.75 401.522 1066.42 396.555C1061.64 386.681 1054.57 377.71 1045.87 370.413Z" fill="#D9CE55"/>
<path d="M1021.67 423.719C1021.67 423.719 1007.04 353.394 1021.67 353.394C1036.3 353.394 1021.67 423.719 1021.67 423.719Z" fill="#D9CE55"/>
<path d="M1021.67 423.718C1021.67 423.718 1007.04 477.617 1021.67 477.617C1036.3 477.617 1021.67 423.718 1021.67 423.718Z" fill="#D9CE55"/>
<path d="M1021.67 423.718C1021.67 423.718 983.91 434.469 983.91 423.718C983.91 412.968 1021.67 423.718 1021.67 423.718Z" fill="#D9CE55"/>
<path d="M1009.34 410.926C1009.34 410.926 984.393 398.176 990.15 392.712C995.907 387.249 1009.34 410.926 1009.34 410.926Z" fill="#F2E1C5"/>
<path d="M1033.99 410.926C1033.99 410.926 1058.94 398.176 1053.18 392.712C1047.42 387.249 1033.99 410.926 1033.99 410.926Z" fill="#F2E1C5"/>
<path d="M1009.34 436.508C1009.34 436.508 984.393 449.258 990.15 454.722C995.907 460.186 1009.34 436.508 1009.34 436.508Z" fill="#F2E1C5"/>
<path d="M1033.99 436.508C1033.99 436.508 1058.94 449.258 1053.18 454.722C1047.42 460.186 1033.99 436.508 1033.99 436.508Z" fill="#F2E1C5"/>
<path d="M1021.67 423.718C1021.67 423.718 1059.42 434.469 1059.42 423.718C1059.42 412.968 1021.67 423.718 1021.67 423.718Z" fill="#D9CE55"/>
<path d="M1020.17 425.132C1043.04 403.427 1000.29 403.427 1023.15 425.132C1000.29 403.427 1000.29 444.007 1023.15 422.302C1000.29 444.007 1043.04 444.007 1020.17 422.302C1043.04 444.007 1043.04 403.427 1020.17 425.132Z" fill="#1C1C20"/>
<path d="M952.076 332.342C952.076 328.988 949.214 326.271 945.679 326.271C942.148 326.271 939.285 328.988 939.285 332.342C939.285 335.694 942.148 338.411 945.679 338.411C949.214 338.411 952.076 335.694 952.076 332.342Z" fill="#EE5C39"/>
<path d="M966.744 314.604C966.744 311.634 964.209 309.229 961.08 309.229C957.954 309.229 955.417 311.634 955.417 314.604C955.417 317.571 957.954 319.979 961.08 319.979C964.209 319.979 966.744 317.571 966.744 314.604Z" fill="#EE5C39"/>
<path d="M983.339 304.284C983.339 302.058 981.436 300.252 979.091 300.252C976.746 300.252 974.843 302.058 974.843 304.284C974.843 306.512 976.746 308.315 979.091 308.315C981.436 308.315 983.339 306.512 983.339 304.284Z" fill="#EE5C39"/>
<path d="M999.721 300.903C999.721 299.417 998.452 298.215 996.889 298.215C995.323 298.215 994.057 299.417 994.057 300.903C994.057 302.386 995.323 303.59 996.889 303.59C998.452 303.59 999.721 302.386 999.721 300.903Z" fill="#EE5C39"/>
<path d="M1110.27 585.437H933.06C925.173 585.437 918.776 591.506 918.776 598.993V773.927C918.776 811.824 951.149 842.548 991.08 842.548C1064.79 842.548 1124.55 785.832 1124.55 715.873V598.993C1124.55 591.506 1118.16 585.437 1110.27 585.437Z" fill="#43568F"/>
<path d="M918.776 615L930.203 604.25L941.632 615L953.058 604.25L964.493 615L975.905 604.25L987.331 615L998.751 604.25L1010.18 615L1021.61 604.25L1033.04 615L1044.47 604.25L1055.91 615L1067.34 604.25L1078.77 615L1090.21 604.25L1101.64 615L1113.1 604.25L1124.55 615" stroke="#9BAAD9" stroke-width="2.66667" stroke-miterlimit="10"/>
<path d="M1021.67 810.969C1021.67 810.969 1013.25 830.306 1021.67 830.306C1030.08 830.306 1021.67 810.969 1021.67 810.969Z" fill="#F2E1C5"/>
<path d="M1006.59 804.196C1006.59 804.196 993.759 815.957 1000 818.537C1006.24 821.12 1006.59 804.196 1006.59 804.196Z" fill="#9BAAD9"/>
<path d="M989.704 795.903C989.704 795.903 974.741 805.118 980.348 808.787C985.955 812.455 989.704 795.903 989.704 795.903Z" fill="#9BAAD9"/>
<path d="M977.628 787.241C977.628 787.241 964.791 790.791 967.983 794.572C971.174 798.354 977.628 787.241 977.628 787.241Z" fill="#9BAAD9"/>
<path d="M1036.74 804.196C1036.74 804.196 1049.57 815.957 1043.33 818.537C1037.09 821.12 1036.74 804.196 1036.74 804.196Z" fill="#9BAAD9"/>
<path d="M1053.63 795.903C1053.63 795.903 1068.59 805.118 1062.99 808.787C1057.38 812.455 1053.63 795.903 1053.63 795.903Z" fill="#9BAAD9"/>
<path d="M1065.7 787.241C1065.7 787.241 1078.54 790.791 1075.35 794.572C1072.15 798.354 1065.7 787.241 1065.7 787.241Z" fill="#9BAAD9"/>
<path d="M969.042 778.708C969.042 778.708 942.018 770.629 941.908 778.355C941.794 786.082 969.042 778.708 969.042 778.708Z" fill="#F2E1C5"/>
<path d="M1074.29 778.708C1074.29 778.708 1101.32 770.629 1101.43 778.355C1101.54 786.082 1074.29 778.708 1074.29 778.708Z" fill="#F2E1C5"/>
<path d="M1043.63 775.012C1043.43 775.942 1037.82 801.794 1021.66 802.514C1005.51 801.794 999.9 775.942 999.704 775.012C974.836 772.459 955.472 752.483 955.472 728.203V644.349C955.472 638.165 960.312 632.945 966.771 632.158L986.769 629.72C1009.94 626.901 1033.39 626.901 1056.56 629.72L1076.56 632.158C1083.02 632.945 1087.86 638.165 1087.86 644.349V728.203C1087.86 752.483 1068.49 772.459 1043.63 775.012Z" fill="#C2A131"/>
<path d="M1045.87 761.921C1054.57 754.624 1061.64 745.653 1066.42 735.779C1068.75 730.815 1070.43 725.623 1071.52 720.339C1072.43 714.975 1072.64 709.75 1072.41 704.168L1071.9 671.092L1071.88 669.026C1071.88 668.631 1071.86 668.394 1071.84 668.211C1071.81 668.007 1071.79 667.795 1071.71 667.596C1071.48 666.787 1070.9 666.042 1070.12 665.481C1069.34 664.922 1068.37 664.562 1067.35 664.462C1067.09 664.422 1066.86 664.441 1066.56 664.425L1065.48 664.433L1063.3 664.451L1045.87 664.594L1043.18 664.618L1043.18 662.033L1043.14 651.989L1043.13 649.476C1043.12 649.095 1043.14 648.563 1043.12 648.299C1043.11 648.065 1043.07 647.837 1043.01 647.608C1042.78 646.708 1042.1 645.843 1041.13 645.281C1040.64 644.999 1040.1 644.789 1039.53 644.663C1039.24 644.59 1038.95 644.563 1038.65 644.534L1038.2 644.515L1037.54 644.518L1032.25 644.534L1021.67 644.561L1011.09 644.537L1005.8 644.52L1005.13 644.518L1004.68 644.539C1004.39 644.566 1004.09 644.593 1003.81 644.666C1003.24 644.792 1002.69 645.002 1002.21 645.284C1001.24 645.845 1000.55 646.708 1000.32 647.611C1000.27 647.837 1000.23 648.065 1000.22 648.299C1000.2 648.563 1000.21 649.095 1000.21 649.476L1000.2 651.989L1000.17 662.033L1000.16 664.626L997.459 664.602L980.035 664.457L977.858 664.438L976.77 664.43C976.479 664.446 976.243 664.427 975.983 664.47C974.969 664.567 973.995 664.927 973.219 665.486C972.446 666.045 971.86 666.79 971.631 667.599C971.551 667.795 971.534 668.007 971.495 668.214C971.483 668.394 971.461 668.631 971.463 669.026L971.446 671.092L970.931 704.168C970.702 709.75 970.911 714.975 971.82 720.337C972.913 725.62 974.595 730.81 976.923 735.777C981.7 745.651 988.768 754.622 997.459 761.921C988.128 755.318 980.486 746.554 974.964 736.682C972.276 731.708 970.152 726.421 968.813 720.914C967.612 715.429 967.156 709.605 967.156 704.168L966.641 671.092L966.624 669.026C966.613 668.73 966.624 668.278 966.658 667.773C966.717 667.3 966.78 666.819 966.927 666.362C967.44 664.494 968.668 662.901 970.175 661.772C971.693 660.638 973.517 659.947 975.383 659.727C975.839 659.654 976.334 659.657 976.77 659.635L977.858 659.625L980.035 659.608L997.459 659.461L994.752 662.033L994.718 651.989L994.709 649.476L994.718 648.143C994.735 647.541 994.826 646.939 994.973 646.353C995.573 643.986 997.238 642.021 999.26 640.83C1000.27 640.226 1001.38 639.79 1002.53 639.532C1003.09 639.393 1003.68 639.323 1004.26 639.272L1005.13 639.231H1005.8L1011.09 639.215L1021.67 639.188L1032.25 639.221L1037.54 639.234H1038.2L1039.07 639.274C1039.66 639.325 1040.24 639.395 1040.81 639.535C1041.95 639.793 1043.06 640.228 1044.07 640.833C1046.09 642.024 1047.76 643.988 1048.36 646.353C1048.51 646.942 1048.6 647.541 1048.61 648.143L1048.62 649.476L1048.61 651.989L1048.58 662.033L1045.87 659.469L1063.3 659.614L1065.48 659.633L1066.56 659.641C1067 659.665 1067.49 659.662 1067.95 659.732C1069.82 659.952 1071.64 660.643 1073.16 661.777C1074.66 662.903 1075.89 664.497 1076.4 666.362C1076.55 666.819 1076.61 667.3 1076.67 667.773C1076.71 668.281 1076.71 668.73 1076.71 669.026L1076.69 671.092L1076.17 704.168C1076.17 709.608 1075.71 715.429 1074.51 720.912C1073.18 726.418 1071.05 731.702 1068.37 736.68C1062.85 746.551 1055.2 755.315 1045.87 761.921Z" fill="#D9CE55"/>
<path d="M1021.67 708.616C1021.67 708.616 1007.04 778.941 1021.67 778.941C1036.3 778.941 1021.67 708.616 1021.67 708.616Z" fill="#D9CE55"/>
<path d="M1021.67 708.616C1021.67 708.616 1007.04 654.717 1021.67 654.717C1036.3 654.717 1021.67 708.616 1021.67 708.616Z" fill="#D9CE55"/>
<path d="M1021.67 708.616C1021.67 708.616 983.91 697.866 983.91 708.616C983.91 719.366 1021.67 708.616 1021.67 708.616Z" fill="#D9CE55"/>
<path d="M1009.34 721.411C1009.34 721.411 984.393 734.158 990.15 739.622C995.907 745.083 1009.34 721.411 1009.34 721.411Z" fill="#F2E1C5"/>
<path d="M1033.99 721.411C1033.99 721.411 1058.94 734.158 1053.18 739.622C1047.42 745.083 1033.99 721.411 1033.99 721.411Z" fill="#F2E1C5"/>
<path d="M1009.34 695.824C1009.34 695.824 984.393 683.077 990.15 677.613C995.907 672.149 1009.34 695.824 1009.34 695.824Z" fill="#F2E1C5"/>
<path d="M1033.99 695.824C1033.99 695.824 1058.94 683.077 1053.18 677.613C1047.42 672.149 1033.99 695.824 1033.99 695.824Z" fill="#F2E1C5"/>
<path d="M1021.67 708.616C1021.67 708.616 1059.42 697.866 1059.42 708.616C1059.42 719.366 1021.67 708.616 1021.67 708.616Z" fill="#D9CE55"/>
<path d="M1020.17 707.203C1043.04 728.907 1000.29 728.907 1023.15 707.203C1000.29 728.907 1000.29 688.328 1023.15 710.033C1000.29 688.328 1043.04 688.328 1020.17 710.033C1043.04 688.328 1043.04 728.907 1020.17 707.203Z" fill="#1C1C20"/>
<path d="M952.076 799.996C952.076 803.347 949.214 806.064 945.679 806.064C942.148 806.064 939.285 803.347 939.285 799.996C939.285 796.642 942.148 793.924 945.679 793.924C949.214 793.924 952.076 796.642 952.076 799.996Z" fill="#EE5C39"/>
<path d="M966.744 817.731C966.744 820.701 964.209 823.106 961.08 823.106C957.954 823.106 955.417 820.701 955.417 817.731C955.417 814.764 957.954 812.356 961.08 812.356C964.209 812.356 966.744 814.764 966.744 817.731Z" fill="#EE5C39"/>
<path d="M983.339 828.048C983.339 830.276 981.436 832.08 979.091 832.08C976.746 832.08 974.843 830.276 974.843 828.048C974.843 825.823 976.746 824.017 979.091 824.017C981.436 824.017 983.339 825.823 983.339 828.048Z" fill="#EE5C39"/>
<path d="M999.721 831.432C999.721 832.919 998.452 834.12 996.889 834.12C995.323 834.12 994.057 832.919 994.057 831.432C994.057 829.949 995.323 828.745 996.889 828.745C998.452 828.745 999.721 829.949 999.721 831.432Z" fill="#EE5C39"/>
<path d="M810.346 276.349C810.346 276.349 798.872 231.558 781.425 243.203C763.976 254.848 810.346 276.349 810.346 276.349Z" fill="#9BAAD9"/>
<path d="M776.119 268.399C776.119 268.399 747.895 260.337 747.895 268.399C747.895 276.462 776.119 268.399 776.119 268.399Z" fill="#43568F"/>
<path d="M645.784 339.015C645.784 339.015 663.044 316.34 655.016 313.703C646.987 311.067 645.784 339.015 645.784 339.015Z" fill="#43568F"/>
<path d="M737.649 258.81C729.845 258.423 722.015 259.348 714.378 260.928C706.709 262.462 699.259 264.914 692.063 267.894C688.459 269.378 685.012 271.186 681.546 272.936L676.557 275.924C675.735 276.432 674.889 276.905 674.085 277.44L671.737 279.136C665.34 283.455 659.781 288.838 654.95 294.603C661.429 290.443 667.537 286.164 674.184 282.627C680.719 278.98 687.416 275.637 694.366 272.802C701.25 269.837 708.332 267.262 715.547 264.957C722.774 262.667 730.105 260.638 737.649 258.81Z" fill="#1C1C20"/>
<path d="M720.776 276.706C720.776 274.529 722.634 272.769 724.925 272.769C727.219 272.769 729.076 274.529 729.076 276.706C729.076 278.88 727.219 280.644 724.925 280.644C722.634 280.644 720.776 278.88 720.776 276.706Z" fill="#F2E1C5"/>
<path d="M701.575 282.727C701.575 280.553 703.433 278.787 705.727 278.787C708.018 278.787 709.875 280.553 709.875 282.727C709.875 284.901 708.018 286.664 705.727 286.664C703.433 286.664 701.575 284.901 701.575 282.727Z" fill="#F2E1C5"/>
<path d="M684.27 290.604C684.27 288.43 686.127 286.664 688.418 286.664C690.712 286.664 692.57 288.43 692.57 290.604C692.57 292.778 690.712 294.541 688.418 294.541C686.127 294.541 684.27 292.778 684.27 290.604Z" fill="#F2E1C5"/>
<path d="M668.875 300.346C668.875 298.172 670.732 296.406 673.023 296.406C675.314 296.406 677.172 298.172 677.172 300.346C677.172 302.52 675.314 304.283 673.023 304.283C670.732 304.283 668.875 302.52 668.875 300.346Z" fill="#F2E1C5"/>
<path d="M624.394 384.671C624.394 384.671 632.923 442.948 618.795 443.878C604.673 444.811 624.394 384.671 624.394 384.671Z" fill="#9BAAD9"/>
<path d="M614.872 459.302C614.872 459.302 627.142 492.896 614.872 492.896C602.599 492.896 614.872 459.302 614.872 459.302Z" fill="#43568F"/>
<path d="M629.351 361.881C604.078 361.881 627.703 339.456 627.703 363.445C627.703 339.456 651.329 361.881 626.055 361.881C651.329 361.881 627.703 384.303 627.703 360.317C627.703 384.303 604.078 361.881 629.351 361.881Z" fill="#1C1C20"/>
<path d="M616.518 518.482C591.242 518.482 614.87 496.06 614.87 520.047C614.87 496.06 638.496 518.482 613.222 518.482C638.496 518.482 614.87 540.907 614.87 516.918C614.87 540.907 591.242 518.482 616.518 518.482Z" fill="#1C1C20"/>
<path d="M655.547 546.897H832.76C840.646 546.897 847.04 540.829 847.04 533.341V358.408C847.04 320.511 814.67 289.787 774.737 289.787C701.023 289.787 641.267 346.502 641.267 416.462V533.341C641.267 540.829 647.661 546.897 655.547 546.897Z" fill="#43568F"/>
<path d="M847.04 517.334L835.614 528.084L824.185 517.334L812.759 528.084L801.33 517.334L789.915 528.084L778.489 517.334L767.068 528.084L755.636 517.334L744.213 528.084L732.781 517.334L721.346 528.084L709.912 517.334L698.477 528.084L687.045 517.334L675.61 528.084L664.176 517.334L652.721 528.084L641.267 517.334" stroke="#9BAAD9" stroke-width="2.66667" stroke-miterlimit="10"/>
<path d="M744.154 321.366C744.154 321.366 752.57 302.029 744.154 302.029C735.738 302.029 744.154 321.366 744.154 321.366Z" fill="#F2E1C5"/>
<path d="M759.233 328.138C759.233 328.138 772.061 316.377 765.82 313.794C759.579 311.212 759.233 328.138 759.233 328.138Z" fill="#9BAAD9"/>
<path d="M776.116 336.429C776.116 336.429 791.077 327.214 785.47 323.548C779.863 319.879 776.116 336.429 776.116 336.429Z" fill="#9BAAD9"/>
<path d="M788.188 345.094C788.188 345.094 801.024 341.543 797.836 337.762C794.644 333.981 788.188 345.094 788.188 345.094Z" fill="#9BAAD9"/>
<path d="M729.076 328.138C729.076 328.138 716.246 316.377 722.49 313.794C728.731 311.212 729.076 328.138 729.076 328.138Z" fill="#9BAAD9"/>
<path d="M712.189 336.429C712.189 336.429 697.226 327.214 702.833 323.548C708.44 319.879 712.189 336.429 712.189 336.429Z" fill="#9BAAD9"/>
<path d="M700.118 345.094C700.118 345.094 687.282 341.543 690.47 337.762C693.662 333.981 700.118 345.094 700.118 345.094Z" fill="#9BAAD9"/>
<path d="M796.778 353.625C796.778 353.625 823.802 361.706 823.915 353.98C824.026 346.253 796.778 353.625 796.778 353.625Z" fill="#F2E1C5"/>
<path d="M691.531 353.625C691.531 353.625 664.507 361.706 664.394 353.98C664.281 346.253 691.531 353.625 691.531 353.625Z" fill="#F2E1C5"/>
<path d="M722.193 357.323C722.388 356.393 728.001 330.541 744.153 329.821C760.309 330.541 765.918 356.393 766.114 357.323C790.982 359.876 810.346 379.852 810.346 404.132V487.986C810.346 494.17 805.506 499.39 799.044 500.177L779.052 502.612C755.883 505.434 732.427 505.434 709.257 502.612L689.262 500.177C682.8 499.39 677.961 494.17 677.961 487.986V404.132C677.961 379.852 697.324 359.876 722.193 357.323Z" fill="#C2A131"/>
<path d="M719.948 370.413C711.251 377.71 704.183 386.681 699.406 396.555C697.073 401.522 695.394 406.712 694.303 411.995C693.391 417.36 693.179 422.584 693.409 428.169L693.927 461.242L693.947 463.309C693.941 463.701 693.964 463.941 693.978 464.123C694.015 464.328 694.031 464.54 694.111 464.739C694.343 465.548 694.926 466.292 695.699 466.854C696.478 467.413 697.452 467.773 698.469 467.872C698.729 467.913 698.964 467.894 699.256 467.91L700.346 467.902L702.524 467.883L719.948 467.738L722.638 467.717L722.649 470.302L722.683 480.345L722.692 482.856C722.697 483.24 722.686 483.772 722.706 484.033C722.712 484.269 722.751 484.498 722.808 484.726C723.037 485.626 723.723 486.489 724.694 487.054C725.178 487.336 725.722 487.545 726.294 487.672C726.577 487.744 726.874 487.771 727.169 487.798L727.619 487.819L728.282 487.817L733.571 487.801L744.154 487.774L754.736 487.798L760.029 487.814H760.688L761.139 487.795C761.436 487.768 761.731 487.742 762.014 487.669C762.586 487.543 763.129 487.333 763.611 487.051C764.585 486.486 765.267 485.626 765.5 484.723C765.553 484.498 765.593 484.267 765.599 484.033C765.621 483.772 765.607 483.24 765.613 482.856L765.621 480.345L765.653 470.302L765.661 467.709L768.363 467.73L785.786 467.878L787.964 467.897L789.052 467.905C789.343 467.889 789.578 467.905 789.839 467.864C790.853 467.768 791.827 467.407 792.605 466.848C793.376 466.289 793.962 465.545 794.191 464.736C794.27 464.537 794.287 464.328 794.324 464.121C794.338 463.941 794.361 463.701 794.358 463.309L794.375 461.242L794.891 428.169C795.123 422.584 794.91 417.36 794.001 411.995C792.908 406.714 791.226 401.525 788.899 396.558C784.121 386.684 777.053 377.713 768.36 370.413C777.693 377.017 785.336 385.781 790.861 395.65C793.548 400.63 795.669 405.916 797.009 411.42C798.207 416.906 798.665 422.727 798.665 428.169L799.181 461.242L799.198 463.309C799.209 463.605 799.201 464.053 799.164 464.561C799.104 465.034 799.042 465.515 798.895 465.972C798.382 467.84 797.153 469.434 795.647 470.563C794.129 471.697 792.305 472.388 790.439 472.608C789.98 472.68 789.485 472.678 789.052 472.699L787.964 472.71L785.786 472.726L768.363 472.874L771.07 470.302L771.101 480.345L771.109 482.856L771.101 484.191C771.087 484.793 770.996 485.395 770.849 485.981C770.246 488.349 768.583 490.314 766.562 491.504C765.548 492.109 764.441 492.542 763.297 492.802C762.725 492.942 762.144 493.012 761.561 493.063L760.688 493.101L760.029 493.103L754.736 493.119L744.154 493.146L733.571 493.114L728.282 493.101L727.619 493.098L726.75 493.06C726.166 493.009 725.583 492.939 725.014 492.8C723.87 492.539 722.763 492.106 721.749 491.501C719.727 490.311 718.065 488.346 717.462 485.981C717.314 485.393 717.224 484.793 717.21 484.191L717.201 482.856L717.21 480.345L717.246 470.302L719.948 472.866L702.524 472.721L700.346 472.702L699.256 472.694C698.823 472.67 698.327 472.672 697.871 472.6C696.005 472.382 694.182 471.691 692.667 470.557C691.16 469.431 689.931 467.837 689.421 465.972C689.271 465.515 689.209 465.034 689.152 464.561C689.113 464.053 689.107 463.605 689.116 463.309L689.135 461.242L689.651 428.169C689.651 422.727 690.109 416.906 691.304 411.423C692.644 405.916 694.771 400.632 697.455 395.652C702.974 385.784 710.62 377.019 719.948 370.413Z" fill="#D9CE55"/>
<path d="M744.153 423.719C744.153 423.719 758.784 353.394 744.153 353.394C729.521 353.394 744.153 423.719 744.153 423.719Z" fill="#D9CE55"/>
<path d="M744.153 423.718C744.153 423.718 758.784 477.617 744.153 477.617C729.521 477.617 744.153 423.718 744.153 423.718Z" fill="#D9CE55"/>
<path d="M744.154 423.718C744.154 423.718 781.91 434.469 781.91 423.718C781.91 412.968 744.154 423.718 744.154 423.718Z" fill="#D9CE55"/>
<path d="M756.48 410.926C756.48 410.926 781.425 398.176 775.668 392.712C769.911 387.249 756.48 410.926 756.48 410.926Z" fill="#F2E1C5"/>
<path d="M731.825 410.926C731.825 410.926 706.88 398.176 712.637 392.712C718.394 387.249 731.825 410.926 731.825 410.926Z" fill="#F2E1C5"/>
<path d="M756.48 436.508C756.48 436.508 781.425 449.258 775.668 454.722C769.911 460.186 756.48 436.508 756.48 436.508Z" fill="#F2E1C5"/>
<path d="M731.825 436.508C731.825 436.508 706.88 449.258 712.637 454.722C718.394 460.186 731.825 436.508 731.825 436.508Z" fill="#F2E1C5"/>
<path d="M744.153 423.718C744.153 423.718 706.397 434.469 706.397 423.718C706.397 412.968 744.153 423.718 744.153 423.718Z" fill="#D9CE55"/>
<path d="M745.647 425.132C722.778 403.427 765.534 403.427 742.665 425.132C765.534 403.427 765.534 444.007 742.665 422.302C765.534 444.007 722.778 444.007 745.647 422.302C722.778 444.007 722.778 403.427 745.647 425.132Z" fill="#1C1C20"/>
<path d="M813.744 332.342C813.744 328.988 816.607 326.271 820.138 326.271C823.672 326.271 826.535 328.988 826.535 332.342C826.535 335.694 823.672 338.411 820.138 338.411C816.607 338.411 813.744 335.694 813.744 332.342Z" fill="#EE5C39"/>
<path d="M799.073 314.604C799.073 311.634 801.611 309.229 804.737 309.229C807.866 309.229 810.4 311.634 810.4 314.604C810.4 317.571 807.866 319.979 804.737 319.979C801.611 319.979 799.073 317.571 799.073 314.604Z" fill="#EE5C39"/>
<path d="M782.479 304.284C782.479 302.058 784.382 300.252 786.727 300.252C789.074 300.252 790.974 302.058 790.974 304.284C790.974 306.512 789.074 308.315 786.727 308.315C784.382 308.315 782.479 306.512 782.479 304.284Z" fill="#EE5C39"/>
<path d="M766.099 300.903C766.099 299.417 767.368 298.215 768.931 298.215C770.494 298.215 771.763 299.417 771.763 300.903C771.763 302.386 770.494 303.59 768.931 303.59C767.368 303.59 766.099 302.386 766.099 300.903Z" fill="#EE5C39"/>
<path d="M655.547 585.437H832.76C840.646 585.437 847.04 591.506 847.04 598.993V773.927C847.04 811.824 814.67 842.548 774.737 842.548C701.023 842.548 641.267 785.832 641.267 715.873V598.993C641.267 591.506 647.661 585.437 655.547 585.437Z" fill="#43568F"/>
<path d="M847.04 615L835.614 604.25L824.185 615L812.759 604.25L801.33 615L789.915 604.25L778.489 615L767.068 604.25L755.636 615L744.213 604.25L732.781 615L721.346 604.25L709.912 615L698.477 604.25L687.045 615L675.61 604.25L664.176 615L652.721 604.25L641.267 615" stroke="#9BAAD9" stroke-width="2.66667" stroke-miterlimit="10"/>
<path d="M744.154 810.969C744.154 810.969 752.57 830.306 744.154 830.306C735.738 830.306 744.154 810.969 744.154 810.969Z" fill="#F2E1C5"/>
<path d="M759.233 804.196C759.233 804.196 772.061 815.957 765.82 818.537C759.579 821.12 759.233 804.196 759.233 804.196Z" fill="#9BAAD9"/>
<path d="M776.116 795.903C776.116 795.903 791.077 805.118 785.47 808.787C779.863 812.455 776.116 795.903 776.116 795.903Z" fill="#9BAAD9"/>
<path d="M788.188 787.241C788.188 787.241 801.024 790.791 797.836 794.572C794.644 798.354 788.188 787.241 788.188 787.241Z" fill="#9BAAD9"/>
<path d="M729.076 804.196C729.076 804.196 716.246 815.957 722.49 818.537C728.731 821.12 729.076 804.196 729.076 804.196Z" fill="#9BAAD9"/>
<path d="M712.189 795.903C712.189 795.903 697.226 805.118 702.833 808.787C708.44 812.455 712.189 795.903 712.189 795.903Z" fill="#9BAAD9"/>
<path d="M700.118 787.241C700.118 787.241 687.282 790.791 690.47 794.572C693.662 798.354 700.118 787.241 700.118 787.241Z" fill="#9BAAD9"/>
<path d="M796.778 778.708C796.778 778.708 823.802 770.629 823.915 778.355C824.026 786.082 796.778 778.708 796.778 778.708Z" fill="#F2E1C5"/>
<path d="M691.531 778.708C691.531 778.708 664.507 770.629 664.394 778.355C664.281 786.082 691.531 778.708 691.531 778.708Z" fill="#F2E1C5"/>
<path d="M722.193 775.012C722.388 775.942 728.001 801.794 744.153 802.514C760.309 801.794 765.918 775.942 766.114 775.012C790.982 772.459 810.346 752.483 810.346 728.203V644.349C810.346 638.165 805.506 632.945 799.044 632.158L779.052 629.72C755.883 626.901 732.427 626.901 709.257 629.72L689.262 632.158C682.8 632.945 677.961 638.165 677.961 644.349V728.203C677.961 752.483 697.324 772.459 722.193 775.012Z" fill="#C2A131"/>
<path d="M719.948 761.921C710.62 755.315 702.974 746.551 697.455 736.68C694.771 731.702 692.644 726.418 691.304 720.912C690.109 715.429 689.651 709.608 689.651 704.168L689.135 671.092L689.116 669.026C689.107 668.73 689.113 668.281 689.152 667.773C689.209 667.3 689.271 666.819 689.421 666.362C689.931 664.497 691.16 662.903 692.667 661.777C694.182 660.643 696.005 659.952 697.871 659.732C698.327 659.662 698.823 659.665 699.256 659.641L700.346 659.633L702.524 659.614L719.948 659.469L717.246 662.033L717.21 651.989L717.201 649.476L717.21 648.143C717.224 647.541 717.314 646.942 717.462 646.353C718.065 643.988 719.727 642.024 721.749 640.833C722.763 640.228 723.87 639.793 725.014 639.535C725.583 639.395 726.166 639.325 726.75 639.274L727.619 639.234H728.282L733.571 639.221L744.154 639.188L754.736 639.215L760.029 639.231H760.688L761.561 639.272C762.144 639.323 762.725 639.393 763.297 639.532C764.441 639.79 765.548 640.226 766.562 640.83C768.583 642.021 770.246 643.986 770.849 646.353C770.996 646.939 771.087 647.541 771.101 648.143L771.109 649.476L771.101 651.989L771.07 662.033L768.363 659.461L785.786 659.608L787.964 659.625L789.052 659.635C789.485 659.657 789.98 659.654 790.439 659.727C792.305 659.947 794.129 660.638 795.647 661.772C797.153 662.901 798.382 664.494 798.895 666.362C799.042 666.819 799.104 667.3 799.164 667.773C799.201 668.278 799.209 668.73 799.198 669.026L799.181 671.092L798.665 704.168C798.665 709.605 798.207 715.429 797.009 720.914C795.669 726.421 793.548 731.708 790.861 736.682C785.336 746.554 777.693 755.318 768.36 761.921C777.053 754.622 784.121 745.651 788.899 735.777C791.226 730.81 792.908 725.62 794.001 720.337C794.91 714.975 795.123 709.75 794.891 704.168L794.375 671.092L794.358 669.026C794.361 668.631 794.338 668.394 794.324 668.214C794.287 668.007 794.27 667.795 794.191 667.599C793.962 666.79 793.376 666.045 792.605 665.486C791.827 664.927 790.853 664.567 789.839 664.47C789.578 664.427 789.343 664.446 789.052 664.43L787.964 664.438L785.786 664.457L768.363 664.602L765.661 664.626L765.653 662.033L765.621 651.989L765.613 649.476C765.607 649.095 765.621 648.563 765.599 648.299C765.593 648.065 765.553 647.837 765.5 647.611C765.267 646.708 764.585 645.845 763.611 645.284C763.129 645.002 762.586 644.792 762.014 644.666C761.731 644.593 761.436 644.566 761.139 644.539L760.688 644.518L760.029 644.52L754.736 644.537L744.154 644.561L733.571 644.534L728.282 644.518L727.619 644.515L727.169 644.534C726.874 644.563 726.577 644.59 726.294 644.663C725.722 644.789 725.178 644.999 724.694 645.281C723.723 645.843 723.037 646.708 722.808 647.608C722.751 647.837 722.712 648.065 722.706 648.299C722.686 648.563 722.697 649.095 722.692 649.476L722.683 651.989L722.649 662.033L722.638 664.618L719.948 664.594L702.524 664.451L700.346 664.433L699.256 664.425C698.964 664.441 698.729 664.422 698.469 664.462C697.452 664.562 696.478 664.922 695.699 665.481C694.926 666.042 694.343 666.787 694.111 667.596C694.031 667.795 694.015 668.007 693.978 668.211C693.964 668.394 693.941 668.631 693.947 669.026L693.927 671.092L693.409 704.168C693.179 709.75 693.391 714.975 694.303 720.339C695.394 725.623 697.073 730.815 699.406 735.779C704.183 745.653 711.251 754.624 719.948 761.921Z" fill="#D9CE55"/>
<path d="M744.153 708.616C744.153 708.616 758.784 778.941 744.153 778.941C729.521 778.941 744.153 708.616 744.153 708.616Z" fill="#D9CE55"/>
<path d="M744.153 708.616C744.153 708.616 758.784 654.717 744.153 654.717C729.521 654.717 744.153 708.616 744.153 708.616Z" fill="#D9CE55"/>
<path d="M744.154 708.616C744.154 708.616 781.91 697.866 781.91 708.616C781.91 719.366 744.154 708.616 744.154 708.616Z" fill="#D9CE55"/>
<path d="M756.48 721.411C756.48 721.411 781.425 734.158 775.668 739.622C769.911 745.083 756.48 721.411 756.48 721.411Z" fill="#F2E1C5"/>
<path d="M731.825 721.411C731.825 721.411 706.88 734.158 712.637 739.622C718.394 745.083 731.825 721.411 731.825 721.411Z" fill="#F2E1C5"/>
<path d="M756.48 695.824C756.48 695.824 781.425 683.077 775.668 677.613C769.911 672.149 756.48 695.824 756.48 695.824Z" fill="#F2E1C5"/>
<path d="M731.825 695.824C731.825 695.824 706.88 683.077 712.637 677.613C718.394 672.149 731.825 695.824 731.825 695.824Z" fill="#F2E1C5"/>
<path d="M744.153 708.616C744.153 708.616 706.397 697.866 706.397 708.616C706.397 719.366 744.153 708.616 744.153 708.616Z" fill="#D9CE55"/>
<path d="M745.647 707.203C722.778 728.907 765.534 728.907 742.665 707.203C765.534 728.907 765.534 688.328 742.665 710.033C765.534 688.328 722.778 688.328 745.647 710.033C722.778 688.328 722.778 728.907 745.647 707.203Z" fill="#1C1C20"/>
<path d="M813.744 799.996C813.744 803.347 816.607 806.064 820.138 806.064C823.672 806.064 826.535 803.347 826.535 799.996C826.535 796.642 823.672 793.924 820.138 793.924C816.607 793.924 813.744 796.642 813.744 799.996Z" fill="#EE5C39"/>
<path d="M799.073 817.731C799.073 820.701 801.611 823.106 804.737 823.106C807.866 823.106 810.4 820.701 810.4 817.731C810.4 814.764 807.866 812.356 804.737 812.356C801.611 812.356 799.073 814.764 799.073 817.731Z" fill="#EE5C39"/>
<path d="M782.479 828.048C782.479 830.276 784.382 832.08 786.727 832.08C789.074 832.08 790.974 830.276 790.974 828.048C790.974 825.823 789.074 824.017 786.727 824.017C784.382 824.017 782.479 825.823 782.479 828.048Z" fill="#EE5C39"/>
<path d="M766.099 831.432C766.099 832.919 767.368 834.12 768.931 834.12C770.494 834.12 771.763 832.919 771.763 831.432C771.763 829.949 770.494 828.745 768.931 828.745C767.368 828.745 766.099 829.949 766.099 831.432Z" fill="#EE5C39"/>
<path d="M1590.85 1350.48H174.965V965.222H1590.85V1350.48Z" fill="#E4A771"/>
<path d="M1736 897.229H-97V964.792H1736V897.229Z" fill="#3E1F0D"/>
<path d="M1774.68 968.502C1770.63 968.722 1765.84 968.194 1760.53 967.111L1761.88 953.369V831.684C1761.88 831.684 1706.85 761.028 1700.24 771.234C1693.62 781.439 1744.91 892.658 1744.91 892.658C1744.91 892.658 1620 757.102 1613.38 766.463C1608.17 773.837 1681.45 897.975 1712.82 950.395C1683.38 937.505 1655.6 922.406 1651.43 921.966C1643.99 921.181 1646.47 921.966 1646.47 921.966C1647.87 951.177 1684.36 977.138 1715.94 994.237C1644.3 964.743 1514.61 917.978 1516.01 937.668C1517.91 964.36 1752.35 1138.5 1752.35 1138.5C1752.35 1138.5 1770.54 1024.33 1761.88 1015.39L1774.68 968.502Z" fill="#043F22"/>
<path d="M-126.456 924.084C-126.456 924.084 -124 833.324 -16.0388 811.734C-16.0388 811.734 -41.5137 797.471 -31.0447 794.331C-20.5754 791.191 38.9824 819.453 38.9824 819.453C38.9824 819.453 16.9248 802.706 29.0561 798.52C41.1874 794.331 69.803 823.642 87.4791 825.733C105.158 827.828 180.156 846.67 180.156 846.67C180.156 846.67 218.364 825.733 231.245 825.733C244.126 825.733 229.237 841.435 229.237 841.435C229.237 841.435 238.611 847.426 258.463 859.086C278.316 870.746 309.2 927.057 321.33 928.734C333.463 930.411 424.613 935.803 432.806 1049.03C432.806 1049.03 510.605 1071.2 517.99 1137.14C525.372 1203.09 574.418 1254.9 575.539 1272.18C576.658 1289.45 569.58 1328.18 569.58 1328.18H-133.074L-143 924.084H-126.456Z" fill="#879B5F"/>
<path d="M-136.382 876.502C-136.382 876.502 -117.205 753.002 -99.986 760.312C-61.1079 776.817 -136.382 953.476 -136.382 953.476C-136.382 953.476 -97.5289 807.834 -69.853 816.897C-39.6009 826.798 -108.661 1025.67 -108.661 1025.67C-108.661 1025.67 -34.2241 819.192 21.5585 846.67C29.1802 850.422 31.8984 863.982 26.161 878.977C20.4236 893.972 -126.456 1092.4 -126.456 1092.4C-126.456 1092.4 -63.5726 1024.09 -56.1371 1024.09C-48.7 1024.09 -92.4198 1087.42 -92.4198 1087.42L-143 1170.12L-136.382 876.502Z" fill="#043F22"/>
<path d="M-1.55529 1328.18C-1.55529 1328.18 44.9667 1239.2 45.2834 1199.95L-46.8375 1283.17C-46.8375 1283.17 75.3789 1112.3 95.2316 1061.13C95.2316 1061.13 -41.5319 1156.39 -72.412 1194.65C-72.412 1194.65 28.3891 1039.89 46.9195 958.981C46.9195 958.981 -82.6189 1058.18 -142.588 1151.83L-143 1339.69L-1.55529 1328.18Z" fill="#626129"/>
<path d="M102.861 993.003C102.861 993.003 194.757 986.346 216.329 1056.11C216.329 1056.11 126.665 1065.14 102.861 993.003Z" fill="#626129"/>
<path d="M142.106 983.271C142.106 983.271 136.042 958.275 95.2327 958.736C95.2327 958.736 100.879 972.805 110.739 983.271C110.739 983.271 39.5342 974.896 21.3359 1012.58C21.3359 1012.58 70.4169 1011.53 92.4745 1018.34C92.4745 1018.34 61.7585 1059.9 87.3797 1099.12C87.3797 1099.12 120.772 1076.43 128.132 1040.84C128.132 1040.84 139.132 1098.9 158.266 1105.98C158.266 1105.98 187.878 1057.59 161.132 1024.09L181.261 1035.61C181.261 1035.61 185.673 979.607 142.106 983.271Z" fill="#F2E1C5"/>
<path d="M110.738 983.271C110.738 983.271 88.1568 979.085 84.8017 999.497C81.4463 1019.91 95.232 1021.48 95.232 1021.48C95.232 1021.48 83.2248 1035.61 101.36 1044.51C119.497 1053.4 128.131 1040.84 128.131 1040.84C128.131 1040.84 135.518 1056.94 152.312 1047.69C169.107 1038.44 161.131 1024.09 161.131 1024.09C161.131 1024.09 175.736 1008.12 166.918 995.17C158.099 982.226 142.105 983.271 142.105 983.271C142.105 983.271 129.554 966.524 110.738 983.271Z" fill="#D9CE55"/>
<path d="M118.945 995.17C118.945 995.17 128.396 1001.77 130.702 1013.19C130.702 1013.19 133.008 997.927 142.934 992.168" stroke="#1C1C20" stroke-miterlimit="10" stroke-linecap="round" stroke-linejoin="round"/>
<path d="M151.206 991.577C151.206 993.562 148.984 995.17 146.242 995.17C143.502 995.17 141.279 993.562 141.279 991.577C141.279 989.593 143.502 987.982 146.242 987.982C148.984 987.982 151.206 989.593 151.206 991.577Z" fill="#1C1C20"/>
<path d="M122.806 994.131C122.806 996.373 120.892 998.188 118.531 998.188C116.171 998.188 114.258 996.373 114.258 994.131C114.258 991.892 116.171 990.076 118.531 990.076C120.892 990.076 122.806 991.892 122.806 994.131Z" fill="#1C1C20"/>
<path d="M124.459 1012.97C124.459 1014.49 122.607 1015.72 120.323 1015.72C118.038 1015.72 116.188 1014.49 116.188 1012.97C116.188 1011.46 118.038 1010.22 120.323 1010.22C122.607 1010.22 124.459 1011.46 124.459 1012.97Z" fill="#8C7417"/>
<path d="M130.525 1022.39C130.525 1023.91 128.798 1025.14 126.666 1025.14C124.533 1025.14 122.807 1023.91 122.807 1022.39C122.807 1020.88 124.533 1019.64 126.666 1019.64C128.798 1019.64 130.525 1020.88 130.525 1022.39Z" fill="#8C7417"/>
<path d="M147.433 1008.7C147.433 1010.89 145.56 1012.67 143.249 1012.67C140.939 1012.67 139.066 1010.89 139.066 1008.7C139.066 1006.51 140.939 1004.73 143.249 1004.73C145.56 1004.73 147.433 1006.51 147.433 1008.7Z" fill="#8C7417"/>
<path d="M128.131 878.977C128.131 878.977 102.686 821.331 46.9199 837.249C46.9199 837.249 46.9199 900.054 128.131 878.977Z" fill="#626129"/>
<path d="M126.251 899.269C126.251 899.269 127.906 953.696 155.617 965.149C155.617 965.149 159.339 964.917 161.821 958.981C164.302 953.046 182.914 929.146 184.568 890.85C184.568 890.85 205.076 900.054 216.329 901.232C227.582 902.409 230.891 903.98 229.237 900.447C227.582 896.914 217.242 855.933 183.741 854.442C183.741 854.442 182.914 831.753 185.809 825.865C188.704 819.977 180.285 814.089 166.918 815.267C153.549 816.445 130.7 830.576 130.7 830.576C130.7 830.576 120.744 799.173 78.8299 787.79C78.8299 787.79 72.0701 786.612 71.2429 792.107C70.4157 797.603 70.4157 842.656 98.9539 860.559C98.9539 860.559 76.1736 867.866 71.0192 897.699C65.8662 927.532 76.0754 940.485 78.8299 938.523C81.5828 936.56 85.3052 934.377 101.022 924.084C116.739 913.793 126.251 899.269 126.251 899.269Z" fill="#F2E1C5"/>
<path d="M105.986 858.446C105.986 858.446 93.5778 866.689 98.9545 883.568C104.331 900.447 120.875 903.587 126.252 899.269C126.252 899.269 127.26 919.916 154.376 916.682C181.493 913.448 184.569 890.85 184.569 890.85C184.569 890.85 195.712 891.638 194.691 876.417C193.668 861.193 183.742 854.442 183.742 854.442C183.742 854.442 180.717 836.505 160.994 830.576C141.271 824.647 130.701 830.576 130.701 830.576C130.701 830.576 123.357 823.903 113.017 834.894C102.677 845.885 105.986 858.446 105.986 858.446Z" fill="#D9CE55"/>
<path d="M142.106 873.623C142.106 873.623 137.696 857.661 131.629 850.856" stroke="#1C1C20" stroke-miterlimit="10" stroke-linecap="round" stroke-linejoin="round"/>
<path d="M146.18 870.746C146.18 870.746 145.967 845.36 153.686 837.249" stroke="#1C1C20" stroke-miterlimit="10" stroke-linecap="round" stroke-linejoin="round"/>
<path d="M139.623 879.382C139.623 879.382 140.45 865.251 161.13 870.746" stroke="#1C1C20" stroke-miterlimit="10" stroke-linecap="round" stroke-linejoin="round"/>
<path d="M133.18 848.058C133.18 850.705 130.919 852.853 128.131 852.853C125.342 852.853 123.08 850.705 123.08 848.058C123.08 845.414 125.342 843.269 128.131 843.269C130.919 843.269 133.18 845.414 133.18 848.058Z" fill="#1C1C20"/>
<path d="M158.266 835.026C158.266 837.554 156.808 839.604 155.011 839.604C153.214 839.604 151.758 837.554 151.758 835.026C151.758 832.495 153.214 830.444 155.011 830.444C156.808 830.444 158.266 832.495 158.266 835.026Z" fill="#1C1C20"/>
<path d="M161.13 864.073C161.13 866.023 159.466 867.606 157.408 867.606C155.353 867.606 153.686 866.023 153.686 864.073C153.686 862.12 155.353 860.54 157.408 860.54C159.466 860.54 161.13 862.12 161.13 864.073Z" fill="#8C7417"/>
<path d="M136.126 869.829C136.126 871.924 134.336 873.623 132.127 873.623C129.921 873.623 128.131 871.924 128.131 869.829C128.131 867.735 129.921 866.036 132.127 866.036C134.336 866.036 136.126 867.735 136.126 869.829Z" fill="#8C7417"/>
<path d="M155.011 878.977C155.011 880.39 153.803 881.539 152.312 881.539C150.822 881.539 149.613 880.39 149.613 878.977C149.613 877.564 150.822 876.418 152.312 876.418C153.803 876.418 155.011 877.564 155.011 878.977Z" fill="#8C7417"/>
<path d="M293.871 1089.2C293.871 1089.2 267.12 1022.25 290.424 971.389C290.424 971.389 346.941 1029.34 293.871 1089.2Z" fill="#626129"/>
<path d="M268.117 928.734C268.117 928.734 225.566 916.714 203 924.084C203 924.084 229.239 962.725 262.327 965.149C262.327 965.149 232.786 995.512 245.902 1051.8C245.902 1051.8 283.006 1025.67 290.451 983.272C290.451 983.272 304.513 1036.66 343.392 1039.01C343.392 1039.01 347.527 993.477 328.502 970.71C328.502 970.71 379.788 982.866 401.295 953.477C401.295 953.477 360.763 928.113 330.156 931.746C330.156 931.746 345.046 889.142 344.219 869.478C344.219 869.478 309.225 892.201 300.665 908.141C300.665 908.141 296.308 860.54 256.156 850.856C256.156 850.856 245.783 900.89 268.117 928.734Z" fill="#F2E1C5"/>
<path d="M268.116 928.734C268.116 928.734 248.501 925.569 245.9 940.878C243.3 956.186 262.325 965.149 262.325 965.149C262.325 965.149 249.09 982.879 264.393 991.122C279.696 999.365 290.45 983.271 290.45 983.271C290.45 983.271 298.206 1000.54 317.747 993.471C337.289 986.402 328.501 970.71 328.501 970.71C328.501 970.71 344.909 965.648 345.872 949.513C346.835 933.379 330.155 931.746 330.155 931.746C330.155 931.746 329.622 917.79 316.093 911.438C302.563 905.085 300.664 908.14 300.664 908.14C300.664 908.14 294.172 902.409 280.11 911.83C266.048 921.251 268.116 928.734 268.116 928.734Z" fill="#D9CE55"/>
<path d="M294.173 963.792C294.173 965.337 292.459 966.59 290.348 966.59C288.234 966.59 286.523 965.337 286.523 963.792C286.523 962.247 288.234 960.994 290.348 960.994C292.459 960.994 294.173 962.247 294.173 963.792Z" fill="#8C7417"/>
<path d="M307.617 965.975C307.617 967.181 306.088 968.16 304.202 968.16C302.32 968.16 300.791 967.181 300.791 965.975C300.791 964.769 302.32 963.792 304.202 963.792C306.088 963.792 307.617 964.769 307.617 965.975Z" fill="#8C7417"/>
<path d="M315.061 947.227C315.061 948.568 313.916 949.655 312.504 949.655C311.091 949.655 309.949 948.568 309.949 947.227C309.949 945.89 311.091 944.803 312.504 944.803C313.916 944.803 315.061 945.89 315.061 947.227Z" fill="#8C7417"/>
<path d="M294.173 953.439C294.173 953.439 288.383 942.055 282.801 934.597" stroke="#1C1C20" stroke-miterlimit="10" stroke-linecap="round" stroke-linejoin="round"/>
<path d="M298.309 953.439C298.309 952.851 297.068 939.7 296.654 934.597" stroke="#1C1C20" stroke-miterlimit="10" stroke-linecap="round" stroke-linejoin="round"/>
<path d="M300.791 955.401C300.791 955.401 312.504 952 317.748 966.59" stroke="#1C1C20" stroke-miterlimit="10" stroke-linecap="round" stroke-linejoin="round"/>
<path d="M284.542 932.016C284.542 933.828 282.994 935.298 281.085 935.298C279.175 935.298 277.627 933.828 277.627 932.016C277.627 930.204 279.175 928.734 281.085 928.734C282.994 928.734 284.542 930.204 284.542 932.016Z" fill="#1C1C20"/>
<path d="M300.791 933.715C300.791 935.395 299.077 936.758 296.966 936.758C294.851 936.758 293.141 935.395 293.141 933.715C293.141 932.035 294.851 930.672 296.966 930.672C299.077 930.672 300.791 932.035 300.791 933.715Z" fill="#1C1C20"/>
<path d="M323.882 969.338C323.882 971.649 321.906 973.524 319.471 973.524C317.036 973.524 315.061 971.649 315.061 969.338C315.061 967.02 317.036 965.149 319.471 965.149C321.906 965.149 323.882 967.02 323.882 969.338Z" fill="#1C1C20"/>
<path d="M287.279 956.447C287.279 956.447 301.477 947.29 302.718 960.112" stroke="#1C1C20" stroke-miterlimit="10" stroke-linecap="round" stroke-linejoin="round"/>
<path d="M1893.67 889.084C1893.67 889.084 1891.39 798.324 1791.34 776.734C1791.34 776.734 1814.95 762.471 1805.25 759.331C1795.55 756.191 1740.35 784.453 1740.35 784.453C1740.35 784.453 1760.79 767.706 1749.55 763.52C1738.31 759.331 1711.79 788.642 1695.41 790.733C1679.03 792.828 1609.52 811.67 1609.52 811.67C1609.52 811.67 1574.11 790.733 1562.18 790.733C1550.24 790.733 1564.04 806.435 1564.04 806.435C1564.04 806.435 1555.35 812.426 1536.95 824.086C1518.56 835.746 1489.93 892.057 1478.69 893.734C1467.45 895.411 1382.98 900.803 1375.39 1014.03C1375.39 1014.03 1303.29 1036.2 1296.44 1102.14C1289.6 1168.09 1244.15 1219.9 1243.11 1237.18C1242.07 1254.45 1248.63 1293.18 1248.63 1293.18H1899.8L1909 889.084H1893.67Z" fill="#879B5F"/>
<path d="M1777.92 1293.18C1777.92 1293.18 1734.81 1204.2 1734.51 1164.95L1819.88 1248.17C1819.88 1248.17 1706.62 1077.3 1688.22 1026.13C1688.22 1026.13 1814.97 1121.39 1843.58 1159.65C1843.58 1159.65 1750.17 1004.89 1733 923.981C1733 923.981 1853.04 1023.18 1908.62 1116.83L1909 1304.69L1777.92 1293.18Z" fill="#626129"/>
<path d="M1597.33 1127.6C1597.33 1127.6 1608.72 1077.99 1580.25 1069.5C1580.25 1069.5 1560.13 1100.18 1597.33 1127.6Z" fill="#626129"/>
<path d="M1681.15 958.003C1681.15 958.003 1595.99 951.346 1576 1021.11C1576 1021.11 1659.09 1030.14 1681.15 958.003Z" fill="#626129"/>
<path d="M1644.78 948.271C1644.78 948.271 1650.4 923.275 1688.22 923.736C1688.22 923.736 1682.99 937.805 1673.85 948.271C1673.85 948.271 1739.84 939.896 1756.71 977.579C1756.71 977.579 1711.22 976.534 1690.78 983.338C1690.78 983.338 1719.25 1024.9 1695.5 1064.12C1695.5 1064.12 1664.56 1041.43 1657.74 1005.84C1657.74 1005.84 1647.54 1063.9 1629.81 1070.98C1629.81 1070.98 1602.37 1022.59 1627.15 989.095L1608.5 1000.61C1608.5 1000.61 1604.41 944.607 1644.78 948.271Z" fill="#F2E1C5"/>
<path d="M1673.85 948.271C1673.85 948.271 1694.78 944.085 1697.89 964.497C1701 984.908 1688.22 986.478 1688.22 986.478C1688.22 986.478 1699.35 1000.61 1682.55 1009.51C1665.74 1018.4 1657.74 1005.84 1657.74 1005.84C1657.74 1005.84 1650.89 1021.94 1635.33 1012.69C1619.76 1003.44 1627.15 989.095 1627.15 989.095C1627.15 989.095 1613.62 973.118 1621.79 960.17C1629.96 947.226 1644.79 948.271 1644.79 948.271C1644.79 948.271 1656.42 931.524 1673.85 948.271Z" fill="#D9CE55"/>
<path d="M1666.25 960.17C1666.25 960.17 1657.49 966.767 1655.35 978.192C1655.35 978.192 1653.22 962.927 1644.02 957.168" stroke="#1C1C20" stroke-miterlimit="10" stroke-linecap="round" stroke-linejoin="round"/>
<path d="M1636.35 956.577C1636.35 958.562 1638.41 960.17 1640.95 960.17C1643.49 960.17 1645.55 958.562 1645.55 956.577C1645.55 954.593 1643.49 952.982 1640.95 952.982C1638.41 952.982 1636.35 954.593 1636.35 956.577Z" fill="#1C1C20"/>
<path d="M1662.67 959.131C1662.67 961.373 1664.44 963.188 1666.63 963.188C1668.82 963.188 1670.59 961.373 1670.59 959.131C1670.59 956.892 1668.82 955.076 1666.63 955.076C1664.44 955.076 1662.67 956.892 1662.67 959.131Z" fill="#1C1C20"/>
<path d="M1661.14 977.971C1661.14 979.489 1662.86 980.719 1664.97 980.719C1667.09 980.719 1668.8 979.489 1668.8 977.971C1668.8 976.455 1667.09 975.224 1664.97 975.224C1662.86 975.224 1661.14 976.455 1661.14 977.971Z" fill="#8C7417"/>
<path d="M1655.52 987.392C1655.52 988.91 1657.12 990.14 1659.09 990.14C1661.07 990.14 1662.67 988.91 1662.67 987.392C1662.67 985.876 1661.07 984.644 1659.09 984.644C1657.12 984.644 1655.52 985.876 1655.52 987.392Z" fill="#8C7417"/>
<path d="M1639.85 973.701C1639.85 975.894 1641.58 977.667 1643.73 977.667C1645.87 977.667 1647.6 975.894 1647.6 973.701C1647.6 971.506 1645.87 969.728 1643.73 969.728C1641.58 969.728 1639.85 971.506 1639.85 973.701Z" fill="#8C7417"/>
<path d="M1657.74 843.977C1657.74 843.977 1681.32 786.331 1733 802.249C1733 802.249 1733 865.054 1657.74 843.977Z" fill="#626129"/>
<path d="M1659.48 864.269C1659.48 864.269 1657.94 918.696 1632.26 930.149C1632.26 930.149 1628.81 929.917 1626.52 923.981C1624.22 918.046 1606.97 894.146 1605.43 855.85C1605.43 855.85 1586.43 865.054 1576 866.232C1565.57 867.409 1562.51 868.98 1564.04 865.447C1565.57 861.914 1575.15 820.933 1606.2 819.442C1606.2 819.442 1606.97 796.753 1604.28 790.865C1601.6 784.977 1609.4 779.089 1621.79 780.267C1634.18 781.445 1655.36 795.576 1655.36 795.576C1655.36 795.576 1664.58 764.173 1703.42 752.79C1703.42 752.79 1709.69 751.612 1710.46 757.107C1711.22 762.603 1711.22 807.656 1684.78 825.559C1684.78 825.559 1705.89 832.866 1710.66 862.699C1715.44 892.532 1705.98 905.485 1703.42 903.523C1700.87 901.56 1697.42 899.377 1682.86 889.084C1668.29 878.793 1659.48 864.269 1659.48 864.269Z" fill="#F2E1C5"/>
<path d="M1678.26 823.446C1678.26 823.446 1689.76 831.689 1684.77 848.568C1679.79 865.447 1664.46 868.587 1659.48 864.269C1659.48 864.269 1658.54 884.916 1633.41 881.682C1608.28 878.448 1605.43 855.85 1605.43 855.85C1605.43 855.85 1595.11 856.638 1596.05 841.417C1597 826.193 1606.2 819.442 1606.2 819.442C1606.2 819.442 1609 801.505 1627.28 795.576C1645.56 789.647 1655.35 795.576 1655.35 795.576C1655.35 795.576 1662.16 788.903 1671.74 799.894C1681.32 810.885 1678.26 823.446 1678.26 823.446Z" fill="#D9CE55"/>
<path d="M1644.79 838.623C1644.79 838.623 1648.87 822.661 1654.49 815.856" stroke="#1C1C20" stroke-miterlimit="10" stroke-linecap="round" stroke-linejoin="round"/>
<path d="M1641.01 835.746C1641.01 835.746 1641.21 810.36 1634.05 802.249" stroke="#1C1C20" stroke-miterlimit="10" stroke-linecap="round" stroke-linejoin="round"/>
<path d="M1647.09 844.382C1647.09 844.382 1646.32 830.251 1627.15 835.746" stroke="#1C1C20" stroke-miterlimit="10" stroke-linecap="round" stroke-linejoin="round"/>
<path d="M1653.06 813.058C1653.06 815.705 1655.15 817.853 1657.74 817.853C1660.32 817.853 1662.42 815.705 1662.42 813.058C1662.42 810.414 1660.32 808.269 1657.74 808.269C1655.15 808.269 1653.06 810.414 1653.06 813.058Z" fill="#1C1C20"/>
<path d="M1629.81 800.026C1629.81 802.554 1631.16 804.604 1632.83 804.604C1634.49 804.604 1635.84 802.554 1635.84 800.026C1635.84 797.495 1634.49 795.444 1632.83 795.444C1631.16 795.444 1629.81 797.495 1629.81 800.026Z" fill="#1C1C20"/>
<path d="M1627.15 829.073C1627.15 831.023 1628.7 832.606 1630.6 832.606C1632.51 832.606 1634.05 831.023 1634.05 829.073C1634.05 827.12 1632.51 825.54 1630.6 825.54C1628.7 825.54 1627.15 827.12 1627.15 829.073Z" fill="#8C7417"/>
<path d="M1650.33 834.829C1650.33 836.924 1651.99 838.623 1654.03 838.623C1656.08 838.623 1657.74 836.924 1657.74 834.829C1657.74 832.735 1656.08 831.036 1654.03 831.036C1651.99 831.036 1650.33 832.735 1650.33 834.829Z" fill="#8C7417"/>
<path d="M1632.83 843.977C1632.83 845.39 1633.95 846.539 1635.33 846.539C1636.71 846.539 1637.83 845.39 1637.83 843.977C1637.83 842.564 1636.71 841.418 1635.33 841.418C1633.95 841.418 1632.83 842.564 1632.83 843.977Z" fill="#8C7417"/>
<path d="M1504.14 1054.2C1504.14 1054.2 1528.93 987.249 1507.34 936.389C1507.34 936.389 1454.96 994.336 1504.14 1054.2Z" fill="#626129"/>
<path d="M1528.01 893.734C1528.01 893.734 1567.44 881.714 1588.35 889.084C1588.35 889.084 1564.04 927.725 1533.37 930.149C1533.37 930.149 1560.75 960.512 1548.59 1016.8C1548.59 1016.8 1514.21 990.665 1507.31 948.272C1507.31 948.272 1494.28 1001.66 1458.25 1004.01C1458.25 1004.01 1454.42 958.477 1472.05 935.71C1472.05 935.71 1424.52 947.866 1404.59 918.477C1404.59 918.477 1442.15 893.113 1470.51 896.746C1470.51 896.746 1456.72 854.142 1457.48 834.478C1457.48 834.478 1489.91 857.201 1497.84 873.141C1497.84 873.141 1501.88 825.54 1539.09 815.856C1539.09 815.856 1548.71 865.89 1528.01 893.734Z" fill="#F2E1C5"/>
<path d="M1528.01 893.734C1528.01 893.734 1546.19 890.569 1548.6 905.878C1551.01 921.186 1533.37 930.149 1533.37 930.149C1533.37 930.149 1545.64 947.879 1531.46 956.122C1517.28 964.365 1507.31 948.271 1507.31 948.271C1507.31 948.271 1500.12 965.543 1482.01 958.471C1463.9 951.402 1472.05 935.71 1472.05 935.71C1472.05 935.71 1456.84 930.648 1455.95 914.513C1455.06 898.379 1470.52 896.746 1470.52 896.746C1470.52 896.746 1471.01 882.79 1483.55 876.438C1496.09 870.085 1497.85 873.14 1497.85 873.14C1497.85 873.14 1503.86 867.409 1516.89 876.83C1529.93 886.251 1528.01 893.734 1528.01 893.734Z" fill="#D9CE55"/>
<path d="M1503.86 928.792C1503.86 930.337 1505.45 931.59 1507.4 931.59C1509.36 931.59 1510.95 930.337 1510.95 928.792C1510.95 927.247 1509.36 925.994 1507.4 925.994C1505.45 925.994 1503.86 927.247 1503.86 928.792Z" fill="#8C7417"/>
<path d="M1491.4 930.975C1491.4 932.181 1492.82 933.16 1494.57 933.16C1496.31 933.16 1497.73 932.181 1497.73 930.975C1497.73 929.769 1496.31 928.792 1494.57 928.792C1492.82 928.792 1491.4 929.769 1491.4 930.975Z" fill="#8C7417"/>
<path d="M1484.5 912.227C1484.5 913.568 1485.56 914.655 1486.87 914.655C1488.18 914.655 1489.24 913.568 1489.24 912.227C1489.24 910.89 1488.18 909.803 1486.87 909.803C1485.56 909.803 1484.5 910.89 1484.5 912.227Z" fill="#8C7417"/>
<path d="M1503.86 918.439C1503.86 918.439 1509.23 907.055 1514.4 899.597" stroke="#1C1C20" stroke-miterlimit="10" stroke-linecap="round" stroke-linejoin="round"/>
<path d="M1500.03 918.439C1500.03 917.851 1501.18 904.7 1501.56 899.597" stroke="#1C1C20" stroke-miterlimit="10" stroke-linecap="round" stroke-linejoin="round"/>
<path d="M1497.73 920.401C1497.73 920.401 1486.87 917 1482.01 931.59" stroke="#1C1C20" stroke-miterlimit="10" stroke-linecap="round" stroke-linejoin="round"/>
<path d="M1512.79 897.016C1512.79 898.828 1514.22 900.298 1515.99 900.298C1517.76 900.298 1519.19 898.828 1519.19 897.016C1519.19 895.204 1517.76 893.734 1515.99 893.734C1514.22 893.734 1512.79 895.204 1512.79 897.016Z" fill="#1C1C20"/>
<path d="M1497.73 898.715C1497.73 900.395 1499.32 901.758 1501.27 901.758C1503.23 901.758 1504.82 900.395 1504.82 898.715C1504.82 897.035 1503.23 895.672 1501.27 895.672C1499.32 895.672 1497.73 897.035 1497.73 898.715Z" fill="#1C1C20"/>
<path d="M1476.33 934.338C1476.33 936.649 1478.16 938.524 1480.42 938.524C1482.67 938.524 1484.5 936.649 1484.5 934.338C1484.5 932.02 1482.67 930.149 1480.42 930.149C1478.16 930.149 1476.33 932.02 1476.33 934.338Z" fill="#1C1C20"/>
<path d="M1510.25 921.447C1510.25 921.447 1497.09 912.29 1495.94 925.112" stroke="#1C1C20" stroke-miterlimit="10" stroke-linecap="round" stroke-linejoin="round"/>
<path d="M916.437 1228.96C916.437 1228.96 853.236 1188.14 874.634 1153.59C874.634 1153.59 868.198 989.009 901.14 975.524L988.677 949.475C988.677 949.475 1013.49 892.052 1048.23 890.146C1082.98 888.24 1127.24 897.149 1127.24 897.149L1201.64 941.625C1201.64 941.625 1296.86 954.186 1309.86 952.616C1322.86 951.046 1411.1 938.485 1426.54 949.475C1441.98 960.466 1477.93 986.634 1479.8 1016.73L1541.24 1081.04C1541.24 1081.04 1610.73 1157.26 1627.82 1171.39C1627.82 1171.39 1629.49 1152.02 1643.27 1150.45C1657.05 1148.88 1683.52 1200.7 1683.52 1200.7C1683.52 1200.7 1675.73 1177.15 1688.72 1185C1701.72 1192.85 1707.15 1242.57 1707.15 1242.57H916.437V1228.96Z" fill="#043F22"/>
<path d="M989.264 990.343C989.264 990.343 929.051 1002.95 902.58 1037.34C876.11 1071.73 852.042 1103.99 891.648 1120.31C931.257 1136.63 979.787 1051.84 984.198 1029.86C988.608 1007.87 989.264 990.343 989.264 990.343Z" fill="#626129"/>
<path d="M885.443 1124.97C885.443 1124.97 920.434 1025.15 989.263 990.343" stroke="#043F22" stroke-width="1.33333" stroke-miterlimit="10" stroke-linecap="round" stroke-linejoin="round"/>
<path d="M960.552 963.424C960.552 963.424 864.598 906.102 839.229 964.947C813.864 1023.8 937.91 995.637 949.233 979.531C960.552 963.424 960.552 963.424 960.552 963.424Z" fill="#C2A131"/>
<path d="M960.554 963.424C873.424 953.3 837.203 970.497 837.203 970.497" stroke="#D9CE55" stroke-width="1.33333" stroke-miterlimit="10" stroke-linecap="round" stroke-linejoin="round"/>
<path d="M1009.08 1000.57C1009.23 1002.86 1012.39 1097.18 1048.23 1084.04C1084.08 1070.9 1041.06 987.159 1034.45 984.018C1027.83 980.878 1008.12 985.987 1009.08 1000.57Z" fill="#C2A131"/>
<path d="M1051.09 1082.75C1051.09 1082.75 1047.18 1022.83 1017.93 986.157" stroke="#D9CE55" stroke-width="1.33333" stroke-miterlimit="10" stroke-linecap="round" stroke-linejoin="round"/>
<path d="M1048.24 958.896C1048.24 958.896 1048.79 850.651 979.304 873.371C909.82 896.091 1048.24 958.896 1048.24 958.896Z" fill="#626129"/>
<path d="M977.195 874.106C977.195 874.106 1053.99 922.316 1048.23 958.896" stroke="#043F22" stroke-width="1.33333" stroke-miterlimit="10" stroke-linecap="round" stroke-linejoin="round"/>
<path d="M1124.34 1016.73C1124.34 1016.73 1096.15 989.373 1077.69 1013.33C1059.23 1037.28 1088.49 1062 1088.49 1062C1088.49 1062 1062.02 1103.31 1104.48 1109.61C1146.95 1115.91 1150.81 1084.04 1150.81 1084.04C1150.81 1084.04 1172.87 1098.11 1185.55 1069.33C1198.23 1040.54 1162.94 1038.47 1162.94 1038.47C1162.94 1038.47 1185 1018.56 1157.42 1007.05C1129.85 995.533 1124.34 1016.73 1124.34 1016.73Z" fill="#F3A8C1"/>
<path d="M1122.68 1046.82C1122.68 1046.82 1132.06 1053.32 1138.67 1050.86C1138.67 1050.86 1139.23 1038.5 1135.37 1038.47C1131.51 1038.45 1122.68 1046.82 1122.68 1046.82Z" fill="#B7301A"/>
<path d="M960.553 957.844C960.553 957.844 919.812 963.377 930.807 989.922C941.802 1016.47 967.826 1001.81 967.826 1001.81C967.826 1001.81 949.525 1057.69 999.156 1050.16C1048.79 1042.64 1023.68 994.341 1023.68 994.341C1023.68 994.341 1055.87 1026.61 1074.08 986.157C1092.29 945.697 1035.69 952.835 1035.69 952.835C1035.69 952.835 1042.75 923.307 1003.31 921.998C963.862 920.688 960.553 952.264 960.553 957.844Z" fill="#F3A8C1"/>
<path d="M989.229 979.531C989.229 979.531 1005.6 977.71 1008.17 972.23C1008.17 972.23 998.05 957.85 991.985 958.896C985.92 959.941 989.229 979.531 989.229 979.531Z" fill="#B7301A"/>
<path d="M1260 1118.26C1260 1118.26 1282.61 1202.79 1328.38 1176.23C1374.15 1149.67 1326.17 1100.21 1318.73 1090.79C1311.28 1081.37 1259.17 1068.02 1260 1070.38C1260.83 1072.73 1260 1118.26 1260 1118.26Z" fill="#8C7417"/>
<path d="M1227.73 1033.72C1227.73 1033.72 1197.13 1049.97 1192.17 1085.3C1187.2 1120.62 1199.61 1157.75 1238.49 1151.35C1277.37 1144.96 1283.98 1087.43 1264.96 1038.47L1227.73 1033.72Z" fill="#8C7417"/>
<path d="M1244.11 1149.97C1244.11 1149.97 1224.92 1070.33 1244.11 1035.81" stroke="#D9CE55" stroke-width="1.33333" stroke-miterlimit="10" stroke-linecap="round" stroke-linejoin="round"/>
<path d="M1254.21 1029.05C1254.21 1029.05 1262.67 1135.26 1330.4 1105.18C1398.14 1075.09 1254.21 1003.5 1254.21 1003.5V1029.05Z" fill="#626129"/>
<path d="M1254.21 1003.5C1254.21 1003.5 1333.15 1073.75 1334.62 1103.08" stroke="#043F22" stroke-width="1.33333" stroke-miterlimit="10" stroke-linecap="round" stroke-linejoin="round"/>
<path d="M1264.96 966.194C1264.96 966.194 1305.85 868.771 1340.41 894.769C1374.97 920.767 1352.9 968.597 1340.78 975.524C1328.65 982.448 1269.92 975.524 1269.92 975.524L1264.96 966.194Z" fill="#626129"/>
<path d="M1275.23 975.524C1275.23 975.524 1316.92 917.548 1349.69 903.907" stroke="#043F22" stroke-width="1.33333" stroke-miterlimit="10" stroke-linecap="round" stroke-linejoin="round"/>
<path d="M1457.63 1099.05C1456.04 1100.21 1466.21 1198.34 1527.3 1188.14C1588.39 1177.93 1520.66 1085.3 1520.66 1085.3L1478.38 1074.3L1457.63 1099.05Z" fill="#8C7417"/>
<path d="M1476.72 1082.75C1476.72 1082.75 1567.82 1134.26 1588.03 1092.9C1608.24 1051.53 1500.71 1040.71 1489.96 1044.94C1479.2 1049.18 1472.58 1066.22 1472.58 1066.22L1476.72 1082.75Z" fill="#8C7417"/>
<path d="M1482.24 1062.53C1482.24 1062.53 1570.3 1078.4 1588.03 1092.9" stroke="#D9CE55" stroke-width="1.33333" stroke-miterlimit="10" stroke-linecap="round" stroke-linejoin="round"/>
<path d="M1485.82 1057.02C1485.82 1057.02 1555.18 1002.14 1531.25 986.408C1507.33 970.672 1461 1017.5 1451.9 1026.67C1442.81 1035.83 1446.28 1066.22 1446.28 1066.22L1473.55 1070.1L1485.82 1057.02Z" fill="#8C7417"/>
<path d="M1451.9 1057.02C1454.39 1057.81 1512.99 991.938 1531.25 986.408" stroke="#D9CE55" stroke-width="1.33333" stroke-miterlimit="10" stroke-linecap="round" stroke-linejoin="round"/>
<path d="M1412.84 1029.05C1412.84 1029.05 1397.64 1012.37 1379.94 1021.72C1362.23 1031.07 1360.91 1060.17 1379.94 1074.3C1379.94 1074.3 1340.33 1115.91 1389.5 1128.47C1438.67 1141.03 1432.29 1085.3 1432.29 1085.3C1432.29 1085.3 1447.41 1125.04 1476.72 1092.9C1506.04 1060.76 1457.48 1057.03 1457.48 1057.03C1457.48 1057.03 1492.68 1031.12 1463.61 1012.28C1434.53 993.439 1412.84 1029.05 1412.84 1029.05Z" fill="#F3A8C1"/>
<path d="M1254.21 926.709C1254.21 926.709 1238.44 894.329 1226.08 873.371C1212.57 850.46 1202.63 838.473 1183.9 851.148C1158.19 868.532 1199.61 931.419 1199.61 931.419C1199.61 931.419 1124.44 864.688 1092.13 896.091C1059.82 927.494 1167.35 966.194 1167.35 966.194L1254.21 945.55V926.709Z" fill="#8C7417"/>
<path d="M1183.89 851.147C1183.89 851.147 1219.95 902.186 1221.36 938.394" stroke="#D9CE55" stroke-width="1.33333" stroke-miterlimit="10" stroke-linecap="round" stroke-linejoin="round"/>
<path d="M1092.13 896.091C1092.13 896.091 1165.7 927.494 1183.89 947.906" stroke="#D9CE55" stroke-width="1.33333" stroke-miterlimit="10" stroke-linecap="round" stroke-linejoin="round"/>
<path d="M1423.38 1062.53C1423.38 1062.53 1410.55 1047.97 1405.58 1053.29C1400.62 1058.6 1408.89 1070.1 1408.89 1070.1L1423.38 1062.53Z" fill="#B7301A"/>
<path d="M1196.3 983.129C1196.3 983.129 1159.91 1014.36 1196.3 1026.67C1232.7 1038.97 1249.24 1016.73 1249.24 1016.73C1249.24 1016.73 1290.63 1029.49 1301.37 1006.75C1312.11 984.019 1293.91 963.798 1269.92 963.701C1269.92 963.701 1301.36 928.985 1254.21 921.958C1207.06 914.933 1213.48 951.884 1213.48 951.884C1213.48 951.884 1163.22 911.893 1150.81 951.884C1138.4 991.869 1196.3 983.129 1196.3 983.129Z" fill="#F3A8C1"/>
<path d="M1226.8 972.23C1226.8 972.23 1229.63 977.71 1239.85 972.23C1239.85 972.23 1241.39 958.786 1233.32 958.84C1225.25 958.896 1226.8 972.23 1226.8 972.23Z" fill="#B7301A"/>
<path d="M341.437 1227.96C341.437 1227.96 278.236 1187.14 299.634 1152.59C299.634 1152.59 293.198 988.009 326.14 974.524L413.677 948.476C413.677 948.476 438.493 891.053 473.235 889.147C507.977 887.24 552.242 896.149 552.242 896.149L626.639 940.625C626.639 940.625 721.856 953.186 734.856 951.616C747.863 950.046 836.098 937.485 851.537 948.476C866.979 959.467 902.925 985.634 904.805 1015.73L966.242 1080.04C966.242 1080.04 1035.73 1156.26 1052.82 1170.39C1052.82 1170.39 1054.49 1151.02 1068.27 1149.45C1082.05 1147.88 1108.52 1199.7 1108.52 1199.7C1108.52 1199.7 1100.73 1176.15 1113.72 1184C1126.72 1191.85 1132.15 1241.57 1132.15 1241.57H341.437V1227.96Z" fill="#043F22"/>
<path d="M414.264 989.343C414.264 989.343 354.051 1001.95 327.58 1036.34C301.11 1070.73 277.042 1102.99 316.648 1119.31C356.257 1135.63 404.787 1050.84 409.198 1028.86C413.608 1006.87 414.264 989.343 414.264 989.343Z" fill="#626129"/>
<path d="M310.443 1123.97C310.443 1123.97 345.434 1024.15 414.263 989.344" stroke="#043F22" stroke-width="1.33333" stroke-miterlimit="10" stroke-linecap="round" stroke-linejoin="round"/>
<path d="M385.552 962.424C385.552 962.424 289.598 905.102 264.229 963.948C238.864 1022.8 362.91 994.638 374.233 978.531C385.552 962.424 385.552 962.424 385.552 962.424Z" fill="#C2A131"/>
<path d="M385.554 962.424C298.424 952.301 262.203 969.497 262.203 969.497" stroke="#D9CE55" stroke-width="1.33333" stroke-miterlimit="10" stroke-linecap="round" stroke-linejoin="round"/>
<path d="M434.081 999.571C434.23 1001.86 437.39 1096.18 473.233 1083.04C509.077 1069.9 466.063 986.159 459.446 983.019C452.828 979.878 433.121 984.988 434.081 999.571Z" fill="#C2A131"/>
<path d="M476.09 1081.75C476.09 1081.75 472.183 1021.84 442.93 985.157" stroke="#D9CE55" stroke-width="1.33333" stroke-miterlimit="10" stroke-linecap="round" stroke-linejoin="round"/>
<path d="M473.236 957.897C473.236 957.897 473.788 849.652 404.304 872.372C334.82 895.091 473.236 957.897 473.236 957.897Z" fill="#626129"/>
<path d="M402.195 873.106C402.195 873.106 478.985 921.316 473.235 957.897" stroke="#043F22" stroke-width="1.33333" stroke-miterlimit="10" stroke-linecap="round" stroke-linejoin="round"/>
<path d="M549.337 1015.73C549.337 1015.73 521.153 988.373 502.693 1012.33C484.234 1036.28 513.493 1061 513.493 1061C513.493 1061 487.023 1102.31 529.484 1108.61C571.946 1114.91 575.807 1083.04 575.807 1083.04C575.807 1083.04 597.867 1097.11 610.549 1068.33C623.232 1039.54 587.94 1037.47 587.94 1037.47C587.94 1037.47 609.997 1017.56 582.425 1006.05C554.853 994.533 549.337 1015.73 549.337 1015.73Z" fill="#F3A8C1"/>
<path d="M547.684 1045.82C547.684 1045.82 557.057 1052.32 563.675 1049.86C563.675 1049.86 564.227 1037.5 560.366 1037.47C556.508 1037.45 547.684 1045.82 547.684 1045.82Z" fill="#B7301A"/>
<path d="M385.553 956.844C385.553 956.844 344.812 962.378 355.807 988.923C366.802 1015.47 392.826 1000.81 392.826 1000.81C392.826 1000.81 374.525 1056.69 424.156 1049.16C473.788 1041.64 448.684 993.341 448.684 993.341C448.684 993.341 480.865 1025.61 499.08 985.157C517.295 944.698 460.692 951.835 460.692 951.835C460.692 951.835 467.753 922.307 428.309 920.998C388.862 919.688 385.553 951.264 385.553 956.844Z" fill="#F3A8C1"/>
<path d="M414.229 978.531C414.229 978.531 430.597 976.71 433.168 971.23C433.168 971.23 423.05 956.85 416.985 957.896C410.92 958.942 414.229 978.531 414.229 978.531Z" fill="#B7301A"/>
<path d="M684.998 1117.27C684.998 1117.27 707.607 1201.79 753.38 1175.23C799.151 1148.67 751.173 1099.21 743.729 1089.79C736.284 1080.37 684.171 1067.02 684.998 1069.38C685.825 1071.73 684.998 1117.27 684.998 1117.27Z" fill="#8C7417"/>
<path d="M652.735 1032.72C652.735 1032.72 622.129 1048.97 617.165 1084.3C612.202 1119.62 624.61 1156.75 663.488 1150.35C702.366 1143.96 708.984 1086.43 689.958 1037.47L652.735 1032.72Z" fill="#8C7417"/>
<path d="M669.115 1148.97C669.115 1148.97 649.921 1069.33 669.115 1034.81" stroke="#D9CE55" stroke-width="1.33333" stroke-miterlimit="10" stroke-linecap="round" stroke-linejoin="round"/>
<path d="M679.205 1028.05C679.205 1028.05 687.672 1134.26 755.403 1104.18C823.137 1074.09 679.205 1002.5 679.205 1002.5V1028.05Z" fill="#626129"/>
<path d="M679.205 1002.5C679.205 1002.5 758.146 1072.75 759.625 1102.08" stroke="#043F22" stroke-width="1.33333" stroke-miterlimit="10" stroke-linecap="round" stroke-linejoin="round"/>
<path d="M689.959 965.194C689.959 965.194 730.845 867.771 765.412 893.769C799.972 919.767 777.899 967.597 765.776 974.524C753.653 981.449 694.922 974.524 694.922 974.524L689.959 965.194Z" fill="#626129"/>
<path d="M700.229 974.524C700.229 974.524 741.916 916.548 774.686 902.907" stroke="#043F22" stroke-width="1.33333" stroke-miterlimit="10" stroke-linecap="round" stroke-linejoin="round"/>
<path d="M882.629 1098.05C881.041 1099.21 891.205 1197.34 952.299 1187.14C1013.39 1176.93 945.658 1084.3 945.658 1084.3L903.375 1073.3L882.629 1098.05Z" fill="#8C7417"/>
<path d="M901.72 1081.75C901.72 1081.75 992.817 1133.26 1013.03 1091.9C1033.24 1050.53 925.709 1039.71 914.955 1043.94C904.202 1048.18 897.584 1065.23 897.584 1065.23L901.72 1081.75Z" fill="#8C7417"/>
<path d="M907.236 1061.53C907.236 1061.53 995.299 1077.4 1013.03 1091.9" stroke="#D9CE55" stroke-width="1.33333" stroke-miterlimit="10" stroke-linecap="round" stroke-linejoin="round"/>
<path d="M910.82 1056.02C910.82 1056.02 980.176 1001.14 956.25 985.408C932.327 969.673 886.001 1016.5 876.902 1025.67C867.806 1034.83 871.281 1065.22 871.281 1065.22L898.555 1069.1L910.82 1056.02Z" fill="#8C7417"/>
<path d="M876.9 1056.02C879.385 1056.82 937.987 990.938 956.248 985.408" stroke="#D9CE55" stroke-width="1.33333" stroke-miterlimit="10" stroke-linecap="round" stroke-linejoin="round"/>
<path d="M837.842 1028.05C837.842 1028.05 822.645 1011.37 804.939 1020.72C787.234 1030.07 785.914 1059.17 804.939 1073.3C804.939 1073.3 765.333 1114.91 814.502 1127.47C863.67 1140.03 857.291 1084.3 857.291 1084.3C857.291 1084.3 872.405 1124.04 901.721 1091.9C931.037 1059.76 882.481 1056.03 882.481 1056.03C882.481 1056.03 917.676 1030.12 888.605 1011.28C859.534 992.44 837.842 1028.05 837.842 1028.05Z" fill="#F3A8C1"/>
<path d="M679.207 925.709C679.207 925.709 663.44 893.33 651.082 872.371C637.572 849.46 627.626 837.474 608.895 850.148C583.193 867.532 624.612 930.419 624.612 930.419C624.612 930.419 549.44 863.689 517.13 895.091C484.816 926.494 592.351 965.194 592.351 965.194L679.207 944.551V925.709Z" fill="#8C7417"/>
<path d="M608.895 850.147C608.895 850.147 644.947 901.186 646.356 937.394" stroke="#D9CE55" stroke-width="1.33333" stroke-miterlimit="10" stroke-linecap="round" stroke-linejoin="round"/>
<path d="M517.129 895.091C517.129 895.091 590.696 926.494 608.894 946.906" stroke="#D9CE55" stroke-width="1.33333" stroke-miterlimit="10" stroke-linecap="round" stroke-linejoin="round"/>
<path d="M848.378 1061.53C848.378 1061.53 835.547 1046.97 830.584 1052.29C825.621 1057.6 833.893 1069.1 833.893 1069.1L848.378 1061.53Z" fill="#B7301A"/>
<path d="M621.303 982.13C621.303 982.13 584.907 1013.36 621.303 1025.67C657.7 1037.97 674.243 1015.73 674.243 1015.73C674.243 1015.73 715.626 1028.49 726.367 1005.75C737.11 983.019 718.912 962.798 694.923 962.702C694.923 962.702 726.357 927.986 679.207 920.958C632.057 913.933 638.479 950.884 638.479 950.884C638.479 950.884 588.215 910.893 575.807 950.884C563.4 990.87 621.303 982.13 621.303 982.13Z" fill="#F3A8C1"/>
<path d="M651.796 971.23C651.796 971.23 654.628 976.71 664.849 971.23C664.849 971.23 666.387 957.786 658.321 957.84C650.254 957.897 651.796 971.23 651.796 971.23Z" fill="#B7301A"/>
<rect x="-3" y="-5" width="1760" height="274" fill="url(#paint0_linear_820_8025)" fill-opacity="0.7"/>
<g filter="url(#filter0_b_820_8025)">
<rect x="-619" y="-14" width="2347" height="1096" fill="url(#paint1_linear_820_8025)" style="mix-blend-mode:darken"/>
</g>
</g>
<defs>
<filter id="filter0_b_820_8025" x="-623" y="-18" width="2355" height="1104" filterUnits="userSpaceOnUse" color-interpolation-filters="sRGB">
<feFlood flood-opacity="0" result="BackgroundImageFix"/>
<feGaussianBlur in="BackgroundImageFix" stdDeviation="2"/>
<feComposite in2="SourceAlpha" operator="in" result="effect1_backgroundBlur_820_8025"/>
<feBlend mode="normal" in="SourceGraphic" in2="effect1_backgroundBlur_820_8025" result="shape"/>
</filter>
<linearGradient id="paint0_linear_820_8025" x1="877" y1="-5" x2="877" y2="269" gradientUnits="userSpaceOnUse">
<stop stop-color="#090909"/>
<stop offset="1" stop-color="#090909" stop-opacity="0"/>
</linearGradient>
<linearGradient id="paint1_linear_820_8025" x1="818.673" y1="534" x2="-618.433" y2="491.734" gradientUnits="userSpaceOnUse">
<stop stop-color="#1F182E" stop-opacity="0.79"/>
<stop offset="0.556628" stop-color="#1F182E" stop-opacity="0.5"/>
<stop offset="1" stop-color="#1F182E" stop-opacity="0"/>
</linearGradient>
<clipPath id="clip0_820_8025">
<rect width="1728" height="1077" fill="white"/>
</clipPath>
<clipPath id="clip1_820_8025">
<rect width="1728" height="1640" fill="white" transform="translate(0 -185)"/>
</clipPath>
</defs>
</svg>
