<svg width="768" height="1063" viewBox="0 0 768 1063" fill="none" xmlns="http://www.w3.org/2000/svg">
<g clip-path="url(#clip0_809_7426)">
<rect width="768" height="1063" fill="#FFF8F3"/>
<rect y="825" width="769" height="1297" fill="#043F22"/>
<g clip-path="url(#clip1_809_7426)">
<path d="M695.327 107.902C695.327 107.902 634.982 225.313 657.088 236.981C671.486 244.582 664.81 181.724 754.055 130.369C754.055 130.369 704.542 200.337 714.685 214.032C724.829 227.731 766.483 152.837 820.421 131.441C820.421 131.441 782.896 207.626 797.572 208.048C812.246 208.473 857.559 133.579 875.736 126.091C875.736 126.091 842.154 178.418 873.785 227.681C905.416 276.945 895.395 91.8536 895.395 91.8536L695.327 107.902Z" fill="#043F22"/>
<path d="M656.996 236.935C656.996 236.935 679.872 136.508 721.417 105.506" stroke="#8C7417" stroke-width="2" stroke-miterlimit="10" stroke-linecap="round" stroke-linejoin="round"/>
<path d="M713.509 213.959C713.509 213.959 769.288 123.372 801.676 98.9357" stroke="#8C7417" stroke-width="2" stroke-miterlimit="10" stroke-linecap="round" stroke-linejoin="round"/>
</g>
<path d="M837.069 814H-17.5247V102H837.069V814Z" fill="#E4A771"/>
<path d="M5.10094 93.3517C5.10094 93.3517 37.8763 164.489 44.703 164.553C51.5288 164.618 52.574 82.0057 52.574 82.0057C52.574 82.0057 106.901 170.311 117.378 167.464C127.855 164.618 106.922 82.2087 106.922 82.2087C106.922 82.2087 145.751 139.458 152.752 139.977C159.753 140.497 146.494 76.5184 146.494 76.5184L70.7493 52.0487L-3.75415 59.7386L5.10094 93.3517Z" fill="#626129"/>
<path d="M679.432 196.29C679.432 196.29 735.735 107.589 768.428 83.6621" stroke="#8C7417" stroke-width="2" stroke-miterlimit="10" stroke-linecap="round" stroke-linejoin="round"/>
<path d="M761.524 190.423C758.181 185.749 813.65 88.0563 837.005 68.1301" stroke="#8C7417" stroke-width="2" stroke-miterlimit="10" stroke-linecap="round" stroke-linejoin="round"/>
<path d="M23.1593 66.2453C23.1593 66.2453 111.396 164.61 93.1579 180.586C81.2797 190.991 71.5035 129.732 -27.4898 100.571C-27.4898 100.571 38.1147 156.198 31.8969 171.465C25.6786 186.729 -33.6428 124.684 -90.989 116.231C-90.989 116.231 -35.3036 180.418 -49.2969 184.058C-63.2898 187.697 -126.126 126.458 -145.524 123.345C-145.524 123.345 -99.7705 165.708 -117.478 219.545C-135.184 273.38 -173.237 95.1168 -173.237 95.1168L23.1593 66.2453Z" fill="#043F22"/>
<path d="M93.1586 180.586C93.1586 180.586 44.9118 90.3168 -3.75415 70.2034" stroke="#8C7417" stroke-width="2" stroke-miterlimit="10" stroke-linecap="round" stroke-linejoin="round"/>
<path d="M31.8974 171.464C31.8974 171.464 -46.0437 97.9389 -84.0518 82.0055" stroke="#8C7417" stroke-width="2" stroke-miterlimit="10" stroke-linecap="round" stroke-linejoin="round"/>
<path d="M659.005 390.135C659.005 321.912 708.512 260.06 755.755 260.06H768.166C815.408 260.06 864.915 321.912 864.915 390.135V639.728H659.005V390.135Z" fill="#602B1C"/>
<path d="M665.511 395.03C665.511 332.545 711.888 281.891 756.148 281.891H767.772C812.03 281.891 858.407 332.545 858.407 395.03V639.728H665.511V395.03Z" fill="#5972BF"/>
<path d="M679.432 418.242V418.241C679.432 368.279 719.116 327.775 756.986 327.775H766.933C804.802 327.775 844.487 368.279 844.487 418.241V418.242V613.902H679.432V418.242Z" fill="#EE5C39"/>
<path d="M761.96 327.775V613.902" stroke="#1C1C20" stroke-width="2.66667" stroke-miterlimit="10"/>
<path d="M160.606 386.989C160.606 318.765 111.099 256.915 63.8564 256.915H51.4451C4.20216 256.915 -45.3049 318.765 -45.3049 386.989V636.581H160.606V386.989Z" fill="#602B1C"/>
<path d="M154.1 391.883C154.1 329.399 107.722 278.745 63.4649 278.745H51.8377C7.58108 278.745 -38.7974 329.399 -38.7974 391.883V636.581H154.1V391.883Z" fill="#5972BF"/>
<path d="M140.178 415.094C140.178 365.132 100.494 324.628 62.6258 324.628H52.6775C14.8082 324.628 -24.8752 365.132 -24.8752 415.094V610.755H140.178V415.094Z" fill="#EE5C39"/>
<path d="M57.6499 324.628V610.755" stroke="#1C1C20" stroke-width="2.66667" stroke-miterlimit="10"/>
<path d="M423.11 124.088C423.11 124.088 422.454 145.768 452.67 154.104C482.887 162.442 495.105 160.809 504.862 173.573C504.862 173.573 493.399 155.512 467.533 149.16C441.669 142.807 423.11 124.088 423.11 124.088Z" fill="#EE5C39"/>
<path d="M558.558 198.716C558.558 198.716 576.51 208.682 585.073 224.894C593.637 241.104 601.592 235.123 599.558 226.237C597.525 217.352 567.821 198.388 558.558 198.716Z" fill="#43568F"/>
<path d="M540.959 171.705C548.568 161.975 529.132 160.172 534.481 171.104C529.132 160.172 517.717 174.767 530.675 175.968C517.717 174.767 525.74 191.164 533.35 181.434C525.74 191.164 545.176 192.967 539.829 182.035C545.176 192.967 556.589 178.372 543.633 177.17C556.589 178.372 548.568 161.975 540.959 171.705Z" fill="#5972BF"/>
<path d="M540.874 176.914C541.081 175.023 539.582 173.335 537.528 173.144C535.474 172.954 533.64 174.332 533.434 176.223C533.227 178.116 534.724 179.804 536.779 179.994C538.833 180.185 540.667 178.806 540.874 176.914Z" fill="#F2E1C5"/>
<path d="M514.724 160.455C514.724 160.455 505.49 133.904 498.523 138.002C491.554 142.099 514.724 160.455 514.724 160.455Z" fill="#5972BF"/>
<path d="M484.793 143.844C484.793 143.844 469.551 121.479 462.934 128.967C456.318 136.457 484.793 143.844 484.793 143.844Z" fill="#F2E1C5"/>
<path d="M559.032 183.822C559.032 183.822 575.079 167.982 578.502 172.987C581.925 177.992 559.032 183.822 559.032 183.822Z" fill="#43568F"/>
<path d="M599.919 209.525C599.919 209.525 612.344 212.785 609.656 216.361C606.968 219.938 599.919 209.525 599.919 209.525Z" fill="#5972BF"/>
<path d="M559.329 191.672C559.329 191.672 567.686 191.855 579.116 197.262C590.547 202.672 594.205 198.664 592.274 194.729C590.343 190.795 567.192 188.447 559.329 191.672Z" fill="#F2E1C5"/>
<path d="M623.832 290.373C623.832 290.373 626.043 256.257 613.403 260.058C600.763 263.86 623.832 290.373 623.832 290.373Z" fill="#EE5C39"/>
<path d="M628.532 318.922C628.532 318.922 623.5 294.229 616.617 297.923C609.735 301.617 628.532 318.922 628.532 318.922Z" fill="#F2E1C5"/>
<path d="M633.231 350.256C633.231 350.256 630.538 327.182 623.981 330.722C617.425 334.261 633.231 350.256 633.231 350.256Z" fill="#5972BF"/>
<path d="M646.047 290.373C646.047 290.373 643.836 256.257 656.476 260.058C669.116 263.86 646.047 290.373 646.047 290.373Z" fill="#EE5C39"/>
<path d="M641.348 318.922C641.348 318.922 646.381 294.229 653.264 297.923C660.145 301.617 641.348 318.922 641.348 318.922Z" fill="#F2E1C5"/>
<path d="M636.646 350.256C636.646 350.256 639.34 327.182 645.896 330.722C652.453 334.261 636.646 350.256 636.646 350.256Z" fill="#5972BF"/>
<path d="M634.94 364.95C634.94 364.95 623.405 407.415 634.94 407.415C646.474 407.415 634.94 364.95 634.94 364.95Z" fill="#43568F"/>
<path d="M634.94 241.835C634.94 241.835 626.823 262.572 634.94 262.572C643.057 262.572 634.94 241.835 634.94 241.835Z" fill="#43568F"/>
<path d="M396.501 124.088C396.501 124.088 397.157 145.768 366.942 154.104C336.725 162.442 324.506 160.809 314.748 173.573C314.748 173.573 326.211 155.512 352.075 149.16C377.941 142.807 396.501 124.088 396.501 124.088Z" fill="#EE5C39"/>
<path d="M261.053 198.716C261.053 198.716 243.1 208.682 234.536 224.894C225.973 241.104 218.018 235.123 220.052 226.237C222.085 217.352 251.791 198.388 261.053 198.716Z" fill="#43568F"/>
<path d="M278.652 171.705C271.041 161.975 290.476 160.172 285.13 171.104C290.476 160.172 301.891 174.767 288.935 175.968C301.891 174.767 293.87 191.164 286.261 181.434C293.87 191.164 274.434 192.967 279.783 182.035C274.434 192.967 263.021 178.372 275.977 177.17C263.021 178.372 271.041 161.975 278.652 171.705Z" fill="#5972BF"/>
<path d="M278.736 176.914C278.529 175.023 280.028 173.335 282.082 173.144C284.137 172.954 285.969 174.332 286.176 176.223C286.383 178.116 284.886 179.804 282.832 179.994C280.776 180.185 278.943 178.806 278.736 176.914Z" fill="#F2E1C5"/>
<path d="M304.886 160.455C304.886 160.455 314.118 133.904 321.089 138.002C328.057 142.099 304.886 160.455 304.886 160.455Z" fill="#5972BF"/>
<path d="M334.817 143.844C334.817 143.844 350.059 121.479 356.676 128.967C363.292 136.457 334.817 143.844 334.817 143.844Z" fill="#F2E1C5"/>
<path d="M260.577 183.822C260.577 183.822 244.531 167.982 241.108 172.987C237.686 177.992 260.577 183.822 260.577 183.822Z" fill="#43568F"/>
<path d="M219.691 209.525C219.691 209.525 207.267 212.785 209.955 216.361C212.643 219.938 219.691 209.525 219.691 209.525Z" fill="#5972BF"/>
<path d="M260.283 191.672C260.283 191.672 251.925 191.855 240.495 197.262C229.065 202.672 225.406 198.664 227.337 194.729C229.268 190.795 252.421 188.447 260.283 191.672Z" fill="#F2E1C5"/>
<path d="M195.777 290.373C195.777 290.373 193.566 256.257 206.206 260.058C218.846 263.86 195.777 290.373 195.777 290.373Z" fill="#EE5C39"/>
<path d="M191.08 318.922C191.08 318.922 196.112 294.229 202.995 297.923C209.876 301.617 191.08 318.922 191.08 318.922Z" fill="#F2E1C5"/>
<path d="M186.38 350.256C186.38 350.256 189.073 327.182 195.63 330.722C202.187 334.261 186.38 350.256 186.38 350.256Z" fill="#5972BF"/>
<path d="M173.564 290.373C173.564 290.373 175.775 256.257 163.135 260.058C150.495 263.86 173.564 290.373 173.564 290.373Z" fill="#EE5C39"/>
<path d="M178.263 318.922C178.263 318.922 173.231 294.229 166.348 297.923C159.467 301.617 178.263 318.922 178.263 318.922Z" fill="#F2E1C5"/>
<path d="M182.964 350.256C182.964 350.256 180.27 327.182 173.714 330.722C167.157 334.261 182.964 350.256 182.964 350.256Z" fill="#5972BF"/>
<path d="M184.671 364.95C184.671 364.95 196.206 407.415 184.671 407.415C173.137 407.415 184.671 364.95 184.671 364.95Z" fill="#43568F"/>
<path d="M184.672 241.835C184.672 241.835 192.789 262.572 184.672 262.572C176.555 262.572 184.672 241.835 184.672 241.835Z" fill="#43568F"/>
<path d="M610.875 347.965C610.875 261.773 514.19 183.63 421.925 183.63H397.688C305.423 183.63 208.737 261.773 208.737 347.965V663.3H610.875V347.965Z" fill="#602B1C"/>
<path d="M208.737 332.232C208.737 246.041 305.423 167.896 397.688 167.896H421.925C514.19 167.896 610.875 246.041 610.875 332.232V347.965C610.875 261.773 514.19 183.63 421.925 183.63H397.688C305.423 183.63 208.737 261.773 208.737 347.965V332.232Z" fill="#3E1F0D"/>
<path d="M598.166 351.677C598.166 272.102 507.593 207.593 421.158 207.593H398.452C312.019 207.593 221.445 272.102 221.445 351.677V663.3H598.166V351.677Z" fill="#5972BF"/>
<path d="M409.805 207.593V663.3" stroke="#1C1C20" stroke-width="2.66667" stroke-miterlimit="10"/>
<path d="M453.592 260.058C453.592 260.058 460.518 233.839 471.046 240.655C481.574 247.472 453.592 260.058 453.592 260.058Z" fill="#9BAAD9"/>
<path d="M474.249 255.404C474.249 255.404 491.278 250.685 491.278 255.404C491.278 260.124 474.249 255.404 474.249 255.404Z" fill="#43568F"/>
<path d="M552.894 296.74C552.894 296.74 542.48 283.467 547.325 281.924C552.169 280.381 552.894 296.74 552.894 296.74Z" fill="#43568F"/>
<path d="M497.46 249.791C502.169 249.565 506.894 250.106 511.503 251.031C516.13 251.929 520.626 253.364 524.968 255.109C527.143 255.977 529.225 257.036 531.314 258.06L534.324 259.809C534.821 260.107 535.332 260.384 535.817 260.697L537.234 261.689C541.094 264.217 544.448 267.369 547.363 270.743C543.454 268.308 539.768 265.803 535.757 263.733C531.813 261.598 527.772 259.641 523.579 257.981C519.425 256.246 515.149 254.739 510.799 253.389C506.436 252.049 502.012 250.861 497.46 249.791Z" fill="#1C1C20"/>
<path d="M507.642 260.267C507.642 258.993 506.522 257.962 505.138 257.962C503.754 257.962 502.633 258.993 502.633 260.267C502.633 261.54 503.754 262.572 505.138 262.572C506.522 262.572 507.642 261.54 507.642 260.267Z" fill="#F2E1C5"/>
<path d="M519.229 263.791C519.229 262.518 518.108 261.485 516.724 261.485C515.342 261.485 514.221 262.518 514.221 263.791C514.221 265.064 515.342 266.096 516.724 266.096C518.108 266.096 519.229 265.064 519.229 263.791Z" fill="#F2E1C5"/>
<path d="M529.672 268.402C529.672 267.13 528.551 266.096 527.169 266.096C525.785 266.096 524.664 267.13 524.664 268.402C524.664 269.675 525.785 270.707 527.169 270.707C528.551 270.707 529.672 269.675 529.672 268.402Z" fill="#F2E1C5"/>
<path d="M538.965 274.105C538.965 272.832 537.844 271.799 536.46 271.799C535.077 271.799 533.955 272.832 533.955 274.105C533.955 275.378 535.077 276.41 536.46 276.41C537.844 276.41 538.965 275.378 538.965 274.105Z" fill="#F2E1C5"/>
<path d="M565.803 323.466C565.803 323.466 560.656 357.579 569.181 358.124C577.705 358.67 565.803 323.466 565.803 323.466Z" fill="#9BAAD9"/>
<path d="M571.549 367.152C571.549 367.152 564.145 386.817 571.549 386.817C578.953 386.817 571.549 367.152 571.549 367.152Z" fill="#43568F"/>
<path d="M562.813 310.125C578.065 310.125 563.807 296.999 563.807 311.041C563.807 296.999 549.551 310.125 564.802 310.125C549.551 310.125 563.807 323.251 563.807 309.21C563.807 323.251 578.065 310.125 562.813 310.125Z" fill="#1C1C20"/>
<path d="M570.556 401.795C585.807 401.795 571.551 388.669 571.551 402.71C571.551 388.669 557.294 401.795 572.545 401.795C557.294 401.795 571.551 414.921 571.551 400.879C571.551 414.921 585.807 401.795 570.556 401.795Z" fill="#1C1C20"/>
<path d="M547.003 418.428H440.068C435.309 418.428 431.449 414.875 431.449 410.492V308.092C431.449 285.909 450.984 267.924 475.079 267.924C519.561 267.924 555.622 301.123 555.622 342.075V410.492C555.622 414.875 551.763 418.428 547.003 418.428Z" fill="#43568F"/>
<path d="M431.449 401.122L438.344 407.415L445.24 401.122L452.135 407.415L459.036 401.122L465.922 407.415L472.817 401.122L479.709 407.415L486.605 401.122L493.5 407.415L500.399 401.122L507.299 407.415L514.199 401.122L521.099 407.415L527.997 401.122L534.896 407.415L541.798 401.122L548.71 407.415L555.622 401.122" stroke="#9BAAD9" stroke-width="2.66667" stroke-miterlimit="10"/>
<path d="M493.536 286.409C493.536 286.409 488.456 275.09 493.536 275.09C498.615 275.09 493.536 286.409 493.536 286.409Z" fill="#F2E1C5"/>
<path d="M484.437 290.373C484.437 290.373 476.696 283.489 480.462 281.977C484.23 280.465 484.437 290.373 484.437 290.373Z" fill="#9BAAD9"/>
<path d="M474.249 295.227C474.249 295.227 465.22 289.832 468.603 287.686C471.987 285.539 474.249 295.227 474.249 295.227Z" fill="#9BAAD9"/>
<path d="M466.962 300.299C466.962 300.299 459.216 298.221 461.142 296.007C463.067 293.794 466.962 300.299 466.962 300.299Z" fill="#9BAAD9"/>
<path d="M502.633 290.373C502.633 290.373 510.374 283.489 506.608 281.977C502.842 280.465 502.633 290.373 502.633 290.373Z" fill="#9BAAD9"/>
<path d="M512.824 295.227C512.824 295.227 521.852 289.832 518.47 287.686C515.087 285.539 512.824 295.227 512.824 295.227Z" fill="#9BAAD9"/>
<path d="M520.109 300.299C520.109 300.299 527.855 298.221 525.929 296.007C524.003 293.794 520.109 300.299 520.109 300.299Z" fill="#9BAAD9"/>
<path d="M461.781 305.293C461.781 305.293 445.474 310.023 445.407 305.5C445.339 300.977 461.781 305.293 461.781 305.293Z" fill="#F2E1C5"/>
<path d="M525.294 305.293C525.294 305.293 541.601 310.023 541.667 305.5C541.734 300.977 525.294 305.293 525.294 305.293Z" fill="#F2E1C5"/>
<path d="M506.787 307.457C506.669 306.913 503.282 291.78 493.535 291.358C483.788 291.78 480.402 306.913 480.284 307.457C465.277 308.952 453.592 320.645 453.592 334.858V383.943C453.592 387.563 456.513 390.618 460.41 391.079L472.478 392.505C486.458 394.156 500.613 394.156 514.593 392.505L526.659 391.079C530.558 390.618 533.479 387.563 533.479 383.943V334.858C533.479 320.645 521.794 308.952 506.787 307.457Z" fill="#C2A131"/>
<path d="M508.144 315.12C513.775 318.987 518.387 324.117 521.717 329.894C523.337 332.809 524.621 335.902 525.427 339.126C526.15 342.335 526.427 345.742 526.425 348.928L526.738 368.288L526.75 369.498C526.755 369.671 526.751 369.934 526.729 370.231C526.693 370.508 526.656 370.789 526.565 371.057C526.256 372.149 525.516 373.082 524.609 373.741C523.693 374.405 522.592 374.809 521.468 374.936C521.191 374.979 520.892 374.977 520.629 374.992L519.974 374.996L518.658 375.007L508.144 375.092L509.774 373.591L509.797 379.47L509.802 380.94L509.797 381.722C509.788 382.074 509.733 382.425 509.645 382.769C509.281 384.154 508.278 385.304 507.057 386.001C506.446 386.355 505.778 386.608 505.087 386.761C504.744 386.842 504.392 386.883 504.04 386.913L503.515 386.935L503.115 386.937L499.923 386.945L493.537 386.964L487.152 386.948L483.96 386.938L483.558 386.937L483.034 386.915C482.681 386.885 482.329 386.844 481.986 386.762C481.297 386.61 480.628 386.356 480.016 386.002C478.796 385.305 477.791 384.155 477.429 382.769C477.34 382.427 477.285 382.074 477.275 381.722L477.27 380.94L477.275 379.47L477.295 373.591L478.929 375.097L468.415 375.01L467.101 375.001L466.444 374.995C466.181 374.982 465.882 374.984 465.607 374.941C464.481 374.812 463.381 374.408 462.465 373.744C461.556 373.083 460.814 372.15 460.505 371.057C460.416 370.789 460.378 370.508 460.342 370.231C460.322 369.934 460.315 369.671 460.322 369.498L460.332 368.288L460.643 348.928C460.643 345.742 460.918 342.335 461.643 339.124C462.451 335.902 463.733 332.808 465.354 329.892C468.686 324.116 473.298 318.985 478.929 315.12C473.685 319.393 469.42 324.644 466.537 330.424C465.132 333.331 464.117 336.369 463.458 339.461C462.909 342.601 462.783 345.659 462.921 348.928L463.232 368.288L463.242 369.498C463.241 369.728 463.254 369.868 463.261 369.973C463.285 370.094 463.295 370.217 463.343 370.333C463.481 370.807 463.835 371.243 464.302 371.57C464.77 371.897 465.358 372.108 465.969 372.164C466.127 372.188 466.268 372.179 466.444 372.188L467.101 372.183L468.415 372.172L478.929 372.086L480.559 372.073L480.564 373.591L480.583 379.47L480.588 380.94C480.592 381.165 480.585 381.476 480.597 381.629C480.6 381.766 480.624 381.901 480.657 382.033C480.797 382.562 481.209 383.065 481.796 383.396C482.087 383.561 482.415 383.684 482.758 383.757C482.931 383.8 483.109 383.816 483.288 383.831L483.558 383.842H483.96L487.152 383.833L493.537 383.819L499.923 383.835L503.115 383.844L503.515 383.846L503.787 383.833C503.966 383.817 504.144 383.801 504.315 383.759C504.66 383.685 504.988 383.562 505.279 383.397C505.866 383.067 506.278 382.562 506.418 382.035C506.453 381.901 506.476 381.767 506.48 381.629C506.492 381.476 506.485 381.165 506.487 380.94L506.492 379.47L506.516 373.591L506.521 372.078L508.144 372.091L518.658 372.175L519.974 372.187L520.629 372.191C520.806 372.182 520.948 372.193 521.105 372.169C521.717 372.111 522.307 371.9 522.775 371.573C523.243 371.244 523.597 370.808 523.735 370.335C523.783 370.218 523.793 370.094 523.816 369.975C523.824 369.868 523.838 369.728 523.834 369.498L523.846 368.288L524.159 348.928C524.298 345.659 524.169 342.601 523.619 339.461C522.961 336.368 521.948 333.33 520.542 330.423C517.657 324.643 513.392 319.391 508.144 315.12Z" fill="#D9CE55"/>
<path d="M493.537 346.323C493.537 346.323 484.708 305.157 493.537 305.157C502.365 305.157 493.537 346.323 493.537 346.323Z" fill="#D9CE55"/>
<path d="M493.537 346.323C493.537 346.323 484.708 377.874 493.537 377.874C502.365 377.874 493.537 346.323 493.537 346.323Z" fill="#D9CE55"/>
<path d="M493.538 346.323C493.538 346.323 470.753 352.616 470.753 346.323C470.753 340.03 493.538 346.323 493.538 346.323Z" fill="#D9CE55"/>
<path d="M486.097 338.835C486.097 338.835 471.045 331.371 474.519 328.173C477.993 324.975 486.097 338.835 486.097 338.835Z" fill="#F2E1C5"/>
<path d="M500.974 338.835C500.974 338.835 516.026 331.371 512.552 328.173C509.078 324.975 500.974 338.835 500.974 338.835Z" fill="#F2E1C5"/>
<path d="M486.097 353.81C486.097 353.81 471.045 361.273 474.519 364.471C477.993 367.67 486.097 353.81 486.097 353.81Z" fill="#F2E1C5"/>
<path d="M500.974 353.81C500.974 353.81 516.026 361.273 512.552 364.471C509.078 367.67 500.974 353.81 500.974 353.81Z" fill="#F2E1C5"/>
<path d="M493.536 346.323C493.536 346.323 516.319 352.616 516.319 346.323C516.319 340.03 493.536 346.323 493.536 346.323Z" fill="#D9CE55"/>
<path d="M492.635 347.15C506.437 334.445 480.634 334.445 494.434 347.15C480.634 334.445 480.634 358.199 494.434 345.494C480.634 358.199 506.437 358.199 492.635 345.494C506.437 358.199 506.437 334.445 492.635 347.15Z" fill="#1C1C20"/>
<path d="M451.543 292.834C451.543 290.871 449.816 289.281 447.683 289.281C445.552 289.281 443.825 290.871 443.825 292.834C443.825 294.796 445.552 296.387 447.683 296.387C449.816 296.387 451.543 294.796 451.543 292.834Z" fill="#EE5C39"/>
<path d="M460.394 282.451C460.394 280.713 458.865 279.305 456.977 279.305C455.09 279.305 453.559 280.713 453.559 282.451C453.559 284.188 455.09 285.597 456.977 285.597C458.865 285.597 460.394 284.188 460.394 282.451Z" fill="#EE5C39"/>
<path d="M470.408 276.41C470.408 275.107 469.26 274.05 467.845 274.05C466.43 274.05 465.282 275.107 465.282 276.41C465.282 277.714 466.43 278.77 467.845 278.77C469.26 278.77 470.408 277.714 470.408 276.41Z" fill="#EE5C39"/>
<path d="M480.294 274.431C480.294 273.561 479.528 272.858 478.585 272.858C477.64 272.858 476.876 273.561 476.876 274.431C476.876 275.299 477.64 276.004 478.585 276.004C479.528 276.004 480.294 275.299 480.294 274.431Z" fill="#EE5C39"/>
<path d="M547.003 440.988H440.068C435.309 440.988 431.449 444.54 431.449 448.923V551.323C431.449 573.507 450.984 591.491 475.079 591.491C519.561 591.491 555.622 558.292 555.622 517.34V448.923C555.622 444.54 551.763 440.988 547.003 440.988Z" fill="#43568F"/>
<path d="M431.449 458.292L438.344 452L445.24 458.292L452.135 452L459.036 458.292L465.922 452L472.817 458.292L479.709 452L486.605 458.292L493.5 452L500.399 458.292L507.299 452L514.199 458.292L521.099 452L527.997 458.292L534.896 452L541.798 458.292L548.71 452L555.622 458.292" stroke="#9BAAD9" stroke-width="2.66667" stroke-miterlimit="10"/>
<path d="M493.536 573.006C493.536 573.006 488.456 584.326 493.536 584.326C498.615 584.326 493.536 573.006 493.536 573.006Z" fill="#F2E1C5"/>
<path d="M484.437 569.042C484.437 569.042 476.696 575.926 480.462 577.436C484.23 578.948 484.437 569.042 484.437 569.042Z" fill="#9BAAD9"/>
<path d="M474.249 564.187C474.249 564.187 465.22 569.581 468.603 571.729C471.987 573.876 474.249 564.187 474.249 564.187Z" fill="#9BAAD9"/>
<path d="M466.962 559.116C466.962 559.116 459.216 561.195 461.142 563.408C463.067 565.622 466.962 559.116 466.962 559.116Z" fill="#9BAAD9"/>
<path d="M502.633 569.042C502.633 569.042 510.374 575.926 506.608 577.436C502.842 578.948 502.633 569.042 502.633 569.042Z" fill="#9BAAD9"/>
<path d="M512.824 564.187C512.824 564.187 521.852 569.581 518.47 571.729C515.087 573.876 512.824 564.187 512.824 564.187Z" fill="#9BAAD9"/>
<path d="M520.109 559.116C520.109 559.116 527.855 561.195 525.929 563.408C524.003 565.622 520.109 559.116 520.109 559.116Z" fill="#9BAAD9"/>
<path d="M461.781 554.121C461.781 554.121 445.474 549.392 445.407 553.915C445.339 558.438 461.781 554.121 461.781 554.121Z" fill="#F2E1C5"/>
<path d="M525.294 554.121C525.294 554.121 541.601 549.392 541.667 553.915C541.734 558.438 525.294 554.121 525.294 554.121Z" fill="#F2E1C5"/>
<path d="M506.787 551.958C506.669 552.503 503.282 567.635 493.535 568.057C483.788 567.635 480.402 552.503 480.284 551.958C465.277 550.464 453.592 538.77 453.592 524.558V475.472C453.592 471.852 456.513 468.797 460.41 468.336L472.478 466.909C486.458 465.259 500.613 465.259 514.593 466.909L526.659 468.336C530.558 468.797 533.479 471.852 533.479 475.472V524.558C533.479 538.77 521.794 550.464 506.787 551.958Z" fill="#C2A131"/>
<path d="M508.144 544.295C513.392 540.024 517.657 534.773 520.542 528.993C521.948 526.087 522.961 523.048 523.619 519.955C524.169 516.815 524.298 513.756 524.159 510.489L523.846 491.127L523.834 489.917C523.838 489.686 523.824 489.548 523.816 489.441C523.793 489.321 523.783 489.197 523.735 489.08C523.597 488.607 523.243 488.171 522.775 487.842C522.307 487.515 521.717 487.304 521.105 487.246C520.948 487.223 520.806 487.234 520.629 487.224L519.974 487.229L518.658 487.24L508.144 487.323L506.521 487.337L506.516 485.824L506.492 479.945L506.487 478.474C506.485 478.251 506.492 477.939 506.48 477.785C506.476 477.648 506.453 477.514 506.418 477.381C506.278 476.854 505.866 476.347 505.279 476.018C504.988 475.853 504.66 475.73 504.315 475.656C504.144 475.614 503.966 475.598 503.787 475.581L503.515 475.57L503.115 475.571L499.923 475.581L493.537 475.597L487.152 475.582L483.96 475.573L483.558 475.571L483.288 475.584C483.109 475.6 482.931 475.615 482.758 475.658C482.415 475.732 482.087 475.855 481.796 476.02C481.209 476.349 480.797 476.854 480.657 477.382C480.624 477.514 480.6 477.648 480.597 477.785C480.585 477.939 480.592 478.251 480.588 478.474L480.583 479.945L480.564 485.824L480.559 487.342L478.929 487.328L468.415 487.243L467.101 487.232L466.444 487.227C466.268 487.237 466.127 487.226 465.969 487.251C465.358 487.307 464.77 487.518 464.302 487.846C463.835 488.173 463.481 488.609 463.343 489.082C463.295 489.197 463.285 489.321 463.261 489.442C463.254 489.548 463.241 489.686 463.242 489.917L463.232 491.127L462.921 510.489C462.783 513.756 462.909 516.815 463.458 519.953C464.117 523.046 465.132 526.084 466.537 528.991C469.42 534.771 473.685 540.022 478.929 544.295C473.298 540.43 468.686 535.3 465.354 529.521C463.733 526.609 462.451 523.515 461.643 520.291C460.918 517.08 460.643 513.671 460.643 510.489L460.332 491.127L460.322 489.917C460.315 489.744 460.322 489.48 460.342 489.184C460.378 488.907 460.416 488.626 460.505 488.358C460.814 487.265 461.556 486.332 462.465 485.671C463.381 485.007 464.481 484.603 465.607 484.474C465.882 484.432 466.181 484.433 466.444 484.421L467.101 484.414L468.415 484.405L478.929 484.318L477.295 485.824L477.275 479.945L477.27 478.474L477.275 477.694C477.285 477.341 477.34 476.989 477.429 476.646C477.791 475.26 478.796 474.11 480.016 473.413C480.628 473.059 481.297 472.804 481.986 472.653C482.329 472.571 482.681 472.53 483.034 472.5L483.558 472.477H483.96L487.152 472.467L493.537 472.452L499.923 472.471L503.115 472.478H503.515L504.04 472.502C504.392 472.532 504.744 472.573 505.087 472.655C505.778 472.806 506.446 473.061 507.057 473.414C508.278 474.111 509.281 475.261 509.645 476.646C509.733 476.99 509.788 477.341 509.797 477.694L509.802 478.474L509.797 479.945L509.774 485.824L508.144 484.323L518.658 484.408L519.974 484.419L520.629 484.424C520.892 484.438 521.191 484.436 521.468 484.477C522.592 484.606 523.693 485.011 524.609 485.674C525.516 486.334 526.256 487.267 526.565 488.358C526.656 488.626 526.693 488.907 526.729 489.184C526.751 489.482 526.755 489.744 526.75 489.917L526.738 491.127L526.425 510.489C526.427 513.673 526.15 517.08 525.427 520.29C524.621 523.513 523.337 526.606 521.717 529.52C518.387 535.298 513.775 540.428 508.144 544.295Z" fill="#D9CE55"/>
<path d="M493.537 513.092C493.537 513.092 484.708 554.258 493.537 554.258C502.365 554.258 493.537 513.092 493.537 513.092Z" fill="#D9CE55"/>
<path d="M493.537 513.092C493.537 513.092 484.708 481.542 493.537 481.542C502.365 481.542 493.537 513.092 493.537 513.092Z" fill="#D9CE55"/>
<path d="M493.538 513.092C493.538 513.092 470.753 506.8 470.753 513.092C470.753 519.385 493.538 513.092 493.538 513.092Z" fill="#D9CE55"/>
<path d="M486.097 520.582C486.097 520.582 471.045 528.044 474.519 531.242C477.993 534.439 486.097 520.582 486.097 520.582Z" fill="#F2E1C5"/>
<path d="M500.974 520.582C500.974 520.582 516.026 528.044 512.552 531.242C509.078 534.439 500.974 520.582 500.974 520.582Z" fill="#F2E1C5"/>
<path d="M486.097 505.604C486.097 505.604 471.045 498.142 474.519 494.944C477.993 491.746 486.097 505.604 486.097 505.604Z" fill="#F2E1C5"/>
<path d="M500.974 505.604C500.974 505.604 516.026 498.142 512.552 494.944C509.078 491.746 500.974 505.604 500.974 505.604Z" fill="#F2E1C5"/>
<path d="M493.536 513.092C493.536 513.092 516.319 506.8 516.319 513.092C516.319 519.385 493.536 513.092 493.536 513.092Z" fill="#D9CE55"/>
<path d="M492.635 512.265C506.437 524.97 480.634 524.97 494.434 512.265C480.634 524.97 480.634 501.216 494.434 513.922C480.634 501.216 506.437 501.216 492.635 513.922C506.437 501.216 506.437 524.97 492.635 512.265Z" fill="#1C1C20"/>
<path d="M451.543 566.583C451.543 568.545 449.816 570.135 447.683 570.135C445.552 570.135 443.825 568.545 443.825 566.583C443.825 564.619 445.552 563.029 447.683 563.029C449.816 563.029 451.543 564.619 451.543 566.583Z" fill="#EE5C39"/>
<path d="M460.394 576.964C460.394 578.703 458.865 580.111 456.977 580.111C455.09 580.111 453.559 578.703 453.559 576.964C453.559 575.228 455.09 573.818 456.977 573.818C458.865 573.818 460.394 575.228 460.394 576.964Z" fill="#EE5C39"/>
<path d="M470.408 583.004C470.408 584.308 469.26 585.364 467.845 585.364C466.43 585.364 465.282 584.308 465.282 583.004C465.282 581.701 466.43 580.644 467.845 580.644C469.26 580.644 470.408 581.701 470.408 583.004Z" fill="#EE5C39"/>
<path d="M480.294 584.985C480.294 585.855 479.528 586.558 478.585 586.558C477.64 586.558 476.876 585.855 476.876 584.985C476.876 584.116 477.64 583.411 478.585 583.411C479.528 583.411 480.294 584.116 480.294 584.985Z" fill="#EE5C39"/>
<path d="M366.018 260.058C366.018 260.058 359.094 233.839 348.566 240.655C338.036 247.472 366.018 260.058 366.018 260.058Z" fill="#9BAAD9"/>
<path d="M345.364 255.404C345.364 255.404 328.332 250.685 328.332 255.404C328.332 260.124 345.364 255.404 345.364 255.404Z" fill="#43568F"/>
<path d="M266.715 296.74C266.715 296.74 277.13 283.467 272.286 281.924C267.441 280.381 266.715 296.74 266.715 296.74Z" fill="#43568F"/>
<path d="M322.15 249.791C317.44 249.565 312.716 250.106 308.107 251.031C303.479 251.929 298.984 253.364 294.642 255.109C292.466 255.977 290.387 257.036 288.295 258.06L285.284 259.809C284.789 260.107 284.278 260.384 283.792 260.697L282.376 261.689C278.516 264.217 275.161 267.369 272.246 270.743C276.156 268.308 279.842 265.803 283.852 263.733C287.796 261.598 291.837 259.641 296.031 257.981C300.185 256.246 304.459 254.739 308.813 253.389C313.173 252.049 317.598 250.861 322.15 249.791Z" fill="#1C1C20"/>
<path d="M311.968 260.267C311.968 258.993 313.089 257.962 314.471 257.962C315.856 257.962 316.977 258.993 316.977 260.267C316.977 261.54 315.856 262.572 314.471 262.572C313.089 262.572 311.968 261.54 311.968 260.267Z" fill="#F2E1C5"/>
<path d="M300.382 263.791C300.382 262.518 301.503 261.485 302.887 261.485C304.269 261.485 305.39 262.518 305.39 263.791C305.39 265.064 304.269 266.096 302.887 266.096C301.503 266.096 300.382 265.064 300.382 263.791Z" fill="#F2E1C5"/>
<path d="M289.939 268.402C289.939 267.13 291.06 266.096 292.442 266.096C293.826 266.096 294.947 267.13 294.947 268.402C294.947 269.675 293.826 270.707 292.442 270.707C291.06 270.707 289.939 269.675 289.939 268.402Z" fill="#F2E1C5"/>
<path d="M280.649 274.105C280.649 272.832 281.77 271.799 283.152 271.799C284.535 271.799 285.656 272.832 285.656 274.105C285.656 275.378 284.535 276.41 283.152 276.41C281.77 276.41 280.649 275.378 280.649 274.105Z" fill="#F2E1C5"/>
<path d="M253.807 323.466C253.807 323.466 258.954 357.579 250.429 358.124C241.907 358.67 253.807 323.466 253.807 323.466Z" fill="#9BAAD9"/>
<path d="M248.061 367.152C248.061 367.152 255.466 386.817 248.061 386.817C240.655 386.817 248.061 367.152 248.061 367.152Z" fill="#43568F"/>
<path d="M256.799 310.125C241.548 310.125 255.804 296.999 255.804 311.041C255.804 296.999 270.061 310.125 254.81 310.125C270.061 310.125 255.804 323.251 255.804 309.21C255.804 323.251 241.548 310.125 256.799 310.125Z" fill="#1C1C20"/>
<path d="M249.055 401.795C233.802 401.795 248.06 388.669 248.06 402.71C248.06 388.669 262.317 401.795 247.066 401.795C262.317 401.795 248.06 414.921 248.06 400.879C248.06 414.921 233.802 401.795 249.055 401.795Z" fill="#1C1C20"/>
<path d="M272.607 418.428H379.543C384.302 418.428 388.161 414.875 388.161 410.492V308.092C388.161 285.909 368.627 267.924 344.53 267.924C300.048 267.924 263.989 301.123 263.989 342.075V410.492C263.989 414.875 267.848 418.428 272.607 418.428Z" fill="#43568F"/>
<path d="M388.161 401.122L381.266 407.415L374.369 401.122L367.474 407.415L360.577 401.122L353.689 407.415L346.794 401.122L339.903 407.415L333.004 401.122L326.111 407.415L319.212 401.122L312.312 407.415L305.412 401.122L298.512 407.415L291.614 401.122L284.714 407.415L277.813 401.122L270.901 407.415L263.989 401.122" stroke="#9BAAD9" stroke-width="2.66667" stroke-miterlimit="10"/>
<path d="M326.075 286.409C326.075 286.409 331.153 275.09 326.075 275.09C320.996 275.09 326.075 286.409 326.075 286.409Z" fill="#F2E1C5"/>
<path d="M335.175 290.373C335.175 290.373 342.915 283.489 339.149 281.977C335.383 280.465 335.175 290.373 335.175 290.373Z" fill="#9BAAD9"/>
<path d="M345.362 295.227C345.362 295.227 354.39 289.832 351.006 287.686C347.623 285.539 345.362 295.227 345.362 295.227Z" fill="#9BAAD9"/>
<path d="M352.646 300.299C352.646 300.299 360.392 298.221 358.468 296.007C356.543 293.794 352.646 300.299 352.646 300.299Z" fill="#9BAAD9"/>
<path d="M316.977 290.373C316.977 290.373 309.234 283.489 313.002 281.977C316.768 280.465 316.977 290.373 316.977 290.373Z" fill="#9BAAD9"/>
<path d="M306.786 295.227C306.786 295.227 297.757 289.832 301.14 287.686C304.524 285.539 306.786 295.227 306.786 295.227Z" fill="#9BAAD9"/>
<path d="M299.502 300.299C299.502 300.299 291.756 298.221 293.68 296.007C295.606 293.794 299.502 300.299 299.502 300.299Z" fill="#9BAAD9"/>
<path d="M357.831 305.293C357.831 305.293 374.138 310.023 374.206 305.5C374.273 300.977 357.831 305.293 357.831 305.293Z" fill="#F2E1C5"/>
<path d="M294.32 305.293C294.32 305.293 278.013 310.023 277.945 305.5C277.877 300.977 294.32 305.293 294.32 305.293Z" fill="#F2E1C5"/>
<path d="M312.823 307.457C312.941 306.913 316.328 291.78 326.075 291.358C335.823 291.78 339.209 306.913 339.326 307.457C354.333 308.952 366.018 320.645 366.018 334.858V383.943C366.018 387.563 363.098 390.618 359.198 391.079L347.134 392.505C333.153 394.156 318.999 394.156 305.017 392.505L292.951 391.079C289.052 390.618 286.132 387.563 286.132 383.943V334.858C286.132 320.645 297.816 308.952 312.823 307.457Z" fill="#C2A131"/>
<path d="M311.468 315.12C306.221 319.391 301.955 324.643 299.073 330.423C297.665 333.33 296.651 336.368 295.993 339.461C295.443 342.601 295.315 345.659 295.453 348.928L295.766 368.288L295.778 369.498C295.775 369.728 295.788 369.868 295.797 369.975C295.819 370.094 295.829 370.218 295.877 370.335C296.017 370.808 296.369 371.244 296.836 371.573C297.306 371.9 297.894 372.111 298.507 372.169C298.664 372.193 298.806 372.182 298.982 372.191L299.64 372.187L300.954 372.175L311.468 372.091L313.092 372.078L313.098 373.591L313.119 379.47L313.124 380.94C313.128 381.165 313.121 381.476 313.133 381.629C313.136 381.767 313.16 381.901 313.194 382.035C313.333 382.562 313.746 383.067 314.332 383.397C314.624 383.562 314.953 383.685 315.298 383.759C315.469 383.801 315.648 383.817 315.826 383.833L316.097 383.846L316.497 383.844L319.689 383.835L326.075 383.819L332.461 383.833L335.655 383.842H336.053L336.324 383.831C336.504 383.816 336.682 383.8 336.852 383.757C337.198 383.684 337.526 383.561 337.816 383.396C338.404 383.065 338.816 382.562 338.956 382.033C338.988 381.901 339.012 381.766 339.016 381.629C339.029 381.476 339.021 381.165 339.024 380.94L339.029 379.47L339.048 373.591L339.053 372.073L340.684 372.086L351.198 372.172L352.512 372.183L353.168 372.188C353.344 372.179 353.486 372.188 353.643 372.164C354.255 372.108 354.843 371.897 355.313 371.57C355.777 371.243 356.131 370.807 356.269 370.333C356.317 370.217 356.328 370.094 356.35 369.973C356.358 369.868 356.372 369.728 356.37 369.498L356.381 368.288L356.692 348.928C356.832 345.659 356.704 342.601 356.155 339.461C355.495 336.369 354.48 333.331 353.076 330.424C350.193 324.644 345.928 319.393 340.682 315.12C346.314 318.985 350.926 324.116 354.26 329.892C355.882 332.808 357.161 335.902 357.97 339.124C358.693 342.335 358.969 345.742 358.969 348.928L359.28 368.288L359.291 369.498C359.297 369.671 359.292 369.934 359.27 370.231C359.234 370.508 359.197 370.789 359.108 371.057C358.799 372.15 358.057 373.083 357.148 373.744C356.232 374.408 355.131 374.812 354.005 374.941C353.728 374.984 353.429 374.982 353.168 374.995L352.512 375.001L351.198 375.01L340.684 375.097L342.317 373.591L342.336 379.47L342.341 380.94L342.336 381.722C342.327 382.074 342.273 382.427 342.184 382.769C341.82 384.155 340.817 385.305 339.597 386.002C338.985 386.356 338.317 386.61 337.627 386.762C337.281 386.844 336.931 386.885 336.579 386.915L336.053 386.937L335.655 386.938L332.461 386.948L326.075 386.964L319.689 386.945L316.497 386.937L316.097 386.935L315.573 386.913C315.221 386.883 314.869 386.842 314.525 386.761C313.835 386.608 313.167 386.355 312.555 386.001C311.335 385.304 310.332 384.154 309.968 382.769C309.879 382.425 309.824 382.074 309.816 381.722L309.811 380.94L309.816 379.47L309.838 373.591L311.468 375.092L300.954 375.007L299.64 374.996L298.982 374.992C298.721 374.977 298.422 374.979 298.147 374.936C297.02 374.809 295.92 374.405 295.006 373.741C294.097 373.082 293.355 372.149 293.047 371.057C292.957 370.789 292.919 370.508 292.885 370.231C292.861 369.934 292.858 369.671 292.863 369.498L292.875 368.288L293.186 348.928C293.186 345.742 293.463 342.335 294.184 339.126C294.992 335.902 296.275 332.809 297.895 329.894C301.226 324.117 305.839 318.987 311.468 315.12Z" fill="#D9CE55"/>
<path d="M326.074 346.323C326.074 346.323 334.904 305.157 326.074 305.157C317.245 305.157 326.074 346.323 326.074 346.323Z" fill="#D9CE55"/>
<path d="M326.074 346.323C326.074 346.323 334.904 377.874 326.074 377.874C317.245 377.874 326.074 346.323 326.074 346.323Z" fill="#D9CE55"/>
<path d="M326.075 346.323C326.075 346.323 348.858 352.616 348.858 346.323C348.858 340.03 326.075 346.323 326.075 346.323Z" fill="#D9CE55"/>
<path d="M333.513 338.835C333.513 338.835 348.565 331.371 345.092 328.173C341.618 324.975 333.513 338.835 333.513 338.835Z" fill="#F2E1C5"/>
<path d="M318.635 338.835C318.635 338.835 303.583 331.371 307.057 328.173C310.531 324.975 318.635 338.835 318.635 338.835Z" fill="#F2E1C5"/>
<path d="M333.513 353.81C333.513 353.81 348.565 361.273 345.092 364.471C341.618 367.67 333.513 353.81 333.513 353.81Z" fill="#F2E1C5"/>
<path d="M318.635 353.81C318.635 353.81 303.583 361.273 307.057 364.471C310.531 367.67 318.635 353.81 318.635 353.81Z" fill="#F2E1C5"/>
<path d="M326.074 346.323C326.074 346.323 303.291 352.616 303.291 346.323C303.291 340.03 326.074 346.323 326.074 346.323Z" fill="#D9CE55"/>
<path d="M326.976 347.15C313.176 334.445 338.977 334.445 325.177 347.15C338.977 334.445 338.977 358.199 325.177 345.494C338.977 358.199 313.176 358.199 326.976 345.494C313.176 358.199 313.176 334.445 326.976 347.15Z" fill="#1C1C20"/>
<path d="M368.068 292.834C368.068 290.871 369.795 289.281 371.926 289.281C374.059 289.281 375.786 290.871 375.786 292.834C375.786 294.796 374.059 296.387 371.926 296.387C369.795 296.387 368.068 294.796 368.068 292.834Z" fill="#EE5C39"/>
<path d="M359.215 282.451C359.215 280.713 360.746 279.305 362.633 279.305C364.521 279.305 366.051 280.713 366.051 282.451C366.051 284.188 364.521 285.597 362.633 285.597C360.746 285.597 359.215 284.188 359.215 282.451Z" fill="#EE5C39"/>
<path d="M349.202 276.41C349.202 275.107 350.35 274.05 351.765 274.05C353.182 274.05 354.328 275.107 354.328 276.41C354.328 277.714 353.182 278.77 351.765 278.77C350.35 278.77 349.202 277.714 349.202 276.41Z" fill="#EE5C39"/>
<path d="M339.317 274.431C339.317 273.561 340.083 272.858 341.026 272.858C341.969 272.858 342.735 273.561 342.735 274.431C342.735 275.299 341.969 276.004 341.026 276.004C340.083 276.004 339.317 275.299 339.317 274.431Z" fill="#EE5C39"/>
<path d="M272.607 440.988H379.543C384.302 440.988 388.161 444.54 388.161 448.923V551.323C388.161 573.507 368.627 591.491 344.53 591.491C300.048 591.491 263.989 558.292 263.989 517.34V448.923C263.989 444.54 267.848 440.988 272.607 440.988Z" fill="#43568F"/>
<path d="M388.161 458.292L381.266 452L374.369 458.292L367.474 452L360.577 458.292L353.689 452L346.794 458.292L339.903 452L333.004 458.292L326.111 452L319.212 458.292L312.312 452L305.412 458.292L298.512 452L291.614 458.292L284.714 452L277.813 458.292L270.901 452L263.989 458.292" stroke="#9BAAD9" stroke-width="2.66667" stroke-miterlimit="10"/>
<path d="M326.075 573.006C326.075 573.006 331.153 584.326 326.075 584.326C320.996 584.326 326.075 573.006 326.075 573.006Z" fill="#F2E1C5"/>
<path d="M335.175 569.042C335.175 569.042 342.915 575.926 339.149 577.436C335.383 578.948 335.175 569.042 335.175 569.042Z" fill="#9BAAD9"/>
<path d="M345.362 564.187C345.362 564.187 354.39 569.581 351.006 571.729C347.623 573.876 345.362 564.187 345.362 564.187Z" fill="#9BAAD9"/>
<path d="M352.646 559.116C352.646 559.116 360.392 561.195 358.468 563.408C356.543 565.622 352.646 559.116 352.646 559.116Z" fill="#9BAAD9"/>
<path d="M316.977 569.042C316.977 569.042 309.234 575.926 313.002 577.436C316.768 578.948 316.977 569.042 316.977 569.042Z" fill="#9BAAD9"/>
<path d="M306.786 564.187C306.786 564.187 297.757 569.581 301.14 571.729C304.524 573.876 306.786 564.187 306.786 564.187Z" fill="#9BAAD9"/>
<path d="M299.502 559.116C299.502 559.116 291.756 561.195 293.68 563.408C295.606 565.622 299.502 559.116 299.502 559.116Z" fill="#9BAAD9"/>
<path d="M357.831 554.121C357.831 554.121 374.138 549.392 374.206 553.915C374.273 558.438 357.831 554.121 357.831 554.121Z" fill="#F2E1C5"/>
<path d="M294.32 554.121C294.32 554.121 278.013 549.392 277.945 553.915C277.877 558.438 294.32 554.121 294.32 554.121Z" fill="#F2E1C5"/>
<path d="M312.823 551.958C312.941 552.503 316.328 567.635 326.075 568.057C335.823 567.635 339.209 552.503 339.326 551.958C354.333 550.464 366.018 538.77 366.018 524.558V475.472C366.018 471.852 363.098 468.797 359.198 468.336L347.134 466.909C333.153 465.259 318.999 465.259 305.017 466.909L292.951 468.336C289.052 468.797 286.132 471.852 286.132 475.472V524.558C286.132 538.77 297.816 550.464 312.823 551.958Z" fill="#C2A131"/>
<path d="M311.468 544.295C305.839 540.428 301.226 535.298 297.895 529.52C296.275 526.606 294.992 523.513 294.184 520.29C293.463 517.08 293.186 513.673 293.186 510.489L292.875 491.127L292.863 489.917C292.858 489.744 292.861 489.482 292.885 489.184C292.919 488.907 292.957 488.626 293.047 488.358C293.355 487.267 294.097 486.334 295.006 485.674C295.92 485.011 297.02 484.606 298.147 484.477C298.422 484.436 298.721 484.438 298.982 484.424L299.64 484.419L300.954 484.408L311.468 484.323L309.838 485.824L309.816 479.945L309.811 478.474L309.816 477.694C309.824 477.341 309.879 476.99 309.968 476.646C310.332 475.261 311.335 474.111 312.555 473.414C313.167 473.061 313.835 472.806 314.525 472.655C314.869 472.573 315.221 472.532 315.573 472.502L316.097 472.478H316.497L319.689 472.471L326.075 472.452L332.461 472.467L335.655 472.477H336.053L336.579 472.5C336.931 472.53 337.281 472.571 337.627 472.653C338.317 472.804 338.985 473.059 339.597 473.413C340.817 474.11 341.82 475.26 342.184 476.646C342.273 476.989 342.327 477.341 342.336 477.694L342.341 478.474L342.336 479.945L342.317 485.824L340.684 484.318L351.198 484.405L352.512 484.414L353.168 484.421C353.429 484.433 353.728 484.432 354.005 484.474C355.131 484.603 356.232 485.007 357.148 485.671C358.057 486.332 358.799 487.265 359.108 488.358C359.197 488.626 359.234 488.907 359.27 489.184C359.292 489.48 359.297 489.744 359.291 489.917L359.28 491.127L358.969 510.489C358.969 513.671 358.693 517.08 357.97 520.291C357.161 523.515 355.882 526.609 354.26 529.521C350.926 535.3 346.314 540.43 340.682 544.295C345.928 540.022 350.193 534.771 353.076 528.991C354.48 526.084 355.495 523.046 356.155 519.953C356.704 516.815 356.832 513.756 356.692 510.489L356.381 491.127L356.37 489.917C356.372 489.686 356.358 489.548 356.35 489.442C356.328 489.321 356.317 489.197 356.269 489.082C356.131 488.609 355.777 488.173 355.313 487.846C354.843 487.518 354.255 487.307 353.643 487.251C353.486 487.226 353.344 487.237 353.168 487.227L352.512 487.232L351.198 487.243L340.684 487.328L339.053 487.342L339.048 485.824L339.029 479.945L339.024 478.474C339.021 478.251 339.029 477.939 339.016 477.785C339.012 477.648 338.988 477.514 338.956 477.382C338.816 476.854 338.404 476.349 337.816 476.02C337.526 475.855 337.198 475.732 336.852 475.658C336.682 475.615 336.504 475.6 336.324 475.584L336.053 475.571L335.655 475.573L332.461 475.582L326.075 475.597L319.689 475.581L316.497 475.571L316.097 475.57L315.826 475.581C315.648 475.598 315.469 475.614 315.298 475.656C314.953 475.73 314.624 475.853 314.332 476.018C313.746 476.347 313.333 476.854 313.194 477.381C313.16 477.514 313.136 477.648 313.133 477.785C313.121 477.939 313.128 478.251 313.124 478.474L313.119 479.945L313.098 485.824L313.092 487.337L311.468 487.323L300.954 487.24L299.64 487.229L298.982 487.224C298.806 487.234 298.664 487.223 298.507 487.246C297.894 487.304 297.306 487.515 296.836 487.842C296.369 488.171 296.017 488.607 295.877 489.08C295.829 489.197 295.819 489.321 295.797 489.441C295.788 489.548 295.775 489.686 295.778 489.917L295.766 491.127L295.453 510.489C295.315 513.756 295.443 516.815 295.993 519.955C296.651 523.048 297.665 526.087 299.073 528.993C301.955 534.773 306.221 540.024 311.468 544.295Z" fill="#D9CE55"/>
<path d="M326.074 513.092C326.074 513.092 334.904 554.258 326.074 554.258C317.245 554.258 326.074 513.092 326.074 513.092Z" fill="#D9CE55"/>
<path d="M326.074 513.092C326.074 513.092 334.904 481.542 326.074 481.542C317.245 481.542 326.074 513.092 326.074 513.092Z" fill="#D9CE55"/>
<path d="M326.075 513.092C326.075 513.092 348.858 506.8 348.858 513.092C348.858 519.385 326.075 513.092 326.075 513.092Z" fill="#D9CE55"/>
<path d="M333.513 520.582C333.513 520.582 348.565 528.044 345.092 531.242C341.618 534.439 333.513 520.582 333.513 520.582Z" fill="#F2E1C5"/>
<path d="M318.635 520.582C318.635 520.582 303.583 528.044 307.057 531.242C310.531 534.439 318.635 520.582 318.635 520.582Z" fill="#F2E1C5"/>
<path d="M333.513 505.604C333.513 505.604 348.565 498.142 345.092 494.944C341.618 491.746 333.513 505.604 333.513 505.604Z" fill="#F2E1C5"/>
<path d="M318.635 505.604C318.635 505.604 303.583 498.142 307.057 494.944C310.531 491.746 318.635 505.604 318.635 505.604Z" fill="#F2E1C5"/>
<path d="M326.074 513.092C326.074 513.092 303.291 506.8 303.291 513.092C303.291 519.385 326.074 513.092 326.074 513.092Z" fill="#D9CE55"/>
<path d="M326.976 512.265C313.176 524.97 338.977 524.97 325.177 512.265C338.977 524.97 338.977 501.216 325.177 513.922C338.977 501.216 313.176 501.216 326.976 513.922C313.176 501.216 313.176 524.97 326.976 512.265Z" fill="#1C1C20"/>
<path d="M368.068 566.583C368.068 568.545 369.795 570.135 371.926 570.135C374.059 570.135 375.786 568.545 375.786 566.583C375.786 564.619 374.059 563.029 371.926 563.029C369.795 563.029 368.068 564.619 368.068 566.583Z" fill="#EE5C39"/>
<path d="M359.215 576.964C359.215 578.703 360.746 580.111 362.633 580.111C364.521 580.111 366.051 578.703 366.051 576.964C366.051 575.228 364.521 573.818 362.633 573.818C360.746 573.818 359.215 575.228 359.215 576.964Z" fill="#EE5C39"/>
<path d="M349.202 583.004C349.202 584.308 350.35 585.364 351.765 585.364C353.182 585.364 354.328 584.308 354.328 583.004C354.328 581.701 353.182 580.644 351.765 580.644C350.35 580.644 349.202 581.701 349.202 583.004Z" fill="#EE5C39"/>
<path d="M339.317 584.985C339.317 585.855 340.083 586.558 341.026 586.558C341.969 586.558 342.735 585.855 342.735 584.985C342.735 584.116 341.969 583.411 341.026 583.411C340.083 583.411 339.317 584.116 339.317 584.985Z" fill="#EE5C39"/>
<path d="M924.592 623.5H-181.509V663.049H924.592V623.5Z" fill="#3E1F0D"/>
<path d="M-22.2703 837.983C-17.3929 835.329 -4.45275 811.731 0.184993 811.207C4.82147 810.681 -11.5443 870.463 -8.20276 868.366C-4.86127 866.269 3.68273 853.683 7.66901 853.683C11.6567 853.683 7.66901 880.952 7.66901 880.952C7.66901 880.952 18.7061 846.862 23.7257 846.077C28.7446 845.292 30.6303 901.404 30.6303 901.404H-31.6333L-22.2703 837.983Z" fill="#043F22"/>
<path d="M542.421 794.598C542.421 794.598 534.976 799.735 533.267 801.505" stroke="#1C1C20" stroke-width="1.33333" stroke-miterlimit="10" stroke-linecap="round" stroke-linejoin="round"/>
<path d="M706.069 829.44C706.069 829.44 830.642 876.388 841.322 881.323" stroke="#043F22" stroke-width="1.33333" stroke-miterlimit="10" stroke-linecap="round" stroke-linejoin="round"/>
<path d="M741.738 877.053L805.351 892.927" stroke="#043F22" stroke-width="1.33333" stroke-miterlimit="10" stroke-linecap="round" stroke-linejoin="round"/>
<path d="M26.7545 842.577C26.7545 842.577 14.034 761.778 92.0366 752.032C92.0366 752.032 98.5935 803.351 26.7545 842.577Z" fill="#626129"/>
<path d="M-62.1808 878.826C-62.1808 878.826 -82.1471 827.538 -77.4878 771.076C-77.4878 771.076 -31.5651 842.062 -31.5651 854.93C-31.5651 854.93 3.04258 771.571 44.3071 753.508C44.3071 753.508 40.4037 822.454 19.7265 850.641C19.7265 850.641 53.3598 785.532 114.267 771.076C114.267 771.076 74.9215 850.641 64.9383 857.38C64.9383 857.38 78.4157 848.188 89.3153 847.577C89.3153 847.577 70.9282 879.438 70.9282 882.503C70.9282 885.567 -56.1511 882.503 -56.1511 882.503L-62.1808 878.826Z" fill="#043F22"/>
<path d="M-6.32608 778.839C-6.32608 778.839 -13.7394 749.801 4.80119 744.827C4.80119 744.827 17.8971 762.789 -6.32608 778.839Z" fill="#626129"/>
<path d="M-60.9053 679.563C-60.9053 679.563 -5.45187 675.666 7.56561 716.502C7.56561 716.502 -46.5413 721.79 -60.9053 679.563Z" fill="#626129"/>
<path d="M-46.7909 624.694C-46.7909 624.694 -45.7925 656.554 -29.0707 663.258C-29.0707 663.258 -26.8245 663.122 -25.327 659.648C-23.8295 656.173 -12.5984 642.183 -11.6001 619.766C-11.6001 619.766 0.775025 625.154 7.56559 625.843C14.3561 626.532 16.3528 627.452 15.3545 625.384C14.3562 623.316 8.11666 599.327 -12.0993 598.454C-12.0993 598.454 -12.5984 585.173 -10.8514 581.726C-9.10433 578.279 -14.1848 574.833 -22.251 575.522C-30.3186 576.211 -44.1064 584.483 -44.1064 584.483C-44.1064 584.483 -50.1143 566.101 -75.4067 559.438C-75.4067 559.438 -79.4858 558.749 -79.9849 561.965C-80.4841 565.182 -80.4841 591.555 -63.2631 602.035C-63.2631 602.035 -77.0096 606.312 -80.1199 623.775C-83.2295 641.238 -77.0689 648.821 -75.4067 647.672C-73.7455 646.523 -71.4992 645.245 -62.0152 639.22C-52.5312 633.196 -46.7909 624.694 -46.7909 624.694Z" fill="#F2E1C5"/>
<path d="M54.3576 735.871C54.3576 735.871 38.2148 696.682 52.2771 666.91C52.2771 666.91 86.3816 700.831 54.3576 735.871Z" fill="#626129"/>
<path d="M38.8162 641.942C38.8162 641.942 13.1395 634.905 -0.477783 639.22C-0.477783 639.22 15.3558 661.839 35.3221 663.258C35.3221 663.258 17.4961 681.032 25.4108 713.983C25.4108 713.983 47.8011 698.682 52.2935 673.866C52.2935 673.866 60.7793 705.116 84.2397 706.494C84.2397 706.494 86.7355 679.84 75.2549 666.513C75.2549 666.513 106.203 673.629 119.181 656.425C119.181 656.425 94.7221 641.578 76.2532 643.705C76.2532 643.705 85.2381 618.766 84.7389 607.255C84.7389 607.255 63.6225 620.556 58.4572 629.887C58.4572 629.887 55.8276 602.024 31.5984 596.355C31.5984 596.355 25.3389 625.643 38.8162 641.942Z" fill="#F2E1C5"/>
<path d="M38.8155 641.942C38.8155 641.942 26.9794 640.089 25.4101 649.05C23.8407 658.012 35.3214 663.258 35.3214 663.258C35.3214 663.258 27.3348 673.636 36.5693 678.462C45.8037 683.287 52.2928 673.866 52.2928 673.866C52.2928 673.866 56.9729 683.976 68.7651 679.837C80.5572 675.699 75.2541 666.513 75.2541 666.513C75.2541 666.513 85.1555 663.55 85.7365 654.105C86.3175 644.661 76.2525 643.705 76.2525 643.705C76.2525 643.705 75.931 635.536 67.7667 631.817C59.6025 628.098 58.4564 629.887 58.4564 629.887C58.4564 629.887 54.539 626.532 46.0533 632.047C37.5676 637.562 38.8155 641.942 38.8155 641.942Z" fill="#D9CE55"/>
<path d="M54.5396 662.464C54.5396 663.368 53.5053 664.102 52.2314 664.102C50.9556 664.102 49.9233 663.368 49.9233 662.464C49.9233 661.559 50.9556 660.826 52.2314 660.826C53.5053 660.826 54.5396 661.559 54.5396 662.464Z" fill="#8C7417"/>
<path d="M62.652 663.741C62.652 664.447 61.7296 665.021 60.5915 665.021C59.4554 665.021 58.533 664.447 58.533 663.741C58.533 663.035 59.4554 662.464 60.5915 662.464C61.7296 662.464 62.652 663.035 62.652 663.741Z" fill="#8C7417"/>
<path d="M67.1441 652.767C67.1441 653.552 66.4533 654.188 65.6007 654.188C64.7482 654.188 64.0593 653.552 64.0593 652.767C64.0593 651.984 64.7482 651.348 65.6007 651.348C66.4533 651.348 67.1441 651.984 67.1441 652.767Z" fill="#8C7417"/>
<path d="M54.5397 656.403C54.5397 656.403 51.0456 649.74 47.6772 645.374" stroke="#1C1C20" stroke-miterlimit="10" stroke-linecap="round" stroke-linejoin="round"/>
<path d="M57.0352 656.403C57.0352 656.059 56.2864 648.361 56.0369 645.374" stroke="#1C1C20" stroke-miterlimit="10" stroke-linecap="round" stroke-linejoin="round"/>
<path d="M58.533 657.552C58.533 657.552 65.6011 655.561 68.7657 664.102" stroke="#1C1C20" stroke-miterlimit="10" stroke-linecap="round" stroke-linejoin="round"/>
<path d="M48.7279 643.863C48.7279 644.924 47.7935 645.784 46.6414 645.784C45.4893 645.784 44.5549 644.924 44.5549 643.863C44.5549 642.802 45.4893 641.942 46.6414 641.942C47.7935 641.942 48.7279 642.802 48.7279 643.863Z" fill="#1C1C20"/>
<path d="M58.5327 644.857C58.5327 645.841 57.4985 646.639 56.2246 646.639C54.9488 646.639 53.9165 645.841 53.9165 644.857C53.9165 643.874 54.9488 643.076 56.2246 643.076C57.4985 643.076 58.5327 643.874 58.5327 644.857Z" fill="#1C1C20"/>
<path d="M72.4668 665.71C72.4668 667.063 71.2748 668.16 69.8053 668.16C68.3358 668.16 67.1438 667.063 67.1438 665.71C67.1438 664.353 68.3358 663.258 69.8053 663.258C71.2748 663.258 72.4668 664.353 72.4668 665.71Z" fill="#1C1C20"/>
<path d="M50.3796 658.164C50.3796 658.164 58.9472 652.804 59.6959 660.309" stroke="#1C1C20" stroke-miterlimit="10" stroke-linecap="round" stroke-linejoin="round"/>
<path d="M810.259 822.089C810.259 822.089 822.048 741.291 749.761 731.544C749.761 731.544 743.684 782.863 810.259 822.089Z" fill="#626129"/>
<path d="M892.678 858.338C892.678 858.338 911.181 807.05 906.864 750.588C906.864 750.588 864.306 821.574 864.306 834.442C864.306 834.442 832.234 751.083 793.993 733.02C793.993 733.02 797.61 801.966 816.773 830.153C816.773 830.153 785.604 765.044 729.159 750.588C729.159 750.588 765.622 830.153 774.874 836.892C774.874 836.892 762.384 827.701 752.283 827.089C752.283 827.089 769.323 858.95 769.323 862.015C769.323 865.079 887.09 862.015 887.09 862.015L892.678 858.338Z" fill="#043F22"/>
<path d="M784.679 715.383C784.679 715.383 799.639 676.194 786.607 646.423C786.607 646.423 755.002 680.343 784.679 715.383Z" fill="#626129"/>
<path d="M799.082 621.454C799.082 621.454 822.877 614.418 835.496 618.732C835.496 618.732 820.823 641.351 802.32 642.77C802.32 642.77 818.839 660.544 811.505 693.495C811.505 693.495 790.755 678.194 786.592 653.378C786.592 653.378 778.728 684.628 756.986 686.007C756.986 686.007 754.674 659.353 765.313 646.026C765.313 646.026 736.633 653.141 724.606 635.938C724.606 635.938 747.272 621.09 764.388 623.217C764.388 623.217 756.061 598.278 756.524 586.767C756.524 586.767 776.093 600.069 780.88 609.399C780.88 609.399 783.317 581.536 805.771 575.867C805.771 575.867 811.571 605.155 799.082 621.454Z" fill="#F2E1C5"/>
<path d="M799.082 621.454C799.082 621.454 810.051 619.601 811.506 628.563C812.96 637.524 802.32 642.77 802.32 642.77C802.32 642.77 809.722 653.149 801.164 657.974C792.606 662.799 786.593 653.378 786.593 653.378C786.593 653.378 782.255 663.488 771.327 659.349C760.399 655.211 765.314 646.025 765.314 646.025C765.314 646.025 756.138 643.062 755.599 633.618C755.061 624.173 764.389 623.217 764.389 623.217C764.389 623.217 764.686 615.048 772.252 611.329C779.819 607.611 780.881 609.399 780.881 609.399C780.881 609.399 784.511 606.044 792.375 611.559C800.239 617.074 799.082 621.454 799.082 621.454Z" fill="#D9CE55"/>
<path d="M767.897 645.222C767.897 646.575 769.001 647.673 770.363 647.673C771.725 647.673 772.83 646.575 772.83 645.222C772.83 643.866 771.725 642.77 770.363 642.77C769.001 642.77 767.897 643.866 767.897 645.222Z" fill="#1C1C20"/>
<path d="M430.037 817.684C430.037 817.684 391.899 793.787 404.811 773.567C404.811 773.567 400.928 677.225 420.806 669.331L473.629 654.083C473.629 654.083 488.604 620.47 509.569 619.354C530.534 618.238 557.245 623.453 557.245 623.453L602.139 649.488C602.139 649.488 659.596 656.841 667.441 655.921C675.29 655.002 728.534 647.649 737.85 654.083C747.169 660.517 768.86 675.834 769.994 693.452L807.068 731.097C807.068 731.097 849.001 775.711 859.314 783.983C859.314 783.983 860.318 772.648 868.634 771.728C876.95 770.809 892.923 801.14 892.923 801.14C892.923 801.14 888.223 787.353 896.062 791.949C903.905 796.544 907.183 825.648 907.183 825.648H430.037V817.684Z" fill="#043F22"/>
<path d="M422.163 780.866C422.163 780.866 414.282 752.067 385.665 752.679C357.047 753.293 331.755 765.543 366.032 784.539C400.306 803.537 417.397 796.796 422.163 780.866Z" fill="#626129"/>
<path d="M350.015 764.979C350.015 764.979 394.771 758.808 422.165 787.605" stroke="#043F22" stroke-width="1.33333" stroke-miterlimit="10" stroke-linecap="round" stroke-linejoin="round"/>
<path d="M543.013 797.923C543.013 797.923 587.937 808.952 591.432 796.085C594.926 783.217 563.351 754.016 527.345 768.572L515.559 784.057L532.403 793.787L543.013 797.923Z" fill="#626129"/>
<path d="M446.675 772.256L452.166 797.463C387.774 832.389 380.121 806.042 406.077 782.758C432.034 759.473 444.013 769.53 444.013 769.53L446.675 772.256Z" fill="#8C7417"/>
<path d="M473.983 678.006C473.983 678.006 437.649 685.384 421.675 705.514C405.702 725.645 391.179 744.53 415.079 754.082C438.98 763.635 468.265 714.003 470.927 701.136C473.588 688.268 473.983 678.006 473.983 678.006Z" fill="#626129"/>
<path d="M411.334 756.809C411.334 756.809 432.449 698.378 473.983 678.006" stroke="#043F22" stroke-width="1.33333" stroke-miterlimit="10" stroke-linecap="round" stroke-linejoin="round"/>
<path d="M456.658 662.248C456.658 662.248 398.755 628.694 383.447 663.14C368.141 697.588 442.995 681.105 449.827 671.677C456.658 662.248 456.658 662.248 456.658 662.248Z" fill="#C2A131"/>
<path d="M456.659 662.248C404.082 656.322 382.224 666.388 382.224 666.388" stroke="#D9CE55" stroke-width="1.33333" stroke-miterlimit="10" stroke-linecap="round" stroke-linejoin="round"/>
<path d="M485.942 683.993C486.032 685.331 487.938 740.547 509.568 732.854C531.198 725.161 505.241 676.142 501.248 674.303C497.255 672.465 485.363 675.456 485.942 683.993Z" fill="#C2A131"/>
<path d="M511.292 732.096C511.292 732.096 508.934 697.025 491.281 675.555" stroke="#D9CE55" stroke-width="1.33333" stroke-miterlimit="10" stroke-linecap="round" stroke-linejoin="round"/>
<path d="M509.569 659.598C509.569 659.598 509.903 596.235 467.973 609.534C426.044 622.834 509.569 659.598 509.569 659.598Z" fill="#626129"/>
<path d="M466.701 609.964C466.701 609.964 513.039 638.185 509.569 659.598" stroke="#043F22" stroke-width="1.33333" stroke-miterlimit="10" stroke-linecap="round" stroke-linejoin="round"/>
<path d="M555.492 693.452C555.492 693.452 538.484 677.438 527.345 691.459C516.206 705.483 533.862 719.951 533.862 719.951C533.862 719.951 517.889 744.135 543.512 747.822C569.135 751.508 571.465 732.854 571.465 732.854C571.465 732.854 584.776 741.091 592.429 724.242C600.082 707.391 578.786 706.18 578.786 706.18C578.786 706.18 592.096 694.524 575.458 687.783C558.82 681.044 555.492 693.452 555.492 693.452Z" fill="#F3A8C1"/>
<path d="M554.494 711.068C554.494 711.068 560.15 714.871 564.144 713.43C564.144 713.43 564.477 706.193 562.147 706.18C559.819 706.165 554.494 711.068 554.494 711.068Z" fill="#B7301A"/>
<path d="M456.658 658.982C456.658 658.982 432.074 662.221 438.708 677.759C445.343 693.297 461.047 684.72 461.047 684.72C461.047 684.72 450.003 717.426 479.953 713.021C509.902 708.617 494.754 680.346 494.754 680.346C494.754 680.346 514.173 699.237 525.165 675.555C536.156 651.872 502 656.05 502 656.05C502 656.05 506.261 638.765 482.459 637.999C458.655 637.232 456.658 655.715 456.658 658.982Z" fill="#F3A8C1"/>
<path d="M473.963 671.677C473.963 671.677 483.84 670.61 485.391 667.403C485.391 667.403 479.286 658.985 475.626 659.598C471.966 660.209 473.963 671.677 473.963 671.677Z" fill="#B7301A"/>
<path d="M482.459 768.572C482.459 768.572 451.373 739.757 438.708 769.53C426.044 799.302 466.975 802.671 466.975 802.671C466.975 802.671 453.693 829.02 491.282 831.777C528.871 834.534 520.217 810.024 520.217 810.024C520.217 810.024 537.522 820.134 546.173 799.913C554.827 779.693 527.345 776.017 527.345 776.017C527.345 776.017 544.223 746.3 518.079 742.317C491.933 738.333 479.306 752.55 482.459 768.572Z" fill="#F3A8C1"/>
<path d="M637.355 752.887C637.355 752.887 650.998 802.364 678.619 786.816C706.239 771.269 677.287 742.317 672.795 736.802C668.303 731.288 636.856 723.475 637.355 724.854C637.854 726.233 637.355 752.887 637.355 752.887Z" fill="#8C7417"/>
<path d="M683.026 783.461C683.026 783.461 658.318 750.129 643.343 736.802" stroke="#D9CE55" stroke-width="1.33333" stroke-miterlimit="10" stroke-linecap="round" stroke-linejoin="round"/>
<path d="M617.886 703.395C617.886 703.395 599.417 712.911 596.422 733.589C593.427 754.265 600.914 776 624.375 772.256C647.835 768.512 651.828 734.837 640.348 706.18L617.886 703.395Z" fill="#8C7417"/>
<path d="M627.77 771.446C627.77 771.446 616.188 724.825 627.77 704.619" stroke="#D9CE55" stroke-width="1.33333" stroke-miterlimit="10" stroke-linecap="round" stroke-linejoin="round"/>
<path d="M633.859 700.662C633.859 700.662 638.968 762.837 679.839 745.225C720.713 727.612 633.859 685.706 633.859 685.706V700.662Z" fill="#626129"/>
<path d="M633.859 685.706C633.859 685.706 681.495 726.832 682.387 743.995" stroke="#043F22" stroke-width="1.33333" stroke-miterlimit="10" stroke-linecap="round" stroke-linejoin="round"/>
<path d="M640.348 663.869C640.348 663.869 665.021 606.841 685.88 622.06C706.735 637.278 693.415 665.276 686.099 669.331C678.784 673.384 643.343 669.331 643.343 669.331L640.348 663.869Z" fill="#626129"/>
<path d="M646.545 669.331C646.545 669.331 671.701 635.394 691.476 627.409" stroke="#043F22" stroke-width="1.33333" stroke-miterlimit="10" stroke-linecap="round" stroke-linejoin="round"/>
<path d="M756.613 741.641C755.654 742.317 761.788 799.761 798.654 793.787C835.52 787.813 794.647 733.589 794.647 733.589L769.131 727.152L756.613 741.641Z" fill="#8C7417"/>
<path d="M760.219 732.096C760.219 732.096 802.931 778.118 806.497 791.237" stroke="#D9CE55" stroke-width="1.33333" stroke-miterlimit="10" stroke-linecap="round" stroke-linejoin="round"/>
<path d="M768.133 732.096C768.133 732.096 823.104 762.251 835.302 738.038C847.499 713.825 782.608 707.489 776.119 709.966C769.63 712.446 765.637 722.424 765.637 722.424L768.133 732.096Z" fill="#8C7417"/>
<path d="M773.624 717.036C773.624 717.036 815.476 684.913 801.038 675.702C786.603 666.491 758.648 693.9 753.157 699.268C747.668 704.634 749.765 722.424 749.765 722.424L766.223 724.694L773.624 717.036Z" fill="#8C7417"/>
<path d="M753.156 717.036C754.655 717.501 790.018 678.939 801.037 675.702" stroke="#D9CE55" stroke-width="1.33333" stroke-miterlimit="10" stroke-linecap="round" stroke-linejoin="round"/>
<path d="M729.586 700.662C729.586 700.662 720.416 690.897 709.732 696.371C699.048 701.845 698.251 718.88 709.732 727.152C709.732 727.152 685.832 751.508 715.502 758.861C745.172 766.214 741.323 733.589 741.323 733.589C741.323 733.589 750.443 756.85 768.133 738.038C785.824 719.225 756.523 717.04 756.523 717.04C756.523 717.04 777.761 701.877 760.219 690.847C742.676 679.818 729.586 700.662 729.586 700.662Z" fill="#F3A8C1"/>
<path d="M633.86 640.756C633.86 640.756 624.346 621.803 616.888 609.534C608.736 596.123 602.734 589.106 591.431 596.525C575.921 606.702 600.915 643.514 600.915 643.514C600.915 643.514 555.554 604.452 536.056 622.834C516.557 641.216 581.448 663.87 581.448 663.87L633.86 651.786V640.756Z" fill="#8C7417"/>
<path d="M591.431 596.525C591.431 596.525 613.186 626.401 614.037 647.596" stroke="#D9CE55" stroke-width="1.33333" stroke-miterlimit="10" stroke-linecap="round" stroke-linejoin="round"/>
<path d="M536.056 622.834C536.056 622.834 580.449 641.216 591.431 653.164" stroke="#D9CE55" stroke-width="1.33333" stroke-miterlimit="10" stroke-linecap="round" stroke-linejoin="round"/>
<path d="M735.944 720.259C735.944 720.259 728.201 711.738 725.206 714.85C722.212 717.961 727.203 724.694 727.203 724.694L735.944 720.259Z" fill="#B7301A"/>
<path d="M598.919 673.783C598.919 673.783 576.956 692.062 598.919 699.268C620.882 706.472 630.865 693.452 630.865 693.452C630.865 693.452 655.837 700.919 662.318 687.612C668.801 674.304 657.819 662.467 643.344 662.411C643.344 662.411 662.312 642.089 633.86 637.975C605.408 633.863 609.283 655.493 609.283 655.493C609.283 655.493 578.952 632.084 571.465 655.493C563.978 678.899 598.919 673.783 598.919 673.783Z" fill="#F3A8C1"/>
<path d="M617.319 667.403C617.319 667.403 619.028 670.611 625.196 667.403C625.196 667.403 626.124 659.533 621.256 659.565C616.389 659.598 617.319 667.403 617.319 667.403Z" fill="#B7301A"/>
<path d="M83.0603 827.098C83.0603 827.098 44.9225 803.202 57.8348 782.981C57.8348 782.981 53.9513 686.639 73.8298 678.746L126.653 663.498C126.653 663.498 141.628 629.885 162.592 628.769C183.557 627.653 210.268 632.868 210.268 632.868L255.162 658.902C255.162 658.902 312.62 666.255 320.464 665.336C328.313 664.417 381.558 657.064 390.874 663.498C400.192 669.932 421.884 685.249 423.018 702.866L460.091 740.512C460.091 740.512 502.025 785.126 512.337 793.398C512.337 793.398 513.342 782.062 521.658 781.143C529.974 780.224 545.947 810.555 545.947 810.555C545.947 810.555 541.247 796.768 549.086 801.363C556.928 805.959 560.207 835.063 560.207 835.063H83.0603V827.098Z" fill="#043F22"/>
<path d="M75.1866 790.281C75.1866 790.281 67.3059 761.482 38.6881 762.094C10.0703 762.708 -15.2211 774.958 19.0552 793.954C53.3294 812.951 70.4206 806.211 75.1866 790.281Z" fill="#626129"/>
<path d="M3.03809 774.394C3.03809 774.394 47.7947 768.223 75.1886 797.02" stroke="#043F22" stroke-width="1.33333" stroke-miterlimit="10" stroke-linecap="round" stroke-linejoin="round"/>
<path d="M196.036 807.338C196.036 807.338 240.961 818.367 244.455 805.5C247.949 792.632 216.374 763.43 180.369 777.987L168.583 793.472L185.426 803.202L196.036 807.338Z" fill="#626129"/>
<path d="M99.6983 781.671L105.189 806.878C40.7975 841.804 33.1444 815.457 59.1007 792.173C85.057 768.888 97.0368 778.945 97.0368 778.945L99.6983 781.671Z" fill="#8C7417"/>
<path d="M127.007 687.421C127.007 687.421 90.6718 694.799 74.6987 714.929C58.7256 735.059 44.202 753.945 68.1018 763.496C92.0035 773.049 121.288 723.418 123.95 710.55C126.611 697.683 127.007 687.421 127.007 687.421Z" fill="#626129"/>
<path d="M64.3577 766.224C64.3577 766.224 85.4721 707.793 127.006 687.421" stroke="#043F22" stroke-width="1.33333" stroke-miterlimit="10" stroke-linecap="round" stroke-linejoin="round"/>
<path d="M109.681 671.663C109.681 671.663 51.7787 638.109 36.4705 672.555C21.1643 707.002 96.0182 690.52 102.851 681.092C109.681 671.663 109.681 671.663 109.681 671.663Z" fill="#C2A131"/>
<path d="M109.682 671.663C57.105 665.737 35.2478 675.803 35.2478 675.803" stroke="#D9CE55" stroke-width="1.33333" stroke-miterlimit="10" stroke-linecap="round" stroke-linejoin="round"/>
<path d="M138.965 693.408C139.055 694.745 140.962 749.962 162.591 742.269C184.221 734.576 158.265 685.556 154.271 683.718C150.278 681.88 138.386 684.871 138.965 693.408Z" fill="#C2A131"/>
<path d="M164.315 741.511C164.315 741.511 161.957 706.44 144.305 684.97" stroke="#D9CE55" stroke-width="1.33333" stroke-miterlimit="10" stroke-linecap="round" stroke-linejoin="round"/>
<path d="M162.593 669.013C162.593 669.013 162.926 605.65 120.997 618.949C79.0676 632.249 162.593 669.013 162.593 669.013Z" fill="#626129"/>
<path d="M119.724 619.379C119.724 619.379 166.062 647.6 162.592 669.013" stroke="#043F22" stroke-width="1.33333" stroke-miterlimit="10" stroke-linecap="round" stroke-linejoin="round"/>
<path d="M208.515 702.866C208.515 702.866 191.508 686.852 180.368 700.874C169.229 714.898 186.885 729.366 186.885 729.366C186.885 729.366 170.912 753.55 196.535 757.237C222.158 760.923 224.488 742.269 224.488 742.269C224.488 742.269 237.8 750.505 245.453 733.656C253.106 716.806 231.81 715.594 231.81 715.594C231.81 715.594 245.119 703.938 228.481 697.197C211.843 690.458 208.515 702.866 208.515 702.866Z" fill="#F3A8C1"/>
<path d="M207.517 720.482C207.517 720.482 213.174 724.286 217.167 722.845C217.167 722.845 217.501 715.607 215.17 715.595C212.842 715.579 207.517 720.482 207.517 720.482Z" fill="#B7301A"/>
<path d="M109.682 668.396C109.682 668.396 85.097 671.636 91.7318 687.174C98.3667 702.712 114.07 694.135 114.07 694.135C114.07 694.135 103.027 726.841 132.976 722.436C162.926 718.032 147.777 689.761 147.777 689.761C147.777 689.761 167.197 708.652 178.188 684.97C189.18 661.286 155.023 665.465 155.023 665.465C155.023 665.465 159.284 648.18 135.482 647.414C111.678 646.647 109.682 665.13 109.682 668.396Z" fill="#F3A8C1"/>
<path d="M126.986 681.092C126.986 681.092 136.863 680.025 138.415 676.818C138.415 676.818 132.309 668.4 128.649 669.013C124.989 669.624 126.986 681.092 126.986 681.092Z" fill="#B7301A"/>
<path d="M135.482 777.987C135.482 777.987 104.396 749.171 91.7316 778.945C79.0669 808.716 119.998 812.085 119.998 812.085C119.998 812.085 106.716 838.434 144.305 841.192C181.894 843.949 173.24 819.438 173.24 819.438C173.24 819.438 190.545 829.548 199.197 809.328C207.85 789.108 180.368 785.431 180.368 785.431C180.368 785.431 197.246 755.715 171.102 751.732C144.956 747.748 132.329 761.965 135.482 777.987Z" fill="#F3A8C1"/>
<path d="M290.378 762.302C290.378 762.302 304.021 811.779 331.643 796.231C359.262 780.684 330.311 751.732 325.819 746.217C321.326 740.703 289.879 732.89 290.378 734.269C290.877 735.648 290.378 762.302 290.378 762.302Z" fill="#8C7417"/>
<path d="M336.05 792.876C336.05 792.876 311.341 759.544 296.366 746.217" stroke="#D9CE55" stroke-width="1.33333" stroke-miterlimit="10" stroke-linecap="round" stroke-linejoin="round"/>
<path d="M270.909 712.809C270.909 712.809 252.44 722.326 249.445 743.004C246.45 763.68 253.938 785.415 277.398 781.671C300.859 777.926 304.852 744.252 293.371 715.595L270.909 712.809Z" fill="#8C7417"/>
<path d="M280.794 780.86C280.794 780.86 269.211 734.24 280.794 714.034" stroke="#D9CE55" stroke-width="1.33333" stroke-miterlimit="10" stroke-linecap="round" stroke-linejoin="round"/>
<path d="M286.882 710.077C286.882 710.077 291.992 772.252 332.863 754.64C373.736 737.026 286.882 695.121 286.882 695.121V710.077Z" fill="#626129"/>
<path d="M286.882 695.121C286.882 695.121 334.518 736.247 335.411 753.41" stroke="#043F22" stroke-width="1.33333" stroke-miterlimit="10" stroke-linecap="round" stroke-linejoin="round"/>
<path d="M293.372 673.284C293.372 673.284 318.044 616.256 338.903 631.475C359.758 646.693 346.438 674.691 339.123 678.746C331.807 682.799 296.367 678.746 296.367 678.746L293.372 673.284Z" fill="#626129"/>
<path d="M299.569 678.746C299.569 678.746 324.724 644.809 344.499 636.824" stroke="#043F22" stroke-width="1.33333" stroke-miterlimit="10" stroke-linecap="round" stroke-linejoin="round"/>
<path d="M409.636 751.056C408.678 751.732 414.811 809.176 451.677 803.202C488.543 797.228 447.67 743.004 447.67 743.004L422.155 736.567L409.636 751.056Z" fill="#8C7417"/>
<path d="M413.242 741.511C413.242 741.511 455.954 787.533 459.52 800.652" stroke="#D9CE55" stroke-width="1.33333" stroke-miterlimit="10" stroke-linecap="round" stroke-linejoin="round"/>
<path d="M421.156 741.511C421.156 741.511 476.128 771.666 488.325 747.452C500.523 723.24 435.632 716.904 429.143 719.381C422.654 721.861 418.66 731.839 418.66 731.839L421.156 741.511Z" fill="#8C7417"/>
<path d="M424.485 729.673C424.485 729.673 477.625 738.963 488.325 747.452" stroke="#D9CE55" stroke-width="1.33333" stroke-miterlimit="10" stroke-linecap="round" stroke-linejoin="round"/>
<path d="M426.648 726.451C426.648 726.451 468.499 694.328 454.062 685.117C439.626 675.906 411.671 703.315 406.18 708.683C400.692 714.049 402.788 731.839 402.788 731.839L419.246 734.109L426.648 726.451Z" fill="#8C7417"/>
<path d="M406.179 726.451C407.679 726.916 443.041 688.354 454.061 685.117" stroke="#D9CE55" stroke-width="1.33333" stroke-miterlimit="10" stroke-linecap="round" stroke-linejoin="round"/>
<path d="M382.61 710.077C382.61 710.077 373.439 700.312 362.755 705.786C352.071 711.26 351.275 728.295 362.755 736.567C362.755 736.567 338.855 760.923 368.525 768.276C398.195 775.629 394.346 743.004 394.346 743.004C394.346 743.004 403.467 766.265 421.157 747.452C438.847 728.64 409.546 726.454 409.546 726.454C409.546 726.454 430.785 711.291 413.242 700.262C395.7 689.233 382.61 710.077 382.61 710.077Z" fill="#F3A8C1"/>
<path d="M286.883 650.171C286.883 650.171 277.369 631.217 269.912 618.949C261.76 605.538 255.758 598.521 244.455 605.94C228.945 616.116 253.939 652.928 253.939 652.928C253.939 652.928 208.577 613.866 189.08 632.249C169.581 650.631 234.472 673.284 234.472 673.284L286.883 661.2V650.171Z" fill="#8C7417"/>
<path d="M244.454 605.94C244.454 605.94 266.21 635.816 267.06 657.011" stroke="#D9CE55" stroke-width="1.33333" stroke-miterlimit="10" stroke-linecap="round" stroke-linejoin="round"/>
<path d="M189.08 632.249C189.08 632.249 233.473 650.631 244.454 662.579" stroke="#D9CE55" stroke-width="1.33333" stroke-miterlimit="10" stroke-linecap="round" stroke-linejoin="round"/>
<path d="M388.968 729.673C388.968 729.673 381.225 721.153 378.23 724.265C375.235 727.376 380.227 734.109 380.227 734.109L388.968 729.673Z" fill="#B7301A"/>
<path d="M251.942 683.198C251.942 683.198 229.979 701.477 251.942 708.683C273.905 715.887 283.888 702.867 283.888 702.867C283.888 702.867 308.86 710.334 315.341 697.027C321.824 683.718 310.843 671.882 296.367 671.825C296.367 671.825 315.335 651.504 286.883 647.39C258.431 643.278 262.307 664.908 262.307 664.908C262.307 664.908 231.976 641.498 224.488 664.908C217.001 688.314 251.942 683.198 251.942 683.198Z" fill="#F3A8C1"/>
<path d="M270.342 676.818C270.342 676.818 272.052 680.025 278.219 676.818C278.219 676.818 279.148 668.948 274.28 668.98C269.412 669.013 270.342 676.818 270.342 676.818Z" fill="#B7301A"/>
<path d="M360.344 818.599C360.344 818.599 381.458 877.03 422.992 897.402" stroke="#043F22" stroke-width="1.33333" stroke-miterlimit="10" stroke-linecap="round" stroke-linejoin="round"/>
<path d="M405.667 913.16C405.667 913.16 347.765 946.714 332.457 912.268C317.15 877.82 392.004 894.303 398.837 903.731C405.667 913.16 405.667 913.16 405.667 913.16Z" fill="#C2A131"/>
<path d="M405.669 913.16C353.091 919.086 331.234 909.02 331.234 909.02" stroke="#D9CE55" stroke-width="1.33333" stroke-miterlimit="10" stroke-linecap="round" stroke-linejoin="round"/>
<path d="M434.951 891.415C435.041 890.078 436.948 834.861 458.578 842.554C480.207 850.247 454.251 899.266 450.258 901.105C446.264 902.943 434.372 899.952 434.951 891.415Z" fill="#C2A131"/>
<path d="M460.301 843.312C460.301 843.312 457.943 878.383 440.291 899.853" stroke="#D9CE55" stroke-width="1.33333" stroke-miterlimit="10" stroke-linecap="round" stroke-linejoin="round"/>
<path d="M458.579 915.81C458.579 915.81 458.912 979.173 416.983 965.874C375.054 952.574 458.579 915.81 458.579 915.81Z" fill="#626129"/>
<path d="M415.71 965.443C415.71 965.443 462.048 937.223 458.578 915.81" stroke="#043F22" stroke-width="1.33333" stroke-miterlimit="10" stroke-linecap="round" stroke-linejoin="round"/>
<path d="M504.501 881.956C504.501 881.956 487.494 897.97 476.355 883.949C465.215 869.925 482.872 855.457 482.872 855.457C482.872 855.457 466.898 831.273 492.521 827.586C518.144 823.9 520.474 842.554 520.474 842.554C520.474 842.554 533.786 834.317 541.439 851.166C549.092 868.017 527.796 869.228 527.796 869.228C527.796 869.228 541.105 880.884 524.467 887.625C507.83 894.364 504.501 881.956 504.501 881.956Z" fill="#F3A8C1"/>
<path d="M503.503 864.34C503.503 864.34 509.16 860.537 513.153 861.978C513.153 861.978 513.487 869.215 511.157 869.228C508.828 869.243 503.503 864.34 503.503 864.34Z" fill="#B7301A"/>
<path d="M586.364 822.521C586.364 822.521 600.007 773.044 627.629 788.592C655.248 804.139 626.297 833.091 621.805 838.606C617.312 844.12 585.865 851.933 586.364 850.554C586.863 849.175 586.364 822.521 586.364 822.521Z" fill="#8C7417"/>
<path d="M632.036 791.947C632.036 791.947 607.327 825.279 592.353 838.606" stroke="#D9CE55" stroke-width="1.33333" stroke-miterlimit="10" stroke-linecap="round" stroke-linejoin="round"/>
<path d="M589.358 911.539C589.358 911.539 614.03 968.567 634.889 953.348C655.744 938.13 642.425 910.132 635.109 906.077C627.793 902.024 592.353 906.077 592.353 906.077L589.358 911.539Z" fill="#626129"/>
<path d="M595.555 906.077C595.555 906.077 620.711 940.014 640.485 947.999" stroke="#043F22" stroke-width="1.33333" stroke-miterlimit="10" stroke-linecap="round" stroke-linejoin="round"/>
<path d="M705.622 833.767C704.664 833.091 710.797 775.647 747.663 781.621C784.529 787.595 743.656 841.819 743.656 841.819L718.141 848.256L705.622 833.767Z" fill="#8C7417"/>
<path d="M709.229 843.312C709.229 843.312 751.941 797.29 755.507 784.171" stroke="#D9CE55" stroke-width="1.33333" stroke-miterlimit="10" stroke-linecap="round" stroke-linejoin="round"/>
<path d="M717.142 843.312C717.142 843.312 772.114 813.157 784.311 837.37C796.509 861.583 731.618 867.919 725.129 865.442C718.64 862.962 714.646 852.984 714.646 852.984L717.142 843.312Z" fill="#8C7417"/>
<path d="M720.471 855.149C720.471 855.149 773.612 845.859 784.312 837.37" stroke="#D9CE55" stroke-width="1.33333" stroke-miterlimit="10" stroke-linecap="round" stroke-linejoin="round"/>
<path d="M722.634 858.372C722.634 858.372 764.485 890.495 750.048 899.706C735.612 908.917 707.657 881.508 702.166 876.14C696.678 870.774 698.774 852.984 698.774 852.984L715.232 850.714L722.634 858.372Z" fill="#8C7417"/>
<path d="M702.165 858.372C703.665 857.907 739.027 896.469 750.047 899.706" stroke="#D9CE55" stroke-width="1.33333" stroke-miterlimit="10" stroke-linecap="round" stroke-linejoin="round"/>
<path d="M678.596 874.746C678.596 874.746 669.425 884.511 658.741 879.037C648.057 873.563 647.261 856.528 658.741 848.256C658.741 848.256 634.841 823.9 664.512 816.547C694.182 809.194 690.332 841.819 690.332 841.819C690.332 841.819 699.453 818.558 717.143 837.37C734.833 856.183 705.532 858.368 705.532 858.368C705.532 858.368 726.771 873.531 709.228 884.561C691.686 895.59 678.596 874.746 678.596 874.746Z" fill="#F3A8C1"/>
<path d="M684.954 855.149C684.954 855.149 677.211 863.67 674.216 860.558C671.221 857.447 676.213 850.714 676.213 850.714L684.954 855.149Z" fill="#B7301A"/>
<path d="M24.1961 785.127C24.1961 785.127 16.3154 813.926 -12.3024 813.314C-40.9202 812.7 -66.2116 800.45 -31.9353 781.454C2.33895 762.457 19.4302 769.197 24.1961 785.127Z" fill="#626129"/>
<path d="M-47.9524 801.014C-47.9524 801.014 -3.19577 807.185 24.1981 778.388" stroke="#043F22" stroke-width="1.33333" stroke-miterlimit="10" stroke-linecap="round" stroke-linejoin="round"/>
<path d="M145.046 768.07C145.046 768.07 189.97 757.041 193.464 769.908C196.958 782.776 165.384 811.977 129.378 797.421L117.592 781.936L134.436 772.206L145.046 768.07Z" fill="#626129"/>
<path d="M48.7078 793.737L54.1986 768.53C-10.193 733.604 -17.8461 759.951 8.11021 783.235C34.0665 806.52 46.0463 796.463 46.0463 796.463L48.7078 793.737Z" fill="#8C7417"/>
<path d="M76.0161 887.987C76.0161 887.987 39.6813 880.609 23.7082 860.479C7.7351 840.348 -6.78845 821.463 17.1113 811.912C41.013 802.359 70.2977 851.99 72.9592 864.858C75.6207 877.725 76.0161 887.987 76.0161 887.987Z" fill="#626129"/>
<path d="M13.3672 809.184C13.3672 809.184 34.4816 867.615 76.0157 887.987" stroke="#043F22" stroke-width="1.33333" stroke-miterlimit="10" stroke-linecap="round" stroke-linejoin="round"/>
<path d="M58.6907 903.745C58.6907 903.745 0.788224 937.299 -14.52 902.853C-29.8262 868.406 45.0277 884.888 51.8602 894.316C58.6907 903.745 58.6907 903.745 58.6907 903.745Z" fill="#C2A131"/>
<path d="M58.692 903.745C6.11453 909.671 -15.7427 899.605 -15.7427 899.605" stroke="#D9CE55" stroke-width="1.33333" stroke-miterlimit="10" stroke-linecap="round" stroke-linejoin="round"/>
<path d="M87.9745 882C88.0644 880.663 89.9712 825.446 111.601 833.139C133.23 840.832 107.274 889.851 103.281 891.69C99.2875 893.528 87.3955 890.537 87.9745 882Z" fill="#C2A131"/>
<path d="M113.325 833.897C113.325 833.897 110.967 868.968 93.3145 890.438" stroke="#D9CE55" stroke-width="1.33333" stroke-miterlimit="10" stroke-linecap="round" stroke-linejoin="round"/>
<path d="M111.602 906.395C111.602 906.395 111.936 969.758 70.0064 956.459C28.0771 943.159 111.602 906.395 111.602 906.395Z" fill="#626129"/>
<path d="M68.7339 956.029C68.7339 956.029 115.072 927.808 111.602 906.395" stroke="#043F22" stroke-width="1.33333" stroke-miterlimit="10" stroke-linecap="round" stroke-linejoin="round"/>
<path d="M157.525 872.542C157.525 872.542 140.517 888.555 129.378 874.534C118.239 860.51 135.895 846.042 135.895 846.042C135.895 846.042 119.922 821.858 145.545 818.171C171.168 814.485 173.498 833.139 173.498 833.139C173.498 833.139 186.809 824.903 194.462 841.752C202.115 858.602 180.819 859.813 180.819 859.813C180.819 859.813 194.129 871.47 177.491 878.211C160.853 884.949 157.525 872.542 157.525 872.542Z" fill="#F3A8C1"/>
<path d="M156.527 854.926C156.527 854.926 162.183 851.122 166.177 852.563C166.177 852.563 166.51 859.801 164.18 859.813C161.852 859.828 156.527 854.926 156.527 854.926Z" fill="#B7301A"/>
<path d="M58.6911 907.012C58.6911 907.012 34.1065 903.772 40.7414 888.234C47.3762 872.696 63.0797 881.273 63.0797 881.273C63.0797 881.273 52.0363 848.567 81.9859 852.972C111.935 857.376 96.787 885.647 96.787 885.647C96.787 885.647 116.206 866.756 127.198 890.438C138.189 914.122 104.033 909.943 104.033 909.943C104.033 909.943 108.294 927.228 84.4917 927.994C60.6878 928.761 58.6911 910.278 58.6911 907.012Z" fill="#F3A8C1"/>
<path d="M75.9955 894.316C75.9955 894.316 85.8729 895.383 87.4242 898.59C87.4242 898.59 81.3185 907.008 77.6587 906.395C73.9989 905.784 75.9955 894.316 75.9955 894.316Z" fill="#B7301A"/>
<path d="M84.4914 797.421C84.4914 797.421 53.4058 826.237 40.7411 796.463C28.0764 766.692 69.0075 763.322 69.0075 763.322C69.0075 763.322 55.7259 736.974 93.3145 734.216C130.903 731.459 122.25 755.97 122.25 755.97C122.25 755.97 139.555 745.86 148.206 766.08C156.86 786.3 129.378 789.977 129.378 789.977C129.378 789.977 146.255 819.693 120.111 823.676C93.9655 827.66 81.3387 813.443 84.4914 797.421Z" fill="#F3A8C1"/>
<path d="M239.388 813.106C239.388 813.106 253.031 763.629 280.652 779.177C308.272 794.724 279.32 823.676 274.828 829.191C270.336 834.705 238.889 842.518 239.388 841.139C239.887 839.76 239.388 813.106 239.388 813.106Z" fill="#8C7417"/>
<path d="M285.059 782.532C285.059 782.532 260.351 815.864 245.376 829.191" stroke="#D9CE55" stroke-width="1.33333" stroke-miterlimit="10" stroke-linecap="round" stroke-linejoin="round"/>
<path d="M219.919 862.599C219.919 862.599 201.45 853.082 198.455 832.404C195.46 811.728 202.947 789.993 226.408 793.737C249.868 797.482 253.861 831.156 242.381 859.813L219.919 862.599Z" fill="#8C7417"/>
<path d="M229.803 794.548C229.803 794.548 218.221 841.168 229.803 861.374" stroke="#D9CE55" stroke-width="1.33333" stroke-miterlimit="10" stroke-linecap="round" stroke-linejoin="round"/>
<path d="M235.892 865.331C235.892 865.331 241.001 803.156 281.872 820.768C322.746 838.382 235.892 880.287 235.892 880.287V865.331Z" fill="#626129"/>
<path d="M235.892 880.287C235.892 880.287 283.528 839.161 284.42 821.998" stroke="#043F22" stroke-width="1.33333" stroke-miterlimit="10" stroke-linecap="round" stroke-linejoin="round"/>
<path d="M242.381 902.124C242.381 902.124 267.054 959.152 287.912 943.933C308.767 928.715 295.448 900.717 288.132 896.662C280.816 892.609 245.376 896.662 245.376 896.662L242.381 902.124Z" fill="#626129"/>
<path d="M248.578 896.662C248.578 896.662 273.734 930.599 293.508 938.584" stroke="#043F22" stroke-width="1.33333" stroke-miterlimit="10" stroke-linecap="round" stroke-linejoin="round"/>
<path d="M370.166 833.897C370.166 833.897 425.137 803.742 437.335 827.956C449.532 852.168 384.641 858.504 378.152 856.027C371.663 853.547 367.67 843.569 367.67 843.569L370.166 833.897Z" fill="#8C7417"/>
<path d="M373.495 845.735C373.495 845.735 426.635 836.445 437.335 827.956" stroke="#D9CE55" stroke-width="1.33333" stroke-miterlimit="10" stroke-linecap="round" stroke-linejoin="round"/>
<path d="M375.657 848.957C375.657 848.957 417.509 881.08 403.071 890.291C388.635 899.502 360.681 872.093 355.19 866.725C349.701 861.359 351.798 843.569 351.798 843.569L368.256 841.299L375.657 848.957Z" fill="#8C7417"/>
<path d="M355.189 848.957C356.688 848.492 392.051 887.054 403.07 890.291" stroke="#D9CE55" stroke-width="1.33333" stroke-miterlimit="10" stroke-linecap="round" stroke-linejoin="round"/>
<path d="M331.619 865.331C331.619 865.331 322.449 875.096 311.765 869.622C301.081 864.148 300.284 847.113 311.765 838.841C311.765 838.841 287.865 814.485 317.535 807.132C347.205 799.779 343.356 832.404 343.356 832.404C343.356 832.404 352.476 809.143 370.166 827.956C387.857 846.768 358.556 848.954 358.556 848.954C358.556 848.954 379.794 864.117 362.252 875.146C344.709 886.175 331.619 865.331 331.619 865.331Z" fill="#F3A8C1"/>
<path d="M337.978 845.735C337.978 845.735 330.235 854.255 327.24 851.143C324.245 848.032 329.236 841.299 329.236 841.299L337.978 845.735Z" fill="#B7301A"/>
<path d="M354.197 109.303C354.197 109.303 386.973 180.44 393.799 180.505C400.625 180.569 401.67 97.9569 401.67 97.9569C401.67 97.9569 455.998 186.263 466.475 183.415C476.951 180.569 456.018 98.1598 456.018 98.1598C456.018 98.1598 494.847 155.409 501.848 155.928C508.849 156.449 495.59 92.4696 495.59 92.4696L419.846 67.9999L345.342 75.6897L354.197 109.303Z" fill="#626129"/>
<path d="M190.849 130.721C190.849 130.721 226.352 200.616 233.177 200.432C240 200.248 237.85 117.656 237.85 117.656C237.85 117.656 295.554 203.922 305.913 200.695C316.272 197.47 292.167 115.881 292.167 115.881C292.167 115.881 333.183 171.676 340.199 171.94C347.215 172.206 331.491 108.754 331.491 108.754L254.854 87.0583L180.7 97.4538L190.849 130.721Z" fill="#626129"/>
<path d="M650.851 149.736C650.851 149.736 607.88 215.567 601.114 214.68C594.35 213.792 605.55 131.892 605.55 131.892C605.55 131.892 538.709 211.71 528.762 207.432C518.816 203.155 551.736 124.518 551.736 124.518C551.736 124.518 504.832 175.762 497.827 175.3C490.821 174.84 513.418 113.372 513.418 113.372L592 99.7124L664.592 117.705L650.851 149.736Z" fill="#626129"/>
<path d="M362.767 68C362.767 68 459.521 175.736 439.522 193.234C426.498 204.63 415.778 137.535 307.229 105.596C307.229 105.596 379.166 166.523 372.348 183.243C365.53 199.962 300.483 132.006 237.601 122.748C237.601 122.748 298.661 193.049 283.317 197.037C267.974 201.022 199.073 133.949 177.803 130.539C177.803 130.539 227.972 176.939 208.556 235.904C189.141 294.868 147.415 99.6221 147.415 99.6221L362.767 68Z" fill="#043F22"/>
<path d="M183.395 73C183.395 73 280.149 180.736 260.15 198.234C247.126 209.63 236.406 142.535 127.858 110.596C127.858 110.596 199.794 171.523 192.976 188.243C186.158 204.962 121.111 137.006 58.2294 127.748C58.2294 127.748 119.29 198.049 103.946 202.037C88.6022 206.022 19.7008 138.949 -1.56884 135.539C-1.56884 135.539 48.6003 181.939 29.1838 240.904C9.76873 299.868 -31.957 104.622 -31.957 104.622L183.395 73Z" fill="#043F22"/>
<path d="M649.55 87C649.55 87 552.796 194.736 572.795 212.234C585.819 223.63 596.539 156.535 705.087 124.596C705.087 124.596 633.151 185.523 639.969 202.243C646.787 218.962 711.834 151.006 774.716 141.748C774.716 141.748 713.655 212.049 728.999 216.037C744.343 220.022 813.244 152.949 834.514 149.539C834.514 149.539 784.345 195.939 803.761 254.904C823.176 313.868 864.902 118.622 864.902 118.622L649.55 87Z" fill="#043F22"/>
<path d="M508.494 84.3724C508.494 84.3724 421.42 181.707 439.746 198.011C451.683 208.631 460.874 147.323 559.3 119.579C559.3 119.579 494.4 174.385 500.739 189.793C507.078 205.204 565.656 143.862 622.75 136.257C622.75 136.257 567.816 199.799 581.801 203.663C595.784 207.529 657.875 147.051 677.184 144.224C677.184 144.224 712.207 139.526 730.349 193.803C748.49 248.079 704.555 116.327 704.555 116.327L508.494 84.3724Z" fill="#043F22"/>
<path d="M363.18 65.6724C363.18 65.6724 300.725 179.418 322.343 191.338C336.424 199.102 331.263 137.352 420.812 88.9782C420.812 88.9782 370.174 156.464 379.902 170.109C389.63 183.756 432.599 111.27 486.499 91.4829C486.499 91.4829 447.588 165.325 462.109 166.06C476.629 166.798 523.222 94.3916 541.392 87.4511C541.392 87.4511 574.447 75.2814 604.631 124.255C634.815 173.228 561.646 54.3278 561.646 54.3278L363.18 65.6724Z" fill="#043F22"/>
<path d="M614.713 76.6725C614.713 76.6725 552.258 190.418 573.876 202.338C587.957 210.102 582.796 148.353 672.344 99.9783C672.344 99.9783 621.707 167.464 631.435 181.109C641.163 194.756 684.132 122.27 738.032 102.483C738.032 102.483 699.121 176.325 713.642 177.06C728.162 177.798 774.755 105.392 792.925 98.4513C792.925 98.4513 825.98 86.2815 856.164 135.255C886.348 184.228 813.179 65.328 813.179 65.328L614.713 76.6725Z" fill="#043F22"/>
<path d="M163 -14H628L613 121.5L388 80L172 116L163 -14Z" fill="#043F22"/>
<path d="M-15 -11H450L435 124.5L210 83L-6 119L-15 -11Z" fill="#043F22"/>
<path d="M410 -14H875L860 121.5L635 80L419 116L410 -14Z" fill="#043F22"/>
<rect y="-5" width="794" height="274" fill="url(#paint0_linear_809_7426)" fill-opacity="0.7"/>
<g filter="url(#filter0_b_809_7426)">
<rect x="790" width="1063" height="790" transform="rotate(90 790 0)" fill="url(#paint1_linear_809_7426)" style="mix-blend-mode:darken"/>
</g>
</g>
<defs>
<filter id="filter0_b_809_7426" x="-4" y="-4" width="798" height="1071" filterUnits="userSpaceOnUse" color-interpolation-filters="sRGB">
<feFlood flood-opacity="0" result="BackgroundImageFix"/>
<feGaussianBlur in="BackgroundImageFix" stdDeviation="2"/>
<feComposite in2="SourceAlpha" operator="in" result="effect1_backgroundBlur_809_7426"/>
<feBlend mode="normal" in="SourceGraphic" in2="effect1_backgroundBlur_809_7426" result="shape"/>
</filter>
<linearGradient id="paint0_linear_809_7426" x1="397" y1="-5" x2="397" y2="269" gradientUnits="userSpaceOnUse">
<stop stop-color="#090909"/>
<stop offset="1" stop-color="#090909" stop-opacity="0"/>
</linearGradient>
<linearGradient id="paint1_linear_809_7426" x1="1441.15" y1="395" x2="789.916" y2="382.965" gradientUnits="userSpaceOnUse">
<stop stop-color="#1F182E" stop-opacity="0.79"/>
<stop offset="0.556628" stop-color="#1F182E" stop-opacity="0.5"/>
<stop offset="1" stop-color="#1F182E" stop-opacity="0"/>
</linearGradient>
<clipPath id="clip0_809_7426">
<rect width="768" height="1063" fill="white"/>
</clipPath>
<clipPath id="clip1_809_7426">
<rect width="1011.51" height="960" fill="white" transform="translate(-119.293 -10)"/>
</clipPath>
</defs>
</svg>
