<svg width="66" height="66" viewBox="0 0 66 66" fill="none" xmlns="http://www.w3.org/2000/svg">
<circle cx="33" cy="33" r="33" fill="#060606" fill-opacity="0.7"/>
<path d="M33 51C42.9414 51 51 42.9414 51 33C51 32.1666 49.7508 32.028 49.3206 32.7426C48.403 34.2624 47.1517 35.5535 45.6612 36.518C44.1708 37.4826 42.4804 38.0953 40.7181 38.3098C38.9558 38.5243 37.1678 38.335 35.4895 37.7561C33.8112 37.1772 32.2866 36.224 31.0313 34.9687C29.776 33.7134 28.8228 32.1888 28.2439 30.5105C27.665 28.8322 27.4757 27.0442 27.6902 25.2819C27.9047 23.5196 28.5174 21.8292 29.482 20.3388C30.4465 18.8483 31.7376 17.597 33.2574 16.6794C33.972 16.2474 33.8334 15 33 15C23.0586 15 15 23.0586 15 33C15 42.9414 23.0586 51 33 51Z" fill="white"/>
</svg>
