<svg width="257" height="102" viewBox="0 0 257 102" fill="none" xmlns="http://www.w3.org/2000/svg">
<g filter="url(#filter0_dd_761_7324)">
<path d="M202.138 87.7622C203.109 84.2974 204.687 78.7112 205.618 75.1757C206.549 71.7108 207.884 66.9732 208.531 64.7105L209.705 60.6092L206.751 60.9628C205.132 61.1749 201.815 61.5285 199.346 61.7406C196.919 61.9527 193.277 62.3063 191.254 62.4477C189.271 62.6598 184.051 63.1548 179.722 63.5084C175.392 63.9326 170.375 64.3569 168.595 64.569C164.872 64.9226 163.699 65.064 137.438 67.3975C126.756 68.3874 116.559 69.3067 114.779 69.5188C112.999 69.6602 109.64 70.0138 107.293 70.2259C99.3628 70.933 87.6691 71.9937 84.432 72.3472C82.6517 72.4887 79.01 72.8422 76.3395 73.0543C73.6689 73.2665 70.3105 73.62 68.8539 73.7615C61.5706 74.61 54.2873 74.8928 54.2873 74.3979C54.2873 74.0443 54.2468 61.387 54.1659 46.2549L54.085 18.8191L60.1544 19.2434C63.5128 19.5262 67.3163 19.8797 68.6516 20.0212C69.9868 20.1626 73.1025 20.5161 75.5302 20.7283C77.9985 20.9404 86.8193 21.7182 95.1547 22.4961C103.49 23.2739 112.351 24.0517 114.779 24.2638C117.247 24.476 120.606 24.7588 122.265 24.9709C123.924 25.1831 127.12 25.4659 129.346 25.678C131.571 25.8902 138.571 26.5266 144.924 27.0923C151.277 27.6579 158.56 28.2943 161.109 28.5065C163.658 28.7186 167.219 29.0722 168.999 29.2136C176.606 29.9914 179.398 30.2743 183.97 30.6278C186.641 30.8399 189.918 31.1935 191.254 31.3349C192.589 31.4763 196.15 31.8299 199.144 32.042C202.138 32.2542 205.739 32.6077 207.156 32.8198L209.664 33.1734L208.167 27.6579C207.317 24.6174 205.254 17.1927 203.554 11.1823C201.855 5.17188 200.52 0.151409 200.56 0.00998733C200.722 -0.272856 207.277 5.45473 219.78 16.8392C225.242 21.7889 234.225 29.9207 239.769 34.8705C245.312 39.8202 250.572 44.6286 251.422 45.4771L253 47.0327L248.832 50.7804C243.41 55.5888 233.295 64.7105 227.67 69.8724C225.242 72.0644 218.485 78.1455 212.699 83.3074C206.913 88.4693 202.017 92.9948 201.815 93.2777C201.572 93.6312 201.167 93.9141 200.884 93.9141C200.52 93.9141 200.965 91.722 202.138 87.7622Z" fill="#F8DFA5"/>
<path d="M4.03258 47.5982C3.95165 29.8497 4.03258 15.0004 4.15396 14.6469C4.27535 14.2933 5.97479 14.2226 8.07885 14.4348L11.8014 14.9297V46.9618V79.0645H10.102C9.13088 79.0645 7.39098 79.2767 6.25803 79.4888L4.1135 79.9838L4.03258 47.5982Z" fill="#F8DFA5"/>
<path d="M15.8477 46.8912V15.4248H18.235C19.5298 15.4248 21.7148 15.6369 23.0905 15.8491L25.5587 16.344V46.8912V77.4383L23.0905 77.9332C21.7148 78.1454 19.5298 78.3575 18.235 78.3575H15.8477V46.8912Z" fill="#F8DFA5"/>
<path d="M28.5529 76.6603C28.4719 76.2361 28.4315 62.5181 28.4719 46.1839L28.5933 16.4854L30.2118 16.6268C31.102 16.6975 33.3275 16.7682 35.1483 16.9096C36.9286 16.9803 38.5876 17.1925 38.7899 17.4753C38.9518 17.6874 39.1136 31.0518 39.1136 47.0325V76.2361L37.4951 76.5189C33.8535 77.3674 28.7147 77.3674 28.5529 76.6603Z" fill="#F8DFA5"/>
<path d="M41.3398 46.8911V17.334L44.6983 17.7582C46.5191 18.0411 49.0682 18.2532 50.363 18.2532H52.6694V46.8911V75.5291H50.5654C49.3919 75.5291 46.8428 75.7412 44.9006 76.024L41.3398 76.4483V46.8911Z" fill="#F8DFA5"/>
</g>
<defs>
<filter id="filter0_dd_761_7324" x="0" y="0" width="257" height="101.914" filterUnits="userSpaceOnUse" color-interpolation-filters="sRGB">
<feFlood flood-opacity="0" result="BackgroundImageFix"/>
<feColorMatrix in="SourceAlpha" type="matrix" values="0 0 0 0 0 0 0 0 0 0 0 0 0 0 0 0 0 0 127 0" result="hardAlpha"/>
<feOffset dy="4"/>
<feGaussianBlur stdDeviation="2"/>
<feComposite in2="hardAlpha" operator="out"/>
<feColorMatrix type="matrix" values="0 0 0 0 0 0 0 0 0 0 0 0 0 0 0 0 0 0 0.25 0"/>
<feBlend mode="normal" in2="BackgroundImageFix" result="effect1_dropShadow_761_7324"/>
<feColorMatrix in="SourceAlpha" type="matrix" values="0 0 0 0 0 0 0 0 0 0 0 0 0 0 0 0 0 0 127 0" result="hardAlpha"/>
<feOffset dy="4"/>
<feGaussianBlur stdDeviation="2"/>
<feComposite in2="hardAlpha" operator="out"/>
<feColorMatrix type="matrix" values="0 0 0 0 0 0 0 0 0 0 0 0 0 0 0 0 0 0 0.25 0"/>
<feBlend mode="normal" in2="effect1_dropShadow_761_7324" result="effect2_dropShadow_761_7324"/>
<feBlend mode="normal" in="SourceGraphic" in2="effect2_dropShadow_761_7324" result="shape"/>
</filter>
</defs>
</svg>
