<svg width="66" height="66" viewBox="0 0 66 66" fill="none" xmlns="http://www.w3.org/2000/svg">
<circle cx="33" cy="33" r="33" fill="white" fill-opacity="0.7"/>
<path d="M33.781 53.3337C33.3162 53.3366 32.8589 53.222 32.4563 53.0017C32.0536 52.7814 31.72 52.4634 31.4897 52.0803L27.9554 46.3106C27.933 46.2701 27.8963 46.2384 27.8517 46.2211C27.8071 46.2037 27.7575 46.2019 27.7116 46.2158L20.9305 47.9294C20.4826 48.0413 20.0116 48.0398 19.5645 47.9252C19.1173 47.8106 18.7097 47.5867 18.3822 47.276C18.0546 46.9653 17.8187 46.5786 17.6979 46.1544C17.577 45.7301 17.5755 45.2833 17.6935 44.8584L19.5167 38.3834C19.5296 38.3398 19.5267 38.2934 19.5086 38.2515C19.4905 38.2096 19.4582 38.1746 19.4168 38.1521L13.3231 34.8244C12.9206 34.604 12.5865 34.287 12.3542 33.9052C12.1218 33.5234 11.9995 33.0904 11.9995 32.6495C11.9995 32.2087 12.1218 31.7756 12.3542 31.3938C12.5865 31.0121 12.9206 30.695 13.3231 30.4746L19.3997 27.14C19.4414 27.1178 19.474 27.0829 19.4922 27.0409C19.5103 26.9989 19.5129 26.9523 19.4997 26.9087L17.6935 20.4754C17.5755 20.0504 17.577 19.6036 17.6979 19.1794C17.8187 18.7552 18.0546 18.3684 18.3822 18.0577C18.7097 17.747 19.1173 17.5232 19.5645 17.4085C20.0116 17.2939 20.4826 17.2924 20.9305 17.4044L27.7555 19.1341C27.8015 19.1451 27.8499 19.1418 27.8938 19.1248C27.9377 19.1077 27.9746 19.0777 27.9992 19.0393L31.5068 13.2581C31.7354 12.8768 32.0661 12.5597 32.4655 12.3387C32.8649 12.1178 33.3187 12.001 33.781 12.0001C34.2458 11.9972 34.703 12.1118 35.1057 12.332C35.5084 12.5523 35.842 12.8703 36.0722 13.2534L39.6066 19.0231C39.629 19.0636 39.6657 19.0953 39.7103 19.1127C39.7549 19.13 39.8045 19.1319 39.8504 19.1179L46.6315 17.4044C47.0794 17.2924 47.5504 17.2939 47.9975 17.4085C48.4447 17.5232 48.8523 17.747 49.1798 18.0577C49.5073 18.3684 49.7433 18.7552 49.8641 19.1794C49.985 19.6036 49.9865 20.0504 49.8685 20.4754L48.0452 26.9504C48.032 26.994 48.0346 27.0405 48.0528 27.0825C48.0709 27.1245 48.1035 27.1594 48.1452 27.1816L54.2389 30.5093C54.6413 30.7297 54.9755 31.0468 55.2078 31.4285C55.4402 31.8103 55.5625 32.2434 55.5625 32.6842C55.5625 33.125 55.4402 33.5581 55.2078 33.9399C54.9755 34.3217 54.6413 34.6387 54.2389 34.8591L48.1622 38.1937C48.1211 38.2165 48.0891 38.2515 48.071 38.2933C48.053 38.3351 48.0499 38.3814 48.0623 38.425L49.8856 44.863C50.0038 45.2893 50.0019 45.7376 49.8799 46.1629C49.7579 46.5883 49.5201 46.9757 49.1905 47.2863C48.8608 47.597 48.4508 47.8199 48.0017 47.9328C47.5525 48.0456 47.08 48.0445 46.6315 47.9294L39.8065 46.1996C39.7605 46.1879 39.7118 46.1908 39.6677 46.2079C39.6237 46.225 39.5868 46.2554 39.5627 46.2944L36.0552 52.0757C35.8252 52.4593 35.4918 52.778 35.0891 52.9991C34.6865 53.2201 34.2291 53.3356 33.7639 53.3337H33.781ZM27.7701 43.8894C28.2347 43.8895 28.6911 44.0051 29.094 44.2246C29.4968 44.4441 29.832 44.7598 30.0662 45.1405L33.5957 50.9217C33.6134 50.9528 33.6399 50.9786 33.6722 50.9962C33.7045 51.0137 33.7413 51.0224 33.7786 51.0212C33.8154 51.0222 33.8518 51.0135 33.8837 50.9959C33.9156 50.9783 33.9417 50.9526 33.9589 50.9217L37.4689 45.1405C37.7589 44.6607 38.2082 44.2855 38.7466 44.0734C39.285 43.8613 39.8822 43.8243 40.4451 43.9681L47.2701 45.6955C47.3059 45.7043 47.3434 45.704 47.379 45.6948C47.4146 45.6856 47.447 45.6677 47.4731 45.643C47.4992 45.6182 47.5181 45.5874 47.5278 45.5536C47.5375 45.5199 47.5377 45.4843 47.5285 45.4504L45.7077 39.0101C45.5566 38.4774 45.594 37.9124 45.8142 37.4019C46.0343 36.8914 46.4251 36.4636 46.9264 36.1842L53.0202 32.8357C53.0527 32.8184 53.0797 32.7932 53.0985 32.7627C53.1173 32.7323 53.1272 32.6976 53.1272 32.6622C53.1272 32.6269 53.1173 32.5922 53.0985 32.5617C53.0797 32.5313 53.0527 32.5061 53.0202 32.4888L46.9264 29.1611C46.4216 28.8851 46.0269 28.4588 45.8035 27.9483C45.58 27.4378 45.5404 26.8716 45.6906 26.3376L47.5114 19.8626C47.5226 19.829 47.5236 19.7932 47.5141 19.7592C47.5046 19.7252 47.4851 19.6945 47.4578 19.6706C47.4315 19.6449 47.3984 19.6263 47.3619 19.617C47.3255 19.6076 47.287 19.6078 47.2506 19.6174L40.4646 21.3449C39.9032 21.4886 39.3075 21.4533 38.7693 21.2444C38.2311 21.0355 37.7802 20.6645 37.486 20.1886L33.9565 14.4074C33.9388 14.3782 33.9131 14.354 33.8823 14.3374C33.8515 14.3207 33.8165 14.3122 33.781 14.3126C33.7441 14.3115 33.7077 14.3203 33.6758 14.3378C33.644 14.3554 33.6179 14.3811 33.6006 14.412L30.0906 20.1932C29.7993 20.6724 29.3495 21.0469 28.811 21.2589C28.2725 21.4709 27.6753 21.5084 27.112 21.3657L20.287 19.6382C20.2513 19.6295 20.2137 19.6297 20.1781 19.6389C20.1425 19.6481 20.1101 19.666 20.084 19.6908C20.0579 19.7155 20.0391 19.7463 20.0293 19.7801C20.0196 19.8139 20.0194 19.8495 20.0286 19.8834L21.8616 26.3167C22.0127 26.8494 21.9753 27.4144 21.7551 27.9249C21.535 28.4354 21.1442 28.8632 20.6429 29.1426L14.5491 32.4911C14.5142 32.5068 14.4847 32.5317 14.4644 32.5629C14.4441 32.5941 14.4337 32.6302 14.4346 32.6669C14.4334 32.7018 14.4427 32.7364 14.4612 32.7666C14.4797 32.7969 14.5068 32.8216 14.5394 32.838L20.6331 36.168C21.1376 36.4443 21.5321 36.8706 21.7555 37.381C21.9789 37.8915 22.0188 38.4575 21.8689 38.9916L20.0481 45.4666C20.0369 45.5001 20.036 45.5359 20.0455 45.5699C20.055 45.6039 20.0745 45.6346 20.1017 45.6585C20.1282 45.684 20.1613 45.7024 20.1977 45.7118C20.2341 45.7211 20.2725 45.7211 20.3089 45.7117L27.0949 43.9842C27.3147 43.9249 27.5417 43.893 27.7701 43.8894Z" fill="black"/>
<path d="M33.7793 41.6278C31.9112 41.6278 30.085 41.1023 28.5318 40.1176C26.9785 39.133 25.7679 37.7335 25.053 36.0961C24.3381 34.4587 24.151 32.6569 24.5155 30.9187C24.8799 29.1804 25.7795 27.5837 27.1005 26.3305C28.4214 25.0773 30.1044 24.2239 31.9366 23.8781C33.7688 23.5324 35.668 23.7098 37.3939 24.388C39.1198 25.0663 40.5949 26.2148 41.6328 27.6884C42.6707 29.1621 43.2246 30.8946 43.2246 32.6669C43.2214 35.0425 42.2252 37.32 40.4546 38.9998C38.6839 40.6797 36.2834 41.6248 33.7793 41.6278ZM33.7793 26.0184C32.3933 26.0184 31.0384 26.4084 29.886 27.1389C28.7335 27.8694 27.8353 28.9078 27.3049 30.1226C26.7745 31.3375 26.6357 32.6743 26.9061 33.9639C27.1765 35.2536 27.844 36.4382 28.824 37.368C29.8041 38.2978 31.0528 38.931 32.4121 39.1876C33.7715 39.4441 35.1806 39.3124 36.4611 38.8092C37.7416 38.306 38.8361 37.4539 39.6061 36.3605C40.3761 35.2672 40.7871 33.9818 40.7871 32.6669C40.7845 30.9044 40.0454 29.2147 38.7317 27.9684C37.4181 26.7221 35.6371 26.0209 33.7793 26.0184Z" fill="black"/>
</svg>
