<svg width="22" height="20" viewBox="0 0 22 20" fill="none" xmlns="http://www.w3.org/2000/svg">
<path d="M20.9531 5.21875C20.8594 7.28125 19.4531 10.0469 16.6875 13.6094C13.8281 17.3125 11.4375 19.1875 9.42188 19.1875C8.20312 19.1875 7.17188 18.0625 6.32812 15.8125C4.6875 9.71875 3.98438 6.20312 2.625 6.20312C2.4375 6.20312 1.92188 6.53125 0.984375 7.1875L0 5.92188C2.39062 3.76562 4.6875 1.42188 6.14062 1.28125C7.78125 1.14062 8.8125 2.26562 9.1875 4.65625C10.5 13.1406 11.1094 14.4531 13.5469 10.5625C14.4375 9.20312 14.9062 8.125 15 7.42188C15.1875 5.26562 13.3125 5.40625 12 5.96875C13.0312 2.59375 15 0.953125 17.9062 1.04688C20.0625 1.09375 21.0938 2.5 20.9531 5.21875Z" fill="white"/>
</svg>
