<svg width="430" height="659" viewBox="0 0 430 659" fill="none" xmlns="http://www.w3.org/2000/svg">
<path d="M305.038 167.044C305.814 167.044 306.562 167.161 307.289 167.343C311.52 151.407 324.967 139.745 340.932 139.745C347.423 139.745 353.481 141.705 358.694 145.062C366.507 136.386 377.377 131 389.403 131C408.842 131 425.266 145.061 430.621 164.369C430.902 164.349 431.182 164.322 431.468 164.322C438.389 164.322 444 170.446 444 178H432.467H418.936H375.984H346.339H315.075H305.882H295C295 171.949 299.493 167.044 305.038 167.044Z" fill="url(#paint0_linear_296_2185)"/>
<path d="M110.92 181.615C109.831 181.615 108.782 181.78 107.763 182.036C101.828 159.657 82.9659 143.281 60.5712 143.281C51.467 143.281 42.9694 146.033 35.6576 150.746C24.6982 138.563 9.45161 131 -7.41719 131C-34.6849 131 -57.7225 150.745 -65.2331 177.859C-65.6277 177.83 -66.0201 177.793 -66.4212 177.793C-76.1299 177.793 -84 186.392 -84 197H-67.8224H-48.8436H11.4056H52.9869H96.841H109.736H125C125 188.503 118.697 181.615 110.92 181.615Z" fill="url(#paint1_linear_296_2185)"/>
<path d="M195.424 466.578C194.605 466.578 193.817 466.7 193.052 466.89C188.594 450.276 174.424 438.117 157.601 438.117C150.762 438.117 144.379 440.161 138.886 443.66C130.654 434.615 119.2 429 106.529 429C86.0453 429 68.7396 443.659 63.0976 463.789C62.8012 463.768 62.5064 463.74 62.2051 463.74C54.912 463.74 49 470.124 49 478H61.1525H75.4094H120.668H151.904H184.847H194.534H206C206 471.692 201.265 466.578 195.424 466.578Z" fill="url(#paint2_linear_296_2185)"/>
<path d="M264.732 443.247C265.717 443.247 266.666 443.394 267.588 443.623C272.954 423.618 290.012 408.978 310.263 408.978C318.496 408.978 326.181 411.439 332.793 415.652C342.704 404.761 356.491 398 371.746 398C396.404 398 417.237 415.651 424.029 439.889C424.386 439.863 424.741 439.83 425.103 439.83C433.883 439.83 441 447.517 441 457H426.371H409.208H354.724H317.122H277.464H265.804H252C252 449.404 257.7 443.247 264.732 443.247Z" fill="url(#paint3_linear_296_2185)"/>
<path d="M234.082 141.639C233.702 141.639 233.335 141.696 232.979 141.785C230.907 133.987 224.318 128.28 216.496 128.28C213.316 128.28 210.348 129.239 207.794 130.881C203.966 126.635 198.641 124 192.749 124C183.225 124 175.178 130.881 172.555 140.33C172.417 140.32 172.28 140.307 172.14 140.307C168.749 140.307 166 143.303 166 147H171.651H178.28H199.323H213.847H229.165H233.668H239C239 144.039 236.799 141.639 234.082 141.639Z" fill="url(#paint4_linear_296_2185)"/>
<path d="M80.915 429.202L81.0904 426.452C83.4597 426.517 85.9247 425.127 87.2971 422.973C85.3835 423.031 83.5462 422.353 82.2904 420.97C80.6849 419.198 79.6658 416.289 81.0075 413.784C82.2224 411.515 84.9278 410.588 87.3114 411.63C89.1028 412.411 90.3387 413.882 90.8887 415.883C91.1138 416.702 91.2134 417.587 91.1943 418.495C93.0251 416.744 93.8709 414.23 94.228 412.761L96.6913 413.352C95.7973 417.016 93.9553 419.944 91.5034 421.595C91.1766 421.815 90.8396 422.007 90.4949 422.175C90.2448 422.866 89.9316 423.54 89.5543 424.175C87.6933 427.319 84.3019 429.293 80.915 429.202ZM85.8935 414.055C84.9153 413.797 83.7364 414.08 83.2 415.082C82.5649 416.268 83.1971 417.952 84.1497 419.003C85.2375 420.203 86.938 420.443 88.4709 420.053C88.7105 418.901 88.7127 417.746 88.4427 416.766C88.1048 415.535 87.3738 414.667 86.2691 414.184C86.1482 414.133 86.0222 414.089 85.8935 414.055Z" fill="url(#paint5_linear_296_2185)"/>
<path d="M78.2385 157.86C76.0614 154.211 76.2397 149.621 76.5637 146.486C76.6391 145.774 76.7247 145.061 76.8139 144.346C77.1255 141.812 77.4189 139.418 77.0819 137.206L81.9658 136.12C82.42 139.104 82.0634 142.011 81.7192 144.821C81.6364 145.5 81.5535 146.178 81.4813 146.853C81.0941 150.616 81.3849 153.078 82.4358 154.831L78.2385 157.86Z" fill="url(#paint6_linear_296_2185)"/>
<path d="M51.8654 483.639C53.0881 485.135 53.2896 487.228 53.3337 488.67C53.3432 488.998 53.3481 489.327 53.3506 489.657C53.3641 490.827 53.3761 491.932 53.6673 492.91L51.4943 493.752C51.1018 492.433 51.0868 491.092 51.0712 489.794C51.0676 489.48 51.0637 489.168 51.0551 488.857C51.0013 487.124 50.7165 486.031 50.1263 485.312L51.8654 483.639Z" fill="url(#paint7_linear_296_2185)"/>
<path d="M46.9444 169.726C48.3318 171.045 48.7644 173.085 48.9697 174.505C49.0154 174.828 49.0565 175.152 49.0962 175.478C49.2395 176.631 49.3756 177.722 49.7743 178.648L47.699 179.762C47.1609 178.511 46.9959 177.186 46.8367 175.907C46.798 175.598 46.7592 175.29 46.7168 174.983C46.4696 173.279 46.0634 172.236 45.3952 171.602L46.9444 169.726Z" fill="url(#paint8_linear_296_2185)"/>
<path d="M128.773 464.354C130.129 462.872 132.06 462.426 133.395 462.22C133.698 462.174 134.002 462.133 134.307 462.093C135.389 461.951 136.412 461.817 137.309 461.395L138.139 463.645C136.927 464.212 135.686 464.376 134.485 464.535C134.196 464.573 133.906 464.612 133.619 464.654C132.018 464.903 131.012 465.329 130.36 466.044L128.773 464.354Z" fill="url(#paint9_linear_296_2185)"/>
<path d="M62.3482 267.594C64.8204 264.819 68.3785 263.943 70.8413 263.526C71.4011 263.433 71.9629 263.349 72.5261 263.267C74.5236 262.974 76.4099 262.697 78.0598 261.896L79.6466 266.027C77.4205 267.107 75.1298 267.444 72.9139 267.77C72.3798 267.848 71.8455 267.928 71.3144 268.015C68.3596 268.517 66.5112 269.334 65.3225 270.672L62.3482 267.594Z" fill="url(#paint10_linear_296_2185)"/>
<path d="M452.802 402.563C439.934 310.016 348.586 322.718 361.454 415.265C377.692 532.045 411.304 623.87 436.529 620.362C461.754 616.855 469.04 519.342 452.802 402.563Z" fill="url(#paint11_linear_296_2185)"/>
<path opacity="0.2" d="M373.39 483.241C382.739 462.574 379.498 447.927 379.498 447.927L367.058 450.81C369.028 461.97 371.147 472.806 373.39 483.241Z" fill="#999999"/>
<path d="M436.557 620.548C428.29 621.698 417.48 600.724 406.119 561.491C394.784 522.349 384.215 469.681 376.36 413.192C373.375 391.719 374.181 373.226 378.693 359.715C382.709 347.686 389.371 340.443 397.453 339.319C405.534 338.196 413.92 343.347 421.066 353.823C429.093 365.592 434.914 383.162 437.899 404.635C445.754 461.125 449.955 514.677 449.729 555.428C449.501 596.272 444.823 619.399 436.557 620.548ZM397.504 339.689C389.553 340.794 382.986 347.954 379.015 359.849C374.522 373.303 373.721 391.734 376.699 413.145C392.896 529.637 419.726 622.512 436.505 620.179C453.285 617.846 453.757 521.175 437.56 404.683C434.582 383.27 428.783 365.759 420.791 354.04C413.726 343.679 405.456 338.583 397.504 339.689Z" fill="url(#paint12_linear_296_2185)"/>
<path d="M436.557 620.548C432.513 621.11 425.143 587.708 419.673 559.589C411.961 519.948 403.388 467.01 395.534 410.525C388.886 362.709 391.868 340.095 397.453 339.319C403.038 338.542 412.076 359.484 418.725 407.301C426.579 463.785 432.774 517.053 436.17 557.295C438.578 585.84 440.6 619.986 436.557 620.548ZM397.504 339.689C391.91 340.466 389.553 365.032 395.873 410.479C403.725 466.956 412.297 519.887 420.007 559.521C430.77 614.842 435.13 620.37 436.505 620.179C437.88 619.988 440.567 613.48 435.828 557.321C432.432 517.087 426.238 463.826 418.385 407.349C412.067 361.901 403.098 338.911 397.504 339.689Z" fill="url(#paint13_linear_296_2185)"/>
<g opacity="0.4">
<path d="M372.772 357.573C369.499 362.504 366.982 368.306 365.288 374.821C365.084 375.607 365.508 376.441 366.236 376.682C366.429 376.746 366.625 376.763 366.811 376.737C367.327 376.665 367.774 376.273 367.924 375.695C369.532 369.508 371.915 364.011 375.005 359.355C375.442 358.697 375.297 357.762 374.68 357.271C374.066 356.779 373.21 356.913 372.772 357.573Z" fill="white"/>
<path d="M438.079 364.699C428.069 347.64 412.961 338.725 397.665 340.852C390.138 341.899 383.142 345.644 377.435 351.682C376.9 352.249 376.899 353.192 377.433 353.788C377.966 354.382 378.832 354.408 379.369 353.842C384.66 348.243 391.128 344.774 398.076 343.808C412.277 341.834 426.373 350.227 435.782 366.26C436.084 366.776 436.622 367.03 437.138 366.958C437.324 366.932 437.507 366.864 437.676 366.748C438.31 366.318 438.491 365.401 438.079 364.699Z" fill="white"/>
</g>
<path d="M417.189 590.006L413.858 588.888L413.921 588.648L417.069 589.705L418.551 586.569L418.757 586.688L417.189 590.006Z" fill="url(#paint14_linear_296_2185)"/>
<path d="M417.175 589.954L414.679 587.108L414.845 586.938L416.896 589.276L416.673 586.121L416.903 586.107L417.175 589.954Z" fill="url(#paint15_linear_296_2185)"/>
<path opacity="0.2" d="M431.606 585.322C418.682 587.119 405.171 576.272 393.469 557.029C407.579 597.678 423.188 622.254 436.485 620.405C449.781 618.556 458.093 590.655 460.578 547.698C454.57 569.404 444.531 583.525 431.606 585.322Z" fill="#999999"/>
<path d="M322.978 448.136C308.392 432.302 345.349 391.992 359.935 407.826C378.341 427.807 384.989 453.028 374.783 464.159C364.577 475.291 341.383 468.118 322.978 448.136Z" fill="url(#paint16_linear_296_2185)"/>
<path d="M328.988 441.58C321.41 433.354 324.421 422.558 330.426 416.009C336.43 409.459 346.345 406.156 353.923 414.383C372.348 434.386 381.745 456.76 374.871 464.258C367.997 471.756 347.413 461.583 328.988 441.58ZM329.163 441.39C347.49 461.286 367.914 471.456 374.693 464.063C381.471 456.669 372.075 434.469 353.749 414.573C346.294 406.481 336.527 409.745 330.606 416.203C324.685 422.661 321.708 433.297 329.163 441.39Z" fill="url(#paint17_linear_296_2185)"/>
<path d="M336.746 433.119C329.168 424.892 328.158 418.483 330.426 416.008C332.695 413.534 338.588 414.617 346.166 422.844C364.904 443.186 377.513 461.377 374.871 464.257C372.23 467.139 355.483 453.461 336.746 433.119ZM330.19 422.498C331.226 425.667 333.554 429.274 336.919 432.928C345.817 442.587 354.661 451.143 361.825 457.02C368.832 462.77 373.522 465.336 374.691 464.062C375.861 462.787 373.49 457.691 368.19 450.078C362.772 442.298 354.888 432.693 345.991 423.035C338.536 414.942 332.789 413.82 330.605 416.203C329.429 417.486 329.282 419.721 330.19 422.498Z" fill="url(#paint18_linear_296_2185)"/>
<path opacity="0.4" d="M321.29 438.346C321.394 435.913 322.048 433.222 323.234 430.346C325.921 423.821 330.922 417.305 336.952 412.472C337.437 412.084 338.128 412.203 338.5 412.741C338.868 413.279 338.775 414.03 338.29 414.42C332.631 418.956 327.758 425.293 325.253 431.374C324.178 433.979 323.588 436.382 323.496 438.516C323.468 439.179 322.951 439.677 322.341 439.631C322.336 439.631 322.329 439.63 322.324 439.63C321.724 439.571 321.261 439.001 321.29 438.346ZM340.295 411.452C339.98 410.875 340.149 410.142 340.671 409.812C345.085 407.034 349.236 405.737 352.674 406.06C353.284 406.117 353.746 406.7 353.708 407.361C353.67 408.022 353.146 408.511 352.537 408.454C349.591 408.177 345.782 409.401 341.811 411.9C341.612 412.025 341.39 412.074 341.173 412.053C340.824 412.02 340.489 411.808 340.295 411.452Z" fill="white"/>
<path opacity="0.2" d="M346.547 461.241C383.599 474.817 378.635 442.14 378.332 440.319C380.699 450.102 379.716 458.779 374.782 464.16C364.576 475.291 341.383 468.117 322.977 448.136C329.043 453.338 339.965 458.83 346.547 461.241Z" fill="#999999"/>
<path d="M392.676 508.68L389.703 506.671L389.821 506.458L392.631 508.358L394.817 505.764L394.988 505.936L392.676 508.68Z" fill="url(#paint19_linear_296_2185)"/>
<path d="M392.673 508.625L390.922 505.193L391.124 505.076L392.563 507.895L393.095 504.804L393.322 504.856L392.673 508.625Z" fill="url(#paint20_linear_296_2185)"/>
<path d="M422.432 433.978L419.458 431.968L419.577 431.756L422.387 433.655L424.572 431.061L424.744 431.233L422.432 433.978Z" fill="url(#paint21_linear_296_2185)"/>
<path d="M422.429 433.923L420.678 430.491L420.88 430.373L422.319 433.194L422.851 430.102L423.078 430.153L422.429 433.923Z" fill="url(#paint22_linear_296_2185)"/>
<path d="M420.442 561.826L417.468 559.817L417.586 559.604L420.397 561.503L422.582 558.909L422.754 559.082L420.442 561.826Z" fill="url(#paint23_linear_296_2185)"/>
<path d="M420.439 561.772L418.688 558.339L418.89 558.222L420.329 561.042L420.86 557.951L421.088 558.003L420.439 561.772Z" fill="url(#paint24_linear_296_2185)"/>
<path d="M384.965 390.513L381.992 388.504L382.11 388.291L384.92 390.19L387.105 387.597L387.277 387.769L384.965 390.513Z" fill="url(#paint25_linear_296_2185)"/>
<path d="M384.962 390.459L383.212 387.026L383.413 386.908L384.851 389.729L385.384 386.638L385.61 386.689L384.962 390.459Z" fill="url(#paint26_linear_296_2185)"/>
<path d="M425.041 376.592L422.068 374.582L422.186 374.37L424.996 376.269L427.181 373.675L427.353 373.848L425.041 376.592Z" fill="url(#paint27_linear_296_2185)"/>
<path d="M425.036 376.537L423.286 373.105L423.488 372.988L424.926 375.808L425.458 372.717L425.685 372.769L425.036 376.537Z" fill="url(#paint28_linear_296_2185)"/>
<path d="M395.492 344.975L392.519 342.965L392.637 342.753L395.447 344.652L397.632 342.058L397.804 342.23L395.492 344.975Z" fill="url(#paint29_linear_296_2185)"/>
<path d="M395.489 344.92L393.737 341.488L393.94 341.37L395.378 344.191L395.91 341.1L396.137 341.151L395.489 344.92Z" fill="url(#paint30_linear_296_2185)"/>
<path d="M429.156 501.698L426.183 499.688L426.301 499.475L429.111 501.376L431.296 498.781L431.468 498.953L429.156 501.698Z" fill="url(#paint31_linear_296_2185)"/>
<path d="M429.152 501.643L427.401 498.21L427.603 498.093L429.042 500.913L429.574 497.822L429.801 497.874L429.152 501.643Z" fill="url(#paint32_linear_296_2185)"/>
<path d="M412.201 474.268L409.228 472.258L409.346 472.046L412.156 473.945L414.341 471.351L414.513 471.523L412.201 474.268Z" fill="url(#paint33_linear_296_2185)"/>
<path d="M412.198 474.213L410.446 470.781L410.649 470.663L412.087 473.484L412.619 470.393L412.845 470.444L412.198 474.213Z" fill="url(#paint34_linear_296_2185)"/>
<path d="M379.542 433.611L376.57 431.601L376.688 431.388L379.497 433.288L381.683 430.694L381.855 430.866L379.542 433.611Z" fill="url(#paint35_linear_296_2185)"/>
<path d="M379.539 433.556L377.788 430.123L377.99 430.006L379.428 432.826L379.961 429.734L380.187 429.786L379.539 433.556Z" fill="url(#paint36_linear_296_2185)"/>
<path d="M340.613 451.083L337.168 450.615L337.191 450.366L340.447 450.808L341.393 447.424L341.613 447.502L340.613 451.083Z" fill="url(#paint37_linear_296_2185)"/>
<path d="M340.59 451.034L337.684 448.699L337.819 448.499L340.206 450.417L339.478 447.34L339.701 447.283L340.59 451.034Z" fill="url(#paint38_linear_296_2185)"/>
<path d="M368.195 450.622L364.735 450.701L364.725 450.45L367.995 450.375L368.477 446.865L368.704 446.909L368.195 450.622Z" fill="url(#paint39_linear_296_2185)"/>
<path d="M368.165 450.578L364.988 448.717L365.095 448.497L367.705 450.025L366.576 447.085L366.789 446.993L368.165 450.578Z" fill="url(#paint40_linear_296_2185)"/>
<path d="M358.986 420.171L355.526 420.251L355.516 419.999L358.786 419.925L359.268 416.415L359.495 416.459L358.986 420.171Z" fill="url(#paint41_linear_296_2185)"/>
<path d="M358.954 420.127L355.777 418.267L355.884 418.046L358.494 419.575L357.365 416.635L357.578 416.543L358.954 420.127Z" fill="url(#paint42_linear_296_2185)"/>
<path d="M333.105 428.761L329.646 428.841L329.635 428.589L332.904 428.514L333.386 425.005L333.614 425.048L333.105 428.761Z" fill="url(#paint43_linear_296_2185)"/>
<path d="M333.073 428.717L329.896 426.857L330.002 426.636L332.613 428.164L331.484 425.224L331.697 425.132L333.073 428.717Z" fill="url(#paint44_linear_296_2185)"/>
<path d="M341.275 410.294L337.816 410.374L337.805 410.123L341.074 410.048L341.556 406.538L341.784 406.582L341.275 410.294Z" fill="url(#paint45_linear_296_2185)"/>
<path d="M341.243 410.25L338.066 408.39L338.173 408.169L340.782 409.698L339.654 406.758L339.867 406.666L341.243 410.25Z" fill="url(#paint46_linear_296_2185)"/>
<path d="M400.472 318.914C402.988 310.73 406.906 309.45 410.791 310.953C414.676 312.457 417.059 316.174 414.543 324.358C412.027 332.543 405.566 342.096 401.68 340.593C397.795 339.089 397.956 327.099 400.472 318.914Z" fill="url(#paint47_linear_296_2185)"/>
<path opacity="0.3" d="M409.932 324.526C409.942 324.494 409.925 324.458 409.896 324.447C409.866 324.435 409.834 324.452 409.824 324.484C407.584 331.771 403.388 340.423 401.632 340.378C401.93 340.066 402.643 338.76 404.541 333.573C406.052 329.438 407.796 324.234 409.204 319.653C409.214 319.62 409.197 319.584 409.168 319.573C409.138 319.561 409.106 319.578 409.096 319.61C407.688 324.19 405.946 329.392 404.434 333.524C401.954 340.309 401.512 340.362 401.47 340.346C401.427 340.329 401.109 339.982 402.883 332.925C403.963 328.625 405.449 323.324 406.857 318.744C406.867 318.712 406.851 318.677 406.821 318.665C406.791 318.653 406.759 318.67 406.749 318.702C405.341 323.284 403.854 328.587 402.773 332.889C401.417 338.285 401.261 339.808 401.325 340.259C399.917 339.081 401.366 329.366 403.607 322.079C403.617 322.047 403.601 322.012 403.571 322C403.541 321.988 403.509 322.005 403.498 322.037C401.387 328.905 399.597 339.58 401.396 340.441C401.41 340.452 401.424 340.458 401.435 340.463C401.446 340.469 401.461 340.471 401.477 340.473C403.366 341.038 407.821 331.395 409.932 324.526Z" fill="url(#paint48_linear_296_2185)"/>
<path d="M411.368 326.694C417.181 322.235 420.716 323.547 422.887 326.843C425.058 330.139 425.044 334.172 419.231 338.63C413.418 343.089 404.006 346.284 401.835 342.988C399.664 339.693 405.555 331.152 411.368 326.694Z" fill="url(#paint49_linear_296_2185)"/>
<path d="M389.384 320.485C384.7 313.32 380.582 313.179 377.266 315.702C373.949 318.226 372.689 322.458 377.373 329.623C382.056 336.788 390.909 344.172 394.226 341.649C397.543 339.125 394.068 327.65 389.384 320.485Z" fill="url(#paint50_linear_296_2185)"/>
<path opacity="0.3" d="M381.885 328.499C381.866 328.47 381.872 328.431 381.898 328.412C381.923 328.393 381.959 328.4 381.977 328.428C386.147 334.808 392.575 341.954 394.249 341.423C393.877 341.207 392.829 340.15 389.57 335.693C386.972 332.14 383.857 327.625 381.235 323.614C381.216 323.585 381.222 323.546 381.248 323.528C381.274 323.508 381.309 323.515 381.327 323.544C383.948 327.552 387.063 332.066 389.659 335.617C393.921 341.447 394.361 341.375 394.396 341.347C394.432 341.32 394.642 340.899 390.983 334.609C388.755 330.779 385.859 326.099 383.238 322.089C383.22 322.061 383.226 322.023 383.251 322.003C383.277 321.984 383.312 321.991 383.331 322.019C385.953 326.03 388.849 330.712 391.079 334.545C393.877 339.353 394.448 340.773 394.512 341.223C395.538 339.7 391.456 330.768 387.285 324.39C387.267 324.361 387.273 324.323 387.298 324.304C387.324 324.284 387.359 324.291 387.378 324.32C391.308 330.333 395.985 340.091 394.494 341.418C394.484 341.433 394.473 341.443 394.463 341.451C394.454 341.458 394.44 341.465 394.425 341.471C392.766 342.539 385.816 334.512 381.885 328.499Z" fill="url(#paint51_linear_296_2185)"/>
<path d="M387.537 320.273C386.319 311.65 389.227 308.555 393.273 307.981C397.319 307.408 400.971 309.575 402.188 318.197C403.406 326.819 401.729 338.632 397.683 339.205C393.637 339.779 388.755 328.895 387.537 320.273Z" fill="url(#paint52_linear_296_2185)"/>
<path opacity="0.3" d="M391.785 321.641C391.78 321.607 391.802 321.576 391.833 321.571C391.864 321.567 391.893 321.591 391.898 321.625C392.982 329.303 395.78 338.774 397.51 339.138C397.266 338.763 396.764 337.314 395.696 331.779C394.844 327.367 393.928 321.851 393.247 317.025C393.242 316.99 393.264 316.959 393.295 316.955C393.326 316.951 393.355 316.975 393.36 317.009C394.041 321.833 394.956 327.347 395.808 331.757C397.204 338.997 397.631 339.152 397.675 339.145C397.718 339.139 398.085 338.873 397.423 331.529C397.02 327.055 396.372 321.504 395.691 316.679C395.686 316.645 395.708 316.614 395.739 316.61C395.77 316.605 395.799 316.629 395.804 316.663C396.485 321.49 397.133 327.043 397.536 331.52C398.043 337.134 397.962 338.666 397.831 339.094C399.393 338.264 399.457 328.386 398.373 320.709C398.368 320.675 398.39 320.644 398.421 320.639C398.452 320.635 398.481 320.659 398.486 320.693C399.508 327.929 399.633 338.828 397.733 339.256C397.718 339.263 397.704 339.267 397.692 339.269C397.68 339.27 397.665 339.271 397.649 339.267C395.705 339.383 392.807 328.877 391.785 321.641Z" fill="url(#paint53_linear_296_2185)"/>
<path d="M381.071 330.985C374.251 328.316 371.218 330.558 370.046 334.328C368.872 338.097 370.003 341.969 376.822 344.638C383.643 347.307 393.57 347.764 394.743 343.994C395.916 340.223 387.891 333.654 381.071 330.985Z" fill="url(#paint54_linear_296_2185)"/>
<path opacity="0.3" d="M382.274 342.514C382.252 342.506 382.242 342.475 382.251 342.446C382.26 342.418 382.285 342.4 382.306 342.409C387.189 344.32 393.757 345.395 394.615 344.009C394.305 344.084 393.272 343.984 389.645 342.859C386.753 341.962 383.194 340.709 380.125 339.507C380.103 339.499 380.093 339.467 380.102 339.439C380.111 339.41 380.136 339.393 380.158 339.402C383.227 340.603 386.783 341.855 389.674 342.752C394.418 344.225 394.667 343.908 394.68 343.866C394.692 343.825 394.674 343.404 390.143 341.246C387.383 339.932 383.903 338.431 380.834 337.23C380.813 337.222 380.802 337.191 380.811 337.162C380.82 337.132 380.845 337.116 380.867 337.125C383.937 338.327 387.418 339.829 390.18 341.144C393.644 342.794 394.507 343.435 394.708 343.71C394.806 342.027 389.068 338.286 384.185 336.375C384.163 336.366 384.153 336.336 384.161 336.307C384.17 336.277 384.195 336.261 384.217 336.27C388.819 338.071 395.224 342.027 394.765 343.856C394.764 343.872 394.761 343.886 394.757 343.897C394.754 343.908 394.749 343.921 394.74 343.934C394.085 345.687 386.876 344.315 382.274 342.514Z" fill="url(#paint55_linear_296_2185)"/>
<path opacity="0.3" d="M413.876 338.038C413.894 338.024 413.895 337.991 413.878 337.967C413.862 337.942 413.833 337.932 413.815 337.946C409.652 341.139 403.64 343.995 402.432 342.902C402.751 342.888 403.715 342.505 406.888 340.417C409.418 338.751 412.49 336.559 415.107 334.552C415.126 334.539 415.126 334.506 415.11 334.481C415.094 334.456 415.065 334.446 415.046 334.461C412.431 336.467 409.36 338.659 406.831 340.322C402.681 343.055 402.354 342.819 402.33 342.784C402.306 342.748 402.208 342.337 405.964 339.006C408.252 336.977 411.179 334.568 413.795 332.561C413.814 332.547 413.816 332.515 413.798 332.489C413.782 332.464 413.753 332.454 413.734 332.469C411.118 334.476 408.189 336.886 405.9 338.917C403.029 341.464 402.377 342.321 402.26 342.641C401.7 341.051 406.178 335.863 410.34 332.671C410.359 332.657 410.36 332.625 410.343 332.599C410.326 332.574 410.297 332.564 410.279 332.579C406.356 335.588 401.298 341.168 402.245 342.798C402.251 342.813 402.258 342.826 402.264 342.835C402.271 342.844 402.279 342.855 402.291 342.866C403.405 344.366 409.952 341.046 413.876 338.038Z" fill="url(#paint56_linear_296_2185)"/>
<path d="M390.674 346.419C390.062 342.086 393.09 338.075 397.437 337.459C401.784 336.843 405.805 339.857 406.417 344.19C402.254 348.585 395.895 349.487 390.678 346.421L390.674 346.419Z" fill="url(#paint57_linear_296_2185)"/>
<g opacity="0.1">
<path d="M382.859 315.804C383.715 316.086 384.574 316.637 385.412 317.444C385.571 317.597 385.59 317.858 385.453 318.029C385.426 318.061 385.395 318.088 385.362 318.11C385.225 318.196 385.045 318.181 384.917 318.058C384.164 317.333 383.403 316.841 382.655 316.595C382.453 316.528 382.335 316.297 382.391 316.079C382.448 315.86 382.657 315.737 382.859 315.804Z" fill="white"/>
<path d="M375.841 323.514C375.17 320.385 376.031 318.113 378.475 316.563C379.538 315.888 380.486 315.575 381.459 315.573C381.669 315.573 381.843 315.758 381.848 315.987C381.853 316.215 381.688 316.4 381.478 316.4C380.644 316.401 379.814 316.679 378.869 317.279C377.398 318.212 375.809 319.744 376.582 323.343C376.62 323.524 376.546 323.7 376.409 323.787C376.376 323.807 376.338 323.824 376.298 323.833C376.094 323.88 375.89 323.737 375.841 323.514Z" fill="white"/>
</g>
<g opacity="0.1">
<path d="M405.541 312.591C404.796 313.1 404.124 313.869 403.542 314.877C403.432 315.068 403.487 315.324 403.666 315.449C403.701 315.473 403.738 315.49 403.775 315.502C403.931 315.547 404.1 315.482 404.189 315.329C404.712 314.424 405.306 313.739 405.956 313.295C406.132 313.175 406.182 312.92 406.067 312.726C405.952 312.531 405.716 312.471 405.541 312.591Z" fill="white"/>
<path d="M414.42 318.049C414.199 314.857 412.742 312.913 409.965 312.102C408.758 311.751 407.759 311.712 406.825 311.982C406.623 312.04 406.507 312.266 406.566 312.487C406.624 312.708 406.835 312.84 407.036 312.781C407.839 312.549 408.712 312.587 409.786 312.9C411.457 313.388 413.408 314.418 413.663 318.092C413.677 318.276 413.796 318.424 413.952 318.47C413.99 318.481 414.03 318.486 414.071 318.484C414.279 318.471 414.436 318.277 414.42 318.049Z" fill="white"/>
</g>
<g opacity="0.1">
<path d="M373.845 331.523C374.55 331.19 375.396 331.039 376.36 331.074C376.543 331.08 376.69 331.248 376.688 331.446C376.688 331.484 376.682 331.522 376.671 331.557C376.627 331.7 376.501 331.799 376.355 331.794C375.488 331.763 374.737 331.894 374.122 332.185C373.956 332.264 373.759 332.179 373.683 331.997C373.606 331.813 373.679 331.601 373.845 331.523Z" fill="white"/>
<path d="M373.251 341.059C371.195 339.345 370.581 337.273 371.375 334.724C371.72 333.616 372.176 332.822 372.811 332.225C372.948 332.096 373.157 332.116 373.278 332.268C373.4 332.42 373.387 332.648 373.25 332.776C372.706 333.287 372.31 333.984 372.002 334.97C371.525 336.505 371.28 338.518 373.646 340.491C373.764 340.589 373.807 340.754 373.762 340.897C373.752 340.932 373.736 340.966 373.714 340.997C373.605 341.154 373.398 341.182 373.251 341.059Z" fill="white"/>
</g>
<g opacity="0.1">
<path d="M418.318 325.224C417.549 325.101 416.694 325.19 415.778 325.491C415.603 325.548 415.509 325.749 415.565 325.94C415.576 325.977 415.592 326.011 415.613 326.042C415.696 326.167 415.843 326.228 415.983 326.182C416.806 325.912 417.564 325.829 418.236 325.938C418.418 325.967 418.583 325.831 418.605 325.634C418.628 325.436 418.499 325.254 418.318 325.224Z" fill="white"/>
<path d="M421.529 334.222C423.029 332.003 423.045 329.843 421.576 327.614C420.938 326.645 420.28 326.009 419.505 325.612C419.338 325.526 419.142 325.603 419.067 325.783C418.992 325.962 419.068 326.178 419.234 326.263C419.899 326.603 420.473 327.163 421.041 328.024C421.924 329.366 422.717 331.233 420.991 333.785C420.905 333.913 420.909 334.084 420.991 334.208C421.011 334.238 421.036 334.267 421.065 334.29C421.214 334.411 421.421 334.38 421.529 334.222Z" fill="white"/>
</g>
<g opacity="0.2">
<path d="M401.831 338.983C403.04 339.595 404.044 340.528 404.734 341.678C404.85 341.871 404.802 342.126 404.627 342.248C404.58 342.281 404.527 342.301 404.475 342.308C404.334 342.328 404.185 342.259 404.1 342.118C403.49 341.101 402.599 340.276 401.523 339.731C401.332 339.634 401.244 339.387 401.329 339.181C401.414 338.974 401.638 338.885 401.831 338.983Z" fill="white"/>
<path d="M391.592 343.539C392.332 340.751 394.671 338.686 397.551 338.278C398.444 338.151 399.339 338.19 400.21 338.393C400.416 338.442 400.551 338.661 400.512 338.884C400.473 339.107 400.273 339.248 400.068 339.201C399.281 339.018 398.474 338.983 397.666 339.098C395.077 339.464 392.98 341.305 392.322 343.786C392.28 343.945 392.156 344.052 392.014 344.073C391.961 344.08 391.906 344.075 391.852 344.057C391.651 343.989 391.534 343.758 391.592 343.539Z" fill="white"/>
</g>
<path d="M-21.7142 400.563C-8.84585 308.016 82.5022 320.718 69.6339 413.265C53.3959 530.045 19.7837 621.87 -5.44103 618.362C-30.6666 614.855 -37.952 517.342 -21.7142 400.563Z" fill="url(#paint58_linear_296_2185)"/>
<path opacity="0.2" d="M57.6981 481.241C48.3493 460.574 51.5899 445.927 51.5899 445.927L64.0302 448.81C62.0599 459.97 59.9414 470.806 57.6981 481.241Z" fill="#999999"/>
<path d="M-5.46722 618.548C2.79967 619.698 13.6099 598.724 24.9705 559.491C36.3057 520.349 46.8747 467.681 54.7294 411.192C57.7152 389.719 56.9084 371.226 52.3971 357.715C48.3807 345.686 41.7191 338.443 33.6368 337.319C25.5554 336.196 17.1696 341.346 10.024 351.823C1.99667 363.592 -3.82367 381.162 -6.80948 402.635C-14.6641 459.124 -18.8656 512.677 -18.6393 553.427C-18.4114 594.271 -13.7333 617.399 -5.46722 618.548ZM33.5855 337.689C41.5371 338.794 48.1038 345.954 52.0751 357.849C56.5677 371.303 57.3685 389.734 54.3913 411.145C38.1934 527.637 11.3641 620.512 -5.41503 618.179C-22.195 615.846 -22.6676 519.175 -6.46972 402.683C-3.49236 381.27 2.30687 363.759 10.2988 352.04C17.3639 341.679 25.6339 336.583 33.5855 337.689Z" fill="url(#paint59_linear_296_2185)"/>
<path d="M-5.46702 618.548C-1.42293 619.11 5.94656 585.708 11.417 557.589C19.1288 517.948 27.7015 465.01 35.5555 408.525C42.2043 360.709 39.2215 338.095 33.6372 337.319C28.052 336.542 19.0138 357.484 12.3651 405.301C4.51106 461.785 -1.68407 515.053 -5.08049 555.295C-7.48816 583.84 -9.51026 617.986 -5.46702 618.548ZM33.5857 337.689C39.1802 338.466 41.5367 363.032 35.2173 408.479C27.3644 464.956 18.7929 517.887 11.0828 557.521C0.320096 612.842 -4.03982 618.37 -5.41482 618.179C-6.78983 617.988 -9.47709 611.48 -4.73784 555.321C-1.34245 515.087 4.85167 461.826 12.7046 405.349C19.0231 359.901 27.9921 336.911 33.5857 337.689Z" fill="url(#paint60_linear_296_2185)"/>
<g opacity="0.4">
<path d="M58.3181 355.573C61.5907 360.504 64.1077 366.306 65.8014 372.821C66.0057 373.607 65.5813 374.441 64.8535 374.682C64.6606 374.746 64.465 374.763 64.2786 374.737C63.7627 374.665 63.3154 374.273 63.1655 373.695C61.5577 367.508 59.1751 362.011 56.0852 357.355C55.6474 356.697 55.7929 355.762 56.4094 355.271C57.0243 354.779 57.8797 354.913 58.3181 355.573Z" fill="white"/>
<path d="M-6.98959 362.699C3.02113 345.64 18.1287 336.725 33.4249 338.852C40.9516 339.899 47.9476 343.644 53.6545 349.682C54.1901 350.249 54.1913 351.192 53.6572 351.788C53.1235 352.382 52.2579 352.408 51.7205 351.842C46.4294 346.243 39.9614 342.774 33.0139 341.808C18.8128 339.834 4.71696 348.227 -4.69231 364.26C-4.99427 364.776 -5.53234 365.03 -6.04828 364.958C-6.2346 364.932 -6.41758 364.864 -6.58629 364.748C-7.21992 364.318 -7.40084 363.401 -6.98959 362.699Z" fill="white"/>
</g>
<path d="M13.8989 588.006L17.2297 586.888L17.1668 586.648L14.019 587.705L12.537 584.569L12.3305 584.689L13.8989 588.006Z" fill="url(#paint61_linear_296_2185)"/>
<path d="M13.9131 587.954L16.409 585.109L16.2428 584.938L14.1921 587.276L14.4151 584.121L14.1851 584.107L13.9131 587.954Z" fill="url(#paint62_linear_296_2185)"/>
<path opacity="0.2" d="M-0.516572 583.322C12.4081 585.119 25.9189 574.272 37.6211 555.029C23.5105 595.678 7.90174 620.254 -5.39476 618.405C-18.6913 616.556 -27.0032 588.655 -29.4886 545.698C-23.4802 567.404 -13.4413 581.525 -0.516572 583.322Z" fill="#999999"/>
<path d="M108.112 446.136C122.698 430.302 85.7412 389.992 71.1546 405.826C52.7492 425.807 46.1013 451.028 56.3068 462.159C66.5131 473.291 89.7065 466.118 108.112 446.136Z" fill="url(#paint63_linear_296_2185)"/>
<path d="M102.102 439.58C109.68 431.354 106.669 420.558 100.664 414.008C94.6598 407.459 84.745 404.156 77.1672 412.383C58.7415 432.386 49.3444 454.76 56.219 462.257C63.0926 469.756 83.6765 459.583 102.102 439.58ZM101.927 439.39C83.6001 459.286 63.1756 469.456 56.3973 462.063C49.6191 454.669 59.0144 432.469 77.341 412.573C84.7953 404.48 94.5633 407.745 100.484 414.203C106.405 420.661 109.382 431.297 101.927 439.39Z" fill="url(#paint64_linear_296_2185)"/>
<path d="M94.3443 431.119C101.922 422.892 102.932 416.483 100.664 414.008C98.3952 411.534 92.5016 412.617 84.9238 420.844C66.1854 441.186 53.5768 459.377 56.2183 462.257C58.8597 465.139 75.6067 451.461 94.3443 431.119ZM100.9 420.498C99.8637 423.667 97.5361 427.274 94.1707 430.928C85.2732 440.587 76.4284 449.143 69.2649 455.02C62.2575 460.77 57.5679 463.336 56.3985 462.062C55.2292 460.787 57.5998 455.691 62.9 448.078C68.3181 440.298 76.2017 430.693 85.0993 421.035C92.5536 412.942 98.3005 411.82 100.484 414.203C101.66 415.486 101.808 417.721 100.9 420.498Z" fill="url(#paint65_linear_296_2185)"/>
<path opacity="0.4" d="M109.8 436.346C109.696 433.913 109.042 431.222 107.856 428.346C105.169 421.821 100.167 415.305 94.1383 410.472C93.6526 410.084 92.9615 410.203 92.5901 410.741C92.2215 411.279 92.3146 412.03 92.8002 412.42C98.4589 416.956 103.332 423.293 105.837 429.374C106.912 431.979 107.502 434.382 107.594 436.516C107.622 437.179 108.139 437.677 108.748 437.631C108.754 437.631 108.761 437.63 108.766 437.63C109.366 437.571 109.829 437.002 109.8 436.346ZM90.7946 409.452C91.1095 408.875 90.9407 408.142 90.4185 407.812C86.0045 405.034 81.8539 403.737 78.4154 404.06C77.8059 404.117 77.3441 404.7 77.382 405.361C77.4198 406.022 77.9439 406.511 78.5533 406.454C81.499 406.177 85.3076 407.401 89.2792 409.9C89.4783 410.025 89.7002 410.074 89.917 410.053C90.2662 410.02 90.6008 409.808 90.7946 409.452Z" fill="white"/>
<path opacity="0.2" d="M84.5429 459.241C47.4909 472.817 52.4547 440.14 52.7578 438.319C50.3904 448.102 51.3742 456.779 56.308 462.16C66.5135 473.291 89.707 466.117 108.113 446.136C102.047 451.338 91.1248 456.83 84.5429 459.241Z" fill="#999999"/>
<path d="M38.412 506.68L41.3854 504.671L41.2671 504.458L38.4568 506.358L36.2713 503.764L36.0995 503.936L38.412 506.68Z" fill="url(#paint66_linear_296_2185)"/>
<path d="M38.4148 506.625L40.1656 503.193L39.9636 503.075L38.5248 505.895L37.993 502.804L37.7658 502.856L38.4148 506.625Z" fill="url(#paint67_linear_296_2185)"/>
<path d="M8.65799 431.978L11.6315 429.968L11.5132 429.756L8.70291 431.655L6.51735 429.061L6.3456 429.233L8.65799 431.978Z" fill="url(#paint68_linear_296_2185)"/>
<path d="M8.66075 431.923L10.4115 428.491L10.2097 428.373L8.7708 431.193L8.23899 428.102L8.01192 428.153L8.66075 431.923Z" fill="url(#paint69_linear_296_2185)"/>
<path d="M10.6482 559.826L13.6217 557.816L13.5034 557.604L10.6931 559.503L8.50753 556.909L8.33579 557.081L10.6482 559.826Z" fill="url(#paint70_linear_296_2185)"/>
<path d="M10.6511 559.771L12.4019 556.339L12.2 556.222L10.7612 559.042L10.2293 555.951L10.0022 556.003L10.6511 559.771Z" fill="url(#paint71_linear_296_2185)"/>
<path d="M46.1247 388.514L49.0983 386.504L48.98 386.291L46.1697 388.19L43.9849 385.597L43.8132 385.769L46.1247 388.514Z" fill="url(#paint72_linear_296_2185)"/>
<path d="M46.1275 388.459L47.8783 385.026L47.6765 384.908L46.2384 387.729L45.7058 384.638L45.4795 384.689L46.1275 388.459Z" fill="url(#paint73_linear_296_2185)"/>
<path d="M6.04862 374.592L9.02208 372.583L8.90383 372.37L6.09354 374.269L3.9088 371.675L3.73705 371.848L6.04862 374.592Z" fill="url(#paint74_linear_296_2185)"/>
<path d="M6.0515 374.538L7.8023 371.105L7.6003 370.988L6.16237 373.808L5.62974 370.717L5.40337 370.769L6.0515 374.538Z" fill="url(#paint75_linear_296_2185)"/>
<path d="M35.5982 342.975L38.5709 340.965L38.4527 340.753L35.6431 342.652L33.4576 340.058L33.2859 340.231L35.5982 342.975Z" fill="url(#paint76_linear_296_2185)"/>
<path d="M35.6013 342.92L37.3529 339.488L37.1503 339.37L35.7122 342.191L35.1795 339.1L34.9533 339.151L35.6013 342.92Z" fill="url(#paint77_linear_296_2185)"/>
<path d="M1.93415 499.698L4.90684 497.688L4.78859 497.475L1.97895 499.375L-0.206434 496.781L-0.378184 496.953L1.93415 499.698Z" fill="url(#paint78_linear_296_2185)"/>
<path d="M1.93822 499.643L3.68901 496.21L3.48701 496.093L2.04821 498.913L1.51558 495.822L1.28921 495.874L1.93822 499.643Z" fill="url(#paint79_linear_296_2185)"/>
<path d="M18.8893 472.268L21.8619 470.258L21.7437 470.046L18.9342 471.945L16.7486 469.351L16.5769 469.523L18.8893 472.268Z" fill="url(#paint80_linear_296_2185)"/>
<path d="M18.8923 472.213L20.644 468.781L20.4413 468.663L19.0032 471.484L18.4705 468.392L18.2443 468.444L18.8923 472.213Z" fill="url(#paint81_linear_296_2185)"/>
<path d="M51.5455 431.611L54.5182 429.601L54.3999 429.388L51.5904 431.288L49.4049 428.694L49.2331 428.866L51.5455 431.611Z" fill="url(#paint82_linear_296_2185)"/>
<path d="M51.5485 431.556L53.3003 428.123L53.0983 428.005L51.6594 430.826L51.1269 427.734L50.9005 427.786L51.5485 431.556Z" fill="url(#paint83_linear_296_2185)"/>
<path d="M90.4764 449.083L93.9222 448.615L93.8992 448.366L90.6427 448.808L89.697 445.424L89.4765 445.502L90.4764 449.083Z" fill="url(#paint84_linear_296_2185)"/>
<path d="M90.4995 449.034L93.4056 446.699L93.2711 446.499L90.8834 448.417L91.6121 445.34L91.3889 445.283L90.4995 449.034Z" fill="url(#paint85_linear_296_2185)"/>
<path d="M62.9042 448.622L66.3641 448.701L66.3749 448.45L63.1044 448.375L62.6231 444.865L62.3954 444.909L62.9042 448.622Z" fill="url(#paint86_linear_296_2185)"/>
<path d="M62.9344 448.578L66.1114 446.717L66.0046 446.497L63.3945 448.026L64.5234 445.086L64.3111 444.993L62.9344 448.578Z" fill="url(#paint87_linear_296_2185)"/>
<path d="M72.1133 418.171L75.5731 418.251L75.5832 417.999L72.3134 417.925L71.8321 414.415L71.6043 414.459L72.1133 418.171Z" fill="url(#paint88_linear_296_2185)"/>
<path d="M72.1455 418.127L75.3224 416.267L75.2157 416.046L72.6055 417.575L73.7344 414.635L73.5212 414.543L72.1455 418.127Z" fill="url(#paint89_linear_296_2185)"/>
<path d="M97.9844 426.761L101.444 426.841L101.455 426.589L98.1854 426.514L97.704 423.005L97.4754 423.049L97.9844 426.761Z" fill="url(#paint90_linear_296_2185)"/>
<path d="M98.0164 426.717L101.193 424.857L101.087 424.636L98.4773 426.164L99.6054 423.224L99.3931 423.132L98.0164 426.717Z" fill="url(#paint91_linear_296_2185)"/>
<path d="M89.8242 408.294L93.2841 408.374L93.2949 408.123L90.0251 408.048L89.5439 404.538L89.3153 404.581L89.8242 408.294Z" fill="url(#paint92_linear_296_2185)"/>
<path d="M89.8564 408.25L93.0333 406.39L92.9266 406.169L90.3174 407.697L91.4453 404.758L91.233 404.666L89.8564 408.25Z" fill="url(#paint93_linear_296_2185)"/>
<path d="M30.6139 316.914C28.098 308.73 24.1803 307.45 20.295 308.953C16.4097 310.457 14.0272 314.173 16.5431 322.358C19.059 330.542 25.5197 340.096 29.4059 338.592C33.2912 337.089 33.1298 325.099 30.6139 316.914Z" fill="url(#paint94_linear_296_2185)"/>
<path opacity="0.3" d="M21.1557 322.526C21.1456 322.494 21.1626 322.458 21.1916 322.447C21.2216 322.435 21.2537 322.452 21.2638 322.484C23.5041 329.771 27.7003 338.423 29.4562 338.378C29.1583 338.066 28.4446 336.76 26.5473 331.573C25.0359 327.438 23.2922 322.234 21.8841 317.652C21.874 317.62 21.891 317.584 21.92 317.573C21.95 317.561 21.9821 317.578 21.9922 317.61C23.3998 322.19 25.142 327.391 26.6538 331.524C29.1341 338.309 29.5761 338.362 29.6179 338.346C29.6606 338.329 29.9787 337.982 28.205 330.925C27.1245 326.625 25.6385 321.324 24.2309 316.744C24.2208 316.712 24.2369 316.676 24.2669 316.665C24.2969 316.653 24.329 316.67 24.3391 316.702C25.7472 321.284 27.2339 326.587 28.3147 330.889C29.6708 336.285 29.8267 337.808 29.7631 338.259C31.1705 337.08 29.7215 327.366 27.4813 320.079C27.4711 320.047 27.4873 320.011 27.5173 320C27.5473 319.988 27.5793 320.005 27.5894 320.037C29.7005 326.905 31.4912 337.58 29.6915 338.441C29.6779 338.452 29.6641 338.458 29.6531 338.463C29.6421 338.468 29.6271 338.471 29.6106 338.473C27.7221 339.038 23.2668 329.395 21.1557 322.526Z" fill="url(#paint95_linear_296_2185)"/>
<path d="M19.7197 324.694C13.9066 320.235 10.3719 321.547 8.20092 324.843C6.02995 328.139 6.04402 332.172 11.8572 336.63C17.6703 341.088 27.0818 344.284 29.2528 340.988C31.4236 337.693 25.5327 329.152 19.7197 324.694Z" fill="url(#paint96_linear_296_2185)"/>
<path d="M41.7019 318.485C46.3856 311.32 50.5035 311.179 53.8203 313.702C57.1371 316.225 58.397 320.458 53.7133 327.623C49.0297 334.788 40.1769 342.172 36.8601 339.649C33.5433 337.125 37.0183 325.65 41.7019 318.485Z" fill="url(#paint97_linear_296_2185)"/>
<path opacity="0.3" d="M49.2029 326.498C49.2215 326.47 49.2158 326.431 49.19 326.412C49.1652 326.393 49.129 326.4 49.1104 326.428C44.9406 332.808 38.5125 339.954 36.8384 339.423C37.2106 339.207 38.259 338.15 41.5177 333.693C44.1155 330.139 47.2311 325.625 49.8529 321.614C49.8715 321.585 49.8658 321.546 49.84 321.527C49.8144 321.508 49.7789 321.515 49.7604 321.544C47.1397 325.552 44.0252 330.066 41.4286 333.617C37.1668 339.447 36.7274 339.375 36.6917 339.347C36.656 339.32 36.4456 338.898 40.1044 332.609C42.3333 328.779 45.2287 324.099 47.8495 320.089C47.8681 320.061 47.8622 320.023 47.8366 320.003C47.8109 319.983 47.7755 319.991 47.757 320.019C45.1351 324.03 42.2386 328.712 40.0085 332.545C37.2114 337.353 36.6401 338.773 36.5758 339.223C35.5501 337.7 39.6321 328.768 43.8026 322.39C43.8212 322.361 43.8153 322.323 43.7897 322.304C43.764 322.284 43.7287 322.291 43.7101 322.32C39.7795 328.333 35.103 338.091 36.5942 339.418C36.6042 339.433 36.6149 339.443 36.6249 339.451C36.6343 339.458 36.6478 339.465 36.6633 339.471C38.322 340.539 45.2723 332.512 49.2029 326.498Z" fill="url(#paint98_linear_296_2185)"/>
<path d="M43.5491 318.273C44.767 309.65 41.8589 306.554 37.813 305.981C33.7669 305.408 30.115 307.575 28.8981 316.197C27.6802 324.819 29.3573 336.632 33.4033 337.205C37.4493 337.779 42.3313 326.895 43.5491 318.273Z" fill="url(#paint99_linear_296_2185)"/>
<path opacity="0.3" d="M39.3008 319.641C39.3055 319.607 39.284 319.576 39.2528 319.571C39.2217 319.567 39.1925 319.591 39.1878 319.625C38.1039 327.303 35.3063 336.774 33.5756 337.138C33.8203 336.763 34.3217 335.314 35.3903 329.779C36.2419 325.367 37.1575 319.851 37.8389 315.024C37.8437 314.99 37.8223 314.959 37.7911 314.955C37.7599 314.951 37.7307 314.975 37.726 315.009C37.0449 319.833 36.1296 325.347 35.2783 329.757C33.8815 336.997 33.4552 337.152 33.4113 337.145C33.3675 337.139 33.0007 336.873 33.6627 329.529C34.0655 325.055 34.7137 319.504 35.3949 314.679C35.3997 314.645 35.3782 314.614 35.347 314.609C35.3158 314.605 35.2867 314.629 35.2819 314.663C34.6004 319.49 33.9529 325.043 33.5496 329.519C33.0432 335.133 33.124 336.665 33.2553 337.094C31.6932 336.264 31.629 326.386 32.7129 318.709C32.7176 318.675 32.6961 318.644 32.6649 318.639C32.6337 318.635 32.6046 318.659 32.5999 318.693C31.5783 325.929 31.4532 336.828 33.3531 337.256C33.3683 337.263 33.3824 337.267 33.3942 337.269C33.406 337.27 33.4206 337.271 33.4374 337.267C35.3807 337.383 38.2792 326.877 39.3008 319.641Z" fill="url(#paint100_linear_296_2185)"/>
<path d="M50.015 328.985C56.8347 326.316 59.8675 328.558 61.0404 332.328C62.2135 336.097 61.0832 339.969 54.2635 342.638C47.443 345.307 37.5159 345.764 36.343 341.993C35.17 338.223 43.1945 331.654 50.015 328.985Z" fill="url(#paint101_linear_296_2185)"/>
<path opacity="0.3" d="M48.8141 340.514C48.8359 340.506 48.8462 340.474 48.8373 340.446C48.8284 340.418 48.8033 340.4 48.7814 340.409C43.8985 342.32 37.3305 343.395 36.4732 342.009C36.7833 342.084 37.8154 341.984 41.4428 340.859C44.3346 339.962 47.8938 338.709 50.9629 337.507C50.9847 337.499 50.9951 337.467 50.9861 337.439C50.9772 337.41 50.9522 337.393 50.9303 337.402C47.8613 338.603 44.3048 339.855 41.4139 340.752C36.6701 342.225 36.4211 341.908 36.4079 341.866C36.3956 341.825 36.4138 341.404 40.9452 339.246C43.7051 337.932 47.1854 336.431 50.2535 335.23C50.2753 335.221 50.2855 335.191 50.2767 335.162C50.2679 335.132 50.2428 335.116 50.2209 335.125C47.1509 336.327 43.6696 337.829 40.9079 339.144C37.4439 340.794 36.5804 341.435 36.3798 341.71C36.2821 340.027 42.0202 336.286 46.9032 334.375C46.925 334.366 46.9353 334.336 46.9265 334.306C46.9177 334.277 46.8925 334.26 46.8706 334.27C42.2684 336.071 35.8636 340.027 36.3225 341.856C36.3237 341.872 36.3269 341.886 36.3306 341.897C36.3342 341.908 36.3393 341.921 36.3478 341.934C37.003 343.687 44.2119 342.315 48.8141 340.514Z" fill="url(#paint102_linear_296_2185)"/>
<path opacity="0.3" d="M17.2104 336.038C17.1917 336.024 17.1911 335.991 17.2075 335.966C17.2238 335.942 17.2527 335.931 17.2713 335.946C21.4335 339.139 27.4462 341.995 28.6535 340.902C28.3348 340.888 27.3707 340.505 24.1978 338.417C21.6684 336.751 18.596 334.559 15.979 332.552C15.9603 332.539 15.9597 332.506 15.9761 332.481C15.9924 332.456 16.0213 332.446 16.0399 332.46C18.6552 334.467 21.7259 336.659 24.2549 338.322C28.4053 341.055 28.7321 340.819 28.7558 340.784C28.7798 340.748 28.8781 340.337 25.1219 337.006C22.8338 334.977 19.9067 332.568 17.2905 330.561C17.2718 330.547 17.2703 330.515 17.2876 330.489C17.3041 330.463 17.3329 330.454 17.3514 330.469C19.9684 332.476 22.8971 334.886 25.1858 336.917C28.0568 339.464 28.7093 340.321 28.8255 340.641C29.386 339.051 24.9084 333.863 20.7461 330.671C20.7274 330.657 20.7259 330.625 20.7432 330.599C20.7596 330.574 20.7885 330.564 20.8071 330.579C24.7301 333.588 29.7883 339.168 28.8406 340.798C28.8351 340.813 28.8282 340.826 28.8217 340.835C28.8152 340.844 28.8068 340.855 28.7951 340.866C27.6807 342.366 21.1335 339.046 17.2104 336.038Z" fill="url(#paint103_linear_296_2185)"/>
<path d="M40.4139 344.419C41.0258 340.086 37.9975 336.075 33.6506 335.459C29.3037 334.843 25.2832 337.857 24.6713 342.189C28.8338 346.585 35.193 347.487 40.4101 344.421L40.4139 344.419Z" fill="url(#paint104_linear_296_2185)"/>
<g opacity="0.1">
<path d="M48.227 313.803C47.3704 314.086 46.5118 314.637 45.6735 315.444C45.5147 315.597 45.4964 315.858 45.6334 316.028C45.6598 316.061 45.6913 316.088 45.7244 316.11C45.861 316.196 46.041 316.181 46.169 316.058C46.922 315.333 47.683 314.841 48.4306 314.595C48.6332 314.528 48.7513 314.297 48.6948 314.079C48.6376 313.86 48.4287 313.737 48.227 313.803Z" fill="white"/>
<path d="M55.2464 321.514C55.9177 318.385 55.0564 316.112 52.6131 314.563C51.5502 313.888 50.6022 313.575 49.6287 313.573C49.419 313.573 49.2446 313.758 49.2395 313.986C49.2345 314.215 49.4003 314.4 49.61 314.4C50.4443 314.401 51.2735 314.679 52.2188 315.279C53.69 316.211 55.279 317.744 54.5061 321.343C54.4681 321.524 54.5416 321.7 54.6791 321.787C54.7123 321.807 54.7495 321.824 54.7895 321.833C54.9935 321.88 55.1982 321.737 55.2464 321.514Z" fill="white"/>
</g>
<g opacity="0.1">
<path d="M25.5467 310.591C26.2914 311.1 26.9639 311.869 27.5456 312.877C27.6556 313.068 27.6011 313.324 27.4223 313.449C27.3871 313.473 27.3503 313.49 27.3126 313.502C27.1568 313.547 26.988 313.482 26.8993 313.329C26.3763 312.424 25.7814 311.739 25.1316 311.295C24.9559 311.175 24.9062 310.92 25.0208 310.726C25.1356 310.531 25.3717 310.471 25.5467 310.591Z" fill="white"/>
<path d="M16.6676 316.049C16.8889 312.858 18.346 310.913 21.1226 310.103C22.33 309.751 23.3287 309.712 24.2631 309.982C24.4647 310.04 24.5811 310.266 24.522 310.487C24.4638 310.708 24.253 310.84 24.0515 310.781C23.2493 310.549 22.376 310.587 21.3021 310.901C19.6309 311.388 17.6795 312.419 17.4248 316.092C17.4113 316.276 17.2918 316.424 17.1359 316.47C17.0983 316.481 17.058 316.486 17.017 316.485C16.8091 316.472 16.6523 316.277 16.6676 316.049Z" fill="white"/>
</g>
<g opacity="0.1">
<path d="M57.2523 329.523C56.5475 329.19 55.7014 329.039 54.7376 329.074C54.5545 329.08 54.4075 329.247 54.4092 329.446C54.4098 329.484 54.4158 329.522 54.4264 329.557C54.4709 329.7 54.5964 329.799 54.7431 329.794C55.6095 329.763 56.3602 329.894 56.9754 330.185C57.1416 330.264 57.3382 330.178 57.415 329.997C57.4921 329.813 57.4184 329.601 57.2523 329.523Z" fill="white"/>
<path d="M57.8464 339.059C59.9023 337.345 60.5162 335.273 59.7225 332.724C59.3773 331.616 58.9214 330.821 58.2868 330.225C58.1501 330.096 57.9411 330.116 57.8194 330.268C57.6977 330.42 57.7107 330.648 57.8476 330.775C58.3919 331.286 58.7881 331.984 59.0954 332.97C59.5729 334.504 59.818 336.518 57.4521 338.49C57.3335 338.589 57.2908 338.754 57.3353 338.897C57.346 338.932 57.3619 338.966 57.3834 338.997C57.4922 339.154 57.6997 339.181 57.8464 339.059Z" fill="white"/>
</g>
<g opacity="0.1">
<path d="M12.7682 323.224C13.5373 323.1 14.3919 323.19 15.3082 323.491C15.4825 323.548 15.5774 323.749 15.5208 323.94C15.5096 323.977 15.4937 324.011 15.4731 324.042C15.3904 324.167 15.2428 324.228 15.103 324.182C14.2795 323.912 13.5219 323.829 12.8503 323.937C12.6684 323.967 12.5033 323.831 12.4809 323.634C12.4577 323.436 12.5871 323.254 12.7682 323.224Z" fill="white"/>
<path d="M9.55743 332.222C8.05695 330.003 8.04118 327.842 9.50944 325.614C10.1478 324.644 10.806 324.009 11.5813 323.612C11.7479 323.526 11.9443 323.603 12.019 323.783C12.0938 323.962 12.0183 324.177 11.8517 324.263C11.1874 324.603 10.6128 325.163 10.0453 326.024C9.16185 327.366 8.36854 329.233 10.0951 331.785C10.1812 331.913 10.1765 332.083 10.0947 332.208C10.0751 332.238 10.0496 332.267 10.0206 332.29C9.87232 332.411 9.66515 332.38 9.55743 332.222Z" fill="white"/>
</g>
<g opacity="0.2">
<path d="M29.255 336.983C28.0458 337.595 27.0422 338.528 26.3521 339.678C26.2358 339.871 26.2837 340.126 26.4592 340.248C26.5062 340.281 26.5585 340.301 26.6108 340.308C26.7524 340.328 26.9011 340.259 26.9861 340.118C27.5958 339.101 28.4865 338.276 29.5625 337.731C29.7539 337.634 29.8416 337.387 29.7568 337.181C29.6721 336.974 29.4482 336.885 29.255 336.983Z" fill="white"/>
<path d="M39.4937 341.539C38.7539 338.751 36.415 336.686 33.5345 336.278C32.6421 336.151 31.7472 336.19 30.8759 336.393C30.6699 336.441 30.5345 336.661 30.574 336.884C30.6126 337.107 30.813 337.248 31.018 337.201C31.8049 337.018 32.6124 336.983 33.4196 337.098C36.0086 337.464 38.1055 339.305 38.7642 341.786C38.8057 341.945 38.9301 342.052 39.0716 342.073C39.1247 342.08 39.1794 342.075 39.2336 342.057C39.4347 341.989 39.5519 341.758 39.4937 341.539Z" fill="white"/>
</g>
<path d="M339.945 508.297L339.167 507.697C342.04 507.143 344.504 506.271 345.381 505.505C343.1 505.976 340.646 506.278 338.64 506.297C336.072 506.322 333.802 505.976 334.515 505.146C335.162 504.395 338.082 503.559 341.322 503.201C343.757 502.931 345.772 502.932 347.152 503.206C347.716 503.319 348.154 503.475 348.458 503.662C350.03 502.869 350.145 502.156 350.047 501.772L353.221 501.302C353.462 502.259 352.299 503.295 349.943 504.216C349.629 504.339 349.293 504.459 348.938 504.575C348.886 504.775 348.751 504.987 348.526 505.205C347.421 506.293 344.052 507.505 339.945 508.297ZM340.492 504.033C339.221 504.215 337.907 504.555 337.621 504.887C337.283 505.279 338.648 505.469 340.171 505.454C341.91 505.437 344.042 505.078 345.744 504.634C345.619 504.342 345.206 504.107 344.53 503.974C343.681 503.805 342.49 503.804 340.988 503.971C340.826 503.988 340.659 504.01 340.492 504.033Z" fill="url(#paint105_linear_296_2185)"/>
<path d="M359.273 310.278C358.441 305.548 360.276 301.083 361.73 298.135C362.062 297.466 362.404 296.801 362.75 296.139C363.973 293.782 365.128 291.556 365.595 289.19L370.812 290.6C370.181 293.793 368.78 296.497 367.423 299.111C367.096 299.742 366.769 300.372 366.454 301.005C364.712 304.543 364.109 307.135 364.513 309.411L359.273 310.278Z" fill="url(#paint106_linear_296_2185)"/>
<path d="M356.273 140.093C357.386 137.853 359.578 136.695 361.131 136.019C361.484 135.866 361.84 135.719 362.198 135.574C363.465 135.056 364.663 134.567 365.604 133.767L367.436 136.251C366.167 137.329 364.713 137.923 363.307 138.499C362.968 138.636 362.629 138.776 362.293 138.921C360.431 139.733 359.361 140.573 358.826 141.653L356.273 140.093Z" fill="url(#paint107_linear_296_2185)"/>
<path d="M311.875 557.016C314.179 556.419 316.522 557.385 318.085 558.164C318.44 558.342 318.792 558.526 319.146 558.712C320.4 559.371 321.583 559.993 322.793 560.208L322.428 563.285C320.796 562.993 319.358 562.237 317.968 561.509C317.633 561.333 317.297 561.157 316.962 560.988C315.086 560.055 313.756 559.764 312.648 560.053L311.875 557.016Z" fill="url(#paint108_linear_296_2185)"/>
<defs>
<linearGradient id="paint0_linear_296_2185" x1="311.413" y1="145.796" x2="448.24" y2="175.776" gradientUnits="userSpaceOnUse">
<stop stop-color="#FFEEE3"/>
<stop offset="1" stop-color="#FFDCC5"/>
</linearGradient>
<linearGradient id="paint1_linear_296_2185" x1="101.977" y1="151.778" x2="-89.9675" y2="193.787" gradientUnits="userSpaceOnUse">
<stop stop-color="#FFEEE3"/>
<stop offset="1" stop-color="#FFDCC5"/>
</linearGradient>
<linearGradient id="paint2_linear_296_2185" x1="188.705" y1="444.426" x2="44.6738" y2="476.321" gradientUnits="userSpaceOnUse">
<stop stop-color="#FFEEE3"/>
<stop offset="1" stop-color="#FFDCC5"/>
</linearGradient>
<linearGradient id="paint3_linear_296_2185" x1="272.82" y1="416.574" x2="446.212" y2="454.963" gradientUnits="userSpaceOnUse">
<stop stop-color="#FFEEE3"/>
<stop offset="1" stop-color="#FFDCC5"/>
</linearGradient>
<linearGradient id="paint4_linear_296_2185" x1="230.959" y1="131.241" x2="163.93" y2="145.944" gradientUnits="userSpaceOnUse">
<stop stop-color="#FFEEE3"/>
<stop offset="1" stop-color="#FFDCC5"/>
</linearGradient>
<linearGradient id="paint5_linear_296_2185" x1="79.5283" y1="418.828" x2="94.225" y2="422.707" gradientUnits="userSpaceOnUse">
<stop stop-color="#FF97CB"/>
<stop offset="1" stop-color="#EA65AE"/>
</linearGradient>
<linearGradient id="paint6_linear_296_2185" x1="78.0769" y1="157.841" x2="80.6959" y2="135.968" gradientUnits="userSpaceOnUse">
<stop stop-color="#F92333"/>
<stop offset="1" stop-color="#9E0013"/>
</linearGradient>
<linearGradient id="paint7_linear_296_2185" x1="51.9401" y1="483.637" x2="52.3193" y2="493.722" gradientUnits="userSpaceOnUse">
<stop stop-color="#1C7042"/>
<stop offset="1" stop-color="#3CC677"/>
</linearGradient>
<linearGradient id="paint8_linear_296_2185" x1="47.0183" y1="169.714" x2="48.6765" y2="179.598" gradientUnits="userSpaceOnUse">
<stop stop-color="#FFAA39"/>
<stop offset="1" stop-color="#EF771D"/>
</linearGradient>
<linearGradient id="paint9_linear_296_2185" x1="128.768" y1="464.274" x2="138.146" y2="463.769" gradientUnits="userSpaceOnUse">
<stop stop-color="#F92333"/>
<stop offset="1" stop-color="#9E0013"/>
</linearGradient>
<linearGradient id="paint10_linear_296_2185" x1="62.3386" y1="267.445" x2="79.6646" y2="266.288" gradientUnits="userSpaceOnUse">
<stop stop-color="#1C7042"/>
<stop offset="1" stop-color="#3CC677"/>
</linearGradient>
<linearGradient id="paint11_linear_296_2185" x1="407.74" y1="620.63" x2="421.004" y2="349.383" gradientUnits="userSpaceOnUse">
<stop stop-color="#1C7042"/>
<stop offset="1" stop-color="#3CC677"/>
</linearGradient>
<linearGradient id="paint12_linear_296_2185" x1="409.336" y1="619.299" x2="422.98" y2="340.289" gradientUnits="userSpaceOnUse">
<stop stop-color="#115630"/>
<stop offset="1" stop-color="#05351B"/>
</linearGradient>
<linearGradient id="paint13_linear_296_2185" x1="412.703" y1="619.394" x2="426.331" y2="340.693" gradientUnits="userSpaceOnUse">
<stop stop-color="#115630"/>
<stop offset="1" stop-color="#05351B"/>
</linearGradient>
<linearGradient id="paint14_linear_296_2185" x1="416.955" y1="589.587" x2="415.881" y2="586.927" gradientUnits="userSpaceOnUse">
<stop stop-color="#EBF2EE"/>
<stop offset="0.0906" stop-color="#EEF4F1"/>
<stop offset="0.5539" stop-color="#FBFCFB"/>
<stop offset="1" stop-color="white"/>
</linearGradient>
<linearGradient id="paint15_linear_296_2185" x1="416.876" y1="589.62" x2="415.801" y2="586.96" gradientUnits="userSpaceOnUse">
<stop stop-color="#EBF2EE"/>
<stop offset="0.0906" stop-color="#EEF4F1"/>
<stop offset="0.5539" stop-color="#FBFCFB"/>
<stop offset="1" stop-color="white"/>
</linearGradient>
<linearGradient id="paint16_linear_296_2185" x1="379.443" y1="457.953" x2="326.894" y2="424.308" gradientUnits="userSpaceOnUse">
<stop stop-color="#1C7042"/>
<stop offset="1" stop-color="#3CC677"/>
</linearGradient>
<linearGradient id="paint17_linear_296_2185" x1="353.263" y1="468.191" x2="347.754" y2="409.059" gradientUnits="userSpaceOnUse">
<stop stop-color="#115630"/>
<stop offset="1" stop-color="#05351B"/>
</linearGradient>
<linearGradient id="paint18_linear_296_2185" x1="354.814" y1="466.422" x2="349.863" y2="413.282" gradientUnits="userSpaceOnUse">
<stop stop-color="#115630"/>
<stop offset="1" stop-color="#05351B"/>
</linearGradient>
<linearGradient id="paint19_linear_296_2185" x1="392.548" y1="508.212" x2="392.261" y2="505.344" gradientUnits="userSpaceOnUse">
<stop stop-color="#EBF2EE"/>
<stop offset="0.0906" stop-color="#EEF4F1"/>
<stop offset="0.5539" stop-color="#FBFCFB"/>
<stop offset="1" stop-color="white"/>
</linearGradient>
<linearGradient id="paint20_linear_296_2185" x1="392.462" y1="508.221" x2="392.175" y2="505.353" gradientUnits="userSpaceOnUse">
<stop stop-color="#EBF2EE"/>
<stop offset="0.0906" stop-color="#EEF4F1"/>
<stop offset="0.5539" stop-color="#FBFCFB"/>
<stop offset="1" stop-color="white"/>
</linearGradient>
<linearGradient id="paint21_linear_296_2185" x1="422.304" y1="433.51" x2="422.017" y2="430.642" gradientUnits="userSpaceOnUse">
<stop stop-color="#EBF2EE"/>
<stop offset="0.0906" stop-color="#EEF4F1"/>
<stop offset="0.5539" stop-color="#FBFCFB"/>
<stop offset="1" stop-color="white"/>
</linearGradient>
<linearGradient id="paint22_linear_296_2185" x1="422.218" y1="433.518" x2="421.931" y2="430.65" gradientUnits="userSpaceOnUse">
<stop stop-color="#EBF2EE"/>
<stop offset="0.0906" stop-color="#EEF4F1"/>
<stop offset="0.5539" stop-color="#FBFCFB"/>
<stop offset="1" stop-color="white"/>
</linearGradient>
<linearGradient id="paint23_linear_296_2185" x1="420.314" y1="561.358" x2="420.027" y2="558.49" gradientUnits="userSpaceOnUse">
<stop stop-color="#EBF2EE"/>
<stop offset="0.0906" stop-color="#EEF4F1"/>
<stop offset="0.5539" stop-color="#FBFCFB"/>
<stop offset="1" stop-color="white"/>
</linearGradient>
<linearGradient id="paint24_linear_296_2185" x1="420.227" y1="561.367" x2="419.941" y2="558.499" gradientUnits="userSpaceOnUse">
<stop stop-color="#EBF2EE"/>
<stop offset="0.0906" stop-color="#EEF4F1"/>
<stop offset="0.5539" stop-color="#FBFCFB"/>
<stop offset="1" stop-color="white"/>
</linearGradient>
<linearGradient id="paint25_linear_296_2185" x1="384.837" y1="390.045" x2="384.55" y2="387.177" gradientUnits="userSpaceOnUse">
<stop stop-color="#EBF2EE"/>
<stop offset="0.0906" stop-color="#EEF4F1"/>
<stop offset="0.5539" stop-color="#FBFCFB"/>
<stop offset="1" stop-color="white"/>
</linearGradient>
<linearGradient id="paint26_linear_296_2185" x1="384.751" y1="390.054" x2="384.464" y2="387.186" gradientUnits="userSpaceOnUse">
<stop stop-color="#EBF2EE"/>
<stop offset="0.0906" stop-color="#EEF4F1"/>
<stop offset="0.5539" stop-color="#FBFCFB"/>
<stop offset="1" stop-color="white"/>
</linearGradient>
<linearGradient id="paint27_linear_296_2185" x1="424.913" y1="376.124" x2="424.627" y2="373.256" gradientUnits="userSpaceOnUse">
<stop stop-color="#EBF2EE"/>
<stop offset="0.0906" stop-color="#EEF4F1"/>
<stop offset="0.5539" stop-color="#FBFCFB"/>
<stop offset="1" stop-color="white"/>
</linearGradient>
<linearGradient id="paint28_linear_296_2185" x1="424.825" y1="376.133" x2="424.538" y2="373.265" gradientUnits="userSpaceOnUse">
<stop stop-color="#EBF2EE"/>
<stop offset="0.0906" stop-color="#EEF4F1"/>
<stop offset="0.5539" stop-color="#FBFCFB"/>
<stop offset="1" stop-color="white"/>
</linearGradient>
<linearGradient id="paint29_linear_296_2185" x1="395.364" y1="344.507" x2="395.077" y2="341.639" gradientUnits="userSpaceOnUse">
<stop stop-color="#EBF2EE"/>
<stop offset="0.0906" stop-color="#EEF4F1"/>
<stop offset="0.5539" stop-color="#FBFCFB"/>
<stop offset="1" stop-color="white"/>
</linearGradient>
<linearGradient id="paint30_linear_296_2185" x1="395.277" y1="344.516" x2="394.99" y2="341.648" gradientUnits="userSpaceOnUse">
<stop stop-color="#EBF2EE"/>
<stop offset="0.0906" stop-color="#EEF4F1"/>
<stop offset="0.5539" stop-color="#FBFCFB"/>
<stop offset="1" stop-color="white"/>
</linearGradient>
<linearGradient id="paint31_linear_296_2185" x1="429.028" y1="501.23" x2="428.741" y2="498.362" gradientUnits="userSpaceOnUse">
<stop stop-color="#EBF2EE"/>
<stop offset="0.0906" stop-color="#EEF4F1"/>
<stop offset="0.5539" stop-color="#FBFCFB"/>
<stop offset="1" stop-color="white"/>
</linearGradient>
<linearGradient id="paint32_linear_296_2185" x1="428.94" y1="501.239" x2="428.654" y2="498.37" gradientUnits="userSpaceOnUse">
<stop stop-color="#EBF2EE"/>
<stop offset="0.0906" stop-color="#EEF4F1"/>
<stop offset="0.5539" stop-color="#FBFCFB"/>
<stop offset="1" stop-color="white"/>
</linearGradient>
<linearGradient id="paint33_linear_296_2185" x1="412.073" y1="473.8" x2="411.786" y2="470.932" gradientUnits="userSpaceOnUse">
<stop stop-color="#EBF2EE"/>
<stop offset="0.0906" stop-color="#EEF4F1"/>
<stop offset="0.5539" stop-color="#FBFCFB"/>
<stop offset="1" stop-color="white"/>
</linearGradient>
<linearGradient id="paint34_linear_296_2185" x1="411.986" y1="473.809" x2="411.699" y2="470.94" gradientUnits="userSpaceOnUse">
<stop stop-color="#EBF2EE"/>
<stop offset="0.0906" stop-color="#EEF4F1"/>
<stop offset="0.5539" stop-color="#FBFCFB"/>
<stop offset="1" stop-color="white"/>
</linearGradient>
<linearGradient id="paint35_linear_296_2185" x1="379.415" y1="433.142" x2="379.128" y2="430.274" gradientUnits="userSpaceOnUse">
<stop stop-color="#EBF2EE"/>
<stop offset="0.0906" stop-color="#EEF4F1"/>
<stop offset="0.5539" stop-color="#FBFCFB"/>
<stop offset="1" stop-color="white"/>
</linearGradient>
<linearGradient id="paint36_linear_296_2185" x1="379.327" y1="433.151" x2="379.04" y2="430.283" gradientUnits="userSpaceOnUse">
<stop stop-color="#EBF2EE"/>
<stop offset="0.0906" stop-color="#EEF4F1"/>
<stop offset="0.5539" stop-color="#FBFCFB"/>
<stop offset="1" stop-color="white"/>
</linearGradient>
<linearGradient id="paint37_linear_296_2185" x1="340.317" y1="450.713" x2="338.775" y2="448.327" gradientUnits="userSpaceOnUse">
<stop stop-color="#EBF2EE"/>
<stop offset="0.0906" stop-color="#EEF4F1"/>
<stop offset="0.5539" stop-color="#FBFCFB"/>
<stop offset="1" stop-color="white"/>
</linearGradient>
<linearGradient id="paint38_linear_296_2185" x1="340.243" y1="450.761" x2="338.701" y2="448.375" gradientUnits="userSpaceOnUse">
<stop stop-color="#EBF2EE"/>
<stop offset="0.0906" stop-color="#EEF4F1"/>
<stop offset="0.5539" stop-color="#FBFCFB"/>
<stop offset="1" stop-color="white"/>
</linearGradient>
<linearGradient id="paint39_linear_296_2185" x1="367.853" y1="450.302" x2="365.987" y2="448.2" gradientUnits="userSpaceOnUse">
<stop stop-color="#EBF2EE"/>
<stop offset="0.0906" stop-color="#EEF4F1"/>
<stop offset="0.5539" stop-color="#FBFCFB"/>
<stop offset="1" stop-color="white"/>
</linearGradient>
<linearGradient id="paint40_linear_296_2185" x1="367.786" y1="450.361" x2="365.92" y2="448.26" gradientUnits="userSpaceOnUse">
<stop stop-color="#EBF2EE"/>
<stop offset="0.0906" stop-color="#EEF4F1"/>
<stop offset="0.5539" stop-color="#FBFCFB"/>
<stop offset="1" stop-color="white"/>
</linearGradient>
<linearGradient id="paint41_linear_296_2185" x1="358.645" y1="419.852" x2="356.778" y2="417.75" gradientUnits="userSpaceOnUse">
<stop stop-color="#EBF2EE"/>
<stop offset="0.0906" stop-color="#EEF4F1"/>
<stop offset="0.5539" stop-color="#FBFCFB"/>
<stop offset="1" stop-color="white"/>
</linearGradient>
<linearGradient id="paint42_linear_296_2185" x1="358.576" y1="419.911" x2="356.709" y2="417.81" gradientUnits="userSpaceOnUse">
<stop stop-color="#EBF2EE"/>
<stop offset="0.0906" stop-color="#EEF4F1"/>
<stop offset="0.5539" stop-color="#FBFCFB"/>
<stop offset="1" stop-color="white"/>
</linearGradient>
<linearGradient id="paint43_linear_296_2185" x1="332.763" y1="428.441" x2="330.897" y2="426.339" gradientUnits="userSpaceOnUse">
<stop stop-color="#EBF2EE"/>
<stop offset="0.0906" stop-color="#EEF4F1"/>
<stop offset="0.5539" stop-color="#FBFCFB"/>
<stop offset="1" stop-color="white"/>
</linearGradient>
<linearGradient id="paint44_linear_296_2185" x1="332.694" y1="428.501" x2="330.828" y2="426.399" gradientUnits="userSpaceOnUse">
<stop stop-color="#EBF2EE"/>
<stop offset="0.0906" stop-color="#EEF4F1"/>
<stop offset="0.5539" stop-color="#FBFCFB"/>
<stop offset="1" stop-color="white"/>
</linearGradient>
<linearGradient id="paint45_linear_296_2185" x1="340.933" y1="409.975" x2="339.067" y2="407.873" gradientUnits="userSpaceOnUse">
<stop stop-color="#EBF2EE"/>
<stop offset="0.0906" stop-color="#EEF4F1"/>
<stop offset="0.5539" stop-color="#FBFCFB"/>
<stop offset="1" stop-color="white"/>
</linearGradient>
<linearGradient id="paint46_linear_296_2185" x1="340.864" y1="410.034" x2="338.998" y2="407.933" gradientUnits="userSpaceOnUse">
<stop stop-color="#EBF2EE"/>
<stop offset="0.0906" stop-color="#EEF4F1"/>
<stop offset="0.5539" stop-color="#FBFCFB"/>
<stop offset="1" stop-color="white"/>
</linearGradient>
<linearGradient id="paint47_linear_296_2185" x1="410.867" y1="312.09" x2="405.382" y2="324.598" gradientUnits="userSpaceOnUse">
<stop stop-color="#FF97CB"/>
<stop offset="1" stop-color="#EA65AE"/>
</linearGradient>
<linearGradient id="paint48_linear_296_2185" x1="408.065" y1="319.125" x2="399.681" y2="339.751" gradientUnits="userSpaceOnUse">
<stop stop-color="#F92333"/>
<stop offset="1" stop-color="#9E0013"/>
</linearGradient>
<linearGradient id="paint49_linear_296_2185" x1="420.71" y1="327.747" x2="404.086" y2="340.587" gradientUnits="userSpaceOnUse">
<stop stop-color="#FF97CB"/>
<stop offset="1" stop-color="#EA65AE"/>
</linearGradient>
<linearGradient id="paint50_linear_296_2185" x1="377.549" y1="316.508" x2="386.401" y2="327.635" gradientUnits="userSpaceOnUse">
<stop stop-color="#FF97CB"/>
<stop offset="1" stop-color="#EA65AE"/>
</linearGradient>
<linearGradient id="paint51_linear_296_2185" x1="382.183" y1="322.791" x2="395.957" y2="340.274" gradientUnits="userSpaceOnUse">
<stop stop-color="#F92333"/>
<stop offset="1" stop-color="#9E0013"/>
</linearGradient>
<linearGradient id="paint52_linear_296_2185" x1="393.154" y1="308.306" x2="398.109" y2="339.351" gradientUnits="userSpaceOnUse">
<stop stop-color="#FF97CB"/>
<stop offset="1" stop-color="#EA65AE"/>
</linearGradient>
<linearGradient id="paint53_linear_296_2185" x1="394.445" y1="316.771" x2="398.027" y2="339.214" gradientUnits="userSpaceOnUse">
<stop stop-color="#F92333"/>
<stop offset="1" stop-color="#9E0013"/>
</linearGradient>
<linearGradient id="paint54_linear_296_2185" x1="370.111" y1="333.881" x2="394.199" y2="342.482" gradientUnits="userSpaceOnUse">
<stop stop-color="#FF97CB"/>
<stop offset="1" stop-color="#EA65AE"/>
</linearGradient>
<linearGradient id="paint55_linear_296_2185" x1="380.424" y1="338.359" x2="395.106" y2="342.731" gradientUnits="userSpaceOnUse">
<stop stop-color="#F92333"/>
<stop offset="1" stop-color="#9E0013"/>
</linearGradient>
<linearGradient id="paint56_linear_296_2185" x1="414.502" y1="333.532" x2="401.603" y2="341.804" gradientUnits="userSpaceOnUse">
<stop stop-color="#F92333"/>
<stop offset="1" stop-color="#9E0013"/>
</linearGradient>
<linearGradient id="paint57_linear_296_2185" x1="397.523" y1="338.067" x2="398.835" y2="347.326" gradientUnits="userSpaceOnUse">
<stop stop-color="#FFAA39"/>
<stop offset="1" stop-color="#EF771D"/>
</linearGradient>
<linearGradient id="paint58_linear_296_2185" x1="23.3474" y1="618.63" x2="10.0835" y2="347.383" gradientUnits="userSpaceOnUse">
<stop stop-color="#1C7042"/>
<stop offset="1" stop-color="#3CC677"/>
</linearGradient>
<linearGradient id="paint59_linear_296_2185" x1="21.7538" y1="617.299" x2="8.11015" y2="338.289" gradientUnits="userSpaceOnUse">
<stop stop-color="#115630"/>
<stop offset="1" stop-color="#05351B"/>
</linearGradient>
<linearGradient id="paint60_linear_296_2185" x1="18.3872" y1="617.394" x2="4.75865" y2="338.693" gradientUnits="userSpaceOnUse">
<stop stop-color="#115630"/>
<stop offset="1" stop-color="#05351B"/>
</linearGradient>
<linearGradient id="paint61_linear_296_2185" x1="14.1325" y1="587.588" x2="15.2073" y2="584.928" gradientUnits="userSpaceOnUse">
<stop stop-color="#EBF2EE"/>
<stop offset="0.0906" stop-color="#EEF4F1"/>
<stop offset="0.5539" stop-color="#FBFCFB"/>
<stop offset="1" stop-color="white"/>
</linearGradient>
<linearGradient id="paint62_linear_296_2185" x1="14.2124" y1="587.621" x2="15.2871" y2="584.961" gradientUnits="userSpaceOnUse">
<stop stop-color="#EBF2EE"/>
<stop offset="0.0906" stop-color="#EEF4F1"/>
<stop offset="0.5539" stop-color="#FBFCFB"/>
<stop offset="1" stop-color="white"/>
</linearGradient>
<linearGradient id="paint63_linear_296_2185" x1="51.6467" y1="455.953" x2="104.196" y2="422.308" gradientUnits="userSpaceOnUse">
<stop stop-color="#1C7042"/>
<stop offset="1" stop-color="#3CC677"/>
</linearGradient>
<linearGradient id="paint64_linear_296_2185" x1="77.8273" y1="466.191" x2="83.3357" y2="407.059" gradientUnits="userSpaceOnUse">
<stop stop-color="#115630"/>
<stop offset="1" stop-color="#05351B"/>
</linearGradient>
<linearGradient id="paint65_linear_296_2185" x1="76.2763" y1="464.422" x2="81.2265" y2="411.282" gradientUnits="userSpaceOnUse">
<stop stop-color="#115630"/>
<stop offset="1" stop-color="#05351B"/>
</linearGradient>
<linearGradient id="paint66_linear_296_2185" x1="38.5397" y1="506.212" x2="38.8265" y2="503.344" gradientUnits="userSpaceOnUse">
<stop stop-color="#EBF2EE"/>
<stop offset="0.0906" stop-color="#EEF4F1"/>
<stop offset="0.5539" stop-color="#FBFCFB"/>
<stop offset="1" stop-color="white"/>
</linearGradient>
<linearGradient id="paint67_linear_296_2185" x1="38.6262" y1="506.221" x2="38.9129" y2="503.353" gradientUnits="userSpaceOnUse">
<stop stop-color="#EBF2EE"/>
<stop offset="0.0906" stop-color="#EEF4F1"/>
<stop offset="0.5539" stop-color="#FBFCFB"/>
<stop offset="1" stop-color="white"/>
</linearGradient>
<linearGradient id="paint68_linear_296_2185" x1="8.78582" y1="431.51" x2="9.0725" y2="428.641" gradientUnits="userSpaceOnUse">
<stop stop-color="#EBF2EE"/>
<stop offset="0.0906" stop-color="#EEF4F1"/>
<stop offset="0.5539" stop-color="#FBFCFB"/>
<stop offset="1" stop-color="white"/>
</linearGradient>
<linearGradient id="paint69_linear_296_2185" x1="8.8723" y1="431.518" x2="9.15898" y2="428.65" gradientUnits="userSpaceOnUse">
<stop stop-color="#EBF2EE"/>
<stop offset="0.0906" stop-color="#EEF4F1"/>
<stop offset="0.5539" stop-color="#FBFCFB"/>
<stop offset="1" stop-color="white"/>
</linearGradient>
<linearGradient id="paint70_linear_296_2185" x1="10.7758" y1="559.358" x2="11.0626" y2="556.49" gradientUnits="userSpaceOnUse">
<stop stop-color="#EBF2EE"/>
<stop offset="0.0906" stop-color="#EEF4F1"/>
<stop offset="0.5539" stop-color="#FBFCFB"/>
<stop offset="1" stop-color="white"/>
</linearGradient>
<linearGradient id="paint71_linear_296_2185" x1="10.8625" y1="559.367" x2="11.1492" y2="556.499" gradientUnits="userSpaceOnUse">
<stop stop-color="#EBF2EE"/>
<stop offset="0.0906" stop-color="#EEF4F1"/>
<stop offset="0.5539" stop-color="#FBFCFB"/>
<stop offset="1" stop-color="white"/>
</linearGradient>
<linearGradient id="paint72_linear_296_2185" x1="46.2527" y1="388.045" x2="46.5395" y2="385.177" gradientUnits="userSpaceOnUse">
<stop stop-color="#EBF2EE"/>
<stop offset="0.0906" stop-color="#EEF4F1"/>
<stop offset="0.5539" stop-color="#FBFCFB"/>
<stop offset="1" stop-color="white"/>
</linearGradient>
<linearGradient id="paint73_linear_296_2185" x1="46.3392" y1="388.054" x2="46.626" y2="385.186" gradientUnits="userSpaceOnUse">
<stop stop-color="#EBF2EE"/>
<stop offset="0.0906" stop-color="#EEF4F1"/>
<stop offset="0.5539" stop-color="#FBFCFB"/>
<stop offset="1" stop-color="white"/>
</linearGradient>
<linearGradient id="paint74_linear_296_2185" x1="6.17663" y1="374.125" x2="6.46331" y2="371.256" gradientUnits="userSpaceOnUse">
<stop stop-color="#EBF2EE"/>
<stop offset="0.0906" stop-color="#EEF4F1"/>
<stop offset="0.5539" stop-color="#FBFCFB"/>
<stop offset="1" stop-color="white"/>
</linearGradient>
<linearGradient id="paint75_linear_296_2185" x1="6.26325" y1="374.133" x2="6.55003" y2="371.265" gradientUnits="userSpaceOnUse">
<stop stop-color="#EBF2EE"/>
<stop offset="0.0906" stop-color="#EEF4F1"/>
<stop offset="0.5539" stop-color="#FBFCFB"/>
<stop offset="1" stop-color="white"/>
</linearGradient>
<linearGradient id="paint76_linear_296_2185" x1="35.7256" y1="342.507" x2="36.0124" y2="339.639" gradientUnits="userSpaceOnUse">
<stop stop-color="#EBF2EE"/>
<stop offset="0.0906" stop-color="#EEF4F1"/>
<stop offset="0.5539" stop-color="#FBFCFB"/>
<stop offset="1" stop-color="white"/>
</linearGradient>
<linearGradient id="paint77_linear_296_2185" x1="35.8132" y1="342.516" x2="36.0999" y2="339.648" gradientUnits="userSpaceOnUse">
<stop stop-color="#EBF2EE"/>
<stop offset="0.0906" stop-color="#EEF4F1"/>
<stop offset="0.5539" stop-color="#FBFCFB"/>
<stop offset="1" stop-color="white"/>
</linearGradient>
<linearGradient id="paint78_linear_296_2185" x1="2.06172" y1="499.23" x2="2.3484" y2="496.362" gradientUnits="userSpaceOnUse">
<stop stop-color="#EBF2EE"/>
<stop offset="0.0906" stop-color="#EEF4F1"/>
<stop offset="0.5539" stop-color="#FBFCFB"/>
<stop offset="1" stop-color="white"/>
</linearGradient>
<linearGradient id="paint79_linear_296_2185" x1="2.14943" y1="499.238" x2="2.4361" y2="496.37" gradientUnits="userSpaceOnUse">
<stop stop-color="#EBF2EE"/>
<stop offset="0.0906" stop-color="#EEF4F1"/>
<stop offset="0.5539" stop-color="#FBFCFB"/>
<stop offset="1" stop-color="white"/>
</linearGradient>
<linearGradient id="paint80_linear_296_2185" x1="19.0167" y1="471.8" x2="19.3034" y2="468.932" gradientUnits="userSpaceOnUse">
<stop stop-color="#EBF2EE"/>
<stop offset="0.0906" stop-color="#EEF4F1"/>
<stop offset="0.5539" stop-color="#FBFCFB"/>
<stop offset="1" stop-color="white"/>
</linearGradient>
<linearGradient id="paint81_linear_296_2185" x1="19.1043" y1="471.809" x2="19.3911" y2="468.94" gradientUnits="userSpaceOnUse">
<stop stop-color="#EBF2EE"/>
<stop offset="0.0906" stop-color="#EEF4F1"/>
<stop offset="0.5539" stop-color="#FBFCFB"/>
<stop offset="1" stop-color="white"/>
</linearGradient>
<linearGradient id="paint82_linear_296_2185" x1="51.673" y1="431.142" x2="51.9598" y2="428.274" gradientUnits="userSpaceOnUse">
<stop stop-color="#EBF2EE"/>
<stop offset="0.0906" stop-color="#EEF4F1"/>
<stop offset="0.5539" stop-color="#FBFCFB"/>
<stop offset="1" stop-color="white"/>
</linearGradient>
<linearGradient id="paint83_linear_296_2185" x1="51.7606" y1="431.151" x2="52.0474" y2="428.283" gradientUnits="userSpaceOnUse">
<stop stop-color="#EBF2EE"/>
<stop offset="0.0906" stop-color="#EEF4F1"/>
<stop offset="0.5539" stop-color="#FBFCFB"/>
<stop offset="1" stop-color="white"/>
</linearGradient>
<linearGradient id="paint84_linear_296_2185" x1="90.7732" y1="448.713" x2="92.3149" y2="446.327" gradientUnits="userSpaceOnUse">
<stop stop-color="#EBF2EE"/>
<stop offset="0.0906" stop-color="#EEF4F1"/>
<stop offset="0.5539" stop-color="#FBFCFB"/>
<stop offset="1" stop-color="white"/>
</linearGradient>
<linearGradient id="paint85_linear_296_2185" x1="90.8468" y1="448.761" x2="92.3886" y2="446.375" gradientUnits="userSpaceOnUse">
<stop stop-color="#EBF2EE"/>
<stop offset="0.0906" stop-color="#EEF4F1"/>
<stop offset="0.5539" stop-color="#FBFCFB"/>
<stop offset="1" stop-color="white"/>
</linearGradient>
<linearGradient id="paint86_linear_296_2185" x1="63.2462" y1="448.302" x2="65.1123" y2="446.2" gradientUnits="userSpaceOnUse">
<stop stop-color="#EBF2EE"/>
<stop offset="0.0906" stop-color="#EEF4F1"/>
<stop offset="0.5539" stop-color="#FBFCFB"/>
<stop offset="1" stop-color="white"/>
</linearGradient>
<linearGradient id="paint87_linear_296_2185" x1="63.3132" y1="448.362" x2="65.1793" y2="446.26" gradientUnits="userSpaceOnUse">
<stop stop-color="#EBF2EE"/>
<stop offset="0.0906" stop-color="#EEF4F1"/>
<stop offset="0.5539" stop-color="#FBFCFB"/>
<stop offset="1" stop-color="white"/>
</linearGradient>
<linearGradient id="paint88_linear_296_2185" x1="72.455" y1="417.851" x2="74.3211" y2="415.75" gradientUnits="userSpaceOnUse">
<stop stop-color="#EBF2EE"/>
<stop offset="0.0906" stop-color="#EEF4F1"/>
<stop offset="0.5539" stop-color="#FBFCFB"/>
<stop offset="1" stop-color="white"/>
</linearGradient>
<linearGradient id="paint89_linear_296_2185" x1="72.5241" y1="417.911" x2="74.3901" y2="415.809" gradientUnits="userSpaceOnUse">
<stop stop-color="#EBF2EE"/>
<stop offset="0.0906" stop-color="#EEF4F1"/>
<stop offset="0.5539" stop-color="#FBFCFB"/>
<stop offset="1" stop-color="white"/>
</linearGradient>
<linearGradient id="paint90_linear_296_2185" x1="98.3267" y1="426.441" x2="100.193" y2="424.34" gradientUnits="userSpaceOnUse">
<stop stop-color="#EBF2EE"/>
<stop offset="0.0906" stop-color="#EEF4F1"/>
<stop offset="0.5539" stop-color="#FBFCFB"/>
<stop offset="1" stop-color="white"/>
</linearGradient>
<linearGradient id="paint91_linear_296_2185" x1="98.3955" y1="426.501" x2="100.262" y2="424.399" gradientUnits="userSpaceOnUse">
<stop stop-color="#EBF2EE"/>
<stop offset="0.0906" stop-color="#EEF4F1"/>
<stop offset="0.5539" stop-color="#FBFCFB"/>
<stop offset="1" stop-color="white"/>
</linearGradient>
<linearGradient id="paint92_linear_296_2185" x1="90.1665" y1="407.974" x2="92.0325" y2="405.873" gradientUnits="userSpaceOnUse">
<stop stop-color="#EBF2EE"/>
<stop offset="0.0906" stop-color="#EEF4F1"/>
<stop offset="0.5539" stop-color="#FBFCFB"/>
<stop offset="1" stop-color="white"/>
</linearGradient>
<linearGradient id="paint93_linear_296_2185" x1="90.2354" y1="408.034" x2="92.1015" y2="405.933" gradientUnits="userSpaceOnUse">
<stop stop-color="#EBF2EE"/>
<stop offset="0.0906" stop-color="#EEF4F1"/>
<stop offset="0.5539" stop-color="#FBFCFB"/>
<stop offset="1" stop-color="white"/>
</linearGradient>
<linearGradient id="paint94_linear_296_2185" x1="20.2185" y1="310.089" x2="25.7041" y2="322.598" gradientUnits="userSpaceOnUse">
<stop stop-color="#FF97CB"/>
<stop offset="1" stop-color="#EA65AE"/>
</linearGradient>
<linearGradient id="paint95_linear_296_2185" x1="23.0225" y1="317.125" x2="31.4065" y2="337.751" gradientUnits="userSpaceOnUse">
<stop stop-color="#F92333"/>
<stop offset="1" stop-color="#9E0013"/>
</linearGradient>
<linearGradient id="paint96_linear_296_2185" x1="10.3777" y1="325.747" x2="27.0019" y2="338.586" gradientUnits="userSpaceOnUse">
<stop stop-color="#FF97CB"/>
<stop offset="1" stop-color="#EA65AE"/>
</linearGradient>
<linearGradient id="paint97_linear_296_2185" x1="53.5365" y1="314.508" x2="44.685" y2="325.634" gradientUnits="userSpaceOnUse">
<stop stop-color="#FF97CB"/>
<stop offset="1" stop-color="#EA65AE"/>
</linearGradient>
<linearGradient id="paint98_linear_296_2185" x1="48.9051" y1="320.791" x2="35.1309" y2="338.274" gradientUnits="userSpaceOnUse">
<stop stop-color="#F92333"/>
<stop offset="1" stop-color="#9E0013"/>
</linearGradient>
<linearGradient id="paint99_linear_296_2185" x1="37.9317" y1="306.306" x2="32.9765" y2="337.351" gradientUnits="userSpaceOnUse">
<stop stop-color="#FF97CB"/>
<stop offset="1" stop-color="#EA65AE"/>
</linearGradient>
<linearGradient id="paint100_linear_296_2185" x1="36.6408" y1="314.771" x2="33.0586" y2="337.214" gradientUnits="userSpaceOnUse">
<stop stop-color="#F92333"/>
<stop offset="1" stop-color="#9E0013"/>
</linearGradient>
<linearGradient id="paint101_linear_296_2185" x1="60.9748" y1="331.881" x2="36.8873" y2="340.482" gradientUnits="userSpaceOnUse">
<stop stop-color="#FF97CB"/>
<stop offset="1" stop-color="#EA65AE"/>
</linearGradient>
<linearGradient id="paint102_linear_296_2185" x1="50.664" y1="336.359" x2="35.9823" y2="340.731" gradientUnits="userSpaceOnUse">
<stop stop-color="#F92333"/>
<stop offset="1" stop-color="#9E0013"/>
</linearGradient>
<linearGradient id="paint103_linear_296_2185" x1="16.584" y1="331.532" x2="29.4831" y2="339.804" gradientUnits="userSpaceOnUse">
<stop stop-color="#F92333"/>
<stop offset="1" stop-color="#9E0013"/>
</linearGradient>
<linearGradient id="paint104_linear_296_2185" x1="33.5646" y1="336.067" x2="32.2534" y2="345.326" gradientUnits="userSpaceOnUse">
<stop stop-color="#FFAA39"/>
<stop offset="1" stop-color="#EF771D"/>
</linearGradient>
<linearGradient id="paint105_linear_296_2185" x1="334.981" y1="506.64" x2="351.447" y2="497.943" gradientUnits="userSpaceOnUse">
<stop stop-color="#FF97CB"/>
<stop offset="1" stop-color="#EA65AE"/>
</linearGradient>
<linearGradient id="paint106_linear_296_2185" x1="359.121" y1="310.176" x2="371.736" y2="291.214" gradientUnits="userSpaceOnUse">
<stop stop-color="#FFAA39"/>
<stop offset="1" stop-color="#EF771D"/>
</linearGradient>
<linearGradient id="paint107_linear_296_2185" x1="356.239" y1="139.997" x2="367.355" y2="136.025" gradientUnits="userSpaceOnUse">
<stop stop-color="#1C7042"/>
<stop offset="1" stop-color="#3CC677"/>
</linearGradient>
<linearGradient id="paint108_linear_296_2185" x1="311.916" y1="556.925" x2="323.054" y2="561.881" gradientUnits="userSpaceOnUse">
<stop stop-color="#FFAA39"/>
<stop offset="1" stop-color="#EF771D"/>
</linearGradient>
</defs>
</svg>
