<svg width="1440" height="878" viewBox="0 0 1440 878" fill="none" xmlns="http://www.w3.org/2000/svg">
<rect x="-3" y="-6" width="1448" height="884" fill="url(#paint0_linear_313_2196)" fill-opacity="0.7"/>
<path d="M223.399 212.483C223.399 226.558 225.484 237.967 225.484 237.967C225.484 237.967 227.568 226.557 227.568 212.483C227.568 198.41 225.484 187 225.484 187C225.484 187 223.399 198.408 223.399 212.483Z" fill="#F3E2A2"/>
<path d="M225.483 214.567C239.558 214.567 250.967 212.483 250.967 212.483C250.967 212.483 239.557 210.399 225.483 210.399" fill="#F3E2A2"/>
<path d="M225.483 210.399C211.408 210.399 200 212.483 200 212.483C200 212.483 211.41 214.567 225.483 214.567" fill="#F3E2A2"/>
<path d="M224.702 213.352C232.575 218.634 239.738 221.751 239.738 221.751C239.738 221.751 234.138 216.303 226.265 211.022C218.393 205.74 211.229 202.623 211.229 202.623C211.229 202.623 216.829 208.071 224.702 213.352Z" fill="#F3E2A2"/>
<path d="M226.649 212.969C231.93 205.096 235.047 197.933 235.047 197.933C235.047 197.933 229.6 203.532 224.318 211.405" fill="#F3E2A2"/>
<path d="M224.318 211.405C219.037 219.278 215.92 226.441 215.92 226.441C215.92 226.441 221.367 220.842 226.649 212.969" fill="#F3E2A2"/>
<path d="M1188.4 196.483C1188.4 210.558 1190.48 221.967 1190.48 221.967C1190.48 221.967 1192.57 210.557 1192.57 196.483C1192.57 182.408 1190.48 171 1190.48 171C1190.48 171 1188.4 182.408 1188.4 196.483Z" fill="#F3E2A2"/>
<path d="M1190.48 198.567C1204.56 198.567 1215.97 196.483 1215.97 196.483C1215.97 196.483 1204.56 194.399 1190.48 194.399" fill="#F3E2A2"/>
<path d="M1190.48 194.399C1176.41 194.399 1165 196.483 1165 196.483C1165 196.483 1176.41 198.567 1190.48 198.567" fill="#F3E2A2"/>
<path d="M1189.7 197.352C1197.57 202.634 1204.74 205.751 1204.74 205.751C1204.74 205.751 1199.14 200.303 1191.27 195.022C1183.39 189.74 1176.23 186.623 1176.23 186.623C1176.23 186.623 1181.83 192.071 1189.7 197.352Z" fill="#F3E2A2"/>
<path d="M1191.65 196.969C1196.93 189.096 1200.05 181.933 1200.05 181.933C1200.05 181.933 1194.6 187.532 1189.32 195.405" fill="#F3E2A2"/>
<path d="M1189.32 195.405C1184.04 203.278 1180.92 210.441 1180.92 210.441C1180.92 210.441 1186.37 204.842 1191.65 196.969" fill="#F3E2A2"/>
<path d="M1305.4 721.483C1305.4 735.558 1307.48 746.967 1307.48 746.967C1307.48 746.967 1309.57 735.557 1309.57 721.483C1309.57 707.408 1307.48 696 1307.48 696C1307.48 696 1305.4 707.408 1305.4 721.483Z" fill="#F3E2A2"/>
<path d="M1307.48 723.567C1321.56 723.567 1332.97 721.483 1332.97 721.483C1332.97 721.483 1321.56 719.399 1307.48 719.399" fill="#F3E2A2"/>
<path d="M1307.48 719.399C1293.41 719.399 1282 721.483 1282 721.483C1282 721.483 1293.41 723.567 1307.48 723.567" fill="#F3E2A2"/>
<path d="M1306.7 722.352C1314.57 727.634 1321.74 730.751 1321.74 730.751C1321.74 730.751 1316.14 725.303 1308.27 720.022C1300.39 714.74 1293.23 711.623 1293.23 711.623C1293.23 711.623 1298.83 717.071 1306.7 722.352Z" fill="#F3E2A2"/>
<path d="M1308.65 721.969C1313.93 714.096 1317.05 706.933 1317.05 706.933C1317.05 706.933 1311.6 712.532 1306.32 720.405" fill="#F3E2A2"/>
<path d="M1306.32 720.405C1301.04 728.278 1297.92 735.441 1297.92 735.441C1297.92 735.441 1303.37 729.842 1308.65 721.969" fill="#F3E2A2"/>
<path d="M123.415 528.675C123.415 542.75 125.499 554.158 125.499 554.158C125.499 554.158 127.583 542.748 127.583 528.675C127.583 514.6 125.499 503.192 125.499 503.192C125.499 503.192 123.415 514.6 123.415 528.675Z" fill="#F3E2A2"/>
<path d="M125.499 530.758C139.574 530.758 150.982 528.674 150.982 528.674C150.982 528.674 139.572 526.589 125.499 526.589" fill="#F3E2A2"/>
<path d="M125.499 526.591C111.424 526.591 100.016 528.675 100.016 528.675C100.016 528.675 111.426 530.759 125.499 530.759" fill="#F3E2A2"/>
<path d="M124.717 529.542C132.59 534.824 139.753 537.941 139.753 537.941C139.753 537.941 134.154 532.494 126.281 527.212C118.408 521.931 111.245 518.814 111.245 518.814C111.245 518.814 116.845 524.261 124.717 529.542Z" fill="#F3E2A2"/>
<path d="M126.664 529.159C131.946 521.286 135.063 514.123 135.063 514.123C135.063 514.123 129.615 519.723 124.334 527.595" fill="#F3E2A2"/>
<path d="M124.334 527.595C119.053 535.468 115.936 542.631 115.936 542.631C115.936 542.631 121.383 537.032 126.664 529.159" fill="#F3E2A2"/>
<path d="M373.399 713.483C373.399 727.558 375.484 738.968 375.484 738.968C375.484 738.968 377.568 727.558 377.568 713.483C377.568 699.408 375.484 688 375.484 688C375.484 688 373.399 699.408 373.399 713.483Z" fill="#F3E2A2"/>
<path d="M375.483 715.567C389.558 715.567 400.967 713.483 400.967 713.483C400.967 713.483 389.557 711.399 375.483 711.399" fill="#F3E2A2"/>
<path d="M375.483 711.399C361.408 711.399 350 713.483 350 713.483C350 713.483 361.41 715.567 375.483 715.567" fill="#F3E2A2"/>
<path d="M374.702 714.352C382.575 719.634 389.738 722.751 389.738 722.751C389.738 722.751 384.138 717.303 376.265 712.022C368.393 706.74 361.229 703.623 361.229 703.623C361.229 703.623 366.829 709.071 374.702 714.352Z" fill="#F3E2A2"/>
<path d="M376.649 713.969C381.93 706.096 385.047 698.933 385.047 698.933C385.047 698.933 379.6 704.532 374.318 712.405" fill="#F3E2A2"/>
<path d="M374.318 712.405C369.037 720.278 365.92 727.441 365.92 727.441C365.92 727.441 371.367 721.842 376.649 713.969" fill="#F3E2A2"/>
<path d="M1292.4 413.483C1292.4 427.558 1294.48 438.967 1294.48 438.967C1294.48 438.967 1296.57 427.557 1296.57 413.483C1296.57 399.408 1294.48 388 1294.48 388C1294.48 388 1292.4 399.41 1292.4 413.483Z" fill="#F3E2A2"/>
<path d="M1294.48 415.567C1308.56 415.567 1319.97 413.483 1319.97 413.483C1319.97 413.483 1308.56 411.399 1294.48 411.399" fill="#F3E2A2"/>
<path d="M1294.48 411.401C1280.41 411.401 1269 413.485 1269 413.485C1269 413.485 1280.41 415.569 1294.48 415.569" fill="#F3E2A2"/>
<path d="M1293.7 414.352C1301.57 419.634 1308.74 422.751 1308.74 422.751C1308.74 422.751 1303.14 417.303 1295.27 412.022C1287.39 406.74 1280.23 403.623 1280.23 403.623C1280.23 403.623 1285.83 409.071 1293.7 414.352Z" fill="#F3E2A2"/>
<path d="M1295.65 413.969C1300.93 406.096 1304.05 398.933 1304.05 398.933C1304.05 398.933 1298.6 404.532 1293.32 412.405" fill="#F3E2A2"/>
<path d="M1293.32 412.405C1288.04 420.278 1284.92 427.441 1284.92 427.441C1284.92 427.441 1290.37 421.842 1295.65 413.969" fill="#F3E2A2"/>
<defs>
<linearGradient id="paint0_linear_313_2196" x1="721" y1="-6" x2="721" y2="878" gradientUnits="userSpaceOnUse">
<stop stop-color="#090909"/>
<stop offset="1" stop-color="#090909" stop-opacity="0"/>
</linearGradient>
</defs>
</svg>
