<svg width="430" height="630" viewBox="0 0 430 630" fill="none" xmlns="http://www.w3.org/2000/svg">
<rect width="433" height="630" fill="url(#paint0_linear_313_2764)" fill-opacity="0.7"/>
<path d="M87.3789 132.661C87.3789 141.311 88.6597 148.322 88.6597 148.322C88.6597 148.322 89.9406 141.31 89.9406 132.661C89.9406 124.012 88.6597 117 88.6597 117C88.6597 117 87.3789 124.011 87.3789 132.661Z" fill="#F3E2A2"/>
<path d="M88.6602 133.942C97.3101 133.942 104.321 132.661 104.321 132.661C104.321 132.661 97.3091 131.38 88.6602 131.38" fill="#F3E2A2"/>
<path d="M88.661 131.38C80.0111 131.38 73 132.661 73 132.661C73 132.661 80.0121 133.942 88.661 133.942" fill="#F3E2A2"/>
<path d="M88.18 133.195C93.0183 136.441 97.4204 138.356 97.4204 138.356C97.4204 138.356 93.9792 135.009 89.1408 131.763C84.3025 128.517 79.9004 126.602 79.9004 126.602C79.9004 126.602 83.3416 129.949 88.18 133.195Z" fill="#F3E2A2"/>
<path d="M89.3774 132.959C92.6232 128.121 94.5387 123.719 94.5387 123.719C94.5387 123.719 91.1911 127.16 87.9453 131.998" fill="#F3E2A2"/>
<path d="M87.9446 131.998C84.6988 136.837 82.7832 141.239 82.7832 141.239C82.7832 141.239 86.1308 137.798 89.3766 132.959" fill="#F3E2A2"/>
<path d="M364.381 121.661C364.381 130.311 365.662 137.322 365.662 137.322C365.662 137.322 366.943 130.31 366.943 121.661C366.943 113.011 365.662 106 365.662 106C365.662 106 364.381 113.011 364.381 121.661Z" fill="#F3E2A2"/>
<path d="M365.66 122.942C374.31 122.942 381.321 121.661 381.321 121.661C381.321 121.661 374.309 120.38 365.66 120.38" fill="#F3E2A2"/>
<path d="M365.661 120.38C357.011 120.38 350 121.661 350 121.661C350 121.661 357.012 122.942 365.661 122.942" fill="#F3E2A2"/>
<path d="M365.182 122.195C370.02 125.441 374.422 127.356 374.422 127.356C374.422 127.356 370.981 124.009 366.143 120.763C361.304 117.517 356.902 115.602 356.902 115.602C356.902 115.602 360.344 118.949 365.182 122.195Z" fill="#F3E2A2"/>
<path d="M366.377 121.959C369.623 117.121 371.539 112.719 371.539 112.719C371.539 112.719 368.191 116.16 364.945 120.999" fill="#F3E2A2"/>
<path d="M364.947 120.999C361.701 125.837 359.785 130.239 359.785 130.239C359.785 130.239 363.133 126.798 366.379 121.959" fill="#F3E2A2"/>
<path d="M311.299 470.661C311.299 479.311 312.661 486.322 312.661 486.322C312.661 486.322 314.024 479.31 314.024 470.661C314.024 462.011 312.661 455 312.661 455C312.661 455 311.299 462.011 311.299 470.661Z" fill="#F3E2A2"/>
<path d="M312.66 471.942C321.862 471.942 329.321 470.661 329.321 470.661C329.321 470.661 321.861 469.38 312.66 469.38" fill="#F3E2A2"/>
<path d="M312.661 469.38C303.459 469.38 296 470.661 296 470.661C296 470.661 303.46 471.942 312.661 471.942" fill="#F3E2A2"/>
<path d="M312.808 472.476C317.956 475.722 322.639 477.637 322.639 477.637C322.639 477.637 318.978 474.29 313.83 471.044C308.683 467.798 304 465.883 304 465.883C304 465.883 307.661 469.23 312.808 472.476Z" fill="#F3E2A2"/>
<path d="M314.08 472.24C317.533 467.402 319.571 463 319.571 463C319.571 463 316.01 466.441 312.557 471.28" fill="#F3E2A2"/>
<path d="M312.557 471.28C309.104 476.118 307.066 480.52 307.066 480.52C307.066 480.52 310.628 477.079 314.081 472.24" fill="#F3E2A2"/>
<path d="M380.299 362.661C380.299 371.311 381.661 378.322 381.661 378.322C381.661 378.322 383.024 371.31 383.024 362.661C383.024 354.011 381.661 347 381.661 347C381.661 347 380.299 354.011 380.299 362.661Z" fill="#F3E2A2"/>
<path d="M381.66 363.942C390.862 363.942 398.321 362.661 398.321 362.661C398.321 362.661 390.861 361.38 381.66 361.38" fill="#F3E2A2"/>
<path d="M381.661 361.38C372.459 361.38 365 362.661 365 362.661C365 362.661 372.46 363.942 381.661 363.942" fill="#F3E2A2"/>
<path d="M381.808 364.476C386.956 367.722 391.639 369.637 391.639 369.637C391.639 369.637 387.978 366.29 382.83 363.044C377.683 359.798 373 357.883 373 357.883C373 357.883 376.661 361.23 381.808 364.476Z" fill="#F3E2A2"/>
<path d="M383.08 364.24C386.533 359.402 388.571 355 388.571 355C388.571 355 385.01 358.441 381.557 363.28" fill="#F3E2A2"/>
<path d="M381.557 363.28C378.104 368.118 376.066 372.52 376.066 372.52C376.066 372.52 379.628 369.079 383.081 364.24" fill="#F3E2A2"/>
<path d="M39.3789 366.813C39.3789 375.463 40.6597 382.474 40.6597 382.474C40.6597 382.474 41.9406 375.462 41.9406 366.813C41.9406 358.163 40.6597 351.152 40.6597 351.152C40.6597 351.152 39.3789 358.163 39.3789 366.813Z" fill="#F3E2A2"/>
<path d="M40.6602 368.093C49.3101 368.093 56.3212 366.812 56.3212 366.812C56.3212 366.812 49.3091 365.531 40.6602 365.531" fill="#F3E2A2"/>
<path d="M40.661 365.532C32.0111 365.532 25 366.813 25 366.813C25 366.813 32.0121 368.094 40.661 368.094" fill="#F3E2A2"/>
<path d="M40.18 367.346C45.0183 370.592 49.4204 372.507 49.4204 372.507C49.4204 372.507 45.9792 369.16 41.1409 365.914C36.3025 362.668 31.9004 360.753 31.9004 360.753C31.9004 360.753 35.3416 364.1 40.18 367.346Z" fill="#F3E2A2"/>
<path d="M41.3774 367.111C44.6232 362.272 46.5387 357.87 46.5387 357.87C46.5387 357.87 43.1911 361.311 39.9453 366.15" fill="#F3E2A2"/>
<path d="M39.9446 366.15C36.6988 370.988 34.7832 375.39 34.7832 375.39C34.7832 375.39 38.1308 371.949 41.3766 367.111" fill="#F3E2A2"/>
<path d="M110.379 493.661C110.379 502.311 111.66 509.323 111.66 509.323C111.66 509.323 112.941 502.311 112.941 493.661C112.941 485.011 111.66 478 111.66 478C111.66 478 110.379 485.011 110.379 493.661Z" fill="#F3E2A2"/>
<path d="M111.66 494.942C120.31 494.942 127.321 493.661 127.321 493.661C127.321 493.661 120.309 492.38 111.66 492.38" fill="#F3E2A2"/>
<path d="M111.661 492.38C103.011 492.38 96 493.661 96 493.661C96 493.661 103.012 494.942 111.661 494.942" fill="#F3E2A2"/>
<path d="M111.178 494.195C116.016 497.441 120.418 499.356 120.418 499.356C120.418 499.356 116.977 496.009 112.139 492.763C107.301 489.517 102.898 487.602 102.898 487.602C102.898 487.602 106.34 490.949 111.178 494.195Z" fill="#F3E2A2"/>
<path d="M112.375 493.959C115.621 489.121 117.537 484.719 117.537 484.719C117.537 484.719 114.189 488.16 110.943 492.999" fill="#F3E2A2"/>
<path d="M110.943 492.999C107.697 497.837 105.781 502.239 105.781 502.239C105.781 502.239 109.129 498.798 112.375 493.959" fill="#F3E2A2"/>
<path d="M242.381 181.661C242.381 190.311 243.662 197.322 243.662 197.322C243.662 197.322 244.942 190.31 244.942 181.661C244.942 173.011 243.662 166 243.662 166C243.662 166 242.381 173.012 242.381 181.661Z" fill="#F3E2A2"/>
<path d="M243.662 182.942C252.312 182.942 259.323 181.661 259.323 181.661C259.323 181.661 252.311 180.38 243.662 180.38" fill="#F3E2A2"/>
<path d="M243.661 180.381C235.011 180.381 228 181.662 228 181.662C228 181.662 235.012 182.943 243.661 182.943" fill="#F3E2A2"/>
<path d="M243.182 182.195C248.02 185.441 252.422 187.356 252.422 187.356C252.422 187.356 248.981 184.009 244.143 180.763C239.304 177.517 234.902 175.602 234.902 175.602C234.902 175.602 238.344 178.949 243.182 182.195Z" fill="#F3E2A2"/>
<path d="M244.379 181.959C247.625 177.121 249.541 172.719 249.541 172.719C249.541 172.719 246.193 176.16 242.947 180.999" fill="#F3E2A2"/>
<path d="M242.947 180.999C239.701 185.837 237.785 190.239 237.785 190.239C237.785 190.239 241.133 186.798 244.379 181.959" fill="#F3E2A2"/>
<defs>
<linearGradient id="paint0_linear_313_2764" x1="216.5" y1="0" x2="216.5" y2="630" gradientUnits="userSpaceOnUse">
<stop stop-color="#090909"/>
<stop offset="1" stop-color="#090909" stop-opacity="0"/>
</linearGradient>
</defs>
</svg>
