<svg width="1440" height="2756" viewBox="0 0 1440 2756" fill="none" xmlns="http://www.w3.org/2000/svg">
<g clip-path="url(#clip0_1140_9621)">
<rect width="1440" height="2756" fill="white"/>
<path d="M1604.26 -19H-304V1282.97H1604.26V-19Z" fill="url(#paint0_linear_1140_9621)"/>
<path d="M38.6108 395.452C37.2373 395.452 35.914 395.72 34.6296 396.134C27.1461 359.901 3.36491 333.384 -24.8689 333.384C-36.3484 333.384 -47.0595 337.84 -56.2802 345.47C-70.0965 325.745 -89.3193 313.5 -110.587 313.5C-144.965 313.5 -174.012 345.468 -183.479 389.368C-183.976 389.321 -184.472 389.261 -184.977 389.261C-197.217 389.261 -207.14 403.184 -207.14 420.359H-186.744H-162.816H-86.8545H-34.4293H20.8617H37.1185H56.3636C56.3636 406.603 48.4161 395.452 38.6108 395.452Z" fill="url(#paint1_linear_1140_9621)"/>
<path d="M1604.26 -19H-304V1282.97H1604.26V-19Z" fill="url(#paint2_linear_1140_9621)"/>
<path d="M442.335 440.015C441.355 440.015 440.411 440.165 439.495 440.397C434.157 420.052 417.189 405.164 397.044 405.164C388.854 405.164 381.211 407.666 374.634 411.951C364.775 400.876 351.061 394 335.887 394C311.36 394 290.636 411.95 283.881 436.599C283.526 436.573 283.173 436.539 282.812 436.539C274.079 436.539 267 444.356 267 454H281.552H298.624H352.819H390.223H429.67H441.269H455C455 446.277 449.329 440.015 442.335 440.015Z" fill="url(#paint3_linear_1140_9621)"/>
<path d="M233.568 203.511C232.838 203.511 232.135 203.624 231.453 203.798C227.477 188.54 214.842 177.373 199.841 177.373C193.742 177.373 188.051 179.25 183.152 182.463C175.811 174.157 165.598 169 154.298 169C136.034 169 120.601 182.462 115.571 200.949C115.307 200.929 115.043 200.904 114.775 200.904C108.272 200.904 103 206.767 103 214H113.836H126.549H166.908H194.761H224.138H232.775H243C243 208.207 238.777 203.511 233.568 203.511Z" fill="url(#paint4_linear_1140_9621)"/>
<path d="M513.094 151.571C512.792 151.571 512.5 151.618 512.218 151.692C510.57 145.249 505.336 140.535 499.121 140.535C496.595 140.535 494.237 141.327 492.207 142.684C489.166 139.176 484.935 137 480.253 137C472.686 137 466.292 142.684 464.208 150.49C464.098 150.482 463.989 150.471 463.879 150.471C461.184 150.471 459 152.946 459 156H463.489H468.756H485.476H497.015H509.186H512.764H517C517.001 153.553 515.251 151.571 513.094 151.571Z" fill="url(#paint5_linear_1140_9621)"/>
<path d="M136.835 471.737C136.589 471.737 136.353 471.772 136.124 471.826C134.789 467.079 130.548 463.605 125.511 463.605C123.463 463.605 121.553 464.189 119.909 465.188C117.444 462.604 114.015 461 110.222 461C104.09 461 98.9095 465.188 97.2202 470.939C97.1312 470.933 97.0431 470.926 96.953 470.926C94.7704 470.926 93 472.75 93 475H96.6378H100.906H114.455H123.807H133.668H136.567H140C140.001 473.198 138.583 471.737 136.835 471.737Z" fill="url(#paint6_linear_1140_9621)"/>
<path d="M745.732 208.014C746.717 208.014 747.666 208.163 748.588 208.396C753.954 188.052 771.012 173.164 791.263 173.164C799.496 173.164 807.181 175.666 813.793 179.951C823.704 168.875 837.491 162 852.746 162C877.404 162 898.237 179.95 905.029 204.599C905.386 204.573 905.741 204.539 906.103 204.539C914.883 204.539 922 212.356 922 222H907.371H890.208H835.724H798.122H758.464H746.804H733C733 214.276 738.7 208.014 745.732 208.014Z" fill="url(#paint7_linear_1140_9621)"/>
<path d="M841.687 1083.92C842.823 1083.92 843.917 1084.09 844.98 1084.36C851.171 1060.96 870.845 1043.84 894.205 1043.84C903.701 1043.84 912.563 1046.72 920.192 1051.64C931.622 1038.91 947.526 1031 965.121 1031C993.562 1031 1017.59 1051.64 1025.43 1079.99C1025.84 1079.96 1026.25 1079.92 1026.67 1079.92C1036.79 1079.92 1045 1088.91 1045 1100H1028.13H1008.33H945.486H902.114H856.372H842.922H827C827 1091.12 833.575 1083.92 841.687 1083.92Z" fill="url(#paint8_linear_1140_9621)"/>
<path d="M1142.95 358.375C1143.57 358.375 1144.16 358.467 1144.73 358.611C1148.08 346.065 1158.73 336.885 1171.38 336.885C1176.52 336.885 1181.31 338.428 1185.44 341.07C1191.63 334.241 1200.24 330 1209.76 330C1225.16 330 1238.17 341.068 1242.4 356.27C1242.63 356.253 1242.85 356.233 1243.08 356.233C1248.56 356.233 1253 361.054 1253 367H1243.87H1233.15H1199.13H1175.66H1150.9H1143.62H1135C1135 362.236 1138.56 358.375 1142.95 358.375Z" fill="url(#paint9_linear_1140_9621)"/>
<path d="M936.392 430.173C936.809 430.173 937.21 430.236 937.6 430.333C939.871 421.855 947.092 415.652 955.664 415.652C959.148 415.652 962.401 416.695 965.2 418.479C969.394 413.864 975.23 411 981.687 411C992.124 411 1000.94 418.479 1003.82 428.749C1003.97 428.739 1004.12 428.725 1004.27 428.725C1007.99 428.725 1011 431.982 1011 436H1004.81H997.542H974.481H958.564H941.779H936.843H931C931.001 432.782 933.415 430.173 936.392 430.173Z" fill="url(#paint10_linear_1140_9621)"/>
<path d="M657.335 861.015C656.355 861.015 655.411 861.165 654.495 861.397C649.157 841.052 632.189 826.164 612.044 826.164C603.854 826.164 596.211 828.666 589.634 832.951C579.775 821.876 566.061 815 550.887 815C526.36 815 505.636 832.95 498.881 857.599C498.526 857.573 498.173 857.539 497.812 857.539C489.079 857.539 482 865.356 482 875H496.552H513.624H567.819H605.223H644.67H656.269H670C670 867.277 664.329 861.015 657.335 861.015Z" fill="url(#paint11_linear_1140_9621)"/>
<path d="M448.568 624.511C447.838 624.511 447.135 624.624 446.453 624.798C442.477 609.54 429.842 598.373 414.841 598.373C408.742 598.373 403.051 600.25 398.152 603.463C390.811 595.157 380.598 590 369.298 590C351.034 590 335.601 603.462 330.571 621.949C330.307 621.929 330.043 621.904 329.775 621.904C323.272 621.904 318 627.767 318 635H328.836H341.549H381.908H409.761H439.138H447.775H458C458 629.207 453.777 624.511 448.568 624.511Z" fill="url(#paint12_linear_1140_9621)"/>
<path d="M728.094 572.571C727.792 572.571 727.5 572.618 727.218 572.692C725.57 566.249 720.336 561.535 714.121 561.535C711.595 561.535 709.237 562.327 707.207 563.684C704.166 560.176 699.935 558 695.253 558C687.686 558 681.292 563.684 679.208 571.49C679.098 571.482 678.989 571.471 678.879 571.471C676.184 571.471 674 573.946 674 577H678.489H683.756H700.476H712.015H724.186H727.764H732C732.001 574.553 730.251 572.571 728.094 572.571Z" fill="url(#paint13_linear_1140_9621)"/>
<path d="M351.835 892.737C351.589 892.737 351.353 892.772 351.124 892.826C349.789 888.079 345.548 884.605 340.511 884.605C338.463 884.605 336.553 885.189 334.909 886.188C332.444 883.604 329.015 882 325.222 882C319.09 882 313.91 886.188 312.22 891.939C312.131 891.933 312.043 891.926 311.953 891.926C309.77 891.926 308 893.75 308 896H311.638H315.906H329.455H338.807H348.668H351.567H355C355.001 894.198 353.583 892.737 351.835 892.737Z" fill="url(#paint14_linear_1140_9621)"/>
<path d="M960.732 629.014C961.717 629.014 962.666 629.163 963.588 629.396C968.954 609.052 986.012 594.164 1006.26 594.164C1014.5 594.164 1022.18 596.666 1028.79 600.951C1038.7 589.875 1052.49 583 1067.75 583C1092.4 583 1113.24 600.95 1120.03 625.599C1120.39 625.573 1120.74 625.539 1121.1 625.539C1129.88 625.539 1137 633.356 1137 643H1122.37H1105.21H1050.72H1013.12H973.464H961.804H948C948 635.276 953.7 629.014 960.732 629.014Z" fill="url(#paint15_linear_1140_9621)"/>
<path d="M1056.69 1504.92C1057.82 1504.92 1058.92 1505.09 1059.98 1505.36C1066.17 1481.96 1085.85 1464.84 1109.2 1464.84C1118.7 1464.84 1127.56 1467.72 1135.19 1472.64C1146.62 1459.91 1162.53 1452 1180.12 1452C1208.56 1452 1232.59 1472.64 1240.43 1500.99C1240.84 1500.96 1241.25 1500.92 1241.67 1500.92C1251.79 1500.92 1260 1509.91 1260 1521H1243.13H1223.33H1160.49H1117.11H1071.37H1057.92H1042C1042 1512.12 1048.58 1504.92 1056.69 1504.92Z" fill="url(#paint16_linear_1140_9621)"/>
<path d="M1357.95 779.375C1358.57 779.375 1359.16 779.467 1359.73 779.611C1363.08 767.065 1373.73 757.885 1386.38 757.885C1391.52 757.885 1396.31 759.428 1400.44 762.07C1406.63 755.241 1415.24 751 1424.76 751C1440.16 751 1453.17 762.068 1457.4 777.27C1457.63 777.253 1457.85 777.233 1458.08 777.233C1463.56 777.233 1468 782.054 1468 788H1458.87H1448.15H1414.13H1390.66H1365.9H1358.62H1350C1350 783.236 1353.56 779.375 1357.95 779.375Z" fill="url(#paint17_linear_1140_9621)"/>
<path d="M1151.39 851.173C1151.81 851.173 1152.21 851.236 1152.6 851.333C1154.87 842.855 1162.09 836.652 1170.66 836.652C1174.15 836.652 1177.4 837.695 1180.2 839.479C1184.39 834.864 1190.23 832 1196.69 832C1207.12 832 1215.94 839.479 1218.82 849.749C1218.97 849.739 1219.12 849.725 1219.27 849.725C1222.99 849.725 1226 852.982 1226 857H1219.81H1212.54H1189.48H1173.56H1156.78H1151.84H1146C1146 853.782 1148.41 851.173 1151.39 851.173Z" fill="url(#paint18_linear_1140_9621)"/>
<path d="M539.335 1118.01C538.355 1118.01 537.411 1118.16 536.495 1118.4C531.157 1098.05 514.189 1083.16 494.044 1083.16C485.854 1083.16 478.211 1085.67 471.634 1089.95C461.775 1078.88 448.061 1072 432.887 1072C408.36 1072 387.636 1089.95 380.881 1114.6C380.526 1114.57 380.173 1114.54 379.812 1114.54C371.079 1114.54 364 1122.36 364 1132H378.552H395.624H449.819H487.223H526.67H538.269H552C552 1124.28 546.329 1118.01 539.335 1118.01Z" fill="url(#paint19_linear_1140_9621)"/>
<path d="M330.568 881.511C329.838 881.511 329.135 881.624 328.453 881.798C324.477 866.54 311.842 855.373 296.841 855.373C290.742 855.373 285.051 857.25 280.152 860.463C272.811 852.157 262.598 847 251.298 847C233.034 847 217.601 860.462 212.571 878.949C212.307 878.929 212.043 878.904 211.775 878.904C205.272 878.904 200 884.767 200 892H210.836H223.549H263.908H291.761H321.138H329.775H340C340 886.207 335.777 881.511 330.568 881.511Z" fill="url(#paint20_linear_1140_9621)"/>
<path d="M610.094 829.571C609.792 829.571 609.5 829.618 609.218 829.692C607.57 823.249 602.336 818.535 596.121 818.535C593.595 818.535 591.237 819.327 589.207 820.684C586.166 817.176 581.935 815 577.253 815C569.686 815 563.292 820.684 561.208 828.49C561.098 828.482 560.989 828.471 560.879 828.471C558.184 828.471 556 830.946 556 834H560.489H565.756H582.476H594.015H606.186H609.764H614C614.001 831.553 612.251 829.571 610.094 829.571Z" fill="url(#paint21_linear_1140_9621)"/>
<path d="M233.835 1149.74C233.589 1149.74 233.353 1149.77 233.124 1149.83C231.789 1145.08 227.548 1141.61 222.511 1141.61C220.463 1141.61 218.553 1142.19 216.909 1143.19C214.444 1140.6 211.015 1139 207.222 1139C201.09 1139 195.91 1143.19 194.22 1148.94C194.131 1148.93 194.043 1148.93 193.953 1148.93C191.77 1148.93 190 1150.75 190 1153H193.638H197.906H211.455H220.807H230.668H233.567H237C237.001 1151.2 235.583 1149.74 233.835 1149.74Z" fill="url(#paint22_linear_1140_9621)"/>
<path d="M842.732 886.014C843.717 886.014 844.666 886.163 845.588 886.396C850.954 866.052 868.012 851.164 888.263 851.164C896.496 851.164 904.181 853.666 910.793 857.951C920.704 846.875 934.491 840 949.746 840C974.404 840 995.237 857.95 1002.03 882.599C1002.39 882.573 1002.74 882.539 1003.1 882.539C1011.88 882.539 1019 890.356 1019 900H1004.37H987.208H932.724H895.122H855.464H843.804H830C830 892.276 835.7 886.014 842.732 886.014Z" fill="url(#paint23_linear_1140_9621)"/>
<path d="M938.687 1761.92C939.823 1761.92 940.917 1762.09 941.98 1762.36C948.171 1738.96 967.845 1721.84 991.205 1721.84C1000.7 1721.84 1009.56 1724.72 1017.19 1729.64C1028.62 1716.91 1044.53 1709 1062.12 1709C1090.56 1709 1114.59 1729.64 1122.43 1757.99C1122.84 1757.96 1123.25 1757.92 1123.67 1757.92C1133.79 1757.92 1142 1766.91 1142 1778H1125.13H1105.33H1042.49H999.114H953.372H939.922H924C924 1769.12 930.575 1761.92 938.687 1761.92Z" fill="url(#paint24_linear_1140_9621)"/>
<path d="M1239.95 1036.38C1240.57 1036.38 1241.16 1036.47 1241.73 1036.61C1245.08 1024.06 1255.73 1014.88 1268.38 1014.88C1273.52 1014.88 1278.31 1016.43 1282.44 1019.07C1288.63 1012.24 1297.24 1008 1306.76 1008C1322.16 1008 1335.17 1019.07 1339.4 1034.27C1339.63 1034.25 1339.85 1034.23 1340.08 1034.23C1345.56 1034.23 1350 1039.05 1350 1045H1340.87H1330.15H1296.13H1272.66H1247.9H1240.62H1232C1232 1040.24 1235.56 1036.38 1239.95 1036.38Z" fill="url(#paint25_linear_1140_9621)"/>
<path d="M1033.39 1108.17C1033.81 1108.17 1034.21 1108.24 1034.6 1108.33C1036.87 1099.86 1044.09 1093.65 1052.66 1093.65C1056.15 1093.65 1059.4 1094.69 1062.2 1096.48C1066.39 1091.86 1072.23 1089 1078.69 1089C1089.12 1089 1097.94 1096.48 1100.82 1106.75C1100.97 1106.74 1101.12 1106.72 1101.27 1106.72C1104.99 1106.72 1108 1109.98 1108 1114H1101.81H1094.54H1071.48H1055.56H1038.78H1033.84H1028C1028 1110.78 1030.41 1108.17 1033.39 1108.17Z" fill="url(#paint26_linear_1140_9621)"/>
<path d="M1609.26 1275H-299V2746.27H1609.26V1275Z" fill="url(#paint27_linear_1140_9621)"/>
<path d="M586.335 1392.01C585.355 1392.01 584.411 1392.16 583.495 1392.4C578.157 1372.05 561.189 1357.16 541.044 1357.16C532.854 1357.16 525.211 1359.67 518.634 1363.95C508.775 1352.88 495.061 1346 479.887 1346C455.36 1346 434.636 1363.95 427.881 1388.6C427.526 1388.57 427.173 1388.54 426.812 1388.54C418.079 1388.54 411 1396.36 411 1406H425.552H442.624H496.819H534.223H573.67H585.269H599C599 1398.28 593.329 1392.01 586.335 1392.01Z" fill="url(#paint28_linear_1140_9621)"/>
<path d="M377.568 1155.51C376.838 1155.51 376.135 1155.62 375.453 1155.8C371.477 1140.54 358.842 1129.37 343.841 1129.37C337.742 1129.37 332.051 1131.25 327.152 1134.46C319.811 1126.16 309.598 1121 298.298 1121C280.034 1121 264.601 1134.46 259.571 1152.95C259.307 1152.93 259.043 1152.9 258.775 1152.9C252.272 1152.9 247 1158.77 247 1166H257.836H270.549H310.908H338.761H368.138H376.775H387C387 1160.21 382.777 1155.51 377.568 1155.51Z" fill="url(#paint29_linear_1140_9621)"/>
<path d="M657.094 1103.57C656.792 1103.57 656.5 1103.62 656.218 1103.69C654.57 1097.25 649.336 1092.54 643.121 1092.54C640.595 1092.54 638.237 1093.33 636.207 1094.68C633.166 1091.18 628.935 1089 624.253 1089C616.686 1089 610.292 1094.68 608.208 1102.49C608.098 1102.48 607.989 1102.47 607.879 1102.47C605.184 1102.47 603 1104.95 603 1108H607.489H612.756H629.476H641.015H653.186H656.764H661C661.001 1105.55 659.251 1103.57 657.094 1103.57Z" fill="url(#paint30_linear_1140_9621)"/>
<path d="M280.835 1423.74C280.589 1423.74 280.353 1423.77 280.124 1423.83C278.789 1419.08 274.548 1415.61 269.511 1415.61C267.463 1415.61 265.553 1416.19 263.909 1417.19C261.444 1414.6 258.015 1413 254.222 1413C248.09 1413 242.91 1417.19 241.22 1422.94C241.131 1422.93 241.043 1422.93 240.953 1422.93C238.77 1422.93 237 1424.75 237 1427H240.638H244.906H258.455H267.807H277.668H280.567H284C284.001 1425.2 282.583 1423.74 280.835 1423.74Z" fill="url(#paint31_linear_1140_9621)"/>
<path d="M889.732 1160.01C890.717 1160.01 891.666 1160.16 892.588 1160.4C897.954 1140.05 915.012 1125.16 935.263 1125.16C943.496 1125.16 951.181 1127.67 957.793 1131.95C967.704 1120.88 981.491 1114 996.746 1114C1021.4 1114 1042.24 1131.95 1049.03 1156.6C1049.39 1156.57 1049.74 1156.54 1050.1 1156.54C1058.88 1156.54 1066 1164.36 1066 1174H1051.37H1034.21H979.724H942.122H902.464H890.804H877C877 1166.28 882.7 1160.01 889.732 1160.01Z" fill="url(#paint32_linear_1140_9621)"/>
<path d="M985.687 2035.92C986.823 2035.92 987.917 2036.09 988.98 2036.36C995.171 2012.96 1014.85 1995.84 1038.2 1995.84C1047.7 1995.84 1056.56 1998.72 1064.19 2003.64C1075.62 1990.91 1091.53 1983 1109.12 1983C1137.56 1983 1161.59 2003.64 1169.43 2031.99C1169.84 2031.96 1170.25 2031.92 1170.67 2031.92C1180.79 2031.92 1189 2040.91 1189 2052H1172.13H1152.33H1089.49H1046.11H1000.37H986.922H971C971 2043.12 977.575 2035.92 985.687 2035.92Z" fill="url(#paint33_linear_1140_9621)"/>
<path d="M1286.95 1310.38C1287.57 1310.38 1288.16 1310.47 1288.73 1310.61C1292.08 1298.06 1302.73 1288.88 1315.38 1288.88C1320.52 1288.88 1325.31 1290.43 1329.44 1293.07C1335.63 1286.24 1344.24 1282 1353.76 1282C1369.16 1282 1382.17 1293.07 1386.4 1308.27C1386.63 1308.25 1386.85 1308.23 1387.08 1308.23C1392.56 1308.23 1397 1313.05 1397 1319H1387.87H1377.15H1343.13H1319.66H1294.9H1287.62H1279C1279 1314.24 1282.56 1310.38 1286.95 1310.38Z" fill="url(#paint34_linear_1140_9621)"/>
<path d="M1080.39 1382.17C1080.81 1382.17 1081.21 1382.24 1081.6 1382.33C1083.87 1373.86 1091.09 1367.65 1099.66 1367.65C1103.15 1367.65 1106.4 1368.69 1109.2 1370.48C1113.39 1365.86 1119.23 1363 1125.69 1363C1136.12 1363 1144.94 1370.48 1147.82 1380.75C1147.97 1380.74 1148.12 1380.72 1148.27 1380.72C1151.99 1380.72 1155 1383.98 1155 1388H1148.81H1141.54H1118.48H1102.56H1085.78H1080.84H1075C1075 1384.78 1077.41 1382.17 1080.39 1382.17Z" fill="url(#paint35_linear_1140_9621)"/>
<path d="M137.335 1804.01C136.355 1804.01 135.411 1804.16 134.495 1804.4C129.157 1784.05 112.189 1769.16 92.044 1769.16C83.8545 1769.16 76.2107 1771.67 69.6336 1775.95C59.7754 1764.88 46.0607 1758 30.8869 1758C6.35997 1758 -14.3638 1775.95 -21.1189 1800.6C-21.4738 1800.57 -21.8267 1800.54 -22.1875 1800.54C-30.9207 1800.54 -38 1808.36 -38 1818H-23.448H-6.37602H47.8194H85.2227H124.67H136.269H150C150 1810.28 144.329 1804.01 137.335 1804.01Z" fill="url(#paint36_linear_1140_9621)"/>
<path d="M208.094 1515.57C207.792 1515.57 207.5 1515.62 207.218 1515.69C205.57 1509.25 200.336 1504.54 194.121 1504.54C191.595 1504.54 189.237 1505.33 187.207 1506.68C184.166 1503.18 179.935 1501 175.253 1501C167.686 1501 161.292 1506.68 159.208 1514.49C159.098 1514.48 158.989 1514.47 158.879 1514.47C156.184 1514.47 154 1516.95 154 1520H158.489H163.756H180.476H192.015H204.186H207.764H212C212.001 1517.55 210.251 1515.57 208.094 1515.57Z" fill="url(#paint37_linear_1140_9621)"/>
<path d="M440.732 1572.01C441.717 1572.01 442.666 1572.16 443.588 1572.4C448.954 1552.05 466.012 1537.16 486.263 1537.16C494.496 1537.16 502.181 1539.67 508.793 1543.95C518.704 1532.88 532.491 1526 547.746 1526C572.404 1526 593.237 1543.95 600.029 1568.6C600.386 1568.57 600.741 1568.54 601.103 1568.54C609.883 1568.54 617 1576.36 617 1586H602.371H585.208H530.724H493.122H453.464H441.804H428C428 1578.28 433.7 1572.01 440.732 1572.01Z" fill="url(#paint38_linear_1140_9621)"/>
<path d="M536.687 2447.92C537.823 2447.92 538.917 2448.09 539.98 2448.36C546.171 2424.96 565.845 2407.84 589.205 2407.84C598.701 2407.84 607.563 2410.72 615.192 2415.64C626.622 2402.91 642.526 2395 660.121 2395C688.562 2395 712.593 2415.64 720.426 2443.99C720.837 2443.96 721.247 2443.92 721.665 2443.92C731.791 2443.92 740 2452.91 740 2464H723.125H703.329H640.486H597.114H551.372H537.922H522C522 2455.12 528.575 2447.92 536.687 2447.92Z" fill="url(#paint39_linear_1140_9621)"/>
<path d="M837.95 1722.38C838.565 1722.38 839.157 1722.47 839.733 1722.61C843.084 1710.06 853.733 1700.88 866.377 1700.88C871.518 1700.88 876.314 1702.43 880.443 1705.07C886.63 1698.24 895.239 1694 904.763 1694C920.158 1694 933.166 1705.07 937.405 1720.27C937.628 1720.25 937.849 1720.23 938.076 1720.23C943.558 1720.23 948 1725.05 948 1731H938.866H928.15H894.134H870.658H845.898H838.618H830C830 1726.24 833.559 1722.38 837.95 1722.38Z" fill="url(#paint40_linear_1140_9621)"/>
<path d="M631.392 1794.17C631.809 1794.17 632.21 1794.24 632.6 1794.33C634.871 1785.86 642.092 1779.65 650.664 1779.65C654.148 1779.65 657.401 1780.69 660.2 1782.48C664.394 1777.86 670.23 1775 676.687 1775C687.124 1775 695.943 1782.48 698.817 1792.75C698.968 1792.74 699.119 1792.72 699.272 1792.72C702.987 1792.72 706 1795.98 706 1800H699.807H692.542H669.481H653.564H636.779H631.843H626C626.001 1796.78 628.415 1794.17 631.392 1794.17Z" fill="url(#paint41_linear_1140_9621)"/>
</g>
<defs>
<linearGradient id="paint0_linear_1140_9621" x1="1523.67" y1="33.1705" x2="-338.906" y2="667.143" gradientUnits="userSpaceOnUse">
<stop stop-color="#FFFBF8"/>
<stop offset="1" stop-color="#FFF0E3"/>
</linearGradient>
<linearGradient id="paint1_linear_1140_9621" x1="27.3362" y1="347.141" x2="-219.098" y2="389.139" gradientUnits="userSpaceOnUse">
<stop stop-color="#FFEEE3"/>
<stop offset="1" stop-color="#FFDCC5"/>
</linearGradient>
<linearGradient id="paint2_linear_1140_9621" x1="1523.67" y1="33.1705" x2="-338.906" y2="667.143" gradientUnits="userSpaceOnUse">
<stop stop-color="#FFFBF8"/>
<stop offset="1" stop-color="#FFF0E3"/>
</linearGradient>
<linearGradient id="paint3_linear_1140_9621" x1="434.29" y1="412.89" x2="261.466" y2="450.316" gradientUnits="userSpaceOnUse">
<stop stop-color="#FFEEE3"/>
<stop offset="1" stop-color="#FFDCC5"/>
</linearGradient>
<linearGradient id="paint4_linear_1140_9621" x1="227.578" y1="183.167" x2="98.7977" y2="210.857" gradientUnits="userSpaceOnUse">
<stop stop-color="#FFEEE3"/>
<stop offset="1" stop-color="#FFDCC5"/>
</linearGradient>
<linearGradient id="paint5_linear_1140_9621" x1="510.612" y1="142.982" x2="457.172" y2="154.257" gradientUnits="userSpaceOnUse">
<stop stop-color="#FFEEE3"/>
<stop offset="1" stop-color="#FFDCC5"/>
</linearGradient>
<linearGradient id="paint6_linear_1140_9621" x1="134.823" y1="465.408" x2="91.9021" y2="475.367" gradientUnits="userSpaceOnUse">
<stop stop-color="#FFEEE3"/>
<stop offset="1" stop-color="#FFDCC5"/>
</linearGradient>
<linearGradient id="paint7_linear_1140_9621" x1="753.82" y1="180.889" x2="927.48" y2="218.696" gradientUnits="userSpaceOnUse">
<stop stop-color="#FFEEE3"/>
<stop offset="1" stop-color="#FFDCC5"/>
</linearGradient>
<linearGradient id="paint8_linear_1140_9621" x1="851.015" y1="1052.72" x2="1051.26" y2="1096.45" gradientUnits="userSpaceOnUse">
<stop stop-color="#FFEEE3"/>
<stop offset="1" stop-color="#FFDCC5"/>
</linearGradient>
<linearGradient id="paint9_linear_1140_9621" x1="1148" y1="341.648" x2="1256.3" y2="365.518" gradientUnits="userSpaceOnUse">
<stop stop-color="#FFEEE3"/>
<stop offset="1" stop-color="#FFDCC5"/>
</linearGradient>
<linearGradient id="paint10_linear_1140_9621" x1="939.814" y1="418.87" x2="1013.21" y2="435.103" gradientUnits="userSpaceOnUse">
<stop stop-color="#FFEEE3"/>
<stop offset="1" stop-color="#FFDCC5"/>
</linearGradient>
<linearGradient id="paint11_linear_1140_9621" x1="649.29" y1="833.89" x2="476.466" y2="871.316" gradientUnits="userSpaceOnUse">
<stop stop-color="#FFEEE3"/>
<stop offset="1" stop-color="#FFDCC5"/>
</linearGradient>
<linearGradient id="paint12_linear_1140_9621" x1="442.578" y1="604.167" x2="313.798" y2="631.857" gradientUnits="userSpaceOnUse">
<stop stop-color="#FFEEE3"/>
<stop offset="1" stop-color="#FFDCC5"/>
</linearGradient>
<linearGradient id="paint13_linear_1140_9621" x1="725.612" y1="563.982" x2="672.172" y2="575.257" gradientUnits="userSpaceOnUse">
<stop stop-color="#FFEEE3"/>
<stop offset="1" stop-color="#FFDCC5"/>
</linearGradient>
<linearGradient id="paint14_linear_1140_9621" x1="349.823" y1="886.408" x2="306.902" y2="896.367" gradientUnits="userSpaceOnUse">
<stop stop-color="#FFEEE3"/>
<stop offset="1" stop-color="#FFDCC5"/>
</linearGradient>
<linearGradient id="paint15_linear_1140_9621" x1="968.82" y1="601.889" x2="1142.48" y2="639.696" gradientUnits="userSpaceOnUse">
<stop stop-color="#FFEEE3"/>
<stop offset="1" stop-color="#FFDCC5"/>
</linearGradient>
<linearGradient id="paint16_linear_1140_9621" x1="1066.01" y1="1473.72" x2="1266.26" y2="1517.45" gradientUnits="userSpaceOnUse">
<stop stop-color="#FFEEE3"/>
<stop offset="1" stop-color="#FFDCC5"/>
</linearGradient>
<linearGradient id="paint17_linear_1140_9621" x1="1363" y1="762.648" x2="1471.3" y2="786.518" gradientUnits="userSpaceOnUse">
<stop stop-color="#FFEEE3"/>
<stop offset="1" stop-color="#FFDCC5"/>
</linearGradient>
<linearGradient id="paint18_linear_1140_9621" x1="1154.81" y1="839.87" x2="1228.21" y2="856.103" gradientUnits="userSpaceOnUse">
<stop stop-color="#FFEEE3"/>
<stop offset="1" stop-color="#FFDCC5"/>
</linearGradient>
<linearGradient id="paint19_linear_1140_9621" x1="531.29" y1="1090.89" x2="358.466" y2="1128.32" gradientUnits="userSpaceOnUse">
<stop stop-color="#FFEEE3"/>
<stop offset="1" stop-color="#FFDCC5"/>
</linearGradient>
<linearGradient id="paint20_linear_1140_9621" x1="324.578" y1="861.167" x2="195.798" y2="888.857" gradientUnits="userSpaceOnUse">
<stop stop-color="#FFEEE3"/>
<stop offset="1" stop-color="#FFDCC5"/>
</linearGradient>
<linearGradient id="paint21_linear_1140_9621" x1="607.612" y1="820.982" x2="554.172" y2="832.257" gradientUnits="userSpaceOnUse">
<stop stop-color="#FFEEE3"/>
<stop offset="1" stop-color="#FFDCC5"/>
</linearGradient>
<linearGradient id="paint22_linear_1140_9621" x1="231.823" y1="1143.41" x2="188.902" y2="1153.37" gradientUnits="userSpaceOnUse">
<stop stop-color="#FFEEE3"/>
<stop offset="1" stop-color="#FFDCC5"/>
</linearGradient>
<linearGradient id="paint23_linear_1140_9621" x1="850.82" y1="858.889" x2="1024.48" y2="896.696" gradientUnits="userSpaceOnUse">
<stop stop-color="#FFEEE3"/>
<stop offset="1" stop-color="#FFDCC5"/>
</linearGradient>
<linearGradient id="paint24_linear_1140_9621" x1="948.015" y1="1730.72" x2="1148.26" y2="1774.45" gradientUnits="userSpaceOnUse">
<stop stop-color="#FFEEE3"/>
<stop offset="1" stop-color="#FFDCC5"/>
</linearGradient>
<linearGradient id="paint25_linear_1140_9621" x1="1245" y1="1019.65" x2="1353.3" y2="1043.52" gradientUnits="userSpaceOnUse">
<stop stop-color="#FFEEE3"/>
<stop offset="1" stop-color="#FFDCC5"/>
</linearGradient>
<linearGradient id="paint26_linear_1140_9621" x1="1036.81" y1="1096.87" x2="1110.21" y2="1113.1" gradientUnits="userSpaceOnUse">
<stop stop-color="#FFEEE3"/>
<stop offset="1" stop-color="#FFDCC5"/>
</linearGradient>
<linearGradient id="paint27_linear_1140_9621" x1="1528.67" y1="1333.95" x2="-376.819" y2="1907.9" gradientUnits="userSpaceOnUse">
<stop stop-color="#FFFBF8"/>
<stop offset="1" stop-color="#FFF0E3"/>
</linearGradient>
<linearGradient id="paint28_linear_1140_9621" x1="578.29" y1="1364.89" x2="405.466" y2="1402.32" gradientUnits="userSpaceOnUse">
<stop stop-color="#FFEEE3"/>
<stop offset="1" stop-color="#FFDCC5"/>
</linearGradient>
<linearGradient id="paint29_linear_1140_9621" x1="371.578" y1="1135.17" x2="242.798" y2="1162.86" gradientUnits="userSpaceOnUse">
<stop stop-color="#FFEEE3"/>
<stop offset="1" stop-color="#FFDCC5"/>
</linearGradient>
<linearGradient id="paint30_linear_1140_9621" x1="654.612" y1="1094.98" x2="601.172" y2="1106.26" gradientUnits="userSpaceOnUse">
<stop stop-color="#FFEEE3"/>
<stop offset="1" stop-color="#FFDCC5"/>
</linearGradient>
<linearGradient id="paint31_linear_1140_9621" x1="278.823" y1="1417.41" x2="235.902" y2="1427.37" gradientUnits="userSpaceOnUse">
<stop stop-color="#FFEEE3"/>
<stop offset="1" stop-color="#FFDCC5"/>
</linearGradient>
<linearGradient id="paint32_linear_1140_9621" x1="897.82" y1="1132.89" x2="1071.48" y2="1170.7" gradientUnits="userSpaceOnUse">
<stop stop-color="#FFEEE3"/>
<stop offset="1" stop-color="#FFDCC5"/>
</linearGradient>
<linearGradient id="paint33_linear_1140_9621" x1="995.015" y1="2004.72" x2="1195.26" y2="2048.45" gradientUnits="userSpaceOnUse">
<stop stop-color="#FFEEE3"/>
<stop offset="1" stop-color="#FFDCC5"/>
</linearGradient>
<linearGradient id="paint34_linear_1140_9621" x1="1292" y1="1293.65" x2="1400.3" y2="1317.52" gradientUnits="userSpaceOnUse">
<stop stop-color="#FFEEE3"/>
<stop offset="1" stop-color="#FFDCC5"/>
</linearGradient>
<linearGradient id="paint35_linear_1140_9621" x1="1083.81" y1="1370.87" x2="1157.21" y2="1387.1" gradientUnits="userSpaceOnUse">
<stop stop-color="#FFEEE3"/>
<stop offset="1" stop-color="#FFDCC5"/>
</linearGradient>
<linearGradient id="paint36_linear_1140_9621" x1="129.29" y1="1776.89" x2="-43.5335" y2="1814.32" gradientUnits="userSpaceOnUse">
<stop stop-color="#FFEEE3"/>
<stop offset="1" stop-color="#FFDCC5"/>
</linearGradient>
<linearGradient id="paint37_linear_1140_9621" x1="205.612" y1="1506.98" x2="152.172" y2="1518.26" gradientUnits="userSpaceOnUse">
<stop stop-color="#FFEEE3"/>
<stop offset="1" stop-color="#FFDCC5"/>
</linearGradient>
<linearGradient id="paint38_linear_1140_9621" x1="448.82" y1="1544.89" x2="622.48" y2="1582.7" gradientUnits="userSpaceOnUse">
<stop stop-color="#FFEEE3"/>
<stop offset="1" stop-color="#FFDCC5"/>
</linearGradient>
<linearGradient id="paint39_linear_1140_9621" x1="546.015" y1="2416.72" x2="746.265" y2="2460.45" gradientUnits="userSpaceOnUse">
<stop stop-color="#FFEEE3"/>
<stop offset="1" stop-color="#FFDCC5"/>
</linearGradient>
<linearGradient id="paint40_linear_1140_9621" x1="842.999" y1="1705.65" x2="951.297" y2="1729.52" gradientUnits="userSpaceOnUse">
<stop stop-color="#FFEEE3"/>
<stop offset="1" stop-color="#FFDCC5"/>
</linearGradient>
<linearGradient id="paint41_linear_1140_9621" x1="634.814" y1="1782.87" x2="708.213" y2="1799.1" gradientUnits="userSpaceOnUse">
<stop stop-color="#FFEEE3"/>
<stop offset="1" stop-color="#FFDCC5"/>
</linearGradient>
<clipPath id="clip0_1140_9621">
<rect width="1440" height="2756" fill="white"/>
</clipPath>
</defs>
</svg>
