<svg width="1464" height="646" viewBox="0 0 1464 646" fill="none" xmlns="http://www.w3.org/2000/svg">
<path d="M235.383 37.4833C235.383 51.5583 237.467 62.9666 237.467 62.9666C237.467 62.9666 239.551 51.5566 239.551 37.4833C239.551 23.41 237.467 12 237.467 12C237.467 12 235.383 23.4083 235.383 37.4833Z" fill="#F3E2A2"/>
<path d="M237.467 39.5677C251.542 39.5677 262.95 37.4835 262.95 37.4835C262.95 37.4835 251.54 35.3994 237.467 35.3994" fill="#F3E2A2"/>
<path d="M237.468 35.3994C223.393 35.3994 211.984 37.4835 211.984 37.4835C211.984 37.4835 223.394 39.5677 237.468 39.5677" fill="#F3E2A2"/>
<path d="M236.687 38.3517C244.56 43.6332 251.723 46.7502 251.723 46.7502C251.723 46.7502 246.124 41.303 238.251 36.0215C230.378 30.74 223.215 27.623 223.215 27.623C223.215 27.623 228.814 33.0702 236.687 38.3517Z" fill="#F3E2A2"/>
<path d="M238.635 37.9685C243.916 30.0957 247.033 22.9326 247.033 22.9326C247.033 22.9326 241.586 28.5322 236.305 36.405" fill="#F3E2A2"/>
<path d="M236.305 36.4053C231.023 44.2781 227.906 51.4411 227.906 51.4411C227.906 51.4411 233.353 45.8416 238.635 37.9688" fill="#F3E2A2"/>
<path d="M1193.4 25.4833C1193.4 39.5583 1195.48 50.9666 1195.48 50.9666C1195.48 50.9666 1197.57 39.5566 1197.57 25.4833C1197.57 11.4083 1195.48 0 1195.48 0C1195.48 0 1193.4 11.4083 1193.4 25.4833Z" fill="#F3E2A2"/>
<path d="M1195.48 27.5677C1209.56 27.5677 1220.97 25.4835 1220.97 25.4835C1220.97 25.4835 1209.56 23.3994 1195.48 23.3994" fill="#F3E2A2"/>
<path d="M1195.48 23.3994C1181.41 23.3994 1170 25.4835 1170 25.4835C1170 25.4835 1181.41 27.5677 1195.48 27.5677" fill="#F3E2A2"/>
<path d="M1194.7 26.3517C1202.58 31.6332 1209.74 34.7502 1209.74 34.7502C1209.74 34.7502 1204.14 29.303 1196.27 24.0215C1188.39 18.74 1181.23 15.623 1181.23 15.623C1181.23 15.623 1186.83 21.0702 1194.7 26.3517Z" fill="#F3E2A2"/>
<path d="M1196.65 25.9685C1201.93 18.0957 1205.05 10.9326 1205.05 10.9326C1205.05 10.9326 1199.6 16.5321 1194.32 24.405" fill="#F3E2A2"/>
<path d="M1194.32 24.4048C1189.04 32.2776 1185.92 39.4407 1185.92 39.4407C1185.92 39.4407 1191.37 33.8411 1196.65 25.9683" fill="#F3E2A2"/>
<path d="M1206.4 513.483C1206.4 527.558 1208.48 538.967 1208.48 538.967C1208.48 538.967 1210.57 527.557 1210.57 513.483C1210.57 499.408 1208.48 488 1208.48 488C1208.48 488 1206.4 499.408 1206.4 513.483Z" fill="#F3E2A2"/>
<path d="M1208.48 515.568C1222.56 515.568 1233.97 513.484 1233.97 513.484C1233.97 513.484 1222.56 511.399 1208.48 511.399" fill="#F3E2A2"/>
<path d="M1208.48 511.399C1194.41 511.399 1183 513.484 1183 513.484C1183 513.484 1194.41 515.568 1208.48 515.568" fill="#F3E2A2"/>
<path d="M1207.7 514.352C1215.58 519.633 1222.74 522.75 1222.74 522.75C1222.74 522.75 1217.14 517.303 1209.27 512.022C1201.39 506.74 1194.23 503.623 1194.23 503.623C1194.23 503.623 1199.83 509.07 1207.7 514.352Z" fill="#F3E2A2"/>
<path d="M1209.65 513.968C1214.93 506.096 1218.05 498.933 1218.05 498.933C1218.05 498.933 1212.6 504.532 1207.32 512.405" fill="#F3E2A2"/>
<path d="M1207.32 512.405C1202.04 520.278 1198.92 527.441 1198.92 527.441C1198.92 527.441 1204.37 521.841 1209.65 513.968" fill="#F3E2A2"/>
<path d="M59.3984 313.483C59.3984 327.558 61.4826 338.967 61.4826 338.967C61.4826 338.967 63.5667 327.557 63.5667 313.483C63.5667 299.408 61.4826 288 61.4826 288C61.4826 288 59.3984 299.408 59.3984 313.483Z" fill="#F3E2A2"/>
<path d="M61.4824 315.566C75.5574 315.566 86.9657 313.482 86.9657 313.482C86.9657 313.482 75.5557 311.397 61.4824 311.397" fill="#F3E2A2"/>
<path d="M61.4833 311.399C47.4083 311.399 36 313.484 36 313.484C36 313.484 47.41 315.568 61.4833 315.568" fill="#F3E2A2"/>
<path d="M60.7028 314.35C68.5756 319.632 75.7387 322.749 75.7387 322.749C75.7387 322.749 70.1392 317.302 62.2663 312.02C54.3935 306.739 47.2305 303.622 47.2305 303.622C47.2305 303.622 52.83 309.069 60.7028 314.35Z" fill="#F3E2A2"/>
<path d="M62.6505 313.967C67.932 306.094 71.049 298.931 71.049 298.931C71.049 298.931 65.6018 304.531 60.3203 312.404" fill="#F3E2A2"/>
<path d="M60.3203 312.403C55.0389 320.276 51.9219 327.439 51.9219 327.439C51.9219 327.439 57.3691 321.84 62.6505 313.967" fill="#F3E2A2"/>
<path d="M385.383 538.483C385.383 552.558 387.467 563.968 387.467 563.968C387.467 563.968 389.551 552.558 389.551 538.483C389.551 524.408 387.467 513 387.467 513C387.467 513 385.383 524.408 385.383 538.483Z" fill="#F3E2A2"/>
<path d="M387.467 540.568C401.542 540.568 412.95 538.484 412.95 538.484C412.95 538.484 401.54 536.399 387.467 536.399" fill="#F3E2A2"/>
<path d="M387.468 536.399C373.393 536.399 361.984 538.484 361.984 538.484C361.984 538.484 373.394 540.568 387.468 540.568" fill="#F3E2A2"/>
<path d="M386.687 539.352C394.56 544.633 401.723 547.75 401.723 547.75C401.723 547.75 396.124 542.303 388.251 537.022C380.378 531.74 373.215 528.623 373.215 528.623C373.215 528.623 378.814 534.07 386.687 539.352Z" fill="#F3E2A2"/>
<path d="M388.635 538.968C393.916 531.096 397.033 523.933 397.033 523.933C397.033 523.933 391.586 529.532 386.305 537.405" fill="#F3E2A2"/>
<path d="M386.305 537.405C381.023 545.278 377.906 552.441 377.906 552.441C377.906 552.441 383.353 546.841 388.635 538.968" fill="#F3E2A2"/>
<path d="M1297.4 242.483C1297.4 256.558 1299.48 267.967 1299.48 267.967C1299.48 267.967 1301.57 256.557 1301.57 242.483C1301.57 228.408 1299.48 217 1299.48 217C1299.48 217 1297.4 228.41 1297.4 242.483Z" fill="#F3E2A2"/>
<path d="M1299.48 244.568C1313.56 244.568 1324.97 242.484 1324.97 242.484C1324.97 242.484 1313.56 240.399 1299.48 240.399" fill="#F3E2A2"/>
<path d="M1299.48 240.401C1285.41 240.401 1274 242.485 1274 242.485C1274 242.485 1285.41 244.569 1299.48 244.569" fill="#F3E2A2"/>
<path d="M1298.7 243.352C1306.58 248.634 1313.74 251.751 1313.74 251.751C1313.74 251.751 1308.14 246.303 1300.27 241.022C1292.39 235.741 1285.23 232.624 1285.23 232.624C1285.23 232.624 1290.83 238.071 1298.7 243.352Z" fill="#F3E2A2"/>
<path d="M1300.65 242.969C1305.93 235.096 1309.05 227.933 1309.05 227.933C1309.05 227.933 1303.6 233.533 1298.32 241.405" fill="#F3E2A2"/>
<path d="M1298.32 241.405C1293.04 249.278 1289.92 256.441 1289.92 256.441C1289.92 256.441 1295.37 250.842 1300.65 242.969" fill="#F3E2A2"/>
<mask id="mask0_1148_16434" style="mask-type:alpha" maskUnits="userSpaceOnUse" x="0" y="491" width="1464" height="155">
<rect y="491" width="1464" height="155" fill="#9C47AA"/>
</mask>
<g mask="url(#mask0_1148_16434)">
</g>
</svg>
