<svg width="733" height="920" viewBox="0 0 733 920" fill="none" xmlns="http://www.w3.org/2000/svg">
<g filter="url(#filter0_d_312_19680)">
<path d="M614.815 341.669C614.815 341.669 596.32 317.595 577.516 322.204C558.712 326.814 509.566 351.652 497.481 361.316C485.397 370.98 473.451 391.446 475.501 422.43C477.551 453.415 463.108 497.495 464.347 524.341C465.586 551.187 467.21 564.896 467.21 564.896L331.43 845.762L502.411 892.775L590.066 597.673C607.776 588.608 624.059 576.995 638.396 563.205C662.263 540.252 676.064 508.529 676.064 508.529C676.064 508.529 691.108 499.698 690.468 483.485C690.468 483.485 705.962 443.314 698.485 428.488C691.008 413.662 680.615 410.804 680.615 410.804C678.405 401.136 674.035 392.093 667.833 384.352C661.63 376.612 653.757 370.375 644.802 366.108C644.802 366.108 642.788 349.38 617.644 342.762L614.815 341.669Z" fill="#F4BA25"/>
<path d="M660.978 425.672C660.88 424.608 660.552 423.578 660.017 422.653C659.462 421.379 658.902 420.123 658.296 418.894C655.992 414.069 653.369 409.404 650.444 404.929C647.491 400.426 644.251 396.117 640.745 392.029C639.887 391.046 639.03 390.082 638.174 389.138C637.872 388.701 637.471 388.342 637.003 388.09C636.535 387.839 636.014 387.701 635.483 387.69C634.957 387.778 634.456 387.977 634.012 388.271C633.568 388.566 633.191 388.952 632.906 389.402C631.632 390.086 630.565 391.1 629.816 392.338C629.067 393.575 628.664 394.991 628.649 396.437C628.561 401.194 631.616 406.048 634.071 409.931C636.903 414.38 640.307 418.438 644.195 422.002C647.513 425.039 651.567 428.692 656.323 428.859C658.31 428.933 660.893 428.128 660.978 425.672ZM647.397 405.704L646.935 405.164L646.965 405.054L647.468 405.802L647.397 405.704Z" fill="#F4BA25"/>
<path d="M688.931 480.918C682.498 484.91 675.212 487.324 667.667 487.96C669.354 486.692 671.027 485.401 672.67 484.081C679.605 478.583 685.858 472.277 691.297 465.295C692.432 463.817 689.902 462.354 688.767 463.832C681.274 473.173 672.438 481.353 662.548 488.107L662.384 488.061C662.059 488.039 661.738 488.14 661.485 488.344C661.232 488.548 661.065 488.84 661.018 489.162C659.315 490.346 657.622 491.494 655.915 492.619C645.095 499.758 630.793 506.963 617.929 500.494C611.457 497.258 607.973 490.889 605.045 484.574C611.598 483.474 617.9 481.208 623.653 477.884C631.989 473.15 639.969 467.814 647.528 461.919C655.45 456.098 662.548 449.233 668.629 441.511C675.359 433 679.76 422.886 681.403 412.162C681.668 410.267 678.85 409.492 678.603 411.392C676.099 430.164 663.578 445.277 649.299 456.837C642.1 462.611 634.54 467.919 626.664 472.731C619.57 477.057 611.808 481.022 603.441 481.89C603.25 481.816 603.045 481.787 602.841 481.806C602.638 481.825 602.442 481.892 602.269 482.001C593.539 482.611 584.335 479.864 578.914 472.667L578.784 472.493C578.098 468.704 577.153 464.967 575.956 461.306C586.568 457.135 595.621 449.772 601.865 440.233C614.861 447.528 630.141 449.619 644.619 446.085C651.718 444.318 659.612 440.232 662.491 433.054C663.149 431.313 663.429 429.452 663.312 427.594C663.195 425.737 662.684 423.926 661.812 422.281C659.624 418.081 657.153 414.036 654.415 410.172C650.329 404.043 645.914 398.139 641.19 392.486C644.296 389.234 646.505 385.231 647.601 380.869C648.697 376.508 648.642 371.936 647.442 367.602C646.918 365.785 644.097 366.525 644.621 368.341C645.678 372.141 645.745 376.148 644.815 379.981C643.885 383.814 641.99 387.344 639.309 390.238L636.838 387.413C630.6 380.15 623.705 373.478 616.239 367.484C613.645 365.437 610.819 363.702 607.819 362.315C613.235 357.474 616.555 350.716 617.075 343.471C617.23 341.546 614.301 341.606 614.16 343.476C613.615 349.996 610.539 356.044 605.591 360.325C605.448 360.44 605.33 360.584 605.248 360.748C605.165 360.912 605.12 361.092 605.113 361.276C604.601 361.135 604.089 360.994 603.576 360.853C599.536 359.806 595.328 359.565 591.194 360.145C582.376 361.222 574.012 364.727 565.785 367.877C558.461 370.651 551.211 373.518 544.033 376.477C548.593 362.662 555.403 349.695 564.19 338.1C565.33 336.603 562.795 335.158 561.683 336.623C553.943 346.853 547.71 358.141 543.177 370.141C539.886 370.398 536.577 369.96 533.466 368.853C530.356 367.747 527.513 365.998 525.123 363.721C523.767 362.424 521.676 364.446 523.032 365.743C525.562 368.177 528.551 370.082 531.826 371.348C535.101 372.613 538.595 373.213 542.104 373.113C541.572 374.619 541.058 376.131 540.581 377.652C540.581 377.652 540.53 377.835 540.505 377.927C530.308 382.181 520.181 386.611 510.123 391.218L503.34 394.41C501.646 395.204 503.092 397.746 504.768 396.948C522.085 388.801 539.641 381.212 557.438 374.181C565.69 370.94 573.998 367.498 582.51 364.959C590.33 362.642 598.795 361.565 606.511 364.927C614.745 368.765 621.562 375.755 627.674 382.159C634.099 388.699 640.074 395.667 645.558 403.014C648.245 406.626 650.819 410.364 653.287 414.132C654.526 416.067 655.742 418.014 656.93 419.994C658.058 421.692 658.998 423.507 659.732 425.408C662.267 433.012 655.123 438.879 648.917 441.62C641.634 444.466 633.771 445.511 625.997 444.664C618.063 444.004 610.36 441.658 603.405 437.783C601.991 436.982 600.635 436.117 599.294 435.197C601.587 432.797 603.773 430.289 605.935 427.794C607.151 426.377 605.11 424.281 603.893 425.698C598.156 432.247 592.349 439.053 584.712 443.348C576.52 447.943 567.351 447.862 558.247 447.543C556.302 447.461 556.363 450.39 558.253 450.457C561.565 450.581 564.892 450.649 568.092 450.466C582.859 478.435 578.245 512.034 564.364 539.327C559.894 548.017 554.673 556.299 548.76 564.08C547.644 565.564 550.174 567.027 551.29 565.543C570.181 540.434 583.334 509.419 579.392 477.658C585.673 482.82 593.684 485.395 601.797 484.862C604.665 491.18 607.946 497.572 613.828 501.59C619.721 505.265 626.759 506.647 633.604 505.473C640.824 504.166 647.689 501.362 653.758 497.24C657.023 495.245 660.208 493.111 663.377 490.892C672.889 490.983 682.237 488.407 690.359 483.455C691.965 482.48 690.542 479.924 688.931 480.918ZM571.388 450.29C576.406 449.893 581.291 448.485 585.752 446.153C589.981 443.769 593.853 440.799 597.251 437.331C597.944 437.817 598.623 438.279 599.332 438.71C593.472 447.687 584.969 454.624 574.998 458.564C573.937 455.737 572.72 452.971 571.351 450.28L571.388 450.29Z" fill="#C62B29"/>
<path d="M532.356 581.864C526.634 584.278 520.409 585.257 514.222 584.715C508.035 584.173 502.074 582.127 496.859 578.754C495.276 577.709 493.813 580.239 495.382 581.261C501.033 584.89 507.489 587.074 514.183 587.621C520.876 588.167 527.602 587.06 533.766 584.396C535.523 583.659 534.059 581.112 532.356 581.864Z" fill="#C62B29"/>
<path d="M570.013 599.814C569.195 600.015 568.341 600.028 567.517 599.853C566.692 599.677 565.918 599.317 565.253 598.8C563.143 597.669 561.054 596.465 559.01 595.234C554.881 592.787 550.89 590.122 547.038 587.239C545.517 586.112 544.054 588.642 545.561 589.745C549.892 592.935 554.386 595.898 559.024 598.622C561.101 599.941 563.26 601.126 565.488 602.17C566.29 602.596 567.169 602.857 568.073 602.937C568.978 603.016 569.889 602.913 570.753 602.634C572.472 601.965 571.755 599.132 570.013 599.814Z" fill="#C62B29"/>
<path fill-rule="evenodd" clip-rule="evenodd" d="M452.581 256.147C456.523 247.98 459.782 239.348 462.27 230.3C484.8 148.36 435.541 63.3691 352.247 40.4667C284.125 21.736 214.335 50.3359 178.846 106.201C222.79 65.6578 296.525 59.517 359.37 95.4866C434.506 138.49 465.626 225.4 428.878 289.606C427.821 291.452 426.719 293.26 425.575 295.029C425.591 295.012 425.607 294.996 425.623 294.979L458.539 324.694L490.617 293.486L452.581 256.147ZM452 334.498L498.809 288.958L553.45 344.933C552.316 346.602 551.451 348.354 550.756 349.761C550.625 350.027 550.5 350.281 550.38 350.52C549.496 352.278 548.58 354.026 547.641 355.818L547.631 355.837C546.701 357.611 545.749 359.428 544.824 361.268C542.876 365.144 541.45 369.277 540.168 372.994L540.164 373.008L540.153 373.038C540.04 373.366 539.928 373.691 539.817 374.012C539.531 374.837 539.253 375.666 538.983 376.499L538.63 376.661L538.358 376.787L538.327 376.801L538.327 376.801C537.504 377.18 536.719 377.541 536.012 377.855C535.161 378.233 534.304 378.612 533.444 378.993L533.436 378.996C529.579 380.702 525.649 382.441 521.777 384.277C516.974 386.555 512.224 388.968 507.531 391.384L452 334.498Z" fill="#F4BA25"/>
<path d="M491.512 371.954C490.936 371.359 489.986 371.345 489.391 371.921C488.797 372.498 488.782 373.448 489.359 374.042L491.512 371.954ZM489.359 374.042L508.538 393.823L510.692 391.735L491.512 371.954L489.359 374.042Z" fill="#C62B29"/>
<path d="M546.344 335.59C545.763 334.999 544.813 334.99 544.222 335.571C543.631 336.151 543.623 337.101 544.203 337.692L546.344 335.59ZM544.203 337.692L554.851 348.533L556.991 346.431L546.344 335.59L544.203 337.692Z" fill="#C62B29"/>
</g>
<defs>
<filter id="filter0_d_312_19680" x="175.846" y="15.7412" width="567.678" height="904.033" filterUnits="userSpaceOnUse" color-interpolation-filters="sRGB">
<feFlood flood-opacity="0" result="BackgroundImageFix"/>
<feColorMatrix in="SourceAlpha" type="matrix" values="0 0 0 0 0 0 0 0 0 0 0 0 0 0 0 0 0 0 127 0" result="hardAlpha"/>
<feOffset dx="20" dy="4"/>
<feGaussianBlur stdDeviation="11.5"/>
<feComposite in2="hardAlpha" operator="out"/>
<feColorMatrix type="matrix" values="0 0 0 0 0 0 0 0 0 0 0 0 0 0 0 0 0 0 0.25 0"/>
<feBlend mode="normal" in2="BackgroundImageFix" result="effect1_dropShadow_312_19680"/>
<feBlend mode="normal" in="SourceGraphic" in2="effect1_dropShadow_312_19680" result="shape"/>
</filter>
</defs>
</svg>
