<svg width="601" height="682" viewBox="0 0 601 682" fill="none" xmlns="http://www.w3.org/2000/svg">
<g filter="url(#filter0_d_737_13781)">
<path d="M203.861 449.036C203.861 449.036 195.62 424.694 207.466 413.284C219.312 401.874 259.167 377.919 271.44 373.659C283.714 369.4 303.434 370.194 324.039 385.877C344.643 401.561 381.932 411.388 400.031 424.591C418.129 437.793 426.916 445.248 426.916 445.248L684.618 476.396L638.741 620.926L393.253 548.638C378.812 557.217 363.255 563.603 347.077 567.59C320.148 574.229 291.747 569.607 291.747 569.607C291.747 569.607 278.693 576.377 267.713 568.482C267.713 568.482 232.66 561.203 225.785 549.026C218.911 536.85 221.7 528.064 221.7 528.064C215.992 522.041 211.712 514.751 209.18 506.741C206.647 498.73 205.928 490.207 207.077 481.81C207.077 481.81 196.369 472.691 203.321 451.572L203.861 449.036Z" fill="#F8DFA5"/>
<path d="M241.063 520.76C240.368 520.201 239.803 519.493 239.406 518.684C238.775 517.7 238.159 516.722 237.583 515.722C235.287 511.852 233.248 507.827 231.48 503.671C229.706 499.482 228.199 495.176 226.967 490.78C226.677 489.712 226.401 488.653 226.138 487.605C225.973 487.187 225.908 486.734 225.948 486.282C225.988 485.83 226.132 485.392 226.368 485.005C226.671 484.667 227.039 484.398 227.448 484.214C227.857 484.03 228.298 483.935 228.742 483.937C229.804 483.334 230.999 483.032 232.203 483.061C233.408 483.09 234.577 483.449 235.59 484.101C238.938 486.22 240.91 490.643 242.482 494.189C244.274 498.266 245.532 502.575 246.223 507.006C246.811 510.785 247.488 515.376 245.418 518.873C244.557 520.336 242.81 521.825 241.063 520.76ZM233.419 501.835L233.256 501.255L233.166 501.226L233.455 501.931L233.419 501.835Z" fill="#F8DFA5"/>
<path d="M266.635 566.197C272.368 563.402 277.394 559.268 281.303 554.134C279.646 554.766 277.98 555.377 276.307 555.953C269.297 558.42 262.038 560.025 254.684 560.735C253.135 560.873 253.28 558.383 254.83 558.245C264.768 557.139 274.517 554.536 283.758 550.52L283.802 550.381C283.935 550.137 284.153 549.953 284.411 549.864C284.669 549.776 284.949 549.79 285.194 549.903C286.801 549.222 288.377 548.53 289.943 547.818C299.88 543.311 311.462 536.329 312.875 524.11C313.599 517.972 310.771 512.545 307.725 507.543C303.949 511.751 299.477 515.245 294.522 517.859C287.4 521.683 280.022 524.975 272.449 527.708C264.761 530.736 256.726 532.692 248.561 533.525C239.551 534.462 230.495 532.99 222.283 529.253C220.844 528.574 221.6 526.192 223.034 526.886C237.239 533.694 253.501 531.62 268.101 526.651C275.424 524.121 282.59 521.118 289.555 517.661C295.823 514.543 302.148 510.778 306.596 505.159C306.632 504.987 306.706 504.827 306.813 504.689C306.92 504.552 307.056 504.441 307.211 504.366C311.647 498.368 313.966 490.489 311.453 483.289L311.392 483.117C309.072 480.885 306.907 478.491 304.912 475.952C297.135 481.671 287.855 484.806 278.352 484.922C277.453 497.614 271.886 509.563 262.776 518.355C258.285 522.65 251.815 526.453 245.501 525.232C243.988 524.907 242.565 524.255 241.328 523.319C240.09 522.383 239.065 521.185 238.322 519.804C236.407 516.304 234.729 512.671 233.301 508.93C230.916 503.181 228.839 497.298 227.08 491.309C223.391 492.051 219.592 491.804 216.056 490.592C212.519 489.38 209.365 487.244 206.903 484.393C205.88 483.183 207.691 481.493 208.713 482.703C210.87 485.206 213.626 487.092 216.718 488.181C219.81 489.27 223.137 489.526 226.38 488.924L225.552 485.852C223.367 478.035 221.897 470.016 221.159 461.898C220.928 459.093 221.02 456.265 221.434 453.472C215.579 455.147 209.354 454.435 204.077 451.487C202.667 450.716 204.055 448.636 205.42 449.393C210.204 451.991 215.823 452.552 221.074 450.957C221.22 450.906 221.374 450.888 221.526 450.904C221.678 450.92 221.824 450.97 221.955 451.049C222.092 450.616 222.23 450.183 222.367 449.75C223.495 446.363 225.261 443.227 227.564 440.52C232.366 434.672 238.647 430.264 244.617 425.791C249.911 421.796 255.237 417.896 260.592 414.091C248.891 411.035 236.744 409.986 224.643 410.989C223.079 411.122 223.239 408.636 224.769 408.509C235.439 407.633 246.152 408.327 256.58 410.57C258.271 408.321 259.487 405.74 260.147 402.995C260.807 400.251 260.897 397.404 260.412 394.641C260.133 393.071 262.5 392.495 262.779 394.065C263.309 397 263.26 400.024 262.635 402.96C262.01 405.895 260.822 408.683 259.14 411.161C260.432 411.469 261.719 411.793 262.997 412.147C262.997 412.147 263.147 412.195 263.222 412.219C270.866 406.836 278.6 401.584 286.426 396.463L291.762 393.049C293.092 392.194 294.196 394.4 292.87 395.239C279.248 403.957 265.903 413.104 252.836 422.679C246.79 427.128 240.58 431.524 234.902 436.481C229.698 441.044 225.059 446.638 223.851 453.728C222.736 461.411 224.465 469.519 226.109 476.852C227.704 484.472 229.804 491.965 232.394 499.278C233.67 502.867 235.087 506.433 236.573 509.935C237.349 511.714 238.144 513.481 238.975 515.243C239.637 516.833 240.468 518.341 241.452 519.742C245.575 525.051 252.938 522.604 257.695 519.398C263.021 515.466 267.361 510.289 270.345 504.31C273.531 498.3 275.439 491.685 275.941 484.906C276.033 483.522 276.055 482.15 276.032 480.763C273.309 481.312 270.561 481.734 267.833 482.145C266.289 482.37 265.769 479.94 267.313 479.715C274.504 478.592 281.905 477.536 288.401 474.014C295.36 470.23 299.517 463.598 303.479 456.904C304.316 455.467 306.324 456.854 305.502 458.245C304.066 460.683 302.585 463.108 300.988 465.325C313.651 488.771 339.135 500.862 364.493 503.395C372.589 504.165 380.748 504.208 388.876 503.524C390.42 503.401 390.275 505.892 388.73 506.014C362.59 508.086 334.978 503.322 314.704 485.922C315.407 492.806 313.517 499.749 309.418 505.339C312.493 510.3 315.43 515.591 315.521 521.664C315.369 527.587 313.096 533.283 309.134 537.667C304.908 542.26 299.803 545.912 294.148 548.387C291.261 549.82 288.312 551.132 285.314 552.393C281.006 559.276 274.919 564.818 267.744 568.388C266.327 569.096 265.204 566.901 266.635 566.197ZM299.351 467.615C296.769 471.041 293.545 473.91 289.873 476.048C286.272 477.997 282.428 479.419 278.455 480.272C278.474 480.994 278.483 481.695 278.457 482.401C287.393 482.304 296.124 479.37 303.445 474.005C301.967 471.946 300.603 469.802 299.361 467.584L299.351 467.615Z" fill="#530C0B"/>
<path d="M408.779 499.883C413.087 496.875 416.629 492.846 419.095 488.148C421.561 483.45 422.877 478.224 422.929 472.927C422.929 471.309 425.36 471.417 425.35 473.014C425.277 478.742 423.829 484.387 421.133 489.452C418.438 494.517 414.577 498.846 409.892 502.058C408.573 502.984 407.474 500.762 408.779 499.883Z" fill="#530C0B"/>
<path d="M403.957 535.196C404.473 534.7 404.874 534.092 405.131 533.419C405.388 532.746 405.493 532.024 405.439 531.308C405.622 529.272 405.745 527.217 405.828 525.183C406.024 521.091 406.005 516.998 405.77 512.906C405.686 511.295 408.117 511.403 408.192 512.993C408.42 517.571 408.415 522.161 408.178 526.746C408.14 528.845 407.972 530.941 407.675 533.022C407.603 533.794 407.38 534.546 407.02 535.233C406.66 535.92 406.169 536.529 405.578 537.022C404.323 537.952 402.682 536.137 403.957 535.196Z" fill="#530C0B"/>
<path fill-rule="evenodd" clip-rule="evenodd" d="M218.941 293.139C211.449 292.228 203.948 290.614 196.513 288.253C129.181 266.88 92.7152 192.477 115.065 122.069C133.343 64.4851 185.301 27.4077 240.457 27.5033C192.071 40.5157 153.919 90.7295 150.053 152.423C145.43 226.182 191.566 288.42 253.099 291.435C254.868 291.521 256.631 291.558 258.387 291.546C258.368 291.55 258.349 291.554 258.33 291.557L263.868 328.857L227.427 337.616L218.941 293.139ZM273.692 328.651L220.514 341.433L234.173 405.668C235.957 405.61 237.668 405.803 238.975 405.95L238.984 405.951C239.222 405.978 239.446 406.003 239.654 406.025C241.273 406.194 242.902 406.337 244.581 406.483L244.602 406.485L244.607 406.485L244.617 406.486C246.27 406.631 247.974 406.779 249.681 406.958C253.34 407.342 256.933 408.228 260.097 409.008L260.097 409.008L260.098 409.008L260.38 409.078C260.579 409.127 260.777 409.176 260.972 409.223C261.552 409.366 262.131 409.512 262.709 409.665L262.93 409.521C263.567 409.106 264.17 408.713 264.695 408.361C265.349 407.921 266.007 407.479 266.668 407.034L266.669 407.033L266.67 407.033L266.672 407.031L266.676 407.028C269.633 405.038 272.654 403.004 275.717 401.058C279.625 398.573 283.609 396.194 287.558 393.862L273.692 328.651Z" fill="#F8DFA5"/>
<path d="M281.331 374.266C281.156 373.456 281.67 372.658 282.48 372.483C283.29 372.308 284.088 372.823 284.263 373.632L281.331 374.266ZM284.263 373.632L289.205 396.498L286.272 397.131L281.331 374.266L284.263 373.632Z" fill="#2E0504"/>
<path d="M230.852 397.024C230.682 396.214 231.202 395.419 232.013 395.249C232.824 395.079 233.619 395.598 233.788 396.409L230.852 397.024ZM233.788 396.409L236.434 409.038L233.498 409.653L230.852 397.024L233.788 396.409Z" fill="#2E0504"/>
</g>
<defs>
<filter id="filter0_d_737_13781" x="105.488" y="8.50391" width="622.129" height="639.422" filterUnits="userSpaceOnUse" color-interpolation-filters="sRGB">
<feFlood flood-opacity="0" result="BackgroundImageFix"/>
<feColorMatrix in="SourceAlpha" type="matrix" values="0 0 0 0 0 0 0 0 0 0 0 0 0 0 0 0 0 0 127 0" result="hardAlpha"/>
<feOffset dx="20" dy="4"/>
<feGaussianBlur stdDeviation="11.5"/>
<feComposite in2="hardAlpha" operator="out"/>
<feColorMatrix type="matrix" values="0 0 0 0 0 0 0 0 0 0 0 0 0 0 0 0 0 0 0.25 0"/>
<feBlend mode="normal" in2="BackgroundImageFix" result="effect1_dropShadow_737_13781"/>
<feBlend mode="normal" in="SourceGraphic" in2="effect1_dropShadow_737_13781" result="shape"/>
</filter>
</defs>
</svg>
