<svg width="430" height="2513" viewBox="0 0 430 2513" fill="none" xmlns="http://www.w3.org/2000/svg">
<g clip-path="url(#clip0_1114_10059)">
<rect width="430" height="2513" fill="#C62B29"/>
<path d="M-299 2799H630.998V-30.0001H-299V2799Z" fill="#938DBE"/>
<path d="M127.676 -22.9998C127.676 -22.9998 102.677 1128.35 137.37 1507.73H63L83.1785 -22.9998H127.676Z" fill="#756EA4"/>
<path d="M276.096 26.0948C276.096 26.0948 358.204 1174.96 344.98 1555.57L414.758 1552.01L317.846 23.9655L276.096 26.0948Z" fill="#756EA4"/>
<path d="M420.819 -29.9947H472.04C472.04 -29.9947 538.781 1127.14 507.187 1506.41H428.687C428.687 1506.41 476.858 219.191 420.819 -29.9947Z" fill="#756EA4"/>
<path d="M-298.94 979.804C-298.94 979.804 -208.901 1470.66 -99.5804 1467.21C9.74025 1463.77 166.03 1098.71 362.192 1245.9C512.639 1358.79 516.372 1420.14 631 1384.28V2799H-298.94V979.804Z" fill="#60598D"/>
<path d="M340.576 1394.54C340.576 1394.54 337.819 1186.41 375.608 1129.21C413.397 1072 430.021 1089.37 437.225 1067.36C444.427 1045.35 434.044 1001.57 413.913 1005.44C393.78 1009.32 365.995 1049.45 350.044 1158.28C334.093 1267.1 331.166 1411.3 331.166 1411.3L340.576 1394.54Z" fill="#60598D"/>
<path d="M369.523 1342.99C369.523 1342.99 310.685 1230.02 302.385 1149.84C294.086 1069.66 320.888 1003.96 312.031 973.542C303.91 945.657 285.859 959.444 271.661 1019.38C257.462 1079.32 280.976 1185.01 305.262 1245.26C329.549 1305.5 364.738 1351.51 364.738 1351.51L369.523 1342.99Z" fill="#60598D"/>
<path d="M344.747 1387.11C344.747 1387.11 266.401 1238.32 266.834 1140.02C267.268 1041.71 223.933 1054.87 229.028 1127.79C238.04 1256.74 338.088 1398.97 338.088 1398.97L344.747 1387.11Z" fill="#60598D"/>
<path d="M88.7878 1488.22C88.7878 1488.22 81.3726 1375.05 34.8838 1344.41C7.68201 1326.48 -11.6756 1333.41 -25.9703 1340.34C-36.1048 1345.25 -43.6936 1350.16 -49.7287 1346.21C-64.2751 1336.69 -47.3156 1292.58 -31.6954 1274.29C-16.0751 1256 50.6789 1217.99 82.0769 1398.03L98.6805 1498.7L88.7878 1488.22Z" fill="#60598D"/>
<path d="M82.8659 1482.48C82.8659 1482.48 66.2722 1278.33 24.1892 1244.06C-0.269743 1224.13 -15.4349 1224.68 -25.6252 1225.23C-32.9685 1225.62 -37.7264 1226.02 -41.517 1218.76C-50.5665 1201.42 -44.5154 1152.91 -24.5601 1145.28C-4.60603 1137.65 26.1596 1160.97 51.7667 1257.87C77.3727 1354.77 93.5795 1493.47 93.5795 1493.47L82.8659 1482.48Z" fill="#60598D"/>
<path d="M57.7207 1456.7C57.7207 1456.7 70.7233 1287.5 41.7669 1192.75C12.8105 1098.01 82.8852 1026.31 80.1585 1194.86C77.516 1358.11 68.4343 1467.68 68.4343 1467.68L57.7207 1456.7Z" fill="#60598D"/>
<path d="M49.915 1448.7C49.915 1448.7 96.7249 1305.41 97.3772 1222.66C98.0294 1139.91 65.8539 1091.14 71.6584 1056.51C76.9804 1024.77 95.8272 1027.96 115.201 1078.26C134.573 1128.56 121.475 1244.77 103.413 1317.17C85.3529 1389.57 55.3611 1454.29 55.3611 1454.29L49.915 1448.7Z" fill="#60598D"/>
<path d="M78.1172 1477.62C78.1172 1477.62 140.598 1288.39 131.071 1192.95C121.543 1097.51 164.946 1085.76 166.74 1159.63C169.912 1290.26 85.6985 1485.39 85.6985 1485.39L78.1172 1477.62Z" fill="#60598D"/>
<path d="M171.209 1139.24C169.597 1094.05 175.022 1044.83 187.501 1013.19C196.848 989.486 213.438 1005.02 214.085 1038.09L214.096 1038.73C214.413 1060.14 210.797 1080.57 207.139 1099.99C203.48 1119.4 199.628 1139.42 199.423 1160.83C199.133 1191.12 206.015 1217.79 211.915 1243.03C217.747 1267.98 225.248 1300.96 212.581 1321.07C195.632 1347.97 187.33 1269.19 183.305 1243.31C178.005 1209.21 172.52 1176.04 171.209 1139.24Z" fill="#60598D"/>
<path d="M480.713 1275.07C482.324 1229.88 476.901 1180.66 464.421 1149.02C455.073 1125.32 438.484 1140.85 437.837 1173.92L437.826 1174.56C437.51 1195.97 441.124 1216.41 444.783 1235.82C448.441 1255.23 452.294 1275.25 452.499 1296.66C452.789 1326.95 445.904 1353.62 440.006 1378.86C434.174 1403.81 426.673 1436.8 439.341 1456.9C456.289 1483.8 464.592 1405.02 468.616 1379.14C473.917 1345.05 479.402 1311.87 480.713 1275.07Z" fill="#60598D"/>
<g opacity="0.5">
<path d="M354.752 22.9724C357.807 22.9197 277.406 69.4624 226.201 65.9924C226.201 65.9924 308.586 23.7915 354.752 22.9724Z" fill="#302D4B"/>
<path d="M357.379 53.627C360.374 50.1131 350.408 109.246 313.305 188.063C313.305 188.063 315.108 103.213 357.379 53.627Z" fill="#302D4B"/>
<path d="M356.726 52.173C356.726 52.173 387.217 128.427 425.798 164.292C425.798 164.292 403.895 89.9045 356.726 52.173Z" fill="#302D4B"/>
<path d="M352.993 18.4268C352.993 18.4268 435.068 15.5737 481.882 -8.57684C481.882 -8.57684 404.474 -13.1693 352.993 18.4268Z" fill="#302D4B"/>
<path d="M357.655 62.044C357.655 62.044 346.865 170.347 371.028 228.636C371.028 228.636 384.793 150.336 357.655 62.044Z" fill="#302D4B"/>
<path d="M354.276 28.405C354.276 28.405 400.146 63.3568 498.647 81.8569C498.647 81.8569 437.886 40.2642 354.276 28.405Z" fill="#302D4B"/>
<path d="M356.596 41.1066C356.596 41.1066 326.225 102.048 270.806 155.815C270.806 155.815 289.044 93.2338 356.596 41.1066Z" fill="#302D4B"/>
<path d="M355.477 17.7398C355.477 17.7398 289.163 33.1905 212.408 24.772C212.408 24.772 272.25 -1.07399 355.477 17.7398Z" fill="#302D4B"/>
<path d="M353.156 22.8919C353.156 22.8919 404.215 41.6705 487.897 37.166C487.897 37.166 409.95 12.0483 353.156 22.8919Z" fill="#302D4B"/>
<path d="M355.922 41.293C355.922 41.293 381.68 80.8885 439.737 118.95C439.737 118.95 400.099 66.3374 355.922 41.293Z" fill="#302D4B"/>
<path d="M354.37 28.484C354.37 28.484 299.7 102.4 257.16 114.21C257.16 114.21 282.175 62.7763 354.37 28.484Z" fill="#302D4B"/>
<path d="M101.993 124.188L-96.9811 -68.3356L-98 -67.282L100.974 125.241" fill="#302D4B"/>
<path d="M53.8214 79.1793C52.3034 74.0461 168.466 188.126 186.515 276.242C186.515 276.242 76.7617 156.783 53.8214 79.1793Z" fill="#302D4B"/>
<path d="M29.5552 55.3031C29.5593 49.9487 65.1973 109.637 91.6687 207.094C91.6687 207.094 29.5008 130.838 29.5552 55.3031Z" fill="#302D4B"/>
<path d="M60.0635 84.6373C60.0635 84.6373 144.28 129.039 205.287 131.706C205.287 131.706 130.055 82.5008 60.0635 84.6373Z" fill="#302D4B"/>
<path d="M33.4478 58.376C33.4478 58.376 152.316 100.685 224.64 89.7332C224.64 89.7332 140.363 52.4325 33.4478 58.376Z" fill="#302D4B"/>
<path d="M4.33936 30.2088C4.33936 30.2088 65.956 56.1456 181.879 48.3587C181.879 48.3587 101.623 19.2831 4.33936 30.2088Z" fill="#302D4B"/>
<path d="M-1.25457 25.308C-1.25457 25.308 32.9328 96.4526 42.7393 185.428C42.7393 185.428 -1.57915 124.223 -1.25457 25.308Z" fill="#302D4B"/>
<path d="M83.54 107.397C83.54 107.397 131.753 168.737 237.312 226.193C237.312 226.193 161.041 136.884 83.54 107.397Z" fill="#302D4B"/>
<path d="M-16.8384 9.71899C-16.8384 9.71899 35.6524 25.3177 115.502 15.2917C115.502 15.2917 40.9781 -1.36792 -16.8384 9.71899Z" fill="#302D4B"/>
<path d="M-28.9264 -1.72075C-28.9264 -1.72075 13.8574 95.8927 1.19124 145.483C1.19124 145.483 -36.0947 90.6569 -28.9264 -1.72075Z" fill="#302D4B"/>
<path d="M145.467 -6.57022L145.469 -6.56872C145.473 -6.43391 145.539 -4.40737 145.539 -0.796722C145.54 9.53113 144.994 32.8245 140.957 61.7785C137.932 83.4922 132.943 108.387 124.823 133.351C118.737 152.075 110.892 170.833 100.859 188.344C93.334 201.48 84.583 213.914 74.4279 225.157C59.1848 242.024 40.8346 256.218 18.4374 266.294C-3.96585 276.357 -30.4929 282.346 -62.3433 282.355V305.8C-34.8495 305.803 -10.3419 301.68 11.3568 294.262C30.343 287.776 47.1596 278.773 61.93 267.953C87.7954 249.01 107.346 224.593 122.114 198.397C144.26 159.071 155.837 115.669 162.042 78.9129C168.226 42.1559 168.98 12.0047 168.985 -0.796722C168.985 -4.95248 168.903 -7.27798 168.898 -7.404L145.469 -6.57022" fill="#131120"/>
<path d="M144.62 41.8618C146.404 41.2507 148.191 40.9473 149.976 40.7129C151.76 40.4975 153.545 40.3979 155.33 40.3964C157.116 40.3935 158.901 40.4945 160.686 40.7099C162.471 40.9415 164.255 41.2478 166.04 41.8618C164.255 42.4757 162.471 42.782 160.686 43.0135C158.901 43.2289 157.116 43.3286 155.33 43.3256C153.545 43.3242 151.76 43.2245 149.976 43.0091C148.191 42.7761 146.404 42.4714 144.62 41.8618Z" fill="#302D4B"/>
<path d="M141.138 70.0952C142.92 69.7831 144.648 69.7728 146.365 69.8329C148.08 69.9106 149.772 70.1011 151.45 70.3898C153.128 70.677 154.788 71.0653 156.428 71.5664C158.065 72.0852 159.69 72.6757 161.263 73.5696C159.482 73.8861 157.752 73.8978 156.035 73.8377C154.322 73.7586 152.628 73.5681 150.952 73.2765C149.274 72.9849 147.615 72.5966 145.974 72.0954C144.337 71.5752 142.711 70.9861 141.138 70.0952Z" fill="#302D4B"/>
<path d="M134.558 101.807C136.415 101.613 138.201 101.719 139.97 101.893C141.735 102.085 143.476 102.391 145.192 102.791C146.91 103.19 148.604 103.69 150.273 104.301C151.936 104.929 153.583 105.628 155.16 106.628C153.303 106.824 151.517 106.72 149.747 106.544C147.981 106.352 146.241 106.047 144.525 105.643C142.808 105.24 141.116 104.74 139.447 104.129C137.783 103.501 136.136 102.803 134.558 101.807Z" fill="#302D4B"/>
<path d="M120.539 148.022C122.432 148.255 124.192 148.765 125.921 149.338C127.643 149.927 129.315 150.622 130.944 151.404C132.574 152.185 134.158 153.059 135.693 154.036C137.22 155.028 138.716 156.087 140.079 157.425C138.184 157.195 136.422 156.687 134.694 156.112C132.972 155.522 131.3 154.83 129.674 154.043C128.046 153.258 126.46 152.384 124.926 151.407C123.399 150.412 121.901 149.356 120.539 148.022Z" fill="#302D4B"/>
<path d="M100.998 190.398C102.768 190.87 104.363 191.594 105.921 192.378C107.467 193.175 108.947 194.067 110.373 195.042C111.799 196.015 113.167 197.074 114.47 198.226C115.764 199.394 117.015 200.622 118.092 202.104C116.321 201.635 114.724 200.912 113.167 200.128C111.623 199.33 110.141 198.437 108.719 197.46C107.294 196.482 105.926 195.424 104.623 194.273C103.33 193.103 102.078 191.877 100.998 190.398Z" fill="#302D4B"/>
<path d="M23.75 265.601C25.0294 266.903 26.0305 268.333 26.9687 269.792C27.8885 271.261 28.7048 272.777 29.4322 274.335C30.1604 275.893 30.7946 277.494 31.3258 279.144C31.841 280.8 32.2897 282.488 32.4586 284.305C31.1764 283.007 30.173 281.577 29.237 280.116C28.3161 278.649 27.4999 277.131 26.7763 275.572C26.0516 274.013 25.4168 272.411 24.8862 270.762C24.3722 269.104 23.9223 267.418 23.75 265.601Z" fill="#302D4B"/>
<path d="M75.2358 224.548C76.984 225.344 78.5232 226.364 80.0148 227.435C81.4928 228.519 82.8923 229.688 84.2255 230.93C85.5591 232.169 86.823 233.485 88.0079 234.883C89.1814 236.296 90.3044 237.761 91.2175 239.454C89.4664 238.659 87.9261 237.641 86.4368 236.57C84.9582 235.484 83.5581 234.316 82.2278 233.072C80.897 231.828 79.6337 230.513 78.4476 229.114C77.2759 227.701 76.1517 226.238 75.2358 224.548Z" fill="#302D4B"/>
<path d="M51.4282 246.955C52.9647 248.173 54.2594 249.551 55.47 250.986C56.6795 252.422 57.8049 253.912 58.8328 255.469C59.8707 257.017 60.8037 258.635 61.6572 260.307C62.5094 261.981 63.2742 263.71 63.7967 265.602C62.2577 264.384 60.9611 263.006 59.7522 261.572C58.5445 260.134 57.4157 258.645 56.3915 257.088C55.3595 255.535 54.4237 253.918 53.5713 252.246C52.7202 250.573 51.9543 248.844 51.4282 246.955Z" fill="#302D4B"/>
<path d="M858.781 -23.4072L865.764 -18.9993L858.789 -23.4189L858.781 -23.4072L865.764 -18.9993L858.789 -23.4189L858.784 -23.413C858.484 -22.9104 842.63 1.70763 813.461 25.7674C798.882 37.8067 781.005 49.7084 760.133 58.5577C739.251 67.4099 715.408 73.2449 688.533 73.2493C661.166 73.2449 636.998 67.829 615.977 59.6757C584.465 47.4547 560.053 28.9779 543.609 13.5565C535.388 5.85166 529.165 -1.07509 525.044 -6.01189C522.984 -8.48102 521.45 -10.4534 520.452 -11.7752C519.954 -12.436 519.589 -12.9343 519.36 -13.2522C519.246 -13.4105 519.165 -13.5248 519.119 -13.5892L519.075 -13.6523L519.073 -13.6552L515.046 -10.8652L519.076 -13.6508L519.073 -13.6552L515.046 -10.8652L519.076 -13.6508L519.075 -13.6523L509.859 -7.28091L519.083 -13.642L519.075 -13.6523L509.859 -7.28091L519.083 -13.642L504.104 -35.3659L498.025 -9.68845L499.726 -9.28547L498.025 -9.68995V-9.68845L499.726 -9.28547L498.025 -9.68995C497.995 -9.56833 495.705 0.0576154 491.368 14.3507C488.117 25.0698 483.715 38.4148 478.279 52.3167C474.204 62.7398 469.545 73.478 464.389 83.6314C460.523 91.2454 456.375 98.5283 452.018 105.09C445.496 114.943 438.455 123.129 431.543 128.477C428.089 131.16 424.694 133.143 421.425 134.432C418.145 135.721 415.011 136.345 411.783 136.349C411.356 136.349 410.927 136.337 410.494 136.315C401.881 135.839 394.727 133.411 388.19 129.378C382.487 125.843 377.279 120.989 372.549 114.987C364.267 104.51 357.589 90.5128 352.56 75.3888C344.98 52.7036 341.05 27.6122 339.118 8.35299C338.145 -1.28027 337.66 -9.46577 337.418 -15.2056C337.297 -18.0748 337.237 -20.3343 337.207 -21.8568C337.193 -22.6188 337.185 -23.1961 337.183 -23.5757C337.181 -23.7647 337.18 -23.9039 337.18 -23.9919L337.178 -24.0842V-24.1018L334.291 -24.0973H337.178V-24.1018L334.291 -24.0973H337.178H313.732C313.734 -23.8512 313.738 -13.072 315.092 3.14224C316.111 15.3047 317.884 30.5239 321.017 46.6942C323.369 58.8244 326.483 71.4894 330.665 83.8366C333.803 93.0962 337.542 102.178 342.059 110.724C348.838 123.526 357.372 135.203 368.493 144.111C374.047 148.554 380.254 152.275 387.085 154.967C393.912 157.661 401.354 159.313 409.253 159.728C410.099 159.773 410.943 159.795 411.783 159.795C416.837 159.798 421.767 158.983 426.433 157.515C435.202 154.753 442.986 149.794 449.964 143.644C456.076 138.248 461.616 131.899 466.742 124.943C475.701 112.769 483.411 98.7041 490.085 84.3905C500.081 62.9274 507.708 40.8913 512.894 24.1291C518.074 7.37268 520.793 -4.09376 520.839 -4.28572L509.431 -6.98784L499.78 -0.333621C500.264 0.343375 516.777 24.2448 548.509 48.3324C564.379 60.3674 584.078 72.442 607.494 81.5331C630.902 90.6212 658.048 96.6995 688.533 96.6951C719.193 96.7009 746.548 89.909 770.117 79.7892C805.494 64.5949 832.415 42.0489 850.608 23.329C868.797 4.59144 878.287 -10.3919 878.608 -10.893L858.781 -23.4072Z" fill="#131120"/>
<path d="M327.949 70.2165C329.482 69.1175 331.104 68.3115 332.745 67.573C334.394 66.852 336.073 66.2409 337.782 65.7237C339.49 65.2079 341.228 64.7887 343 64.4795C344.776 64.1865 346.574 63.9652 348.46 64.037C346.927 65.1404 345.306 65.9479 343.665 66.6849C342.017 67.4059 340.337 68.0169 338.627 68.5298C336.917 69.0427 335.179 69.4618 333.408 69.7724C331.632 70.0626 329.835 70.2868 327.949 70.2165Z" fill="#302D4B"/>
<path d="M321.083 38.4303C322.666 37.4734 324.313 36.8155 325.973 36.2279C327.638 35.6564 329.328 35.1977 331.036 34.8358C332.745 34.4738 334.474 34.213 336.228 34.0621C337.985 33.9287 339.758 33.8686 341.593 34.109C340.01 35.0702 338.364 35.7296 336.703 36.3172C335.038 36.8873 333.35 37.3459 331.64 37.7035C329.931 38.0625 328.201 38.3248 326.447 38.4743C324.69 38.6062 322.918 38.6677 321.083 38.4303Z" fill="#302D4B"/>
<path d="M316.807 9.33183C318.426 8.47166 320.09 7.9134 321.764 7.42543C323.441 6.95505 325.136 6.59895 326.845 6.33958C328.553 6.08021 330.277 5.92046 332.018 5.8765C333.761 5.84866 335.517 5.89409 337.318 6.24284C335.7 7.1074 334.037 7.66721 332.362 8.15518C330.684 8.62556 328.99 8.98162 327.282 9.23659C325.571 9.49157 323.847 9.65127 322.106 9.69523C320.362 9.72161 318.608 9.67912 316.807 9.33183Z" fill="#302D4B"/>
<path d="M336.025 94.4551C337.41 93.1963 338.915 92.2175 340.447 91.3031C341.987 90.4063 343.573 89.615 345.198 88.9145C346.822 88.2126 348.486 87.606 350.196 87.1034C351.914 86.6184 353.659 86.1993 355.527 86.0645C354.146 87.3276 352.641 88.3079 351.108 89.2209C349.568 90.1162 347.981 90.9089 346.356 91.6064C344.731 92.3039 343.066 92.9106 341.356 93.4132C339.637 93.8968 337.892 94.3173 336.025 94.4551Z" fill="#302D4B"/>
<path d="M355.528 129.175C356.589 127.654 357.828 126.379 359.111 125.163C360.402 123.96 361.763 122.852 363.18 121.824C364.597 120.793 366.075 119.847 367.619 118.994C369.173 118.154 370.772 117.375 372.551 116.844C371.493 118.368 370.253 119.645 368.971 120.859C367.679 122.061 366.319 123.17 364.899 124.196C363.479 125.222 362.002 126.168 360.457 127.023C358.903 127.861 357.305 128.642 355.528 129.175Z" fill="#302D4B"/>
<path d="M389.344 154.251C389.334 152.484 389.611 150.818 389.955 149.178C390.317 147.543 390.786 145.949 391.347 144.387C391.908 142.825 392.568 141.298 393.333 139.809C394.115 138.326 394.967 136.869 396.108 135.517C396.121 137.286 395.846 138.952 395.5 140.591C395.138 142.225 394.669 143.821 394.104 145.382C393.538 146.942 392.881 148.469 392.115 149.958C391.331 151.439 390.481 152.897 389.344 154.251Z" fill="#302D4B"/>
<path d="M434.436 151.973C433.05 150.928 431.922 149.72 430.852 148.475C429.798 147.218 428.842 145.9 427.968 144.53C427.095 143.16 426.308 141.736 425.616 140.248C424.941 138.752 424.328 137.218 423.974 135.517C425.364 136.559 426.494 137.766 427.562 139.012C428.614 140.269 429.571 141.586 430.44 142.958C431.312 144.331 432.099 145.755 432.789 147.243C433.465 148.739 434.08 150.273 434.436 151.973Z" fill="#302D4B"/>
</g>
<path d="M79.2463 2798.88C79.2463 2798.88 9.84034 797.995 122 0.000129335H77.603C77.603 0.000129335 -39.3139 1152.48 21.5646 2799L79.2463 2798.88Z" fill="#433E69"/>
<path d="M462 2775C462 2775 453.838 523.221 341.312 -29.9999H312C312 -29.9999 477.34 2001.24 381.15 2775H462Z" fill="#433E69"/>
<mask id="mask0_1114_10059" style="mask-type:alpha" maskUnits="userSpaceOnUse" x="-332" y="1089" width="1497" height="719">
<rect x="-332" y="1089" width="1496.26" height="718.206" fill="#D9D9D9"/>
</mask>
<g mask="url(#mask0_1114_10059)">
<path d="M809.845 1674.58C785.373 1645.08 735.172 1642.25 707.537 1668.81C710.159 1634.97 683.317 1601.45 649.721 1596.63C616.123 1591.8 580.931 1616.4 573.921 1649.61C570.431 1622.04 543.216 1599.68 515.498 1601.6C487.781 1603.52 463.91 1629.42 464.253 1657.2C446.181 1625.71 400.441 1614.2 369.616 1633.38C357.283 1641.06 348.22 1653.2 343.218 1666.74C340.377 1674.42 338.869 1682.48 338.671 1690.6C332.014 1688.02 324.957 1686.59 317.721 1686.7C291.791 1687.1 266.981 1710.2 268.789 1736.07C263.357 1718.11 235.838 1715.77 222.463 1728.94C209.086 1742.1 207.565 1763.29 210.944 1781.75C193.279 1769.9 167.147 1775.75 153.805 1792.31C140.463 1808.87 139.415 1833.35 148.444 1852.6C154.433 1865.38 164.363 1875.96 175.954 1883.86C181.006 1887.3 186.352 1890.19 191.906 1892.59L413.773 1907.63L712.005 1892.45C742.037 1889.14 773.152 1880.64 797.806 1863.15C814.347 1851.42 829.714 1835.14 831.833 1814.97C833.954 1794.8 816.547 1772.4 796.623 1776.2C827.831 1753.94 834.318 1704.08 809.845 1674.58Z" fill="#302D4B"/>
<path d="M308.874 1684.52C302.48 1646.73 260.457 1619.12 223.232 1628.26C242.46 1600.29 236.026 1557.84 209.373 1536.82C182.717 1515.81 139.936 1519.46 117.227 1544.69C128.02 1519.08 115.675 1486.09 90.727 1473.87C65.7793 1461.64 32.1433 1472.09 18.5173 1496.3C18.661 1459.99 -15.1506 1427.1 -51.4419 1428.26C-65.9617 1428.72 -79.8869 1434.68 -91.0011 1443.9C-97.3114 1449.12 -102.654 1455.34 -106.891 1462.26C-111.362 1456.7 -116.753 1451.93 -123.071 1448.4C-145.711 1435.75 -178.754 1443.3 -190.155 1466.6C-185.854 1448.33 -208.496 1432.52 -226.668 1437.2C-244.839 1441.89 -256.775 1459.47 -263.102 1477.13C-272.454 1458.03 -297.995 1449.99 -317.841 1457.64C-337.686 1465.28 -350.859 1485.94 -352.696 1507.13C-353.915 1521.18 -350.624 1535.32 -344.554 1547.96C-341.908 1553.48 -338.727 1558.65 -335.122 1563.51V1824.1L115.022 1824.03C142.669 1836.22 173.855 1844.46 203.954 1841.68C224.148 1839.82 245.604 1833.43 257.546 1817.03C269.489 1800.64 265.65 1772.54 246.508 1765.84C284.667 1762.22 315.268 1722.32 308.874 1684.52Z" fill="#302D4B"/>
<path d="M126.951 1821.68C126.951 1821.68 199.793 1558 311.345 1553.97C422.896 1549.93 437.105 1716.4 303.919 1766.61C170.732 1816.82 126.951 1821.68 126.951 1821.68Z" fill="#262434"/>
<path d="M134.117 1817.4C150.502 1793.97 167.755 1771.15 185.535 1748.75C203.354 1726.38 221.844 1704.54 241.138 1683.41C250.816 1672.87 260.653 1662.48 270.804 1652.39C281.024 1642.37 291.484 1632.59 302.311 1623.21C313.274 1614 324.583 1605.18 336.422 1597.11C339.422 1595.16 342.341 1593.08 345.407 1591.23C348.484 1589.39 351.522 1587.5 354.626 1585.71L364.139 1580.73L373.928 1576.32L374.006 1576.5L364.39 1581.22L355.079 1586.5C352.027 1588.34 349.024 1590.27 345.996 1592.15C342.976 1594.05 340.101 1596.17 337.148 1598.16C325.493 1606.39 314.377 1615.36 303.612 1624.72C282.058 1643.43 261.804 1663.62 242.313 1684.49C222.899 1705.45 204.276 1727.15 186.313 1749.37C168.338 1771.59 150.877 1794.24 134.281 1817.51L134.117 1817.4Z" fill="#6A6589"/>
<path d="M321.122 1555.51L313.012 1588.85C311.637 1594.4 310.402 1599.97 309.088 1605.53C308.443 1608.31 307.811 1611.1 307.236 1613.9C306.55 1616.68 306.059 1619.5 305.383 1622.29C305.826 1616.57 306.604 1610.88 307.581 1605.23C308.549 1599.57 309.738 1593.96 311.073 1588.39C312.443 1582.82 313.894 1577.27 315.581 1571.79C317.253 1566.31 319.023 1560.86 321.122 1555.51Z" fill="#6A6589"/>
<path d="M274.547 1564.82C273.254 1572.58 272.125 1580.36 271.139 1588.15C270.165 1595.94 269.206 1603.73 268.593 1611.56C267.805 1619.37 267.281 1627.2 266.868 1635.04C266.379 1642.88 266.233 1650.74 265.95 1658.61C265.697 1654.68 265.465 1650.74 265.363 1646.81C265.302 1642.87 265.256 1638.93 265.336 1634.99C265.429 1627.1 265.974 1619.23 266.61 1611.38C267.39 1603.53 268.324 1595.7 269.627 1587.93C270.285 1584.04 271.005 1580.17 271.779 1576.31C272.643 1572.46 273.467 1568.61 274.547 1564.82Z" fill="#6A6589"/>
<path d="M241.383 1591.13L236.659 1618.29C235.149 1627.35 233.581 1636.4 232.34 1645.49C230.943 1654.56 229.742 1663.66 228.799 1672.78C228.516 1675.06 228.316 1677.34 228.126 1679.63C227.937 1681.91 227.692 1684.2 227.598 1686.49C227.464 1688.77 227.263 1691.06 227.183 1693.36L226.999 1700.25C226.277 1691.07 226.642 1681.83 227.271 1672.65C227.901 1663.45 229.122 1654.32 230.369 1645.2C231.779 1636.1 233.321 1627.03 235.157 1618.02C237 1609 238.981 1600.02 241.383 1591.13Z" fill="#6A6589"/>
<path d="M291.031 1634.54C299.46 1638.29 308.146 1641.37 316.941 1644.06C325.741 1646.7 334.626 1649.1 343.666 1650.76C352.663 1652.59 361.761 1653.98 370.916 1654.8C380.063 1655.82 389.266 1656.03 398.497 1656.26C396.197 1656.39 393.89 1656.51 391.582 1656.61C389.274 1656.7 386.964 1656.86 384.653 1656.8C380.033 1656.73 375.405 1656.71 370.79 1656.34C361.545 1655.82 352.374 1654.4 343.275 1652.71C334.199 1650.87 325.232 1648.49 316.47 1645.51C312.091 1644.02 307.769 1642.36 303.496 1640.6C299.271 1638.72 295.043 1636.83 291.031 1634.54Z" fill="#6A6589"/>
<path d="M323.543 1607.22C326.504 1607.99 329.452 1608.77 332.431 1609.42C335.391 1610.14 338.362 1610.81 341.348 1611.39C347.314 1612.56 353.287 1613.69 359.314 1614.38C360.814 1614.61 362.324 1614.73 363.832 1614.88C365.339 1615.02 366.847 1615.2 368.357 1615.25L372.892 1615.5C374.404 1615.48 375.916 1615.49 377.43 1615.52C378.949 1615.59 380.449 1615.41 381.963 1615.34L384.231 1615.2C384.987 1615.15 385.728 1614.99 386.478 1614.9C387.97 1614.66 389.51 1614.6 390.979 1614.22C392.449 1613.85 393.933 1613.51 395.435 1613.18C389.78 1615.58 383.619 1616.61 377.488 1617.05C371.332 1617.53 365.169 1617.02 359.068 1616.36C352.967 1615.61 346.937 1614.42 341.005 1612.88C335.076 1611.33 329.203 1609.56 323.543 1607.22Z" fill="#6A6589"/>
<path d="M254.084 1670.78C259.269 1673.05 264.496 1675.2 269.809 1677.13C272.442 1678.15 275.119 1679.06 277.769 1680.03L285.805 1682.71C296.56 1686.14 307.457 1689.12 318.499 1691.39C329.498 1693.91 340.696 1695.41 351.918 1696.46L360.355 1697.09C363.172 1697.21 365.994 1697.2 368.815 1697.27L373.053 1697.38L377.284 1697.23L385.767 1696.93C374.529 1698.21 363.14 1698.81 351.806 1697.99C340.478 1697.26 329.188 1695.73 318.086 1693.34C307.002 1690.89 296.025 1687.92 285.318 1684.16C274.627 1680.38 264.103 1676.07 254.084 1670.78Z" fill="#6A6589"/>
<path d="M218.035 1710.49C228.862 1714.49 239.861 1717.94 250.951 1721.03L259.286 1723.29L267.649 1725.43C273.257 1726.73 278.855 1728.06 284.507 1729.14C290.121 1730.41 295.803 1731.34 301.461 1732.39C307.149 1733.25 312.828 1734.19 318.542 1734.88C321.399 1735.23 324.248 1735.66 327.111 1735.96L335.711 1736.77C341.439 1737.44 347.205 1737.56 352.958 1738.07C341.425 1738.1 329.852 1737.71 318.365 1736.4C306.857 1735.27 295.44 1733.36 284.106 1731.09C272.792 1728.71 261.56 1725.92 250.522 1722.5C245 1720.79 239.524 1718.95 234.081 1717.01C228.681 1714.96 223.278 1712.91 218.035 1710.49Z" fill="#6A6589"/>
<path d="M193.141 1740.13C196.875 1742.28 200.74 1744.17 204.686 1745.87C206.635 1746.77 208.628 1747.58 210.597 1748.43L216.592 1750.78C224.614 1753.84 232.76 1756.58 241.007 1758.97C249.197 1761.56 257.546 1763.62 265.873 1765.76L278.426 1768.75C282.621 1769.7 286.835 1770.59 291.028 1771.6C286.757 1771.03 282.501 1770.34 278.234 1769.71L265.53 1767.25C257.099 1765.41 248.716 1763.33 240.435 1760.88C232.191 1758.31 223.98 1755.58 216.024 1752.2C208.091 1748.8 200.217 1745.09 193.141 1740.13Z" fill="#6A6589"/>
<path d="M166.033 1774.36C168.964 1775.42 171.903 1776.42 174.881 1777.31C177.84 1778.24 180.814 1779.12 183.815 1779.9C189.808 1781.49 195.825 1782.97 201.892 1784.23C207.962 1785.47 214.051 1786.62 220.184 1787.57C226.309 1788.58 232.473 1789.3 238.652 1790.16C235.538 1790.13 232.419 1790.04 229.303 1789.89C226.199 1789.64 223.079 1789.47 219.98 1789.09C213.762 1788.5 207.609 1787.38 201.483 1786.18C195.378 1784.86 189.315 1783.32 183.378 1781.37C177.449 1779.42 171.571 1777.25 166.033 1774.36Z" fill="#6A6589"/>
<path d="M193.144 1658.86C193.132 1661.95 193.15 1665.02 193.283 1668.09C193.349 1671.16 193.489 1674.23 193.676 1677.29C194.055 1683.42 194.506 1689.53 195.099 1695.64C195.697 1701.74 196.395 1707.84 197.164 1713.94C197.914 1720.03 198.851 1726.11 199.643 1732.22C198.845 1729.25 198.137 1726.25 197.427 1723.24C196.834 1720.22 196.162 1717.21 195.647 1714.17C194.516 1708.1 193.76 1701.97 193.114 1695.83C192.567 1689.68 192.166 1683.52 192.15 1677.34C192.13 1671.17 192.288 1664.98 193.144 1658.86Z" fill="#6A6589"/>
<path d="M170.163 1704.6C170.183 1707.1 170.149 1709.59 170.225 1712.08C170.231 1714.56 170.278 1717.05 170.356 1719.53C170.53 1724.5 170.717 1729.46 171.064 1734.4C171.342 1739.36 171.866 1744.29 172.395 1749.22C172.67 1751.69 172.988 1754.15 173.397 1756.6C173.662 1759.08 174.233 1761.5 174.562 1763.99C171.352 1754.51 169.752 1744.51 169.075 1734.53C168.776 1729.54 168.636 1724.53 168.828 1719.53C169.008 1714.53 169.357 1709.53 170.163 1704.6Z" fill="#6A6589"/>
<path d="M148.095 1758.14C148.053 1761.51 147.993 1764.86 147.864 1768.2C147.764 1771.55 147.62 1774.88 147.566 1778.21C147.473 1781.54 147.429 1784.87 147.485 1788.19C147.572 1791.51 147.644 1794.84 148.095 1798.18C146.888 1795.02 146.28 1791.64 145.93 1788.28C145.553 1784.92 145.514 1781.53 145.573 1778.16C145.769 1771.42 146.499 1764.7 148.095 1758.14Z" fill="#6A6589"/>
<path d="M181.6 1835.28C181.6 1835.28 -89.5645 1799.21 -108.832 1689.26C-128.102 1579.32 34.8607 1542.46 102.827 1667.52C170.793 1792.58 181.6 1835.28 181.6 1835.28Z" fill="#262434"/>
<path d="M174.492 1826.28C154.53 1806.39 134.033 1787.05 113.223 1768.07C92.4254 1749.07 71.2243 1730.51 49.5525 1712.53C27.8108 1694.63 5.64013 1677.26 -17.2946 1660.95C-40.1834 1644.62 -63.8723 1629.2 -89.4883 1617.43L-89.4105 1617.25L-79.7107 1621.47L-70.1945 1626.1C-67.0683 1627.73 -63.988 1629.44 -60.8797 1631.12C-57.7775 1632.8 -54.771 1634.64 -51.7086 1636.39C-39.5729 1643.59 -27.7525 1651.3 -16.1435 1659.32C-4.64418 1667.49 6.64763 1675.95 17.7878 1684.59C28.8641 1693.32 39.7749 1702.25 50.5739 1711.3C72.1401 1729.46 93.2254 1748.18 113.898 1767.34C134.538 1786.52 154.857 1806.06 174.634 1826.14L174.492 1826.28Z" fill="#6A6589"/>
<path d="M-10.0185 1589.22C-10.0205 1590.09 -9.75913 1590.93 -9.54965 1591.78L-8.88132 1594.31L-7.46487 1599.36L-4.82743 1609.53C-3.12569 1616.32 -1.73118 1623.2 -0.603999 1630.13C0.463336 1637.06 1.28529 1644.05 1.44489 1651.09C1.63641 1658.11 1.27931 1665.2 -0.316703 1672.04C0.0683349 1668.55 0.283779 1665.07 0.263829 1661.59C0.311709 1658.11 0.184049 1654.63 -0.0892686 1651.17C-0.605978 1644.23 -1.46784 1637.32 -2.57308 1630.44C-3.64241 1623.56 -4.97708 1616.71 -6.31973 1609.86L-8.4105 1599.59L-9.39403 1594.43C-9.67134 1592.71 -10.1202 1590.98 -10.0185 1589.22Z" fill="#6A6589"/>
<path d="M30.2559 1598.94C32.1292 1606.95 33.4299 1615.08 34.5052 1623.24C35.5506 1631.4 36.2549 1639.61 36.6259 1647.85C36.7397 1649.9 36.7097 1651.97 36.7496 1654.03C36.7776 1656.09 36.8135 1658.15 36.7417 1660.21L36.596 1666.39C36.4823 1668.45 36.3347 1670.51 36.1751 1672.56C35.417 1680.77 34.1661 1688.98 31.6464 1696.82C32.0095 1694.79 32.3865 1692.78 32.7855 1690.77C33.2045 1688.76 33.3282 1686.7 33.6115 1684.68C33.7352 1683.67 33.9027 1682.66 34.0045 1681.64L34.2419 1678.58C34.3696 1676.54 34.6289 1674.51 34.6429 1672.46C35.0678 1664.29 34.9801 1656.1 34.6349 1647.93C34.4314 1639.74 33.7012 1631.57 32.989 1623.41C32.6439 1619.32 32.205 1615.25 31.7242 1611.17C31.3132 1607.09 30.7786 1603.02 30.2559 1598.94Z" fill="#6A6589"/>
<path d="M67.2221 1622.29C68.1697 1630.79 68.7004 1639.32 69.0934 1647.86C69.4745 1656.4 69.5722 1664.95 69.5643 1673.5C69.3767 1682.05 69.1672 1690.61 68.467 1699.14C67.7428 1707.66 66.7613 1716.18 65.0156 1724.55C65.4027 1720.29 65.9333 1716.07 66.1608 1711.8C66.5518 1707.56 66.7194 1703.3 66.9348 1699.04C67.3179 1690.53 67.5393 1682.01 67.5712 1673.48C67.7468 1664.96 67.6191 1656.43 67.5672 1647.9L67.2221 1622.29Z" fill="#6A6589"/>
<path d="M100.848 1663.97C101.734 1671.27 102.197 1678.62 102.508 1685.97C102.849 1693.32 102.845 1700.68 102.654 1708.05C102.434 1715.41 101.964 1722.78 100.946 1730.09C99.9127 1737.37 98.6359 1744.72 95.793 1751.55C96.2239 1749.75 96.6688 1747.97 97.1356 1746.21L98.0932 1740.8C98.6299 1737.18 99.1466 1733.56 99.4199 1729.91C100.072 1722.62 100.485 1715.31 100.663 1707.99C100.902 1700.67 100.956 1693.33 100.982 1686C101 1682.33 100.976 1678.66 100.93 1674.99L100.848 1663.97Z" fill="#6A6589"/>
<path d="M7.7408 1678.1C3.25002 1680.17 -1.42828 1681.81 -6.11059 1683.41C-10.8328 1684.9 -15.5989 1686.25 -20.4109 1687.43C-30.0348 1689.79 -39.8443 1691.39 -49.7097 1692.38C-59.583 1693.26 -69.5202 1693.66 -79.4175 1693.08C-81.8913 1692.91 -84.3691 1692.87 -86.831 1692.59L-94.2145 1691.78C-96.6784 1691.54 -99.1103 1691.06 -101.544 1690.62L-108.832 1689.26C-99.0126 1690.39 -89.217 1691.5 -79.3636 1691.55C-74.4459 1691.72 -69.5282 1691.56 -64.6125 1691.47C-62.1546 1691.4 -59.7027 1691.17 -57.2489 1691.03L-53.5701 1690.79L-49.9032 1690.4C-47.4593 1690.14 -45.0034 1689.99 -42.5695 1689.63L-35.2598 1688.63L-27.9899 1687.37C-25.57 1686.94 -23.168 1686.4 -20.75 1685.94C-11.1181 1683.91 -1.57593 1681.38 7.7408 1678.1Z" fill="#6A6589"/>
<path d="M35.6026 1700.25C30.5213 1702.63 25.2504 1704.57 19.9756 1706.48C14.6589 1708.28 9.29627 1709.95 3.88578 1711.45C-6.93918 1714.45 -17.9656 1716.72 -29.0759 1718.4C-40.1981 1719.97 -51.4041 1721.1 -62.6401 1721.26C-65.449 1721.27 -68.254 1721.42 -71.061 1721.33L-79.478 1721.08C-82.283 1721.03 -85.08 1720.75 -87.873 1720.5L-96.2441 1719.71C-85.0381 1720.07 -73.856 1720.42 -62.6939 1719.72C-57.1099 1719.52 -51.5478 1719 -45.9817 1718.56C-43.2006 1718.3 -40.4355 1717.91 -37.6625 1717.59L-33.5068 1717.08L-29.3692 1716.43C-18.3008 1714.92 -7.35214 1712.64 3.49876 1709.97C14.3477 1707.29 25.0948 1704.15 35.6026 1700.25Z" fill="#6A6589"/>
<path d="M58.3936 1718.92C48.7816 1724.23 38.7248 1728.72 28.5163 1732.79C18.2938 1736.85 7.81595 1740.25 -2.78158 1743.23C-13.4529 1745.93 -24.2699 1748.11 -35.2166 1749.37C-46.1852 1750.41 -57.2535 1750.53 -68.1543 1749.12C-62.656 1749.2 -57.1997 1749.66 -51.7293 1749.2C-46.257 1749.16 -40.8306 1748.37 -35.3981 1747.85C-24.5811 1746.28 -13.8559 1744.14 -3.29429 1741.3C7.27731 1738.5 17.6813 1735.09 27.9716 1731.37C33.1247 1729.51 38.232 1727.53 43.2914 1725.43C48.3886 1723.42 53.4021 1721.2 58.3936 1718.92Z" fill="#6A6589"/>
<path d="M86.6552 1741.68C82.6452 1744.78 78.314 1747.43 73.9689 1750.05C69.5499 1752.54 65.0512 1754.9 60.4526 1757.05C51.2556 1761.36 41.6875 1764.89 31.9119 1767.67C22.1104 1770.34 12.1413 1772.51 2.02657 1773.51C-0.503111 1773.74 -3.01284 1774.15 -5.5545 1774.22L-13.1575 1774.57C-15.6892 1774.72 -18.2289 1774.59 -20.7605 1774.52L-28.3516 1774.26C-18.2308 1773.94 -8.13407 1773.56 1.83503 1771.99L5.57569 1771.45C6.82657 1771.31 8.06748 1771.1 9.30239 1770.84L16.7258 1769.44C19.2017 1768.98 21.6256 1768.28 24.0775 1767.71L27.7443 1766.82C28.9613 1766.5 30.1583 1766.1 31.3693 1765.76C41.103 1763.16 50.5673 1759.64 59.8262 1755.66C69.0751 1751.66 78.1086 1747.1 86.6552 1741.68Z" fill="#6A6589"/>
<path d="M117.801 1771.6C115.684 1774.4 113.156 1776.85 110.601 1779.26C107.953 1781.56 105.214 1783.78 102.319 1785.78C96.5478 1789.81 90.3213 1793.21 83.7817 1795.84C77.2101 1798.36 70.4709 1800.57 63.5023 1801.61C60.0609 1802.35 56.5357 1802.53 53.0584 1802.95C51.3168 1803.16 49.5492 1803.05 47.8015 1803.12C46.0499 1803.16 44.3023 1803.17 42.5566 1803.16C46.032 1802.69 49.5153 1802.53 52.9527 1801.97C56.3821 1801.37 59.8455 1801.02 63.2031 1800.11L68.2684 1798.93L73.25 1797.46C74.9258 1797.01 76.5538 1796.43 78.1757 1795.83C79.7897 1795.21 81.4555 1794.72 83.0316 1794C89.4715 1791.45 95.5902 1788.17 101.469 1784.51C107.313 1780.79 112.877 1776.57 117.801 1771.6Z" fill="#6A6589"/>
<path d="M151.179 1803.16C151.097 1805.2 150.08 1807.09 148.972 1808.8C147.744 1810.45 146.299 1811.96 144.637 1813.17C141.359 1815.67 137.571 1817.34 133.733 1818.67C131.775 1819.2 129.83 1819.81 127.847 1820.2C125.85 1820.52 123.885 1821.03 121.868 1821.17C119.861 1821.36 117.862 1821.62 115.851 1821.67C113.834 1821.67 111.831 1821.74 109.824 1821.68C113.788 1820.98 117.726 1820.4 121.625 1819.63C125.521 1818.88 129.359 1817.94 133.114 1816.77C136.835 1815.53 140.468 1814.01 143.736 1811.9C146.91 1809.77 150.034 1807.05 151.179 1803.16Z" fill="#6A6589"/>
<path d="M128.785 1822.9C128.785 1822.9 307.064 1684.41 379.671 1769.1C452.279 1853.8 128.785 1822.9 128.785 1822.9Z" fill="#464072"/>
<path d="M121.848 1823.97C132.256 1818.92 142.919 1814.42 153.672 1810.17C164.431 1805.92 175.32 1802 186.325 1798.42C208.352 1791.35 230.796 1785.45 253.635 1781.54C265.05 1779.6 276.537 1777.97 288.106 1777.15C299.67 1776.39 311.287 1775.98 322.88 1776.63C334.455 1777.39 346.024 1778.67 357.351 1781.23C368.665 1783.8 379.732 1787.41 390.293 1792.15L390.213 1792.34C379.46 1788.08 368.35 1784.89 357.066 1782.59C345.764 1780.34 334.279 1779.17 322.782 1778.63C311.283 1777.97 299.741 1778.37 288.25 1779.12C276.743 1779.81 265.291 1781.31 253.9 1783.12C231.117 1786.81 208.677 1792.51 186.628 1799.37C175.601 1802.82 164.685 1806.61 153.888 1810.72C143.099 1814.86 132.389 1819.23 121.935 1824.15L121.848 1823.97Z" fill="#6A6589"/>
<path d="M368.164 1758.14C366.109 1758.77 364.05 1759.34 362.019 1760.01C359.974 1760.62 357.937 1761.25 355.918 1761.93C351.882 1763.3 347.85 1764.64 343.892 1766.18C339.93 1767.7 336.034 1769.37 332.195 1771.18C330.314 1772.14 328.379 1773.04 326.581 1774.17C324.672 1775.13 322.965 1776.39 321.119 1777.51C324.181 1774.49 327.757 1772.01 331.477 1769.82C335.218 1767.65 339.172 1765.9 343.178 1764.32C347.214 1762.8 351.318 1761.49 355.495 1760.47C359.669 1759.44 363.882 1758.57 368.164 1758.14Z" fill="#6A6589"/>
<path d="M343.449 1745.57C339.07 1748.09 334.563 1750.32 330.16 1752.72C325.755 1755.12 321.35 1757.51 317.051 1760.07C312.737 1762.6 308.476 1765.23 304.36 1768.06C303.301 1768.73 302.314 1769.49 301.296 1770.22C300.281 1770.95 299.269 1771.69 298.31 1772.49C297.332 1773.27 296.295 1773.98 295.361 1774.82C294.425 1775.65 293.472 1776.47 292.5 1777.28C295.676 1773.35 299.481 1769.95 303.453 1766.82C307.417 1763.65 311.706 1760.95 316.043 1758.35C320.41 1755.81 324.881 1753.44 329.478 1751.36C331.774 1750.31 334.082 1749.3 336.404 1748.32L343.449 1745.57Z" fill="#6A6589"/>
<path d="M305.381 1741.68C303.054 1742.7 301.039 1744.27 298.993 1745.76C296.954 1747.26 294.939 1748.8 292.974 1750.4C289.043 1753.6 285.123 1756.8 281.345 1760.17C277.532 1763.5 273.819 1766.95 270.155 1770.45C268.351 1772.22 266.514 1773.97 264.794 1775.84C262.965 1777.61 261.321 1779.53 259.537 1781.37C262.36 1777.11 265.622 1773.16 269.055 1769.37C272.493 1765.59 276.213 1762.07 280.03 1758.67C283.876 1755.31 287.868 1752.11 292.056 1749.18C296.267 1746.34 300.465 1743.22 305.381 1741.68Z" fill="#6A6589"/>
<path d="M265.949 1749.61C263.888 1750.8 262.134 1752.41 260.37 1754C258.587 1755.56 256.841 1757.17 255.116 1758.79L244.791 1768.6L224.219 1788.34C227.054 1784.49 230.192 1780.89 233.404 1777.37C236.6 1773.83 239.979 1770.46 243.417 1767.15C246.884 1763.88 250.403 1760.66 254.108 1757.64C257.847 1754.72 261.498 1751.47 265.949 1749.61Z" fill="#6A6589"/>
<path d="M219.227 1767.83C215.054 1772.87 210.659 1777.64 206.3 1782.44L193.141 1796.81C196.325 1791.07 200.452 1785.93 204.827 1781.09C209.264 1776.3 213.967 1771.74 219.227 1767.83Z" fill="#6A6589"/>
<path d="M203.176 1793.85C204.854 1795.44 206.48 1797.07 208.177 1798.63C209.827 1800.23 211.487 1801.81 213.187 1803.36C216.578 1806.44 219.926 1809.57 223.431 1812.51C226.913 1815.48 230.456 1818.37 234.14 1821.07C235.034 1821.79 236.006 1822.38 236.937 1823.05C237.871 1823.71 238.823 1824.34 239.81 1824.92C240.784 1825.51 241.72 1826.2 242.735 1826.73C243.746 1827.26 244.752 1827.82 245.757 1828.4C241.34 1827 237.213 1824.79 233.277 1822.34C229.323 1819.89 225.688 1817 222.136 1814.03C218.619 1811.01 215.272 1807.81 212.111 1804.44C208.949 1801.07 205.893 1797.6 203.176 1793.85Z" fill="#6A6589"/>
<path d="M241.381 1784.57C243.284 1786.64 245.149 1788.72 247.119 1790.71C249.03 1792.75 250.979 1794.75 252.972 1796.7C256.954 1800.61 260.992 1804.44 265.191 1808.1C269.377 1811.77 273.766 1815.18 278.247 1818.48C280.543 1820.04 282.805 1821.67 285.225 1823.06C287.538 1824.64 290.065 1825.81 292.499 1827.23C287.21 1825.34 282.171 1822.74 277.391 1819.75C272.643 1816.71 268.148 1813.28 263.881 1809.6C259.665 1805.87 255.615 1801.95 251.865 1797.75C248.11 1793.57 244.519 1789.24 241.381 1784.57Z" fill="#6A6589"/>
<path d="M277.871 1779C280.514 1781.11 283.16 1783.21 285.881 1785.2C288.566 1787.24 291.292 1789.22 294.049 1791.15C299.567 1795.01 305.177 1798.73 310.919 1802.22C316.624 1805.78 322.508 1809.04 328.473 1812.15L332.963 1814.45L337.546 1816.58C340.549 1818.13 343.725 1819.26 346.789 1820.71C340.323 1818.75 333.925 1816.44 327.8 1813.53C326.24 1812.86 324.71 1812.13 323.21 1811.34L318.685 1809.01C315.727 1807.36 312.756 1805.72 309.875 1803.92C304.112 1800.35 298.48 1796.56 293.143 1792.38C287.792 1788.23 282.605 1783.85 277.871 1779Z" fill="#6A6589"/>
<path d="M309.721 1777.28L317.683 1781.7L325.601 1786.16C330.898 1789.1 336.157 1792.1 341.479 1794.97C346.776 1797.9 352.113 1800.74 357.497 1803.49C360.173 1804.9 362.908 1806.19 365.649 1807.47L369.771 1809.36C371.173 1809.93 372.57 1810.52 373.966 1811.13C368.063 1809.63 362.401 1807.32 356.837 1804.87C351.259 1802.43 345.862 1799.62 340.522 1796.72C335.199 1793.79 329.946 1790.74 324.821 1787.47C319.688 1784.23 314.607 1780.9 309.721 1777.28Z" fill="#6A6589"/>
<path d="M359.293 1782.32C364.161 1785.24 368.809 1788.34 373.513 1791.38C378.184 1794.48 382.904 1797.43 387.574 1800.67C382.19 1798.84 377.166 1796.13 372.422 1793.05C367.706 1789.93 363.187 1786.47 359.293 1782.32Z" fill="#6A6589"/>
<path d="M175.453 1802.54C178.523 1804.84 181.662 1806.99 184.774 1809.18C187.908 1811.33 191.048 1813.46 194.226 1815.54C197.406 1817.62 200.596 1819.69 203.816 1821.71C207.034 1823.75 210.264 1825.77 213.472 1827.88C209.911 1826.46 206.408 1824.88 203.034 1823.06C199.631 1821.29 196.361 1819.28 193.131 1817.21C186.771 1812.94 180.6 1808.26 175.453 1802.54Z" fill="#6A6589"/>
<path d="M132.441 1724.55C133.287 1729.55 133.822 1734.59 134.269 1739.63C134.738 1744.68 134.963 1749.74 135.109 1754.8C135.214 1759.87 135.171 1764.95 134.815 1770.01C134.648 1772.54 134.373 1775.07 134.071 1777.59L133.389 1781.35C133.126 1782.59 132.775 1783.82 132.441 1785.04L132.866 1781.27L133.098 1777.5C133.199 1774.98 133.301 1772.47 133.281 1769.95C133.273 1764.92 133.265 1759.89 133.114 1754.85L132.743 1739.72L132.545 1732.15L132.441 1724.55Z" fill="#6A6589"/>
<path d="M133.743 1826.21C140.852 1809.56 256.126 1655.59 185.301 1478.66C114.474 1301.72 -8.81847 1464.89 58.9383 1567.75C126.697 1670.61 133.743 1826.21 133.743 1826.21Z" fill="#464072"/>
<path d="M133.651 1826.17C138.938 1808.82 142.866 1791.06 146.11 1773.22C149.336 1755.36 151.78 1737.37 153.418 1719.31C156.684 1683.18 156.889 1646.77 153.54 1610.67C150.08 1574.59 143.203 1538.82 132.275 1504.27C121.841 1469.55 106.499 1436.44 88.3145 1405.06L88.484 1404.95C97.8985 1420.46 107.008 1436.24 114.355 1452.88C118.373 1461.05 121.557 1469.57 125.095 1477.95C126.741 1482.19 128.215 1486.49 129.785 1490.76L132.105 1497.17C132.835 1499.32 133.484 1501.5 134.178 1503.67L138.17 1516.71L141.647 1529.91C142.876 1534.29 143.816 1538.74 144.801 1543.18L146.284 1549.83C146.8 1552.05 147.261 1554.27 147.644 1556.51C151.152 1574.37 153.452 1592.43 155.13 1610.52C158.29 1646.75 157.881 1683.24 154.409 1719.4C152.638 1737.48 150.058 1755.48 146.699 1773.33C143.319 1791.17 139.261 1808.9 133.841 1826.24L133.651 1826.17Z" fill="#6A6589"/>
<path d="M127.395 1486.45C129.256 1483.87 130.726 1481.06 131.863 1478.12C133.054 1475.2 134.006 1472.2 134.81 1469.15C136.398 1463.05 137.561 1456.84 138.445 1450.58C139.381 1444.33 140.009 1438.03 140.606 1431.72C140.905 1428.56 141.144 1425.4 141.35 1422.23C141.619 1419.07 141.779 1415.9 141.984 1412.72C142.425 1419.08 142.383 1425.45 142.138 1431.82C141.898 1438.18 141.318 1444.54 140.418 1450.87C139.476 1457.18 138.245 1463.48 136.274 1469.58C134.287 1475.62 131.798 1481.76 127.395 1486.45Z" fill="#6A6589"/>
<path d="M130.606 1495.66C126.758 1495.45 122.946 1494.85 119.139 1494.24C115.35 1493.53 111.576 1492.73 107.837 1491.78C100.362 1489.87 93.0103 1487.46 85.8262 1484.63C78.704 1481.66 71.6377 1478.51 64.9324 1474.69C61.5329 1472.87 58.281 1470.78 55.0072 1468.76C51.7733 1466.66 48.663 1464.38 45.5488 1462.13C52.1902 1466.02 58.7738 1469.95 65.6526 1473.33C72.4536 1476.85 79.4482 1479.98 86.5624 1482.78C93.6227 1485.74 100.913 1488.1 108.24 1490.31C115.582 1492.48 123.027 1494.34 130.606 1495.66Z" fill="#6A6589"/>
<path d="M41.0918 1478.89C44.9302 1481.19 48.8265 1483.37 52.7886 1485.43C56.7208 1487.54 60.7048 1489.55 64.7328 1491.47C72.7687 1495.33 80.8944 1499.01 89.1537 1502.37C97.3952 1505.78 105.72 1508.98 114.145 1511.93C122.54 1514.96 131.053 1517.65 139.558 1520.44C135.203 1519.43 130.858 1518.35 126.526 1517.22C122.239 1515.94 117.904 1514.8 113.655 1513.38C109.369 1512.08 105.15 1510.57 100.946 1509.02C96.7169 1507.54 92.5752 1505.83 88.3937 1504.21C80.1582 1500.68 71.9747 1497.01 64.0445 1492.83C56.1302 1488.64 48.3277 1484.18 41.0918 1478.89Z" fill="#6A6589"/>
<path d="M39.3164 1503.96C43.4481 1506.12 47.6037 1508.21 51.8152 1510.19C56.0087 1512.2 60.2282 1514.15 64.4856 1516.02C72.9883 1519.77 81.5709 1523.35 90.309 1526.49C94.6322 1528.2 99.0412 1529.65 103.418 1531.21C107.847 1532.6 112.254 1534.08 116.717 1535.37L123.402 1537.34L130.148 1539.11C134.616 1540.42 139.193 1541.26 143.708 1542.45C134.495 1541.07 125.308 1539.32 116.3 1536.85C107.263 1534.5 98.3829 1531.57 89.6128 1528.36C80.8866 1525.04 72.2482 1521.47 63.8452 1517.4C55.4421 1513.35 47.1728 1508.99 39.3164 1503.96Z" fill="#6A6589"/>
<path d="M46.3438 1542.45C54.2739 1547.71 62.5214 1552.43 70.9463 1556.78L77.3004 1559.97L83.7105 1563.04C88.0456 1564.95 92.3648 1566.9 96.7917 1568.59C101.143 1570.47 105.632 1571.98 110.075 1573.63C114.583 1575.07 119.068 1576.61 123.639 1577.87C125.921 1578.5 128.181 1579.23 130.484 1579.79L137.404 1581.45C141.997 1582.67 146.703 1583.33 151.353 1584.38C141.903 1583.32 132.455 1581.82 123.236 1579.35C113.971 1577.05 104.925 1573.93 96.0476 1570.44C87.2097 1566.83 78.5473 1562.79 70.2241 1558.12C66.0645 1555.79 61.9747 1553.33 57.9548 1550.77C53.9967 1548.12 50.0425 1545.45 46.3438 1542.45Z" fill="#6A6589"/>
<path d="M65.0156 1577.38C68.2136 1580.4 71.4914 1583.33 74.9129 1586.08C76.5907 1587.5 78.3323 1588.83 80.0381 1590.21L85.303 1594.15C92.4012 1599.29 99.7688 1604.05 107.476 1608.19C109.409 1609.21 111.276 1610.36 113.257 1611.29L119.162 1614.15C121.137 1615.09 123.19 1615.85 125.201 1616.71C127.216 1617.56 129.237 1618.4 131.312 1619.09L137.501 1621.3L143.829 1623.07L146.991 1623.99L150.209 1624.67C152.357 1625.11 154.508 1625.59 156.659 1626.08C147.935 1625.03 139.162 1623.49 130.809 1620.54C122.408 1617.78 114.273 1614.19 106.518 1609.94C98.8072 1605.61 91.3439 1600.82 84.3832 1595.37C77.4426 1589.91 70.8271 1584.01 65.0156 1577.38Z" fill="#6A6589"/>
<path d="M132.441 1503.96C134.253 1501.51 136.076 1499.09 137.772 1496.57C139.528 1494.11 141.225 1491.6 142.865 1489.06C146.139 1483.97 149.287 1478.81 152.18 1473.51C155.125 1468.24 157.66 1462.77 160.062 1457.23C161.186 1454.43 162.331 1451.63 163.213 1448.74C164.326 1445.91 164.926 1442.95 165.846 1440.04C165.046 1446.07 163.562 1452.03 161.493 1457.78C159.4 1463.53 156.87 1469.11 153.93 1474.47C150.959 1479.81 147.727 1485 144.124 1489.92C140.531 1494.85 136.717 1499.62 132.441 1503.96Z" fill="#6A6589"/>
<path d="M141.992 1531.62C145.835 1526.48 149.46 1521.2 152.915 1515.83C156.346 1510.44 159.694 1505 162.77 1499.41C165.902 1493.84 168.835 1488.17 171.584 1482.41C174.407 1476.67 176.815 1470.75 179.343 1464.84C178.441 1467.91 177.545 1471.01 176.476 1474.04C175.377 1477.06 174.256 1480.08 172.985 1483.03C170.545 1488.99 167.63 1494.75 164.51 1500.38C161.364 1506 157.94 1511.46 154.18 1516.69C152.304 1519.3 150.361 1521.86 148.37 1524.39C146.299 1526.85 144.255 1529.33 141.992 1531.62Z" fill="#6A6589"/>
<path d="M147.576 1561.17C149.659 1558.6 151.77 1556.07 153.777 1553.44C155.842 1550.87 157.862 1548.26 159.846 1545.63C163.804 1540.36 167.704 1535.05 171.427 1529.62C175.205 1524.23 178.688 1518.65 182.132 1513.04C183.806 1510.21 185.486 1507.37 186.996 1504.45C188.68 1501.6 189.996 1498.58 191.568 1495.66C189.352 1501.89 186.613 1507.96 183.467 1513.8C180.312 1519.63 176.837 1525.3 173.069 1530.75C169.276 1536.19 165.306 1541.51 161.041 1546.58C156.787 1551.66 152.368 1556.6 147.576 1561.17Z" fill="#6A6589"/>
<path d="M152.881 1596.2L159.883 1589.67C162.22 1587.5 164.538 1585.32 166.822 1583.1C171.399 1578.67 175.919 1574.19 180.286 1569.58C184.701 1565.01 188.889 1560.23 192.837 1555.28C194.858 1552.83 196.64 1550.21 198.397 1547.57L200.859 1543.5C201.513 1542.06 202.194 1540.62 202.896 1539.18C201.25 1545.41 197.735 1550.96 194.066 1556.2C190.351 1561.44 186.148 1566.32 181.731 1570.95C177.29 1575.57 172.701 1580.04 167.855 1584.22C163.031 1588.42 158.094 1592.5 152.881 1596.2Z" fill="#6A6589"/>
<path d="M156.658 1626.08C158.942 1624.17 161.259 1622.32 163.505 1620.38C165.793 1618.5 168.062 1616.6 170.3 1614.65C174.777 1610.78 179.242 1606.9 183.597 1602.9C187.958 1598.91 192.185 1594.79 196.363 1590.6C198.388 1588.46 200.483 1586.36 202.398 1584.11C204.455 1581.97 206.252 1579.62 208.217 1577.38C205.089 1582.44 201.394 1587.14 197.488 1591.65C193.54 1596.11 189.309 1600.32 184.946 1604.37C180.525 1608.36 175.994 1612.23 171.264 1615.84C166.546 1619.46 161.726 1622.96 156.658 1626.08Z" fill="#6A6589"/>
<path d="M61.6836 1428.27L68.5584 1432.4L75.3854 1436.58C79.9579 1439.33 84.4807 1442.16 89.0692 1444.86C93.6378 1447.6 98.2323 1450.3 102.873 1452.91C105.185 1454.22 107.527 1455.5 109.899 1456.7C111.082 1457.31 112.251 1457.97 113.45 1458.54C114.659 1459.11 115.86 1459.69 117.059 1460.3C111.916 1458.77 106.99 1456.59 102.161 1454.27C97.3146 1451.96 92.6623 1449.29 88.0458 1446.57C83.4572 1443.81 78.9425 1440.93 74.5535 1437.86C70.1584 1434.81 65.8173 1431.68 61.6836 1428.27Z" fill="#6A6589"/>
<path d="M120.124 1401.55C119.859 1408.37 118.401 1415.08 116.378 1421.59C115.344 1424.83 114.137 1428.03 112.699 1431.13C111.322 1434.25 109.581 1437.21 107.695 1440.04C108.894 1436.84 110.139 1433.72 111.258 1430.54C112.384 1427.37 113.491 1424.2 114.476 1420.98C116.533 1414.58 118.311 1408.11 120.124 1401.55Z" fill="#6A6589"/>
<path d="M86.6562 1619.49C89.2438 1621.77 91.8253 1624.05 94.5086 1626.2C97.14 1628.42 99.8174 1630.57 102.553 1632.65C108.015 1636.81 113.561 1640.85 119.327 1644.55C125.1 1648.24 131.061 1651.61 137.22 1654.6C140.356 1655.95 143.45 1657.46 146.72 1658.49C149.906 1659.8 153.262 1660.51 156.584 1661.49C149.721 1660.64 143.027 1658.62 136.597 1656.01C130.197 1653.3 124.113 1649.92 118.247 1646.23C112.442 1642.45 106.866 1638.32 101.591 1633.84C96.3221 1629.36 91.2388 1624.66 86.6562 1619.49Z" fill="#6A6589"/>
<path d="M206.967 1626.07C203.661 1631.17 200.026 1636.04 196.289 1640.83C192.566 1645.63 188.608 1650.24 184.515 1654.74C180.397 1659.21 176.136 1663.57 171.517 1667.54C166.917 1671.52 162.107 1675.36 156.658 1678.1C157.877 1677.19 159.096 1676.29 160.323 1675.42L163.806 1672.52C166.085 1670.55 168.351 1668.56 170.478 1666.41C174.803 1662.22 178.986 1657.86 183.044 1653.39C187.148 1648.96 191.124 1644.4 195.11 1639.85L206.967 1626.07Z" fill="#6A6589"/>
<path d="M100.846 1656.26L113.558 1668.17C117.825 1672.09 122.091 1676.01 126.464 1679.8C130.795 1683.64 135.254 1687.32 139.832 1690.84C142.095 1692.64 144.481 1694.27 146.879 1695.88L150.544 1698.2C151.826 1698.86 153.103 1699.54 154.384 1700.25C148.81 1698.46 143.768 1695.34 138.935 1692.08C134.087 1688.82 129.544 1685.13 125.151 1681.3C120.778 1677.45 116.521 1673.46 112.491 1669.26C108.443 1665.08 104.491 1660.8 100.846 1656.26Z" fill="#6A6589"/>
<path d="M154.385 1714.24C158.421 1712.76 162.319 1711.04 166.103 1709.11C169.876 1707.15 173.573 1705.07 177.078 1702.69C180.621 1700.37 184.011 1697.82 187.237 1695.06C190.532 1692.37 193.471 1689.29 196.524 1686.25C195.295 1688.01 194.068 1689.8 192.681 1691.45C191.269 1693.08 189.84 1694.7 188.272 1696.2C185.226 1699.28 181.776 1701.94 178.177 1704.35C174.564 1706.74 170.748 1708.84 166.748 1710.49C164.751 1711.32 162.724 1712.07 160.675 1712.75C158.594 1713.33 156.519 1713.94 154.385 1714.24Z" fill="#6A6589"/>
<path d="M114.895 1704.6C114.578 1704.99 115.096 1705.41 115.348 1705.73C115.651 1706.07 115.992 1706.39 116.345 1706.69C117.044 1707.3 117.788 1707.87 118.546 1708.41C120.04 1709.52 121.59 1710.56 123.146 1711.58C126.277 1713.6 129.465 1715.52 132.74 1717.29C139.274 1720.85 146.041 1723.92 153.233 1726.2C145.68 1725.47 138.44 1722.62 131.785 1719.04C128.463 1717.2 125.255 1715.17 122.249 1712.85C120.742 1711.7 119.292 1710.47 117.917 1709.15C117.239 1708.48 116.581 1707.8 115.968 1707.06C115.661 1706.69 115.364 1706.32 115.106 1705.91C114.975 1705.71 114.871 1705.48 114.781 1705.26C114.713 1705.05 114.63 1704.71 114.895 1704.6Z" fill="#6A6589"/>
<path d="M179.342 1738.07C175.859 1744.92 171.168 1751.1 165.872 1756.68C163.168 1759.42 160.28 1762 157.171 1764.29C154.035 1766.54 150.634 1768.44 147.053 1769.81C150.291 1767.74 153.303 1765.47 156.21 1763.06C159.055 1760.58 161.814 1758.01 164.439 1755.29C167.069 1752.58 169.586 1749.75 172.064 1746.88C174.516 1743.99 176.966 1741.08 179.342 1738.07Z" fill="#6A6589"/>
<path d="M-32.3672 1419.62C-32.3672 1419.62 -28.2475 1601.56 -25.2869 1668.66C-22.3263 1735.75 -30.2644 1788.49 -38.5936 1830.31C-46.9228 1872.13 -21.8934 1899.64 9.24288 1884.31C40.3811 1868.99 -4.6145 1802.86 -7.40952 1770.72C-10.2045 1738.59 -27.9123 1461.22 -23.7707 1432.63L-32.3672 1419.62Z" fill="#120F26"/>
<path d="M144.156 1113.59L153.804 1103.56C153.804 1103.56 168.132 1112.6 161.86 1127.01C155.586 1141.42 135.504 1162.3 135.424 1174.91C135.342 1187.53 138.806 1201.86 134.195 1216.37C129.587 1230.88 83.7093 1256.33 77.5566 1269.84L144.156 1113.59Z" fill="#6A6589"/>
<path d="M-32.2815 1459.99C-32.2815 1459.99 29.1251 1407.03 44.1975 1367.15C44.1975 1367.15 27.1141 1371.38 15.164 1369.38C3.21384 1367.38 -16.0121 1367.23 -16.0121 1367.23C-16.0121 1367.23 -5.49243 1364.54 7.99588 1365.78C21.4822 1367.01 54.6673 1363.49 61.2908 1355.99C67.9142 1348.48 92.5906 1312.03 84.9417 1285.98C84.9417 1285.98 69.4763 1292.99 50.7711 1283.13C32.0638 1273.28 14.4438 1269.95 14.4438 1269.95C14.4438 1269.95 20.1815 1269.97 33.7975 1273.75C47.4135 1277.54 76.5028 1286.03 83.9442 1268.11C91.3896 1250.18 127.296 1238.97 126.711 1218.09C126.129 1197.22 133.369 1189.06 142.131 1175.88C150.895 1162.71 140.447 1161.42 152.766 1137.58C165.086 1113.74 157.427 1102.53 157.427 1102.53C157.427 1102.53 148.76 1096.44 51.3117 1204.52C-46.1389 1312.6 -32.2815 1459.99 -32.2815 1459.99Z" fill="#162117"/>
<path d="M119.99 1233.78C115.915 1234.78 111.711 1235.17 107.52 1235.31C103.322 1235.47 99.1107 1235.29 94.9331 1234.81C90.7655 1234.3 86.6039 1233.63 82.554 1232.51C80.5171 1232 78.5221 1231.34 76.5251 1230.71C74.548 1230.01 72.6008 1229.23 70.6816 1228.41C74.7734 1229.31 78.7934 1230.33 82.8812 1231.04C86.953 1231.81 91.0468 1232.41 95.1525 1232.87C99.2563 1233.39 103.386 1233.61 107.522 1233.82C111.663 1233.98 115.813 1233.98 119.99 1233.78Z" fill="#6A6589"/>
<path d="M94.9649 1254.7C90.8172 1255.56 86.5978 1256 82.3743 1256.27C78.1489 1256.57 73.9095 1256.56 69.6761 1256.41C65.4446 1256.23 61.2132 1255.87 57.0276 1255.19C52.8361 1254.59 48.6925 1253.64 44.6426 1252.42C46.7613 1252.58 48.8261 1252.96 50.9348 1253.1C53.0216 1253.35 55.1084 1253.56 57.2052 1253.7C61.3868 1254.02 65.5663 1254.32 69.7559 1254.46C73.9414 1254.65 78.1329 1254.72 82.3324 1254.78C84.4332 1254.8 86.536 1254.8 88.6387 1254.76C90.7454 1254.79 92.8482 1254.72 94.9649 1254.7Z" fill="#6A6589"/>
<path d="M83.7832 1169.18C91.3982 1168.15 99.055 1167.84 106.714 1167.85C110.544 1167.89 114.375 1168 118.199 1168.32C122.022 1168.62 125.85 1169.1 129.593 1169.97C125.758 1169.85 121.946 1169.89 118.135 1169.85L106.702 1169.81C99.075 1169.73 91.4461 1169.68 83.7832 1169.18Z" fill="#6A6589"/>
<path d="M72.3983 1339.72C67.6162 1341.69 62.6386 1343.14 57.6152 1344.37C52.5957 1345.63 47.4805 1346.49 42.3433 1347.14C37.2022 1347.77 32.0231 1348.12 26.842 1348.06C21.663 1348.09 16.4879 1347.61 11.3906 1346.81C13.9822 1346.74 16.5418 1346.94 19.1173 1346.79L22.9657 1346.75L26.8061 1346.55C31.9214 1346.26 37.0286 1345.87 42.1059 1345.2C47.1932 1344.61 52.2546 1343.81 57.306 1342.91C59.8316 1342.46 62.3494 1341.96 64.8611 1341.41C67.3848 1340.91 69.8845 1340.31 72.3983 1339.72Z" fill="#6A6589"/>
<path d="M80.5908 1323.93C73.6601 1325.95 66.5778 1327.41 59.4636 1328.63C52.3413 1329.84 45.1513 1330.62 37.9493 1331.23C30.7353 1331.69 23.4914 1331.84 16.2655 1331.55C9.03952 1331.2 1.8375 1330.32 -5.21289 1328.8C-1.60789 1329.06 1.94322 1329.6 5.54822 1329.67C9.12728 1329.96 12.7203 1329.98 16.3054 1330.04C23.4794 1330.02 30.6555 1329.89 37.8117 1329.28C44.9738 1328.83 52.1119 1328.03 59.2441 1327.15C62.8092 1326.71 66.3703 1326.21 69.9254 1325.65C73.4925 1325.17 77.0337 1324.53 80.5908 1323.93Z" fill="#6A6589"/>
<path d="M85.315 1307.3C79.9723 1308.96 74.5299 1310.23 69.0636 1311.38C63.5972 1312.55 58.079 1313.46 52.5309 1314.17C46.9787 1314.85 41.3987 1315.41 35.7907 1315.45C30.1947 1315.52 24.5488 1315.35 19.0645 1314.2C20.465 1314.24 21.8575 1314.29 23.242 1314.37C24.6326 1314.4 26.0251 1314.34 27.4116 1314.34C28.7962 1314.37 30.1847 1314.26 31.5712 1314.21C32.9558 1314.16 34.3403 1314.09 35.7228 1313.95C41.257 1313.56 46.7772 1312.95 52.2835 1312.24C57.7977 1311.57 63.292 1310.72 68.7982 1309.91L85.315 1307.3Z" fill="#6A6589"/>
<path d="M25.8758 1398.49C19.3181 1401.33 12.2438 1402.86 5.11562 1403.52C1.54653 1403.83 -2.05846 1403.82 -5.63154 1403.51C-9.20861 1403.22 -12.7398 1402.41 -16.1094 1401.27C-12.5602 1401.67 -9.06297 1401.95 -5.55174 1401.99C-2.04449 1401.98 1.45874 1401.91 4.95201 1401.57C8.44728 1401.29 11.9326 1400.84 15.4179 1400.33C18.8972 1399.78 22.3845 1399.2 25.8758 1398.49Z" fill="#6A6589"/>
<path d="M822.635 1834.25C820.875 1824.84 649.409 1611.36 483.762 1672.68C347.58 1723.09 452.678 1835.33 559.769 1814.79C654.393 1796.63 822.635 1834.25 822.635 1834.25Z" fill="#464072"/>
<path d="M421.125 1724.26C438.626 1719.9 456.541 1717.47 474.486 1715.85C492.443 1714.25 510.503 1713.85 528.524 1714.38C546.549 1714.95 564.542 1716.54 582.397 1719.13C600.246 1721.76 617.921 1725.52 635.348 1730.18C652.813 1734.74 669.896 1740.68 686.655 1747.35L699.148 1752.56L711.409 1758.29C713.443 1759.27 715.515 1760.16 717.521 1761.2L723.518 1764.33C727.506 1766.44 731.546 1768.46 735.492 1770.64L747.151 1777.51C749.081 1778.67 751.057 1779.76 752.954 1780.98L758.62 1784.67L769.949 1792.06L780.923 1799.96C788.352 1805.07 795.24 1810.9 802.337 1816.44C805.911 1819.18 809.171 1822.31 812.579 1825.25L822.702 1834.18L822.57 1834.33L812.219 1825.67C808.737 1822.82 805.405 1819.79 801.763 1817.15C794.592 1811.72 787.656 1805.99 780.175 1800.99L769.13 1793.27L757.742 1786.05L752.049 1782.45C750.143 1781.26 748.161 1780.2 746.219 1779.07L734.52 1772.38C730.592 1770.21 726.574 1768.2 722.602 1766.1L716.633 1762.98C714.637 1761.95 712.573 1761.05 710.549 1760.08L698.342 1754.37L685.907 1749.18C669.268 1742.42 652.295 1736.39 634.926 1731.72C617.587 1726.98 599.988 1723.14 582.203 1720.41C564.414 1717.73 546.475 1716.04 528.492 1715.38C510.509 1714.71 492.481 1714.99 474.534 1716.44C456.607 1717.93 438.682 1720.23 421.179 1724.45L421.125 1724.26Z" fill="#6A6589"/>
<path d="M422.471 1755.39C424.287 1753.93 426.098 1752.48 427.846 1750.95C429.632 1749.47 431.386 1747.95 433.114 1746.41C436.572 1743.33 440.014 1740.24 443.391 1737.07C446.779 1733.92 450.107 1730.7 453.451 1727.48C456.795 1724.27 460.054 1720.97 463.454 1717.77C462.07 1719.64 460.6 1721.45 459.152 1723.28C457.625 1725.04 456.129 1726.83 454.559 1728.55C451.457 1732.03 448.141 1735.32 444.757 1738.53C441.32 1741.68 437.808 1744.76 434.092 1747.59C430.382 1750.42 426.578 1753.16 422.471 1755.39Z" fill="#6A6589"/>
</g>
<mask id="mask1_1114_10059" style="mask-type:alpha" maskUnits="userSpaceOnUse" x="-304" y="1483" width="1500" height="381">
<rect x="-304" y="1483.5" width="1499.26" height="380.051" fill="#D9D9D9"/>
</mask>
<g mask="url(#mask1_1114_10059)">
<path d="M40.4642 1675.74C37.4373 1678.55 34.542 1681.44 31.7846 1684.38C24.5463 1692.05 18.1421 1700.11 12.4793 1708.38C8.21937 1714.59 4.38916 1720.91 0.920493 1727.24C-4.29047 1736.79 -8.61604 1746.37 -12.2206 1755.67C-17.5748 1769.48 -21.1713 1783.42 -22.9214 1797.33C-23.805 1804.28 -24.2271 1811.24 -24.1748 1818.15C-24.137 1821.4 -23.8865 1824.73 -24.0069 1828.06L-58.8398 1836.61C-59.1214 1834.67 -59.2475 1832.83 -59.3702 1831.25C-61.0078 1810.88 -50.7485 1790.93 -38.6373 1771.26C-37.219 1768.98 -35.7815 1766.69 -34.3438 1764.41C-29.6242 1756.98 -24.5932 1749.61 -19.2416 1742.3C-14.0294 1735.17 -8.50159 1728.1 -2.64765 1721.11C0.534531 1717.25 3.84542 1713.41 7.24308 1709.59C14.698 1701.23 22.5733 1692.98 30.8758 1684.88L31.331 1684.43C34.3206 1681.52 37.3669 1678.62 40.4642 1675.74Z" fill="#162117"/>
<path d="M152.6 1833.39C152.6 1833.39 293.682 1829.4 343.546 1810.32C343.546 1810.32 299.63 1799.2 240.535 1803.25C181.439 1807.31 132.751 1818.78 132.751 1818.78C132.751 1818.78 214.098 1808.41 247.839 1779.65C281.579 1750.9 283.589 1699.26 283.589 1699.26C283.589 1699.26 231.753 1753.53 196.099 1768.17C160.444 1782.82 135.066 1788.76 135.066 1788.76C135.066 1788.76 178.906 1720.59 255.237 1708.28C255.237 1708.28 199.502 1708.07 161.709 1728.02C123.912 1747.97 89.9778 1789.26 89.9778 1789.26C89.9778 1789.26 149.171 1724.12 144.815 1662.32C140.458 1600.51 119.939 1591.84 119.939 1591.84C119.939 1591.84 120.336 1667.89 96.6585 1702.61C72.9837 1737.33 40.3816 1787.48 40.3816 1787.48C40.3816 1787.48 21.2694 1738.7 61.0416 1708.55C100.814 1678.4 100.814 1678.4 100.814 1678.4C100.814 1678.4 9.00557 1694.57 1.61798 1756.81C1.61798 1756.81 -22.4837 1722.77 -52.4967 1720.36C-52.4967 1720.36 -20.2055 1763.06 -16.2156 1790.97C-16.2156 1790.97 -44.2655 1764.62 -103.353 1759.11C-103.353 1759.11 -30.2468 1795.53 -23.3638 1811.44C-23.3638 1811.44 -98.626 1796.41 -143.872 1805.36L-16.4787 1827.34L152.6 1833.39Z" fill="#162117"/>
<path d="M273.121 1795.08L233.13 1817.96C230.961 1815.68 230.203 1813.07 230.156 1810.82C230.149 1810.73 230.141 1810.64 230.146 1810.55C230.15 1808.21 230.381 1805.88 230.844 1803.56C231.775 1798.64 233.706 1793.76 236.449 1788.96C241.118 1780.76 248.161 1772.76 256.872 1765.07C260.923 1761.48 265.349 1757.96 270.03 1754.52C270.13 1754.45 270.218 1754.38 270.318 1754.31C293.958 1737.05 324.593 1721.51 355.072 1706.07C337.625 1715.44 323.598 1725.77 312.379 1736.55C303.779 1744.8 296.815 1753.28 290.966 1761.9C289.45 1764.11 288.011 1766.34 286.664 1768.58C281.499 1776.99 277.295 1785.5 273.578 1794.03C273.429 1794.38 273.271 1794.73 273.121 1795.08Z" fill="#162117"/>
<path d="M289.353 1791.91C296.749 1784.72 299.102 1773.94 305.519 1766.6L305.507 1766.59C319.472 1750.64 331.088 1734.36 340.299 1717.86C332.039 1728.42 322.219 1738.78 310.945 1748.89C305.644 1753.63 300.03 1758.32 294.085 1762.94C291.673 1764.83 289.191 1766.71 286.661 1768.58C276.315 1776.23 265.111 1783.69 253.069 1790.92C250.361 1792.56 247.617 1794.18 244.81 1795.79C242.301 1797.23 239.763 1798.67 237.192 1800.09C235.094 1801.25 232.976 1802.41 230.841 1803.56C227.826 1805.18 224.763 1806.79 221.65 1808.38C219.462 1809.51 217.25 1810.63 215.027 1811.74C207.702 1815.39 200.164 1818.97 192.386 1822.47C191.949 1822.68 191.488 1822.88 191.04 1823.08C183.421 1826.5 175.589 1829.85 167.547 1833.11L177.834 1836.01L186.146 1838.36L187.605 1838.77C191.572 1838.1 195.324 1837.16 198.898 1836.18C200.513 1835.74 202.102 1835.29 203.663 1834.83L233.127 1817.96L240.167 1813.94L240.401 1813.8L282.621 1804.64L289.353 1791.91Z" fill="#162117"/>
<path d="M186.148 1838.36L130.743 1822.73C131.115 1822.48 131.479 1822.23 131.832 1821.97C133.577 1820.72 135.301 1819.47 137.01 1818.21C140.098 1815.94 143.136 1813.66 146.103 1811.36C153.181 1805.89 159.91 1800.35 166.285 1794.74C170.267 1791.25 174.102 1787.74 177.786 1784.19C184.689 1777.6 191.115 1770.93 197.028 1764.18C201.922 1758.61 206.484 1752.99 210.694 1747.32C212.805 1744.49 214.824 1741.65 216.767 1738.8C217.61 1737.55 218.442 1736.3 219.244 1735.06C219.349 1734.9 219.445 1734.75 219.55 1734.6C220.208 1733.59 222.718 1731.38 222.2 1730.39C223.397 1732.74 224.469 1735.1 225.404 1737.47C227.379 1742.37 228.811 1747.31 229.698 1752.26C230.276 1755.39 230.628 1758.52 230.776 1761.65C231.192 1770.16 230.046 1778.68 227.373 1787.13C227.273 1787.42 227.176 1787.72 227.08 1788.01C224.935 1794.52 221.876 1800.97 217.916 1807.34C216.999 1808.81 216.048 1810.28 215.028 1811.74C212.522 1815.37 209.729 1818.96 206.629 1822.5C201.698 1828.14 195.672 1833.88 186.148 1838.36Z" fill="#162117"/>
<path d="M240.169 1813.94L193.749 1840.5L177.835 1836.01C182.175 1831.63 187.248 1827.36 191.81 1823.02C191.999 1822.84 192.197 1822.65 192.387 1822.47C198.425 1816.73 204.32 1810.96 210.044 1805.17C215.712 1799.46 221.225 1793.73 226.587 1787.97C226.852 1787.69 227.107 1787.41 227.372 1787.13C236.489 1777.33 245.189 1767.46 253.436 1757.53C255.385 1755.19 257.309 1752.84 259.212 1750.5L259.2 1750.49C267.422 1740.34 275.2 1730.13 282.511 1719.86C276.003 1730.59 269.481 1741.34 263.594 1752.14C261.232 1756.44 258.978 1760.75 256.871 1765.07C252.811 1773.37 249.272 1781.71 246.55 1790.1C245.933 1791.99 245.341 1793.89 244.811 1795.79C244.569 1796.64 244.349 1797.49 244.127 1798.34C242.806 1803.45 241.78 1808.63 240.231 1813.75L240.169 1813.94Z" fill="#162117"/>
<path d="M156.332 1829.95L124.406 1820.94C128.957 1819.07 134.247 1817.34 138.386 1815.49C139.142 1815.15 139.864 1814.81 140.529 1814.46C142.465 1813.44 144.318 1812.42 146.105 1811.36C150.387 1808.85 154.325 1806.24 158.243 1803.63C162.257 1800.94 166.292 1798.26 170.289 1795.56C175.633 1791.98 180.94 1788.39 186.185 1784.78C201.657 1774.13 216.52 1763.36 229.7 1752.26C233.281 1749.25 236.733 1746.22 240.046 1743.16C243.694 1739.78 247.173 1736.37 250.448 1732.92C248.234 1736.77 245.864 1740.61 243.324 1744.43C239.507 1750.21 235.33 1755.95 230.778 1761.65C224.142 1770.01 216.723 1778.28 208.549 1786.43C203.712 1791.27 198.608 1796.06 193.257 1800.81C182.055 1810.74 169.743 1820.47 156.332 1829.95Z" fill="#162117"/>
<path d="M468.927 1774.97C467.742 1766.23 459.296 1756.97 457.22 1748.55L457.208 1748.55C452.708 1730.23 446.102 1712.7 437.457 1696.06C441.187 1707.75 443.542 1719.98 444.543 1732.66C445.002 1738.61 445.175 1744.66 445.026 1750.8C444.985 1753.3 444.879 1755.83 444.722 1758.37C444.096 1768.76 442.636 1779.39 440.325 1790.21C439.812 1792.65 439.26 1795.1 438.645 1797.56C438.105 1799.77 437.529 1801.98 436.926 1804.2C436.426 1806.01 435.912 1807.83 435.375 1809.64C434.615 1812.21 433.804 1814.78 432.943 1817.37C432.344 1819.19 431.72 1821.02 431.084 1822.85C428.961 1828.86 426.613 1834.91 424.004 1841C423.868 1841.36 423.707 1841.71 423.56 1842.07C420.995 1848.03 418.204 1854.04 415.169 1860.07L425.769 1857.75L434.335 1855.87L435.838 1855.54C438.229 1853.29 440.195 1850.91 441.993 1848.59C442.804 1847.54 443.59 1846.5 444.34 1845.46L450.797 1819.62L452.34 1813.45L452.391 1813.24L504.765 1820.44L468.927 1774.97Z" fill="#162117"/>
<path d="M434.331 1855.87L377.238 1868.36C377.279 1868.01 377.319 1867.66 377.347 1867.31C377.491 1865.58 377.62 1863.87 377.726 1862.16C377.925 1859.07 378.073 1855.99 378.156 1852.93C378.355 1845.63 378.228 1838.45 377.764 1831.36C377.483 1826.94 377.07 1822.57 376.515 1818.25C375.521 1810.18 374.084 1802.26 372.186 1794.51C370.623 1788.1 368.768 1781.81 366.597 1775.63C365.517 1772.54 364.358 1769.48 363.133 1766.45C362.591 1765.13 362.037 1763.81 361.467 1762.51C361.401 1762.35 361.332 1762.19 361.266 1762.03C360.813 1760.97 360.627 1758.18 359.29 1757.65C362.437 1758.91 365.497 1760.24 368.457 1761.64C374.619 1764.5 380.404 1767.64 385.781 1771.03C389.191 1773.15 392.431 1775.39 395.517 1777.71C403.915 1784.01 411.134 1791.02 417.123 1798.64C417.32 1798.91 417.528 1799.17 417.735 1799.44C422.279 1805.35 426.075 1811.62 429.097 1818.21C429.801 1819.75 430.468 1821.28 431.08 1822.85C432.61 1826.72 433.888 1830.68 434.889 1834.75C436.485 1841.23 437.343 1848.26 434.331 1855.87Z" fill="#162117"/>
<path d="M454.857 1813.44L444.685 1854.15L428.286 1857.74C427.437 1852.49 427.245 1846.99 426.604 1841.68C426.575 1841.45 426.549 1841.22 426.521 1841C425.676 1833.97 424.69 1826.97 423.557 1820.03C422.461 1813.18 421.222 1806.38 419.84 1799.62C419.779 1799.3 419.706 1798.97 419.644 1798.64C417.285 1787.15 414.546 1775.79 411.41 1764.58C410.673 1761.94 409.911 1759.3 409.134 1756.67L409.121 1756.68C405.751 1745.31 401.984 1734.1 397.807 1723.04C403.035 1734.1 408.271 1745.17 414.033 1755.99C416.321 1760.32 418.692 1764.6 421.185 1768.82C425.975 1776.94 431.198 1784.86 437.087 1792.45C438.414 1794.17 439.766 1795.88 441.162 1797.56C441.786 1798.31 442.424 1799.06 443.061 1799.8C446.91 1804.28 451.042 1808.68 454.731 1813.28L454.857 1813.44Z" fill="#162117"/>
<path d="M403.614 1862.59L370.715 1869.79C372.408 1866.36 374.801 1862.71 376.195 1859.48C376.45 1858.88 376.678 1858.31 376.854 1857.75C377.368 1856.12 377.803 1854.52 378.165 1852.93C379.044 1849.13 379.569 1845.4 380.079 1841.68C380.591 1837.87 381.117 1834.04 381.605 1830.22C382.278 1825.14 382.914 1820.06 383.486 1815C385.176 1800.06 386.274 1785.29 385.79 1771.03C385.66 1767.15 385.412 1763.32 385.033 1759.52C384.609 1755.34 384.019 1751.2 383.244 1747.13C385.216 1751.05 387.054 1755.02 388.746 1759.05C391.321 1765.14 393.589 1771.36 395.526 1777.71C398.409 1787.01 400.603 1796.59 402.105 1806.4C403.014 1812.22 403.676 1818.13 404.105 1824.11C404.993 1836.62 404.841 1849.46 403.614 1862.59Z" fill="#162117"/>
<path d="M134.248 1823.72L106.907 1816.01C110.055 1812.64 113.319 1809.3 116.85 1806C122.793 1800.44 129.543 1794.98 136.419 1789.53C139.648 1786.97 142.898 1784.41 146.107 1781.85C162.946 1768.42 178.541 1754.88 182.589 1740.06C181.652 1750.89 177.414 1761.67 169.974 1772.09C167.339 1775.77 164.319 1779.4 161.218 1783.02C158.576 1786.11 155.869 1789.2 153.318 1792.31C151.22 1794.83 149.236 1797.35 147.437 1799.91C143.825 1805.05 141.04 1810.26 138.382 1815.49C137.917 1816.39 137.463 1817.3 137.009 1818.21C136.089 1820.04 135.18 1821.88 134.248 1823.72Z" fill="#162117"/>
<path d="M-46.4824 1833.28H3.5501C2.20514 1830.22 -0.177416 1827.09 -1.11889 1824.16C-1.29181 1823.63 -1.42629 1823.1 -1.48393 1822.58C-1.65685 1821.07 -1.71448 1819.56 -1.65684 1818.05C-1.54155 1814.44 -0.888287 1810.84 -0.215806 1807.23C0.495102 1803.53 1.18683 1799.82 1.93617 1796.12C2.89685 1791.18 3.91511 1786.25 5.0295 1781.31C8.31505 1766.76 12.4845 1752.24 18.9979 1737.88C20.7656 1733.98 22.7061 1730.09 24.8389 1726.22C27.2022 1721.95 29.8152 1717.68 32.6973 1713.44C27.9515 1717.79 23.3978 1722.16 19.0555 1726.56C12.4652 1733.21 6.31686 1739.92 0.648811 1746.68C-7.72837 1756.61 -15.1065 1766.66 -21.4662 1776.79C-25.2705 1782.81 -28.7097 1788.86 -31.8032 1794.93C-38.259 1807.62 -43.1777 1820.42 -46.4824 1833.28Z" fill="#162117"/>
<path d="M-101.334 1827.81H-58.4872C-55.6243 1823.69 -52.9152 1819.55 -50.5711 1815.39C-46.6131 1808.37 -43.6734 1801.23 -40.9066 1794.07C-39.6001 1790.7 -38.3127 1787.33 -36.9869 1783.97C-30.0316 1766.34 -21.5584 1748.94 1.38281 1733.46C-17.5043 1744.22 -32.8368 1755.84 -44.1345 1767.97C-48.1117 1772.26 -51.6086 1776.61 -54.9902 1780.97C-57.8915 1784.69 -60.7159 1788.43 -63.7325 1792.13C-66.1534 1795.15 -68.7088 1798.15 -71.514 1801.12C-77.1437 1807.09 -83.7724 1812.9 -90.5741 1818.7C-91.7461 1819.7 -92.9374 1820.71 -94.1286 1821.72C-96.5304 1823.75 -98.9513 1825.78 -101.334 1827.81Z" fill="#162117"/>
<path d="M447.918 1829.6C447.918 1829.6 439.977 1805.37 416.28 1767.35C393.426 1730.68 413.325 1703.44 413.325 1703.44C413.325 1703.44 436.612 1749.29 455.26 1776.06C469.231 1796.11 485.804 1816.22 485.804 1816.22C485.804 1816.22 475.107 1775.3 462.139 1740.08C462.139 1740.08 495.196 1761.45 497.788 1783.24C500.382 1805.03 508.719 1827.86 508.719 1827.86L447.918 1829.6Z" fill="#162117"/>
<path d="M533.269 1602.38C535.86 1621.08 536.969 1639.84 537.614 1658.63C538.2 1674.77 538.444 1690.92 539.054 1707.07C539.284 1713.34 539.587 1719.59 539.982 1725.85C540.216 1729.81 540.5 1733.76 540.824 1737.72C541.126 1741.29 541.474 1744.87 541.857 1748.44C541.919 1748.99 541.971 1749.54 542.033 1750.1C543.845 1766.46 546.74 1782.77 551.287 1798.88C551.482 1799.59 551.698 1800.31 551.916 1801.03C555.796 1814.43 560.864 1827.67 567.448 1840.56C570.918 1847.37 574.833 1854.07 579.203 1860.62C580.739 1862.94 582.561 1865.24 584.247 1867.56L560.086 1879.98L538.288 1860.3C535.975 1851.74 533.884 1843.15 532.032 1834.53C527.929 1815.69 524.859 1796.74 522.838 1777.74C521.829 1768.44 521.084 1759.14 520.574 1749.83C520.064 1740.46 519.805 1731.08 519.802 1721.7C519.79 1719.53 519.813 1717.35 519.847 1715.18C519.852 1713.62 519.878 1712.06 519.928 1710.5C520.213 1695.44 521.164 1680.39 522.786 1665.34C524.986 1644.28 528.495 1623.26 533.269 1602.38Z" fill="#162117"/>
<path d="M493.559 1647.58C496.336 1657.08 498.138 1666.68 499.713 1676.3C500.792 1682.96 501.752 1689.62 502.843 1696.27C503.135 1698.01 503.425 1699.74 503.728 1701.47C504.001 1703.06 504.284 1704.65 504.594 1706.24C505.492 1711.2 506.471 1716.17 507.536 1721.12C509.818 1731.82 512.424 1742.49 515.381 1753.11C517.652 1761.35 520.14 1769.56 522.837 1777.74C533.859 1811.45 548.248 1844.64 565.846 1877.02L560.086 1879.98L511.19 1835.83C505.987 1824.41 501.569 1812.81 497.903 1801.12C495.77 1794.33 493.889 1787.51 492.3 1780.65C491.455 1777.15 490.708 1773.64 490.007 1770.12C488.843 1764.17 487.879 1758.21 487.096 1752.23C486.287 1746.04 485.704 1739.83 485.312 1733.6C484.667 1723.35 484.605 1713.06 485.113 1702.81C485.449 1696.09 486.026 1689.38 486.876 1682.67C488.076 1672.95 489.81 1663.24 492.074 1653.6C492.544 1651.6 493.039 1649.59 493.559 1647.58Z" fill="#162117"/>
<path d="M278.805 1809.06L280.377 1836.4C285.644 1834.92 290.133 1832.88 293.487 1831C293.626 1830.92 293.765 1830.85 293.888 1830.77C297.316 1828.81 300.536 1826.8 303.532 1824.76C309.938 1820.43 315.398 1815.94 320.041 1811.34C327.961 1803.51 333.512 1795.36 337.152 1787.12C338.853 1783.28 340.124 1779.43 341.063 1775.58C341.074 1775.51 341.102 1775.43 341.113 1775.35C345.673 1756.04 341.532 1736.78 337.396 1717.62C338.989 1729.03 336.158 1740.56 330.203 1751.89C325.651 1760.57 319.328 1769.11 311.824 1777.54C309.9 1779.72 307.896 1781.88 305.796 1784.03C297.988 1792.15 289.189 1800.16 279.94 1808.09C279.562 1808.41 279.183 1808.74 278.805 1809.06Z" fill="#162117"/>
<path d="M278.346 1801.06C282.392 1793.52 286.995 1786.01 292.124 1778.54L292.14 1778.54C303.277 1762.3 316.967 1746.26 333.088 1730.52C324.848 1741.07 318.269 1751.77 313.346 1762.56C311.048 1767.62 309.1 1772.7 307.55 1777.78C306.892 1779.87 306.313 1781.95 305.797 1784.03C303.667 1792.56 302.57 1801.1 302.536 1809.63C302.519 1811.55 302.55 1813.47 302.661 1815.39C302.744 1817.11 302.874 1818.83 303.037 1820.55C303.181 1821.95 303.341 1823.36 303.533 1824.76C303.805 1826.73 304.141 1828.7 304.54 1830.67C304.81 1832.06 305.113 1833.45 305.431 1834.84C306.518 1839.39 307.891 1843.93 309.596 1848.44C309.675 1848.71 309.785 1848.97 309.88 1849.23C311.563 1853.65 313.532 1858.06 315.816 1862.43L302.511 1862.78L291.759 1863.07L289.872 1863.12C287.363 1861.75 285.447 1860.2 283.738 1858.66C282.967 1857.96 282.228 1857.26 281.537 1856.55L280.378 1836.4L280.101 1831.59L280.092 1831.43L278.806 1809.06L278.346 1801.06Z" fill="#162117"/>
<path d="M280.1 1831.59L281.925 1863.33L302.51 1862.78C305.122 1858.22 306.937 1853.6 309.295 1849.02C309.395 1848.83 309.495 1848.64 309.595 1848.44C312.71 1842.4 315.999 1836.35 319.464 1830.32C322.855 1824.37 326.421 1818.44 330.162 1812.51C330.336 1812.22 330.526 1811.93 330.7 1811.65C337.076 1801.55 343.915 1791.49 351.233 1781.48C352.955 1779.11 354.709 1776.75 356.48 1774.39L356.496 1774.39C364.168 1764.19 372.319 1754.03 380.966 1743.91C370.935 1754.25 360.889 1764.61 350.218 1774.88C345.975 1778.98 341.635 1783.06 337.151 1787.12C328.531 1794.92 319.398 1802.65 309.48 1810.25C307.244 1811.97 304.976 1813.69 302.659 1815.39C301.623 1816.15 300.571 1816.91 299.519 1817.67C293.174 1822.24 286.479 1826.8 280.313 1831.42L280.1 1831.59Z" fill="#162117"/>
<path d="M329.797 1808.63L356.936 1828.81C359.548 1825.36 361.043 1821.83 361.813 1818.91C361.848 1818.8 361.883 1818.68 361.907 1818.57C362.659 1815.56 363.212 1812.61 363.561 1809.73C364.346 1803.61 364.253 1797.78 363.436 1792.23C362.05 1782.76 358.553 1774.1 353.516 1766.21C351.177 1762.53 348.491 1759.03 345.561 1755.68C345.497 1755.62 345.443 1755.55 345.379 1755.48C330.543 1738.74 309.107 1725.86 287.777 1713.05C299.817 1721.06 308.592 1731.11 314.799 1742.38C319.56 1751.01 322.835 1760.31 325.103 1770.05C325.696 1772.55 326.219 1775.09 326.66 1777.65C328.403 1787.29 329.284 1797.27 329.74 1807.39C329.757 1807.8 329.78 1808.22 329.797 1808.63Z" fill="#162117"/>
<path d="M352.153 1825.26L383.655 1848.68L398.845 1839.2C396.512 1834.57 393.512 1830.25 390.974 1825.72C390.87 1825.53 390.759 1825.33 390.653 1825.14C387.293 1819.16 384.067 1813.09 380.994 1806.97C377.943 1800.94 375.034 1794.84 372.263 1788.66C372.124 1788.37 371.995 1788.06 371.856 1787.77C367.15 1777.26 362.825 1766.57 358.91 1755.71C357.983 1753.14 357.079 1750.57 356.194 1747.99L356.206 1747.98C352.384 1736.82 348.966 1725.47 345.969 1713.95C348.123 1726.26 350.283 1738.59 351.881 1751.12C352.53 1756.12 353.085 1761.14 353.511 1766.21C354.335 1775.96 354.697 1785.88 354.34 1796.05C354.261 1798.34 354.159 1800.65 354.005 1802.97C353.939 1804.01 353.855 1805.05 353.772 1806.09C353.262 1812.37 352.477 1818.79 352.158 1825.04L352.153 1825.26Z" fill="#162117"/>
<rect x="-304" y="1810.12" width="1499.26" height="53.4312" fill="#162117"/>
</g>
<rect y="1862" width="440" height="935" fill="#162117"/>
</g>
<defs>
<clipPath id="clip0_1114_10059">
<rect width="430" height="2513" fill="white"/>
</clipPath>
</defs>
</svg>
