<svg width="167" height="96" viewBox="0 0 167 96" fill="none" xmlns="http://www.w3.org/2000/svg">
<path d="M166.273 76.5629C166.273 76.5629 167.336 63.8331 155.376 57.0671C143.415 50.3028 123.776 52.589 123.776 52.589C123.776 52.589 115.153 47.0171 106.26 53.9394C106.26 53.9394 113.625 21.6629 113.391 14.8721C113.159 8.085 108.758 7.37721 106.672 13.545C106.672 13.545 106.379 2.06168 101.979 1.35211C97.5798 0.644377 99.0358 9.31021 99.0358 9.31021C99.0358 9.31021 96.0541 -0.247578 92.6164 0.931611C89.1769 2.11248 89.5308 6.03795 89.5308 6.03795C89.5308 6.03795 86.9029 0.45136 85.4599 3.77959C84.0153 7.10776 85.0841 12.6281 85.0841 12.6281C85.0841 12.6281 80.396 6.4314 77.4457 8.39331C74.4973 10.3535 78.1774 15.7243 78.1774 15.7243C78.1774 15.7243 73.8542 13.1931 72.9421 16.2834C72.0281 19.3736 76.5227 23.9976 76.5227 23.9976C76.5227 23.9976 72.1681 22.2482 71.2781 24.8167C70.3862 27.387 73.6904 29.3523 73.6904 29.3523C73.6904 29.3523 69.5939 27.6138 69.4281 31.5172C69.2624 35.4205 71.8343 36.2373 71.8343 36.2373C71.8343 36.2373 69.7285 36.7444 69.1076 39.064C69.1076 39.064 57.7668 17.7243 51.5914 15.8993C45.4162 14.0725 46.6271 16.2094 47.5576 18.8571C48.4865 21.5029 48.4865 21.5029 48.4865 21.5029L51.1714 25.7896C51.1714 25.7896 45.7149 19.2997 42.5048 21.2488C39.2948 23.198 47.2981 31.0983 47.2981 31.0983C47.2981 31.0983 41.2095 27.1897 40.0043 31.049C38.7974 34.9099 44.58 39.8491 44.58 39.8491C44.58 39.8491 39.9326 38.8686 40.5905 41.7651C41.2502 44.6599 46.9501 45.4229 46.9501 45.4229C46.9501 45.4229 41.9643 46.2354 42.6218 49.1425C43.2812 52.0461 47.9747 51.985 47.9747 51.985C47.9747 51.985 44.807 52.894 45.7597 55.02C46.7125 57.1459 56.1344 59.9729 56.1344 59.9729C56.1344 59.9729 45.5903 65.1813 41.4292 65.0046C37.2647 64.8277 12.7665 58.8333 10.1 60.2846C7.43168 61.7358 16.1409 65.233 16.1409 65.233C16.1409 65.233 1.62135 63.5745 0.176664 66.9026C-1.26801 70.2308 10.1224 72.0168 10.1224 72.0168C10.1224 72.0168 3.48654 74.864 5.44545 77.8158C7.40621 80.7659 37.7383 72.1478 40.5431 73.571C43.3496 74.9942 54.3235 80.4143 54.3235 80.4143C54.3235 80.4143 47.2786 80.6343 48.9666 83.835C50.6546 87.0358 56.8206 89.1226 59.6365 90.2858C62.4541 91.4473 65.6698 95.4961 67.5126 95.0517C69.3554 94.609 61.1033 86.4377 61.1033 86.4377C61.1033 86.4377 82.8961 88.6655 91.2752 87.719C99.6526 86.7707 110.423 78.6242 114.535 73.8447C114.535 73.8447 122.238 76.5178 127.738 69.7119C127.738 69.7119 156.113 70.396 166.273 76.5629Z" fill="#433E69" fill-opacity="0.8"/>
</svg>
