<svg width="105" height="60" viewBox="0 0 105 60" fill="none" xmlns="http://www.w3.org/2000/svg">
<path d="M104.89 47.8911C104.89 47.8911 105.557 39.9088 98.0574 35.6661C90.5567 31.4244 78.2424 32.858 78.2424 32.858C78.2424 32.858 72.8353 29.3641 67.2587 33.7048C67.2587 33.7048 71.8771 13.4655 71.7304 9.20728C71.5846 4.95134 68.8252 4.50751 67.5172 8.37506C67.5172 8.37506 67.3333 1.17435 64.5739 0.729408C61.8156 0.285616 62.7286 5.71962 62.7286 5.71962C62.7286 5.71962 60.8589 -0.273696 58.7032 0.465728C56.5465 1.20621 56.7684 3.66771 56.7684 3.66771C56.7684 3.66771 55.1205 0.164585 54.2157 2.25159C53.3098 4.33854 53.9801 7.80016 53.9801 7.80016C53.9801 7.80016 51.0403 3.91443 49.1903 5.14467C47.3414 6.37385 49.6491 9.74166 49.6491 9.74166C49.6491 9.74166 46.9382 8.15439 46.3662 10.0922C45.7931 12.03 48.6115 14.9295 48.6115 14.9295C48.6115 14.9295 45.8809 13.8325 45.3228 15.4431C44.7636 17.0548 46.8355 18.2872 46.8355 18.2872C46.8355 18.2872 44.2667 17.197 44.1628 19.6447C44.0588 22.0924 45.6716 22.6045 45.6716 22.6045C45.6716 22.6045 44.3512 22.9225 43.9618 24.377C43.9618 24.377 36.8504 10.9958 32.9781 9.85138C29.1059 8.70588 29.8651 10.0458 30.4487 11.7061C31.0311 13.3652 31.0311 13.3652 31.0311 13.3652L32.7147 16.0532C32.7147 16.0532 29.2932 11.9836 27.2803 13.2059C25.2673 14.4281 30.2859 19.3821 30.2859 19.3821C30.2859 19.3821 26.468 16.9312 25.7123 19.3511C24.9554 21.7722 28.5815 24.8693 28.5815 24.8693C28.5815 24.8693 25.6673 24.2545 26.0798 26.0708C26.4936 27.886 30.0677 28.3645 30.0677 28.3645C30.0677 28.3645 26.9413 28.874 27.3536 30.6969C27.7671 32.5176 30.7102 32.4793 30.7102 32.4793C30.7102 32.4793 28.7239 33.0493 29.3213 34.3824C29.9187 35.7155 35.8268 37.4882 35.8268 37.4882C35.8268 37.4882 29.215 40.7542 26.6058 40.6434C23.9944 40.5325 8.63254 36.7736 6.96045 37.6836C5.28727 38.5936 10.7485 40.7866 10.7485 40.7866C10.7485 40.7866 1.64383 39.7466 0.737939 41.8335C-0.167964 43.9205 6.97448 45.0405 6.97448 45.0405C6.97448 45.0405 2.81343 46.8258 4.04178 48.6768C5.27129 50.5267 24.2914 45.1226 26.0501 46.015C27.81 46.9075 34.6913 50.3062 34.6913 50.3062C34.6913 50.3062 30.2737 50.4441 31.3322 52.4512C32.3907 54.4583 36.2571 55.7668 38.0228 56.4962C39.7897 57.2245 41.8061 59.7634 42.9617 59.4847C44.1172 59.2071 38.9426 54.0832 38.9426 54.0832C38.9426 54.0832 52.608 55.4802 57.8622 54.8867C63.1153 54.2921 69.8693 49.1837 72.4473 46.1867C72.4473 46.1867 77.2775 47.8628 80.7267 43.5951C80.7267 43.5951 98.5197 44.0241 104.89 47.8911Z" fill="#433E69" fill-opacity="0.5"/>
</svg>
