<svg width="430" height="2775" viewBox="0 0 430 2775" fill="none" xmlns="http://www.w3.org/2000/svg">
<g clip-path="url(#clip0_716_11698)">
<rect width="430" height="2775" fill="#C62B29"/>
<rect x="-4" y="911" width="436" height="335" fill="#7E1B1A"/>
<rect x="-6" y="1479" width="436" height="1296" fill="#5D0E0D"/>
<rect x="-3" y="1194" width="436" height="204" fill="#671413"/>
<mask id="mask0_716_11698" style="mask-type:luminance" maskUnits="userSpaceOnUse" x="-174" y="374" width="981" height="538">
<path d="M806.398 373.999V911.727H-174V373.999H806.398Z" fill="white"/>
</mask>
<g mask="url(#mask0_716_11698)">
<path d="M428.428 524.992V414.753H418.949V524.992H428.428Z" fill="#7E1B1A"/>
<path d="M441.263 429.492H406.098V438.311H441.263V429.492Z" fill="#7E1B1A"/>
<path d="M563.943 911.727H283.441V607.651H563.943V911.727Z" fill="#9E2221"/>
<path d="M540.832 596.595H306.535V607.652H540.832V596.595Z" fill="#9E2221"/>
<path d="M532.373 596.594H315V587.174C315 567.722 331.958 551.953 352.859 551.953H494.514C515.426 551.953 532.373 567.722 532.373 587.174V596.594Z" fill="#9E2221"/>
<path d="M494.515 551.953H352.859V527.7H494.515V551.953Z" fill="#9E2221"/>
<path d="M482.934 511.35H364.434V527.699H482.934V511.35Z" fill="#9E2221"/>
<path d="M378.59 511.352H468.78C468.78 511.352 465.254 461.387 423.685 461.387C382.116 461.387 378.59 511.352 378.59 511.352Z" fill="#9E2221"/>
<path d="M442.723 579.168H404.656V510.27C404.656 500.491 413.176 492.564 423.684 492.564C434.203 492.564 442.723 500.491 442.723 510.27V579.168Z" fill="#7E1B1A"/>
<path d="M412.087 572.255C418.861 571.87 428.756 571.552 435.392 571.297L434.259 572.351C433.877 559.155 433.704 545.958 433.935 532.761C434.005 526.163 434.109 519.565 434.282 512.967C434.294 511.636 434.502 509.512 434.224 508.213C432.675 499.652 420.445 496.832 414.827 503.854C412.538 506.463 412.411 509.698 412.677 512.947C412.908 519.496 413.232 525.947 413.232 532.428C413.197 545.423 412.769 558.456 412.087 572.255ZM411.879 572.447C410.839 553.424 410.295 532.517 411.278 512.987C411.324 512.154 411.37 510.039 411.474 509.207C412.642 499.175 426.641 495.246 433.519 503.147C436.085 505.865 436.559 509.48 436.502 512.967C436.999 532.761 437.161 552.556 436.525 572.351L436.49 573.434L435.392 573.406C428.444 573.295 418.873 572.719 411.879 572.447Z" fill="#9E2221"/>
<path d="M388.885 579.309H368.586V542.564C368.586 537.348 373.129 533.12 378.736 533.12C384.342 533.12 388.885 537.348 388.885 542.564V579.309Z" fill="#7E1B1A"/>
<path d="M372.6 575.578C376.16 575.245 381.524 574.851 384.98 574.62L383.847 575.674C383.477 568.636 383.292 561.598 383.524 554.559C383.547 550.232 383.87 545.873 383.928 541.551C383.339 537.183 376.992 535.65 374.183 539.265C373.004 540.644 373.004 542.265 373.201 543.982C373.42 547.453 373.756 550.824 373.756 554.226C373.709 561.063 373.293 567.937 372.6 575.578ZM372.391 575.771C371.27 565.532 370.854 553.404 371.894 542.684C371.998 536.816 380.148 534.014 384.275 538.56C385.708 540.002 386.09 542.094 386.101 544.003C386.31 547.521 386.356 551.04 386.448 554.559C386.691 561.965 386.471 569.375 386.055 576.779C381.477 576.585 376.911 576.174 372.391 575.771Z" fill="#9E2221"/>
<path d="M458.744 634.737C458.744 652.75 443.045 667.352 423.683 667.352C404.331 667.352 388.633 652.75 388.633 634.737C388.633 616.725 404.331 602.123 423.683 602.123C443.045 602.123 458.744 616.725 458.744 634.737Z" fill="#7E1B1A"/>
<path d="M423.686 660.535C408.403 660.535 395.965 648.961 395.965 634.736C395.965 620.511 408.403 608.938 423.686 608.938C438.979 608.938 451.418 620.511 451.418 634.736C451.418 648.961 438.979 660.535 423.686 660.535Z" fill="#7E1B1A"/>
<path d="M423.681 638.328C421.554 638.328 419.82 636.716 419.82 634.735C419.82 632.754 421.554 631.143 423.681 631.143C425.82 631.143 427.542 632.754 427.542 634.735C427.542 636.716 425.82 638.328 423.681 638.328Z" fill="#7E1B1A"/>
<path d="M427.542 628.949H419.82V604.312H427.542V628.949Z" fill="#7E1B1A"/>
<path d="M422.019 628.105L416.563 633.186L397.836 615.763L403.292 610.683L422.019 628.105Z" fill="#7E1B1A"/>
<path d="M417.46 631.144V638.328H390.977V631.144H417.46Z" fill="#7E1B1A"/>
<path d="M416.563 636.29L422.019 641.371L403.292 658.793L397.836 653.712L416.563 636.29Z" fill="#7E1B1A"/>
<path d="M419.82 640.525H427.542V665.164H419.82V640.525Z" fill="#7E1B1A"/>
<path d="M425.359 641.372L430.816 636.291L449.543 653.712L444.086 658.793L425.359 641.372Z" fill="#7E1B1A"/>
<path d="M429.918 638.328V631.143H456.402V638.328H429.918Z" fill="#7E1B1A"/>
<path d="M430.816 633.186L425.359 628.105L444.086 610.683L449.543 615.763L430.816 633.186Z" fill="#7E1B1A"/>
<path d="M368.207 629.208H298.281V640.266H368.207V629.208Z" fill="#7E1B1A"/>
<path d="M505.194 684.109H342.188V695.166H505.194V684.109Z" fill="#7E1B1A"/>
<path d="M319.216 759.684L296.258 738.322L319.216 716.959L342.185 738.322L319.216 759.684Z" fill="#7E1B1A"/>
<path d="M304.789 738.322C310.303 742.574 315.366 746.386 320.326 750.856H318.118C319.331 749.726 320.534 748.584 321.782 747.489C325.412 744.278 329.4 740.763 333.226 737.794V738.849C328.868 733.857 323.643 729.68 318.36 725.561H320.083C315.355 730.35 310.396 734.048 304.789 738.322ZM304.5 738.322C308.777 733.193 313.921 727.62 319.308 723.155C324.059 728.278 328.672 733.522 334.371 737.794L334.914 738.247L334.371 738.85C329.643 744.054 324.383 749.159 319.204 753.961C314.037 749.078 308.927 743.537 304.5 738.322Z" fill="#9E2221"/>
<path d="M319.216 824.201L296.258 802.839L319.216 781.478L342.185 802.839L319.216 824.201Z" fill="#7E1B1A"/>
<path d="M304.789 802.839C310.303 807.092 315.366 810.904 320.326 815.374H318.118C319.331 814.244 320.534 813.101 321.782 812.006C325.412 808.795 329.4 805.282 333.226 802.311V803.367C328.868 798.375 323.643 794.199 318.36 790.079H320.083C315.355 794.868 310.396 798.565 304.789 802.839ZM304.5 802.839C308.777 797.71 313.921 792.137 319.308 787.673C324.059 792.796 328.672 798.039 334.371 802.311L334.914 802.765L334.371 803.367C329.643 808.571 324.383 813.677 319.204 818.479C314.037 813.596 308.927 808.054 304.5 802.839Z" fill="#9E2221"/>
<path d="M319.216 888.721L296.258 867.358L319.216 845.996L342.185 867.358L319.216 888.721Z" fill="#7E1B1A"/>
<path d="M304.789 867.359C310.303 871.611 315.366 875.425 320.326 879.893H318.118C319.331 878.764 320.534 877.621 321.782 876.526C325.412 873.315 329.4 869.801 333.226 866.832V867.887C328.868 862.896 323.643 858.719 318.36 854.599H320.083C315.355 859.389 310.396 863.085 304.789 867.359ZM304.5 867.359C308.777 862.231 313.921 856.657 319.308 852.193C324.059 857.315 328.672 862.56 334.371 866.831C334.371 866.832 334.914 867.286 334.914 867.286L334.371 867.887C329.643 873.091 324.383 878.196 319.204 882.998C314.037 878.115 308.927 872.574 304.5 867.359Z" fill="#9E2221"/>
<path d="M489.884 911.727H357.488V775.19C357.488 741.178 387.128 713.605 423.68 713.605C460.244 713.605 489.884 741.178 489.884 775.19V911.727Z" fill="#7E1B1A"/>
<path d="M364.82 904.912V775.192C364.82 744.992 391.223 720.423 423.683 720.423C456.144 720.423 482.558 744.992 482.558 775.192V904.912H364.82Z" fill="#7E1B1A"/>
<path d="M423.684 720.423C425.695 781.903 425.707 843.434 423.684 904.912C421.672 843.434 421.684 781.903 423.684 720.423Z" fill="#9E2221"/>
<path d="M409.212 816.133C413.235 816.03 413.316 810.808 409.814 810.098C406.265 809.919 401.803 809.874 398.173 809.318C393.872 808.835 393.167 814.648 397.491 815.055C401.225 814.716 405.444 816.12 409.212 816.133ZM409.212 816.405C404.982 816.328 401.248 818.17 396.924 817.261C394.485 816.576 393.156 814.083 393.607 811.914C394.358 807.233 400.23 807.575 404.184 807.283C405.236 807.257 407.663 807.095 408.692 807.108C415.952 806.813 416.495 816.159 409.212 816.405Z" fill="#9E2221"/>
<path d="M413.2 825.251C413.211 820.635 408.091 817.638 403.698 817.724C399.212 817.702 395.363 821.034 394.843 825.251C394.149 830.01 398.796 833.747 403.698 833.097C408.114 832.742 413.223 829.968 413.2 825.251ZM413.489 825.251C413.709 834.505 403.432 838.959 396.531 831.913C389.895 825.604 393.779 814.91 403.698 814.816C409.778 814.715 413.755 820.132 413.489 825.251Z" fill="#9E2221"/>
<path d="M90.7891 911.727H283.437V660.536H90.7891V911.727Z" fill="#9E2221"/>
<path d="M283.437 660.535H90.7891L187.111 602.122L283.437 660.535Z" fill="#9E2221"/>
<path d="M147.883 911.727H226.336V831.978C226.336 811.824 208.775 795.485 187.11 795.485C165.446 795.485 147.883 811.824 147.883 831.978V911.727Z" fill="#7E1B1A"/>
<path d="M187.112 795.485C189.116 834.205 189.133 873.007 187.112 911.727C185.09 873.007 185.106 834.205 187.112 795.485Z" fill="#7E1B1A"/>
<path d="M207.307 800.69C209.312 837.673 209.328 874.744 207.307 911.727C205.285 874.744 205.302 837.673 207.307 800.69Z" fill="#7E1B1A"/>
<path d="M166.487 800.69C168.493 837.673 168.508 874.744 166.487 911.727C164.465 874.744 164.481 837.673 166.487 800.69Z" fill="#7E1B1A"/>
<path d="M255.169 841.84L237.289 825.206L255.169 808.572L273.045 825.206L255.169 841.84Z" fill="#7E1B1A"/>
<path d="M243.812 825.207C248.226 828.735 252.248 831.807 255.972 835.015H254.355C257.481 831.819 262.172 827.365 265.479 824.244V826.171C262.153 823.034 257.501 818.609 254.359 815.396H255.969C252.243 818.604 248.223 821.68 243.812 825.207ZM243.812 825.207C247.149 821.486 251.061 817.139 255.095 813.162C258.929 816.339 263.838 820.861 267.548 824.244L268.612 825.206L267.548 826.171C263.815 829.566 258.947 834.065 255.095 837.258C251.057 833.28 247.146 828.929 243.812 825.207Z" fill="#9E2221"/>
<path d="M255.169 892.08L237.289 875.445L255.169 858.811L273.045 875.445L255.169 892.08Z" fill="#7E1B1A"/>
<path d="M243.812 875.448C248.226 878.975 252.248 882.049 255.972 885.257H254.355C257.481 882.061 262.172 877.606 265.479 874.485V876.411C262.153 873.275 257.501 868.851 254.359 865.636H255.969C252.243 868.845 248.223 871.921 243.812 875.448ZM243.812 875.448C247.149 871.726 251.061 867.379 255.095 863.402C258.929 866.58 263.838 871.102 267.548 874.485L268.612 875.448L267.548 876.411C263.815 879.807 258.947 884.306 255.095 887.498C251.057 883.521 247.146 879.17 243.812 875.448Z" fill="#9E2221"/>
<path d="M119.052 841.84L101.172 825.206L119.052 808.572L136.931 825.206L119.052 841.84Z" fill="#7E1B1A"/>
<path d="M107.703 825.207C112.118 828.735 116.14 831.807 119.864 835.015H118.247C121.373 831.819 126.063 827.365 129.371 824.244V826.171C126.045 823.034 121.392 818.609 118.25 815.396H119.861C116.135 818.604 112.113 821.68 107.703 825.207ZM107.703 825.207C111.04 821.486 114.951 817.139 118.987 813.162C122.82 816.339 127.728 820.861 131.443 824.244L132.498 825.206L131.443 826.171C127.711 829.566 122.839 834.065 118.987 837.258C114.949 833.28 111.038 828.929 107.703 825.207Z" fill="#9E2221"/>
<path d="M119.052 892.08L101.172 875.445L119.052 858.811L136.931 875.445L119.052 892.08Z" fill="#7E1B1A"/>
<path d="M107.703 875.448C112.118 878.975 116.14 882.049 119.864 885.257H118.247C121.373 882.061 126.063 877.606 129.371 874.485V876.411C126.045 873.275 121.392 868.851 118.25 865.636H119.861C116.135 868.845 112.113 871.921 107.703 875.448ZM107.703 875.448C111.04 871.726 114.951 867.379 118.987 863.402C122.82 866.58 127.728 871.102 131.443 874.485L132.498 875.448L131.443 876.411C127.711 879.807 122.839 884.306 118.987 887.498C114.949 883.521 111.038 879.17 107.703 875.448Z" fill="#9E2221"/>
<path d="M90.7891 723.125H283.437V708.499H90.7891V723.125Z" fill="#7E1B1A"/>
<path d="M258.528 772.227H228.117V740.438H258.528V772.227Z" fill="#7E1B1A"/>
<path d="M260.805 772.226H225.836V778.17H260.805V772.226Z" fill="#7E1B1A"/>
<path d="M243.322 740.438C245.331 750.931 245.346 761.733 243.322 772.227C241.296 761.734 241.312 750.931 243.322 740.438Z" fill="#9E2221"/>
<path d="M146.107 772.227H115.695V740.438H146.107V772.227Z" fill="#7E1B1A"/>
<path d="M148.391 772.226H113.422V778.17H148.391V772.226Z" fill="#7E1B1A"/>
<path d="M130.904 740.438C132.913 750.931 132.929 761.733 130.904 772.227C128.878 761.734 128.894 750.931 130.904 740.438Z" fill="#9E2221"/>
<path d="M187.112 682.83L163.148 660.536L187.112 638.242L211.076 660.536L187.112 682.83Z" fill="#7E1B1A"/>
<path d="M171.898 660.536C177.6 665.26 182.908 669.531 187.92 673.937H186.304C190.548 669.705 196.848 663.745 201.291 659.572V661.498C196.824 657.306 190.573 651.387 186.307 647.131C186.307 647.13 187.918 647.13 187.918 647.13C182.905 651.536 177.596 655.81 171.898 660.536ZM171.898 660.536C176.543 655.608 181.722 650.091 187.06 644.892C192.005 649.115 198.515 655.137 203.361 659.572L204.412 660.535L203.361 661.499C198.49 665.951 192.028 671.939 187.06 676.184C181.72 670.985 176.54 665.465 171.898 660.536Z" fill="#9E2221"/>
<path d="M218.59 682.83H268.087V672.321H218.59V682.83Z" fill="#7E1B1A"/>
<path d="M106.137 682.83H155.628V672.321H106.137V682.83Z" fill="#7E1B1A"/>
<path d="M90.7903 911.727H-148.16V600.154H90.7903V911.727Z" fill="#9E2221"/>
<path d="M-148.16 600.154H90.7903L-28.6849 527.7L-148.16 600.154Z" fill="#9E2221"/>
<path d="M19.9677 911.727H-77.3438V812.809C-77.3438 787.809 -55.5603 767.544 -28.6881 767.544C-1.81587 767.544 19.9677 787.809 19.9677 812.809V911.727Z" fill="#7E1B1A"/>
<path d="M55.7324 825.043L77.9101 804.409L55.7324 783.777L33.5547 804.409L55.7324 825.043Z" fill="#7E1B1A"/>
<path d="M69.8165 804.408C64.3464 800.033 59.3594 796.218 54.7377 792.238H56.7353C52.8373 796.225 47.0666 801.713 42.9408 805.603V803.213C47.0434 807.085 52.8627 812.61 56.7388 816.574H54.7331C59.3536 812.595 64.3417 808.784 69.8165 804.408ZM69.8165 804.408C65.6815 809.026 60.8298 814.421 55.822 819.355C51.0443 815.395 44.9997 809.815 40.3722 805.604L39.0625 804.408L40.3722 803.213C44.9777 799.018 51.0663 793.409 55.8209 789.468C60.8263 794.401 65.6781 799.793 69.8165 804.408Z" fill="#9E2221"/>
<path d="M55.7324 887.355L77.9101 866.723L55.7324 846.09L33.5547 866.723L55.7324 887.355Z" fill="#7E1B1A"/>
<path d="M69.8165 866.725C64.3464 862.35 59.3594 858.535 54.7377 854.555H56.7353C52.8373 858.542 47.0666 864.029 42.9408 867.92V865.53C47.0446 869.402 52.8627 874.927 56.7388 878.892H54.7331C59.3536 874.912 64.3417 871.1 69.8165 866.725ZM69.8165 866.725C65.6815 871.342 60.8298 876.739 55.822 881.672C51.0443 877.712 44.9997 872.132 40.3722 867.92L39.0625 866.724L40.3722 865.53C44.9777 861.335 51.0663 855.727 55.8209 851.785C60.8263 856.717 65.6781 862.109 69.8165 866.725Z" fill="#9E2221"/>
<path d="M90.7903 677.787H-148.16V659.644H90.7903V677.787Z" fill="#7E1B1A"/>
<path d="M22.1758 738.693H59.897V699.263H22.1758V738.693Z" fill="#7E1B1A"/>
<path d="M19.3477 738.695H62.7228V746.068H19.3477V738.695Z" fill="#7E1B1A"/>
<path d="M41.0368 699.263C38.5445 712.28 38.5248 725.678 41.0368 738.693C43.5487 725.678 43.5291 712.28 41.0368 699.263Z" fill="#9E2221"/>
<path d="M-28.6861 627.807L1.03792 600.153L-28.6861 572.5L-58.4102 600.153L-28.6861 627.807Z" fill="#7E1B1A"/>
<path d="M71.7495 627.807H10.3594V614.771H71.7495V627.807Z" fill="#7E1B1A"/>
</g>
<mask id="mask1_716_11698" style="mask-type:luminance" maskUnits="userSpaceOnUse" x="-391" y="659" width="864" height="560">
<path d="M-391.001 659V1218.89H472.305V659H-391.001Z" fill="white"/>
</mask>
<g mask="url(#mask1_716_11698)">
<path d="M-177.508 1218.89H69.4922V902.281H-177.508V1218.89Z" fill="#891E1D"/>
<path d="M-157.157 890.768H49.1562V902.281H-157.157V890.768Z" fill="#891E1D"/>
<path d="M-149.708 890.768H41.7031V880.96C41.7031 860.706 26.7701 844.287 8.36599 844.287H-116.371C-134.785 844.287 -149.708 860.706 -149.708 880.96V890.768Z" fill="#891E1D"/>
<path d="M-116.37 844.287H8.36719V819.035H-116.37V844.287Z" fill="#891E1D"/>
<path d="M-5.15261 924.725H56.4219V936.238H-5.15261V924.725Z" fill="#671413"/>
<path d="M-125.772 981.89H17.7656V993.402H-125.772V981.89Z" fill="#671413"/>
<path d="M37.9871 1060.58L58.2031 1038.34L37.9871 1016.09L17.7609 1038.34L37.9871 1060.58Z" fill="#671413"/>
<path d="M50.6986 1038.34C45.8431 1042.76 41.3846 1046.73 37.0177 1051.39H38.962C37.8931 1050.21 36.8345 1049.02 35.7351 1047.88C32.5388 1044.54 29.027 1040.88 25.6576 1037.79V1038.89C29.4952 1033.69 34.0962 1029.34 38.7481 1025.05H37.2315C41.3948 1030.04 45.7617 1033.89 50.6986 1038.34ZM50.9531 1038.34C47.1868 1033 42.657 1027.19 37.9134 1022.55C33.7297 1027.88 29.6682 1033.34 24.6498 1037.79L24.1714 1038.26L24.6498 1038.89C28.8132 1044.31 33.4447 1049.62 38.0051 1054.62C42.5552 1049.54 47.0545 1043.77 50.9531 1038.34Z" fill="#891E1D"/>
<path d="M37.9871 1127.75L58.2031 1105.51L37.9871 1083.27L17.7609 1105.51L37.9871 1127.75Z" fill="#671413"/>
<path d="M50.6986 1105.51C45.8431 1109.94 41.3846 1113.91 37.0177 1118.56H38.962C37.8931 1117.39 36.8345 1116.2 35.7351 1115.06C32.5388 1111.71 29.027 1108.06 25.6576 1104.96V1106.06C29.4952 1100.86 34.0962 1096.52 38.7481 1092.23H37.2315C41.3948 1097.21 45.7617 1101.06 50.6986 1105.51ZM50.9531 1105.51C47.1868 1100.17 42.657 1094.37 37.9134 1089.72C33.7297 1095.06 29.6682 1100.52 24.6498 1104.96L24.1714 1105.44L24.6498 1106.06C28.8132 1111.48 33.4447 1116.8 38.0051 1121.8C42.5552 1116.71 47.0545 1110.94 50.9531 1105.51Z" fill="#891E1D"/>
<path d="M37.9871 1194.93L58.2031 1172.69L37.9871 1150.45L17.7609 1172.69L37.9871 1194.93Z" fill="#671413"/>
<path d="M50.6986 1172.69C45.8431 1177.12 41.3846 1181.09 37.0177 1185.74H38.962C37.8931 1184.56 36.8345 1183.37 35.7351 1182.23C32.5388 1178.89 29.027 1175.23 25.6576 1172.14V1173.24C29.4952 1168.04 34.0962 1163.69 38.7481 1159.4H37.2315C41.3948 1164.39 45.7617 1168.24 50.6986 1172.69ZM50.9531 1172.69C47.1868 1167.35 42.657 1161.55 37.9134 1156.9C33.7297 1162.23 29.6682 1167.69 24.6498 1172.14C24.6498 1172.14 24.1714 1172.61 24.1714 1172.61L24.6498 1173.24C28.8132 1178.66 33.4447 1183.97 38.0051 1188.97C42.5552 1183.89 47.0545 1178.12 50.9531 1172.69Z" fill="#891E1D"/>
<path d="M-112.294 1218.89H4.28906V1076.72C4.28906 1041.31 -21.8106 1012.6 -53.9974 1012.6C-86.1945 1012.6 -112.294 1041.31 -112.294 1076.72V1218.89Z" fill="#671413"/>
<path d="M239.133 1218.89H69.4932V957.345H239.133V1218.89Z" fill="#891E1D"/>
<path d="M69.4932 957.346H239.133L154.315 896.525L69.4932 957.346Z" fill="#891E1D"/>
<path d="M188.859 1218.89H119.776V1135.85C119.776 1114.87 135.24 1097.85 154.317 1097.85C173.394 1097.85 188.859 1114.87 188.859 1135.85V1218.89Z" fill="#671413"/>
<path d="M154.319 1097.85C152.553 1138.17 152.539 1178.57 154.319 1218.89C156.099 1178.57 156.085 1138.17 154.319 1097.85Z" fill="#671413"/>
<path d="M136.533 1103.27C134.768 1141.78 134.754 1180.38 136.533 1218.89C138.314 1180.38 138.299 1141.78 136.533 1103.27Z" fill="#671413"/>
<path d="M172.479 1103.27C170.713 1141.78 170.699 1180.38 172.479 1218.89C174.259 1180.38 174.245 1141.78 172.479 1103.27Z" fill="#671413"/>
<path d="M94.3885 1146.12L110.133 1128.8L94.3885 1111.48L78.6472 1128.8L94.3885 1146.12Z" fill="#671413"/>
<path d="M104.387 1128.8C100.5 1132.48 96.959 1135.67 93.6792 1139.01H95.1032C92.3507 1135.69 88.22 1131.05 85.3077 1127.8V1129.81C88.2363 1126.54 92.3335 1121.93 95.1002 1118.59H93.6822C96.963 1121.93 100.503 1125.13 104.387 1128.8ZM104.387 1128.8C101.449 1124.93 98.0044 1120.4 94.4518 1116.26C91.0753 1119.57 86.7531 1124.28 83.4856 1127.8L82.5491 1128.8L83.4856 1129.81C86.7735 1133.34 91.06 1138.03 94.4518 1141.35C98.0074 1137.21 101.451 1132.68 104.387 1128.8Z" fill="#891E1D"/>
<path d="M94.3885 1198.43L110.133 1181.11L94.3885 1163.79L78.6472 1181.11L94.3885 1198.43Z" fill="#671413"/>
<path d="M104.387 1181.11C100.5 1184.79 96.959 1187.99 93.6792 1191.33H95.1032C92.3507 1188 88.22 1183.36 85.3077 1180.11V1182.12C88.2363 1178.85 92.3335 1174.24 95.1002 1170.9H93.6822C96.963 1174.24 100.503 1177.44 104.387 1181.11ZM104.387 1181.11C101.449 1177.24 98.0044 1172.71 94.4518 1168.57C91.0753 1171.88 86.7531 1176.59 83.4856 1180.11L82.5491 1181.11L83.4856 1182.12C86.7735 1185.65 91.06 1190.34 94.4518 1193.66C98.0074 1189.52 101.451 1184.99 104.387 1181.11Z" fill="#891E1D"/>
<path d="M214.248 1146.12L229.992 1128.8L214.248 1111.48L198.504 1128.8L214.248 1146.12Z" fill="#671413"/>
<path d="M224.242 1128.8C220.355 1132.48 216.813 1135.67 213.534 1139.01H214.958C212.205 1135.69 208.076 1131.05 205.162 1127.8V1129.81C208.091 1126.54 212.188 1121.93 214.955 1118.59H213.537C216.817 1121.93 220.359 1125.13 224.242 1128.8ZM224.242 1128.8C221.303 1124.93 217.86 1120.4 214.306 1116.26C210.931 1119.57 206.609 1124.28 203.338 1127.8L202.409 1128.8L203.338 1129.81C206.624 1133.34 210.914 1138.03 214.306 1141.35C217.862 1137.21 221.305 1132.68 224.242 1128.8Z" fill="#891E1D"/>
<path d="M214.248 1198.43L229.992 1181.11L214.248 1163.79L198.504 1181.11L214.248 1198.43Z" fill="#671413"/>
<path d="M224.242 1181.11C220.355 1184.79 216.813 1187.99 213.534 1191.33H214.958C212.205 1188 208.076 1183.36 205.162 1180.11V1182.12C208.091 1178.85 212.188 1174.24 214.955 1170.9H213.537C216.817 1174.24 220.359 1177.44 224.242 1181.11ZM224.242 1181.11C221.303 1177.24 217.86 1172.71 214.306 1168.57C210.931 1171.88 206.609 1176.59 203.338 1180.11L202.409 1181.11L203.338 1182.12C206.624 1185.65 210.914 1190.34 214.306 1193.66C217.862 1189.52 221.305 1184.99 224.242 1181.11Z" fill="#891E1D"/>
<path d="M239.133 1022.51H69.4932V1007.28H239.133V1022.51Z" fill="#671413"/>
<path d="M91.4323 1073.64H118.211V1040.54H91.4323V1073.64Z" fill="#671413"/>
<path d="M89.4264 1073.64H120.219V1079.83H89.4264V1073.64Z" fill="#671413"/>
<path d="M104.824 1040.54C103.055 1051.46 103.042 1062.71 104.824 1073.64C106.607 1062.71 106.593 1051.46 104.824 1040.54Z" fill="#891E1D"/>
<path d="M190.423 1073.64H217.203V1040.54H190.423V1073.64Z" fill="#671413"/>
<path d="M188.411 1073.64H219.203V1079.83H188.411V1073.64Z" fill="#671413"/>
<path d="M203.812 1040.54C202.043 1051.46 202.029 1062.71 203.812 1073.64C205.596 1062.71 205.581 1051.46 203.812 1040.54Z" fill="#891E1D"/>
<path d="M154.32 980.557L175.422 957.344L154.32 934.131L133.219 957.344L154.32 980.557Z" fill="#671413"/>
<path d="M167.711 957.346C162.691 962.265 158.016 966.712 153.602 971.3H155.026C151.289 966.893 145.741 960.687 141.829 956.343V958.348C145.762 953.983 151.266 947.82 155.024 943.389C155.024 943.388 153.604 943.388 153.604 943.388C158.019 947.976 162.694 952.426 167.711 957.346ZM167.711 957.346C163.621 952.215 159.061 946.471 154.36 941.058C150.006 945.455 144.273 951.725 140.006 956.343L139.081 957.345L140.006 958.349C144.296 962.984 149.986 969.219 154.36 973.639C159.063 968.226 163.624 962.478 167.711 957.346Z" fill="#891E1D"/>
<path d="M126.598 980.557H83.0121V969.614H126.598V980.557Z" fill="#671413"/>
<path d="M225.617 980.557H182.037V969.614H225.617V980.557Z" fill="#671413"/>
<path d="M239.135 1218.89H449.547V894.475H239.135V1218.89Z" fill="#891E1D"/>
<path d="M449.547 894.477H239.135L344.341 819.036L449.547 894.477Z" fill="#891E1D"/>
<path d="M301.494 1218.89H387.184V1115.89C387.184 1089.86 368.002 1068.76 344.339 1068.76C320.676 1068.76 301.494 1089.86 301.494 1115.89V1218.89Z" fill="#671413"/>
<path d="M344.343 1068.76C346.533 1118.77 346.551 1168.88 344.343 1218.89C342.135 1168.88 342.153 1118.77 344.343 1068.76Z" fill="#671413"/>
<path d="M366.397 1075.48C368.588 1123.25 368.605 1171.12 366.397 1218.89C364.19 1171.12 364.208 1123.25 366.397 1075.48Z" fill="#671413"/>
<path d="M321.812 1075.48C324.001 1123.25 324.02 1171.12 321.812 1218.89C319.604 1171.12 319.621 1123.25 321.812 1075.48Z" fill="#671413"/>
<path d="M418.678 1128.63L399.148 1107.15L418.678 1085.66L438.207 1107.15L418.678 1128.63Z" fill="#671413"/>
<path d="M406.277 1107.15C411.095 1102.59 415.487 1098.62 419.556 1094.47H417.797C421.229 1098.62 426.311 1104.34 429.943 1108.39V1105.9C426.331 1109.93 421.207 1115.69 417.793 1119.81H419.559C415.492 1115.67 411.099 1111.7 406.277 1107.15ZM406.277 1107.15C409.92 1111.95 414.191 1117.57 418.601 1122.71C422.809 1118.58 428.13 1112.78 432.206 1108.39L433.359 1107.15L432.206 1105.9C428.151 1101.53 422.789 1095.69 418.601 1091.59C414.195 1096.73 409.923 1102.34 406.277 1107.15Z" fill="#891E1D"/>
<path d="M418.678 1193.51L399.148 1172.03L418.678 1150.55L438.207 1172.03L418.678 1193.51Z" fill="#671413"/>
<path d="M406.277 1172.03C411.095 1167.48 415.487 1163.5 419.556 1159.36H417.797C421.229 1163.51 426.311 1169.22 429.943 1173.28V1170.79C426.331 1174.82 421.207 1180.57 417.793 1184.7H419.559C415.492 1180.55 411.099 1176.59 406.277 1172.03ZM406.277 1172.03C409.92 1176.84 414.191 1182.46 418.601 1187.59C422.809 1183.47 428.13 1177.66 432.206 1173.28L433.359 1172.03L432.206 1170.79C428.151 1166.42 422.789 1160.58 418.601 1156.48C414.195 1161.61 409.923 1167.23 406.277 1172.03Z" fill="#891E1D"/>
<path d="M270.002 1128.63L250.473 1107.15L270.002 1085.66L289.531 1107.15L270.002 1128.63Z" fill="#671413"/>
<path d="M257.607 1107.15C262.423 1102.59 266.815 1098.62 270.884 1094.47H269.125C272.558 1098.62 277.639 1104.34 281.272 1108.39V1105.9C277.66 1109.93 272.535 1115.69 269.122 1119.81H270.889C266.82 1115.67 262.427 1111.7 257.607 1107.15ZM257.607 1107.15C261.248 1111.95 265.52 1117.57 269.93 1122.71C274.137 1118.58 279.459 1112.78 283.534 1108.39L284.688 1107.15L283.534 1105.9C279.479 1101.53 274.117 1095.69 269.931 1091.59C265.523 1096.73 261.251 1102.34 257.607 1107.15Z" fill="#891E1D"/>
<path d="M270.002 1193.51L250.473 1172.03L270.002 1150.55L289.531 1172.03L270.002 1193.51Z" fill="#671413"/>
<path d="M257.607 1172.03C262.423 1167.48 266.815 1163.5 270.884 1159.36H269.125C272.558 1163.51 277.639 1169.22 281.272 1173.28V1170.79C277.659 1174.82 272.535 1180.57 269.122 1184.7H270.889C266.82 1180.55 262.427 1176.59 257.607 1172.03ZM257.607 1172.03C261.248 1176.84 265.52 1182.46 269.93 1187.59C274.137 1183.47 279.459 1177.66 283.534 1173.28L284.688 1172.03L283.534 1170.79C279.479 1166.42 274.117 1160.58 269.931 1156.48C265.523 1161.61 261.251 1167.23 257.607 1172.03Z" fill="#891E1D"/>
<path d="M239.135 975.307H449.547V956.416H239.135V975.307Z" fill="#671413"/>
<path d="M422.344 1038.72H389.128V997.667H422.344V1038.72Z" fill="#671413"/>
<path d="M424.828 1038.72H386.633V1046.4H424.828V1038.72Z" fill="#671413"/>
<path d="M405.738 997.667C407.933 1011.22 407.95 1025.17 405.738 1038.72C403.526 1025.17 403.543 1011.22 405.738 997.667Z" fill="#891E1D"/>
<path d="M299.559 1038.72H266.343V997.667H299.559V1038.72Z" fill="#671413"/>
<path d="M302.043 1038.72H263.848V1046.4H302.043V1038.72Z" fill="#671413"/>
<path d="M282.949 997.667C285.144 1011.22 285.161 1025.17 282.949 1038.72C280.737 1025.17 280.754 1011.22 282.949 997.667Z" fill="#891E1D"/>
<path d="M344.342 923.268L318.168 894.475L344.342 865.682L370.516 894.475L344.342 923.268Z" fill="#671413"/>
<path d="M327.721 894.476C333.945 888.373 339.742 882.855 345.218 877.164H343.459C348.119 882.66 354.945 890.305 359.824 895.72V893.232C354.973 898.621 348.092 906.317 343.456 911.784H345.221C339.747 906.094 333.949 900.579 327.721 894.476ZM327.721 894.476C332.791 900.842 338.448 907.971 344.282 914.686C349.707 909.203 356.765 901.47 362.086 895.72L363.234 894.476L362.086 893.232C356.793 887.504 349.682 879.727 344.283 874.273C338.451 880.987 332.794 888.112 327.721 894.476Z" fill="#891E1D"/>
<path d="M378.72 923.268H432.777V909.695H378.72V923.268Z" fill="#671413"/>
<path d="M255.903 923.268H309.961V909.695H255.903V923.268Z" fill="#671413"/>
</g>
<path d="M251.659 248.772C252.165 248.772 252.653 248.849 253.126 248.969C255.882 238.452 264.643 230.756 275.045 230.756C279.273 230.756 283.22 232.049 286.616 234.264C291.706 228.539 298.788 224.984 306.623 224.984C319.287 224.984 329.987 234.264 333.475 247.006C333.658 246.992 333.841 246.975 334.027 246.975C338.536 246.975 342.191 251.016 342.191 256.001H334.678H325.863H297.88H278.567H258.199H252.21H245.12C245.12 252.009 248.048 248.772 251.659 248.772Z" fill="#7E1B1A" fill-opacity="0.3"/>
<path d="M359.413 125.696C359.791 125.696 360.155 125.754 360.508 125.843C362.567 117.992 369.107 112.246 376.872 112.246C380.029 112.246 382.975 113.212 385.511 114.865C389.31 110.591 394.597 107.938 400.446 107.938C409.901 107.938 417.889 114.865 420.493 124.377C420.63 124.367 420.766 124.354 420.905 124.354C424.271 124.354 427 127.371 427 131.093H421.391H414.81H393.919H379.501H364.295H359.824H354.531C354.531 128.112 356.717 125.696 359.413 125.696Z" fill="#7E1B1A" fill-opacity="0.3"/>
<path d="M215.332 98.3937C215.49 98.3937 215.641 98.418 215.788 98.4553C216.645 95.1861 219.368 92.794 222.601 92.794C223.915 92.794 225.142 93.1958 226.198 93.8842C227.78 92.1044 229.981 91 232.416 91C236.353 91 239.679 93.8843 240.763 97.8452C240.82 97.8413 240.877 97.8356 240.935 97.8356C242.336 97.8356 243.473 99.0918 243.473 100.641H241.137H238.397H229.699H223.696H217.365H215.504H213.3C213.3 99.3999 214.21 98.3937 215.332 98.3937Z" fill="#7E1B1A" fill-opacity="0.3"/>
<path d="M95.531 127.795C95.0251 127.795 94.5377 127.872 94.0645 127.992C91.3081 117.475 82.5473 109.779 72.146 109.779C67.9174 109.779 63.9707 111.073 60.5747 113.288C55.4845 107.562 48.4031 104.008 40.5683 104.008C27.9037 104.008 17.2037 113.287 13.7153 126.029C13.5321 126.016 13.3498 125.998 13.1635 125.998C8.65424 125.998 4.99894 130.039 4.99894 135.025H12.5127H21.3276H49.3107H68.6234H88.9917H94.9807H102.07C102.07 131.031 99.1429 127.795 95.531 127.795Z" fill="#7E1B1A" fill-opacity="0.3"/>
<path d="M176.061 106.226C175.839 106.226 175.626 106.26 175.419 106.313C174.213 101.712 170.381 98.3451 165.83 98.3451C163.98 98.3451 162.254 98.9111 160.768 99.88C158.541 97.3756 155.443 95.8203 152.015 95.8203C146.475 95.8203 141.794 99.8795 140.268 105.454C140.188 105.448 140.108 105.441 140.026 105.441C138.054 105.441 136.455 107.209 136.455 109.389H139.742H143.599H155.841H164.289H173.2H175.82H178.922C178.922 107.642 177.641 106.226 176.061 106.226Z" fill="#7E1B1A" fill-opacity="0.3"/>
<path d="M252.862 375.191C253.321 375.191 253.764 375.261 254.193 375.37C256.695 365.824 264.646 358.84 274.086 358.84C277.924 358.84 281.506 360.013 284.588 362.024C289.208 356.828 295.635 353.602 302.746 353.602C314.239 353.602 323.951 362.023 327.117 373.588C327.283 373.576 327.448 373.56 327.617 373.56C331.71 373.56 335.027 377.227 335.027 381.752H328.208H320.208H294.811H277.283H258.797H253.361H246.927C246.927 378.128 249.584 375.191 252.862 375.191Z" fill="#7E1B1A" fill-opacity="0.3"/>
<path d="M350.66 263.488C351.002 263.488 351.333 263.541 351.653 263.622C353.521 256.496 359.457 251.282 366.504 251.282C369.37 251.282 372.043 252.158 374.345 253.658C377.793 249.779 382.592 247.371 387.9 247.371C396.481 247.371 403.731 253.658 406.094 262.292C406.218 262.282 406.342 262.271 406.468 262.271C409.523 262.271 412 265.009 412 268.386H406.909H400.937H381.976H368.891H355.09H351.032H346.228C346.228 265.681 348.212 263.488 350.66 263.488Z" fill="#7E1B1A" fill-opacity="0.3"/>
<path d="M219.894 238.71C220.037 238.71 220.174 238.732 220.308 238.766C221.085 235.799 223.557 233.628 226.491 233.628C227.684 233.628 228.797 233.993 229.755 234.618C231.191 233.002 233.189 232 235.399 232C238.972 232 241.991 234.618 242.975 238.213C243.026 238.209 243.078 238.204 243.13 238.204C244.402 238.204 245.434 239.344 245.434 240.75H243.314H240.827H232.933H227.485H221.739H220.05H218.05C218.049 239.624 218.875 238.71 219.894 238.71Z" fill="#7E1B1A" fill-opacity="0.3"/>
<path d="M111.167 265.393C110.707 265.393 110.265 265.463 109.836 265.572C107.334 256.028 99.3828 249.043 89.9427 249.043C86.105 249.043 82.523 250.217 79.4408 252.227C74.8211 247.03 68.3942 243.805 61.2834 243.805C49.7892 243.805 40.0781 252.226 36.9121 263.791C36.7458 263.779 36.5804 263.763 36.4113 263.763C32.3187 263.763 29.0013 267.431 29.0013 271.955H35.8206H43.8208H69.2178H86.7457H105.232H110.667H117.102C117.102 268.331 114.445 265.393 111.167 265.393Z" fill="#7E1B1A" fill-opacity="0.3"/>
<path d="M184.251 245.819C184.05 245.819 183.857 245.85 183.669 245.898C182.574 241.722 179.096 238.666 174.966 238.666C173.287 238.666 171.72 239.18 170.371 240.06C168.351 237.787 165.539 236.375 162.428 236.375C157.399 236.375 153.151 240.059 151.766 245.119C151.693 245.113 151.621 245.106 151.547 245.106C149.756 245.106 148.305 246.711 148.305 248.69H151.289H154.789H165.899H173.568H181.655H184.033H186.848C186.848 247.104 185.685 245.819 184.251 245.819Z" fill="#7E1B1A" fill-opacity="0.3"/>
<mask id="mask2_716_11698" style="mask-type:luminance" maskUnits="userSpaceOnUse" x="-109" y="926" width="864" height="560">
<path d="M-109.001 926V1485.89H754.305V926H-109.001Z" fill="white"/>
</mask>
<g mask="url(#mask2_716_11698)">
<path d="M223.829 1083.21V968.433H232.176V1083.21H223.829Z" fill="#5D0E0D"/>
<path d="M212.523 983.779H243.488V992.961H212.523V983.779Z" fill="#5D0E0D"/>
<path d="M104.5 1485.89H351.5V1169.28H104.5V1485.89Z" fill="#741211"/>
<path d="M124.847 1157.77H331.16V1169.28H124.847V1157.77Z" fill="#741211"/>
<path d="M132.3 1157.77H323.711V1147.96C323.711 1127.71 308.778 1111.29 290.374 1111.29H165.637C147.223 1111.29 132.3 1127.71 132.3 1147.96V1157.77Z" fill="#741211"/>
<path d="M165.634 1111.29H290.371V1086.04H165.634V1111.29Z" fill="#741211"/>
<path d="M175.828 1069.01H280.176V1086.04H175.828V1069.01Z" fill="#741211"/>
<path d="M267.715 1069.01H188.296C188.296 1069.01 191.401 1016.99 228.006 1016.99C264.61 1016.99 267.715 1069.01 267.715 1069.01Z" fill="#741211"/>
<path d="M211.241 1139.62H244.762V1067.89C244.762 1057.7 237.26 1049.45 228.007 1049.45C218.744 1049.45 211.241 1057.7 211.241 1067.89V1139.62Z" fill="#5D0E0D"/>
<path d="M238.216 1132.43C232.251 1132.03 223.537 1131.69 217.694 1131.43L218.692 1132.53C219.028 1118.79 219.181 1105.05 218.977 1091.31C218.916 1084.44 218.824 1077.57 218.672 1070.7C218.661 1069.31 218.478 1067.1 218.722 1065.75C220.086 1056.83 230.856 1053.9 235.803 1061.21C237.819 1063.92 237.931 1067.29 237.697 1070.67C237.493 1077.49 237.208 1084.21 237.208 1090.96C237.239 1104.49 237.615 1118.06 238.216 1132.43ZM238.399 1132.63C239.315 1112.82 239.794 1091.05 238.928 1070.72C238.888 1069.85 238.847 1067.65 238.755 1066.78C237.727 1056.34 225.4 1052.24 219.343 1060.47C217.084 1063.3 216.666 1067.06 216.717 1070.7C216.279 1091.31 216.137 1111.92 216.697 1132.53L216.727 1133.65L217.694 1133.63C223.812 1133.51 232.241 1132.91 238.399 1132.63Z" fill="#741211"/>
<path d="M179.024 1139.77H196.898V1101.51C196.898 1096.08 192.898 1091.68 187.961 1091.68C183.024 1091.68 179.024 1096.08 179.024 1101.51V1139.77Z" fill="#5D0E0D"/>
<path d="M193.367 1135.89C190.242 1135.54 185.508 1135.13 182.465 1134.89L183.462 1135.99C183.798 1128.66 183.961 1121.33 183.758 1114C183.737 1109.5 183.442 1104.96 183.391 1100.46C183.921 1095.91 189.509 1094.31 191.972 1098.08C193.021 1099.51 193.021 1101.2 192.848 1102.99C192.654 1106.6 192.359 1110.11 192.359 1113.65C192.39 1120.77 192.766 1127.93 193.367 1135.89ZM193.55 1136.09C194.548 1125.43 194.914 1112.8 193.998 1101.64C193.896 1095.53 186.72 1092.61 183.096 1097.34C181.824 1098.84 181.498 1101.02 181.488 1103.01C181.304 1106.67 181.264 1110.34 181.182 1114C180.969 1121.71 181.152 1129.43 181.518 1137.14C185.549 1136.93 189.58 1136.51 193.55 1136.09Z" fill="#741211"/>
<path d="M258.645 1139.77H276.52V1101.51C276.52 1096.08 272.519 1091.68 267.582 1091.68C262.645 1091.68 258.645 1096.08 258.645 1101.51V1139.77Z" fill="#5D0E0D"/>
<path d="M272.986 1135.89C269.851 1135.54 265.127 1135.13 262.084 1134.89L263.081 1135.99C263.407 1128.66 263.57 1121.33 263.366 1114C263.346 1109.5 263.061 1104.96 263.01 1100.46C263.529 1095.91 269.118 1094.31 271.591 1098.08C272.63 1099.51 272.63 1101.2 272.456 1102.99C272.263 1106.6 271.968 1110.11 271.968 1113.65C272.009 1120.77 272.375 1127.93 272.986 1135.89ZM273.169 1136.09C274.156 1125.43 274.523 1112.8 273.607 1101.64C273.515 1095.53 266.339 1092.61 262.705 1097.34C261.442 1098.84 261.107 1101.02 261.096 1103.01C260.913 1106.67 260.872 1110.34 260.791 1114C260.577 1121.71 260.771 1129.43 261.137 1137.14C265.168 1136.93 269.189 1136.51 273.169 1136.09Z" fill="#741211"/>
<path d="M197.13 1197.48C197.13 1216.24 210.953 1231.44 228.004 1231.44C245.044 1231.44 258.867 1216.24 258.867 1197.48C258.867 1178.73 245.044 1163.52 228.004 1163.52C210.953 1163.52 197.13 1178.73 197.13 1197.48Z" fill="#5D0E0D"/>
<path d="M228.004 1224.34C241.461 1224.34 252.414 1212.29 252.414 1197.48C252.414 1182.67 241.461 1170.62 228.004 1170.62C214.537 1170.62 203.584 1182.67 203.584 1197.48C203.584 1212.29 214.537 1224.34 228.004 1224.34Z" fill="#5D0E0D"/>
<path d="M228.006 1201.22C229.879 1201.22 231.406 1199.54 231.406 1197.48C231.406 1195.42 229.879 1193.74 228.006 1193.74C226.123 1193.74 224.607 1195.42 224.607 1197.48C224.607 1199.54 226.123 1201.22 228.006 1201.22Z" fill="#5D0E0D"/>
<path d="M224.607 1191.46H231.406V1165.8H224.607V1191.46Z" fill="#5D0E0D"/>
<path d="M229.471 1190.58L234.275 1195.87L250.766 1177.73L245.961 1172.44L229.471 1190.58Z" fill="#5D0E0D"/>
<path d="M233.484 1193.74V1201.22H256.805V1193.74H233.484Z" fill="#5D0E0D"/>
<path d="M234.275 1199.1L229.471 1204.39L245.961 1222.53L250.766 1217.24L234.275 1199.1Z" fill="#5D0E0D"/>
<path d="M231.406 1203.51H224.607V1229.16H231.406V1203.51Z" fill="#5D0E0D"/>
<path d="M226.527 1204.39L221.723 1199.1L205.232 1217.24L210.037 1222.53L226.527 1204.39Z" fill="#5D0E0D"/>
<path d="M222.516 1201.22V1193.74H199.195V1201.22H222.516Z" fill="#5D0E0D"/>
<path d="M221.723 1195.87L226.527 1190.58L210.037 1172.44L205.232 1177.73L221.723 1195.87Z" fill="#5D0E0D"/>
<path d="M117.574 1191.72H179.148V1203.24H117.574V1191.72Z" fill="#5D0E0D"/>
<path d="M276.855 1191.72H338.43V1203.24H276.855V1191.72Z" fill="#5D0E0D"/>
<path d="M156.228 1248.89H299.766V1260.4H156.228V1248.89Z" fill="#5D0E0D"/>
<path d="M319.995 1327.58L340.211 1305.34L319.995 1283.09L299.769 1305.34L319.995 1327.58Z" fill="#5D0E0D"/>
<path d="M332.699 1305.34C327.843 1309.76 323.385 1313.73 319.018 1318.39H320.962C319.893 1317.21 318.834 1316.02 317.735 1314.88C314.539 1311.54 311.027 1307.88 307.658 1304.79V1305.89C311.495 1300.69 316.096 1296.34 320.748 1292.05H319.231C323.395 1297.04 327.762 1300.89 332.699 1305.34ZM332.953 1305.34C329.187 1300 324.657 1294.19 319.913 1289.55C315.73 1294.88 311.668 1300.34 306.65 1304.79L306.171 1305.26L306.65 1305.89C310.813 1311.31 315.445 1316.62 320.005 1321.62C324.555 1316.54 329.054 1310.77 332.953 1305.34Z" fill="#741211"/>
<path d="M319.995 1394.75L340.211 1372.51L319.995 1350.27L299.769 1372.51L319.995 1394.75Z" fill="#5D0E0D"/>
<path d="M332.699 1372.51C327.843 1376.94 323.385 1380.91 319.018 1385.56H320.962C319.893 1384.39 318.834 1383.2 317.735 1382.06C314.539 1378.71 311.027 1375.06 307.658 1371.96V1373.06C311.495 1367.86 316.096 1363.52 320.748 1359.23H319.231C323.395 1364.21 327.762 1368.06 332.699 1372.51ZM332.953 1372.51C329.187 1367.17 324.657 1361.37 319.913 1356.72C315.73 1362.06 311.668 1367.52 306.65 1371.96L306.171 1372.44L306.65 1373.06C310.813 1378.48 315.445 1383.8 320.005 1388.8C324.555 1383.71 329.054 1377.94 332.953 1372.51Z" fill="#741211"/>
<path d="M319.995 1461.93L340.211 1439.69L319.995 1417.45L299.769 1439.69L319.995 1461.93Z" fill="#5D0E0D"/>
<path d="M332.699 1439.69C327.843 1444.12 323.385 1448.09 319.018 1452.74H320.962C319.893 1451.56 318.834 1450.37 317.735 1449.23C314.539 1445.89 311.027 1442.23 307.658 1439.14V1440.24C311.495 1435.04 316.096 1430.69 320.748 1426.4H319.231C323.395 1431.39 327.762 1435.24 332.699 1439.69ZM332.953 1439.69C329.187 1434.35 324.657 1428.55 319.913 1423.9C315.73 1429.23 311.668 1434.69 306.65 1439.14C306.65 1439.14 306.171 1439.61 306.171 1439.61L306.65 1440.24C310.813 1445.66 315.445 1450.97 320.005 1455.97C324.555 1450.89 329.054 1445.12 332.953 1439.69Z" fill="#741211"/>
<path d="M136.014 1327.58L156.23 1305.34L136.014 1283.09L115.788 1305.34L136.014 1327.58Z" fill="#5D0E0D"/>
<path d="M148.718 1305.34C143.863 1309.76 139.404 1313.73 135.037 1318.39H136.981C135.913 1317.21 134.854 1316.02 133.755 1314.88C130.558 1311.54 127.057 1307.88 123.677 1304.79V1305.89C127.515 1300.69 132.126 1296.34 136.768 1292.05H135.251C139.414 1297.04 143.781 1300.89 148.718 1305.34ZM148.973 1305.34C145.206 1300 140.677 1294.19 135.933 1289.55C131.749 1294.88 127.688 1300.34 122.669 1304.79L122.191 1305.26L122.669 1305.89C126.833 1311.31 131.464 1316.62 136.025 1321.62C140.575 1316.54 145.074 1310.77 148.973 1305.34Z" fill="#741211"/>
<path d="M136.014 1394.75L156.23 1372.51L136.014 1350.27L115.788 1372.51L136.014 1394.75Z" fill="#5D0E0D"/>
<path d="M148.718 1372.51C143.863 1376.94 139.404 1380.91 135.037 1385.56H136.981C135.913 1384.39 134.854 1383.2 133.755 1382.06C130.558 1378.71 127.057 1375.06 123.677 1371.96V1373.06C127.515 1367.86 132.126 1363.52 136.768 1359.23H135.251C139.414 1364.21 143.781 1368.06 148.718 1372.51ZM148.973 1372.51C145.206 1367.17 140.677 1361.37 135.933 1356.72C131.749 1362.06 127.688 1367.52 122.669 1371.96L122.191 1372.44L122.669 1373.06C126.833 1378.48 131.464 1383.8 136.025 1388.8C140.575 1383.71 145.074 1377.94 148.973 1372.51Z" fill="#741211"/>
<path d="M136.014 1461.93L156.23 1439.69L136.014 1417.45L115.788 1439.69L136.014 1461.93Z" fill="#5D0E0D"/>
<path d="M148.718 1439.69C143.863 1444.12 139.404 1448.09 135.037 1452.74H136.981C135.913 1451.56 134.854 1450.37 133.755 1449.23C130.558 1445.89 127.057 1442.23 123.677 1439.14V1440.24C127.515 1435.04 132.126 1430.69 136.768 1426.4H135.251C139.414 1431.39 143.781 1435.24 148.718 1439.69ZM148.973 1439.69C145.206 1434.35 140.677 1428.55 135.933 1423.9C131.749 1429.23 127.688 1434.69 122.669 1439.14C122.669 1439.14 122.191 1439.61 122.191 1439.61L122.669 1440.24C126.833 1445.66 131.464 1450.97 136.025 1455.97C140.575 1450.89 145.074 1445.12 148.973 1439.69Z" fill="#741211"/>
<path d="M169.71 1485.89H286.293V1343.72C286.293 1308.31 260.193 1279.6 228.006 1279.6C195.809 1279.6 169.71 1308.31 169.71 1343.72V1485.89Z" fill="#5D0E0D"/>
<path d="M279.836 1478.79V1343.73C279.836 1312.28 256.586 1286.7 228.003 1286.7C199.42 1286.7 176.16 1312.28 176.16 1343.73V1478.79H279.836Z" fill="#5D0E0D"/>
<path d="M228.004 1286.7C226.232 1350.71 226.222 1414.78 228.004 1478.79C229.775 1414.78 229.765 1350.71 228.004 1286.7Z" fill="#741211"/>
<path d="M240.748 1386.35C237.205 1386.25 237.134 1380.81 240.218 1380.07C243.343 1379.88 247.273 1379.84 250.469 1379.26C254.256 1378.75 254.877 1384.81 251.069 1385.23C247.782 1384.88 244.066 1386.34 240.748 1386.35ZM240.748 1386.64C244.473 1386.56 247.761 1388.47 251.568 1387.53C253.716 1386.81 254.887 1384.22 254.49 1381.96C253.828 1377.09 248.657 1377.44 245.176 1377.14C244.249 1377.11 242.112 1376.94 241.206 1376.96C234.813 1376.65 234.335 1386.38 240.748 1386.64Z" fill="#741211"/>
<path d="M237.235 1395.85C237.225 1391.04 241.735 1387.92 245.603 1388.01C249.552 1387.99 252.942 1391.46 253.4 1395.85C254.011 1400.8 249.919 1404.69 245.603 1404.02C241.714 1403.65 237.215 1400.76 237.235 1395.85ZM236.981 1395.85C236.788 1405.48 245.837 1410.12 251.914 1402.78C257.757 1396.21 254.337 1385.08 245.603 1384.98C240.248 1384.88 236.747 1390.52 236.981 1395.85Z" fill="#741211"/>
<path d="M204.318 1386.35C200.776 1386.25 200.704 1380.81 203.789 1380.07C206.914 1379.88 210.843 1379.84 214.039 1379.26C217.826 1378.75 218.447 1384.81 214.64 1385.23C211.352 1384.88 207.636 1386.34 204.318 1386.35ZM204.318 1386.64C208.044 1386.56 211.332 1388.47 215.139 1387.53C217.286 1386.81 218.457 1384.22 218.06 1381.96C217.398 1377.09 212.227 1377.44 208.746 1377.14C207.82 1377.11 205.682 1376.94 204.776 1376.96C198.384 1376.65 197.905 1386.38 204.318 1386.64Z" fill="#741211"/>
<path d="M200.81 1395.85C200.799 1391.04 205.309 1387.92 209.177 1388.01C213.126 1387.99 216.516 1391.46 216.974 1395.85C217.585 1400.8 213.493 1404.69 209.177 1404.02C205.288 1403.65 200.789 1400.76 200.81 1395.85ZM200.555 1395.85C200.362 1405.48 209.411 1410.12 215.488 1402.78C221.331 1396.21 217.911 1385.08 209.177 1384.98C203.823 1384.88 200.321 1390.52 200.555 1395.85Z" fill="#741211"/>
<path d="M521.141 1485.89H351.501V1224.34H521.141V1485.89Z" fill="#741211"/>
<path d="M351.501 1224.35H521.141L436.323 1163.53L351.501 1224.35Z" fill="#741211"/>
<path d="M470.863 1485.89H401.78V1402.85C401.78 1381.87 417.244 1364.85 436.321 1364.85C455.398 1364.85 470.863 1381.87 470.863 1402.85V1485.89Z" fill="#5D0E0D"/>
<path d="M418.537 1370.27C416.772 1408.78 416.758 1447.38 418.537 1485.89C420.318 1447.38 420.303 1408.78 418.537 1370.27Z" fill="#5D0E0D"/>
<path d="M376.396 1413.12L392.141 1395.8L376.396 1378.48L360.655 1395.8L376.396 1413.12Z" fill="#5D0E0D"/>
<path d="M386.391 1395.8C382.504 1399.48 378.963 1402.67 375.683 1406.01H377.107C374.355 1402.69 370.224 1398.05 367.312 1394.8V1396.81C370.24 1393.54 374.337 1388.93 377.104 1385.59H375.686C378.967 1388.93 382.507 1392.13 386.391 1395.8ZM386.391 1395.8C383.453 1391.93 380.008 1387.4 376.456 1383.26C373.079 1386.57 368.757 1391.28 365.49 1394.8L364.553 1395.8L365.49 1396.81C368.777 1400.34 373.064 1405.03 376.456 1408.35C380.011 1404.21 383.455 1399.68 386.391 1395.8Z" fill="#741211"/>
<path d="M376.396 1465.43L392.141 1448.11L376.396 1430.79L360.655 1448.11L376.396 1465.43Z" fill="#5D0E0D"/>
<path d="M386.391 1448.11C382.504 1451.79 378.963 1454.99 375.683 1458.33H377.107C374.355 1455 370.224 1450.36 367.312 1447.11V1449.12C370.24 1445.85 374.337 1441.24 377.104 1437.9H375.686C378.967 1441.24 382.507 1444.44 386.391 1448.11ZM386.391 1448.11C383.453 1444.24 380.008 1439.71 376.456 1435.57C373.079 1438.88 368.757 1443.59 365.49 1447.11L364.553 1448.11L365.49 1449.12C368.777 1452.65 373.064 1457.34 376.456 1460.66C380.011 1456.52 383.455 1451.99 386.391 1448.11Z" fill="#741211"/>
<path d="M521.141 1289.51H351.501V1274.28H521.141V1289.51Z" fill="#5D0E0D"/>
<path d="M373.436 1340.64H400.215V1307.54H373.436V1340.64Z" fill="#5D0E0D"/>
<path d="M371.43 1340.64H402.223V1346.83H371.43V1340.64Z" fill="#5D0E0D"/>
<path d="M386.824 1307.54C385.055 1318.46 385.042 1329.71 386.824 1340.64C388.607 1329.71 388.593 1318.46 386.824 1307.54Z" fill="#741211"/>
<path d="M436.32 1247.56L457.422 1224.34L436.32 1201.13L415.219 1224.34L436.32 1247.56Z" fill="#5D0E0D"/>
<path d="M449.719 1224.34C444.698 1229.26 440.024 1233.71 435.61 1238.3H437.033C433.297 1233.89 427.749 1227.69 423.837 1223.34V1225.35C427.77 1220.98 433.274 1214.82 437.031 1210.39C437.031 1210.39 435.612 1210.39 435.612 1210.39C440.027 1214.97 444.701 1219.42 449.719 1224.34ZM449.719 1224.34C445.629 1219.21 441.068 1213.47 436.368 1208.06C432.014 1212.45 426.281 1218.72 422.014 1223.34L421.089 1224.34L422.014 1225.35C426.303 1229.98 431.994 1236.22 436.368 1240.64C441.07 1235.22 445.632 1229.48 449.719 1224.34Z" fill="#741211"/>
<path d="M408.602 1247.56H365.016V1236.61H408.602V1247.56Z" fill="#5D0E0D"/>
<path d="M104.496 1485.89H-65.1416V1224.34H104.496V1485.89Z" fill="#741211"/>
<path d="M-65.1416 1224.34H104.496L19.6721 1163.52L-65.1416 1224.34Z" fill="#741211"/>
<path d="M54.2188 1485.89H-14.868V1402.85C-14.868 1381.87 0.594289 1364.85 19.6702 1364.85C38.7564 1364.85 54.2188 1381.87 54.2188 1402.85V1485.89Z" fill="#5D0E0D"/>
<path d="M19.6717 1364.85C17.9107 1405.17 17.9005 1445.57 19.6717 1485.89C21.4531 1445.57 21.4429 1405.17 19.6717 1364.85Z" fill="#5D0E0D"/>
<path d="M1.89435 1370.27C0.133332 1408.78 0.123153 1447.38 1.89435 1485.89C3.67572 1447.38 3.66554 1408.78 1.89435 1370.27Z" fill="#5D0E0D"/>
<path d="M37.8513 1370.27C36.0801 1408.78 36.0699 1447.38 37.8513 1485.89C39.6327 1447.38 39.6123 1408.78 37.8513 1370.27Z" fill="#5D0E0D"/>
<path d="M79.6121 1413.12L95.3594 1395.8L79.6121 1378.48L63.8647 1395.8L79.6121 1413.12Z" fill="#5D0E0D"/>
<path d="M89.6094 1395.8C85.7209 1399.48 82.1786 1402.67 78.9009 1406.01H80.326C77.5674 1402.69 73.4447 1398.05 70.5335 1394.8V1396.81C73.4549 1393.54 77.5572 1388.93 80.326 1385.59H78.9009C82.1888 1388.93 85.7209 1392.13 89.6094 1395.8ZM89.6094 1395.8C86.6676 1391.93 83.227 1387.4 79.6744 1383.26C76.2949 1386.57 71.9789 1391.28 68.7012 1394.8L67.7748 1395.8L68.7012 1396.81C71.9891 1400.34 76.2847 1405.03 79.6744 1408.35C83.227 1404.21 86.6676 1399.68 89.6094 1395.8Z" fill="#741211"/>
<path d="M79.6121 1465.43L95.3594 1448.11L79.6121 1430.79L63.8647 1448.11L79.6121 1465.43Z" fill="#5D0E0D"/>
<path d="M89.6094 1448.11C85.7209 1451.79 82.1786 1454.99 78.9009 1458.33H80.326C77.5674 1455 73.4447 1450.36 70.5335 1447.11V1449.12C73.4549 1445.85 77.5572 1441.24 80.326 1437.9H78.9009C82.1888 1441.24 85.7209 1444.44 89.6094 1448.11ZM89.6094 1448.11C86.6676 1444.24 83.227 1439.71 79.6744 1435.57C76.2949 1438.88 71.9789 1443.59 68.7012 1447.11L67.7748 1448.11L68.7012 1449.12C71.9891 1452.65 76.2847 1457.34 79.6744 1460.66C83.227 1456.52 86.6676 1451.99 89.6094 1448.11Z" fill="#741211"/>
<path d="M104.496 1289.51H-65.1416V1274.28H104.496V1289.51Z" fill="#5D0E0D"/>
<path d="M55.7808 1340.64H82.5625V1307.54H55.7808V1340.64Z" fill="#5D0E0D"/>
<path d="M53.7741 1340.64H84.5664V1346.83H53.7741V1340.64Z" fill="#5D0E0D"/>
<path d="M69.1795 1307.54C67.4083 1318.46 67.3981 1329.71 69.1795 1340.64C70.9609 1329.71 70.9507 1318.46 69.1795 1307.54Z" fill="#741211"/>
<path d="M19.6756 1247.56L40.7773 1224.34L19.6756 1201.13L-1.426 1224.34L19.6756 1247.56Z" fill="#5D0E0D"/>
<path d="M33.082 1224.35C28.0535 1229.27 23.3812 1233.71 18.9634 1238.3H20.3885C16.6527 1233.89 11.105 1227.69 7.19615 1223.34V1225.35C11.1253 1220.98 16.6323 1214.82 20.3885 1210.39C20.3885 1210.39 18.9736 1210.39 18.9736 1210.39C23.3812 1214.98 28.0636 1219.43 33.082 1224.35ZM33.082 1224.35C28.99 1219.22 24.4296 1213.47 19.7268 1208.06C15.3701 1212.46 9.63914 1218.72 5.37402 1223.34L4.44774 1224.34L5.37402 1225.35C9.65949 1229.98 15.3497 1236.22 19.7268 1240.64C24.4296 1235.23 28.99 1229.48 33.082 1224.35Z" fill="#741211"/>
<path d="M90.9805 1247.56H47.3929V1236.61H90.9805V1247.56Z" fill="#5D0E0D"/>
</g>
<path d="M430 2775H-3L-3 1744H430L430 2775Z" fill="url(#paint0_linear_716_11698)" fill-opacity="0.3"/>
</g>
<defs>
<linearGradient id="paint0_linear_716_11698" x1="213.5" y1="2775" x2="213.5" y2="1744" gradientUnits="userSpaceOnUse">
<stop stop-color="#090909"/>
<stop offset="1" stop-color="#090909" stop-opacity="0"/>
</linearGradient>
<clipPath id="clip0_716_11698">
<rect width="430" height="2775" fill="white"/>
</clipPath>
</defs>
</svg>
