<svg width="187" height="258" viewBox="0 0 187 258" fill="none" xmlns="http://www.w3.org/2000/svg">
<path d="M112.984 135.674C109.851 134.981 107.336 133.021 105.828 130.457C103.698 131.45 101.243 131.786 98.7697 131.239C92.7919 129.919 89.0158 124 90.3367 118.023C90.6672 116.527 91.2883 115.173 92.1229 113.999C95.3085 116.219 98.7755 118.102 102.482 119.587C103.962 123.213 105.485 126.822 107.032 130.416C107.158 130.708 107.459 130.904 107.753 131.226C110.627 128.532 113.465 125.804 116.264 123.041C122.724 123.76 129.095 123.251 135.114 121.682C133.066 124.369 129.85 126.021 126.395 126.053C126.369 126.286 126.338 126.521 126.297 126.755C126.269 126.917 126.237 127.078 126.201 127.239C125.277 131.421 122.107 134.524 118.239 135.56C116.594 135.678 114.937 135.737 113.272 135.734C113.177 135.714 113.081 135.695 112.984 135.674ZM91.628 113.82C89.0439 113.249 86.8714 111.82 85.3441 109.899C84.5233 108.866 83.891 107.692 83.4772 106.434C86.0081 109.196 88.8447 111.697 91.95 113.878C91.8426 113.862 91.7355 113.844 91.628 113.82ZM73.9185 50.5806C72.8023 49.8215 71.8417 48.8693 71.0772 47.7827C69.7279 45.8603 68.9876 43.5174 69.0654 41.0722C69.0871 40.3962 69.1717 39.7119 69.3233 39.0258C70.233 34.9089 73.3224 31.8452 77.1111 30.7658C77.9838 30.5165 78.8942 30.3736 79.8213 30.3472C78.0788 27.8846 77.3307 24.7315 78.0331 21.553C79.354 15.5752 85.2722 11.7991 91.25 13.12C92.4265 13.38 93.5142 13.8239 94.4976 14.4056C95.1048 13.1726 95.924 12.0864 96.9014 11.1794C99.4764 8.79392 103.136 7.6637 106.824 8.47869C109.951 9.16973 112.471 11.1196 113.976 13.6777C114.347 14.3091 114.658 14.9791 114.898 15.6759C115.29 16.8077 115.503 18.0129 115.508 19.2461C113.695 19.4726 111.907 19.7935 110.144 20.2032C108.013 18.8461 105.668 17.7027 103.31 17.1816C102.853 17.0807 102.395 17.0034 101.938 16.9507C94.0567 16.0657 86.2155 23.5294 84.0651 32.9684C83.8563 33.888 83.676 34.8046 83.5233 35.7218C79.5623 40.0173 76.287 45.0193 73.9185 50.5806ZM174.149 68.1087C174.044 66.2708 173.842 64.45 173.547 62.6532C174.166 64.2903 174.403 66.0873 174.175 67.9165C174.174 67.9182 174.174 67.92 174.174 67.9218C174.165 67.9847 174.157 68.0458 174.149 68.1087ZM172.206 56.6978C171.173 53.1117 169.762 49.6569 168.008 46.3943C168.29 36.7052 163.288 29.5541 155.865 27.914C154.331 27.5749 152.692 27.4718 150.976 27.629C149.71 26.7851 148.399 25.9924 147.051 25.2559C148.242 23.3455 149.982 21.8595 152.003 20.9703C154.081 20.055 156.458 19.77 158.845 20.2973C159.819 20.5125 160.734 20.8498 161.578 21.2898C165.917 23.5473 168.384 28.5101 167.278 33.5142C167.089 34.3697 166.797 35.1728 166.434 35.9288C167.355 35.8955 168.295 35.9626 169.238 36.1711C170.087 36.3586 170.892 36.6402 171.643 37.0004C173.506 37.891 175.043 39.2705 176.133 40.9433C176.737 42.366 177.293 43.808 177.8 45.2724C177.893 45.8497 177.938 46.4389 177.934 47.0337C177.931 47.81 177.846 48.5996 177.671 49.3898C176.956 52.6247 174.895 55.2125 172.206 56.6978Z" fill="#081D52"/>
<path d="M107.755 131.227C107.462 130.905 107.161 130.709 107.035 130.416C105.487 126.822 103.965 123.213 102.485 119.587C105.109 120.639 107.853 121.49 110.705 122.12C112.563 122.53 114.417 122.836 116.266 123.042C113.467 125.805 110.63 128.532 107.755 131.227ZM83.526 35.7221C83.6787 34.8049 83.859 33.8883 84.0678 32.9687C86.2182 23.5297 94.0594 16.066 101.941 16.951C102.397 17.0038 102.856 17.081 103.313 17.182C105.671 17.7031 108.016 18.8465 110.147 20.2035C99.9083 22.5921 90.6167 28.0296 83.526 35.7221ZM168.011 46.3947C163.989 38.9089 158.167 32.4276 150.978 27.6294C152.695 27.4721 154.333 27.5752 155.868 27.9143C163.29 29.5544 168.292 36.7055 168.011 46.3947Z" fill="#081D52"/>
<path d="M116.265 123.041C119.705 119.646 123.085 116.196 126.401 112.679C135.797 111.68 144.506 107.507 151.157 101.036C151.145 101.777 151.061 102.527 150.895 103.278C150.769 103.846 150.602 104.394 150.399 104.919C150.177 105.489 149.911 106.032 149.604 106.547C147.228 110.552 142.472 112.77 137.678 111.711C137.376 111.644 137.084 111.558 136.793 111.469C137.411 113.31 137.564 115.332 137.114 117.366C136.756 118.987 136.059 120.444 135.115 121.682C129.097 123.251 122.726 123.76 116.265 123.041ZM156.793 94.2508C159.572 90.0715 161.642 85.3174 162.789 80.1228C162.895 79.643 162.993 79.1613 163.082 78.6815C164.227 80.9011 164.636 83.513 164.055 86.143C163.188 90.0676 160.339 93.0439 156.793 94.2508ZM163.263 77.6264C164.019 72.8576 163.933 68.1265 163.105 63.5981C165.702 58.2018 167.811 52.6314 168.008 46.4681C168.008 46.444 168.01 46.4185 168.009 46.3944C169.764 49.6569 171.174 53.1117 172.208 56.6979C171.451 57.1153 170.646 57.4461 169.808 57.6791C171.508 58.952 172.805 60.6852 173.548 62.6533C173.843 64.4501 174.046 66.2708 174.15 68.1088C174.111 68.3869 174.06 68.6661 173.999 68.9431C172.862 74.0901 168.318 77.5908 163.263 77.6264Z" fill="#081D52"/>
<path d="M102.483 119.587C98.7762 118.102 95.3092 116.218 92.1236 113.999C92.143 113.97 92.1641 113.942 92.1848 113.915C92.1065 113.901 92.0277 113.889 91.9506 113.878C88.8454 111.697 86.0088 109.196 83.4779 106.434C82.8834 104.611 82.7521 102.61 83.1957 100.603C83.7082 98.2833 84.9145 96.2985 86.5488 94.8133C86.7553 94.6239 86.9687 94.4454 87.1879 94.2737C89.7244 98.0828 92.8828 101.48 96.5595 104.298C98.4314 109.44 100.418 114.53 102.483 119.587ZM84.1754 93.423C81.5384 92.8403 79.33 91.3644 77.7975 89.383C77.189 88.5955 76.687 87.7279 76.3083 86.8043C75.4779 84.7856 75.2353 82.5009 75.7424 80.2061C76.3683 77.3733 78.0288 75.0411 80.2377 73.509C80.6526 80.7824 82.9725 87.7145 86.7981 93.6769C86.1805 93.6922 85.5558 93.6559 84.9273 93.5614C84.6765 93.5245 84.4258 93.4783 84.1754 93.423ZM80.1768 71.8508C76.6412 71.0566 73.8805 68.6558 72.4957 65.5878C72.4943 65.5856 72.4929 65.5834 72.4916 65.5813C71.5444 63.4795 71.2417 61.0649 71.7773 58.6414C72.4165 55.7486 74.1369 53.3796 76.4146 51.8461C75.5178 51.5258 74.6816 51.0987 73.9192 50.5806C76.2876 45.0192 79.563 40.0172 83.524 35.7217C82.4618 42.1026 82.7217 48.4112 83.5431 54.657C82.5377 57.0138 81.7359 59.4951 81.1634 62.0862C80.4392 65.3635 80.1212 68.6362 80.1768 71.8508Z" fill="#081D52"/>
<path d="M119.615 29.3646C117.395 26.3156 114.887 23.5655 111.872 21.3803C111.315 20.9779 110.738 20.5822 110.143 20.2028C111.906 19.7932 113.694 19.4722 115.507 19.2457C115.508 19.8102 115.467 20.3802 115.382 20.9515C116.541 20.8284 117.738 20.8801 118.937 21.1451C123.315 22.1125 126.51 25.5436 127.39 29.6582C124.774 29.3133 122.173 29.2214 119.615 29.3646ZM137.637 32.3461C135.595 31.5248 133.466 30.8545 131.253 30.3509C133.802 27.1032 138.071 25.4175 142.371 26.3678C143.654 26.6511 144.826 27.1562 145.877 27.8176C146.163 26.8985 146.56 26.0408 147.05 25.2555C148.398 25.992 149.709 26.7847 150.975 27.6287C150.215 27.6995 149.443 27.8211 148.655 27.9949C145.048 28.7963 141.452 30.3087 138.095 32.0995C137.942 32.1804 137.789 32.263 137.637 32.3461Z" fill="#081D52"/>
<path d="M110.706 122.12C107.854 121.49 105.109 120.639 102.485 119.588C100.421 114.531 98.4337 109.441 96.5618 104.298C99.1072 106.25 101.902 107.926 104.908 109.267C106.415 113.088 107.996 116.878 109.62 120.648C109.708 120.852 109.918 120.988 110.123 121.214C113.066 118.455 115.954 115.649 118.781 112.784C121.353 112.986 123.902 112.944 126.402 112.679C123.087 116.196 119.707 119.647 116.267 123.042C114.418 122.837 112.563 122.53 110.706 122.12ZM83.5455 54.6577C82.7241 48.4118 82.4642 42.1032 83.5263 35.7223C90.617 28.0299 99.9086 22.5923 110.147 20.2037C110.742 20.5831 111.319 20.9788 111.876 21.3812C114.891 23.5664 117.399 26.3165 119.619 29.3655C103.906 30.2449 89.7965 40.0068 83.5455 54.6577ZM163.107 63.5986C160.57 49.7365 151.087 37.7621 137.641 32.347C137.793 32.264 137.946 32.1813 138.099 32.1004C141.456 30.3096 145.052 28.7972 148.659 27.9958C149.447 27.8221 150.219 27.7005 150.979 27.6296C158.168 32.4279 163.989 38.9091 168.011 46.3949C168.011 46.419 168.009 46.4445 168.01 46.4686C167.813 52.6319 165.703 58.2023 163.107 63.5986Z" fill="#081D52"/>
<path d="M110.122 121.214C109.917 120.988 109.706 120.852 109.618 120.648C107.995 116.878 106.414 113.087 104.907 109.267C106.666 110.05 108.495 110.72 110.389 111.265C110.651 111.879 110.913 112.494 111.178 113.106C111.248 113.271 111.415 113.378 111.58 113.561C112.14 113.035 112.697 112.509 113.25 111.98C115.098 112.376 116.947 112.642 118.78 112.784C115.953 115.648 113.065 118.455 110.122 121.214Z" fill="#081D52"/>
<path d="M111.579 113.56C111.414 113.378 111.247 113.271 111.177 113.105C110.912 112.494 110.65 111.879 110.388 111.264C111.232 111.508 112.088 111.725 112.958 111.917C113.055 111.938 113.152 111.96 113.249 111.98C112.696 112.508 112.139 113.035 111.579 113.56Z" fill="#081D52"/>
<path d="M126.402 112.679C131.588 107.178 136.616 101.512 141.466 95.6428C149.559 85.8536 157.232 75.6942 162.93 63.9609C162.99 63.8409 163.048 63.7205 163.107 63.5984C163.934 68.1268 164.021 72.8579 163.265 77.6267C162.993 77.6276 162.721 77.6193 162.445 77.601C162.677 77.9484 162.89 78.3098 163.083 78.6818C162.994 79.1616 162.897 79.6433 162.791 80.1231C161.643 85.3177 159.573 90.0718 156.794 94.2511C154.94 94.8829 152.892 95.0299 150.839 94.5763C150.053 94.4024 149.306 94.1451 148.601 93.8209C150.25 95.8131 151.195 98.3586 151.158 101.037C144.508 107.507 135.799 111.681 126.402 112.679Z" fill="#081D52"/>
<path d="M96.5608 104.298C92.884 101.48 89.7256 98.0829 87.1892 94.2739C87.4531 94.0676 87.7273 93.8729 88.0098 93.6911C88.0835 93.6427 88.1567 93.5959 88.2313 93.5514C88.1204 93.5676 88.0078 93.5834 87.8959 93.5957C87.5343 93.6416 87.1677 93.6679 86.7993 93.6771C82.9738 87.7147 80.6539 80.7825 80.239 73.5092C81.0982 72.9109 82.0428 72.437 83.0403 72.1005C82.1113 72.1357 81.1641 72.0689 80.2133 71.8588C80.201 71.8561 80.1886 71.8534 80.1781 71.851C80.1225 68.6364 80.4405 65.3637 81.1646 62.0864C81.7372 59.4952 82.5389 57.0139 83.5444 54.6572C83.7872 56.5054 84.0794 58.3478 84.4004 60.1855C85.0591 63.9441 85.8161 67.6597 86.659 71.3387C86.4864 71.4079 86.3097 71.4706 86.1335 71.5316C86.3222 71.5233 86.5114 71.5207 86.7017 71.5221C88.3041 78.4862 90.2162 85.3135 92.3635 92.0391C92.3631 92.0409 92.361 92.0422 92.3588 92.0436C92.361 92.0422 92.3627 92.0426 92.3645 92.043C93.6814 96.1635 95.0862 100.246 96.5608 104.298Z" fill="#081D52"/>
<path d="M125.357 38.707C125.27 38.5121 125.178 38.3196 125.074 38.1358C123.382 35.0998 121.617 32.1106 119.617 29.3654C122.176 29.2222 124.777 29.3141 127.393 29.659C127.715 31.164 127.728 32.7616 127.375 34.3632C127.014 35.9948 126.311 37.4619 125.357 38.707ZM128.913 37.8741C128.853 36.8673 128.929 35.8352 129.157 34.8016C129.528 33.1241 130.26 31.619 131.256 30.3517C133.468 30.8554 135.598 31.5257 137.64 32.3469C134.711 33.9493 131.901 35.874 128.913 37.8741Z" fill="#081D52"/>
<path d="M118.779 112.784C123.978 107.518 128.971 102.052 133.72 96.3067C139.385 89.4516 144.756 82.3412 148.744 74.1279C150.618 70.2702 152.159 66.2946 152.299 61.8838C152.516 55.0738 149.01 50.0458 143.801 48.8948C142.252 48.5526 140.552 48.5543 138.754 48.9526C136.229 49.5121 133.712 50.571 131.362 51.8239C128.509 53.3452 125.836 55.3148 122.793 57.2805C122.612 56.8687 122.461 56.4359 122.245 56.0495C119.747 51.5662 117.018 47.2299 113.006 44.3231C111.218 43.0272 109.124 41.8484 107.012 41.3819C106.691 41.3109 106.372 41.257 106.051 41.2211C100.536 40.6019 95.0451 45.8249 93.5404 52.4336C92.0725 58.884 92.6783 65.2265 93.7744 71.4849C96.0872 84.687 100.125 97.1399 104.906 109.267C101.901 107.926 99.1055 106.25 96.5601 104.298C95.0855 100.246 93.6807 96.1636 92.3638 92.0431L92.3628 92.0392C90.2156 85.3136 88.3035 78.4863 86.701 71.5222C86.6866 71.4616 86.6727 71.3994 86.6583 71.3388C85.8155 67.6598 85.0584 63.9442 84.3997 60.1856C84.0787 58.3479 83.7865 56.5055 83.5437 54.6573C89.7947 40.0064 103.905 30.2445 119.617 29.3652C121.617 32.1104 123.382 35.0996 125.073 38.1355C125.177 38.3194 125.27 38.5119 125.356 38.7067C125.531 39.0968 125.684 39.5007 125.854 39.8917C126.901 39.2165 127.918 38.542 128.913 37.8739C131.9 35.8737 134.71 33.949 137.639 32.3467C151.086 37.7617 160.568 49.7361 163.105 63.5982C163.047 63.7203 162.989 63.8407 162.929 63.9607C157.23 75.6941 149.557 85.8534 141.465 95.6426C136.614 101.512 131.586 107.178 126.401 112.679C123.9 112.944 121.351 112.986 118.779 112.784Z" fill="#081D52"/>
<path d="M113.251 111.98C119.32 106.191 125.084 100.137 130.458 93.6338C134.991 88.151 139.287 82.4625 142.478 75.8898C143.978 72.8059 145.21 69.6242 145.323 66.0955C145.497 60.6485 142.691 56.6264 138.525 55.7058C137.285 55.4318 135.925 55.4311 134.487 55.7516C132.466 56.1986 130.453 57.0451 128.572 58.0483C126.29 59.2647 124.153 60.8404 121.717 62.413C121.573 62.0834 121.452 61.7365 121.28 61.4283C119.281 57.8416 117.098 54.3734 113.888 52.0472C112.458 51.0097 110.783 50.0678 109.095 49.6948C108.837 49.6379 108.58 49.5941 108.324 49.5653C103.91 49.0691 99.5198 53.2494 98.3166 58.5354C97.1411 63.6962 97.6256 68.7705 98.5027 73.7762C100.817 86.9879 105.293 99.2657 110.39 111.264C108.495 110.72 106.666 110.049 104.907 109.267C100.126 97.1397 96.0882 84.6868 93.7754 71.4847C92.6793 65.2263 92.0735 58.8838 93.5414 52.4334C95.0461 45.8247 100.537 40.6017 106.052 41.221C106.373 41.2568 106.692 41.3107 107.013 41.3817C109.125 41.8482 111.219 43.027 113.007 44.3229C117.019 47.2297 119.748 51.566 122.246 56.0493C122.462 56.4357 122.613 56.8685 122.794 57.2803C125.837 55.3146 128.51 53.345 131.363 51.8237C133.713 50.5708 136.23 49.5119 138.755 48.9524C140.553 48.5541 142.253 48.5524 143.802 48.8946C149.011 50.0456 152.517 55.0736 152.3 61.8836C152.16 66.2944 150.619 70.27 148.745 74.1277C144.757 82.341 139.386 89.4514 133.721 96.3065C128.972 102.052 123.979 107.518 118.781 112.784C116.947 112.641 115.099 112.375 113.251 111.98Z" fill="#081D52"/>
<path d="M112.959 111.917C112.089 111.725 111.232 111.508 110.389 111.264C105.292 99.2653 100.816 86.9875 98.502 73.7758C97.6249 68.7701 97.1403 63.6958 98.3158 58.535C99.519 53.249 103.91 49.0688 108.323 49.5649C108.58 49.5938 108.836 49.6376 109.094 49.6945C110.782 50.0675 112.457 51.0093 113.887 52.0468C117.097 54.373 119.28 57.8412 121.279 61.4279C121.451 61.7361 121.573 62.083 121.716 62.4126C124.152 60.84 126.29 59.2643 128.571 58.048C130.452 57.0447 132.465 56.1982 134.486 55.7512C135.924 55.4307 137.284 55.4314 138.524 55.7054C142.69 56.626 145.496 60.6481 145.323 66.0951C145.209 69.6239 143.977 72.8056 142.478 75.8894C139.286 82.4621 134.99 88.1506 130.457 93.6334C125.084 100.136 119.319 106.19 113.25 111.979C113.153 111.96 113.056 111.938 112.959 111.917Z" fill="#081D52"/>
<path d="M115.989 133.674C112.856 132.981 110.34 131.021 108.833 128.457C106.703 129.45 104.248 129.786 101.775 129.239C95.7968 127.919 92.0207 122 93.3416 116.023C93.6721 114.527 94.2932 113.173 95.1278 111.999C98.3134 114.219 101.78 116.102 105.487 117.587C106.967 121.213 108.489 124.822 110.037 128.416C110.163 128.708 110.464 128.904 110.757 129.226C113.632 126.532 116.469 123.804 119.269 121.041C125.729 121.76 132.1 121.251 138.119 119.682C136.071 122.369 132.855 124.021 129.4 124.053C129.374 124.286 129.342 124.521 129.302 124.755C129.274 124.917 129.242 125.078 129.206 125.239C128.282 129.421 125.112 132.524 121.244 133.56C119.599 133.678 117.941 133.737 116.277 133.734C116.182 133.714 116.086 133.695 115.989 133.674ZM94.6328 111.82C92.0487 111.249 89.8763 109.82 88.349 107.899C87.5282 106.866 86.8959 105.692 86.4821 104.434C89.013 107.196 91.8496 109.697 94.9548 111.878C94.8474 111.862 94.7404 111.844 94.6328 111.82ZM76.9234 48.5806C75.8072 47.8215 74.8466 46.8693 74.0821 45.7827C72.7328 43.8603 71.9925 41.5174 72.0703 39.0722C72.092 38.3962 72.1766 37.7119 72.3282 37.0258C73.2379 32.9089 76.3273 29.8452 80.1159 28.7658C80.9887 28.5165 81.8991 28.3736 82.8262 28.3472C81.0837 25.8846 80.3356 22.7315 81.038 19.553C82.3588 13.5752 88.2771 9.79913 94.2549 11.12C95.4314 11.38 96.5191 11.8239 97.5024 12.4056C98.1097 11.1726 98.9288 10.0864 99.9062 9.17938C102.481 6.79392 106.141 5.6637 109.829 6.47869C112.956 7.16973 115.476 9.1196 116.981 11.6777C117.352 12.3091 117.663 12.9791 117.903 13.6759C118.295 14.8077 118.508 16.0129 118.513 17.2461C116.7 17.4726 114.912 17.7935 113.149 18.2032C111.018 16.8461 108.673 15.7027 106.315 15.1816C105.858 15.0807 105.4 15.0034 104.943 14.9507C97.0616 14.0657 89.2204 21.5294 87.07 30.9684C86.8612 31.888 86.6809 32.8046 86.5282 33.7218C82.5672 38.0173 79.2918 43.0193 76.9234 48.5806ZM177.154 66.1087C177.049 64.2708 176.847 62.45 176.552 60.6532C177.171 62.2903 177.408 64.0873 177.18 65.9165C177.179 65.9182 177.179 65.92 177.178 65.9218C177.17 65.9847 177.162 66.0458 177.154 66.1087ZM175.211 54.6978C174.178 51.1117 172.767 47.6569 171.013 44.3943C171.295 34.7052 166.292 27.5541 158.87 25.914C157.335 25.5749 155.697 25.4718 153.98 25.629C152.715 24.7851 151.404 23.9924 150.056 23.2559C151.247 21.3455 152.987 19.8595 155.008 18.9703C157.086 18.055 159.463 17.77 161.85 18.2973C162.824 18.5125 163.739 18.8498 164.583 19.2898C168.922 21.5473 171.389 26.5101 170.283 31.5142C170.094 32.3697 169.802 33.1728 169.439 33.9288C170.36 33.8955 171.3 33.9626 172.243 34.1711C173.092 34.3586 173.897 34.6402 174.648 35.0004C176.51 35.891 178.048 37.2705 179.138 38.9433C179.741 40.366 180.298 41.808 180.805 43.2724C180.898 43.8497 180.943 44.4389 180.939 45.0337C180.936 45.81 180.85 46.5996 180.676 47.3898C179.961 50.6247 177.9 53.2125 175.211 54.6978Z" fill="#4E255C"/>
<path d="M110.76 129.227C110.467 128.905 110.166 128.709 110.04 128.416C108.492 124.822 106.97 121.213 105.49 117.587C108.114 118.639 110.858 119.49 113.71 120.12C115.568 120.53 117.422 120.836 119.271 121.042C116.472 123.805 113.635 126.532 110.76 129.227ZM86.5309 33.7221C86.6836 32.8049 86.8639 31.8883 87.0727 30.9687C89.2231 21.5297 97.0643 14.066 104.946 14.951C105.402 15.0038 105.861 15.081 106.318 15.182C108.676 15.7031 111.021 16.8465 113.152 18.2035C102.913 20.5921 93.6216 26.0296 86.5309 33.7221ZM171.016 44.3947C166.994 36.9089 161.172 30.4276 153.983 25.6294C155.7 25.4721 157.338 25.5752 158.873 25.9143C166.295 27.5544 171.297 34.7055 171.016 44.3947Z" fill="#FB5E46"/>
<path d="M119.27 121.041C122.71 117.646 126.09 114.196 129.406 110.679C138.802 109.68 147.511 105.507 154.162 99.0363C154.15 99.7774 154.065 100.527 153.899 101.278C153.774 101.846 153.607 102.394 153.404 102.919C153.181 103.489 152.915 104.032 152.609 104.547C150.233 108.552 145.477 110.77 140.683 109.711C140.381 109.644 140.089 109.558 139.798 109.469C140.416 111.31 140.569 113.332 140.119 115.366C139.761 116.987 139.064 118.444 138.12 119.682C132.101 121.251 125.73 121.76 119.27 121.041ZM159.798 92.2508C162.577 88.0715 164.647 83.3174 165.794 78.1228C165.9 77.643 165.998 77.1613 166.087 76.6815C167.232 78.9011 167.641 81.513 167.06 84.143C166.192 88.0676 163.344 91.0439 159.798 92.2508ZM166.268 75.6264C167.024 70.8576 166.937 66.1265 166.11 61.5981C168.707 56.2018 170.816 50.6314 171.013 44.4681C171.013 44.444 171.014 44.4185 171.014 44.3944C172.769 47.6569 174.179 51.1117 175.213 54.6979C174.456 55.1153 173.65 55.4461 172.813 55.6791C174.513 56.952 175.81 58.6852 176.553 60.6533C176.848 62.4501 177.051 64.2708 177.155 66.1088C177.116 66.3869 177.065 66.6661 177.004 66.9431C175.867 72.0901 171.323 75.5908 166.268 75.6264Z" fill="#9F2B66"/>
<path d="M105.488 117.587C101.781 116.102 98.3141 114.218 95.1285 111.999C95.1479 111.97 95.169 111.942 95.1897 111.915C95.1113 111.901 95.0325 111.889 94.9555 111.878C91.8503 109.697 89.0137 107.196 86.4828 104.434C85.8883 102.611 85.757 100.61 86.2006 98.6028C86.7131 96.2833 87.9194 94.2985 89.5537 92.8133C89.7602 92.6239 89.9736 92.4454 90.1928 92.2737C92.7292 96.0828 95.8876 99.4798 99.5644 102.298C101.436 107.44 103.423 112.53 105.488 117.587ZM87.1803 91.423C84.5432 90.8403 82.3349 89.3644 80.8024 87.383C80.1939 86.5955 79.6919 85.7279 79.3132 84.8043C78.4828 82.7856 78.2402 80.5009 78.7472 78.2061C79.3732 75.3733 81.0337 73.0411 83.2426 71.509C83.6575 78.7824 85.9774 85.7145 89.8029 91.6769C89.1854 91.6922 88.5607 91.6559 87.9322 91.5614C87.6814 91.5245 87.4307 91.4783 87.1803 91.423ZM83.1817 69.8508C79.6461 69.0566 76.8854 66.6558 75.5006 63.5878C75.4992 63.5856 75.4978 63.5834 75.4964 63.5813C74.5493 61.4795 74.2466 59.0649 74.7822 56.6414C75.4214 53.7486 77.1418 51.3796 79.4194 49.8461C78.5227 49.5258 77.6865 49.0987 76.9241 48.5806C79.2925 43.0192 82.5679 38.0172 86.5289 33.7217C85.4667 40.1026 85.7266 46.4112 86.548 52.657C85.5426 55.0138 84.7408 57.4951 84.1683 60.0862C83.4441 63.3635 83.1261 66.6362 83.1817 69.8508Z" fill="#9F2B66"/>
<path d="M122.619 27.3646C120.4 24.3156 117.892 21.5655 114.877 19.3803C114.32 18.9779 113.743 18.5822 113.148 18.2028C114.911 17.7932 116.699 17.4722 118.512 17.2457C118.513 17.8102 118.472 18.3802 118.386 18.9515C119.546 18.8284 120.742 18.8801 121.942 19.1451C126.32 20.1125 129.515 23.5436 130.395 27.6582C127.779 27.3133 125.178 27.2214 122.619 27.3646ZM140.642 30.3461C138.6 29.5248 136.471 28.8545 134.258 28.3509C136.807 25.1032 141.076 23.4175 145.376 24.3678C146.659 24.6511 147.831 25.1562 148.882 25.8176C149.168 24.8985 149.565 24.0408 150.055 23.2555C151.403 23.992 152.714 24.7847 153.98 25.6287C153.22 25.6995 152.448 25.8211 151.66 25.9949C148.053 26.7963 144.457 28.3087 141.1 30.0995C140.947 30.1804 140.794 30.263 140.642 30.3461Z" fill="#9F2B66"/>
<path d="M113.711 120.12C110.858 119.49 108.114 118.639 105.49 117.588C103.426 112.531 101.439 107.441 99.5667 102.298C102.112 104.25 104.907 105.926 107.913 107.267C109.42 111.088 111.001 114.878 112.624 118.648C112.712 118.852 112.923 118.988 113.128 119.214C116.071 116.455 118.959 113.649 121.786 110.784C124.357 110.986 126.907 110.944 129.407 110.679C126.092 114.196 122.712 117.647 119.272 121.042C117.423 120.837 115.568 120.53 113.711 120.12ZM86.5503 52.6577C85.729 46.4118 85.469 40.1032 86.5312 33.7223C93.6219 26.0299 102.913 20.5923 113.152 18.2037C113.747 18.5831 114.324 18.9788 114.881 19.3812C117.896 21.5664 120.404 24.3165 122.623 27.3655C106.911 28.2449 92.8014 38.0068 86.5503 52.6577ZM166.112 61.5986C163.575 47.7365 154.092 35.7621 140.646 30.347C140.798 30.264 140.951 30.1813 141.104 30.1004C144.461 28.3096 148.057 26.7972 151.664 25.9958C152.452 25.8221 153.224 25.7005 153.984 25.6296C161.172 30.4279 166.994 36.9091 171.016 44.3949C171.016 44.419 171.014 44.4445 171.014 44.4686C170.818 50.6319 168.708 56.2023 166.112 61.5986Z" fill="#FD824B"/>
<path d="M113.127 119.214C112.922 118.988 112.711 118.852 112.623 118.648C111 114.878 109.419 111.087 107.912 107.267C109.67 108.05 111.5 108.72 113.394 109.265C113.656 109.879 113.918 110.494 114.183 111.106C114.253 111.271 114.42 111.378 114.585 111.561C115.145 111.035 115.702 110.509 116.255 109.98C118.103 110.376 119.952 110.642 121.785 110.784C118.958 113.648 116.07 116.455 113.127 119.214Z" fill="#FD4CFB"/>
<path d="M114.584 111.56C114.419 111.378 114.252 111.271 114.181 111.105C113.917 110.494 113.655 109.879 113.393 109.264C114.237 109.508 115.093 109.725 115.963 109.917C116.06 109.938 116.157 109.96 116.254 109.98C115.701 110.508 115.144 111.035 114.584 111.56Z" fill="#F839E5"/>
<path d="M129.407 110.679C134.593 105.178 139.62 99.5121 144.471 93.6428C152.564 83.8536 160.236 73.6942 165.935 61.9609C165.995 61.8409 166.053 61.7205 166.112 61.5984C166.939 66.1268 167.025 70.8579 166.27 75.6267C165.997 75.6276 165.725 75.6193 165.45 75.601C165.682 75.9484 165.895 76.3098 166.088 76.6818C165.999 77.1616 165.902 77.6433 165.796 78.1231C164.648 83.3177 162.578 88.0718 159.799 92.2511C157.944 92.8829 155.897 93.0299 153.844 92.5763C153.057 92.4024 152.311 92.1451 151.606 91.8209C153.254 93.8131 154.2 96.3586 154.163 99.0366C147.512 105.507 138.804 109.681 129.407 110.679Z" fill="#CB3069"/>
<path d="M99.5657 102.298C95.8889 99.48 92.7305 96.0829 90.1941 92.2739C90.4579 92.0676 90.7322 91.8729 91.0147 91.6911C91.0883 91.6427 91.1616 91.5959 91.2362 91.5514C91.1253 91.5676 91.0126 91.5834 90.9008 91.5957C90.5391 91.6416 90.1726 91.6679 89.8042 91.6771C85.9787 85.7147 83.6587 78.7825 83.2439 71.5092C84.1031 70.9109 85.0477 70.437 86.0452 70.1005C85.1161 70.1357 84.1689 70.0689 83.2182 69.8588C83.2059 69.8561 83.1935 69.8534 83.1829 69.851C83.1274 66.6364 83.4454 63.3637 84.1695 60.0864C84.7421 57.4952 85.5438 55.0139 86.5493 52.6572C86.7921 54.5054 87.0843 56.3478 87.4053 58.1855C88.064 61.9441 88.821 65.6597 89.6638 69.3387C89.4913 69.4079 89.3146 69.4706 89.1384 69.5316C89.327 69.5233 89.5163 69.5207 89.7066 69.5221C91.309 76.4862 93.2211 83.3135 95.3684 90.0391C95.368 90.0409 95.3658 90.0422 95.3637 90.0436C95.3658 90.0422 95.3676 90.0426 95.3694 90.043C96.6863 94.1635 98.0911 98.2461 99.5657 102.298Z" fill="#CB3069"/>
<path d="M128.361 36.707C128.275 36.5121 128.182 36.3196 128.079 36.1358C126.387 33.0998 124.622 30.1106 122.622 27.3654C125.181 27.2222 127.782 27.3141 130.398 27.659C130.72 29.164 130.733 30.7616 130.379 32.3632C130.019 33.9948 129.316 35.4619 128.361 36.707ZM131.918 35.8741C131.857 34.8673 131.934 33.8352 132.162 32.8016C132.533 31.1241 133.265 29.619 134.261 28.3517C136.473 28.8554 138.603 29.5257 140.645 30.3469C137.716 31.9493 134.906 33.874 131.918 35.8741Z" fill="#CB3069"/>
<path d="M121.784 110.784C126.983 105.518 131.976 100.052 136.725 94.3067C142.389 87.4516 147.76 80.3412 151.749 72.1279C153.623 68.2702 155.163 64.2946 155.304 59.8838C155.521 53.0738 152.014 48.0458 146.806 46.8948C145.257 46.5526 143.556 46.5543 141.759 46.9526C139.234 47.5121 136.717 48.571 134.366 49.8239C131.514 51.3452 128.841 53.3148 125.798 55.2805C125.617 54.8687 125.466 54.4359 125.25 54.0495C122.752 49.5662 120.023 45.2299 116.011 42.3231C114.223 41.0272 112.128 39.8484 110.017 39.3819C109.696 39.3109 109.377 39.257 109.055 39.2211C103.54 38.6019 98.05 43.8249 96.5453 50.4336C95.0774 56.884 95.6832 63.2265 96.7793 69.4849C99.092 82.687 103.13 95.1399 107.911 107.267C104.905 105.926 102.11 104.25 99.565 102.298C98.0904 98.2462 96.6856 94.1636 95.3687 90.0431L95.3677 90.0392C93.2204 83.3136 91.3084 76.4863 89.7059 69.5222C89.6915 69.4616 89.6775 69.3994 89.6632 69.3388C88.8204 65.6598 88.0633 61.9442 87.4046 58.1856C87.0836 56.3479 86.7914 54.5055 86.5486 52.6573C92.7996 38.0064 106.91 28.2445 122.622 27.3652C124.622 30.1104 126.387 33.0996 128.078 36.1355C128.182 36.3194 128.274 36.5119 128.361 36.7067C128.535 37.0968 128.689 37.5007 128.859 37.8917C129.906 37.2165 130.922 36.542 131.917 35.8739C134.905 33.8737 137.715 31.949 140.644 30.3467C154.09 35.7617 163.573 47.7361 166.11 61.5982C166.052 61.7203 165.994 61.8407 165.934 61.9607C160.235 73.6941 152.562 83.8534 144.47 93.6426C139.619 99.512 134.591 105.178 129.406 110.679C126.905 110.944 124.356 110.986 121.784 110.784Z" fill="#FE9E4D"/>
<path d="M116.256 109.98C122.325 104.191 128.089 98.1368 133.463 91.6338C137.995 86.151 142.292 80.4625 145.483 73.8898C146.982 70.8059 148.215 67.6242 148.328 64.0955C148.501 58.6485 145.696 54.6264 141.529 53.7058C140.289 53.4318 138.93 53.4311 137.492 53.7516C135.471 54.1986 133.458 55.0451 131.577 56.0483C129.295 57.2647 127.158 58.8404 124.722 60.413C124.578 60.0834 124.457 59.7365 124.285 59.4283C122.286 55.8416 120.103 52.3734 116.893 50.0472C115.463 49.0097 113.788 48.0678 112.099 47.6948C111.842 47.6379 111.585 47.5941 111.329 47.5653C106.915 47.0691 102.525 51.2494 101.321 56.5354C100.146 61.6962 100.631 66.7705 101.508 71.7762C103.822 84.9879 108.298 97.2657 113.395 109.264C111.5 108.72 109.671 108.049 107.912 107.267C103.131 95.1397 99.0931 82.6868 96.7803 69.4847C95.6842 63.2263 95.0784 56.8838 96.5463 50.4334C98.051 43.8247 103.541 38.6017 109.056 39.221C109.378 39.2568 109.697 39.3107 110.018 39.3817C112.129 39.8482 114.224 41.027 116.012 42.3229C120.024 45.2297 122.753 49.566 125.251 54.0493C125.467 54.4357 125.618 54.8685 125.799 55.2803C128.842 53.3146 131.515 51.345 134.368 49.8237C136.718 48.5708 139.235 47.5119 141.76 46.9524C143.557 46.5541 145.258 46.5524 146.807 46.8946C152.015 48.0456 155.522 53.0736 155.305 59.8836C155.165 64.2944 153.624 68.27 151.75 72.1277C147.762 80.341 142.39 87.4514 136.726 94.3065C131.977 100.052 126.984 105.518 121.785 110.784C119.952 110.641 118.104 110.375 116.256 109.98Z" fill="#FE58FD"/>
<path d="M115.964 109.917C115.094 109.725 114.237 109.508 113.394 109.264C108.297 97.2653 103.821 84.9875 101.507 71.7758C100.63 66.7701 100.145 61.6958 101.321 56.535C102.524 51.249 106.914 47.0688 111.328 47.5649C111.584 47.5938 111.841 47.6376 112.099 47.6945C113.787 48.0675 115.462 49.0093 116.892 50.0468C120.102 52.373 122.285 55.8412 124.284 59.4279C124.456 59.7361 124.578 60.083 124.721 60.4126C127.157 58.84 129.294 57.2643 131.576 56.048C133.457 55.0447 135.47 54.1982 137.491 53.7512C138.929 53.4307 140.289 53.4314 141.529 53.7054C145.695 54.626 148.501 58.6481 148.327 64.0951C148.214 67.6239 146.982 70.8056 145.483 73.8894C142.291 80.4621 137.995 86.1506 133.462 91.6334C128.089 98.1364 122.324 104.19 116.255 109.979C116.158 109.96 116.061 109.938 115.964 109.917Z" fill="#FB40F1"/>
<g filter="url(#filter0_d_312_24417)">
<path d="M-31.8894 75.7142L-38.3287 78.4979C-51.4857 84.1872 -61.3084 95.6387 -64.6303 109.163L-65.701 113.526C-65.701 113.526 -23.438 134.091 -21.5844 137.015C-19.738 139.927 7.63034 172.292 7.63034 172.292C7.63034 172.292 48.4537 204.307 53.1325 207.763C57.8191 211.23 75.9613 214.347 75.9613 214.347L87.9715 209.04L88.1085 208.985L92.4414 207.916L103.174 205.275C106.722 205.268 110.719 202.83 113.176 201.047L113.187 201.04C113.929 200.505 114.535 200.024 114.934 199.706L114.946 199.699C115.301 199.393 115.499 199.219 115.499 199.219C124.182 197.215 124.289 192.484 124.289 192.484C125.234 192.433 126.191 192.182 127.135 191.777C127.95 191.438 128.755 190.976 129.524 190.456L129.536 190.448C133.485 187.799 136.62 183.487 136.62 183.487L77.7135 161.195L60.961 133.798L78.8399 136.501C94.1524 169.475 112.354 155.013 113.413 153.761L87.7544 113.292L38.5555 102.385L21.3739 102.758L-31.8894 75.7142Z" fill="#D19074"/>
<path d="M59.4721 166.227C78.1255 181.736 102.071 190.759 127.137 191.778C127.799 191.501 128.454 191.146 129.089 190.743C129.236 190.65 129.381 190.554 129.525 190.457C103.938 189.914 79.3988 180.929 60.4351 165.149L59.4721 166.227Z" fill="#E45513"/>
<path d="M54.6424 182.376C71.4821 193.807 92.1607 200.382 113.176 201.049L113.188 201.041C113.93 200.506 114.535 200.026 114.934 199.708C93.6146 199.348 72.5675 192.812 55.491 181.225L54.6424 182.376Z" fill="#E45513"/>
<path d="M58.1122 197.618C66.5016 204.272 76.9707 208.252 87.9716 209.039L88.1086 208.984L92.4415 207.915L92.4516 207.796C80.1828 207.878 68.3133 203.882 59.0613 196.516L58.1122 197.618Z" fill="#E45513"/>
</g>
<defs>
<filter id="filter0_d_312_24417" x="-76.7012" y="70.7141" width="218.321" height="154.633" filterUnits="userSpaceOnUse" color-interpolation-filters="sRGB">
<feFlood flood-opacity="0" result="BackgroundImageFix"/>
<feColorMatrix in="SourceAlpha" type="matrix" values="0 0 0 0 0 0 0 0 0 0 0 0 0 0 0 0 0 0 127 0" result="hardAlpha"/>
<feOffset dx="-3" dy="3"/>
<feGaussianBlur stdDeviation="4"/>
<feComposite in2="hardAlpha" operator="out"/>
<feColorMatrix type="matrix" values="0 0 0 0 0 0 0 0 0 0 0 0 0 0 0 0 0 0 0.25 0"/>
<feBlend mode="normal" in2="BackgroundImageFix" result="effect1_dropShadow_312_24417"/>
<feBlend mode="normal" in="SourceGraphic" in2="effect1_dropShadow_312_24417" result="shape"/>
</filter>
</defs>
</svg>
