<svg width="739" height="880" viewBox="0 0 739 880" fill="none" xmlns="http://www.w3.org/2000/svg">
<g filter="url(#filter0_d_500_2772)">
<path d="M366.234 349.689C336.975 346.32 334.933 344.516 324.254 345.56C313.826 346.579 292.589 351.641 266.226 372.571C237.065 395.723 218.946 424.247 209.706 440.971C219.908 447.429 234.334 455.706 252.454 463.413C276.457 473.624 344.346 502.501 426.654 482.65C505.564 463.621 551.674 410.91 566.845 391.855C558.372 375.521 548.332 364.496 541.076 357.97C529.27 347.353 516.838 340.679 505.977 336.452C493.077 331.429 478.626 333.054 466.886 340.389C458.401 345.691 450.922 348.63 445.374 350.378C426.184 356.424 405.94 354.261 366.234 349.689Z" fill="#D19074"/>
<path d="M408.909 357.491L387.229 496.503L452.27 495.227L408.909 357.491Z" fill="#F0F1EB"/>
<path d="M440.218 393.87C439.684 394.073 429.806 397.775 418.16 399.399C370.537 406.034 315.436 374.806 301.108 366.316C331.509 375.992 357.375 379.192 375.477 380.265C391.8 381.233 407.453 382.058 427.15 378.244C457.361 372.395 479.514 359.034 492.408 349.737C485.129 361.182 468.826 382.978 440.218 393.87Z" fill="#F0F1EB"/>
<path d="M303.659 400.112C303.659 400.112 438.206 442.836 494.959 383.533C494.959 383.533 424.816 493.212 303.659 400.112Z" fill="#F0F1EB"/>
<path d="M287.935 434.604C287.935 434.604 449.259 471.241 514.377 409.426C514.377 409.426 435.273 522.184 287.935 434.604Z" fill="#F0F1EB"/>
<path d="M269.275 384.558C263.016 393.056 263.242 403.85 269.78 408.664C276.317 413.478 286.69 410.493 292.949 401.993C299.208 393.495 298.983 382.703 292.445 377.887C285.908 373.073 275.534 376.06 269.275 384.558Z" fill="#F0F1EB"/>
<path d="M211.312 482.109C207.57 479.121 206.959 473.665 209.948 469.922L256.13 412.097C259.12 408.355 264.576 407.744 268.318 410.733C272.061 413.722 272.671 419.18 269.682 422.922L223.501 480.745C220.512 484.488 215.055 485.098 211.312 482.109Z" fill="#F0F1EB"/>
<path d="M501.793 373.954C509.256 381.417 519.96 382.814 525.702 377.072C531.442 371.332 530.046 360.628 522.583 353.165C515.119 345.7 504.416 344.305 498.675 350.045C492.934 355.787 494.33 366.491 501.793 373.954Z" fill="#F0F1EB"/>
<path d="M574.553 459.968C570.576 462.636 565.188 461.574 562.521 457.597L521.299 396.138C518.63 392.16 519.692 386.772 523.671 384.105C527.648 381.437 533.035 382.498 535.703 386.475L576.925 447.934C579.593 451.913 578.532 457.3 574.553 459.968Z" fill="#F0F1EB"/>
<path d="M272.764 569.081L251.994 600.959L95.5 830.5H2L153.594 629.871L209.925 541.988C245.656 514.879 272.764 569.081 272.764 569.081Z" fill="#D19074"/>
<path d="M167.357 631.758C162.81 631.758 157.946 631.259 153.595 629.871L169.001 605.834C177.135 607.894 186.155 609.117 196.102 609.117C199.694 609.117 203.408 608.957 207.242 608.62C220.964 607.417 236.254 603.942 253.233 597.367C253.723 597.178 254.217 596.984 254.711 596.789L251.994 600.959C228.598 620.114 198.647 631.238 168.369 631.75C168.035 631.755 167.696 631.758 167.357 631.758Z" fill="#B9765B"/>
<path d="M700.932 674.503L633.119 658.735C633.119 658.735 576.633 565.012 549.416 517.52C540.623 502.203 534.89 491.685 535.077 490.691C543.481 445.872 601.365 461.749 601.365 461.749L623.332 508.821L700.932 674.503Z" fill="#D19074"/>
<path d="M577.753 521.792C568.096 521.792 558.638 520.127 549.415 517.52C545.951 511.484 542.962 506.195 540.622 501.938C551.48 500.894 586.289 497.218 614.798 490.535L623.331 508.82C612.752 515.112 600.945 519.369 588.734 521.046C585.048 521.556 581.386 521.792 577.753 521.792Z" fill="#B9765B"/>
<path d="M305.905 651.221L158 835.5L659.5 856.5L505.593 643.002C483.261 650.816 452.651 658.952 415.663 661.48C369.764 664.618 331.702 657.916 305.905 651.221Z" fill="#4E8AF5"/>
<path d="M274.545 550.276C271.963 553.385 305.905 651.221 305.905 651.221C305.905 651.221 363.727 697.283 429.39 667.881L476.432 656.121C476.432 656.121 490.152 665.921 503.873 638.48C517.594 611.039 549.935 543.416 537.194 502.254C524.454 461.092 317.666 498.335 274.545 550.276Z" fill="#F0F1EB"/>
<path d="M410.836 677.458L410.25 676.019C433.674 666.509 450.247 655.594 460.475 630.602L461.914 631.191C451.479 656.686 434.632 667.797 410.836 677.458Z" fill="#4E8AF5"/>
<path d="M469.306 660.243L468.761 658.791C475.275 656.348 480.352 650.636 482.008 643.88L483.516 644.25C481.739 651.497 476.294 657.626 469.306 660.243Z" fill="#4E8AF5"/>
<path d="M438.23 357.552C434.018 361.437 422.997 370.471 407.35 370.974C386.421 371.628 372.347 356.526 369.052 352.838C368.046 326.192 367.043 299.568 366.039 272.944C365.385 255.946 364.751 238.945 364.119 221.945C365.472 220.57 368.637 217.536 373.285 214.613C379.547 210.684 388.474 206.952 399.319 207.738C408.18 208.392 415.534 211.841 421.251 215.901C423.825 217.69 426.073 219.632 427.973 221.465C431.792 225.153 434.192 228.492 435.152 229.823L437.641 331.911L437.75 336.82L438.23 357.552Z" fill="#D19074"/>
<path d="M437.641 331.911C395.107 327.174 374.834 295.052 366.039 272.944C365.965 270.994 365.89 269.046 365.815 267.096C365.957 266.8 366.1 266.5 366.238 266.2C372.07 275.178 377.529 283.461 379.626 285.319C388.073 292.806 402.693 294.451 413.508 296.522C421.175 297.99 429.023 299.385 436.859 299.874L437.641 331.911Z" fill="#B9765B"/>
<path d="M392.352 303.713C390.124 309.757 391.634 313.518 392.17 314.656C396.489 323.833 414.088 325.472 420.132 318.441C421.684 316.634 422.274 314.489 422.504 312.761C422.757 310.738 423.009 308.716 423.262 306.695C421.764 307.743 415.376 311.966 406.579 310.864C398.623 309.868 393.734 305.147 392.352 303.713Z" fill="#F0F1EB"/>
<path d="M391.348 319.778C389.12 325.821 390.63 329.582 391.166 330.721C395.485 339.897 413.083 341.536 419.128 334.505C420.68 332.698 421.27 330.553 421.5 328.825C421.752 326.803 422.005 324.782 422.258 322.759C420.76 323.808 414.371 328.03 405.575 326.93C397.618 325.933 392.729 321.213 391.348 319.778Z" fill="#F0F1EB"/>
<path d="M390.678 338.187C388.45 344.229 389.96 347.992 390.496 349.13C394.815 358.305 412.415 359.944 418.458 352.913C420.01 351.108 420.6 348.963 420.83 347.234C421.082 345.212 421.335 343.19 421.588 341.167C420.091 342.216 413.701 346.44 404.905 345.338C396.948 344.342 392.06 339.621 390.678 338.187Z" fill="#F0F1EB"/>
<path d="M644.775 456.474C641.527 454.525 627.272 439.028 617.732 428.466L572.774 372.271C572.774 372.271 478.992 464.922 386.339 464.922C293.685 464.922 202.747 435.722 202.747 435.722L107.249 559.836C107.249 559.836 158.877 658.879 295.711 576.145C304.012 571.125 311.366 564.709 317.743 557.402C328.633 544.921 351.65 524.357 384.078 525.938C430.406 528.199 460.913 558.706 521.928 513.509C527.172 509.625 532.28 505.876 537.258 502.249C539.925 502.019 697.778 488.275 644.775 456.474Z" fill="#F0F1EB"/>
<path d="M537.25 502.249C532.279 505.869 527.168 509.628 521.933 513.512C460.911 558.704 430.399 528.193 384.074 525.94C351.652 524.356 328.629 544.924 317.739 557.399C311.369 564.716 304.005 571.132 295.71 576.15C158.876 658.875 107.253 559.838 107.253 559.838L121.918 540.777C137.36 562.029 192.23 618.421 305.699 549.802C313.995 544.785 321.358 538.369 327.728 531.067C338.618 518.592 361.641 498.024 394.063 499.608C440.389 501.861 470.9 532.372 531.922 487.18C537.157 483.296 542.268 479.537 547.239 475.917C548.948 475.762 613.885 470.107 646.835 457.772C693.456 488.656 539.891 502.016 537.25 502.249Z" fill="#F02DE3"/>
<path d="M237.078 583.038L236.272 580.691C231.075 565.572 216.296 554.39 200.334 553.496C187.311 552.786 171.31 558.002 162.68 569.296C161.791 571.292 160.651 573.178 159.254 574.894L155.2 579.873L157.951 574.071C158.896 572.077 160.037 570.217 161.344 568.493C165.72 558.494 163.447 545.609 155.201 538.263C145.357 529.492 128.654 530.082 119.459 539.528L118.346 538.444C128.097 528.43 145.803 527.804 156.234 537.102C163.948 543.975 166.728 555.418 164.091 565.295C173.419 555.683 188.187 551.263 200.42 551.946C216.186 552.827 230.84 563.375 236.877 577.911C237.382 575.922 237.824 573.939 238.252 572.006C239.904 564.57 241.463 557.546 246.262 551.191C253.531 541.559 263.862 535.808 273.898 535.803H273.907C281.504 535.803 288.689 539.568 293.042 545.092C292.207 535.196 296.209 525.424 304.609 517.64C315.221 507.811 332.012 505.415 344.99 511.735C345.902 497.028 355.481 485.543 369.677 482.297C384.11 478.991 400.096 486.088 407.481 498.872C414.505 487.04 431.965 481.875 445.33 483.057C458.205 484.193 469.942 492.923 474.992 504.755C476.942 492.181 487.874 482.981 498.092 478.37C510.021 472.987 524.623 474.802 534.922 482.818C536.084 469.17 543.633 458.872 554.439 456.382C566.176 453.68 579.334 459.123 585.926 469.164C588.421 458.463 599.407 446.613 609.319 444.409C619.908 442.057 633.465 450.595 639.476 460.052L638.166 460.887C632.555 452.057 619.462 443.744 609.656 445.925C599.825 448.112 588.438 460.981 587.091 471.423L586.785 473.784L585.638 471.699C579.821 461.118 566.564 455.179 554.789 457.895C542.022 460.839 536.888 474.017 536.37 484.408L536.294 485.985L535.092 484.96C525.201 476.518 510.588 474.438 498.732 479.787C488.008 484.623 476.471 494.66 476.243 508.328L476.161 513.246L474.724 508.542C470.781 495.633 458.636 485.79 445.193 484.606C431.875 483.434 414.36 488.719 408.17 500.837L407.481 502.181L406.788 500.842C400.065 487.877 384.259 480.554 370.023 483.812C355.936 487.032 346.919 498.215 346.489 512.996L346.452 514.25L345.345 513.66C332.793 506.955 316.105 509.109 305.666 518.782C296.751 527.04 293.014 537.623 295.029 548.101C296.217 550.286 296.984 552.655 297.217 555.114L297.673 559.912L295.734 555.499C294.729 553.217 293.999 550.905 293.536 548.587C289.885 542.073 282.158 537.357 273.909 537.357H273.898C264.347 537.362 254.479 542.882 247.502 552.125C242.907 558.213 241.383 565.076 239.769 572.344C239.169 575.046 238.547 577.843 237.754 580.65L237.078 583.038Z" fill="#4E8AF5"/>
<path d="M572.78 372.267C572.78 372.267 478.994 464.918 386.342 464.918C293.691 464.918 202.748 435.728 202.748 435.728L199.268 440.249L199.004 440.124C205.195 432.627 211.387 425.128 217.578 417.631C239.097 428.742 318.809 466.618 418.379 443.003C496.044 424.581 544.161 378.622 562.635 358.913C566.017 363.364 569.398 367.816 572.78 372.267Z" fill="#4E8AF5"/>
<path d="M581.765 606.454C585.5 607.387 700.997 674.36 700.997 674.36C700.997 674.36 729.664 782.997 569.355 660.182L581.765 606.454Z" fill="#D19074"/>
<path d="M585.109 607.867L586.36 615.294C588.914 630.471 583.885 645.936 572.893 656.706L569.346 660.18C569.346 660.18 523.75 633.724 519.804 633.724C515.874 633.724 468.01 627.525 468.01 627.525C468.01 627.525 412.27 608.945 406.087 606.693C399.888 604.44 385.814 589.805 385.814 589.805L383.592 575.886L383.561 575.731L381.945 571.195L377.937 559.963C375.778 556.747 375.685 551.729 375.902 548.482V548.467C375.964 547.488 376.058 546.664 376.12 546.121V546.106C376.197 545.608 376.244 545.329 376.244 545.329C372.873 536.319 377.362 533.506 377.362 533.506C376.834 532.621 376.492 531.611 376.306 530.524C376.135 529.591 376.089 528.597 376.12 527.603V527.587C376.259 522.492 378.497 517.179 378.497 517.179L435.914 557.71L472.515 557.151L459 542.517C417.909 547.581 420.721 522.803 421.28 521.125H475.902L516.433 559.403L526.562 575.171L585.109 607.867Z" fill="#D19074"/>
<path d="M442.206 577.113C415.89 569.128 392.587 552.629 376.306 530.523C376.168 529.765 376.11 528.968 376.11 528.162C376.11 527.975 376.113 527.789 376.12 527.602C392.261 550.455 415.89 567.512 442.657 575.622L442.206 577.113Z" fill="#E45513"/>
<path d="M429.607 590.753C408.324 582.069 389.371 567.124 375.902 548.481V548.466C375.964 547.488 376.058 546.664 376.12 546.12C389.48 565.213 408.619 580.516 430.198 589.324L429.607 590.753Z" fill="#E45513"/>
<path d="M412.814 596.361C401.287 592.586 391.064 585.393 383.592 575.886L383.561 575.73L381.945 571.194L382.054 571.117C389.464 582.27 400.556 590.722 413.295 594.87L412.814 596.361Z" fill="#E45513"/>
<path d="M611.632 622.936C610.518 622.301 609.426 621.682 608.351 621.071L608.483 620.649C609.219 620.878 609.955 621.116 610.687 621.359C611.004 621.887 611.319 622.414 611.632 622.936Z" fill="#182021"/>
<path d="M663.313 652.577C661.557 651.565 659.768 650.534 657.961 649.493C644.736 638.424 629.505 629.691 613.37 623.926C612.788 623.593 612.205 623.262 611.632 622.936C611.32 622.414 611.004 621.887 610.687 621.359C630.099 627.781 648.334 638.452 663.554 652.313L663.313 652.577Z" fill="#E45513"/>
<path d="M662.507 653.462C661.019 652.108 659.503 650.784 657.96 649.493C659.767 650.534 661.556 651.565 663.312 652.577L662.507 653.462ZM613.369 623.926C611.597 623.291 609.812 622.694 608.018 622.132L608.35 621.072C609.425 621.682 610.517 622.302 611.631 622.936C612.204 623.262 612.787 623.593 613.369 623.926Z" fill="#E45513"/>
<path d="M460.831 448.763C460.831 444.9 458.527 441.578 455.221 440.082C458.234 438.479 460.287 435.311 460.287 431.662C460.287 426.396 456.018 422.127 450.753 422.127C449.922 422.127 449.121 422.245 448.353 422.444C448.518 421.741 448.614 421.013 448.614 420.259C448.614 414.995 444.345 410.725 439.08 410.725C434.089 410.725 430 414.563 429.587 419.447C428.582 419.086 427.503 418.88 426.374 418.88C421.109 418.88 416.84 423.147 416.84 428.414C416.84 433.679 421.109 437.948 426.374 437.948C431.365 437.948 435.454 434.111 435.868 429.228C436.873 429.588 437.951 429.795 439.08 429.795C439.911 429.795 440.713 429.677 441.48 429.478C441.316 430.18 441.219 430.909 441.219 431.662C441.219 435.526 443.523 438.846 446.828 440.343C443.815 441.945 441.762 445.114 441.762 448.763C441.762 451.468 442.893 453.902 444.699 455.638C440.118 456.334 436.604 460.276 436.604 465.052C436.604 468.109 438.049 470.823 440.286 472.568C439.633 472.426 438.959 472.349 438.266 472.349C433 472.349 428.732 476.616 428.732 481.883C428.732 483.674 429.234 485.344 430.095 486.776C429.834 486.755 429.573 486.736 429.307 486.736C424.042 486.736 419.773 491.005 419.773 496.27C419.773 496.619 419.795 496.964 419.831 497.303C418.488 497.614 417.256 498.207 416.195 499.018C414.455 497.144 411.978 495.965 409.219 495.965C409.055 495.965 408.897 495.982 408.735 495.99C409.24 494.828 409.523 493.546 409.523 492.198C409.523 486.933 405.256 482.664 399.989 482.664C398.779 482.664 397.626 482.899 396.561 483.31C398.358 481.577 399.48 479.148 399.48 476.453C399.48 471.188 395.211 466.919 389.946 466.919C389.108 466.919 388.3 467.037 387.527 467.241C390.294 465.572 392.15 462.546 392.15 459.08C392.15 454.221 388.513 450.22 383.817 449.629C385.444 447.918 386.449 445.611 386.449 443.063C386.449 440.264 385.235 437.755 383.315 436.01C386.725 435.153 389.4 432.465 390.238 429.046C391.171 429.352 392.167 429.523 393.203 429.523C394.26 429.523 395.274 429.344 396.225 429.026C396.561 433.988 400.68 437.91 405.726 437.91C410.993 437.91 415.262 433.643 415.262 428.377C415.262 423.112 410.993 418.843 405.726 418.843C404.67 418.843 403.655 419.021 402.705 419.34C402.369 414.378 398.249 410.454 393.203 410.454C388.721 410.454 384.973 413.55 383.952 417.718C383.019 417.412 382.023 417.241 380.987 417.241C375.722 417.241 371.453 421.51 371.453 426.775C371.453 429.574 372.666 432.083 374.586 433.828C370.449 434.867 367.381 438.602 367.381 443.063C367.381 447.921 371.016 451.922 375.714 452.513C374.086 454.224 373.081 456.532 373.081 459.08C373.081 464.345 377.35 468.614 382.616 468.614C383.454 468.614 384.261 468.494 385.035 468.293C382.268 469.961 380.412 472.987 380.412 476.453C380.412 481.72 384.679 485.987 389.946 485.987C391.156 485.987 392.309 485.752 393.374 485.342C391.577 487.076 390.455 489.504 390.455 492.198C390.455 497.464 394.724 501.732 399.989 501.732C400.152 501.732 400.312 501.716 400.474 501.709C399.969 502.871 399.685 504.152 399.685 505.501C399.685 510.766 403.954 515.035 409.219 515.035C411.397 515.035 413.396 514.297 415.001 513.068C416.742 514.941 419.219 516.121 421.978 516.121C427.244 516.121 431.512 511.852 431.512 506.585C431.512 506.237 431.491 505.892 431.454 505.554C435.684 504.578 438.843 500.797 438.843 496.27C438.843 494.479 438.339 492.809 437.479 491.378C437.74 491.398 438.001 491.417 438.266 491.417C443.531 491.417 447.8 487.148 447.8 481.883C447.8 478.825 446.355 476.111 444.118 474.367C444.771 474.508 445.445 474.586 446.138 474.586C451.404 474.586 455.672 470.317 455.672 465.052C455.672 462.349 454.542 459.913 452.734 458.178C457.315 457.483 460.831 453.539 460.831 448.763Z" fill="#081D52"/>
<path d="M415.013 433.301C418.145 430.138 420.829 427.067 423.848 424.487C426.335 422.36 429.074 420.423 431.954 419.08C440.899 414.915 449.627 420.331 451.631 431.002C452.631 436.331 451.838 441.51 450.612 446.633C448.004 457.544 443.446 467.499 438.467 477.221C432.023 489.809 424.705 501.744 416.761 513.357C416.455 513.141 416.166 513.032 416.006 512.81C403.708 495.734 392.218 478.055 383.968 458.035C380.994 450.819 378.586 443.368 378.638 435.242C378.692 426.916 383.892 419.194 390.674 418.474C393.662 418.159 396.974 419.108 399.838 420.351C405.423 422.776 409.846 427.255 414.031 431.971C414.392 432.377 414.688 432.857 415.013 433.301Z" fill="#F24040"/>
<path d="M415.667 448.471C417.858 446.256 419.738 444.106 421.85 442.299C423.592 440.811 425.509 439.455 427.525 438.516C433.786 435.6 439.896 439.391 441.299 446.862C441.999 450.592 441.443 454.216 440.586 457.803C438.76 465.44 435.569 472.408 432.085 479.215C427.574 488.025 422.452 496.382 416.89 504.51C416.676 504.358 416.474 504.283 416.362 504.128C407.754 492.173 399.71 479.798 393.935 465.784C391.854 460.732 390.168 455.518 390.204 449.829C390.241 444 393.882 438.596 398.628 438.092C400.721 437.872 403.039 438.535 405.044 439.407C408.953 441.103 412.049 444.238 414.979 447.539C415.232 447.824 415.439 448.159 415.667 448.471Z" fill="#F02DE3"/>
<path d="M415.716 452.981C417.47 451.209 418.972 449.489 420.662 448.044C422.056 446.853 423.589 445.768 425.203 445.018C430.212 442.684 435.099 445.717 436.222 451.693C436.782 454.678 436.337 457.578 435.651 460.446C434.19 466.557 431.638 472.131 428.849 477.576C425.24 484.625 421.144 491.309 416.695 497.812C416.522 497.69 416.362 497.631 416.272 497.505C409.385 487.943 402.951 478.042 398.33 466.831C396.665 462.79 395.317 458.619 395.346 454.067C395.376 449.405 398.287 445.08 402.085 444.678C403.758 444.501 405.613 445.032 407.218 445.729C410.345 447.087 412.822 449.594 415.166 452.235C415.368 452.462 415.534 452.731 415.716 452.981Z" fill="#D424A0"/>
<path d="M351.199 463.623C346.229 463.267 341.307 462.847 336.431 462.37C336.431 462.369 336.431 462.369 336.431 462.366C341.307 462.843 346.229 463.262 351.197 463.618C351.199 463.619 351.199 463.621 351.199 463.623Z" fill="#F7C54B"/>
<path d="M466.696 445.263C466.696 445.262 466.696 445.262 466.696 445.26C471.264 443.18 475.744 440.996 480.142 438.728C480.142 438.729 480.142 438.728 480.142 438.731C475.746 440.999 471.265 443.183 466.696 445.263Z" fill="#F7F7F4"/>
<path d="M409.641 532.131C405.848 532.131 402.121 531.842 398.483 531.287L391.812 526.577C394.77 526.916 397.669 527.354 400.526 527.859C406.516 528.918 412.313 530.278 418.036 531.655C415.281 531.969 412.48 532.131 409.641 532.131Z" fill="#F7F7F4"/>
<path d="M418.035 531.655C412.312 530.277 406.516 528.918 400.526 527.858C406.518 528.918 412.312 530.276 418.039 531.654C418.037 531.655 418.039 531.655 418.035 531.655ZM460.641 511.477C453.95 510.961 447.468 509.793 441.018 508.379C448.584 503.577 454.972 497.094 459.659 489.449C463.936 492.062 467.661 495.586 470.476 499.727C467.611 503.982 464.31 507.921 460.641 511.477ZM355.701 508.461C353.373 505.932 351.223 503.241 349.264 500.403C351.424 495.575 354.77 491.533 359.081 488.55C362.138 493.74 365.969 498.416 370.419 502.423C365.126 503.975 360.212 506.061 355.701 508.461ZM348.298 498.965C341.346 488.36 337.071 475.841 336.431 462.37C341.307 462.847 346.229 463.266 351.199 463.622C351.887 472.143 354.396 480.148 358.337 487.25C354.037 490.239 350.611 494.24 348.298 498.965ZM471.394 498.331C468.497 494.233 464.737 490.739 460.451 488.121C465.427 479.504 468.276 469.502 468.276 458.837C468.276 454.164 467.729 449.62 466.696 445.263C471.265 443.183 475.745 440.998 480.142 438.73C481.961 445.118 482.935 451.865 482.935 458.837C482.935 473.38 478.699 486.934 471.394 498.331Z" fill="#F7F7F4"/>
<path d="M418.039 531.654C412.313 530.276 406.518 528.919 400.526 527.859C397.669 527.354 394.77 526.916 391.813 526.577L378.497 517.179C378.497 517.179 377.144 520.391 376.478 524.216C368.634 520.23 361.603 514.873 355.701 508.462C360.212 506.062 365.126 503.975 370.419 502.423C380.809 511.779 394.561 517.472 409.641 517.472C413.964 517.472 418.176 517.005 422.232 516.118C423.722 516.079 425.126 515.698 426.37 515.05C431.595 513.498 436.516 511.236 441.019 508.38C447.469 509.793 453.95 510.961 460.641 511.477C456.888 515.114 452.749 518.352 448.291 521.125H421.281C421.054 521.803 420.459 526.264 422.552 530.997C421.064 531.261 419.557 531.482 418.039 531.654Z" fill="#F736F0"/>
<path d="M349.265 500.404C348.939 499.928 348.616 499.448 348.299 498.965C350.612 494.241 354.038 490.239 358.338 487.25C358.58 487.687 358.83 488.122 359.082 488.55C354.771 491.533 351.424 495.575 349.265 500.404ZM470.477 499.728C467.662 495.586 463.936 492.063 459.659 489.45C459.93 489.012 460.194 488.568 460.452 488.122C464.738 490.739 468.497 494.233 471.395 498.331C471.093 498.802 470.789 499.265 470.477 499.728Z" fill="#9FC0FA"/>
<path d="M352.93 443.882C347.819 443.475 342.884 443.005 338.175 442.495C339.564 436.399 341.714 430.587 344.518 425.173C349.18 427.292 353.75 429.11 358.215 430.645C355.944 434.779 354.156 439.217 352.93 443.882ZM460.416 429.494C460.16 429.054 459.899 428.614 459.632 428.181C459.138 426.918 458.381 425.787 457.429 424.855C456.564 423.642 455.655 422.462 454.704 421.321C459.088 418.664 463.129 415.841 466.821 412.983C469.472 416.284 471.844 419.821 473.899 423.556C469.551 425.607 465.054 427.592 460.416 429.494ZM372.383 413.559C365.97 412.93 359.776 412.135 353.901 411.243C358.976 405.304 364.984 400.187 371.698 396.116C381.676 398.512 391.998 400.092 402.232 400.294L402.173 400.673C390.943 402.101 380.701 406.707 372.383 413.559ZM443.136 410.705C437.096 406.494 430.228 403.392 422.823 401.69L421.911 398.798C431.856 397.007 439.742 394.05 440.217 393.87C440.859 393.625 441.498 393.374 442.127 393.12C448.76 396.404 454.825 400.664 460.134 405.711C454.65 407.751 448.964 409.396 443.136 410.705Z" fill="#F7C54B"/>
<path d="M422.823 401.69C418.585 400.716 414.173 400.202 409.64 400.202C409.556 400.202 409.469 400.202 409.385 400.204C412.331 400.065 415.259 399.803 418.16 399.399C419.435 399.22 420.689 399.018 421.911 398.798L422.823 401.69ZM402.174 400.673L402.233 400.294C402.972 400.309 403.715 400.316 404.453 400.316C405.031 400.316 405.61 400.311 406.188 400.303C404.837 400.381 403.499 400.505 402.174 400.673Z" fill="#F7F7F4"/>
<path d="M404.454 400.315C403.716 400.315 402.973 400.309 402.234 400.294C391.999 400.092 381.677 398.512 371.699 396.116C382.766 389.407 395.754 385.543 409.641 385.543C421.308 385.543 432.338 388.269 442.128 393.12C441.499 393.374 440.86 393.624 440.219 393.87C439.743 394.05 431.858 397.006 421.912 398.798C420.689 399.018 419.436 399.22 418.16 399.399C415.26 399.803 412.331 400.065 409.386 400.204C408.314 400.207 407.247 400.241 406.189 400.303C405.611 400.311 405.031 400.315 404.454 400.315Z" fill="#F7F7F4"/>
<path d="M358.216 430.645C353.751 429.11 349.181 427.292 344.519 425.173C347.113 420.163 350.268 415.493 353.902 411.243C359.777 412.134 365.971 412.93 372.384 413.559C366.644 418.286 361.822 424.081 358.216 430.645ZM454.705 421.32C451.344 417.289 447.451 413.714 443.137 410.705C448.964 409.396 454.65 407.75 460.134 405.711C462.522 407.982 464.756 410.41 466.822 412.983C463.129 415.841 459.089 418.664 454.705 421.32Z" fill="#F7F7F4"/>
<path d="M351.579 450.607C346.57 450.576 341.67 450.416 336.858 450.14C337.164 447.545 337.605 444.999 338.175 442.495C342.884 443.005 347.819 443.475 352.93 443.882C352.352 446.077 351.9 448.321 351.579 450.607Z" fill="#F7F7F4"/>
<path d="M351.197 463.618C346.229 463.262 341.307 462.842 336.431 462.366C336.375 461.196 336.347 460.02 336.347 458.838C336.347 455.895 336.521 452.99 336.858 450.139C341.671 450.416 346.57 450.576 351.579 450.607C351.201 453.296 351.006 456.044 351.006 458.838C351.006 460.445 351.071 462.041 351.197 463.618ZM466.696 445.26C465.366 439.65 463.229 434.351 460.417 429.493C465.054 427.592 469.551 425.606 473.9 423.556C476.517 428.314 478.624 433.397 480.142 438.727C475.744 440.995 471.263 443.18 466.696 445.26Z" fill="#9FC0FA"/>
<path d="M398.483 531.287C390.674 530.094 383.271 527.669 376.478 524.216C377.144 520.391 378.497 517.178 378.497 517.178L391.812 526.577L398.483 531.287ZM422.552 530.997C420.459 526.263 421.054 521.803 421.281 521.124H448.29C440.554 525.934 431.856 529.344 422.552 530.997Z" fill="#F7C54B"/>
<path d="M422.231 516.117C423.63 515.811 425.011 515.454 426.37 515.05C425.126 515.698 423.721 516.078 422.231 516.117ZM459.632 428.18C458.935 427.045 458.2 425.937 457.429 424.854C458.382 425.786 459.138 426.917 459.632 428.18Z" fill="#27215A"/>
<path d="M360.628 464.215C357.471 464.044 354.328 463.847 351.198 463.623C351.198 463.621 351.198 463.62 351.196 463.618C354.316 463.84 357.449 464.038 360.595 464.207C360.603 464.209 360.62 464.213 360.628 464.215Z" fill="#FBDF4D"/>
<path d="M372.837 464.723C368.755 464.603 364.68 464.432 360.628 464.215C360.621 464.213 360.603 464.208 360.596 464.207C364.658 464.426 368.742 464.598 372.837 464.718C372.837 464.72 372.837 464.721 372.837 464.723Z" fill="#FBFBF9"/>
<path d="M370.418 502.423C365.969 498.416 362.138 493.74 359.081 488.55C362.239 486.366 365.915 484.75 370.022 483.812C372.298 483.291 374.614 483.04 376.928 483.04C377.572 483.04 378.219 483.06 378.862 483.099C382.13 488.615 386.544 493.371 391.775 497.041C392.356 498.022 393.104 498.89 393.985 499.605C392.822 499.549 391.672 499.521 390.533 499.521C383.326 499.521 376.612 500.607 370.418 502.423ZM358.337 487.25C354.395 480.149 351.886 472.143 351.198 463.622C354.329 463.846 357.471 464.043 360.628 464.214C364.68 464.432 368.755 464.603 372.837 464.722C373.435 470.747 375.223 476.42 377.962 481.506C377.61 481.495 377.258 481.489 376.906 481.489C374.484 481.489 372.059 481.752 369.676 482.297C365.452 483.263 361.636 484.958 358.337 487.25Z" fill="#FBFBF9"/>
<path d="M409.641 517.472C394.561 517.472 380.809 511.778 370.419 502.423C376.613 500.607 383.327 499.521 390.534 499.521C391.673 499.521 392.822 499.549 393.986 499.605C395.625 500.935 397.714 501.731 399.99 501.731C400.085 501.731 400.178 501.727 400.271 501.721C400.326 501.744 400.383 501.767 400.439 501.79C399.956 502.931 399.686 504.183 399.686 505.5C399.686 510.765 403.955 515.034 409.22 515.034C411.398 515.034 413.397 514.296 415.002 513.067C416.743 514.941 419.22 516.12 421.979 516.12C422.064 516.12 422.148 516.119 422.232 516.117C418.176 517.004 413.964 517.472 409.641 517.472Z" fill="#FB3DF7"/>
<path d="M359.082 488.551C358.83 488.122 358.58 487.687 358.338 487.25C361.638 484.959 365.453 483.264 369.677 482.298C372.06 481.753 374.485 481.49 376.907 481.49C377.26 481.49 377.611 481.496 377.963 481.507C378.252 482.045 378.554 482.576 378.863 483.1C378.22 483.061 377.574 483.04 376.929 483.04C374.616 483.04 372.299 483.292 370.023 483.813C365.916 484.751 362.24 486.367 359.082 488.551Z" fill="#CBDDFC"/>
<path d="M460.79 447.873C460.79 447.871 460.79 447.87 460.79 447.868C462.772 447.02 464.741 446.15 466.697 445.26C466.697 445.262 466.697 445.262 466.697 445.263C464.742 446.153 462.772 447.025 460.79 447.873Z" fill="#FBFBF9"/>
<path d="M441.018 508.379C437.845 507.683 434.681 506.928 431.502 506.161C431.493 505.957 431.476 505.754 431.454 505.554C434.35 504.886 436.744 502.902 437.965 500.265C444.299 497.029 449.761 492.336 453.912 486.627C455.91 487.387 457.833 488.336 459.658 489.45C454.971 497.095 448.583 503.577 441.018 508.379ZM460.45 488.122C458.659 487.028 456.778 486.088 454.827 485.319C459.658 478.154 462.478 469.521 462.478 460.231C462.478 456.004 461.894 451.914 460.803 448.035C460.798 447.98 460.794 447.927 460.789 447.873C462.771 447.025 464.741 446.153 466.696 445.263C467.729 449.621 468.276 454.165 468.276 458.838C468.276 469.503 465.426 479.504 460.45 488.122Z" fill="#FBFBF9"/>
<path d="M426.37 515.05C429.426 513.462 431.512 510.268 431.512 506.585C431.512 506.443 431.509 506.302 431.503 506.161C434.681 506.928 437.846 507.683 441.018 508.379C436.516 511.236 431.595 513.498 426.37 515.05Z" fill="#FB3DF7"/>
<path d="M459.66 489.45C457.834 488.336 455.911 487.387 453.913 486.627C454.225 486.197 454.531 485.761 454.828 485.319C456.779 486.088 458.661 487.028 460.452 488.122C460.194 488.568 459.93 489.012 459.66 489.45Z" fill="#CBDDFC"/>
<path d="M367.545 444.829C362.55 444.582 357.658 444.259 352.931 443.881C354.156 439.216 355.944 434.778 358.216 430.644C363.063 432.309 367.778 433.642 372.388 434.682C369.407 436.291 367.381 439.437 367.381 443.063C367.381 443.667 367.437 444.257 367.545 444.829ZM457.429 424.854C456.204 423.652 454.656 422.779 452.927 422.376C453.525 422.027 454.119 421.674 454.705 421.32C455.655 422.462 456.564 423.641 457.429 424.854ZM385.373 414.562C380.973 414.315 376.628 413.973 372.384 413.558C380.701 406.706 390.944 402.1 402.174 400.672L400.175 413.492C398.436 411.623 395.958 410.453 393.204 410.453C389.956 410.453 387.092 412.081 385.373 414.562ZM426.549 413.527L422.823 401.69C430.229 403.391 437.097 406.493 443.137 410.705C442.612 410.823 442.087 410.938 441.56 411.051C440.77 410.838 439.938 410.725 439.081 410.725C436.979 410.725 435.036 411.405 433.46 412.559C431.167 412.928 428.867 413.248 426.549 413.527Z" fill="#FBDF4D"/>
<path d="M401.319 414.999C400.988 414.458 400.603 413.953 400.174 413.492L402.173 400.672C403.498 400.505 404.836 400.38 406.187 400.303C407.253 400.286 408.322 400.252 409.385 400.203C409.468 400.202 409.555 400.202 409.639 400.202C414.173 400.202 418.585 400.716 422.822 401.69L426.548 413.528C418.19 414.533 409.714 414.977 401.319 414.999Z" fill="#FBFBF9"/>
<path d="M406.188 400.303C407.246 400.241 408.314 400.206 409.386 400.203C408.323 400.251 407.254 400.286 406.188 400.303Z" fill="#FBFBF9"/>
<path d="M372.388 434.682C367.778 433.643 363.063 432.31 358.216 430.645C361.821 424.081 366.644 418.286 372.384 413.559C376.628 413.974 380.973 414.316 385.373 414.563C384.72 415.506 384.234 416.57 383.953 417.718C383.019 417.412 382.023 417.241 380.987 417.241C375.722 417.241 371.453 421.51 371.453 426.775C371.453 429.574 372.666 432.083 374.587 433.828C373.813 434.022 373.075 434.311 372.388 434.682ZM448.354 422.444C448.518 421.741 448.615 421.013 448.615 420.259C448.615 415.852 445.623 412.142 441.56 411.052C442.087 410.938 442.612 410.823 443.137 410.705C447.451 413.714 451.344 417.289 454.705 421.32C454.119 421.675 453.525 422.027 452.927 422.377C452.23 422.214 451.501 422.127 450.754 422.127C449.923 422.127 449.121 422.245 448.354 422.444ZM402.494 417.884C402.261 416.849 401.859 415.877 401.32 414.999C409.715 414.977 418.191 414.533 426.549 413.528C428.866 413.248 431.167 412.928 433.46 412.56C431.928 413.682 430.743 415.252 430.097 417.078C426.115 415.92 421.904 415.3 417.548 415.3C412.267 415.3 407.2 416.212 402.494 417.884Z" fill="#FBFBF9"/>
<path d="M353.299 450.612C352.726 450.612 352.148 450.61 351.579 450.607C351.901 448.32 352.353 446.077 352.931 443.882C357.658 444.259 362.55 444.583 367.545 444.83C367.933 446.897 368.989 448.727 370.479 450.091C364.641 450.446 358.915 450.612 353.299 450.612Z" fill="#FBFBF9"/>
<path d="M460.072 429.635C459.965 429.135 459.818 428.648 459.633 428.181C459.9 428.614 460.161 429.054 460.417 429.493C460.299 429.542 460.19 429.587 460.072 429.635Z" fill="#FBDF4D"/>
<path d="M372.838 464.718C368.743 464.598 364.659 464.426 360.597 464.207C357.451 464.037 354.317 463.84 351.198 463.618C351.072 462.041 351.007 460.446 351.007 458.838C351.007 456.045 351.203 453.296 351.58 450.607C352.149 450.61 352.727 450.612 353.3 450.612C358.916 450.612 364.642 450.446 370.48 450.091C371.324 450.862 372.307 451.483 373.385 451.914C372.88 454.609 372.618 457.388 372.618 460.231C372.618 461.746 372.692 463.242 372.838 464.718ZM460.791 447.868C460.643 446.29 460.11 444.825 459.287 443.565C458.634 441.931 457.889 440.346 457.056 438.813C459.038 437.067 460.289 434.511 460.289 431.662C460.289 430.966 460.214 430.287 460.073 429.635C460.191 429.587 460.3 429.542 460.418 429.493C463.23 434.351 465.367 439.65 466.697 445.26C464.741 446.15 462.773 447.02 460.791 447.868Z" fill="#CBDDFC"/>
<path d="M421.978 516.121C419.219 516.121 416.742 514.941 415.001 513.068C413.396 514.297 411.397 515.035 409.219 515.035C403.954 515.035 399.685 510.766 399.685 505.501C399.685 504.183 399.955 502.931 400.438 501.791C403.525 503.063 406.786 504.002 410.174 504.561C412.089 507.331 414.038 510.079 416.004 512.81C416.164 513.032 416.453 513.141 416.759 513.357C418.673 510.561 420.55 507.744 422.388 504.904C427.946 504.309 433.202 502.7 437.965 500.265C436.744 502.902 434.35 504.886 431.454 505.554C431.476 505.754 431.493 505.958 431.502 506.161C431.508 506.302 431.512 506.444 431.512 506.585C431.512 510.269 429.425 513.463 426.369 515.05C425.01 515.454 423.629 515.811 422.231 516.117C422.147 516.119 422.063 516.121 421.978 516.121ZM399.989 501.732C397.713 501.732 395.624 500.935 393.985 499.605C393.104 498.891 392.355 498.022 391.774 497.042C394.412 498.892 397.258 500.466 400.27 501.721C400.177 501.727 400.084 501.732 399.989 501.732ZM373.384 451.914C372.305 451.484 371.322 450.862 370.479 450.092C368.989 448.728 367.932 446.898 367.544 444.83C367.437 444.258 367.381 443.668 367.381 443.063C367.381 439.438 369.407 436.292 372.388 434.682C373.074 434.311 373.812 434.022 374.586 433.828C372.666 432.083 371.453 429.574 371.453 426.775C371.453 421.51 375.722 417.241 380.987 417.241C382.023 417.241 383.019 417.412 383.952 417.718C384.233 416.57 384.72 415.506 385.372 414.563C387.092 412.082 389.955 410.454 393.203 410.454C395.958 410.454 398.436 411.623 400.174 413.492C400.603 413.954 400.988 414.459 401.319 414.999C401.858 415.877 402.26 416.849 402.493 417.884C401.013 418.411 399.571 419.012 398.167 419.683C396.126 418.939 393.944 418.414 391.867 418.414C391.465 418.414 391.066 418.434 390.673 418.474C383.89 419.194 378.69 426.916 378.636 435.241C378.631 436.052 378.65 436.856 378.692 437.654C376.163 441.996 374.341 446.804 373.384 451.914ZM460.803 448.035C460.374 446.511 459.866 445.019 459.285 443.565C460.109 444.825 460.641 446.29 460.789 447.868C460.789 447.87 460.789 447.872 460.789 447.873C460.794 447.928 460.798 447.98 460.803 448.035ZM457.054 438.813C455.521 435.993 453.696 433.354 451.617 430.94C450.056 422.751 444.528 417.674 437.991 417.674C436.64 417.674 435.245 417.892 433.832 418.342C432.613 417.869 431.365 417.446 430.096 417.078C430.743 415.252 431.928 413.682 433.46 412.56C435.035 411.406 436.978 410.725 439.08 410.725C439.938 410.725 440.769 410.839 441.56 411.052C445.622 412.142 448.614 415.852 448.614 420.259C448.614 421.013 448.518 421.741 448.353 422.444C449.121 422.245 449.922 422.127 450.753 422.127C451.501 422.127 452.229 422.214 452.927 422.377C454.656 422.779 456.203 423.652 457.429 424.855C458.199 425.937 458.934 427.045 459.632 428.181C459.817 428.648 459.964 429.135 460.071 429.635C460.213 430.287 460.287 430.966 460.287 431.662C460.287 434.511 459.037 437.067 457.054 438.813Z" fill="#4E255C"/>
<path d="M416.761 513.357C416.455 513.141 416.166 513.032 416.006 512.81C414.039 510.079 412.091 507.331 410.175 504.561C412.574 504.957 415.036 505.162 417.548 505.162C419.184 505.162 420.798 505.075 422.389 504.904C420.551 507.744 418.675 510.561 416.761 513.357ZM378.693 437.654C378.651 436.856 378.633 436.052 378.637 435.242C378.692 426.916 383.891 419.194 390.674 418.474C391.067 418.434 391.466 418.414 391.869 418.414C393.946 418.414 396.127 418.939 398.168 419.683C390.014 423.589 383.22 429.879 378.693 437.654ZM451.618 430.94C446.852 425.4 440.761 421.038 433.834 418.342C435.246 417.892 436.641 417.674 437.993 417.674C444.53 417.674 450.057 422.751 451.618 430.94Z" fill="#FB5E46"/>
<path d="M437.966 500.266C438.528 499.051 438.843 497.698 438.843 496.27C438.843 494.479 438.34 492.809 437.479 491.378C437.74 491.398 438.001 491.417 438.267 491.417C442.49 491.417 446.072 488.672 447.324 484.867C449.58 485.221 451.787 485.818 453.913 486.627C449.762 492.336 444.299 497.03 437.966 500.266ZM454.828 485.319C452.53 484.414 450.136 483.747 447.689 483.353C447.762 482.874 447.801 482.383 447.801 481.883C447.801 481.221 447.733 480.576 447.605 479.952C448.988 477.848 450.156 475.59 451.079 473.208C453.833 471.536 455.673 468.509 455.673 465.052C455.673 462.736 454.845 460.618 453.471 458.967C453.46 458.658 453.445 458.353 453.428 458.047C457.666 457.079 460.832 453.297 460.832 448.763C460.832 448.52 460.823 448.276 460.804 448.035C461.895 451.914 462.479 456.004 462.479 460.232C462.479 469.522 459.659 478.154 454.828 485.319Z" fill="#FDFDFC"/>
<path d="M453.912 486.627C451.786 485.818 449.579 485.221 447.323 484.867C447.485 484.377 447.608 483.873 447.688 483.352C450.135 483.747 452.529 484.413 454.827 485.319C454.53 485.76 454.224 486.197 453.912 486.627Z" fill="#E3EDFD"/>
<path d="M459.287 443.565C458.297 442.051 456.886 440.836 455.223 440.082C455.883 439.731 456.498 439.304 457.056 438.813C457.888 440.347 458.634 441.931 459.287 443.565Z" fill="#E3EDFD"/>
<path d="M422.388 504.904C424.647 501.415 426.845 497.89 428.976 494.322C436.682 491.74 443.22 486.619 447.604 479.952C447.732 480.576 447.8 481.221 447.8 481.883C447.8 482.383 447.761 482.874 447.688 483.352C447.607 483.873 447.485 484.378 447.323 484.867C446.071 488.672 442.489 491.417 438.266 491.417C438.001 491.417 437.74 491.398 437.479 491.378C438.339 492.809 438.843 494.479 438.843 496.27C438.843 497.698 438.527 499.051 437.965 500.266C433.202 502.7 427.946 504.309 422.388 504.904ZM451.078 473.208C452.636 469.183 453.492 464.807 453.492 460.231C453.492 459.809 453.484 459.386 453.47 458.967C454.844 460.618 455.672 462.736 455.672 465.052C455.672 468.509 453.832 471.536 451.078 473.208ZM453.427 458.047C453.177 453.902 452.226 449.946 450.691 446.296C451.87 441.283 452.608 436.214 451.63 431.002C451.625 430.982 451.622 430.96 451.617 430.94C453.696 433.354 455.521 435.993 457.054 438.813C456.497 439.304 455.881 439.731 455.221 440.082C456.885 440.836 458.296 442.051 459.285 443.565C459.866 445.019 460.374 446.511 460.803 448.035C460.822 448.276 460.831 448.519 460.831 448.763C460.831 453.297 457.665 457.079 453.427 458.047Z" fill="#9F2B66"/>
<path d="M400.438 501.791C400.382 501.768 400.325 501.744 400.271 501.721C400.337 501.716 400.406 501.712 400.474 501.709C400.462 501.735 400.449 501.763 400.438 501.791Z" fill="#FD4CFB"/>
<path d="M374.974 464.78C374.264 464.763 373.548 464.745 372.838 464.723C372.838 464.721 372.838 464.72 372.838 464.718C373.548 464.738 374.259 464.759 374.969 464.776C374.971 464.777 374.972 464.779 374.974 464.78Z" fill="#FDFDFC"/>
<path d="M391.775 497.042C386.545 493.371 382.131 488.616 378.862 483.099C380.537 483.199 382.201 483.427 383.841 483.778C385.496 485.158 387.624 485.987 389.947 485.987C390.167 485.987 390.386 485.979 390.604 485.964C391.141 486.202 391.673 486.45 392.198 486.714C391.101 488.265 390.456 490.155 390.456 492.198C390.456 493.966 390.938 495.622 391.775 497.042ZM382.112 481.889C380.739 481.679 379.352 481.55 377.963 481.507C375.224 476.421 373.436 470.747 372.838 464.723C373.548 464.744 374.264 464.763 374.974 464.78C376.706 467.1 379.47 468.603 382.586 468.614C382.696 469.077 382.816 469.539 382.945 469.995C381.374 471.692 380.413 473.958 380.413 476.453C380.413 478.474 381.04 480.348 382.112 481.889Z" fill="#FDFDFC"/>
<path d="M392.198 486.714C391.673 486.45 391.141 486.201 390.604 485.964C391.149 485.926 391.68 485.841 392.196 485.713C392.341 485.858 392.487 486.001 392.634 486.142C392.482 486.327 392.336 486.517 392.198 486.714ZM383.841 483.778C382.201 483.427 380.537 483.198 378.862 483.099C378.553 482.575 378.252 482.044 377.963 481.506C379.352 481.55 380.739 481.679 382.112 481.889C382.602 482.594 383.184 483.229 383.841 483.778Z" fill="#E3EDFD"/>
<path d="M374.969 464.775C374.259 464.758 373.548 464.738 372.838 464.718C372.692 463.242 372.617 461.746 372.617 460.231C372.617 457.388 372.88 454.609 373.385 451.914C374.121 452.207 374.902 452.411 375.715 452.514C374.087 454.224 373.082 456.532 373.082 459.08C373.082 461.215 373.784 463.186 374.969 464.775Z" fill="#E3EDFD"/>
<path d="M410.174 504.561C406.786 504.002 403.525 503.063 400.438 501.791C400.449 501.763 400.462 501.735 400.474 501.709C400.406 501.712 400.337 501.717 400.271 501.721C397.258 500.466 394.412 498.892 391.775 497.042C390.937 495.622 390.456 493.966 390.456 492.198C390.456 490.155 391.1 488.265 392.197 486.714C392.335 486.517 392.481 486.327 392.634 486.143C395.47 488.871 398.753 491.137 402.363 492.821C404.889 496.792 407.502 500.697 410.174 504.561ZM389.946 485.987C387.624 485.987 385.495 485.158 383.841 483.778C383.184 483.23 382.601 482.594 382.112 481.889C381.04 480.348 380.412 478.474 380.412 476.453C380.412 473.958 381.374 471.692 382.944 469.995C384.642 476.026 387.877 481.417 392.196 485.714C391.68 485.841 391.148 485.927 390.603 485.964C390.386 485.979 390.167 485.987 389.946 485.987ZM382.585 468.614C379.469 468.603 376.705 467.1 374.973 464.78C374.972 464.779 374.97 464.777 374.969 464.775C373.783 463.186 373.081 461.215 373.081 459.08C373.081 456.533 374.086 454.224 375.714 452.514C374.902 452.411 374.12 452.208 373.384 451.914C374.341 446.804 376.163 441.996 378.692 437.654C378.984 443.21 380.373 448.459 382.222 453.551C381.815 455.717 381.602 457.949 381.602 460.231C381.602 463.118 381.942 465.925 382.585 468.614Z" fill="#9F2B66"/>
<path d="M414.405 424.422C412.903 421.13 409.583 418.842 405.727 418.842C404.671 418.842 403.656 419.021 402.706 419.339C402.671 418.844 402.6 418.357 402.494 417.884C407.2 416.212 412.267 415.3 417.548 415.3C421.904 415.3 426.115 415.92 430.097 417.077C429.831 417.828 429.657 418.622 429.588 419.446C428.582 419.086 427.504 418.879 426.375 418.879C422.587 418.879 419.316 421.087 417.778 424.287C417.702 424.287 417.624 424.287 417.548 424.287C416.488 424.287 415.441 424.332 414.405 424.422Z" fill="#FDFDFC"/>
<path d="M407.821 425.619C405.391 423.471 402.775 421.627 399.837 420.351C399.295 420.117 398.737 419.891 398.167 419.683C399.571 419.012 401.013 418.411 402.494 417.884C402.599 418.358 402.671 418.844 402.705 419.34C403.656 419.021 404.67 418.843 405.727 418.843C409.582 418.843 412.902 421.131 414.404 424.423C412.144 424.619 409.943 425.024 407.821 425.619ZM423.508 424.779C421.641 424.468 419.728 424.3 417.777 424.288C419.315 421.088 422.587 418.88 426.374 418.88C427.504 418.88 428.582 419.087 429.587 419.447C429.657 418.622 429.831 417.828 430.097 417.078C431.366 417.446 432.613 417.869 433.833 418.342C433.208 418.543 432.582 418.788 431.953 419.08C429.073 420.423 426.334 422.36 423.847 424.487C423.733 424.583 423.62 424.681 423.508 424.779Z" fill="#9F2B66"/>
<path d="M417.548 505.162C415.036 505.162 412.574 504.957 410.175 504.561C407.503 500.697 404.89 496.792 402.364 492.821C404.864 493.988 407.522 494.876 410.295 495.445C412.269 498.373 414.3 501.263 416.363 504.127C416.475 504.283 416.677 504.357 416.891 504.51C418.85 501.646 420.755 498.754 422.597 495.824C424.794 495.516 426.927 495.008 428.977 494.322C426.846 497.89 424.648 501.415 422.389 504.904C420.798 505.075 419.184 505.162 417.548 505.162ZM382.223 453.551C380.374 448.459 378.985 443.209 378.693 437.654C383.22 429.879 390.014 423.589 398.168 419.683C398.738 419.891 399.296 420.116 399.838 420.351C402.776 421.626 405.392 423.471 407.822 425.619C394.791 429.273 384.753 440.088 382.223 453.551ZM450.692 446.296C445.99 435.127 435.805 426.831 423.509 424.779C423.621 424.681 423.734 424.583 423.848 424.487C426.335 422.36 429.074 420.422 431.954 419.08C432.583 418.788 433.209 418.543 433.834 418.342C440.761 421.038 446.852 425.4 451.618 430.94C451.623 430.96 451.626 430.982 451.631 431.002C452.609 436.214 451.872 441.283 450.692 446.296Z" fill="#FD824B"/>
<path d="M416.89 504.51C416.676 504.358 416.474 504.283 416.362 504.128C414.299 501.263 412.269 498.373 410.294 495.445C411.916 495.776 413.577 496 415.268 496.105C415.602 496.573 415.936 497.04 416.272 497.505C416.362 497.631 416.522 497.69 416.695 497.813C417.067 497.267 417.437 496.722 417.804 496.175C419.429 496.164 421.03 496.045 422.596 495.824C420.754 498.754 418.849 501.647 416.89 504.51Z" fill="#FD4CFB"/>
<path d="M416.695 497.812C416.522 497.69 416.362 497.631 416.272 497.505C415.937 497.04 415.603 496.573 415.269 496.105C416.022 496.153 416.782 496.177 417.548 496.177C417.633 496.177 417.719 496.177 417.804 496.175C417.437 496.722 417.068 497.267 416.695 497.812Z" fill="#F839E5"/>
<path d="M447.604 479.951C447.138 477.695 445.872 475.733 444.118 474.366C444.771 474.508 445.445 474.585 446.138 474.585C447.946 474.585 449.638 474.082 451.078 473.207C450.155 475.589 448.987 477.848 447.604 479.951ZM453.47 458.966C453.239 458.69 452.993 458.426 452.734 458.177C452.969 458.141 453.198 458.098 453.427 458.047C453.444 458.353 453.459 458.657 453.47 458.966Z" fill="#FEFEFD"/>
<path d="M428.978 494.321C432.311 488.74 435.482 483.049 438.466 477.22C443.445 467.498 448.003 457.543 450.612 446.633C450.64 446.521 450.666 446.409 450.693 446.296C452.227 449.945 453.178 453.902 453.428 458.047C453.2 458.098 452.97 458.141 452.735 458.177C452.995 458.426 453.24 458.69 453.472 458.966C453.486 459.386 453.494 459.808 453.494 460.231C453.494 464.806 452.638 469.182 451.079 473.207C449.639 474.082 447.948 474.585 446.139 474.585C445.446 474.585 444.772 474.508 444.12 474.366C445.874 475.733 447.14 477.696 447.606 479.951C443.222 486.619 436.683 491.739 428.978 494.321Z" fill="#CB3069"/>
<path d="M393.215 485.5C393.178 485.48 393.139 485.462 393.102 485.441C393.193 485.41 393.285 485.376 393.375 485.342C393.321 485.393 393.268 485.446 393.215 485.5Z" fill="#FEFEFD"/>
<path d="M392.633 486.143C392.486 486.001 392.34 485.858 392.195 485.714C392.503 485.638 392.806 485.548 393.101 485.442C393.138 485.462 393.177 485.481 393.214 485.501C393.011 485.706 392.817 485.92 392.633 486.143Z" fill="#F0F5FE"/>
<path d="M396.561 483.311C396.563 483.309 396.564 483.307 396.564 483.306L396.566 483.309C396.564 483.309 396.563 483.309 396.561 483.311ZM382.945 469.995C382.816 469.539 382.696 469.077 382.586 468.614C382.595 468.614 382.606 468.614 382.617 468.614C383.454 468.614 384.262 468.495 385.036 468.293C384.261 468.76 383.555 469.334 382.945 469.995ZM387.528 467.241C387.664 467.157 387.801 467.072 387.933 466.982C387.956 467.03 387.98 467.079 388.003 467.128C387.843 467.162 387.685 467.199 387.528 467.241Z" fill="#FEFEFD"/>
<path d="M402.364 492.821C398.753 491.137 395.471 488.87 392.634 486.142C392.817 485.92 393.012 485.706 393.215 485.501C393.268 485.446 393.321 485.393 393.375 485.342C393.285 485.376 393.193 485.411 393.102 485.442C392.807 485.547 392.504 485.637 392.196 485.713C387.877 481.416 384.643 476.026 382.945 469.995C383.555 469.333 384.261 468.76 385.036 468.292C384.262 468.494 383.454 468.614 382.617 468.614C382.606 468.614 382.595 468.614 382.586 468.614C381.943 465.925 381.603 463.118 381.603 460.231C381.603 457.949 381.815 455.717 382.223 453.551C382.769 455.058 383.357 456.551 383.967 458.034C385.218 461.068 386.543 464.048 387.933 466.981C387.801 467.071 387.664 467.157 387.528 467.241C387.685 467.199 387.843 467.161 388.003 467.127C390.641 472.678 393.513 478.056 396.565 483.306C396.565 483.307 396.563 483.309 396.561 483.31C396.563 483.309 396.565 483.309 396.566 483.309C398.437 486.524 400.374 489.692 402.364 492.821Z" fill="#CB3069"/>
<path d="M415.012 433.301C414.796 433.004 414.592 432.693 414.373 432.398C414.943 431.176 415.262 429.813 415.262 428.376C415.262 426.966 414.954 425.626 414.404 424.422C415.44 424.332 416.487 424.287 417.547 424.287C417.623 424.287 417.701 424.287 417.777 424.287C417.176 425.536 416.84 426.936 416.84 428.413C416.84 429.324 416.967 430.205 417.205 431.039C416.494 431.785 415.765 432.54 415.012 433.301Z" fill="#FEFEFD"/>
<path d="M414.374 432.398C414.265 432.251 414.152 432.106 414.031 431.971C412.047 429.736 410.01 427.553 407.821 425.619C409.943 425.024 412.145 424.618 414.405 424.423C414.955 425.627 415.263 426.966 415.263 428.376C415.263 429.813 414.944 431.176 414.374 432.398ZM417.206 431.039C416.968 430.205 416.841 429.324 416.841 428.414C416.841 426.936 417.177 425.537 417.778 424.288C419.729 424.3 421.641 424.468 423.509 424.778C421.346 426.668 419.344 428.805 417.206 431.039Z" fill="#CB3069"/>
<path d="M422.597 495.824C425.985 490.438 429.164 484.922 432.086 479.216C435.57 472.408 438.761 465.441 440.587 457.803C441.444 454.216 442 450.592 441.3 446.862C440.219 441.103 436.341 437.532 431.754 437.532C430.39 437.532 428.962 437.849 427.526 438.517C425.51 439.455 423.593 440.811 421.851 442.299C419.739 444.106 417.859 446.256 415.668 448.472C415.44 448.159 415.233 447.824 414.98 447.539C412.05 444.238 408.954 441.103 405.045 439.407C403.304 438.65 401.326 438.049 399.467 438.049C399.184 438.049 398.906 438.063 398.629 438.092C393.883 438.596 390.242 444.001 390.205 449.829C390.169 455.518 391.855 460.732 393.936 465.784C398.328 476.441 404.029 486.149 410.295 495.445C407.522 494.877 404.864 493.988 402.364 492.821C400.374 489.693 398.437 486.525 396.566 483.309L396.565 483.306C393.514 478.057 390.641 472.678 388.003 467.128C387.98 467.08 387.957 467.03 387.934 466.982C386.543 464.049 385.218 461.069 383.967 458.035C383.357 456.551 382.77 455.058 382.223 453.552C384.753 440.089 394.791 429.273 407.822 425.619C410.011 427.553 412.047 429.736 414.031 431.972C414.152 432.107 414.266 432.251 414.374 432.399C414.593 432.694 414.797 433.005 415.013 433.301C415.766 432.54 416.495 431.785 417.206 431.04C419.344 428.806 421.347 426.668 423.509 424.779C435.805 426.831 445.99 435.127 450.692 446.297C450.666 446.41 450.64 446.522 450.612 446.634C448.003 457.544 443.445 467.499 438.466 477.221C435.482 483.05 432.311 488.74 428.977 494.322C426.927 495.009 424.794 495.517 422.597 495.824Z" fill="#FE9E4D"/>
<path d="M417.803 496.175C421.826 490.188 425.543 484.034 428.849 477.576C431.637 472.131 434.19 466.557 435.65 460.446C436.337 457.578 436.781 454.677 436.222 451.693C435.357 447.087 432.254 444.23 428.585 444.23C427.493 444.23 426.351 444.482 425.203 445.018C423.589 445.768 422.055 446.852 420.662 448.044C418.972 449.489 417.469 451.208 415.716 452.981C415.534 452.731 415.368 452.462 415.166 452.235C412.821 449.594 410.345 447.087 407.218 445.729C405.824 445.123 404.243 444.643 402.756 444.643C402.529 444.643 402.306 444.654 402.085 444.677C398.287 445.08 395.375 449.405 395.346 454.067C395.316 458.619 396.665 462.79 398.33 466.83C402.725 477.495 408.762 486.975 415.268 496.105C413.576 495.999 411.916 495.776 410.294 495.445C404.028 486.148 398.327 476.44 393.935 465.783C391.854 460.731 390.168 455.518 390.204 449.829C390.241 444 393.882 438.595 398.628 438.092C398.905 438.062 399.183 438.048 399.466 438.048C401.325 438.048 403.303 438.65 405.044 439.406C408.953 441.103 412.049 444.238 414.979 447.539C415.232 447.823 415.439 448.159 415.667 448.471C417.858 446.256 419.738 444.106 421.85 442.299C423.592 440.811 425.509 439.454 427.525 438.516C428.961 437.848 430.388 437.531 431.752 437.531C436.34 437.531 440.218 441.103 441.299 446.862C441.999 450.592 441.443 454.216 440.586 457.803C438.76 465.44 435.569 472.408 432.085 479.215C429.163 484.921 425.984 490.438 422.596 495.824C421.03 496.044 419.428 496.164 417.803 496.175Z" fill="#FE58FD"/>
<path d="M417.547 496.176C416.782 496.176 416.022 496.153 415.268 496.105C408.762 486.975 402.725 477.495 398.33 466.83C396.665 462.79 395.317 458.618 395.346 454.067C395.376 449.405 398.287 445.08 402.085 444.677C402.306 444.654 402.53 444.643 402.756 444.643C404.243 444.643 405.825 445.123 407.218 445.729C410.345 447.087 412.822 449.594 415.166 452.235C415.368 452.462 415.534 452.731 415.716 452.981C417.47 451.208 418.972 449.488 420.662 448.044C422.056 446.852 423.589 445.768 425.203 445.017C426.351 444.482 427.493 444.23 428.585 444.23C432.255 444.23 435.357 447.087 436.222 451.693C436.782 454.677 436.337 457.578 435.651 460.445C434.19 466.557 431.638 472.131 428.849 477.576C425.543 484.034 421.826 490.187 417.804 496.175C417.718 496.176 417.633 496.176 417.547 496.176Z" fill="#FB40F1"/>
<path d="M305.436 144.666C305.436 144.666 293.128 201.16 321.848 209.681C321.848 209.681 326.898 212.207 328.792 211.259C330.686 210.313 332.264 190.429 332.264 190.429C332.264 190.429 339.207 137.091 305.436 144.666Z" fill="#4E8AF5"/>
<path d="M302.36 188.433C303.318 185.29 304.887 178.595 303.135 170.488C302.295 166.602 299.557 153.939 288.462 148.96C278.989 144.708 269.554 148.808 267.398 149.744C249.919 157.34 248.127 179.031 248.49 182.794C248.709 185.07 249.388 187.096 249.388 187.096C249.388 187.096 250.283 189.768 252.091 192.298C268.009 214.594 284.889 209.659 284.889 209.657C296.954 206.131 301.383 191.629 302.36 188.433Z" fill="#D424A0"/>
<path d="M302.78 176.187C302.78 185.44 296.577 192.94 288.926 192.94C281.275 192.94 275.073 185.44 275.073 176.187C275.073 166.934 281.275 159.434 288.926 159.434C296.577 159.434 302.78 166.934 302.78 176.187Z" fill="#F0F1EB"/>
<path d="M283.69 118.263C283.69 118.263 263.02 132.642 276.5 162.299C289.98 191.955 308.854 198.247 308.854 198.247C308.854 198.247 333.118 129.945 283.69 118.263Z" fill="#F02DE3"/>
<path d="M303.461 176.678C303.461 176.678 273.805 189.26 289.082 217.119C289.082 217.119 324.131 214.424 303.461 176.678Z" fill="#F02DE3"/>
<path d="M308.58 140.317L256.395 128.626L256.562 127.881L308.748 139.575L308.58 140.317Z" fill="#F0F1EB"/>
<path d="M252.839 127.827L243.018 125.627L243.185 124.883L253.005 127.085L252.839 127.827Z" fill="#F0F1EB"/>
<path d="M316.007 120.478L269.23 94.5561L269.599 93.8896L316.375 119.812L316.007 120.478Z" fill="#F0F1EB"/>
<path d="M266.041 92.7876L257.239 87.9095L257.607 87.2446L266.41 92.1227L266.041 92.7876Z" fill="#F0F1EB"/>
<path d="M328.722 103.532L291.143 65.4815L291.683 64.9455L329.263 102.997L328.722 103.532Z" fill="#F0F1EB"/>
<path d="M288.581 62.8872L281.508 55.7286L282.05 55.1926L289.122 62.3528L288.581 62.8872Z" fill="#F0F1EB"/>
<path d="M345.694 90.855L320.357 43.7587L321.027 43.3982L346.363 90.4946L345.694 90.855Z" fill="#F0F1EB"/>
<path d="M318.631 40.5479L313.863 31.6851L314.533 31.3247L319.302 40.1875L318.631 40.5479Z" fill="#F0F1EB"/>
<path d="M365.551 83.4746L354.509 31.1476L355.254 30.9906L366.297 83.3177L365.551 83.4746Z" fill="#F0F1EB"/>
<path d="M353.757 27.5806L351.679 17.7328L352.425 17.5759L354.503 27.4236L353.757 27.5806Z" fill="#F0F1EB"/>
<path d="M387.444 82.0469L386.685 81.9863L390.832 28.6696L391.592 28.7271L387.444 82.0469Z" fill="#F0F1EB"/>
<path d="M391.875 25.0933L391.115 25.0342L391.895 15.0001L392.655 15.0591L391.875 25.0933Z" fill="#F0F1EB"/>
<path d="M408.091 86.7832L407.38 86.5129L426.381 36.5224L427.092 36.7942L408.091 86.7832Z" fill="#F0F1EB"/>
<path d="M428.388 33.3862L427.675 33.1159L431.251 23.7078L431.964 23.9796L428.388 33.3862Z" fill="#F0F1EB"/>
<path d="M426.568 97.1465L425.961 96.6851L458.276 54.0737L458.883 54.5351L426.568 97.1465Z" fill="#F0F1EB"/>
<path d="M461.087 51.6299L460.479 51.1701L466.56 43.1508L467.167 43.6107L461.087 51.6299Z" fill="#F0F1EB"/>
<path d="M441.377 112.295L440.925 111.683L483.935 79.901L484.389 80.5131L441.377 112.295Z" fill="#F0F1EB"/>
<path d="M487.32 78.3477L486.866 77.734L494.96 71.7545L495.414 72.3666L487.32 78.3477Z" fill="#F0F1EB"/>
<path d="M451.318 131.003L451.057 130.288L501.28 111.912L501.541 112.626L451.318 131.003Z" fill="#F0F1EB"/>
<path d="M504.964 111.374L504.703 110.658L514.155 107.2L514.416 107.916L504.964 111.374Z" fill="#F0F1EB"/>
<path d="M373.091 236.334C373.091 253.951 365.028 274.426 352.522 285.177C352.118 285.534 351.699 285.876 351.279 286.202C346.495 289.977 341.104 292.338 335.294 292.618C334.952 292.633 334.595 292.649 334.253 292.649C333.321 292.649 332.404 292.602 331.472 292.509H331.456C320.815 291.422 311.059 283.809 305.528 275.98C296.922 263.816 298.227 250.642 298.77 245.997C299.92 235.93 303.586 232.947 316.496 210.111C330.586 185.177 330.602 181.122 335.294 180.05C347.831 177.192 373.091 205.435 373.091 236.334Z" fill="#4E8AF5"/>
<path d="M334.253 292.649C333.321 292.649 332.404 292.602 331.472 292.509H331.456C324.108 286.87 318.205 279.32 314.679 270.698C308.379 255.242 309.999 236.915 318.895 222.783C318.979 222.997 319.064 223.211 319.151 223.427C319.305 223.806 319.463 224.182 319.626 224.554C311.5 238.122 310.148 255.456 316.123 270.107C319.821 279.195 326.252 287.041 334.253 292.649Z" fill="#184BEB"/>
<path d="M351.279 286.202C347.504 283.437 344.086 280.159 341.181 276.446C332.918 265.876 329.065 252.126 330.308 238.818C330.791 239.204 331.28 239.572 331.774 239.918C330.83 252.531 334.577 265.474 342.408 275.483C345.298 279.18 348.715 282.443 352.521 285.177C352.118 285.534 351.698 285.876 351.279 286.202Z" fill="#184BEB"/>
<path d="M467.363 279.557C463.995 290.263 452.418 300.253 440.99 300.042C431.789 299.873 422.523 298.248 413.508 296.522C402.693 294.451 388.073 292.806 379.626 285.319C375.081 281.293 354.728 247.063 349.053 241.043C349.415 239.87 350.56 235.64 348.526 231.027C347.128 227.856 344.899 226.026 343.782 225.23C342.705 224.439 338.817 221.385 337.456 215.741C335.999 209.697 338.463 204.928 339.066 203.831C339.226 203.993 339.305 204.072 339.306 204.071C339.311 204.066 336.762 201.453 331.658 196.238C329.777 192.211 315.084 159.297 332.443 125.265C352.959 85.0402 398.641 81.6955 400.65 81.5837C432.402 78.1706 470.421 113.667 472.862 138.147C475.621 185.663 485.102 223.163 467.363 279.557Z" fill="#D19074"/>
<path d="M327.192 214.707C328.325 212.371 332.571 211.867 335.311 212.11C335.939 212.17 336.541 212.27 337.119 212.431C335.185 210.499 332.872 208.766 330.536 207.256C329.681 206.713 329.908 205.021 331.289 205.484C337.22 207.437 341.744 211.184 344.132 216.037C345.261 218.352 346.116 224.353 341.141 224.031C340.085 223.971 339.482 223.104 339.934 222.34C341.342 219.862 341.342 218.212 340.06 216.096C338.502 215.291 336.642 214.95 334.783 214.929C332.471 214.909 330.862 216.037 328.726 216.338C327.52 216.52 326.792 215.572 327.192 214.707ZM319.151 223.427C325.209 238.389 338.754 247.249 349.408 243.242C360.063 239.234 363.809 223.87 357.752 208.908C351.696 193.966 338.149 185.085 327.495 189.093C323.725 190.522 320.811 193.382 318.9 197.148C318.573 197.751 318.297 198.395 318.045 199.04C315.407 205.726 315.583 214.647 319.151 223.427Z" fill="#D19074"/>
<path d="M328.725 216.338C330.861 216.037 332.471 214.909 334.782 214.929C336.642 214.95 338.501 215.291 340.059 216.096C341.341 218.212 341.341 219.862 339.934 222.34C339.482 223.104 340.084 223.971 341.141 224.032C346.115 224.353 345.261 218.352 344.131 216.037C341.743 211.184 337.22 207.437 331.288 205.484C329.907 205.021 329.68 206.713 330.535 207.257C332.871 208.767 335.185 210.499 337.119 212.431C336.541 212.27 335.938 212.17 335.31 212.11C332.57 211.867 328.324 212.371 327.192 214.707C326.791 215.573 327.519 216.52 328.725 216.338Z" fill="#D19074"/>
<path d="M317.745 157.29C317.114 158.553 318.377 193.269 346.467 206.525L343.625 153.187L317.745 157.29Z" fill="#4E8AF5"/>
<path d="M341.517 224.044C341.395 224.044 341.27 224.04 341.141 224.032C341.27 224.04 341.396 224.044 341.517 224.044Z" fill="#4A5043"/>
<path d="M340.886 226.461C340.78 226.461 340.671 226.457 340.558 226.447C339.642 226.382 339.118 225.444 339.511 224.614C339.694 224.212 339.851 223.828 339.98 223.462C340.207 223.775 340.619 224.001 341.141 224.032C341.27 224.039 341.394 224.044 341.517 224.044C341.518 224.044 341.52 224.044 341.52 224.044C342.547 224.043 343.298 223.751 343.834 223.27C343.6 225.031 342.781 226.461 340.886 226.461Z" fill="#E45513"/>
<path d="M340.432 221.369C340.503 220.195 340.227 219.096 339.621 217.85C338.268 216.977 336.654 216.606 335.038 216.584C335.021 216.584 335.004 216.584 334.985 216.584C333.006 216.584 331.617 217.787 329.779 218.111C329.691 218.129 329.605 218.136 329.524 218.136C328.637 218.136 328.136 217.217 328.442 216.361C328.533 216.361 328.628 216.353 328.726 216.339C328.748 216.336 328.769 216.333 328.791 216.33C328.805 216.328 328.818 216.325 328.83 216.323C328.839 216.322 328.849 216.32 328.858 216.319C328.88 216.316 328.901 216.312 328.923 216.308C328.979 216.298 329.035 216.289 329.091 216.278C329.093 216.278 329.094 216.278 329.096 216.278C329.43 216.215 329.751 216.134 330.067 216.042C331.581 215.604 332.941 214.931 334.713 214.928C334.716 214.928 334.719 214.928 334.722 214.928C334.732 214.928 334.743 214.928 334.752 214.928C334.763 214.928 334.772 214.93 334.783 214.93C336.643 214.95 338.502 215.292 340.06 216.097C340.686 217.13 341.006 218.052 341.006 219.014C341.006 219.752 340.817 220.515 340.432 221.369Z" fill="#E45513"/>
<path d="M337.119 212.432C336.615 212.292 336.093 212.197 335.553 212.135C334.237 210.729 332.798 209.438 331.349 208.27C331.132 208.097 330.995 207.818 330.94 207.521C333.139 208.969 335.296 210.611 337.119 212.432Z" fill="#E45513"/>
<path d="M341.517 224.044C341.396 224.044 341.27 224.039 341.141 224.032C340.619 224 340.208 223.775 339.981 223.461C340.242 222.713 340.391 222.029 340.431 221.369C340.817 220.514 341.006 219.752 341.006 219.014C341.006 218.052 340.686 217.129 340.06 216.096C338.502 215.291 336.642 214.95 334.783 214.929C334.772 214.929 334.763 214.928 334.752 214.928C334.742 214.928 334.732 214.928 334.722 214.928C334.719 214.928 334.716 214.928 334.713 214.928C332.94 214.931 331.581 215.604 330.066 216.042C329.751 216.133 329.429 216.214 329.095 216.278C329.094 216.278 329.092 216.278 329.091 216.278C329.035 216.289 328.979 216.298 328.923 216.307C328.901 216.312 328.879 216.315 328.858 216.318C328.848 216.32 328.839 216.321 328.83 216.323C328.817 216.325 328.805 216.328 328.791 216.329C328.769 216.332 328.747 216.335 328.726 216.338C328.628 216.352 328.533 216.36 328.441 216.36C328.443 216.356 328.446 216.349 328.448 216.343C329.286 214.184 332.094 213.469 334.379 213.469C334.77 213.469 335.148 213.491 335.496 213.528C336.043 213.593 336.566 213.704 337.068 213.878C336.588 213.278 336.08 212.699 335.553 212.135C336.094 212.197 336.616 212.292 337.119 212.431C335.297 210.611 333.139 208.969 330.941 207.521C330.831 206.926 331.053 206.262 331.621 206.262C331.735 206.262 331.864 206.289 332.005 206.349C337.155 208.465 341.082 212.525 343.156 217.783C343.655 219.057 344.091 221.358 343.835 223.27C343.299 223.75 342.547 224.042 341.52 224.044C341.52 224.044 341.519 224.044 341.517 224.044Z" fill="#E45513"/>
<path d="M479.087 240.202C476.586 257.943 471.398 272.36 466.69 282.768C463.605 285.066 458.788 288.15 452.353 290.345C448.836 291.544 427.335 298.877 408.343 285.944C391.589 274.535 388.926 255.625 388.538 252.496C384.48 251.796 378.556 250.301 372.255 246.775C358.662 239.167 352.493 227.241 348.592 219.447C335.546 193.38 339.458 166.023 341.508 155.473C343.776 148.141 355.195 114.243 388.968 98.7543C394.141 96.3774 430.183 80.516 453.237 98.3193C465.743 107.982 469.44 123.626 472.858 138.151C474.272 144.101 475.064 149.725 475.468 154.914C475.499 155.287 475.514 155.644 475.545 156.001C475.685 157.679 475.763 159.31 475.794 160.879C475.81 161.175 475.81 161.454 475.81 161.734C475.949 167.886 475.577 173.168 475.095 177.316C478.761 190.893 482.894 213.217 479.087 240.202Z" fill="#F0F1EB"/>
<path d="M415.643 191.826C415.643 204.349 405.489 214.502 392.966 214.502C380.442 214.502 370.288 204.349 370.288 191.826C370.288 179.301 380.442 169.148 392.966 169.148C405.489 169.148 415.643 179.301 415.643 191.826Z" fill="#D424A0"/>
<path d="M418.453 193.72C418.453 205.669 408.767 215.357 396.817 215.357C384.867 215.357 375.18 205.669 375.18 193.72C375.18 181.77 384.867 172.082 396.817 172.082C408.767 172.082 418.453 181.77 418.453 193.72Z" fill="#081D52"/>
<path d="M394.123 212.492L394.499 214.952C394.82 217.05 396.079 218.898 398.042 220.154C400.186 221.526 402.858 221.946 405.187 221.271C408.673 220.263 410.29 216.718 410.306 216.682C412.254 212.336 409.594 208.272 409.479 208.101L407.332 204.888L410.554 207.021C410.739 207.145 415.17 210.018 419.33 207.948C420.85 207.192 422.043 205.937 422.875 204.212C424.368 201.124 424.514 195.598 420.909 193.26C418.373 191.616 415.212 192.461 414.302 192.76L413.741 191.313C417.974 189.41 420.287 184.627 419.121 180.189C417.896 175.533 413.329 172.525 408.521 173.199L407.626 173.325L407.635 172.423C407.674 168.728 405.627 165.41 402.653 164.352C400.851 163.709 398.707 163.917 396.77 164.925C394.496 166.109 392.787 168.256 392.083 170.816L391.628 172.469L390.685 171.037C389.933 169.894 388.594 168.38 386.489 167.669C382.983 166.484 378.487 167.944 377.241 170.676C376.497 172.309 376.809 174.535 376.924 175.18C377.044 175.854 377.241 176.519 377.511 177.155L378.655 179.845L376.326 178.076C376.292 178.049 372.843 175.471 369.327 176.993C367.359 177.846 365.718 180.03 365.67 181.863C365.649 182.671 366.29 183.704 367.345 184.559C368.535 185.522 369.952 186.019 370.871 185.802L371.282 187.299C367.166 188.57 364.271 193.075 364.827 197.346C365.383 201.616 369.335 205.231 373.638 205.405L374.734 205.449L374.33 206.468C372.391 211.346 374.901 217.485 379.703 219.606C384.502 221.725 390.733 219.448 393.034 214.728L394.123 212.492ZM402.922 223.139C400.941 223.139 398.928 222.562 397.205 221.462C395.443 220.335 394.152 218.797 393.456 217.019C390.298 221.338 384.025 223.21 379.076 221.027C373.857 218.722 370.988 212.298 372.555 206.861C367.94 206.176 363.892 202.193 363.287 197.546C362.754 193.462 364.926 189.191 368.372 186.967C367.621 186.657 366.926 186.218 366.366 185.766C364.901 184.579 364.081 183.14 364.117 181.823C364.18 179.362 366.157 176.673 368.711 175.567C371.33 174.434 373.845 175.088 375.465 175.811L375.394 175.45C375.223 174.483 374.921 172.017 375.827 170.032C377.401 166.581 382.722 164.754 386.986 166.198C388.81 166.814 390.143 167.916 391.078 168.989C392.072 166.644 393.829 164.705 396.054 163.547C398.369 162.342 400.961 162.098 403.175 162.887C406.523 164.08 408.902 167.58 409.164 171.574C414.477 171.262 419.273 174.657 420.621 179.794C421.667 183.768 420.318 187.976 417.401 190.712C418.777 190.725 420.321 191.028 421.755 191.957C425.877 194.63 426.271 200.751 424.274 204.888C423.287 206.929 421.856 208.427 420.023 209.339C416.957 210.864 413.82 210.167 411.817 209.381C412.527 211.285 413.105 214.235 411.724 217.316C411.648 217.489 409.79 221.557 405.617 222.764C404.749 223.014 403.839 223.139 402.922 223.139Z" fill="#D424A0"/>
<path d="M475.993 180.995C475.993 192.193 469.106 201.27 460.613 201.27C452.118 201.27 445.231 192.193 445.231 180.995C445.231 169.797 452.118 160.72 460.613 160.72C469.106 160.72 475.993 169.797 475.993 180.995Z" fill="#D424A0"/>
<path d="M474.009 183.333C474.009 193.519 467.744 201.776 460.016 201.776C452.289 201.776 446.025 193.519 446.025 183.333C446.025 173.147 452.289 164.888 460.016 164.888C467.744 164.888 474.009 173.147 474.009 183.333Z" fill="#081D52"/>
<path d="M461.529 198.463L461.903 201.686C462.158 203.888 463.309 205.809 464.979 206.824C466.21 207.57 467.557 207.725 468.771 207.262C471.024 206.404 472.108 203.283 472.119 203.251C473.447 199.344 471.635 195.663 471.558 195.508L469.769 191.952L472.762 194.576C472.882 194.68 475.689 197.097 478.302 195.381C479.3 194.728 480.086 193.625 480.642 192.104C481.791 188.966 481.543 184.163 479.346 182.285C477.816 180.977 475.956 181.567 475.228 181.882L474.523 180.503C477.355 178.823 478.893 174.551 478.1 170.566C477.286 166.492 474.322 163.852 471.229 164.419L470.305 164.588L470.313 163.649C470.337 160.347 468.987 157.399 467.03 156.479C466.11 156.046 465.027 156.095 463.988 156.614C462.198 157.508 460.808 159.589 460.266 162.185L459.811 164.369L458.812 162.373C458.31 161.374 457.429 160.054 456.071 159.448C455.02 158.982 453.768 158.993 452.629 159.485C451.478 159.985 450.594 160.921 450.202 162.052C449.69 163.532 449.906 165.547 449.983 166.13C450.066 166.732 450.201 167.332 450.386 167.913L451.358 170.963L449.095 168.696C449.073 168.676 446.901 166.544 444.757 167.772C443.462 168.51 442.38 170.445 442.349 172.086C442.329 173.04 443.053 174.286 444.067 175.045C444.624 175.46 445.18 175.65 445.515 175.544L446.042 177.004C443.312 178.113 441.4 182.125 441.779 185.943C442.15 189.715 444.728 192.906 447.524 193.054L448.512 193.106L448.226 194.054C446.929 198.357 448.63 203.953 451.796 205.795C453.061 206.532 454.56 206.653 456.026 206.125C457.953 205.435 459.589 203.708 460.403 201.506L461.529 198.463ZM467.348 209.08C466.273 209.08 465.191 208.767 464.175 208.151C462.682 207.246 461.526 205.778 460.878 204.031C459.809 205.705 458.301 206.959 456.55 207.588C454.647 208.27 452.685 208.112 451.013 207.138C447.443 205.061 445.464 199.32 446.516 194.477C443.319 193.757 440.643 190.277 440.232 186.095C439.867 182.41 441.318 178.662 443.69 176.652C443.507 176.547 443.322 176.426 443.138 176.29C441.947 175.398 440.762 173.743 440.796 172.055C440.838 169.856 442.211 167.435 443.987 166.422C445.675 165.458 447.289 165.819 448.451 166.386L448.445 166.336C448.327 165.48 448.127 163.299 448.733 161.544C449.267 160.001 450.462 158.732 452.012 158.061C453.545 157.394 455.256 157.386 456.704 158.03C457.785 158.513 458.618 159.305 459.244 160.128C460.075 157.884 461.521 156.111 463.292 155.225C464.77 154.488 466.329 154.435 467.69 155.073C470.031 156.173 471.644 159.213 471.844 162.791C475.511 162.656 478.714 165.707 479.623 170.262C480.331 173.821 479.452 177.49 477.48 179.937C478.403 179.996 479.418 180.302 480.358 181.104C483.165 183.506 483.449 188.962 482.102 192.639C481.428 194.48 480.437 195.841 479.155 196.681C477.168 197.981 475.158 197.599 473.73 196.972C474.176 198.662 474.479 201.138 473.59 203.751C473.457 204.144 472.203 207.618 469.323 208.715C468.681 208.958 468.016 209.08 467.348 209.08Z" fill="#D424A0"/>
<path d="M357.198 189.2C361.33 196.859 359.466 205.776 357.648 211.431C355.8 216.496 353.796 221.98 352.056 226.64C350.688 224.372 349.523 221.964 348.591 219.447C343.449 205.73 341.709 189.527 341.228 176.866C346.416 179.165 353.5 182.334 357.198 189.2Z" fill="#E6C7BA"/>
<path d="M448.405 117.288C451.792 126.718 449.166 130.773 448.359 131.829C442.828 139.177 424.761 135.651 414.849 127.153C409.101 122.213 406.538 115.968 406.118 114.943C404.316 110.422 403.944 106.398 403.897 103.819C403.151 107.75 401.846 113.358 399.454 119.836C396.316 128.303 388.439 149.586 370.543 160.74C359.451 167.653 347.893 168.57 341.073 169.595C341.042 161.113 341.508 155.474 341.508 155.474C343.776 148.141 355.194 114.243 388.968 98.7549C394.141 96.378 430.182 80.5166 453.237 98.3199C465.742 107.983 469.44 123.627 472.857 138.152C473.153 139.41 473.432 140.669 473.665 141.896C462.449 134.61 448.405 117.288 448.405 117.288Z" fill="#E6C7BA"/>
<path d="M350.119 85.4302C350.119 85.4302 291.228 110.72 306.041 189.48C306.041 189.48 310.321 190.726 314.258 188.619C319.451 188.287 326.134 188.262 331.318 189.628C337.292 190.132 341.043 196.292 342.887 201.997C346.447 213.014 346.611 225.104 343.35 236.214C347.991 226.247 352.726 215.871 352.699 204.875C352.673 193.808 347.835 183.443 342.755 173.542C364.612 160.232 393.507 136.962 402.143 103.494C404.214 108.404 407.859 114.95 414.326 120.701C417.538 123.558 431.867 136.295 446.392 131.375C452.472 129.317 456.369 124.916 458.505 121.919C459.53 124.764 468.289 148.593 476.296 147.504C477.618 147.325 479.398 146.399 481.239 143.011C474.619 108.86 450.263 81.666 418.693 73.3687C383.644 64.1579 354.977 82.2517 350.119 85.4302Z" fill="#4E8AF5"/>
<path d="M443.401 215.793C442.718 216.943 442.154 218.04 441.467 219.001C440.902 219.794 440.254 220.539 439.533 221.106C437.293 222.87 434.545 221.631 433.355 218.406C432.761 216.797 432.674 215.139 432.712 213.479C432.791 209.94 433.468 206.598 434.276 203.308C435.323 199.046 436.65 194.944 438.171 190.911L438.413 191.041C442.845 195.731 447.088 200.653 450.569 206.471C451.823 208.568 452.935 210.768 453.401 213.305C453.88 215.905 452.892 218.583 451.048 219.158C450.237 219.412 449.258 219.287 448.388 219.048C446.692 218.58 445.197 217.412 443.752 216.158L443.401 215.793Z" fill="#081D52"/>
<path d="M340.646 113.69C340.646 117.745 337.359 121.034 333.304 121.034C329.248 121.034 325.961 117.745 325.961 113.69C325.961 109.636 329.248 106.348 333.304 106.348C337.359 106.348 340.646 109.636 340.646 113.69Z" fill="#FEF7EA"/>
<path d="M363.923 119.822C363.999 118.371 363.101 117.006 361.933 116.143C360.763 115.281 359.347 114.835 357.955 114.421C354.194 113.301 350.395 112.311 346.569 111.441C349.35 110.517 352.129 109.592 354.91 108.67C356.912 108.003 358.961 107.312 360.605 105.99C362.249 104.666 363.428 102.555 363.053 100.478C362.679 98.4008 361.184 96.8193 359.235 97.6256C360.948 96.5459 361.582 94.0556 360.596 92.2877C359.609 90.5198 357.705 89.7834 355.885 90.6736C356.748 89.5038 356.195 87.6815 354.977 86.8908C353.757 86.0985 352.126 86.1933 350.794 86.7743C349.465 87.3568 348.369 88.3604 347.313 89.3578C344.464 92.0547 341.708 94.851 339.041 97.7281C339.631 94.8588 340.22 91.9894 340.81 89.1201C341.236 87.0524 341.661 84.9318 341.337 82.847C341.014 80.7622 339.774 78.6867 337.788 77.9721C335.803 77.2574 333.686 77.7608 333.411 79.8518C333.33 77.8291 331.492 76.0348 329.466 76.0037C327.442 75.9742 325.853 77.2574 325.713 79.277C325.132 77.9456 323.277 77.5138 321.983 78.1725C320.689 78.8327 319.954 80.2915 319.793 81.7362C319.631 83.1794 319.953 84.6304 320.29 86.0426C321.198 89.8596 322.242 93.6439 323.401 97.3926C321.211 95.446 319.02 93.501 316.83 91.556C315.253 90.1547 313.63 88.7239 311.661 87.9627C309.693 87.2015 307.276 87.2357 305.665 88.5981C304.054 89.9605 303.431 92.0453 305.104 93.3301C303.311 92.3871 300.84 93.0831 299.8 94.8215C298.763 96.5599 299.078 98.5779 300.757 99.7088C299.314 99.5457 298.012 100.936 297.936 102.387C297.86 103.838 298.758 105.204 299.926 106.066C301.096 106.926 302.513 107.374 303.905 107.789C307.666 108.909 311.464 109.898 315.29 110.768C312.51 111.693 309.73 112.615 306.95 113.54C304.947 114.206 302.898 114.896 301.254 116.22C299.611 117.543 298.432 119.654 298.806 121.731C299.181 123.809 300.673 125.39 302.623 124.584C300.911 125.663 300.277 128.154 301.264 129.922C302.25 131.689 304.155 132.426 305.974 131.536C305.112 132.706 305.665 134.528 306.883 135.319C308.102 136.111 309.732 136.016 311.063 135.435C312.395 134.852 313.49 133.849 314.545 132.85C317.395 130.155 320.151 127.36 322.817 124.481C322.228 127.351 321.638 130.22 321.048 133.089C320.624 135.157 320.196 137.277 320.521 139.362C320.846 141.447 322.084 143.523 324.069 144.237C326.056 144.952 328.174 144.45 328.449 142.357C328.528 144.38 330.367 146.174 332.392 146.206C334.416 146.235 336.007 144.952 336.145 142.932C336.727 144.264 338.582 144.696 339.876 144.037C341.17 143.377 341.904 141.918 342.067 140.473C342.228 139.03 341.907 137.58 341.57 136.167C340.659 132.35 339.617 128.564 338.456 124.815C340.647 126.762 342.837 128.707 345.029 130.653C346.606 132.055 348.23 133.485 350.198 134.247C352.166 135.008 354.584 134.974 356.195 133.611C357.806 132.249 358.428 130.164 356.755 128.879C358.547 129.822 361.02 129.126 362.059 127.388C363.097 125.649 362.781 123.631 361.102 122.5C362.545 122.662 363.847 121.273 363.923 119.822Z" fill="#6E2808"/>
<path d="M332.058 136.95C332.041 136.95 332.024 136.95 332.007 136.95C330.515 136.926 329.162 135.606 329.103 134.116C328.957 135.224 328.112 135.726 327.104 135.726C326.709 135.726 326.29 135.648 325.88 135.5C324.418 134.975 323.506 133.447 323.266 131.91C323.027 130.375 323.341 128.814 323.655 127.293C324.088 125.179 324.523 123.066 324.957 120.953C322.993 123.074 320.964 125.132 318.865 127.116C318.089 127.851 317.282 128.59 316.302 129.019C315.816 129.232 315.275 129.356 314.745 129.356C314.205 129.356 313.677 129.227 313.225 128.934C312.327 128.351 311.92 127.009 312.555 126.148C312.168 126.338 311.777 126.426 311.396 126.426C310.461 126.426 309.603 125.886 309.086 124.96C308.361 123.658 308.827 121.825 310.088 121.029C309.827 121.136 309.577 121.186 309.341 121.186C308.28 121.186 307.503 120.18 307.278 118.929C307.003 117.4 307.87 115.845 309.08 114.871C310.29 113.897 311.798 113.388 313.273 112.898C315.32 112.218 317.368 111.537 319.415 110.857C316.597 110.217 313.801 109.488 311.031 108.663C310.006 108.357 308.963 108.029 308.103 107.394C307.242 106.759 306.58 105.754 306.636 104.686C306.689 103.675 307.551 102.704 308.545 102.704C308.601 102.704 308.657 102.707 308.715 102.713C307.478 101.881 307.245 100.395 308.009 99.1154C308.541 98.2252 309.583 97.7064 310.613 97.7064C311.064 97.7064 311.513 97.8058 311.915 98.0171C310.681 97.071 311.141 95.5361 312.328 94.5325C313.016 93.9499 313.905 93.6983 314.814 93.6983C315.469 93.6983 316.136 93.8303 316.743 94.0649C318.191 94.6257 319.387 95.679 320.549 96.7105C322.162 98.1429 323.775 99.5753 325.387 101.009C324.534 98.2486 323.765 95.4615 323.096 92.6512C322.847 91.6104 322.611 90.5431 322.729 89.4805C322.849 88.4179 323.389 87.3429 324.342 86.8566C324.638 86.7059 324.974 86.6329 325.309 86.6329C326.054 86.6329 326.795 86.9949 327.09 87.6707C327.191 86.1995 328.336 85.2596 329.802 85.2596C329.819 85.2596 329.836 85.2596 329.853 85.2596C331.345 85.2829 332.698 86.6034 332.757 88.0932C332.901 86.9871 333.748 86.4838 334.755 86.4838C335.149 86.4838 335.569 86.5615 335.98 86.709C337.442 87.2357 338.354 88.7628 338.593 90.2992C338.833 91.8341 338.517 93.3953 338.205 94.9178C337.772 97.0306 337.337 99.1434 336.902 101.256C338.865 99.1371 340.894 97.0787 342.993 95.0934C343.179 94.9178 343.366 94.7422 343.555 94.5714C343.515 95.2984 343.659 96.0301 344.015 96.6702C344.717 97.927 345.884 98.6618 347.153 98.6618C347.669 98.6618 348.202 98.5406 348.727 98.2843C347.865 99.4541 348.418 101.276 349.636 102.067C350.249 102.466 350.969 102.64 351.7 102.64C352.421 102.64 353.156 102.471 353.816 102.182C353.92 102.137 354.023 102.089 354.124 102.039C354.343 102.395 354.5 102.821 354.582 103.28C354.857 104.809 353.99 106.364 352.78 107.338C351.57 108.312 350.06 108.822 348.586 109.311C346.54 109.992 344.492 110.672 342.446 111.352C345.263 111.992 348.059 112.721 350.829 113.546C351.853 113.852 352.897 114.18 353.757 114.815C354.618 115.449 355.28 116.454 355.224 117.523C355.169 118.534 354.309 119.505 353.315 119.505C353.259 119.505 353.203 119.502 353.145 119.496C354.382 120.329 354.615 121.814 353.851 123.094C353.319 123.984 352.277 124.503 351.247 124.503C350.796 124.503 350.347 124.404 349.945 124.192C351.178 125.138 350.719 126.673 349.532 127.675C348.844 128.258 347.955 128.511 347.048 128.511C346.391 128.511 345.724 128.379 345.117 128.144C343.669 127.584 342.473 126.53 341.311 125.499C339.698 124.066 338.085 122.633 336.471 121.2C337.326 123.961 338.095 126.748 338.764 129.558C339.011 130.599 339.249 131.666 339.129 132.729C339.01 133.793 338.471 134.866 337.517 135.353C337.222 135.503 336.886 135.576 336.551 135.576C335.806 135.576 335.065 135.216 334.77 134.539C334.669 136.01 333.524 136.95 332.058 136.95Z" fill="#E45513"/>
<path d="M336.104 111.935C336.104 115.657 333.085 118.676 329.361 118.676C325.638 118.676 322.619 115.657 322.619 111.935C322.619 108.211 325.638 105.193 329.361 105.193C333.085 105.193 336.104 108.211 336.104 111.935Z" fill="#FEF7EA"/>
<path d="M405.107 87.3983C405.183 85.9489 404.285 84.5834 403.117 83.7212C401.947 82.859 400.53 82.4131 399.138 81.9967C395.377 80.8767 391.579 79.8886 387.753 79.0187C390.532 78.0943 393.313 77.17 396.093 76.2457C398.096 75.5808 400.145 74.8894 401.789 73.5658C403.432 72.2422 404.61 70.1325 404.237 68.0555C403.862 65.9784 402.368 64.3954 400.418 65.2033C402.13 64.122 402.766 61.6333 401.779 59.8654C400.793 58.0959 398.887 57.3611 397.067 58.2497C397.93 57.0815 397.378 55.2592 396.159 54.4669C394.941 53.6762 393.309 53.7709 391.978 54.3519C390.647 54.9345 389.553 55.9381 388.497 56.9355C385.646 59.6308 382.892 62.4271 380.224 65.3058C380.815 62.4364 381.403 59.5671 381.994 56.6978C382.418 54.63 382.845 52.5095 382.52 50.4246C382.197 48.3398 380.957 46.2628 378.972 45.5497C376.987 44.8351 374.869 45.3369 374.594 47.4295C374.513 45.4053 372.676 43.611 370.65 43.5814C368.626 43.5519 367.036 44.8335 366.897 46.8547C366.316 45.5233 364.461 45.0899 363.167 45.7501C361.871 46.4088 361.138 47.8692 360.976 49.3124C360.815 50.7572 361.136 52.2065 361.473 53.6202C362.382 57.4372 363.426 61.2216 364.585 64.9702C362.394 63.0237 360.204 61.0787 358.014 59.1321C356.437 57.7308 354.813 56.3016 352.845 55.5388C350.877 54.7776 348.459 54.8133 346.848 56.1758C345.237 57.5382 344.613 59.623 346.288 60.9078C344.495 59.9648 342.022 60.6608 340.984 62.3976C339.946 64.136 340.262 66.1555 341.941 67.285C340.498 67.1234 339.196 68.5138 339.12 69.9648C339.044 71.4142 339.94 72.7798 341.11 73.642C342.28 74.5042 343.696 74.9516 345.088 75.3663C348.849 76.4864 352.648 77.4745 356.474 78.346C353.693 79.2688 350.914 80.1931 348.133 81.1175C346.131 81.7824 344.08 82.4737 342.436 83.7973C340.793 85.1209 339.615 87.2321 339.99 89.3091C340.364 91.3846 341.857 92.9677 343.807 92.1599C342.095 93.2411 341.459 95.7298 342.446 97.4993C343.432 99.2672 345.338 100.002 347.158 99.1134C346.295 100.283 346.848 102.105 348.066 102.896C349.284 103.687 350.916 103.594 352.247 103.011C353.578 102.43 354.674 101.427 355.728 100.428C358.579 97.7323 361.335 94.936 364.001 92.0589C363.412 94.9282 362.822 97.7976 362.231 100.667C361.807 102.735 361.38 104.854 361.705 106.94C362.029 109.025 363.268 111.1 365.253 111.815C367.238 112.53 369.356 112.026 369.632 109.935C369.712 111.958 371.551 113.752 373.575 113.782C375.599 113.813 377.189 112.53 377.328 110.51C377.909 111.841 379.764 112.273 381.06 111.615C382.354 110.954 383.087 109.496 383.249 108.051C383.412 106.608 383.089 105.157 382.753 103.744C381.843 99.9259 380.799 96.1415 379.64 92.3929C381.831 94.3379 384.021 96.2844 386.213 98.231C387.79 99.6322 389.413 101.061 391.382 101.823C393.348 102.585 395.766 102.55 397.378 101.187C398.989 99.8264 399.612 97.7401 397.939 96.4553C399.73 97.3983 402.203 96.7039 403.243 94.9655C404.28 93.2271 403.965 91.2091 402.284 90.0781C403.729 90.2397 405.031 88.8493 405.107 87.3983Z" fill="#6E2808"/>
<path d="M373.241 104.528C373.224 104.528 373.207 104.528 373.19 104.526C371.699 104.505 370.346 103.184 370.287 101.694C370.141 102.8 369.294 103.304 368.287 103.304C367.893 103.304 367.473 103.226 367.063 103.078C365.601 102.552 364.688 101.023 364.45 99.4882C364.211 97.9534 364.525 96.3921 364.837 94.8696C365.272 92.7569 365.707 90.6441 366.14 88.5313C364.177 90.6503 362.148 92.7087 360.049 94.6941C359.272 95.4289 358.466 96.1684 357.486 96.5972C356.999 96.8084 356.459 96.9327 355.928 96.9327C355.388 96.9327 354.86 96.8053 354.408 96.5117C353.51 95.9291 353.103 94.5869 353.739 93.7262C353.352 93.9158 352.959 94.0043 352.58 94.0043C351.644 94.0043 350.785 93.4637 350.27 92.5378C349.544 91.236 350.01 89.4028 351.272 88.6059C351.011 88.7146 350.761 88.7643 350.524 88.7643C349.463 88.7643 348.687 87.7576 348.461 86.5071C348.185 84.9768 349.053 83.4233 350.263 82.4493C351.474 81.4752 352.982 80.9657 354.456 80.4763C356.504 79.7959 358.551 79.1154 360.599 78.435C357.781 77.7934 354.983 77.0664 352.215 76.2415C351.189 75.9354 350.147 75.606 349.286 74.9722C348.424 74.3368 347.764 73.3317 347.82 72.2629C347.873 71.2531 348.735 70.2821 349.727 70.2821C349.783 70.2821 349.841 70.2853 349.898 70.2915C348.662 69.4588 348.429 67.9721 349.193 66.6936C349.724 65.8034 350.767 65.2845 351.797 65.2845C352.247 65.2845 352.696 65.3839 353.099 65.5952C351.865 64.6491 352.325 63.1143 353.51 62.1107C354.2 61.5281 355.089 61.2749 355.996 61.2749C356.653 61.2749 357.318 61.4069 357.927 61.6431C359.375 62.2039 360.571 63.2556 361.731 64.2887C363.346 65.721 364.958 67.1534 366.571 68.5857C365.716 65.8267 364.949 63.0397 364.279 60.2294C364.031 59.1885 363.794 58.1213 363.913 57.0586C364.032 55.9945 364.573 54.921 365.525 54.4347C365.822 54.284 366.157 54.211 366.491 54.211C367.236 54.211 367.977 54.5714 368.273 55.2488C368.374 53.7776 369.519 52.8377 370.986 52.8377C371.003 52.8377 371.02 52.8377 371.037 52.8377C372.527 52.8595 373.881 54.1815 373.939 55.6713C374.085 54.5637 374.932 54.0619 375.938 54.0619C376.333 54.0619 376.752 54.138 377.164 54.2872C378.626 54.8122 379.538 56.3409 379.777 57.8758C380.015 59.4122 379.701 60.9735 379.389 62.4944C378.954 64.6087 378.52 66.7215 378.085 68.8327C380.049 66.7137 382.078 64.6553 384.177 62.6715C384.953 61.9351 385.76 61.1972 386.74 60.7684C387.226 60.5556 387.767 60.4313 388.298 60.4313C388.837 60.4313 389.367 60.5603 389.819 60.8539C390.715 61.4364 391.122 62.7771 390.487 63.6378C390.875 63.4498 391.267 63.3597 391.647 63.3597C392.581 63.3597 393.44 63.9019 393.956 64.8278C394.683 66.1296 394.215 67.9627 392.954 68.7581C393.217 68.6494 393.467 68.5997 393.703 68.5997C394.764 68.5997 395.541 69.6079 395.766 70.8585C396.041 72.3872 395.174 73.9407 393.964 74.9163C392.754 75.8904 391.244 76.3983 389.769 76.8893C387.722 77.5697 385.676 78.2501 383.628 78.9306C386.446 79.5706 389.243 80.2992 392.011 81.1241C393.036 81.4286 394.08 81.758 394.941 82.3918C395.802 83.0272 396.462 84.0323 396.406 85.1012C396.353 86.1125 395.492 87.0834 394.498 87.0834C394.442 87.0834 394.386 87.0803 394.329 87.0726C395.565 87.9052 395.798 89.3919 395.034 90.672C394.503 91.5622 393.46 92.0811 392.43 92.0811C391.98 92.0811 391.531 91.9801 391.129 91.7688C392.362 92.7149 391.902 94.2513 390.715 95.2534C390.027 95.8359 389.139 96.0892 388.23 96.0892C387.574 96.0892 386.908 95.9571 386.3 95.721C384.851 95.1601 383.656 94.1084 382.494 93.0769C380.882 91.643 379.269 90.2107 377.655 88.7783C378.509 91.5374 379.277 94.3244 379.948 97.1362C380.195 98.1771 380.433 99.2443 380.313 100.307C380.193 101.37 379.654 102.445 378.7 102.931C378.405 103.082 378.07 103.155 377.734 103.155C376.99 103.155 376.249 102.793 375.954 102.117C375.851 103.588 374.708 104.528 373.241 104.528Z" fill="#E45513"/>
<path d="M378.856 78.6821C378.856 82.4059 375.837 85.4243 372.113 85.4243C368.39 85.4243 365.371 82.4059 365.371 78.6821C365.371 74.9583 368.39 71.9398 372.113 71.9398C375.837 71.9398 378.856 74.9583 378.856 78.6821Z" fill="#FEF7EA"/>
<path d="M467.114 86.434C467.19 84.983 466.292 83.619 465.122 82.7568C463.954 81.8946 462.537 81.4487 461.145 81.0324C457.384 79.9123 453.586 78.9243 449.759 78.0527C452.539 77.13 455.319 76.2056 458.099 75.2813C460.101 74.6164 462.152 73.925 463.795 72.6015C465.439 71.2779 466.617 69.1682 466.242 67.0911C465.869 65.0141 464.375 63.4311 462.425 64.2389C464.139 63.1577 464.773 60.6689 463.786 58.901C462.8 57.1316 460.893 56.3968 459.074 57.2854C459.936 56.1171 459.385 54.2933 458.165 53.5025C456.947 52.7118 455.316 52.8066 453.985 53.3876C452.654 53.9686 451.558 54.9737 450.504 55.9711C447.653 58.668 444.897 61.4628 442.231 64.3414C442.821 61.4721 443.41 58.6027 444 55.7319C444.425 53.6657 444.852 51.5451 444.527 49.4603C444.204 47.3755 442.964 45.2984 440.979 44.5838C438.994 43.8707 436.876 44.3726 436.6 46.4651C436.52 44.4409 434.683 42.6466 432.657 42.6171C430.632 42.5876 429.043 43.8692 428.903 45.8903C428.322 44.559 426.468 44.1255 425.173 44.7858C423.878 45.4445 423.145 46.9047 422.983 48.348C422.821 49.7927 423.143 51.2422 423.479 52.6559C424.389 56.4729 425.433 60.2572 426.592 64.0059C424.401 62.0593 422.211 60.1143 420.02 58.1678C418.444 56.7665 416.82 55.3373 414.852 54.5745C412.884 53.8133 410.466 53.849 408.855 55.2114C407.244 56.5738 406.62 58.6587 408.295 59.9434C406.502 59.0004 404.029 59.6949 402.991 61.4348C401.951 63.1716 402.268 65.1912 403.948 66.3206C402.505 66.159 401.203 67.5494 401.127 68.9989C401.05 70.4498 401.947 71.8154 403.117 72.6776C404.286 73.5398 405.703 73.9856 407.095 74.4004C410.855 75.5221 414.655 76.5101 418.481 77.3816C415.7 78.3044 412.921 79.2288 410.14 80.1531C408.138 80.818 406.087 81.5093 404.445 82.8329C402.8 84.1565 401.622 86.2677 401.997 88.3432C402.371 90.4203 403.864 92.0033 405.814 91.1955C404.102 92.2767 403.466 94.7655 404.453 96.5349C405.439 98.3028 407.345 99.0376 409.164 98.149C408.302 99.3188 408.855 101.141 410.073 101.932C411.291 102.723 412.922 102.629 414.254 102.047C415.585 101.466 416.68 100.462 417.735 99.4633C420.586 96.768 423.342 93.9716 426.008 91.0929C425.417 93.9638 424.829 96.8332 424.238 99.7026C423.814 101.769 423.387 103.889 423.712 105.976C424.036 108.06 425.274 110.136 427.26 110.851C429.245 111.565 431.363 111.062 431.639 108.971C431.718 110.993 433.556 112.788 435.582 112.817C437.606 112.848 439.195 111.565 439.335 109.546C439.916 110.877 441.771 111.309 443.065 110.65C444.361 109.99 445.094 108.53 445.256 107.086C445.417 105.643 445.096 104.192 444.76 102.78C443.85 98.9615 442.806 95.1772 441.647 91.4285C443.837 93.3735 446.028 95.3201 448.218 97.2666C449.797 98.6679 451.42 100.097 453.388 100.858C455.355 101.621 457.772 101.585 459.385 100.223C460.996 98.8605 461.619 96.7757 459.946 95.491C461.737 96.4339 464.21 95.7395 465.249 93.9996C466.287 92.2612 465.972 90.2432 464.291 89.1138C465.736 89.2753 467.038 87.8849 467.114 86.434Z" fill="#6E2808"/>
<path d="M435.248 103.563C435.231 103.563 435.214 103.561 435.197 103.561C433.706 103.54 432.353 102.219 432.294 100.729C432.147 101.835 431.301 102.339 430.294 102.339C429.9 102.339 429.48 102.261 429.07 102.114C427.608 101.587 426.695 100.058 426.457 98.5234C426.218 96.9885 426.532 95.4272 426.844 93.9048C427.279 91.792 427.714 89.6792 428.147 87.5664C426.184 89.6854 424.155 91.7438 422.056 93.7292C421.279 94.464 420.473 95.2035 419.493 95.6307C419.006 95.8436 418.466 95.9679 417.934 95.9679C417.395 95.9679 416.867 95.8405 416.415 95.5469C415.517 94.9643 415.11 93.622 415.745 92.7614C415.359 92.9509 414.966 93.0395 414.587 93.0395C413.651 93.0395 412.792 92.4989 412.276 91.573C411.551 90.2696 412.017 88.4364 413.278 87.641C413.017 87.7498 412.767 87.7995 412.531 87.7995C411.47 87.7995 410.693 86.7928 410.467 85.5422C410.192 84.012 411.06 82.4585 412.27 81.4844C413.48 80.5088 414.989 80.0008 416.463 79.5115C418.511 78.831 420.558 78.1506 422.604 77.4702C419.788 76.8285 416.99 76.1015 414.221 75.2751C413.196 74.9706 412.154 74.6412 411.293 74.0074C410.431 73.372 409.771 72.3669 409.827 71.298C409.879 70.2883 410.742 69.3173 411.734 69.3173C411.792 69.3173 411.848 69.3204 411.905 69.3266C410.667 68.494 410.436 67.0072 411.2 65.7271C411.731 64.8385 412.774 64.3197 413.804 64.3197C414.254 64.3197 414.703 64.4191 415.105 64.6304C413.872 63.6843 414.332 62.1494 415.517 61.1458C416.207 60.5632 417.095 60.31 418.003 60.31C418.66 60.31 419.325 60.4421 419.934 60.6782C421.382 61.2375 422.578 62.2907 423.738 63.3238C425.351 64.7562 426.965 66.1885 428.577 67.6209C427.723 64.8603 426.956 62.0748 426.286 59.2645C426.037 58.2237 425.801 57.1564 425.919 56.0938C426.039 55.0296 426.58 53.9546 427.532 53.4699C427.829 53.3192 428.164 53.2446 428.498 53.2446C429.242 53.2446 429.983 53.6066 430.279 54.2824C430.381 52.8128 431.526 51.8729 432.993 51.8729C433.01 51.8729 433.027 51.8729 433.044 51.8729C434.534 51.8946 435.888 53.2167 435.946 54.7065C436.092 53.5988 436.938 53.0971 437.945 53.0971C438.34 53.0971 438.759 53.1732 439.171 53.3223C440.633 53.8474 441.545 55.376 441.784 56.9109C442.022 58.4473 441.708 60.0086 441.396 61.5295C440.961 63.6423 440.527 65.7551 440.092 67.8679C442.056 65.7489 444.085 63.6905 446.183 61.7066C446.96 60.9703 447.767 60.2323 448.747 59.8036C449.233 59.5907 449.774 59.4665 450.305 59.4665C450.844 59.4665 451.374 59.5954 451.826 59.8875C452.722 60.4716 453.129 61.8123 452.494 62.6729C452.881 62.4849 453.274 62.3948 453.653 62.3948C454.588 62.3948 455.447 62.9354 455.963 63.8613C456.69 65.1647 456.222 66.9979 454.961 67.7933C455.223 67.6846 455.474 67.6348 455.71 67.6348C456.771 67.6348 457.547 68.6415 457.773 69.8937C458.048 71.4223 457.181 72.9758 455.971 73.9515C454.76 74.9255 453.25 75.4335 451.776 75.9244C449.73 76.6049 447.683 77.2853 445.635 77.9657C448.453 78.6058 451.249 79.3344 454.018 80.1593C455.043 80.4638 456.087 80.7931 456.948 81.4269C457.808 82.0623 458.469 83.0675 458.413 84.1363C458.36 85.1476 457.499 86.117 456.505 86.117C456.449 86.117 456.393 86.1139 456.336 86.1077C457.572 86.9404 457.805 88.4271 457.041 89.7072C456.508 90.5974 455.466 91.1147 454.437 91.1147C453.985 91.1147 453.538 91.0153 453.135 90.804C454.367 91.7501 453.909 93.2849 452.722 94.2885C452.034 94.8711 451.145 95.1243 450.237 95.1243C449.581 95.1243 448.915 94.9923 448.307 94.7561C446.858 94.1953 445.663 93.1436 444.501 92.112C442.888 90.6781 441.276 89.2458 439.662 87.8119C440.516 90.5725 441.284 93.3595 441.955 96.1714C442.202 97.2107 442.439 98.2795 442.32 99.3421C442.2 100.405 441.66 101.48 440.707 101.966C440.411 102.117 440.075 102.19 439.741 102.19C438.997 102.19 438.256 101.828 437.961 101.152C437.86 102.623 436.715 103.563 435.248 103.563Z" fill="#E45513"/>
<path d="M440.863 77.7172C440.863 81.441 437.845 84.4595 434.121 84.4595C430.397 84.4595 427.379 81.441 427.379 77.7172C427.379 73.9935 430.397 70.975 434.121 70.975C437.845 70.975 440.863 73.9935 440.863 77.7172Z" fill="#FEF7EA"/>
<path d="M375.106 189.376L375.097 189.398C375.17 189.455 380.433 185.935 384.554 181.868C385.106 181.324 386.041 180.372 387.581 179.283C388.931 178.329 390.167 177.678 390.974 177.29C391.817 176.934 392.988 176.504 394.442 176.149C397.688 175.362 400.329 175.444 400.868 175.474C405.14 175.699 408.326 177.145 409.973 178.035C409.973 178.035 395.222 153.462 375.106 189.376Z" fill="#131428"/>
<path d="M378.056 185.472C373.922 183.157 370.526 179.994 368.279 176.365C370.937 179.877 376.518 181.773 381.494 180.855C379.861 182.779 379.688 183.547 378.056 185.472Z" fill="#131428"/>
<path d="M382.611 178.481C379.392 175.363 377.165 171.586 376.198 167.606C377.6 171.562 382.352 174.585 387.452 174.768C385.241 176.273 384.822 176.976 382.611 178.481Z" fill="#131428"/>
<path d="M390.026 173.123C388.424 169.28 388.044 165.108 388.929 161.117C388.46 165.213 391.533 169.415 396.208 171.071C393.47 171.831 392.763 172.365 390.026 173.123Z" fill="#131428"/>
<path d="M478.781 177.186L478.795 177.203C478.757 177.278 473.614 175.303 469.164 172.516C468.569 172.142 467.55 171.481 466.028 170.849C464.69 170.293 463.539 169.998 462.8 169.836C462.041 169.718 461.008 169.613 459.787 169.654C457.059 169.746 455.069 170.507 454.669 170.672C451.481 171.991 449.514 174.183 448.543 175.452C448.543 175.452 451.916 148.367 478.781 177.186Z" fill="#131428"/>
<path d="M475.279 174.25C477.69 170.99 479.265 167.117 479.815 163.098C478.914 167.111 475.265 170.349 471.175 170.765C473.037 172.166 473.415 172.85 475.279 174.25Z" fill="#131428"/>
<path d="M469.562 168.804C471.018 165.02 471.504 160.867 470.965 156.848C471.166 160.956 468.511 165.048 464.677 166.539C466.847 167.392 467.392 167.951 469.562 168.804Z" fill="#131428"/>
<path d="M462.187 165.646C462.176 161.592 461.129 157.543 459.173 153.99C460.845 157.748 459.847 162.524 456.813 165.3C459.145 165.311 459.855 165.634 462.187 165.646Z" fill="#131428"/>
<path d="M393.119 159.833C387.343 160.718 379.26 163.917 369.774 174.492C369.84 173.173 370.056 171.271 370.759 169.106C372.237 164.563 374.913 161.775 377.001 159.649C378.918 157.697 383.63 153.008 391.471 150.492L396.932 149.003C399.432 148.67 404.532 147.903 404.932 147.503C405.432 147.003 415.432 149.003 416.432 149.003C417.232 149.003 423.098 149.336 425.932 149.503L430.932 150.492L435.932 149.503L442.432 147.503L448.932 147.007H456.432H461.138C469.212 148.61 474.429 152.735 476.559 154.457C476.624 154.511 476.691 154.565 476.76 154.62L476.76 154.62C476.884 154.719 477.011 154.821 477.136 154.93C477.126 155.113 477.113 155.292 477.1 155.47C477.086 155.653 477.073 155.835 477.063 156.017C476.973 157.698 476.826 159.325 476.642 160.883C476.618 161.177 476.579 161.453 476.54 161.729L476.54 161.731C470.029 157.788 464.669 156.623 460.565 156.479H459.932C458.265 155.962 454.732 154.93 453.932 154.93H442.932C442.432 154.93 434.932 156.479 434.432 157.003C434.032 157.422 431.265 157.511 429.932 157.503C426.098 157.008 418.232 156.017 417.432 156.017H403.932L393.119 159.833Z" fill="#4E8AF5"/>
<path d="M340.591 171.894C340.591 171.894 333.554 180.92 326.035 178.916L325.522 187.958C325.522 187.958 324.264 188.532 322.306 189.185C321.949 189.294 321.576 189.402 321.188 189.527C319.836 189.931 318.252 190.319 316.589 190.599C316.217 190.661 315.828 190.723 315.424 190.769C313.591 190.987 311.68 191.033 309.894 190.754C309.49 190.692 309.086 190.614 308.698 190.505C307.765 190.288 306.864 189.946 306.041 189.48L303.944 172.888L297.419 171.894C297.419 171.894 293.194 154.464 302.546 142.983C310.344 133.383 324.885 133.01 333.88 141.492C339.923 147.178 344.77 156.639 340.591 171.894Z" fill="#FEF7EA"/>
<path d="M327.261 165.788C327.261 167.952 326.259 169.706 325.022 169.706C323.786 169.706 322.782 167.952 322.782 165.788C322.782 163.624 323.786 161.87 325.022 161.87C326.259 161.87 327.261 163.624 327.261 165.788Z" fill="#081D52"/>
<path d="M303.976 163.549C303.976 165.713 302.974 167.467 301.738 167.467C300.501 167.467 299.499 165.713 299.499 163.549C299.499 161.385 300.501 159.631 301.738 159.631C302.974 159.631 303.976 161.385 303.976 163.549Z" fill="#081D52"/>
<path d="M309.894 190.754C309.49 190.692 309.086 190.614 308.698 190.505L307.082 176.26L308.247 176.12L309.894 190.754Z" fill="#081D52"/>
<path d="M316.589 190.599C316.216 190.661 315.828 190.723 315.424 190.77C314.368 186.14 313.762 181.402 313.575 176.664L314.74 176.617C314.911 181.309 315.533 186.016 316.589 190.599Z" fill="#081D52"/>
<path d="M322.306 189.185C321.949 189.294 321.576 189.403 321.187 189.527L319.308 177.409L320.457 177.223L322.306 189.185Z" fill="#081D52"/>
<path d="M407.888 254.662C414.443 246.556 422.38 239.568 431.252 234.09C433.07 232.967 435.279 231.875 437.255 232.689C438.647 233.262 439.54 234.689 439.87 236.157C440.199 237.626 440.05 239.155 439.901 240.653C444.035 238.964 447.884 236.354 451.099 233.253C452.405 231.993 454.192 230.516 455.801 231.355C457.212 232.09 457.292 234.059 457.064 235.635C456.37 240.429 454.605 245.066 451.936 249.108C452.014 252.003 452.237 255.218 451.608 258.043C450.979 260.868 449.626 263.621 447.366 265.43C445.105 267.238 441.849 267.937 439.222 266.722C429.04 262.012 417.263 260.823 407.888 254.662Z" fill="#F02DE3"/>
<path d="M434.315 254.232C418.985 254.232 404.151 248.013 403.264 247.634L403.838 246.289C404.146 246.419 434.729 259.237 453.032 248.284L453.784 249.539C447.974 253.016 441.095 254.232 434.315 254.232Z" fill="#081D52"/>
</g>
<defs>
<filter id="filter0_d_500_2772" x="0" y="0" width="738.987" height="879.5" filterUnits="userSpaceOnUse" color-interpolation-filters="sRGB">
<feFlood flood-opacity="0" result="BackgroundImageFix"/>
<feColorMatrix in="SourceAlpha" type="matrix" values="0 0 0 0 0 0 0 0 0 0 0 0 0 0 0 0 0 0 127 0" result="hardAlpha"/>
<feOffset dx="17" dy="4"/>
<feGaussianBlur stdDeviation="9.5"/>
<feComposite in2="hardAlpha" operator="out"/>
<feColorMatrix type="matrix" values="0 0 0 0 0 0 0 0 0 0 0 0 0 0 0 0 0 0 0.25 0"/>
<feBlend mode="normal" in2="BackgroundImageFix" result="effect1_dropShadow_500_2772"/>
<feBlend mode="normal" in="SourceGraphic" in2="effect1_dropShadow_500_2772" result="shape"/>
</filter>
</defs>
</svg>
