<svg width="134" height="130" viewBox="0 0 134 130" fill="none" xmlns="http://www.w3.org/2000/svg">
<path d="M55.151 103.023C54.9406 101.64 56.1591 99.1402 56.5709 97.8039C57.1234 96.0153 57.738 94.2454 58.414 92.4986C59.7535 89.0384 61.3311 85.6703 63.1336 82.4272C64.1525 80.5929 65.2619 78.8195 66.3964 77.0561C65.2891 78.3724 63.8429 79.2161 62.7371 80.5808C61.5078 82.098 60.4132 83.724 59.4647 85.4301C57.5665 88.8438 56.2493 92.5824 55.5991 96.4345C55.2333 98.6088 55.0787 100.819 55.151 103.023Z" fill="#E4BD58"/>
<path d="M76.973 44.1001C78.3947 40.5327 78.5917 36.4906 77.5242 32.8017C76.5743 29.5194 74.5803 26.3204 71.8655 24.208C72.3742 25.3304 73.3336 26.3579 73.9429 27.459C74.6196 28.6839 75.1978 29.9625 75.6736 31.2784C76.6095 33.8725 77.146 36.6131 77.2432 39.3697C77.2984 40.9511 77.2106 42.5371 76.973 44.1001Z" fill="#F3E2A2"/>
<path d="M42.2727 29.0549C47.226 30.5938 51.7977 33.3295 55.5208 36.9382C56.5843 37.9697 57.5273 39.0897 58.4847 40.2154C58.0901 38.9798 57.8771 37.7597 57.0769 36.7159C56.2322 35.6129 55.2425 34.6177 54.1674 33.7409C52.012 31.9822 49.4842 30.6942 46.8202 29.9044C46.069 29.6811 45.3061 29.4988 44.5361 29.3561C43.9489 29.2459 42.8522 28.8889 42.2727 29.0549Z" fill="#F3E2A2"/>
<path d="M44.1373 70.3845C40.9607 71.8892 37.9965 73.9044 35.6511 76.5219C36.0532 76.0633 36.9511 75.739 37.4815 75.4331C38.1369 75.0544 38.7989 74.6855 39.465 74.326C40.8185 73.5953 42.1943 72.905 43.5886 72.2533C46.3335 70.9722 49.1519 69.8467 52.0252 68.8855C53.6527 68.3411 55.3024 67.8906 56.9477 67.4093C55.1552 67.4434 53.3381 67.2659 51.5873 67.7148C49.0367 68.3678 46.5165 69.2564 44.1373 70.3845Z" fill="#F3E2A2"/>
<path d="M46.2292 102.114C48.5801 88.2444 57.5211 75.6421 69.8334 68.8407C57.2704 70.6252 45.456 76.4336 36.8486 85.7572" fill="#6A9B57"/>
<path d="M15.7576 59.503C17.8721 57.8528 20.5096 57.0377 23.1208 56.4223C38.9781 52.6848 56.2542 55.3698 70.2292 63.7452C65.3886 56.8802 58.723 51.0395 51.09 47.5339C43.4569 44.0282 34.8903 42.5787 26.5281 43.3798" fill="#6A9B57"/>
<path d="M51.3773 26.5394C62.2912 32.9983 71.1261 48.1414 72.1933 60.7792C73.6115 51.1974 71.6461 41.0845 67.5538 32.3048C63.4616 23.5251 56.7504 15.9881 48.5011 10.9113C48.6509 10.9143 48.8013 10.9165 48.9512 10.9195" fill="#E4BD58"/>
<path d="M111.764 45.6562C97.221 44.6235 82.3501 51.3179 73.4829 62.891C83.3048 57.2297 94.9573 55.4496 105.98 58.1003" fill="#DB3553"/>
<path d="M70.6595 106.451C70.4696 106.709 70.281 106.968 70.0911 107.227C77.2072 95.8918 78.0391 80.873 72.2188 68.8217C81.0855 77.1754 86.1741 89.8016 85.8573 101.98" fill="#DB3553"/>
<path d="M121.327 77.6566C109.785 67.5435 93.4155 63.2086 78.3809 66.2856C89.1962 68.7246 98.9705 74.9866 106.354 83.2589" fill="#E4BD58"/>
<path d="M56.6977 63.1092C43.9893 60.5797 30.1768 64.3912 20.5642 73.0806C24.3949 67.2844 30.1272 62.9111 36.8268 61.073C43.5264 59.2348 50.4461 60.0801 56.6977 63.1092Z" fill="#DB3553"/>
<path d="M24.6759 34.5525C30.4864 32.0917 37.2545 33.0972 43.0829 35.5138C50.1825 38.4583 56.4224 43.4452 60.8593 49.7221C56.8848 46.1432 53.3155 42.6862 48.5284 40.1144C43.8835 37.6196 38.8197 35.9025 33.6117 35.0764C30.6604 34.6076 27.662 34.4266 24.6759 34.5525Z" fill="#E4BD58"/>
<path d="M85.6898 41.5401C89.183 38.889 93.234 37.0463 97.4019 35.6832C89.0253 40.8404 81.8529 47.9411 76.6128 56.2659C76.928 55.765 76.9438 54.7399 77.1276 54.1526C77.3389 53.4747 77.6475 52.8268 77.8247 52.1411C78.1687 50.8155 78.6042 49.7037 79.3261 48.5034C80.9578 45.79 83.1745 43.4494 85.6898 41.5401Z" fill="#6A9B57"/>
<path d="M94.5611 102.796C96.6083 97.4439 96.5648 91.3239 94.443 86.001C92.5974 81.3709 89.0095 76.9118 84.5444 74.5757C89.8327 80.4551 93.1799 88.1872 94.2321 95.9921C94.5363 98.2459 94.6497 100.525 94.5611 102.796Z" fill="#6A9B57"/>
</svg>
