<svg width="213" height="282" viewBox="0 0 213 282" fill="none" xmlns="http://www.w3.org/2000/svg">
<g filter="url(#filter0_d_312_24462)">
<path d="M84.6974 86.4606C82.6613 85.8742 80.2521 85.0127 79.2369 83.0178C78.6517 81.871 78.4675 80.566 78.5005 79.2964C78.5074 78.9776 79.5062 72.7024 80.1947 73.0877C78.0904 71.9101 76.0003 71.4783 74.2864 69.5902C72.7123 67.8589 71.9346 65.603 72.48 63.3435C72.8778 61.7032 73.6245 60.1612 73.9631 58.5058C74.3017 56.8505 74.1587 54.96 72.9859 53.6889C76.914 51.7553 77.6263 47.2177 80.637 44.4782C82.0204 43.2185 83.6878 41.9213 85.5138 41.3398C86.5352 41.0143 87.6215 40.8631 88.7059 40.9103C88.9685 40.9207 91.7055 41.4814 91.6514 41.5591C92.6998 40.077 94.577 39.3294 96.4271 39.1864C97.0318 39.139 100.439 39.7673 99.8791 40.9423C101.033 38.518 103.237 36.4845 105.325 34.8408C106.691 35.6526 108.289 35.9643 109.847 36.2784C111.403 36.5956 113.001 36.9457 114.326 37.8192C115.65 38.6927 116.66 40.2176 116.434 41.7438C117.776 41.0903 119.421 41.0424 120.825 41.6168C121.95 42.0773 122.885 42.8933 123.955 43.473C125.022 44.0515 126.382 44.3726 127.418 43.7765C128.555 45.2196 129.561 46.7953 130.326 48.4561C130.907 49.7202 131.812 50.9371 132.118 52.3118C132.621 54.5702 131.638 56.9011 130.175 58.6759C131.923 59.0887 132.558 59.3564 133.542 60.7565C134.582 62.2401 135.813 63.732 135.61 65.6334C135.435 67.2553 133.916 68.3283 132.845 69.561C132.586 69.8594 132.342 70.1876 132.26 70.5727C132.162 71.0185 132.291 71.4855 132.429 71.928C133.297 74.6752 134.594 77.704 133.303 80.2449C132.509 81.8077 130.868 82.6748 129.941 84.1216C129.189 85.3017 129.319 86.9255 129.008 88.2661C127.396 88.0682 125.975 88.3638 124.541 89.084C123.16 89.7753 121.899 90.6859 120.464 91.2626C117.175 92.5817 113.099 91.8827 110.396 89.5358C110.374 89.5172 109.534 90.9928 109.463 91.1164C109.062 91.8161 108.576 92.484 107.871 92.9168C106.781 93.5906 105.397 93.5855 104.093 93.5963C102.784 93.609 101.479 93.6613 100.179 93.7575C99.4904 93.8086 98.7735 93.8772 98.1868 94.2248C98.0247 94.3216 97.8492 94.4449 97.6606 94.4097C97.4614 94.374 97.3375 94.1847 97.231 94.0159C96.6561 93.0929 95.9429 92.2512 95.128 91.5184C93.7364 90.2741 91.9848 89.2906 91.1632 87.6367C90.6637 86.637 90.5681 85.4907 90.6808 84.394C90.6373 84.8109 89.7325 85.4523 89.4708 85.788C89.2245 86.1016 89.0562 86.486 88.7027 86.7003C87.6198 87.3557 85.8164 86.7826 84.6974 86.4606Z" fill="#C72272"/>
<path d="M125.685 54.7562C125.13 53.5265 124.622 52.251 123.77 51.1902C122.053 49.0494 119.223 48.1011 116.505 47.5858C117.884 49.0561 119.28 50.55 120.243 52.3088C121.202 54.0664 121.695 56.1497 121.146 58.0412C121.064 58.3183 120.962 58.5944 120.962 58.8844C120.962 59.2897 121.162 59.6715 121.347 60.037C121.857 61.0549 122.275 62.1394 122.338 63.2666C122.403 64.3908 122.076 65.5686 121.267 66.3502C120.969 66.6376 120.608 66.8807 120.437 67.2537C120.231 67.7009 120.356 68.226 120.407 68.7198C120.589 70.4259 119.817 72.1819 118.432 73.2035C118.163 73.4038 117.868 73.577 117.645 73.8292C117.404 74.0993 117.263 74.4382 117.128 74.7722C116.631 75.9842 116.124 77.2103 115.303 78.2357C114.486 79.2622 113.3 80.0784 111.962 80.1708C113.226 78.5142 114.321 76.7317 115.227 74.8578C115.581 74.1301 115.907 73.3711 115.973 72.5644C116.06 71.4686 115.654 70.3919 115.349 69.3248C114.769 67.2824 114.543 65.1514 113.829 63.1499C113.373 61.8767 112.623 60.3226 111.484 59.4831C109.935 58.3412 108.003 58.7435 106.204 58.7099C106.769 58.7209 107.264 58.2727 107.872 58.3106C108.547 58.3556 109.218 58.3047 109.895 58.3332C110.685 58.3686 111.116 58.644 111.744 59.1817C112.967 60.2305 113.875 61.5846 114.663 62.9606C115.923 65.1585 116.94 67.486 117.692 69.8893C118.532 68.6683 118.612 67.0568 118.251 65.609C117.889 64.1611 117.121 62.8379 116.352 61.5459C115.815 60.6475 115.258 59.7347 114.448 59.0561C112.998 57.8426 110.998 57.5664 109.116 57.341C108.07 57.2176 106.998 57.0109 105.95 56.9632C105.122 56.9241 104.412 57.2361 103.606 57.2821C103.007 57.3142 102.425 57.0592 101.828 56.9803C99.6892 56.6981 98.5331 58.402 97.3868 59.7988C96.2987 61.1264 96.0444 62.9424 95.1304 64.4116C94.6646 65.1604 94.1164 65.8786 93.8473 66.7181C93.4488 67.9634 93.7201 69.3637 94.3743 70.5187C95.0274 71.6768 96.0361 72.6145 97.1263 73.4009C97.7546 73.8512 98.4223 74.2637 98.9477 74.826C99.4775 75.3864 99.8566 76.1387 99.7559 76.8836C99.1426 76.093 98.321 75.494 97.4513 74.9957C96.6905 74.5625 95.9616 74.3926 95.1687 74.0941C93.466 73.4536 92.5777 70.8178 92.524 69.2295C92.4747 67.8036 92.9068 66.41 93.4117 65.082C93.8095 64.032 94.2637 63.0727 94.951 62.1933C95.5415 61.4385 95.7529 60.4833 96.1406 59.6251C96.508 58.8117 97.3585 57.9196 98.1037 57.4459C98.7494 57.0365 99.5535 56.8013 100.285 56.567C101.171 56.2855 102.074 55.9507 102.973 55.7123C103.908 55.4631 104.914 55.4497 105.867 55.6678C106.703 55.86 107.492 56.2269 108.335 56.38C109.1 56.5214 109.957 56.5223 110.724 56.4061C111.384 56.3059 111.892 56.4319 112.545 56.6402C115.257 57.5023 117.674 59.261 119.306 61.555C119.622 60.1044 119.122 58.5528 118.247 57.3154C117.371 56.078 116.148 55.1164 114.894 54.2481C115.65 54.4213 116.41 54.5957 117.167 54.769C117.352 54.8134 117.567 54.8446 117.708 54.726C117.855 54.6025 117.839 54.3763 117.808 54.1868C117.435 51.8998 116.583 49.6792 115.329 47.6968C114.848 46.938 113.291 45.276 114.2 44.4685C115.046 43.7145 115.805 42.8652 116.451 41.9424C116.474 42.2686 116.26 42.5524 116.101 42.8354C115.828 43.3068 115.432 44.3507 115.718 44.9004C115.975 45.398 116.85 45.3987 117.367 45.5593C120.064 46.4021 122.682 47.6312 124.803 49.4788C126.925 51.3265 128.519 53.8444 128.882 56.5778C128.983 57.3419 128.991 58.1238 129.191 58.8725C129.71 60.798 131.34 62.6305 132.302 64.3923C131.861 63.6207 130.681 63.0944 130.083 62.4178C129.503 61.7617 129.068 60.954 128.599 60.203C127.503 58.454 126.528 56.6313 125.685 54.7562Z" fill="#E64392"/>
<path d="M125.438 80.8052C127.31 80.3421 129.179 78.3095 129.276 76.3724C129.323 75.4152 129.076 74.6739 129.347 73.6952C129.567 72.9004 130.037 71.1541 130.766 70.6641C129.447 71.5493 128.921 72.866 128.007 74.0734C127.021 75.3795 126.202 76.804 125.246 78.1457C124.717 78.8886 123.966 79.9222 122.946 80.0213C122.269 80.0874 121.74 79.6217 121.07 79.5852C119.032 79.4768 117.563 81.3158 115.705 81.819C114.975 82.019 114.344 82.0985 113.647 81.745C112.915 81.3712 112.725 81.3879 112.835 80.5696C112.928 79.8638 113.46 79.1221 113.954 78.6354C110.908 79.8736 106.736 80.564 103.45 79.8161C102.413 79.5809 101.417 79.1821 100.372 78.9994C99.1406 78.7858 97.8782 78.8785 96.6347 78.7651C95.3901 78.6548 94.0848 78.2914 93.2447 77.3746C92.6377 76.7122 92.3272 75.8142 91.6603 75.2063C91.2379 74.8221 90.7044 74.5817 90.2069 74.3023C88.0882 73.1054 86.5213 71.0449 85.822 68.7624C85.2702 66.9643 85.3921 65.2912 85.589 63.4748C85.7716 61.8033 86.7653 60.8458 87.7445 59.53C88.5343 58.4721 89.0908 57.2472 89.366 55.9559C88.7568 57.7481 87.3364 59.1267 86.0882 60.5554C85.0251 61.7771 83.8149 63.3457 83.7648 65.0385C83.7133 66.8322 83.8933 68.6421 84.7544 70.2863C85.4825 71.6784 86.5087 72.8984 87.5288 74.1058C88.833 75.6528 90.1372 77.1999 91.4394 78.7427C92.2569 79.7105 93.1792 80.7452 94.4347 80.9714C95.0693 81.0852 95.7159 80.973 96.3484 80.88C98.6034 80.5489 100.894 80.4408 103.181 80.5579C105.23 80.6637 106.737 81.5316 108.706 82.006C110.557 82.4534 112.389 82.6776 114.26 82.9824C115.422 83.1702 117.394 83.202 118.243 82.2079C116.798 83.8952 115.109 85.3838 113.242 86.6172C112.035 87.4148 110.721 88.1381 109.867 89.2909C112.956 87.5515 116.925 87.1526 119.345 84.5984C120.188 83.707 120.775 82.5946 121.667 81.7459C122.832 80.6461 123.962 81.1712 125.438 80.8052Z" fill="#E64392"/>
<path d="M106.313 52.9628C105.107 53.562 103.977 54.3151 102.699 54.748C101.396 55.1922 99.9812 55.2876 98.6808 55.7433C96.1875 56.618 94.3622 58.7366 93.1728 61.043C91.21 64.8569 90.7948 69.6797 93.0713 73.4048C93.9197 74.7928 95.2272 76.0407 96.8503 76.2953C97.9836 76.4724 99.1167 76.1466 100.249 75.9984C101.832 75.7877 103.46 75.922 105.029 75.6358C107.688 75.1477 110.047 73.3953 111.224 71.025C111.311 71.934 111.342 72.8468 111.311 73.7538C111.302 74.009 111.285 74.2785 111.148 74.4928C110.968 74.7719 110.632 74.9017 110.316 75.0147C108.709 75.5871 107.099 76.1613 105.492 76.7337C104.368 77.1327 103.238 77.5367 102.057 77.7399C98.6223 78.3273 94.7881 76.9985 92.7268 74.1953C91.8582 73.0164 91.3204 71.6357 90.9566 70.2324C90.1573 67.1443 90.2018 63.8112 91.4256 60.8994C92.6494 57.9876 95.1279 55.5462 98.2191 54.6424C99.1122 54.381 100.045 54.2459 100.901 53.8903C102.838 53.0777 104.216 51.1943 106.274 50.7237C108.223 50.2784 110.23 51.2242 111.957 52.2617C112.9 52.8255 113.827 53.4322 114.827 53.8884C115.545 54.2147 116.719 54.2814 117.312 54.7603C117.899 55.2338 117.721 56.2154 118.26 56.7409C116.782 55.3037 114.308 54.1214 112.427 53.3027C111.386 52.849 110.295 52.4814 109.176 52.2851C108.022 52.0863 107.333 52.4554 106.313 52.9628Z" fill="#E64392"/>
<path d="M100.299 52.0765C98.4634 51.7846 96.5552 51.6964 94.7812 52.196C93.3492 52.5993 91.392 53.6105 90.9832 55.135C90.4996 56.9285 90.6236 58.7246 90.9043 60.5545C91.1777 62.3362 91.3601 64.3042 90.3396 65.7792C90.6963 65.2658 90.1361 63.3354 90.0082 62.7499C89.7908 61.7469 89.2529 60.7923 89.064 59.7999C88.7525 58.1786 88.7696 56.0613 89.3248 54.511C89.9223 52.8471 91.279 51.5042 92.9012 50.735C94.5234 49.9659 96.3905 49.7385 98.2018 49.9129C100.529 50.1327 102.785 50.7972 105.105 50.9481C105.229 50.9555 105.37 50.9731 105.445 51.071C105.544 51.2021 105.463 51.3814 105.38 51.5181C104.956 52.1919 104.434 52.801 103.834 53.3288C103.765 53.3902 103.683 53.4542 103.591 53.4513C103.233 53.444 102.679 52.6581 102.31 52.4789C101.706 52.1876 100.949 52.1786 100.299 52.0765Z" fill="#E64392"/>
<path d="M84.0977 52.4753C83.662 54.3915 83.7002 56.4665 84.1303 58.3205C84.4664 59.7693 85.0456 61.155 85.6079 62.5378C85.6709 62.6974 85.7023 62.9326 85.5372 62.9795C85.4203 63.0129 85.3112 62.9094 85.2337 62.8177C84.6612 62.1401 83.5703 59.3032 82.5791 60.2058C81.5921 61.1065 80.8981 62.7205 80.3699 63.9176C79.1889 66.6078 78.6901 69.2549 80.0805 72.0321C81.9242 71.045 84.2085 70.4803 86.1571 71.331C83.8983 71.0914 81.753 71.6309 79.9347 72.9174C79.8177 72.9996 79.6904 73.1094 79.7091 73.2526C79.6232 72.564 78.9289 71.904 78.733 71.2304C78.5507 70.6072 78.4911 69.848 78.4265 69.1988C78.2627 67.587 78.4313 65.9627 78.844 64.4082C79.3119 62.6473 80.108 60.5753 81.609 59.4642C81.6784 59.4132 81.7512 59.353 81.7545 59.2668C81.7583 59.1984 81.7119 59.1392 81.6707 59.0855C81.0684 58.3235 80.4588 57.5518 79.6741 56.9699C78.8048 56.3252 77.767 55.9495 76.7867 55.487C75.7696 55.0073 74.804 54.428 73.9057 53.7549C75.3279 54.3749 76.9294 54.4259 78.4067 54.8882C80.2167 55.4533 81.8203 56.6507 82.8602 58.2112C82.5068 56.6931 82.0976 55.1891 81.6902 53.6998C81.3599 52.4871 81.4546 50.9261 82.0874 49.8447C82.7957 48.6378 84.1513 47.9755 85.3893 47.2905C86.7461 46.5379 87.5075 45.7593 88.2207 44.4424C88.5299 43.8729 89.1026 43.5725 89.604 43.1443C90.0587 42.7546 91.0361 42.1019 91.2608 41.5463C90.9205 42.3837 90.4337 43.1596 89.8355 43.8382C89.1345 44.6287 88.4582 45.411 87.8067 46.2618C88.7275 45.7033 89.9035 45.7461 90.985 45.9075C93.1852 46.2371 95.3237 46.9839 97.2486 48.1017C98.2587 48.6871 99.3119 49.554 99.3173 50.6912C98.8091 50.1213 98.2226 49.6167 97.5743 49.2009C95.8192 48.0624 93.7097 47.5954 91.6345 47.3367C90.6022 47.2076 89.5465 47.1222 88.5394 47.3413C85.954 47.9023 84.6348 50.1219 84.0977 52.4753Z" fill="#E64392"/>
<path d="M105.862 58.0996C108.467 58.7544 110.404 59.6639 111.965 61.9247C112.635 62.8933 113.038 64.0946 112.796 65.2273C112.588 66.2045 111.919 67.0629 111.888 68.0645C111.871 68.732 112.141 69.3985 112.037 70.0549C111.92 70.8043 111.333 71.3961 110.685 71.8013C110.038 72.2065 109.304 72.4749 108.657 72.8771C107.78 73.424 107.023 74.2318 105.993 74.4042C105.432 74.4993 104.854 74.3889 104.29 74.2771C103.159 74.0553 102.028 73.8336 100.897 73.6119C100.575 73.548 100.237 73.4782 99.9775 73.2767C99.3753 72.8047 99.4781 71.8894 99.1268 71.2173C98.873 70.7282 98.3887 70.3943 98.0256 69.9763C97.3698 69.2223 97.1114 68.1552 97.3576 67.2129C98.9206 69.216 100.628 71.3252 103.056 72.1449C104.551 72.6485 106.22 72.5953 107.652 71.9967C109.085 71.3981 110.267 70.2627 110.901 68.8706C109.4 70.1075 107.661 71.2769 105.682 71.3123C104.691 71.3316 103.655 71.0682 102.741 71.4234C104.67 70.7123 106.602 69.9993 108.531 69.2881C108.994 69.1181 109.462 68.9431 109.865 68.6634C111.016 67.8624 111.399 66.3876 111.702 65.0331C111.14 65.9035 110.044 66.285 109.301 67.0145C108.613 67.6913 108.195 68.6884 107.29 69.0502C107.834 68.4316 108.342 67.7823 108.818 67.1109C109.42 66.2589 109.977 65.352 110.23 64.3424C110.483 63.3329 110.404 62.1997 109.815 61.3167C108.868 59.9026 106.892 59.4539 105.862 58.0996Z" fill="#E64392"/>
<path d="M100.564 59.7055C101.924 59.2544 104.157 58.7582 105.604 59.0903C106.098 59.2043 106.308 59.5408 106.661 59.8679C107.167 60.3389 107.764 60.7286 108.359 61.0829C109.327 61.6561 109.682 62.6474 109.218 63.6447C108.993 64.1233 108.653 64.542 108.37 64.9921C107.544 66.3228 107.26 67.9774 107.594 69.5197C106.514 67.5324 106.631 65.089 107.504 63.0422C107.59 62.8401 107.684 62.627 107.646 62.4102C107.606 62.1788 107.425 61.9964 107.256 61.8321C106.756 61.3458 106.25 60.8571 105.646 60.4962C105.042 60.1352 104.33 59.9193 103.644 60.0307C103.103 60.1195 102.624 60.4021 102.118 60.6014C101.607 60.8026 101.05 60.9343 100.635 61.2862C99.955 61.8646 99.8642 62.8542 99.8503 63.7432C99.8365 64.6706 99.8726 65.6481 100.358 66.4538C100.843 67.2596 101.924 67.8086 102.772 67.408C103.138 67.2369 103.42 66.9155 103.801 66.7814C104.004 66.7102 104.233 66.6942 104.4 66.5643C104.732 66.3033 104.619 65.7829 104.456 65.3902C104.248 64.8938 104.003 64.4082 103.731 63.9401C103.562 63.6501 103.363 63.3525 103.053 63.2164C102.723 63.069 102.306 63.1547 102.071 63.4168C101.837 63.6789 101.801 64.0951 101.991 64.3965C102.147 64.6464 102.446 64.9152 102.3 65.1644C102.203 65.3276 101.947 65.3372 101.789 65.2295C101.628 65.1206 101.547 64.9332 101.497 64.7471C101.304 63.9873 101.475 62.6572 102.157 62.1807C102.64 61.8401 103.262 61.7362 103.867 61.7345C103.979 61.7341 104.096 61.7392 104.189 61.7984C104.307 61.87 104.36 62.0084 104.403 62.133C104.782 63.1679 105.156 64.2048 105.534 65.2397C105.681 65.64 105.827 66.061 105.746 66.4711C105.652 66.9565 105.263 67.3251 104.871 67.6334C104.259 68.115 103.592 68.5339 102.89 68.8806C102.612 69.0182 102.32 69.1468 102.007 69.1737C101.631 69.2082 101.247 69.097 100.899 68.9394C99.4287 68.2737 98.4317 66.7816 98.1942 65.2227C97.9567 63.6639 98.4098 62.0686 99.2373 60.7348C99.3916 60.4848 99.5659 60.2389 99.8025 60.0579C100.027 59.9004 100.293 59.7935 100.564 59.7055Z" fill="#E64392"/>
<path d="M102.574 69.594C103.915 69.3946 105.181 70.1346 106.509 70.1186C106.708 70.1158 106.914 70.0946 107.095 70.0152C107.355 69.8956 107.541 69.6574 107.673 69.4095C107.854 69.0682 107.956 68.6871 107.973 68.3022C107.546 68.9363 106.764 69.5009 105.967 69.3966C105.081 69.2801 104.266 68.8195 103.369 68.713C102.014 68.5511 100.609 69.2123 99.9109 70.3428C99.882 70.3914 99.852 70.4431 99.8665 70.5009C99.8984 70.628 100.088 70.6113 100.208 70.5615C100.992 70.2246 101.72 69.72 102.574 69.594Z" fill="#E64392"/>
<path d="M96.6898 65.2913C96.6739 63.0884 97.7875 61.2569 99.4544 59.8931C99.7555 59.6454 100.021 59.3181 100.378 59.1435C100.87 58.9041 101.53 58.8839 102.069 58.8294C103.373 58.6929 104.694 58.7025 106.002 58.8644C106.488 58.923 106.98 59.0047 107.466 58.9583C106.814 58.164 105.864 57.9885 104.898 58.0972C103.759 58.2254 102.576 58.2217 101.422 58.292C100.888 58.3239 100.344 58.3626 99.847 58.5477C99.4741 58.6884 99.1377 58.9056 98.824 59.1486C97.2047 60.3939 96.1364 62.2877 95.9122 64.3035C95.688 66.3193 96.3118 68.427 97.6101 70.0383C97.7513 69.8428 97.6762 69.5704 97.5958 69.3413C97.1426 68.0236 96.7007 66.6751 96.6898 65.2913Z" fill="#E64392"/>
<path d="M112.987 73.2827C113.995 73.1478 114.923 72.8327 115.642 72.0908C115.976 71.7436 116.216 71.3124 116.338 70.848C116.599 69.8658 116.314 68.7538 115.602 67.9964C115.489 68.7159 115.639 69.4665 115.472 70.1763C115.302 70.9027 114.672 71.7264 113.969 72.0481C113.175 72.4095 112.045 72.0693 111.171 72.3275C110.527 72.5208 109.919 72.9236 109.642 73.5227C109.62 73.5737 109.599 73.6393 109.636 73.6845C109.671 73.7256 109.741 73.7234 109.794 73.7153C110.86 73.5705 111.921 73.4275 112.987 73.2827Z" fill="#E64392"/>
<path d="M106.454 84.6987C104.627 83.8793 102.608 83.624 100.629 83.3384C97.943 82.9503 95.4911 82.1847 93.0198 81.0836C92.8999 81.0285 92.7649 80.9748 92.6363 81.0108C92.5109 81.0479 92.4356 81.1631 92.3658 81.2734C91.608 82.4969 90.8797 83.7383 90.1819 84.9945C90.9612 83.587 90.8541 81.3292 90.5905 79.7921C90.2908 78.0424 89.6161 76.478 88.7775 74.9086C89.4979 75.5469 90.2604 76.2078 90.7494 77.0325C91.1669 77.7397 91.541 78.312 92.1793 78.8708C93.5945 80.1099 95.5028 80.8268 97.3111 81.2901C99.2769 81.8817 101.287 82.3153 103.322 82.5867C104.923 82.8019 106.573 82.9267 108.04 83.6017C110.815 84.8823 110.96 87.7829 110.489 90.4053C109.739 87.8524 109.105 85.8877 106.454 84.6987Z" fill="#E64392"/>
<path d="M128.75 61.9617C129.187 62.1345 129.621 62.3415 129.962 62.6639C131.048 63.6933 130.626 64.9927 130.551 66.2501C130.473 67.5032 130.543 68.7201 129.679 69.7644C128.928 70.6691 127.681 71.0399 126.48 71.1311C125.28 71.2222 124.068 71.0822 122.869 71.188C120.359 71.4103 117.644 72.8698 116.453 75.0846C117.849 74.5945 118.816 73.5152 120.176 73.0641C121.966 72.4727 124.156 72.3831 126.046 72.5204C127.149 72.557 128.303 72.6196 129.301 72.1736C130.741 71.5254 131.491 69.9846 131.98 68.5072C132.558 66.7594 132.647 65.2906 131.939 63.5637C131.342 62.1014 130.515 61.6019 128.925 61.1638C125.979 60.3507 122.751 59.8309 120.523 57.7583C121.144 61.1609 126.187 60.9522 128.75 61.9617Z" fill="#E64392"/>
<path d="M101.218 44.654C101.487 44.3384 101.787 44.0448 102.111 43.7815C103.666 42.5365 105.974 41.9178 107.982 42.3856C109.622 42.7687 111.573 44.2421 112.966 45.2037C114.185 46.0487 115.139 46.9902 115.82 48.3335C115.713 47.7978 115.764 47.2367 115.965 46.7351C116.06 46.4878 116.197 46.2277 116.123 45.9699C116.031 45.6458 115.664 45.4916 115.353 45.3408C114.068 44.7196 113.205 43.5534 112.198 42.6023C111.113 41.5771 109.719 40.8347 108.237 40.5592C107.087 40.3481 105.898 40.3494 104.754 40.5594C103.618 40.7687 102.476 41.3603 101.628 42.1101C101.41 41.2817 100.737 40.5738 99.9066 40.2996C100.162 40.8803 100.375 41.4798 100.539 42.0929C100.642 42.4663 100.724 42.8564 100.658 43.237C100.568 43.7486 100.221 44.168 99.9231 44.5915C99.3116 45.4607 98.4824 46.8183 98.613 47.9287C98.6665 48.3852 98.8883 48.8345 98.9833 49.2855C99.1461 50.0481 99.3468 50.7864 99.6865 51.4996C99.8526 51.0724 99.7348 50.5955 99.6601 50.138C99.3472 48.1914 99.9489 46.1484 101.218 44.654Z" fill="#E64392"/>
<path d="M17.5564 187.241C16.7298 189.511 17.9572 192.039 20.2974 192.892C22.6376 193.745 25.2006 192.596 26.0272 190.326C26.8539 188.056 25.6265 185.528 23.2863 184.675C20.9481 183.826 18.3819 184.974 17.5564 187.241Z" fill="#F3B934"/>
<path d="M13.2551 196.045C12.2399 198.831 13.7475 201.942 16.6234 202.991C19.4962 204.039 22.6501 202.628 23.6665 199.838C24.6817 197.051 23.1742 193.94 20.2982 192.891C17.4243 191.847 14.2704 193.258 13.2551 196.045Z" fill="#F3B934"/>
<path d="M8.34225 206.698C7.1507 209.978 8.92128 213.63 12.3013 214.863C15.6825 216.093 19.3886 214.437 20.5802 211.157C21.7717 207.877 19.9991 204.221 16.6211 202.992C13.2411 201.759 9.53698 203.419 8.34225 206.698Z" fill="#F3B934"/>
<path d="M116.313 225.163C115.508 227.442 116.76 229.961 119.107 230.789C121.452 231.619 124.009 230.447 124.809 228.171C125.612 225.895 124.36 223.376 122.015 222.545C119.667 221.713 117.114 222.884 116.313 225.163Z" fill="#F3B934"/>
<path d="M112.1 234.008C111.113 236.805 112.651 239.902 115.534 240.923C118.417 241.943 121.557 240.502 122.543 237.705C123.53 234.907 121.992 231.81 119.109 230.79C116.226 229.769 113.087 231.21 112.1 234.008Z" fill="#F3B934"/>
<path d="M107.288 244.705C106.128 247.997 107.936 251.635 111.324 252.836C114.714 254.034 118.405 252.341 119.567 249.053C120.727 245.761 118.918 242.123 115.53 240.922C112.138 239.723 108.45 241.417 107.288 244.705Z" fill="#F3B934"/>
<path d="M182.246 191.586C192.918 183.8 198.966 170.388 197.714 157.282C196.842 148.155 192.741 141.649 184.373 137.232C186.125 131.353 186.333 124.916 184.323 119.044C181.39 110.482 173.099 102.161 163.388 104.674C162.491 104.907 161.566 105.216 160.651 105.022C159.23 104.72 158.358 103.345 157.567 102.142C154 96.7281 148.794 92.5035 143.286 88.9662C138.801 86.0856 133.854 83.5361 128.544 83.2333C122.824 82.9075 117.36 85.2128 112.341 87.8056C107.474 90.3157 102.494 93.461 100.444 98.458C110.207 99.0969 120.045 99.7464 129.522 102.266C137.445 104.376 150.271 108.802 153.747 116.851C158.139 127.018 164.114 135.835 172.126 143.85C174.531 146.253 176.455 147.451 177.119 150.632C177.909 154.422 177.852 158.533 178.409 162.38C179.514 170.035 181.107 177.631 183.178 185.111" fill="#AD0FDE"/>
<path d="M53.6105 116.682C50.8453 118.975 48.1456 121.411 45.4642 123.923C45.0302 124.335 44.5719 124.744 44.1379 125.155C37.0621 131.852 30.4397 139.179 26.3454 147.928C24.0081 152.923 22.5457 158.421 22.4185 163.98C22.4149 164.716 22.4145 165.452 22.4445 166.204C22.6742 171.665 23.3858 174.476 21.7461 179.832C20.5996 183.562 16.6635 187.124 21.6628 190.538C24.305 192.331 27.7035 192.499 30.8087 193.232C35.1527 194.265 39.1968 196.559 42.2856 199.765C43.7379 201.262 45.0052 202.967 46.7575 204.132C49.6799 206.082 53.4892 206.2 56.9313 205.602C60.3827 205.017 63.6819 203.835 67.1722 203.436C74.8083 202.56 82.4527 205.583 89.0474 209.587C95.6697 213.595 101.626 218.598 108.377 222.357C111.507 224.108 114.929 225.595 118.507 225.717C123.995 225.89 128.949 222.816 133.147 219.449C148.229 207.39 158.537 190.003 162.736 171.282C164.285 164.419 165.03 157.277 164.175 150.235C163.292 142.91 159.668 139.089 154.694 133.652C144.746 122.776 132.713 113.549 119.098 107.582C110.066 103.635 100.363 101.471 90.5417 101.376C75.6809 101.208 64.1851 107.899 53.6105 116.682Z" fill="#FBDDAF"/>
<path d="M94.8615 161.329C98.2347 162.454 101.406 166.086 101.259 169.668C101.225 170.493 101.05 171.343 100.535 171.99C100.016 172.639 99.1629 172.978 98.3279 172.744C100.458 174.347 101.354 176.671 100.856 179.336C100.497 181.249 98.7373 183.036 96.7581 182.722C98.7881 183.722 99.7605 186.403 98.8113 188.383C97.8621 190.363 95.1564 191.306 93.0918 190.37C94.3365 192.464 94.0384 194.582 91.6153 195.5C89.5673 196.271 87.0917 195.511 85.539 193.945C85.4191 196.087 83.0866 197.671 80.9007 197.409C78.7149 197.148 76.8884 195.379 76.1725 193.334C74.2704 194.527 71.862 194.941 69.6262 194.465C67.5608 194.025 65.4233 192.395 65.6259 190.35C63.3516 190.094 61.2638 188.514 60.4288 186.422C59.5389 184.187 60.2219 182.042 61.5104 180.195C59.2354 178.779 57.071 177.541 57.3301 174.522C57.4638 172.972 58.3657 171.515 59.7019 170.692C57.7888 169.446 56.7699 167.006 57.2575 164.844C57.7451 162.682 59.7079 160.939 61.9605 160.663C60.8018 158.957 60.9836 156.513 62.3799 155.035C63.7751 153.559 66.2494 153.191 68.0794 154.186C67.0307 152.892 67.2043 150.895 68.293 149.673C69.3817 148.45 71.1942 147.982 72.8486 148.259C74.503 148.536 75.998 149.483 77.1674 150.676C78.8341 147.842 82.2048 147.716 85.0438 149.174C86.3898 149.864 87.3938 151.414 86.9678 152.821C89.273 152.229 91.9142 153.009 93.539 154.759C95.1658 156.513 95.6964 159.152 94.8615 161.329Z" fill="#F77B0E"/>
<path d="M44.14 125.156C37.0642 131.853 30.4418 139.18 26.3475 147.929C24.0102 152.924 22.5478 158.422 22.4206 163.981C22.554 164.01 22.688 164.018 22.811 164.035C22.6136 166.086 24.7414 167.723 26.8048 168.158C29.0492 168.63 31.4518 168.232 33.3539 167.039C34.0724 169.067 35.9017 170.848 38.0855 171.105C40.2694 171.362 42.6038 169.782 42.7269 167.642C44.2713 169.201 46.7541 169.971 48.7926 169.196C51.2188 168.279 51.5137 166.161 50.2808 164.064C52.3325 165.005 55.0478 164.066 55.995 162.082C56.9421 160.098 55.9654 157.419 53.9311 156.421C55.9229 156.739 57.6774 154.947 58.0449 153.03C58.5419 150.368 57.6469 148.041 55.5125 146.45C56.3414 146.671 57.2003 146.327 57.7093 145.685C58.2225 145.041 58.4111 144.186 58.4338 143.37C58.5837 139.783 55.4203 136.157 52.042 135.026C52.8749 132.846 52.3422 130.203 50.7203 128.464C49.0892 126.711 46.445 125.93 44.1463 126.514C44.2908 126.058 44.2716 125.597 44.14 125.156Z" fill="#F77B0E"/>
<path d="M78.473 152.675C78.227 152.64 77.9881 152.614 77.7577 152.594C74.2308 152.288 70.6975 155.668 68.5349 157.947C63.8828 162.853 61.6298 170.206 62.9539 177.729C63.5266 180.981 64.7888 184.364 67.226 186.863C69.7014 189.405 73.0837 190.719 76.3365 191.385C81.1616 192.373 86.8761 192.365 90.3616 189.366C94.4835 185.817 96.3568 180.143 96.2439 174.775C96.0854 167.244 94.2539 160.814 87.6983 156.143C85.3992 154.501 81.4447 153.089 78.473 152.675Z" fill="#2B094F"/>
<path d="M49.559 133.207C50.1132 133.644 50.6032 134.175 51.0064 134.814C52.8147 137.688 53.5417 142.209 53.7767 145.304C54.3386 152.746 51.7776 159.949 46.5345 164.275C44.2684 166.146 41.4258 167.534 38.2399 167.298C30.3086 166.712 26.1998 159.085 26.305 151.988C26.4313 143.46 29.3604 136.729 37.5068 132.953C40.9206 131.366 46.3403 130.679 49.559 133.207Z" fill="#2B094F"/>
<path d="M39.2335 181.224C40.0765 181.562 40.9622 181.466 41.7431 181.225C42.0885 181.12 42.4303 180.985 42.8081 180.986C43.953 180.996 44.8932 182.167 45.7336 183.112C46.3464 183.797 47.0432 184.441 47.8558 184.802C48.6694 185.161 49.617 185.189 50.2117 184.694C51.1899 183.884 50.6516 182.186 50.6304 180.955C50.6017 179.135 50.6802 177.327 50.8622 175.551C51.2262 171.998 52.0088 168.559 53.1927 165.328C49.791 167.492 46.3894 169.657 42.9877 171.821C41.7795 172.591 40.5572 173.369 39.617 174.444C38.5298 175.692 36.3286 180.06 39.2335 181.224Z" fill="#2B094F"/>
<path d="M85.512 91.8622C84.8935 92.0827 84.299 92.3156 83.6966 92.5699C78.4251 94.6883 73.5939 97.7039 68.9 100.844C62.5068 105.116 56.9551 109.777 51.7156 115.313C49.9603 117.185 47.788 118.543 46.074 120.42C44.0939 122.596 42.3097 128.069 39.8271 129.448C44.0004 127.116 48.1774 124.804 52.3637 122.505C58.181 119.298 64.1124 116.083 70.689 114.803C75.8602 113.797 81.1144 114.145 86.2762 113.725C90.5694 113.395 95.0451 111.644 99.0901 109.715C99.1073 109.708 99.1073 109.708 99.1073 109.708C99.6351 109.461 100.174 109.193 100.68 108.938L100.697 108.93C100.988 108.776 101.27 108.647 101.544 108.501C101.818 108.355 102.1 108.226 102.357 108.088C102.425 108.06 102.467 108.024 102.538 107.998C102.47 108.025 102.425 108.06 102.398 108.131C101.993 108.62 102.641 110.142 103.906 112.181C103.906 112.181 103.906 112.181 103.914 112.198C108.018 118.86 118.531 131.091 119.866 132.363C121.561 134.021 123.833 135.551 125.793 137.223L125.818 137.232C126.859 138.094 127.807 138.971 128.575 139.938C128.78 140.189 128.968 140.448 129.141 140.711C131.432 144.183 132.961 149.258 134.367 153.445L134.375 153.462C134.559 154.033 134.747 154.564 134.933 155.098C136.59 159.773 137.603 164.659 137.936 169.579C143.514 162.234 145.91 153.23 149.249 144.808C150.381 141.987 151.407 139.519 153.084 137.324C153.667 136.553 154.318 135.81 155.086 135.1C157.419 132.961 160.739 130.532 162.309 127.718C162.498 127.373 162.652 127.038 162.775 126.717C163.106 125.828 163.124 125.08 162.924 124.419C162.641 123.475 161.893 122.698 160.958 121.892C160.53 121.533 160.076 121.166 159.589 120.771C159.55 120.729 159.501 120.707 159.463 120.665C156.255 118.019 154.33 114.56 151.401 111.728C147.419 107.864 143.023 104.416 138.293 101.486C130.397 96.557 121.478 94.1537 112.473 92.1552C103.624 90.1935 95.4897 88.6133 86.6735 91.4701C86.2883 91.5957 85.891 91.7343 85.512 91.8622Z" fill="#AD0FDE"/>
<path d="M140.682 101.637C160.462 113.157 176.255 131.582 183.257 152.948C187.094 164.655 186.616 172.018 182.442 183.025C178.248 194.074 172.931 204.705 166.599 214.7C168.58 185.622 160.231 155.254 141.085 132.483C130.09 119.401 116.572 111.179 101.211 103.994C88.8534 98.2116 73.4747 96.9677 61.3889 103.928C67.7045 100.291 72.9749 95.9784 79.96 93.31C86.7516 90.7164 94.3574 88.8867 101.702 88.5734C114.365 88.0353 129.926 95.3721 140.682 101.637Z" fill="#AD0FDE"/>
<path d="M70.0639 229.033C75.3191 226.214 80.8686 224.045 86.6268 222.342C90.5031 221.196 94.8126 217.637 98.9902 218.43C93.6283 217.413 88.7165 214.587 83.2561 213.718C77.4247 212.792 71.0669 213.919 65.238 214.332C63.418 214.462 61.4658 214.559 59.8807 213.641C57.9547 212.527 56.9293 210.095 54.7988 209.452C52.6513 208.807 50.5077 210.29 48.2804 210.45C44.9847 210.684 43.1953 208.118 40.4846 206.973C37.1768 205.575 33.8671 204.55 30.7108 202.715C29.2098 201.842 27.653 200.771 27.1094 199.154C26.842 198.363 26.7789 197.4 26.0724 196.927C25.1523 196.313 23.9346 197.04 23.2371 197.86C21.5745 199.812 21.4012 201.962 21.0148 204.375C20.722 206.198 20.1112 207.839 20.08 209.714C19.9906 214.832 21.4114 220.16 25.0569 224.038C30.2955 229.616 37.9577 232.31 45.433 234.141C49.0073 235.017 52.7108 235.749 56.3257 235.218C60.9576 234.538 64.9453 231.883 68.9869 229.625C69.342 229.425 69.7036 229.228 70.0639 229.033Z" fill="#FBDDAF"/>
<path d="M126.337 121.32C126.337 121.32 126.337 121.32 126.32 121.328C126.121 121.464 125.923 121.599 125.729 121.754C125.352 122.079 125.015 122.404 124.762 122.736C122.498 125.55 124.572 128.561 126.291 131.848C126.429 132.126 126.584 132.397 126.705 132.68C127.617 134.545 128.521 136.433 129.369 138.327C129.683 139.02 129.976 139.705 130.262 140.378C133.213 147.354 135.333 154.556 135.011 162.207C134.855 166.344 134.338 170.424 133.649 174.474C133.554 175.134 133.435 175.784 133.318 176.436C132.056 183.459 130.376 190.431 129.147 197.441C129.007 198.042 128.909 198.645 128.818 199.226C128.707 199.796 128.617 200.377 128.519 200.941C128.261 202.564 127.92 204.138 127.528 205.675C127.378 206.301 127.204 206.914 127.047 207.519C126.128 210.841 125.032 214.076 124.109 217.439C123.59 219.338 123.545 221.501 122.876 223.319C122.417 224.57 119.952 226.957 118.329 226.577C124.742 228.069 131.888 229.236 138.348 228C145.25 226.687 152.011 224.495 158.093 221.029C174.138 211.878 177.682 196.362 182.209 180.051C185.902 166.797 181.675 149.304 175.294 137.254C172.959 132.844 169.596 129.126 165.601 126.205C165.106 125.832 164.602 125.484 164.086 125.159C162.679 124.227 161.192 123.384 159.674 122.651C158.955 122.31 158.242 121.982 157.502 121.686C152.467 119.617 146.965 118.551 141.486 118.602C137.404 118.637 130.048 118.838 126.337 121.32Z" fill="#AD0FDE"/>
<path d="M22.0505 190.867C23.4728 192.629 26.2045 193.359 28.2576 193.948C33.1913 195.361 38.2209 197.107 42.0207 200.522C43.4912 201.844 44.8243 203.004 46.506 204.059C47.4291 204.637 48.3645 205.103 49.4376 205.345C50.242 205.526 51.3822 205.259 52.0956 205.5C49.1405 204.508 46.3505 202.328 45.1587 199.443C44.3872 197.578 44.2875 196.21 42.9654 194.488C41.9626 193.186 40.3586 192.135 38.7302 192.389C38.0528 192.496 37.2326 192.774 36.774 192.265C36.5907 192.061 36.5328 191.781 36.4563 191.522C35.7758 189.131 33.0367 187.462 30.5653 187.929C28.7794 188.267 27.4805 189.726 25.6926 189.972C24.3106 190.164 22.8423 189.513 21.5061 189.997C21.6514 190.313 21.8358 190.602 22.0505 190.867Z" fill="#E64392"/>
<path d="M27.8736 200.469C27.6576 200.256 27.4504 200.029 27.2596 199.787C27.0282 201.115 27.5175 202.481 28.1629 203.689C33.4029 213.483 45.676 213.202 54.5583 209.364C51.9533 209.687 49.2268 210.017 46.6144 209.45C43.7786 208.835 41.9209 206.782 39.4359 205.466C35.7461 203.517 30.9677 203.506 27.8736 200.469Z" fill="#E64392"/>
<path d="M106.999 130.294C109.5 130.047 112.136 130.762 114.485 132.146C116.835 133.534 118.931 135.662 120.238 138.352C121.548 141.047 121.946 144.091 121.915 147.059C121.907 148.261 121.812 149.427 121.702 150.584C121.581 151.741 121.427 152.881 121.238 154.037C120.313 159.697 119.068 164.969 119.54 169.5C119.782 171.724 120.645 173.701 121.991 175.009C123.294 176.318 125.129 176.836 126.601 176.577C128.084 176.336 129.071 175.292 129.499 174.131C129.937 173.002 129.911 171.871 129.644 171.049C129.616 171.105 129.615 171.167 129.579 171.224C128.979 172.16 127.709 172.428 126.739 171.822C125.768 171.217 125.469 169.97 126.069 169.034C126.982 167.606 128.55 168.155 129.627 169.072C130.659 169.949 131.215 171.329 131.233 172.635C131.25 174.07 130.736 175.52 129.999 176.734C129.402 177.721 128.177 178.215 127.048 178.462C124.922 178.97 122.329 178.331 120.448 176.593C118.561 174.899 117.433 172.366 117.083 169.763C116.435 164.527 117.712 159.159 118.548 153.581C118.724 152.459 118.876 151.363 118.992 150.267C119.093 149.173 119.179 148.081 119.197 146.969C119.253 144.234 118.9 141.602 117.862 139.396C116.837 137.195 115.132 135.391 113.213 134.198C111.294 132.999 109.142 132.373 107.243 132.494C105.333 132.583 103.796 133.52 102.957 134.808C102.1 136.057 102.097 137.575 102.672 138.537C102.888 138.925 103.207 139.169 103.551 139.349C103.124 138.705 103.073 137.865 103.509 137.186C104.11 136.25 105.38 135.982 106.35 136.587C106.912 136.936 107.218 137.507 107.284 138.105C107.357 138.237 107.414 138.481 107.358 138.883C107.288 139.486 106.662 140.395 105.479 140.738C104.897 140.909 104.216 140.969 103.45 140.8C102.686 140.627 101.879 140.125 101.347 139.378C100.264 137.903 100.176 135.642 101.265 133.801C102.267 131.949 104.487 130.494 106.999 130.294Z" fill="#F77B0E"/>
<path d="M173.477 102.463C173.591 100.406 173.896 97.9386 175.657 96.5852C176.671 95.8062 177.932 95.3778 179.21 95.1653C179.532 95.1138 186.041 94.8567 185.815 95.5899C186.504 93.3522 186.455 91.2767 187.946 89.2714C189.314 87.4332 191.391 86.2567 193.778 86.345C195.511 86.41 197.226 86.8245 198.958 86.8334C200.692 86.8392 202.552 86.3402 203.553 84.9766C206.398 88.3544 211.099 88.165 214.536 90.5126C216.116 91.5895 217.801 92.9359 218.804 94.5665C219.366 95.4775 219.767 96.4895 219.974 97.5305C220.024 97.7832 220.098 100.507 220.007 100.47C221.733 101.185 222.916 102.834 223.489 104.577C223.676 105.146 223.836 108.521 222.532 108.213C225.223 108.848 227.769 110.563 229.895 112.242C229.399 113.702 229.457 115.289 229.504 116.836C229.548 118.382 229.567 119.978 229 121.413C228.434 122.847 227.143 124.103 225.561 124.181C226.525 125.337 226.952 126.899 226.704 128.351C226.505 129.514 225.905 130.565 225.57 131.698C225.239 132.829 225.234 134.189 226.067 135.065C224.887 136.428 223.542 137.691 222.059 138.743C220.93 139.542 219.92 140.64 218.618 141.197C216.476 142.115 213.916 141.62 211.803 140.564C211.794 142.311 211.674 142.972 210.5 144.181C209.257 145.461 208.05 146.923 206.1 147.094C204.439 147.241 203.012 145.995 201.53 145.206C201.172 145.017 200.786 144.845 200.38 144.841C199.911 144.834 199.475 145.049 199.064 145.263C196.517 146.62 193.787 148.441 190.945 147.698C189.196 147.239 187.952 145.84 186.287 145.235C184.932 144.741 183.339 145.182 181.924 145.141C181.747 143.566 181.122 142.265 180.071 141.033C179.061 139.846 177.856 138.818 176.95 137.555C174.87 134.668 174.628 130.642 176.348 127.607C176.36 127.584 174.692 127.064 174.55 127.019C173.76 126.77 172.978 126.434 172.383 125.846C171.456 124.931 171.141 123.609 170.828 122.368C170.514 121.123 170.156 119.886 169.763 118.661C169.554 118.01 169.317 117.342 168.834 116.848C168.702 116.711 168.538 116.57 168.529 116.382C168.519 116.186 168.678 116.029 168.821 115.897C169.61 115.17 170.291 114.327 170.831 113.407C171.753 111.839 172.334 109.977 173.797 108.873C174.682 108.206 175.807 107.892 176.927 107.788C176.498 107.827 175.649 107.089 175.255 106.9C174.884 106.724 174.459 106.639 174.162 106.343C173.257 105.427 173.412 103.595 173.477 102.463Z" fill="#C72272"/>
<path d="M214.678 135.515C215.78 134.748 216.938 134.019 217.803 133C219.546 130.948 219.842 128.061 219.728 125.368C218.577 126.969 217.405 128.59 215.869 129.845C214.332 131.1 212.363 131.971 210.344 131.81C210.047 131.787 209.747 131.742 209.456 131.798C209.049 131.877 208.716 132.141 208.391 132.386C207.488 133.07 206.502 133.678 205.39 133.956C204.282 134.235 203.028 134.149 202.057 133.526C201.702 133.3 201.374 133 200.963 132.906C200.467 132.795 199.971 133.016 199.49 133.158C197.826 133.66 195.89 133.261 194.547 132.136C194.287 131.917 194.04 131.671 193.74 131.508C193.414 131.33 193.04 131.261 192.676 131.195C191.35 130.954 190.003 130.704 188.79 130.12C187.575 129.535 186.486 128.561 186.083 127.3C188.032 128.189 190.072 128.892 192.152 129.397C192.962 129.594 193.796 129.761 194.62 129.666C195.738 129.537 196.722 128.943 197.717 128.446C199.626 127.498 201.705 126.874 203.542 125.808C204.71 125.128 206.093 124.112 206.666 122.862C207.449 121.163 206.599 119.393 206.218 117.669C206.337 118.21 206.899 118.597 207 119.186C207.11 119.839 207.318 120.471 207.443 121.122C207.592 121.883 207.415 122.348 207.021 123.05C206.255 124.421 205.111 125.55 203.916 126.565C202.011 128.193 199.916 129.611 197.688 130.79C199.102 131.354 200.732 131.126 202.099 130.5C203.467 129.873 204.611 128.888 205.727 127.902C206.504 127.217 207.286 126.509 207.777 125.605C208.656 123.987 208.47 122.021 208.257 120.182C208.14 119.16 208.097 118.096 207.901 117.084C207.748 116.286 207.273 115.666 207.041 114.905C206.87 114.339 206.99 113.734 206.93 113.149C206.72 111.052 204.744 110.275 203.085 109.451C201.504 108.668 199.628 108.773 197.948 108.187C197.092 107.885 196.244 107.5 195.343 107.406C194.006 107.265 192.667 107.794 191.661 108.642C190.654 109.489 189.948 110.631 189.413 111.826C189.108 112.512 188.848 113.229 188.411 113.842C187.971 114.454 187.31 114.962 186.54 115.011C187.188 114.274 187.599 113.372 187.894 112.445C188.153 111.633 188.153 110.906 188.269 110.09C188.514 108.34 190.948 106.986 192.524 106.63C193.94 106.308 195.431 106.454 196.881 106.679C198.024 106.86 199.089 107.106 200.128 107.593C201.02 108.013 202.025 108.03 202.972 108.236C203.871 108.431 204.962 109.071 205.606 109.691C206.166 110.228 206.585 110.953 206.991 111.603C207.478 112.393 208.02 113.191 208.469 114.008C208.935 114.856 209.182 115.81 209.183 116.764C209.182 117.599 209.001 118.425 209.039 119.26C209.078 120.019 209.273 120.839 209.564 121.548C209.816 122.158 209.809 122.67 209.75 123.332C209.514 126.087 208.316 128.736 206.397 130.736C207.923 130.759 209.36 129.984 210.393 128.912C211.427 127.836 212.109 126.487 212.683 125.118C212.685 125.877 212.685 126.632 212.688 127.39C212.687 127.575 212.702 127.787 212.855 127.9C213.013 128.015 213.236 127.958 213.417 127.889C215.619 127.091 217.642 125.853 219.336 124.272C219.983 123.664 221.285 121.86 222.302 122.571C223.251 123.235 224.275 123.794 225.349 124.235C225.029 124.322 224.695 124.174 224.376 124.072C223.841 123.905 222.704 123.726 222.221 124.105C221.784 124.449 221.984 125.285 221.944 125.808C221.725 128.545 221.103 131.283 219.744 133.666C218.386 136.049 216.239 138.055 213.588 138.927C212.845 139.171 212.067 139.329 211.365 139.665C209.559 140.533 208.104 142.44 206.563 143.697C207.233 143.126 207.487 141.9 208.025 141.199C208.545 140.519 209.257 139.949 209.897 139.353C211.401 137.963 212.998 136.681 214.678 135.515Z" fill="#E64392"/>
<path d="M188.567 140.289C189.462 141.988 191.927 143.384 193.888 143.1C194.854 142.96 195.539 142.583 196.582 142.653C197.429 142.71 199.284 142.824 199.942 143.428C198.752 142.339 197.311 142.086 195.892 141.45C194.358 140.76 192.741 140.249 191.18 139.595C190.314 139.231 189.109 138.716 188.771 137.756C188.548 137.125 188.893 136.527 188.773 135.881C188.411 133.913 186.233 132.865 185.295 131.185C184.929 130.525 184.701 129.937 184.894 129.205C185.099 128.433 185.038 128.257 185.882 128.204C186.608 128.16 187.475 128.521 188.078 128.902C186.134 126.23 184.48 122.38 184.467 119.096C184.462 118.063 184.633 117.034 184.574 116.002C184.504 114.785 184.118 113.597 183.941 112.389C183.765 111.178 183.823 109.862 184.548 108.881C185.071 108.171 185.897 107.703 186.35 106.949C186.636 106.472 186.752 105.918 186.917 105.386C187.622 103.133 189.324 101.241 191.444 100.13C193.116 99.2571 194.816 99.0515 196.681 98.8894C198.396 98.7417 199.584 99.5084 201.124 100.19C202.367 100.739 203.718 101.036 205.074 101.052C203.139 100.814 201.434 99.7219 199.712 98.8052C198.246 98.0222 196.395 97.1695 194.69 97.4466C192.884 97.7421 191.116 98.2648 189.67 99.4002C188.448 100.363 187.462 101.579 186.492 102.783C185.249 104.325 184.001 105.869 182.757 107.411C181.976 108.378 181.156 109.46 181.223 110.704C181.256 111.331 181.516 111.927 181.755 112.515C182.609 114.604 183.246 116.773 183.657 118.979C184.027 120.957 183.505 122.562 183.484 124.535C183.468 126.387 183.665 128.182 183.793 130.025C183.874 131.173 184.299 133.06 185.487 133.68C183.464 132.624 181.583 131.299 179.916 129.75C178.84 128.752 177.812 127.632 176.462 127.043C178.916 129.66 180.232 133.374 183.348 135.19C184.437 135.825 185.681 136.17 186.739 136.857C188.126 137.767 187.859 138.95 188.567 140.289Z" fill="#E64392"/>
<path d="M211.986 116.669C211.107 115.633 210.094 114.697 209.362 113.558C208.616 112.397 208.193 111.066 207.435 109.911C205.982 107.697 203.44 106.36 200.86 105.669C196.593 104.525 191.67 105.058 188.469 107.95C187.28 109.027 186.329 110.518 186.451 112.117C186.536 113.235 187.122 114.253 187.533 115.307C188.109 116.779 188.353 118.358 189.001 119.801C190.104 122.247 192.406 124.162 195.044 124.833C194.155 125.092 193.249 125.293 192.333 125.441C192.077 125.482 191.804 125.517 191.557 125.428C191.236 125.312 191.031 125.012 190.843 124.733C189.896 123.309 188.954 121.882 188.008 120.458C187.348 119.462 186.681 118.459 186.208 117.368C184.827 114.199 185.269 110.281 187.596 107.772C188.576 106.715 189.831 105.935 191.147 105.321C194.054 103.965 197.396 103.364 200.594 103.974C203.792 104.584 206.806 106.481 208.426 109.26C208.894 110.062 209.246 110.927 209.8 111.674C211.06 113.369 213.266 114.323 214.21 116.197C215.107 117.969 214.624 120.071 213.99 121.92C213.643 122.93 213.253 123.93 213.026 124.974C212.867 125.722 213.072 126.856 212.729 127.515C212.394 128.165 211.366 128.188 210.967 128.804C212.063 127.117 212.67 124.527 213.056 122.571C213.268 121.487 213.386 120.378 213.323 119.269C213.257 118.13 212.729 117.546 211.986 116.669Z" fill="#E64392"/>
<path d="M211.48 110.752C211.343 108.941 210.994 107.103 210.084 105.504C209.347 104.213 207.884 102.54 206.264 102.441C204.359 102.326 202.591 102.789 200.827 103.408C199.108 104.012 197.181 104.563 195.468 103.873C196.063 104.112 197.866 103.207 198.421 102.974C199.373 102.573 200.204 101.877 201.154 101.503C202.703 100.892 204.828 100.503 206.503 100.734C208.308 100.983 209.964 102.022 211.11 103.423C212.256 104.824 212.912 106.563 213.16 108.328C213.476 110.594 213.334 112.874 213.722 115.121C213.742 115.241 213.759 115.38 213.676 115.467C213.57 115.589 213.37 115.546 213.213 115.491C212.444 115.215 211.711 114.834 211.043 114.366C210.966 114.312 210.885 114.247 210.865 114.156C210.788 113.813 211.447 113.133 211.54 112.748C211.692 112.117 211.528 111.396 211.48 110.752Z" fill="#E64392"/>
<path d="M207.336 95.3505C205.319 95.3022 203.251 95.7412 201.498 96.5037C200.126 97.1039 198.874 97.9234 197.621 98.7252C197.478 98.8188 197.246 98.8898 197.161 98.7426C197.103 98.6372 197.178 98.5116 197.252 98.4203C197.799 97.7436 200.385 96.1559 199.249 95.3842C198.12 94.6148 196.343 94.2611 195.026 93.9876C192.059 93.3763 189.3 93.4079 186.842 95.2704C188.257 96.841 189.351 98.9141 188.95 100.941C188.665 98.7357 187.634 96.791 185.924 95.2991C185.816 95.2029 185.673 95.1041 185.537 95.1481C186.207 94.9361 186.707 94.1442 187.336 93.8265C187.921 93.5339 188.662 93.3313 189.297 93.1449C190.871 92.6792 192.537 92.5272 194.187 92.6239C196.058 92.7334 198.315 93.0945 199.77 94.3135C199.836 94.3694 199.915 94.4269 199.998 94.416C200.067 94.4065 200.116 94.3515 200.16 94.3014C200.785 93.5803 201.414 92.847 201.814 91.9862C202.255 91.0326 202.391 89.9691 202.629 88.9433C202.873 87.8814 203.233 86.8453 203.694 85.8573C203.404 87.335 203.722 88.8714 203.601 90.3772C203.453 92.2155 202.625 93.9784 201.304 95.272C202.741 94.6434 204.15 93.9627 205.546 93.2877C206.68 92.7384 208.267 92.5289 209.494 92.9263C210.864 93.3694 211.841 94.5364 212.815 95.5868C213.881 96.738 214.837 97.3138 216.32 97.7431C216.963 97.9301 217.395 98.4155 217.938 98.8133C218.434 99.1757 219.312 99.9809 219.92 100.088C219.004 99.926 218.114 99.6087 217.298 99.169C216.346 98.6505 215.407 98.1544 214.403 97.6971C215.175 98.4696 215.406 99.6 215.492 100.666C215.67 102.828 215.417 105.018 214.747 107.071C214.397 108.149 213.773 109.321 212.635 109.544C213.088 108.947 213.454 108.291 213.724 107.595C214.454 105.701 214.435 103.594 214.214 101.563C214.105 100.551 213.945 99.5281 213.493 98.6053C212.337 96.2436 209.81 95.4083 207.336 95.3505Z" fill="#E64392"/>
<path d="M206.749 117.217C206.698 119.832 206.236 121.857 204.335 123.783C203.519 124.612 202.411 125.226 201.224 125.214C200.198 125.203 199.183 124.727 198.179 124.892C197.507 125.002 196.903 125.388 196.223 125.414C195.448 125.447 194.72 125.002 194.165 124.46C193.611 123.918 193.175 123.271 192.62 122.729C191.873 121.997 190.885 121.43 190.476 120.478C190.251 119.958 190.23 119.388 190.207 118.828C190.168 117.706 190.129 116.58 190.089 115.458C190.079 115.137 190.07 114.802 190.213 114.516C190.547 113.851 191.484 113.77 192.074 113.308C192.506 112.969 192.726 112.447 193.062 112.017C193.663 111.245 194.669 110.795 195.672 110.847C194.03 112.726 192.314 114.763 192.059 117.239C191.899 118.762 192.342 120.348 193.27 121.602C194.2 122.856 195.609 123.764 197.147 124.102C195.562 122.905 193.992 121.472 193.497 119.587C193.25 118.646 193.274 117.604 192.704 116.802C193.863 118.508 195.021 120.214 196.18 121.92C196.456 122.33 196.738 122.742 197.112 123.073C198.179 124.019 199.744 124.101 201.169 124.132C200.169 123.763 199.534 122.787 198.632 122.221C197.795 121.693 196.701 121.488 196.129 120.692C196.877 121.092 197.643 121.454 198.422 121.779C199.414 122.19 200.448 122.547 201.518 122.596C202.587 122.644 203.705 122.351 204.45 121.615C205.638 120.436 205.631 118.461 206.749 117.217Z" fill="#E64392"/>
<path d="M203.913 112.467C204.678 113.681 205.692 115.717 205.691 117.162C205.69 117.658 205.405 117.922 205.155 118.322C204.801 118.896 204.547 119.541 204.332 120.178C203.983 121.211 203.073 121.742 201.968 121.488C201.437 121.367 200.942 121.12 200.426 120.939C198.903 120.404 197.182 120.451 195.717 121.069C197.457 119.656 199.926 119.3 202.176 119.739C202.397 119.783 202.634 119.832 202.841 119.752C203.062 119.67 203.2 119.463 203.326 119.269C203.697 118.698 204.071 118.121 204.289 117.476C204.508 116.83 204.561 116.106 204.289 115.471C204.075 114.972 203.682 114.567 203.364 114.124C203.045 113.677 202.784 113.168 202.337 112.841C201.601 112.302 200.589 112.407 199.699 112.565C198.769 112.732 197.8 112.955 197.102 113.572C196.408 114.19 196.11 115.33 196.705 116.062C196.962 116.377 197.35 116.584 197.569 116.924C197.686 117.104 197.756 117.322 197.926 117.455C198.265 117.725 198.758 117.513 199.114 117.283C199.562 116.988 199.993 116.663 200.398 116.311C200.648 116.093 200.898 115.847 200.963 115.526C201.034 115.182 200.852 114.8 200.538 114.627C200.221 114.453 199.797 114.498 199.539 114.737C199.325 114.934 199.127 115.272 198.841 115.18C198.655 115.118 198.586 114.879 198.659 114.703C198.731 114.528 198.9 114.412 199.073 114.334C199.79 114.003 201.157 113.911 201.796 114.47C202.25 114.866 202.497 115.44 202.636 116.015C202.661 116.122 202.683 116.236 202.646 116.337C202.6 116.459 202.477 116.539 202.361 116.608C201.412 117.166 200.465 117.726 199.514 118.287C199.149 118.504 198.762 118.723 198.332 118.727C197.823 118.73 197.366 118.428 196.964 118.114C196.34 117.623 195.766 117.067 195.256 116.462C195.054 116.223 194.86 115.969 194.757 115.675C194.633 115.322 194.657 114.936 194.734 114.574C195.059 113.043 196.324 111.802 197.827 111.275C199.331 110.748 201.035 110.872 202.557 111.407C202.844 111.507 203.131 111.624 203.366 111.816C203.597 111.989 203.761 112.225 203.913 112.467Z" fill="#E64392"/>
<path d="M194.486 116.294C194.996 117.539 194.548 118.888 194.872 120.154C194.921 120.344 194.989 120.537 195.111 120.694C195.289 120.921 195.569 121.049 195.852 121.13C196.234 121.237 196.639 121.262 197.028 121.204C196.295 120.918 195.55 120.277 195.47 119.497C195.38 118.625 195.652 117.759 195.553 116.883C195.402 115.556 194.413 114.343 193.122 113.894C193.068 113.874 193.006 113.857 192.954 113.88C192.833 113.933 192.893 114.112 192.973 114.215C193.491 114.904 194.165 115.504 194.486 116.294Z" fill="#E64392"/>
<path d="M197.429 109.843C199.627 109.403 201.718 110.114 203.47 111.444C203.788 111.684 204.178 111.875 204.432 112.179C204.785 112.604 204.956 113.23 205.139 113.734C205.578 114.953 205.871 116.218 206.014 117.5C206.066 117.978 206.099 118.461 206.261 118.916C206.903 118.139 206.861 117.197 206.529 116.299C206.135 115.237 205.866 114.103 205.528 113.017C205.371 112.511 205.208 112 204.906 111.563C204.679 111.234 204.384 110.953 204.068 110.699C202.45 109.395 200.304 108.736 198.238 108.907C196.171 109.081 194.207 110.083 192.895 111.634C193.124 111.734 193.376 111.608 193.59 111.488C194.803 110.804 196.047 110.121 197.429 109.843Z" fill="#E64392"/>
<path d="M193.206 126.948C193.575 127.881 194.106 128.711 195.013 129.254C195.437 129.507 195.923 129.653 196.416 129.682C197.459 129.745 198.506 129.255 199.1 128.431C198.353 128.464 197.635 128.749 196.89 128.727C196.125 128.704 195.155 128.263 194.67 127.649C194.123 126.96 194.204 125.814 193.746 125.032C193.404 124.45 192.862 123.952 192.197 123.803C192.14 123.792 192.068 123.782 192.033 123.829C191.999 123.872 192.018 123.935 192.038 123.988C192.424 124.973 192.814 125.96 193.206 126.948Z" fill="#E64392"/>
<path d="M180.273 122.906C180.671 121.004 180.46 119.025 180.283 117.08C180.048 114.44 180.247 111.95 180.779 109.378C180.805 109.251 180.828 109.11 180.762 108.998C180.696 108.886 180.561 108.832 180.436 108.789C179.037 108.3 177.626 107.845 176.21 107.42C177.798 107.895 180.033 107.357 181.511 106.811C183.193 106.19 184.601 105.243 185.976 104.141C185.502 104.949 185.022 105.805 184.306 106.432C183.696 106.967 183.209 107.435 182.798 108.152C181.886 109.741 181.61 111.703 181.565 113.519C181.429 115.509 181.461 117.515 181.656 119.508C181.81 121.078 182.067 122.679 181.732 124.21C181.094 127.106 178.223 127.805 175.492 127.858C177.879 126.65 179.699 125.668 180.273 122.906Z" fill="#E64392"/>
<path d="M208.177 139.824C208.106 140.276 207.999 140.728 207.754 141.116C206.977 142.353 205.58 142.197 204.303 142.368C203.03 142.537 201.831 142.838 200.587 142.211C199.507 141.669 198.848 140.547 198.479 139.418C198.11 138.289 197.968 137.105 197.586 135.981C196.784 133.629 194.695 131.315 192.206 130.602C193.019 131.84 194.323 132.556 195.089 133.77C196.097 135.368 196.691 137.44 196.993 139.271C197.21 140.333 197.415 141.446 198.094 142.311C199.073 143.562 200.793 143.982 202.382 144.164C204.264 144.379 205.753 144.182 207.316 143.174C208.641 142.323 208.947 141.434 209.02 139.833C209.15 136.86 208.925 133.682 210.482 131.153C207.218 132.404 208.591 137.183 208.177 139.824Z" fill="#E64392"/>
<path d="M219.117 110.199C219.497 110.396 219.858 110.625 220.195 110.883C221.802 112.127 222.952 114.214 222.951 116.222C222.949 117.863 221.926 120.011 221.284 121.526C220.721 122.853 219.999 123.943 218.815 124.851C219.327 124.647 219.896 124.586 220.445 124.679C220.714 124.723 221.008 124.804 221.247 124.684C221.552 124.532 221.621 124.152 221.698 123.828C222.02 122.481 222.989 121.434 223.707 120.286C224.484 119.052 224.903 117.577 224.832 116.112C224.778 114.97 224.501 113.837 224.027 112.787C223.555 111.742 222.698 110.766 221.754 110.098C222.532 109.73 223.085 108.951 223.169 108.106C222.647 108.463 222.096 108.782 221.523 109.055C221.172 109.224 220.801 109.38 220.408 109.391C219.877 109.403 219.376 109.153 218.883 108.949C217.871 108.534 216.323 108 215.241 108.342C214.797 108.48 214.398 108.779 213.972 108.956C213.244 109.258 212.555 109.591 211.918 110.053C212.383 110.128 212.835 109.923 213.274 109.768C215.145 109.095 217.328 109.275 219.117 110.199Z" fill="#E64392"/>
<path d="M105.858 158.757C105.177 159.492 105.191 160.706 105.89 161.463C106.587 162.223 107.705 162.242 108.383 161.504C109.064 160.769 109.049 159.556 108.35 158.798C107.653 158.041 106.536 158.022 105.858 158.757Z" fill="#7ED1F2"/>
<path d="M101.857 150.71C100.918 151.726 100.938 153.403 101.901 154.452C102.865 155.502 104.41 155.527 105.349 154.511C106.288 153.494 106.268 151.817 105.305 150.768C104.339 149.719 102.797 149.693 101.857 150.71Z" fill="#7ED1F2"/>
<path d="M94.3932 142.895C93.2708 144.11 93.2939 146.109 94.4451 147.362C95.5962 148.616 97.4371 148.644 98.5597 147.432C99.6821 146.218 99.6563 144.219 98.5078 142.965C97.3566 141.712 95.5156 141.68 94.3932 142.895Z" fill="#7ED1F2"/>
<path d="M84.5378 137.431C83.1982 138.882 83.2256 141.272 84.5999 142.768C85.9742 144.264 88.1757 144.302 89.5152 142.851C90.8548 141.401 90.8274 139.011 89.4531 137.515C88.0788 136.019 85.8799 135.981 84.5378 137.431Z" fill="#7ED1F2"/>
<path d="M53.9626 125.326C53.6608 126.15 52.7263 126.564 51.8783 126.25C51.029 125.938 50.5864 125.017 50.8914 124.194C51.1933 123.37 52.1277 122.956 52.9757 123.271C53.8228 123.583 54.2654 124.505 53.9626 125.326Z" fill="#7ED1F2"/>
<path d="M61.6588 125.821C61.2406 126.959 59.9489 127.532 58.7763 127.1C57.6036 126.669 56.9914 125.395 57.4096 124.257C57.8278 123.12 59.1195 122.547 60.2921 122.978C61.4657 123.412 62.077 124.684 61.6588 125.821Z" fill="#7ED1F2"/>
<path d="M70.5036 129.273C70.0039 130.632 68.4647 131.315 67.0637 130.799C65.6626 130.284 64.9348 128.765 65.4323 127.407C65.932 126.048 67.4721 125.367 68.8722 125.88C70.2733 126.396 71.0033 127.914 70.5036 129.273Z" fill="#7ED1F2"/>
<path d="M78.4659 135.539C77.8692 137.161 76.0288 137.978 74.3565 137.363C72.6841 136.747 71.811 134.932 72.4077 133.31C73.0045 131.688 74.8449 130.871 76.5172 131.486C78.1895 132.102 79.0618 133.915 78.4659 135.539Z" fill="#7ED1F2"/>
<path d="M97.1829 202.082C96.7859 200.517 95.8479 198.886 95.031 197.471C94.8882 197.226 94.6472 196.944 94.3768 197.032C94.262 197.07 94.1807 197.172 94.1091 197.268C93.0273 198.723 92.3858 200.486 92.2329 202.291C92.1107 203.761 92.119 206.014 93.107 207.23C93.815 208.105 95.1831 208.551 96.1199 207.95C96.6402 207.616 96.9347 207.037 97.126 206.455C97.5848 205.058 97.5499 203.525 97.1829 202.082Z" fill="#E64392"/>
<path d="M106.469 194.982C105.075 194.1 103.257 193.539 101.677 193.052C101.402 192.967 101.033 192.924 100.901 193.172C100.847 193.278 100.86 193.408 100.877 193.527C101.146 195.331 101.94 197.058 103.115 198.488C104.073 199.651 105.674 201.298 107.235 201.526C108.359 201.689 109.641 201.09 109.877 200.011C110.006 199.413 109.805 198.79 109.53 198.234C108.865 196.893 107.749 195.79 106.469 194.982Z" fill="#E64392"/>
<path d="M111.69 185.653C110.047 185.636 108.22 186.112 106.64 186.527C106.365 186.599 106.032 186.758 106.062 187.035C106.075 187.155 106.155 187.258 106.239 187.352C107.454 188.751 109.071 189.806 110.836 190.407C112.274 190.897 114.514 191.458 115.939 190.832C116.963 190.381 117.7 189.195 117.299 188.152C117.079 187.574 116.568 187.147 116.031 186.818C114.737 186.029 113.203 185.671 111.69 185.653Z" fill="#E64392"/>
<path d="M124.421 152.158C125.035 149.48 125.313 146.576 124.18 144.027C125.775 147.607 125.109 150.569 125.752 154.319C125.859 154.942 126.012 155.596 126.454 156.061C127.489 157.141 129.369 156.59 130.718 157.253C131.68 157.726 132.25 158.815 132.222 159.859C132.142 162.756 126.498 166.891 123.864 164.36C120.938 161.547 123.7 155.295 124.421 152.158Z" fill="#E64392"/>
<path d="M133.652 174.471C133.558 175.131 133.438 175.782 133.321 176.433C139.003 180.433 147.025 181.706 154.762 179.66C161.841 177.792 168.57 173.568 175.949 166.317L174.632 165.037C167.49 172.056 161.002 176.149 154.258 177.925C146.71 179.899 138.929 178.551 133.652 174.471Z" fill="#891DAB"/>
<path d="M129.148 197.438C129.007 198.039 128.909 198.641 128.819 199.222C137.074 201.553 146.717 200.733 155.029 196.55C165.039 191.528 173.391 182.379 179.818 169.364L178.171 168.565C171.892 181.231 163.822 190.115 154.171 194.956C146.218 198.958 136.994 199.735 129.148 197.438Z" fill="#891DAB"/>
<path d="M127.531 205.673C127.381 206.298 127.207 206.911 127.051 207.517C131.163 209.829 135.911 211.037 140.659 210.76C144.649 210.508 148.836 209.282 153.481 207.001C160.426 203.567 166.691 198.625 171.587 192.696L170.152 191.558C165.412 197.29 159.355 202.071 152.615 205.386C148.206 207.578 144.247 208.735 140.506 208.964C136.034 209.235 131.446 207.985 127.531 205.673Z" fill="#891DAB"/>
<path d="M103.907 112.185C103.907 112.185 103.898 112.21 103.916 112.202C110.194 117.744 118.185 120.801 124.766 122.733C125.843 123.032 126.873 123.314 127.856 123.575C134.117 125.224 142.343 126.925 150.437 125.672C153.8 125.159 156.934 124.111 159.675 122.647C160.13 122.412 160.56 122.166 160.956 121.895C164.451 119.789 167.213 116.936 168.919 113.6L167.28 112.777C165.634 115.972 162.914 118.694 159.462 120.665C158.834 121.046 158.184 121.38 157.503 121.682C155.235 122.724 152.75 123.48 150.094 123.892C142.359 125.101 134.381 123.422 128.288 121.843C127.662 121.676 127.014 121.502 126.341 121.317C126.341 121.317 126.341 121.317 126.324 121.325C118.763 119.19 108.923 115.546 102.401 108.132C101.995 108.623 102.642 110.146 103.907 112.185Z" fill="#891DAB"/>
<path d="M102.023 107.715L101.49 108.139L100.6 108.838C100.63 108.863 100.655 108.914 100.684 108.943L100.701 108.935C100.992 108.781 101.274 108.652 101.548 108.506C101.822 108.36 102.104 108.231 102.361 108.093C102.252 107.979 102.14 107.846 102.023 107.715Z" fill="#891DAB"/>
<path d="M129.374 138.324C128.189 138.005 127.007 137.649 125.823 137.233C126.863 138.095 127.812 138.972 128.579 139.938C129.147 140.108 129.715 140.235 130.266 140.37C134.72 141.399 139.209 141.672 143.736 140.82C146.907 140.226 150.058 139.034 153.09 137.322C155.804 135.796 158.407 133.823 160.863 131.461C162.586 129.793 164.169 128.024 165.605 126.198C168.288 122.83 170.55 119.316 172.483 116.102L170.896 115.162C168.971 118.351 166.734 121.836 164.089 125.152C163.663 125.688 163.233 126.205 162.776 126.717C161.762 127.911 160.69 129.07 159.554 130.16C154.615 134.917 149.013 137.981 143.342 139.064C138.694 139.95 134.016 139.555 129.374 138.324Z" fill="#891DAB"/>
<path d="M85.5202 91.8657C84.9016 92.0861 84.3072 92.319 83.7048 92.5734C83.7815 94.9806 84.2965 97.3517 85.215 99.5097C85.7415 100.747 86.3987 101.913 87.1912 102.987C90.0541 106.878 94.519 109.367 99.1015 109.72C99.1187 109.712 99.1187 109.712 99.1187 109.712C99.6464 109.465 100.185 109.198 100.691 108.942L100.708 108.935C100.999 108.781 101.281 108.652 101.555 108.506L101.498 108.139L101.473 107.895C96.7997 108.396 91.6439 106.002 88.6731 101.956C86.6015 99.1419 85.5013 95.5366 85.5202 91.8657Z" fill="#891DAB"/>
<path d="M170.454 221.615C168.915 222.712 167.332 223.726 165.732 224.657C156.348 230.115 144.593 231.917 133.89 228.916C135.775 229.446 140.666 226.065 142.183 225.106C145.185 223.212 147.57 220.866 149.995 218.338C153.904 214.267 155.912 210.882 158.457 205.755C161.448 199.731 165.295 194.132 169.849 189.151C173.606 185.037 178.408 182.824 182.213 178.966C187.81 185.072 187.841 195.51 185.5 202.77C183.012 210.493 177.172 216.829 170.454 221.615Z" fill="#F3B934"/>
<path d="M82.5201 99.7886C85.686 99.4681 88.8842 99.3412 92.052 99.0249C97.9417 98.4394 103.751 97.1987 109.335 95.3435C111.719 94.5503 114.781 92.5354 117.262 92.4105C119.5 92.297 122.422 93.824 124.637 94.2883C123.022 86.5971 113.448 82.2073 106.449 80.5881C95.6843 78.1024 88.7104 82.1441 80.1915 87.4832C76.6035 89.7319 73.9023 91.8914 71.0105 95.0663C69.2077 97.0466 67.4654 99.0774 65.7879 101.157C64.7849 102.401 63.1285 105.798 61.7229 106.459C66.6969 104.115 71.7244 101.752 77.1389 100.595C78.9141 100.218 80.7126 99.9719 82.5201 99.7886Z" fill="#F3B934"/>
<path d="M186.219 152.405C186.417 149.444 186.512 146.479 186.201 143.52C185.683 138.584 183.91 134.232 180.582 130.437C179.551 129.261 178.67 127.892 177.565 126.786C176.707 125.929 172.823 124.326 172.551 123.499C173.37 125.993 172.95 128.708 172.042 131.14C171.134 133.569 169.765 135.798 168.622 138.125C165.213 145.061 163.82 153.034 165.148 160.703C166.475 168.374 170.601 175.683 176.86 180.572C180.177 183.165 189.937 188.263 187.507 180.09C185.473 173.245 185.248 166.089 185.712 159.063C185.86 156.847 186.07 154.627 186.219 152.405Z" fill="#F3B934"/>
<path d="M160.589 96.1304C154.968 92.132 148.189 89.8021 141.328 89.2822C138.379 89.0583 134.903 88.8759 131.993 89.1971C130.269 89.3871 122.738 93.4067 121.728 92.842C128.913 96.8743 131.151 105.852 136.329 112.183C140.691 117.515 147.163 120.891 153.851 122.747C160.539 124.603 167.508 125.076 174.42 125.538C175.143 125.587 176.011 125.568 176.382 124.968C176.632 124.566 176.551 124.05 176.461 123.583C174.41 112.817 169.988 102.817 160.589 96.1304Z" fill="#F3B934"/>
<path d="M117.893 71.2312C116.657 68.6021 115.373 65.3442 116.608 62.5379C117.32 60.9237 118.564 59.5842 119.977 58.5066C120.333 58.2374 128.071 53.7571 128.289 54.8163C127.629 51.598 126.181 49.0512 126.654 45.612C127.087 42.4548 128.826 39.6684 131.784 38.2507C133.934 37.2239 136.297 36.6428 138.408 35.5458C140.521 34.4457 142.444 32.6358 142.75 30.3045C148.469 32.6839 154.057 29.4434 159.809 30.1583C162.448 30.4872 165.397 31.0811 167.713 32.4634C169.009 33.2389 170.173 34.2342 171.118 35.3999C171.348 35.6811 173.259 39.0151 173.124 39.028C175.699 38.8158 178.243 40.1081 180.103 41.9039C180.712 42.4936 183.165 46.5777 181.376 47.0298C185.072 46.0963 189.313 46.602 193.02 47.3245C193.394 49.4547 194.526 51.3881 195.615 53.2813C196.704 55.1744 197.795 57.1414 198.063 59.2846C198.335 61.429 197.603 63.8114 195.736 64.9191C197.683 65.7375 199.249 67.403 199.917 69.3631C200.452 70.9349 200.425 72.6225 200.781 74.2426C201.134 75.8585 202.038 77.5503 203.637 78.1031C203.115 80.5497 202.326 82.9805 201.227 85.2294C200.387 86.943 199.896 88.9503 198.685 90.4731C196.693 92.9805 193.251 94.0051 189.978 94.0445C191.138 96.2193 191.431 97.1175 190.814 99.3646C190.162 101.748 189.671 104.335 187.414 105.794C185.492 107.039 182.924 106.401 180.598 106.371C180.036 106.364 179.454 106.399 178.957 106.65C178.38 106.942 177.994 107.487 177.641 108.019C175.454 111.331 173.352 115.337 169.404 116.229C166.971 116.777 164.525 115.832 162.097 116.144C160.119 116.397 158.478 117.962 156.734 118.816C155.465 116.971 153.837 115.754 151.732 114.897C149.709 114.071 147.558 113.561 145.609 112.577C141.148 110.32 138.156 105.477 138.217 100.609C138.217 100.571 135.842 100.993 135.641 101.03C134.513 101.225 133.337 101.308 132.221 100.959C130.485 100.418 129.217 98.9757 128.001 97.6362C126.785 96.2893 125.524 94.9822 124.225 93.7128C123.535 93.0405 122.802 92.3591 121.885 92.0562C121.631 91.9725 121.338 91.8984 121.199 91.672C121.056 91.4371 121.146 91.1386 121.231 90.8804C121.704 89.4741 121.967 87.9931 122.01 86.5036C122.082 83.9668 121.542 81.2859 122.58 78.9792C123.207 77.5848 124.365 76.4753 125.661 75.6338C125.167 75.9563 123.639 75.5802 123.031 75.5984C122.464 75.6142 121.89 75.7815 121.329 75.6043C119.612 75.0526 118.576 72.6764 117.893 71.2312Z" fill="#E64392"/>
<path d="M190.097 85.9435C190.927 84.2856 191.842 82.6387 192.211 80.8236C192.958 77.1615 191.384 73.387 189.447 70.1162C189.117 72.8404 188.782 75.6006 187.753 78.1416C186.725 80.6825 184.916 83.0201 182.355 84.1142C181.978 84.2745 181.582 84.4101 181.267 84.6666C180.825 85.0225 180.597 85.5665 180.367 86.0782C179.729 87.5033 178.937 88.8885 177.773 89.9437C176.61 90.9988 175.03 91.6929 173.433 91.5424C172.849 91.4858 172.251 91.3226 171.691 91.4738C171.015 91.6554 170.559 92.2404 170.071 92.7294C168.384 94.4176 165.765 95.1579 163.376 94.6185C162.91 94.5151 162.448 94.364 161.974 94.3517C161.46 94.3387 160.96 94.4915 160.472 94.6417C158.699 95.1871 156.895 95.7384 155.026 95.787C153.156 95.8387 151.179 95.3234 149.847 94.0173C152.813 93.8741 155.76 93.4473 158.629 92.7439C159.745 92.4713 160.871 92.1461 161.809 91.5031C163.08 90.6314 163.881 89.2633 164.761 88.0118C166.449 85.6149 168.555 83.5137 170.078 81.0099C171.044 79.4202 172.043 77.2771 171.904 75.3567C171.719 72.7453 169.504 71.0931 167.887 69.1957C168.392 69.7924 169.339 69.9105 169.854 70.5773C170.426 71.3141 171.097 71.9689 171.691 72.6963C172.379 73.5462 172.475 74.2384 172.469 75.3574C172.456 77.5497 171.818 79.6805 171.05 81.7069C169.82 84.9448 168.226 88.0472 166.306 90.9339C168.405 90.7332 170.231 89.4045 171.471 87.7561C172.711 86.1078 173.446 84.1527 174.142 82.2146C174.625 80.8679 175.102 79.4877 175.096 78.0533C175.083 75.4847 173.537 73.1632 172.05 71.0137C171.224 69.819 170.462 68.5263 169.547 67.3962C168.824 66.5022 167.833 66.0392 167.042 65.242C166.454 64.6458 166.196 63.8198 165.732 63.1303C164.072 60.6615 161.153 60.9585 158.583 60.9943C156.138 61.0313 153.928 62.3641 151.493 62.705C150.249 62.8816 148.963 62.941 147.802 63.3997C146.081 64.0762 144.809 65.5901 144.153 67.2847C143.497 68.9793 143.402 70.8511 143.553 72.6712C143.642 73.7205 143.808 74.7743 143.684 75.8144C143.56 76.8545 143.095 77.911 142.191 78.4619C142.487 77.1331 142.383 75.7495 142.121 74.412C141.894 73.2412 141.406 72.3366 141 71.2495C140.127 68.92 142.181 65.6847 143.852 64.2318C145.357 62.9265 147.269 62.1533 149.178 61.512C150.688 61.0051 152.145 60.632 153.737 60.5745C155.102 60.5238 156.335 59.9029 157.624 59.5547C158.845 59.2233 160.599 59.3204 161.802 59.6773C162.843 59.9876 163.837 60.6159 164.763 61.1665C165.886 61.8358 167.079 62.4822 168.167 63.2051C169.299 63.9579 170.24 64.9893 170.878 66.1696C171.439 67.2063 171.767 68.3482 172.374 69.3598C172.929 70.2788 173.714 71.1683 174.544 71.8612C175.261 72.4598 175.59 73.0956 175.965 73.9548C177.525 77.525 177.838 81.5814 176.843 85.2909C178.711 84.3444 179.94 82.4648 180.48 80.4721C181.02 78.4794 180.942 76.3653 180.725 74.297C181.232 75.2368 181.741 76.1734 182.251 77.1144C182.375 77.3422 182.535 77.6007 182.798 77.6391C183.067 77.68 183.298 77.4655 183.477 77.2665C185.619 74.8675 187.253 72.0349 188.248 68.9926C188.631 67.8255 189.004 64.7541 190.718 64.9866C192.315 65.2037 193.935 65.244 195.535 65.1058C195.203 65.4156 194.698 65.4477 194.241 65.5255C193.479 65.6576 191.979 66.165 191.646 66.9424C191.345 67.6474 192.147 68.5574 192.448 69.2314C194.016 72.7698 195.088 76.5672 195.029 80.3944C194.97 84.2215 193.705 88.0855 191.066 90.8619C190.327 91.6383 189.485 92.3313 188.857 93.1977C187.242 95.4294 186.749 98.7284 185.716 101.271C186.15 100.133 185.638 98.4514 185.82 97.2372C185.999 96.0602 186.478 94.8973 186.861 93.7511C187.755 91.0795 188.834 88.467 190.097 85.9435Z" fill="#C72272"/>
<path d="M161.552 108.558C163.778 110.096 167.709 110.255 169.901 108.65C170.985 107.859 171.563 106.953 172.876 106.376C173.944 105.907 176.274 104.86 177.48 105.19C175.303 104.596 173.386 105.207 171.234 105.321C168.908 105.445 166.603 105.844 164.265 106.029C162.97 106.131 161.158 106.26 160.108 105.286C159.418 104.645 159.434 103.683 158.857 102.959C157.101 100.748 153.747 100.838 151.489 99.3478C150.601 98.7625 149.932 98.1816 149.676 97.1467C149.407 96.0584 149.216 95.8755 150.204 95.272C151.057 94.751 152.352 94.6464 153.338 94.737C149.187 92.6618 144.599 88.9359 142.384 84.8706C141.687 83.591 141.204 82.2065 140.439 80.9614C139.538 79.4942 138.276 78.267 137.252 76.8766C136.228 75.4862 135.418 73.8121 135.642 72.1351C135.806 70.9211 136.496 69.812 136.542 68.5856C136.571 67.8105 136.34 67.047 136.189 66.2818C135.539 63.0328 136.339 59.5964 138.173 56.863C139.619 54.7112 141.552 53.3663 143.707 51.9781C145.692 50.6978 147.648 50.891 149.978 50.7555C151.855 50.647 153.701 50.1464 155.355 49.3017C152.845 50.2401 150.041 49.9756 147.337 49.9369C145.03 49.9031 142.209 50.0235 140.324 51.4599C138.324 52.9827 136.526 54.7585 135.53 57.0951C134.686 59.0725 134.306 61.2082 133.928 63.3275C133.449 66.0378 132.966 68.7501 132.487 71.4604C132.186 73.158 131.913 75.0261 132.823 76.528C133.283 77.2859 133.999 77.8595 134.684 78.436C137.12 80.4844 139.346 82.7689 141.323 85.2443C143.095 87.4612 143.536 89.7907 144.835 92.2511C146.053 94.5624 147.496 96.6643 148.886 98.8719C149.751 100.245 151.529 102.318 153.394 102.33C150.228 102.312 147.055 101.868 143.995 101.013C142.015 100.458 140.022 99.727 137.982 99.8586C142.718 101.54 146.801 105.309 151.808 105.576C153.557 105.667 155.3 105.299 157.047 105.481C159.328 105.708 159.796 107.346 161.552 108.558Z" fill="#C72272"/>
<path d="M174.219 64.2578C172.458 63.5326 170.599 63.0194 168.949 62.0736C167.266 61.1087 165.861 59.7266 164.168 58.7789C160.923 56.9603 156.936 56.923 153.336 57.7141C147.382 59.0233 141.753 62.8284 139.8 68.4656C139.073 70.5635 138.919 73.0208 140.135 74.9299C140.986 76.2629 142.383 77.153 143.586 78.1979C145.273 79.6566 146.625 81.4625 148.381 82.839C151.359 85.1729 155.437 86.0789 159.096 85.2259C158.19 86.1145 157.225 86.9465 156.208 87.7139C155.923 87.9291 155.614 88.1495 155.255 88.1942C154.789 88.255 154.335 88.0159 153.923 87.786C151.822 86.62 149.717 85.4527 147.615 84.2898C146.146 83.4745 144.665 82.6545 143.356 81.605C139.553 78.5556 137.472 73.4048 138.623 68.8031C139.106 66.8661 140.11 65.0952 141.299 63.4873C143.92 59.9462 147.585 57.0658 151.88 55.7821C156.174 54.4985 161.108 54.9231 164.935 57.3386C166.04 58.0362 167.049 58.8866 168.222 59.4594C170.886 60.758 174.204 60.5324 176.608 62.2583C178.883 63.8871 179.704 66.8016 180.167 69.5062C180.418 70.9793 180.615 72.4741 181.044 73.9155C181.351 74.9484 182.356 76.2236 182.385 77.261C182.411 78.2838 181.177 78.9669 181.104 79.9874C181.305 77.1912 180.312 73.5874 179.474 70.9143C179.009 69.435 178.405 67.9807 177.587 66.6461C176.744 65.2635 175.71 64.8756 174.219 64.2578Z" fill="#C72272"/>
<path d="M169.639 57.2379C168.262 55.0734 166.605 53.0142 164.428 51.6142C162.671 50.4818 159.772 49.3403 157.737 50.2494C155.342 51.3248 153.505 53.0303 151.773 54.9254C150.085 56.7735 148.116 58.6884 145.574 58.9271C146.459 58.844 148.043 56.5693 148.562 55.9205C149.45 54.8118 149.997 53.4191 150.899 52.3505C152.373 50.6042 154.694 48.7607 156.887 47.977C159.246 47.1329 161.954 47.365 164.284 48.3716C166.614 49.3782 168.578 51.1182 170.058 53.1499C171.96 55.7612 173.315 58.6823 175.289 61.2261C175.393 61.3626 175.506 61.5235 175.467 61.687C175.419 61.9032 175.146 61.9796 174.923 62.0083C173.801 62.157 172.657 62.154 171.531 61.9969C171.4 61.9798 171.26 61.9518 171.174 61.8535C170.849 61.4777 171.198 60.2104 171.053 59.671C170.813 58.7959 170.129 58.0033 169.639 57.2379Z" fill="#C72272"/>
<path d="M154.298 40.7629C151.813 41.9933 149.593 43.8568 147.972 45.9292C146.706 47.5505 145.734 49.3685 144.745 51.166C144.632 51.3721 144.399 51.6103 144.196 51.4788C144.054 51.3874 144.065 51.1821 144.093 51.0212C144.302 49.831 146.384 46.2083 144.49 45.9752C142.601 45.7402 140.205 46.4383 138.423 46.9416C134.411 48.0755 131.073 49.883 129.333 53.7659C132.103 54.8103 134.819 56.687 135.689 59.4591C133.869 56.9065 131.311 55.148 128.237 54.3886C128.04 54.3394 127.803 54.3073 127.664 54.4478C128.336 53.7547 128.414 52.4528 128.965 51.6589C129.476 50.9235 130.248 50.1943 130.891 49.5602C132.493 47.9734 134.416 46.7257 136.486 45.788C138.833 44.7261 141.817 43.7335 144.405 44.3159C144.522 44.3418 144.661 44.3655 144.752 44.2946C144.827 44.2387 144.853 44.14 144.873 44.0463C145.149 42.752 145.425 41.44 145.335 40.1141C145.234 38.6443 144.687 37.2393 144.287 35.8158C143.874 34.3418 143.614 32.8236 143.517 31.3031C144.153 33.3209 145.57 35.0288 146.428 36.9721C147.479 39.3468 147.652 42.0658 146.913 44.5155C148.241 42.8158 149.498 41.0726 150.744 39.3393C151.758 37.9316 153.542 36.6571 155.299 36.3677C157.264 36.0438 159.229 36.8692 161.114 37.553C163.183 38.3019 164.729 38.4056 166.817 37.9913C167.72 37.8103 168.572 38.1415 169.502 38.2849C170.346 38.4172 171.955 38.8551 172.766 38.6015C171.543 38.9848 170.253 39.1614 168.964 39.1324C167.456 39.099 165.986 39.0828 164.46 39.1577C165.915 39.6222 166.952 40.8812 167.773 42.1474C169.439 44.7162 170.596 47.5986 171.152 50.5754C171.446 52.1377 171.473 53.9919 170.238 54.9961C170.391 53.9666 170.397 52.9141 170.256 51.8802C169.876 49.0597 168.442 46.4583 166.818 44.0763C166.009 42.8917 165.13 41.7227 163.962 40.8654C160.977 38.6757 157.348 39.2536 154.298 40.7629Z" fill="#C72272"/>
<path d="M168.211 68.2892C169.897 71.5677 170.692 74.3781 169.671 77.9836C169.232 79.5317 168.298 81.0043 166.845 81.7455C165.591 82.3862 164.039 82.4444 162.927 83.295C162.183 83.8602 161.709 84.7281 160.901 85.196C159.979 85.7295 158.798 85.6428 157.761 85.3233C156.723 85.0038 155.759 84.4806 154.721 84.1611C153.322 83.7313 151.745 83.6543 150.609 82.7392C149.988 82.2393 149.578 81.5418 149.18 80.8593C148.379 79.489 147.581 78.1198 146.78 76.7495C146.551 76.3571 146.316 75.9447 146.298 75.4981C146.256 74.4591 147.345 73.7602 147.753 72.8084C148.05 72.1156 147.968 71.3201 148.087 70.5749C148.302 69.2332 149.225 68.0294 150.479 67.4552C149.74 70.8371 149.017 74.4628 150.364 77.7057C151.19 79.6965 152.787 81.3842 154.755 82.347C156.723 83.3098 159.048 83.5388 161.143 82.9773C158.417 82.5043 155.547 81.7298 153.683 79.7022C152.752 78.692 152.083 77.3815 150.853 76.7491C153.405 78.128 155.953 79.5058 158.504 80.8847C159.117 81.2138 159.737 81.5494 160.412 81.7201C162.342 82.2146 164.297 81.3145 166.049 80.4398C164.584 80.6213 163.162 79.8164 161.684 79.6855C160.317 79.5648 158.845 80.0089 157.618 79.385C158.793 79.4028 159.967 79.3645 161.137 79.2689C162.615 79.1482 164.113 78.9265 165.443 78.3037C166.773 77.6809 167.934 76.6007 168.349 75.2147C169.017 72.9937 167.688 70.5466 168.211 68.2892Z" fill="#C72272"/>
<path d="M161.586 64.2015C163.328 65.2199 165.923 67.1006 166.891 68.8929C167.221 69.5079 167.049 70.017 167.017 70.6755C166.971 71.612 167.094 72.5766 167.261 73.5046C167.528 75.0117 166.779 76.2522 165.265 76.6426C164.535 76.8322 163.768 76.8435 163.023 76.9473C160.812 77.2564 158.757 78.4161 157.386 80.117C158.552 77.2536 161.319 75.2269 164.344 74.3369C164.643 74.2491 164.96 74.1611 165.162 73.9288C165.374 73.6865 165.406 73.3387 165.43 73.0154C165.497 72.0695 165.565 71.1132 165.4 70.1718C165.234 69.2334 164.815 68.2985 164.061 67.6826C163.466 67.1995 162.717 66.9487 162.033 66.5998C161.343 66.2487 160.687 65.7847 159.922 65.664C158.666 65.466 157.507 66.2397 156.53 67.0078C155.511 67.8095 154.48 68.7041 154.05 69.9169C153.618 71.1286 154.019 72.7309 155.236 73.264C155.759 73.4936 156.368 73.5035 156.865 73.7829C157.126 73.9325 157.357 74.1545 157.656 74.2132C158.245 74.3314 158.705 73.7548 158.983 73.24C159.33 72.5869 159.637 71.9081 159.892 71.2135C160.051 70.784 160.19 70.315 160.055 69.8737C159.909 69.4039 159.435 69.0423 158.933 69.0267C158.431 69.0111 157.948 69.3414 157.794 69.8044C157.666 70.1865 157.651 70.7325 157.245 70.798C156.981 70.8395 156.733 70.5865 156.701 70.3233C156.672 70.0612 156.802 69.8091 156.96 69.5987C157.607 68.729 159.209 67.7428 160.357 68.0266C161.175 68.2295 161.861 68.7852 162.414 69.4099C162.515 69.5245 162.619 69.6507 162.642 69.8024C162.67 69.9875 162.57 70.1598 162.478 70.3211C161.698 71.6236 160.919 72.9231 160.14 74.2226C159.839 74.7219 159.518 75.2483 158.996 75.5259C158.38 75.8556 157.623 75.7728 156.928 75.6365C155.84 75.424 154.771 75.1031 153.745 74.676C153.34 74.5076 152.932 74.3174 152.615 74.0178C152.227 73.6569 152 73.1637 151.85 72.6646C151.22 70.5545 151.928 68.2085 153.404 66.5922C154.877 64.9748 157.031 64.0438 159.242 63.7347C159.66 63.677 160.084 63.6394 160.499 63.724C160.884 63.8145 161.243 64.0005 161.586 64.2015Z" fill="#C72272"/>
<path d="M152.689 74.9812C154.14 76.202 154.501 78.1632 155.741 79.5256C155.927 79.7312 156.138 79.9285 156.395 80.0416C156.766 80.2073 157.193 80.1916 157.588 80.108C158.122 79.9961 158.632 79.7699 159.066 79.4458C157.984 79.5567 156.649 79.242 156.03 78.3233C155.337 77.3006 155.09 76.049 154.383 75.0247C153.314 73.4744 151.296 72.5978 149.425 72.8655C149.345 72.8776 149.259 72.8947 149.215 72.9551C149.105 73.0958 149.298 73.283 149.463 73.3619C150.548 73.8913 151.768 74.2053 152.689 74.9812Z" fill="#C72272"/>
<path d="M151.949 65.0906C154.328 63.1395 157.345 62.6867 160.362 63.2192C160.907 63.3135 161.51 63.3003 162.026 63.5202C162.739 63.8204 163.365 64.4899 163.925 64.9986C165.274 66.2306 166.48 67.6155 167.507 69.1151C167.89 69.6732 168.253 70.2554 168.754 70.7179C169.016 69.345 168.333 68.2002 167.33 67.296C166.143 66.2289 165.057 64.9938 163.916 63.8602C163.387 63.3352 162.846 62.8056 162.186 62.4515C161.69 62.1868 161.144 62.0289 160.592 61.9145C157.749 61.3283 154.702 61.8816 152.305 63.4173C149.908 64.953 148.192 67.4546 147.636 70.2167C147.981 70.1912 148.206 69.8767 148.384 69.5904C149.398 67.9592 150.456 66.3164 151.949 65.0906Z" fill="#C72272"/>
<path d="M158.262 89.0278C159.337 89.9518 160.532 90.6408 162.001 90.737C162.687 90.7824 163.376 90.6514 163.992 90.3705C165.299 89.781 166.246 88.5054 166.415 87.1014C165.531 87.618 164.848 88.429 163.925 88.8783C162.978 89.3402 161.505 89.4101 160.506 88.9582C159.38 88.4519 158.715 86.9784 157.63 86.3024C156.826 85.8008 155.831 85.5247 154.924 85.7638C154.845 85.7832 154.755 85.8229 154.743 85.9024C154.73 85.9777 154.795 86.0439 154.855 86.0944C155.993 87.073 157.127 88.0504 158.262 89.0278Z" fill="#C72272"/>
<path d="M139.836 92.274C139.046 89.657 137.464 87.3361 135.951 85.0338C133.899 81.9056 132.475 78.6864 131.397 75.1559C131.343 74.982 131.28 74.7943 131.123 74.6939C130.968 74.5978 130.769 74.6182 130.59 74.6458C128.563 74.9328 126.541 75.2667 124.534 75.6481C126.781 75.2231 129.139 73.1246 130.567 71.5041C132.194 69.6574 133.272 67.5822 134.208 65.3355C134.176 66.6435 134.163 68.0117 133.714 69.2486C133.332 70.3045 133.052 71.1924 133.034 72.3452C132.99 74.903 133.964 77.5113 135.126 79.7984C136.295 82.3571 137.674 84.826 139.245 87.1746C140.483 89.0254 141.869 90.8472 142.485 92.9661C143.649 96.9722 140.627 99.6727 137.343 101.483C139.432 98.4526 140.985 96.0685 139.836 92.274Z" fill="#C72272"/>
<path d="M185.089 95.4506C185.304 96.0545 185.478 96.6887 185.44 97.3241C185.322 99.3549 183.519 100.057 182.082 101.084C180.651 102.105 179.39 103.247 177.46 103.266C175.784 103.281 174.233 102.309 173.028 101.145C171.823 99.9803 170.857 98.5977 169.64 97.4462C167.086 95.0362 162.999 93.4979 159.497 94.2071C161.315 95.2257 163.38 95.2812 165.123 96.2966C167.416 97.6352 169.527 99.8285 171.115 101.911C172.091 103.091 173.084 104.344 174.488 104.982C176.517 105.908 178.885 105.332 180.939 104.542C183.373 103.607 185.049 102.411 186.279 100.161C187.318 98.2571 187.099 96.9598 186.112 94.9267C184.283 91.1515 181.881 87.3482 182.08 83.2132C178.956 86.8467 183.824 91.9026 185.089 95.4506Z" fill="#C72272"/>
<path d="M178.558 51.6683C179.149 51.668 179.741 51.7208 180.327 51.8305C183.112 52.3497 185.908 54.2038 187.251 56.7014C188.347 58.7404 188.542 62.061 188.773 64.3512C188.977 66.3586 188.83 68.1761 188 70.0606C188.485 69.483 189.139 69.0418 189.868 68.8033C190.225 68.6879 190.632 68.5986 190.845 68.2971C191.112 67.9179 190.942 67.3972 190.819 66.9459C190.31 65.0697 190.784 63.1469 190.89 61.2653C191.007 59.2376 190.531 57.1393 189.464 55.3625C188.634 53.9816 187.54 52.7502 186.26 51.7498C184.984 50.7548 183.29 50.0898 181.696 49.8635C182.394 48.9076 182.545 47.5912 182.082 46.486C181.684 47.2637 181.23 48.0099 180.718 48.7172C180.405 49.1526 180.058 49.5823 179.585 49.8465C178.948 50.2033 178.171 50.211 177.435 50.2725C175.929 50.4003 173.688 50.733 172.601 51.8445C172.154 52.3 171.868 52.9236 171.467 53.4206C170.787 54.2609 170.17 55.1174 169.708 56.0981C170.324 55.8942 170.734 55.3519 171.164 54.8759C172.991 52.8384 175.764 51.6662 178.558 51.6683Z" fill="#C72272"/>
</g>
<defs>
<filter id="filter0_d_312_24462" x="7.97095" y="30.0529" width="238.924" height="234.168" filterUnits="userSpaceOnUse" color-interpolation-filters="sRGB">
<feFlood flood-opacity="0" result="BackgroundImageFix"/>
<feColorMatrix in="SourceAlpha" type="matrix" values="0 0 0 0 0 0 0 0 0 0 0 0 0 0 0 0 0 0 127 0" result="hardAlpha"/>
<feOffset dx="13" dy="7"/>
<feGaussianBlur stdDeviation="2"/>
<feComposite in2="hardAlpha" operator="out"/>
<feColorMatrix type="matrix" values="0 0 0 0 0 0 0 0 0 0 0 0 0 0 0 0 0 0 0.25 0"/>
<feBlend mode="normal" in2="BackgroundImageFix" result="effect1_dropShadow_312_24462"/>
<feBlend mode="normal" in="SourceGraphic" in2="effect1_dropShadow_312_24462" result="shape"/>
</filter>
</defs>
</svg>
