<svg width="430" height="147" viewBox="0 0 430 147" fill="none" xmlns="http://www.w3.org/2000/svg">
<mask id="mask0_312_27117" style="mask-type:alpha" maskUnits="userSpaceOnUse" x="0" y="0" width="430" height="147">
<rect width="430" height="147" fill="#D9D9D9"/>
</mask>
<g mask="url(#mask0_312_27117)">
<path d="M44.9135 106.249C41.5533 85.1045 43.8723 63.3263 40.4731 42.4061C23.6633 26.6838 26.8577 70.1117 26.8245 76.8603C26.6817 72.2988 20.903 56.2302 14.9209 66.9014C11.2881 80.723 17.09 95.7856 15.8209 109.987" fill="#A0B9F8"/>
<path d="M19.3086 66.0311L21.4358 108.927" stroke="#F3E2A2" stroke-miterlimit="10" stroke-linecap="round"/>
<path d="M34.6814 39.3292L38.1296 106.596" stroke="#F3E2A2" stroke-miterlimit="10" stroke-linecap="round"/>
<path d="M26.7773 76.8885L28.4301 104.949" stroke="#F3E2A2" stroke-miterlimit="10" stroke-linecap="round"/>
<path d="M443 148.597C414.984 133.364 378.749 116.421 335.667 103.177C254.81 139.108 150.006 152.797 81.0433 90.385C17.0521 103.495 -36.1964 126.901 -76 148.597C97 148.597 270 148.597 443 148.597Z" fill="#7E9CE9"/>
<path d="M54.6294 107.115C54.6294 110.537 56.479 113.311 58.7609 113.311C61.0427 113.311 62.8923 110.537 62.8923 107.115C62.8923 103.693 61.0427 100.919 58.7609 100.919C56.479 100.919 54.6294 103.693 54.6294 107.115Z" fill="#A0B9F8"/>
<path d="M47.5058 112.884C48.9748 112.884 50.1656 111.098 50.1656 108.896C50.1656 106.693 48.9748 104.907 47.5058 104.907C46.0368 104.907 44.8459 106.693 44.8459 108.896C44.8459 111.098 46.0368 112.884 47.5058 112.884Z" fill="#A0B9F8"/>
<path d="M360.518 124.772C359.53 127.857 360.396 131.558 362.453 133.039C364.51 134.521 366.978 133.221 367.966 130.137C368.954 127.052 368.087 123.351 366.031 121.869C363.974 120.387 361.506 121.686 360.518 124.772Z" fill="#A0B9F8"/>
<path d="M351.185 120.024C350.549 122.01 351.107 124.392 352.43 125.346C353.754 126.3 355.343 125.463 355.979 123.478C356.615 121.492 356.057 119.11 354.734 118.156C353.41 117.202 351.821 118.038 351.185 120.024Z" fill="#A0B9F8"/>
<path d="M335.667 103.177C284.866 87.5599 224.545 77.0852 156.921 80.631C130.223 82.0313 104.892 85.498 81.043 90.3838C150.006 152.796 254.809 139.108 335.667 103.177Z" fill="#A0B9F8"/>
<path d="M131.749 107.115C131.749 111.166 129.559 114.45 126.858 114.45C124.156 114.45 121.967 111.165 121.967 107.115C121.967 103.063 124.157 99.7797 126.858 99.7797C129.559 99.7797 131.749 103.063 131.749 107.115Z" fill="#7E9CE9"/>
<path d="M261.302 96.8754C261.302 100.927 259.112 104.211 256.411 104.211C253.709 104.211 251.52 100.927 251.52 96.8754C251.52 92.8241 253.71 89.5404 256.411 89.5404C259.113 89.5393 261.302 92.8241 261.302 96.8754Z" fill="#7E9CE9"/>
<path d="M211.532 121.002C211.532 125.054 209.342 128.337 206.641 128.337C203.94 128.337 201.75 125.054 201.75 121.002C201.75 116.951 203.94 113.666 206.641 113.666C209.342 113.666 211.532 116.951 211.532 121.002Z" fill="#7E9CE9"/>
<path d="M218.748 128.517C220.322 128.517 221.598 126.604 221.598 124.244C221.598 121.883 220.322 119.97 218.748 119.97C217.174 119.97 215.898 121.883 215.898 124.244C215.898 126.604 217.174 128.517 218.748 128.517Z" fill="#7E9CE9"/>
<path d="M141.057 114.735C141.057 117.252 139.696 119.293 138.018 119.293C136.339 119.293 134.979 117.252 134.979 114.735C134.979 112.218 136.339 110.177 138.018 110.177C139.696 110.177 141.057 112.218 141.057 114.735Z" fill="#7E9CE9"/>
<path d="M269.27 103.427C270.948 103.427 272.309 101.386 272.309 98.8693C272.309 96.352 270.948 94.3114 269.27 94.3114C267.591 94.3114 266.23 96.352 266.23 98.8693C266.23 101.386 267.591 103.427 269.27 103.427Z" fill="#7E9CE9"/>
<path d="M352 81.6203C353.349 63.4228 354.696 45.2252 356.045 27.0276C356.519 20.6302 357.106 13.9036 360.85 8.57819C362.652 6.01296 365.545 3.75482 368.766 4.02146C372.915 4.36533 375.409 8.51016 376.821 12.2486C380.133 21.0164 381.505 30.448 380.825 39.7454C380.715 41.2385 380.808 43.1473 382.27 43.6861C384.097 44.3591 385.563 42.1267 386.034 40.3117C387.294 35.4295 387.608 30.3284 386.955 25.3396C386.639 22.9122 386.28 19.9958 388.267 18.4493C389.645 17.3773 391.732 17.4747 393.292 18.2893C394.853 19.1058 395.977 20.507 396.931 21.9395C399.505 25.8103 401.17 30.2273 401.769 34.7767C402.507 40.3743 401.532 46.3579 398.037 50.9092C394.541 55.4586 388.25 58.2298 382.525 56.8249C384.482 66.6003 385.136 76.6112 384.461 86.543" fill="#A0B9F8"/>
<path d="M367.844 5.15417C365.593 31.6101 364.794 58.1801 365.451 84.7169" stroke="#F3E2A2" stroke-miterlimit="10" stroke-linecap="round"/>
<path d="M391.497 18.602C392.946 23.0098 394.404 27.4562 394.857 32.0552C395.31 36.6543 394.686 41.4777 392.206 45.4441C389.726 49.4106 385.176 52.362 380.336 52.2701" stroke="#F3E2A2" stroke-miterlimit="10" stroke-linecap="round"/>
<path d="M755 147.151C725.905 126.422 688.273 103.368 643.531 85.3467C559.558 134.238 450.715 152.865 379.095 67.9402C312.638 85.7794 257.337 117.629 216 147.151C395.667 147.151 575.333 147.151 755 147.151Z" fill="#7E9CE9"/>
<path d="M351.66 90.9779C351.66 95.6343 353.581 99.4086 355.951 99.4086C358.32 99.4086 360.241 95.6343 360.241 90.9779C360.241 86.3215 358.32 82.5472 355.951 82.5472C353.581 82.5472 351.66 86.3215 351.66 90.9779Z" fill="#A0B9F8"/>
<path d="M344.262 98.8287C345.788 98.8287 347.025 96.3986 347.025 93.401C347.025 90.4034 345.788 87.9734 344.262 87.9734C342.737 87.9734 341.5 90.4034 341.5 93.401C341.5 96.3986 342.737 98.8287 344.262 98.8287Z" fill="#A0B9F8"/>
<path d="M643.53 85.62C590.772 64.3694 528.125 50.1163 457.896 54.9412C430.168 56.8466 403.862 61.5637 379.094 68.212C450.714 153.137 559.556 134.511 643.53 85.62Z" fill="#A0B9F8"/>
<path d="M431.755 90.9776C431.755 96.4903 429.481 100.958 426.675 100.958C423.869 100.958 421.595 96.4888 421.595 90.9776C421.595 85.4649 423.87 80.9968 426.675 80.9968C429.481 80.9968 431.755 85.4649 431.755 90.9776Z" fill="#7E9CE9"/>
</g>
</svg>
