<svg width="1440" height="252" viewBox="0 0 1440 252" fill="none" xmlns="http://www.w3.org/2000/svg">
<path d="M131.315 137.038C124.497 99.6105 129.202 61.0605 122.306 24.0292C88.2003 -3.80111 94.6814 73.0714 94.6141 85.0173C94.3244 76.9429 82.5999 48.4994 70.4629 67.3888C63.0923 91.8546 74.8636 118.517 72.2887 143.655" fill="#A0B9F8"/>
<path d="M79.3604 65.8485L83.6762 141.779" stroke="#F3E2A2" stroke-miterlimit="10" stroke-linecap="round"/>
<path d="M110.555 18.5827L117.551 137.654" stroke="#F3E2A2" stroke-miterlimit="10" stroke-linecap="round"/>
<path d="M94.5176 85.0672L97.8708 134.738" stroke="#F3E2A2" stroke-miterlimit="10" stroke-linecap="round"/>
<path d="M1363 181.28C1363 177.688 1363.13 174.553 1363.93 170.959C1364.81 166.979 1365.78 163.012 1366.86 159.058C1368.98 151.264 1371.48 143.525 1374.35 135.864C1376.14 131.063 1378.21 126.12 1382.7 122.43C1387.18 118.741 1394.77 116.682 1400.71 118.942C1404.13 120.24 1406.5 122.757 1407.76 125.465C1409.02 128.171 1409.27 131.079 1409.33 133.943C1409.52 142.483 1408.08 151.04 1405.09 159.284C1406.8 156.004 1409.54 152.349 1414.22 151.924C1418.33 151.549 1422.11 154.05 1423.54 156.95C1424.97 159.851 1424.6 163.049 1424.21 166.125C1422.87 176.722 1421.54 187.318 1420.2 197.912" fill="#A0B9F8"/>
<path d="M1396.91 119.783C1386.93 142.238 1380.25 165.515 1377.04 189.055" stroke="#F3E2A2" stroke-miterlimit="10" stroke-linecap="round"/>
<path d="M1417.2 153.016C1415.09 165.632 1411.99 178.156 1407.91 190.498" stroke="#F3E2A2" stroke-miterlimit="10" stroke-linecap="round"/>
<path d="M939 212C882.159 185.035 808.641 155.045 721.233 131.601C557.18 195.203 344.544 219.434 204.625 108.958C74.7935 132.164 -33.2425 173.596 -114 212C237 212 588 212 939 212Z" fill="#7E9CE9"/>
<path d="M151.033 138.571C151.033 144.629 154.786 149.538 159.415 149.538C164.045 149.538 167.798 144.629 167.798 138.571C167.798 132.514 164.045 127.604 159.415 127.604C154.786 127.604 151.033 132.514 151.033 138.571Z" fill="#A0B9F8"/>
<path d="M136.581 148.784C139.562 148.784 141.978 145.623 141.978 141.723C141.978 137.824 139.562 134.663 136.581 134.663C133.601 134.663 131.185 137.824 131.185 141.723C131.185 145.623 133.601 148.784 136.581 148.784Z" fill="#A0B9F8"/>
<path d="M771.645 169.826C769.641 175.287 771.399 181.838 775.572 184.461C779.745 187.083 784.752 184.782 786.757 179.324C788.762 173.863 787.003 167.312 782.831 164.689C778.657 162.064 773.65 164.365 771.645 169.826Z" fill="#A0B9F8"/>
<path d="M752.71 161.422C751.419 164.937 752.551 169.154 755.237 170.843C757.922 172.531 761.146 171.05 762.437 167.537C763.728 164.021 762.596 159.804 759.91 158.116C757.225 156.427 754 157.906 752.71 161.422Z" fill="#A0B9F8"/>
<path d="M721.233 131.601C618.163 103.957 495.776 85.4153 358.575 91.6919C304.406 94.1705 253.013 100.307 204.625 108.955C344.544 219.432 557.18 195.203 721.233 131.601Z" fill="#A0B9F8"/>
<path d="M307.508 138.571C307.508 145.742 303.065 151.555 297.584 151.555C292.103 151.555 287.661 145.74 287.661 138.571C287.661 131.4 292.105 125.587 297.584 125.587C303.065 125.587 307.508 131.4 307.508 138.571Z" fill="#7E9CE9"/>
<path d="M570.357 120.446C570.357 127.618 565.913 133.432 560.431 133.432C554.95 133.432 550.508 127.618 550.508 120.446C550.508 113.275 554.952 107.462 560.431 107.462C565.914 107.461 570.357 113.275 570.357 120.446Z" fill="#7E9CE9"/>
<path d="M469.38 163.154C469.38 170.325 464.936 176.138 459.457 176.138C453.976 176.138 449.533 170.325 449.533 163.154C449.533 155.983 453.976 150.168 459.457 150.168C464.936 150.168 469.38 155.983 469.38 163.154Z" fill="#7E9CE9"/>
<path d="M484.026 176.456C487.219 176.456 489.807 173.069 489.807 168.891C489.807 164.714 487.219 161.327 484.026 161.327C480.833 161.327 478.245 164.714 478.245 168.891C478.245 173.069 480.833 176.456 484.026 176.456Z" fill="#7E9CE9"/>
<path d="M326.393 152.06C326.393 156.516 323.632 160.128 320.227 160.128C316.821 160.128 314.061 156.516 314.061 152.06C314.061 147.605 316.821 143.992 320.227 143.992C323.632 143.992 326.393 147.605 326.393 152.06Z" fill="#7E9CE9"/>
<path d="M586.522 132.044C589.927 132.044 592.688 128.431 592.688 123.976C592.688 119.52 589.927 115.908 586.522 115.908C583.116 115.908 580.355 119.52 580.355 123.976C580.355 128.431 583.116 132.044 586.522 132.044Z" fill="#7E9CE9"/>
<path d="M853 172.648C855.048 148.348 857.093 124.049 859.142 99.7492C859.861 91.2066 860.754 82.2244 866.439 75.1133C869.175 71.6879 873.567 68.6726 878.459 69.0287C884.759 69.4878 888.545 75.0225 890.69 80.0145C895.72 91.7223 897.803 104.316 896.77 116.731C896.603 118.725 896.744 121.274 898.965 121.994C901.738 122.892 903.965 119.911 904.679 117.488C906.593 110.968 907.07 104.157 906.078 97.4951C905.598 94.2539 905.054 90.3595 908.07 88.2944C910.162 86.8629 913.331 86.993 915.701 88.0808C918.071 89.171 919.777 91.0421 921.226 92.9549C925.135 98.1237 927.663 104.022 928.573 110.097C929.693 117.571 928.213 125.561 922.905 131.639C917.597 137.714 908.044 141.414 899.351 139.538C902.324 152.591 903.316 165.959 902.291 179.221" fill="#A0B9F8"/>
<path d="M1554 251.914C1503.74 228.123 1438.74 201.662 1361.46 180.978C1216.42 237.093 1028.42 258.473 904.71 161C789.92 181.475 694.401 218.03 623 251.914C933.333 251.914 1243.67 251.914 1554 251.914Z" fill="#7E9CE9"/>
<path d="M857.326 187.441C857.326 192.786 860.644 197.118 864.738 197.118C868.831 197.118 872.149 192.786 872.149 187.441C872.149 182.097 868.831 177.765 864.738 177.765C860.644 177.765 857.326 182.097 857.326 187.441Z" fill="#A0B9F8"/>
<path d="M844.549 196.452C847.184 196.452 849.32 193.663 849.32 190.222C849.32 186.782 847.184 183.993 844.549 183.993C841.914 183.993 839.778 186.782 839.778 190.222C839.778 193.663 841.914 196.452 844.549 196.452Z" fill="#A0B9F8"/>
<path d="M1406.03 215.017C1404.26 219.835 1405.82 225.615 1409.51 227.929C1413.2 230.243 1417.62 228.213 1419.4 223.397C1421.17 218.579 1419.61 212.799 1415.92 210.485C1412.23 208.169 1407.81 210.199 1406.03 215.017Z" fill="#A0B9F8"/>
<path d="M1389.29 207.602C1388.15 210.704 1389.15 214.425 1391.53 215.914C1393.9 217.404 1396.75 216.097 1397.89 212.997C1399.03 209.896 1398.03 206.175 1395.66 204.685C1393.29 203.196 1390.43 204.501 1389.29 207.602Z" fill="#A0B9F8"/>
<path d="M1361.46 181.292C1270.34 156.901 1162.13 140.542 1040.82 146.08C992.93 148.267 947.491 153.681 904.71 161.312C1028.42 258.784 1216.42 237.407 1361.46 181.292Z" fill="#A0B9F8"/>
<path d="M995.672 187.441C995.672 193.768 991.744 198.897 986.898 198.897C982.052 198.897 978.125 193.767 978.125 187.441C978.125 181.114 982.054 175.986 986.898 175.986C991.744 175.986 995.672 181.114 995.672 187.441Z" fill="#7E9CE9"/>
<path d="M1228.07 171.45C1228.07 177.777 1224.14 182.907 1219.29 182.907C1214.45 182.907 1210.52 177.777 1210.52 171.45C1210.52 165.123 1214.45 159.995 1219.29 159.995C1224.14 159.993 1228.07 165.123 1228.07 171.45Z" fill="#7E9CE9"/>
<path d="M1138.79 209.131C1138.79 215.458 1134.86 220.586 1130.02 220.586C1125.17 220.586 1121.24 215.458 1121.24 209.131C1121.24 202.804 1125.17 197.673 1130.02 197.673C1134.86 197.673 1138.79 202.804 1138.79 209.131Z" fill="#7E9CE9"/>
<path d="M1151.74 220.867C1154.56 220.867 1156.85 217.879 1156.85 214.193C1156.85 210.507 1154.56 207.519 1151.74 207.519C1148.92 207.519 1146.63 210.507 1146.63 214.193C1146.63 217.879 1148.92 220.867 1151.74 220.867Z" fill="#7E9CE9"/>
<path d="M1012.37 199.343C1012.37 203.274 1009.93 206.461 1006.92 206.461C1003.91 206.461 1001.47 203.274 1001.47 199.343C1001.47 195.412 1003.91 192.225 1006.92 192.225C1009.93 192.225 1012.37 195.412 1012.37 199.343Z" fill="#7E9CE9"/>
<path d="M1242.36 181.682C1245.37 181.682 1247.81 178.495 1247.81 174.564C1247.81 170.633 1245.37 167.446 1242.36 167.446C1239.35 167.446 1236.91 170.633 1236.91 174.564C1236.91 178.495 1239.35 181.682 1242.36 181.682Z" fill="#7E9CE9"/>
<path d="M0 204H765V252H0V204Z" fill="#7E9CE9"/>
<mask id="mask0_312_23081" style="mask-type:alpha" maskUnits="userSpaceOnUse" x="0" y="0" width="1440" height="252">
<rect width="1440" height="252" fill="#D9D9D9"/>
</mask>
<g mask="url(#mask0_312_23081)">
</g>
</svg>
