<svg width="1440" height="194" viewBox="0 0 1440 194" fill="none" xmlns="http://www.w3.org/2000/svg">
<mask id="mask0_383_6188" style="mask-type:alpha" maskUnits="userSpaceOnUse" x="0" y="0" width="1440" height="194">
<path d="M0 0H1440V194H0V0Z" fill="#211F2F"/>
</mask>
<g mask="url(#mask0_383_6188)">
<path d="M1585.1 105.995C1576.44 127.116 1567.77 148.236 1559.11 169.357C1556.06 141.412 1534.3 115.686 1499.46 95.7368C1497.07 68.6601 1465.65 44.3157 1419.2 31.6628C1421.25 19.2073 1402.64 7.5444 1376.11 5.36531C1349.42 3.17104 1325.02 11.4371 1320.23 23.783C1269.58 28.5257 1225.89 46.2806 1208.1 71.7871C1208.1 71.7871 1208.1 71.7871 1208.11 71.7871C1164.1 85.3879 1129.78 106.614 1111.88 132.532C1116.17 106.683 1118.31 93.7602 1122.6 67.9113C1091.69 66.4389 1076.23 65.7912 1045.28 64.6696C1041.74 92.7313 1038.19 120.795 1034.65 148.856C1017.95 148.251 1009.6 147.976 992.882 147.477C994.809 128.919 995.772 119.639 997.702 101.082C971.57 100.302 958.5 99.977 932.353 99.4524C933.369 84.8802 933.879 77.594 934.896 63.0218C918.514 62.6929 910.323 62.5546 893.938 62.3235C894.548 49.8663 894.854 43.6377 895.461 31.1804C877.351 30.9258 868.297 30.828 850.183 30.6914C850.505 18.4955 850.662 12.3985 850.983 0.20266C826.835 0.0205065 814.762 -0.0183323 790.611 0.00696674C790.655 12.2028 790.677 18.3015 790.721 30.4974C772.607 30.5159 763.55 30.5547 745.44 30.6914C745.767 43.152 745.931 49.3823 746.259 61.8429C729.87 61.966 721.676 62.0537 705.29 62.2746C705.98 76.852 706.323 84.1415 707.009 98.7205C680.856 99.0746 667.779 99.3158 641.638 99.9247C643.146 118.494 643.898 127.777 645.406 146.347C630.066 146.704 622.394 146.905 607.06 147.352C604.718 124.298 603.547 112.772 601.205 89.719C587.543 90.1171 580.715 90.3346 567.059 90.8018C563.36 64.6882 521.523 44.0779 471.492 41.8904C472.257 40.7064 472.587 39.4381 472.373 38.1326C471.485 32.7136 461.667 28.745 450.45 29.3066C439.234 29.8683 430.952 34.7392 431.95 40.1532C432.189 41.4485 432.948 42.6544 434.093 43.7372C385.573 50.826 351.603 75.2834 357.005 101.299C343.409 102.193 336.612 102.659 323.032 103.622C319.579 89.6432 317.85 82.6539 314.397 68.6753C309.961 68.9907 307.742 69.1492 303.31 69.4714C301.408 61.9559 300.458 58.1982 298.559 50.6844C291.36 51.2072 287.759 51.4736 280.562 52.015C278.762 45.1506 277.861 41.7183 276.064 34.8539C262.521 35.8726 255.753 36.3988 242.226 37.485C244.143 44.341 245.1 47.7682 247.017 54.6226C240.554 55.142 237.321 55.4051 230.862 55.9381C233.021 63.4334 234.098 67.181 236.257 74.6746C231.113 75.0996 228.542 75.3155 223.401 75.7489C226.936 87.7457 228.705 93.745 232.24 105.742C225.472 106.315 222.088 106.605 215.32 107.196C178.715 94.2408 160.104 87.8857 122.287 75.4369C93.3853 94.2729 79.3011 103.77 51.8695 122.895C53.094 123.006 53.7079 123.061 54.9325 123.173C53.2829 123.358 52.4581 123.451 50.8055 123.637C46.4203 124.131 44.2293 124.38 39.8473 124.881C35.1095 113.004 32.7391 107.066 28.0013 95.1887C23.6099 95.6913 21.4157 95.9443 17.0274 96.4553C14.0274 89.0444 12.5258 85.3389 9.52572 77.928C2.40179 78.7561 -1.16174 79.1744 -8.27937 80.0211C-11.0842 73.2544 -12.4851 69.8711 -15.29 63.1045C-28.6879 64.6983 -35.3805 65.5112 -48.7564 67.1725C-45.835 73.9257 -44.3775 77.3023 -41.4562 84.0554C-47.8466 84.8481 -51.0418 85.2496 -57.4291 86.0574C-54.1741 93.438 -52.5466 97.1283 -49.2915 104.509C-54.3755 105.153 -56.916 105.477 -62 106.13C-39.8412 155.578 -17.6856 205.025 4.47318 254.475C37.6185 250.211 54.2305 248.192 87.5174 244.38C147.559 237.821 207.374 231.869 267.81 226.445C301.349 223.608 318.146 222.301 351.776 219.916C437.717 214.3 523.386 209.994 609.78 206.953C611.115 206.914 611.782 206.894 613.117 206.855C751.638 203.541 888.737 204.023 1027.16 208.309C1217.9 216.307 1404.86 231.613 1591.33 254.475C1612.24 207.812 1633.15 161.147 1654.06 114.483C1626.51 110.947 1612.72 109.248 1585.1 105.995Z" fill="#28253F"/>
<path d="M50.4502 122.773C50.5856 123.121 50.6548 123.295 50.7902 123.644C51.2152 123.347 51.4292 123.198 51.8542 122.902C51.2939 122.849 51.0137 122.824 50.4502 122.773Z" fill="#28253F"/>
</g>
</svg>
