<svg width="430" height="127" viewBox="0 0 430 127" fill="none" xmlns="http://www.w3.org/2000/svg">
<mask id="mask0_383_15276" style="mask-type:alpha" maskUnits="userSpaceOnUse" x="0" y="0" width="430" height="127">
<rect width="430" height="127" fill="#D9D9D9"/>
</mask>
<g mask="url(#mask0_383_15276)">
<path d="M540.488 67.9049C536.756 81.3558 533.024 94.8056 529.293 108.256C527.979 90.4598 518.607 74.0767 503.601 61.3723C502.567 44.1288 489.034 28.6253 469.028 20.5674C469.909 12.6353 461.891 5.20789 450.467 3.82016C438.967 2.42276 428.458 7.68691 426.394 15.5493C404.577 18.5696 385.76 29.8766 378.093 46.1201C378.095 46.1201 378.096 46.1201 378.099 46.1201C359.142 54.7816 344.36 68.2991 336.648 84.8047C338.495 68.3431 339.419 60.1134 341.267 43.6519C327.952 42.7142 321.29 42.3017 307.96 41.5875C306.434 59.4582 304.908 77.3301 303.383 95.2009C296.188 94.8152 292.589 94.6402 285.39 94.3223C286.22 82.504 286.635 76.5943 287.466 64.7761C276.21 64.2798 270.58 64.0725 259.317 63.7385C259.755 54.4583 259.975 49.8182 260.413 40.5381C253.356 40.3286 249.828 40.2405 242.77 40.0934C243.033 32.1601 243.164 28.1935 243.426 20.2602C235.625 20.0981 231.725 20.0358 223.923 19.9488C224.061 12.182 224.129 8.29916 224.267 0.532382C213.865 0.41638 208.665 0.391646 198.262 0.407757C198.281 8.17453 198.29 12.0585 198.309 19.8252C190.507 19.837 186.606 19.8618 178.805 19.9488C178.946 27.8842 179.016 31.8519 179.157 39.7873C172.098 39.8657 168.568 39.9215 161.51 40.0622C161.807 49.3456 161.955 53.9879 162.251 63.2724C150.985 63.4979 145.352 63.6515 134.092 64.0392C134.741 75.865 135.065 81.7768 135.715 93.6026C129.107 93.8303 125.803 93.9581 119.198 94.2428C118.189 79.561 117.684 72.2206 116.675 57.5399C110.79 57.7934 107.849 57.9319 101.967 58.2295C100.374 41.5993 82.3523 28.4738 60.8013 27.0807C61.1309 26.3267 61.2732 25.519 61.181 24.6877C60.7986 21.2366 56.5693 18.7093 51.7378 19.0669C46.9064 19.4246 43.3388 22.5266 43.7686 25.9744C43.8717 26.7993 44.1985 27.5673 44.6921 28.2569C23.792 32.7713 9.15942 48.3467 11.4863 64.9146C5.62976 65.4839 2.70216 65.7804 -3.14761 66.3937C-4.63515 57.4916 -5.37959 53.0405 -6.86713 44.1384C-8.77773 44.3393 -9.73372 44.4403 -11.643 44.6454C-12.462 39.8592 -12.8715 37.4662 -13.6892 32.6811C-16.7903 33.0141 -18.3416 33.1837 -21.4414 33.5285C-22.217 29.157 -22.6049 26.9712 -23.3791 22.5996C-29.2126 23.2484 -32.1281 23.5835 -37.9548 24.2752C-37.129 28.6414 -36.7168 30.824 -35.8909 35.1891C-38.6748 35.5199 -40.0674 35.6875 -42.85 36.0269C-41.9197 40.8002 -41.456 43.1868 -40.5258 47.959C-42.7415 48.2297 -43.8493 48.3672 -46.0637 48.6432C-44.5409 56.2832 -43.7788 60.1038 -42.256 67.7438C-45.1714 68.109 -46.6291 68.2937 -49.5445 68.6697C-65.3121 60.4196 -73.3288 56.3724 -89.6184 48.4445C-102.068 60.44 -108.135 66.4882 -119.951 78.6673C-119.423 78.7382 -119.159 78.7737 -118.631 78.8446C-119.342 78.9627 -119.697 79.0218 -120.409 79.1399C-122.298 79.4547 -123.242 79.6136 -125.129 79.9326C-127.17 72.3688 -128.191 68.587 -130.232 61.0232C-132.124 61.3433 -133.069 61.5044 -134.959 61.8298C-136.251 57.1103 -136.898 54.7505 -138.19 50.0309C-141.259 50.5583 -142.794 50.8247 -145.86 51.3639C-147.068 47.0546 -147.671 44.9 -148.88 40.5907C-154.651 41.6057 -157.534 42.1234 -163.295 43.1814C-162.037 47.4821 -161.409 49.6324 -160.151 53.9331C-162.903 54.4379 -164.28 54.6936 -167.031 55.2081C-165.629 59.9083 -164.928 62.2584 -163.526 66.9586C-165.716 67.3689 -166.81 67.5752 -169 67.9909C-159.455 99.4811 -149.912 130.971 -140.367 162.463C-126.089 159.747 -118.934 158.462 -104.595 156.034C-78.7324 151.857 -52.9671 148.067 -26.9346 144.612C-12.4877 142.806 -5.25212 141.973 9.23404 140.455C46.2528 136.878 83.155 134.136 120.369 132.199C120.944 132.174 121.232 132.161 121.806 132.137C181.475 130.026 240.53 130.333 300.157 133.063C382.314 138.156 462.849 147.903 543.17 162.463C552.176 132.746 561.184 103.028 570.191 73.3108C558.326 71.0585 552.385 69.9768 540.488 67.9049Z" fill="#28253F"/>
</g>
</svg>
