<svg width="1440" height="266" viewBox="0 0 1440 266" fill="none" xmlns="http://www.w3.org/2000/svg">
<path d="M1309.74 177.983C1309.74 173.817 1309.87 170.181 1310.66 166.012C1311.54 161.396 1312.51 156.795 1313.58 152.209C1315.69 143.168 1318.17 134.193 1321.02 125.308C1322.8 119.739 1324.86 114.005 1329.32 109.726C1333.77 105.447 1341.31 103.059 1347.22 105.68C1350.62 107.185 1352.98 110.105 1354.23 113.246C1355.48 116.385 1355.73 119.757 1355.79 123.079C1355.97 132.984 1354.54 142.91 1351.57 152.471C1353.27 148.666 1356 144.427 1360.65 143.935C1364.72 143.5 1368.49 146.4 1369.9 149.765C1371.32 153.129 1370.96 156.838 1370.57 160.406C1369.24 172.696 1367.92 184.986 1366.59 197.274" fill="#6A9B57"/>
<path d="M1343.44 106.656C1333.52 132.7 1326.89 159.698 1323.7 187.002" stroke="#F3E2A2" stroke-miterlimit="10" stroke-linecap="round"/>
<path d="M1363.6 145.202C1361.51 159.834 1358.43 174.36 1354.37 188.676" stroke="#F3E2A2" stroke-miterlimit="10" stroke-linecap="round"/>
<path d="M126.104 185.86C124.514 170.862 109.987 141.691 108.645 126.674C108.069 120.227 109.074 113.382 113.412 108.14C117.749 102.898 126.04 99.8177 132.898 102.273C138.254 104.19 141.61 108.859 143.856 113.515C144.945 115.774 145.892 118.146 147.695 120.026C149.498 121.905 152.43 123.212 155.123 122.513C158.51 121.634 160.016 117.975 159.414 114.937C158.812 111.899 156.707 109.283 154.976 106.595C152.637 102.966 150.878 98.8428 151.439 94.7092C152.001 90.5757 155.434 86.5302 160.157 85.9321C163.558 85.5025 167.003 86.897 169.491 88.965C171.976 91.0355 173.658 93.7217 175.202 96.4029C178.756 102.569 181.858 109.153 181.999 116.053C182.14 122.953 178.779 130.26 171.95 133.738C168.382 135.555 163.434 136.979 163.069 140.573C162.884 142.384 164.059 144.063 165.188 145.591C170.142 152.297 175.098 159.006 180.052 165.713" fill="#6A9B57"/>
<path d="M159.285 86.917C161.546 87.701 162.848 89.7262 163.974 91.6083C167.28 97.1465 170.632 102.795 171.876 108.944C173.121 115.093 171.943 121.938 167.104 126.536C163.055 130.383 157.102 132.152 151.408 133.765" stroke="#F3E2A2" stroke-miterlimit="10" stroke-linecap="round"/>
<path d="M124.599 104.223C136.908 122.905 146.697 142.852 153.701 163.517" stroke="#F3E2A2" stroke-miterlimit="10" stroke-linecap="round"/>
<path d="M117.133 107.904C120.191 129.313 126.231 150.397 135.078 170.545" stroke="#F3E2A2" stroke-miterlimit="10" stroke-linecap="round"/>
<path d="M504.191 137.067C497.48 93.6564 502.111 48.944 495.323 5.99305C461.754 -26.2861 468.133 62.8748 468.067 76.7303C467.782 67.3652 456.242 34.3749 444.295 56.2838C437.041 84.6607 448.627 115.585 446.092 144.741" fill="#6A9B57"/>
<path d="M453.053 54.4976L457.301 142.565" stroke="#F3E2A2" stroke-miterlimit="10" stroke-linecap="round"/>
<path d="M483.757 -0.32373L490.643 137.781" stroke="#F3E2A2" stroke-miterlimit="10" stroke-linecap="round"/>
<path d="M467.972 76.7883L471.272 134.399" stroke="#F3E2A2" stroke-miterlimit="10" stroke-linecap="round"/>
<path d="M677.765 136.066C679.781 111.2 681.794 86.3331 683.81 61.4667C684.518 52.7247 685.397 43.533 690.993 36.256C693.685 32.7507 698.008 29.665 702.824 30.0293C709.024 30.4992 712.751 36.163 714.862 41.2715C719.813 53.2524 721.863 66.1405 720.847 78.8451C720.682 80.8855 720.821 83.4938 723.007 84.23C725.737 85.1497 727.929 82.0991 728.631 79.619C730.515 72.9476 730.984 65.9771 730.008 59.1599C729.536 55.8431 729 51.8579 731.969 49.7446C734.028 48.2797 737.147 48.4128 739.48 49.526C741.813 50.6417 743.492 52.5564 744.918 54.5138C748.765 59.8032 751.254 65.839 752.149 72.0556C753.252 79.7045 751.795 87.881 746.571 94.1002C741.346 100.317 731.943 104.104 723.387 102.184C726.313 115.542 727.289 129.221 726.281 142.793" fill="#6A9B57"/>
<path d="M701.449 31.5771C698.086 67.7285 696.89 104.036 697.872 140.298" stroke="#F3E2A2" stroke-miterlimit="10" stroke-linecap="round"/>
<path d="M736.795 49.9529C738.961 55.976 741.141 62.0519 741.818 68.3364C742.495 74.6209 741.562 81.2119 737.855 86.632C734.149 92.052 727.349 96.0851 720.114 95.9594" stroke="#F3E2A2" stroke-miterlimit="10" stroke-linecap="round"/>
<path d="M1374.02 191.233C1193.71 152.514 963.591 119.892 696.286 121.923C484.534 123.531 297.113 146.527 140.346 176.209C299.509 212.798 502.186 245.227 738.199 249.568C990.573 254.208 1206.9 225.37 1374.02 191.233Z" fill="#E4BD58"/>
<path d="M1374.02 191.234C1206.9 225.368 990.573 254.208 738.199 249.565C502.183 245.225 299.508 212.795 140.345 176.206C90.3859 185.667 43.5168 195.797 0 206.14V266H1440C1440 245.871 1440 226.006 1440 206.14C1418.83 201.11 1396.8 196.126 1374.02 191.234Z" fill="#E4944E"/>
</svg>
