<svg width="1440" height="267" viewBox="0 0 1440 267" fill="none" xmlns="http://www.w3.org/2000/svg">
<path d="M1309.74 178.983C1309.74 174.817 1309.87 171.181 1310.66 167.012C1311.54 162.396 1312.51 157.796 1313.58 153.21C1315.69 144.169 1318.17 135.193 1321.02 126.308C1322.8 120.74 1324.86 115.005 1329.32 110.726C1333.77 106.447 1341.31 104.06 1347.22 106.681C1350.62 108.186 1352.98 111.106 1354.23 114.247C1355.48 117.385 1355.73 120.757 1355.79 124.079C1355.97 133.984 1354.54 143.91 1351.57 153.471C1353.27 149.667 1356 145.428 1360.65 144.935C1364.72 144.5 1368.49 147.4 1369.9 150.765C1371.32 154.129 1370.96 157.838 1370.57 161.406C1369.24 173.696 1367.92 185.986 1366.59 198.274" fill="#A0B9F8"/>
<path d="M1343.44 107.656C1333.52 133.701 1326.89 160.698 1323.7 188.002" stroke="#F3E2A2" stroke-miterlimit="10" stroke-linecap="round"/>
<path d="M1363.6 146.202C1361.51 160.834 1358.43 175.361 1354.37 189.676" stroke="#F3E2A2" stroke-miterlimit="10" stroke-linecap="round"/>
<path d="M126.104 186.861C124.514 171.862 109.987 142.691 108.645 127.675C108.069 121.227 109.074 114.382 113.412 109.14C117.749 103.899 126.04 100.818 132.898 103.273C138.254 105.19 141.61 109.859 143.856 114.515C144.945 116.774 145.892 119.146 147.695 121.026C149.498 122.905 152.43 124.212 155.123 123.513C158.51 122.634 160.016 118.975 159.414 115.937C158.812 112.899 156.707 110.284 154.976 107.595C152.637 103.967 150.878 99.843 151.439 95.7095C152.001 91.576 155.434 87.5304 160.157 86.9324C163.558 86.5027 167.003 87.8972 169.491 89.9652C171.976 92.0358 173.658 94.722 175.202 97.4031C178.756 103.569 181.858 110.153 181.999 117.053C182.14 123.953 178.779 131.26 171.95 134.738C168.382 136.555 163.434 137.98 163.069 141.573C162.884 143.385 164.059 145.063 165.188 146.591C170.142 153.297 175.098 160.007 180.052 166.713" fill="#A0B9F8"/>
<path d="M159.285 87.917C161.546 88.701 162.848 90.7262 163.974 92.6083C167.28 98.1465 170.632 103.795 171.876 109.944C173.121 116.093 171.943 122.938 167.104 127.536C163.055 131.383 157.102 133.152 151.408 134.765" stroke="#F3E2A2" stroke-miterlimit="10" stroke-linecap="round"/>
<path d="M124.599 105.223C136.908 123.905 146.697 143.852 153.701 164.517" stroke="#F3E2A2" stroke-miterlimit="10" stroke-linecap="round"/>
<path d="M117.133 108.904C120.191 130.313 126.231 151.398 135.078 171.545" stroke="#F3E2A2" stroke-miterlimit="10" stroke-linecap="round"/>
<path d="M504.191 138.067C497.48 94.6564 502.111 49.944 495.323 6.99305C461.754 -25.2861 468.133 63.8748 468.067 77.7303C467.782 68.3652 456.242 35.3749 444.295 57.2838C437.041 85.6607 448.627 116.585 446.092 145.741" fill="#A0B9F8"/>
<path d="M453.053 55.4976L457.301 143.565" stroke="#F3E2A2" stroke-miterlimit="10" stroke-linecap="round"/>
<path d="M483.757 0.67627L490.643 138.781" stroke="#F3E2A2" stroke-miterlimit="10" stroke-linecap="round"/>
<path d="M467.971 77.7881L471.272 135.399" stroke="#F3E2A2" stroke-miterlimit="10" stroke-linecap="round"/>
<path d="M677.765 137.066C679.781 112.2 681.794 87.3331 683.81 62.4667C684.518 53.7247 685.397 44.533 690.993 37.256C693.685 33.7507 698.008 30.665 702.824 31.0293C709.024 31.4992 712.751 37.163 714.862 42.2715C719.813 54.2524 721.863 67.1405 720.847 79.8451C720.682 81.8855 720.821 84.4938 723.007 85.23C725.737 86.1497 727.929 83.0991 728.631 80.619C730.515 73.9476 730.984 66.9771 730.008 60.1599C729.536 56.8431 729 52.8579 731.969 50.7446C734.028 49.2797 737.147 49.4128 739.48 50.526C741.813 51.6417 743.492 53.5564 744.918 55.5138C748.765 60.8032 751.254 66.839 752.149 73.0556C753.252 80.7045 751.795 88.881 746.571 95.1001C741.346 101.317 731.943 105.104 723.387 103.184C726.313 116.542 727.289 130.221 726.281 143.793" fill="#A0B9F8"/>
<path d="M701.449 32.5771C698.086 68.7285 696.89 105.036 697.872 141.298" stroke="#F3E2A2" stroke-miterlimit="10" stroke-linecap="round"/>
<path d="M736.795 50.9531C738.961 56.9763 741.141 63.0522 741.818 69.3366C742.495 75.6211 741.562 82.2121 737.855 87.6322C734.149 93.0523 727.349 97.0853 720.114 96.9597" stroke="#F3E2A2" stroke-miterlimit="10" stroke-linecap="round"/>
<path d="M1374.02 192.233C1193.71 153.514 963.591 120.892 696.286 122.923C484.534 124.531 297.112 147.527 140.345 177.209C299.509 213.797 502.186 246.227 738.199 250.568C990.573 255.208 1206.9 226.37 1374.02 192.233Z" fill="#A0B9F8"/>
<path d="M1374.02 192.234C1206.9 226.368 990.573 255.208 738.199 250.565C502.183 246.225 299.508 213.795 140.345 177.206C90.3859 186.667 43.5168 196.797 0 207.14V267H1440C1440 246.871 1440 227.006 1440 207.14C1418.83 202.11 1396.8 197.126 1374.02 192.234Z" fill="#7E9CE9"/>
</svg>
