<svg width="430" height="153" viewBox="0 0 430 153" fill="none" xmlns="http://www.w3.org/2000/svg">
<mask id="mask0_474_2938" style="mask-type:alpha" maskUnits="userSpaceOnUse" x="0" y="0" width="430" height="153">
<rect width="430" height="153" fill="#D9D9D9"/>
</mask>
<g mask="url(#mask0_474_2938)">
<path d="M40.9135 110.249C37.5533 89.1045 39.8723 67.3263 36.4731 46.4061C19.6633 30.6838 22.8577 74.1117 22.8245 80.8603C22.6817 76.2988 16.903 60.2301 10.9209 70.9014C7.28813 84.723 13.09 99.7856 11.8209 113.987" fill="#A0B9F8"/>
<path d="M15.3086 70.0312L17.4358 112.927" stroke="#F3E2A2" stroke-miterlimit="10" stroke-linecap="round"/>
<path d="M30.6814 43.3291L34.1296 110.596" stroke="#F3E2A2" stroke-miterlimit="10" stroke-linecap="round"/>
<path d="M22.7773 80.8887L24.4301 108.949" stroke="#F3E2A2" stroke-miterlimit="10" stroke-linecap="round"/>
<path d="M439 152.597C410.984 137.364 374.749 120.421 331.667 107.177C250.81 143.108 146.006 156.797 77.0433 94.3853C13.0521 107.495 -40.1964 130.902 -80 152.597C93 152.597 266 152.597 439 152.597Z" fill="#7E9CE9"/>
<path d="M50.6294 111.115C50.6294 114.537 52.479 117.311 54.7609 117.311C57.0427 117.311 58.8923 114.537 58.8923 111.115C58.8923 107.693 57.0427 104.919 54.7609 104.919C52.479 104.919 50.6294 107.693 50.6294 111.115Z" fill="#A0B9F8"/>
<path d="M43.5058 116.885C44.9748 116.885 46.1656 115.099 46.1656 112.896C46.1656 110.693 44.9748 108.907 43.5058 108.907C42.0368 108.907 40.8459 110.693 40.8459 112.896C40.8459 115.099 42.0368 116.885 43.5058 116.885Z" fill="#A0B9F8"/>
<path d="M356.517 128.772C355.529 131.857 356.395 135.558 358.452 137.04C360.509 138.521 362.977 137.221 363.965 134.138C364.953 131.052 364.086 127.352 362.03 125.87C359.973 124.387 357.505 125.687 356.517 128.772Z" fill="#A0B9F8"/>
<path d="M347.184 124.024C346.548 126.01 347.106 128.393 348.429 129.347C349.753 130.301 351.342 129.464 351.978 127.479C352.614 125.493 352.056 123.111 350.733 122.157C349.409 121.203 347.82 122.038 347.184 124.024Z" fill="#A0B9F8"/>
<path d="M331.667 107.177C280.866 91.56 220.545 81.0853 152.921 84.6312C126.223 86.0314 100.892 89.4981 77.043 94.3839C146.006 156.796 250.809 143.108 331.667 107.177Z" fill="#A0B9F8"/>
<path d="M127.749 111.115C127.749 115.166 125.559 118.45 122.858 118.45C120.156 118.45 117.967 115.165 117.967 111.115C117.967 107.063 120.157 103.78 122.858 103.78C125.559 103.78 127.749 107.063 127.749 111.115Z" fill="#7E9CE9"/>
<path d="M257.302 100.875C257.302 104.927 255.112 108.212 252.411 108.212C249.709 108.212 247.52 104.927 247.52 100.875C247.52 96.8242 249.71 93.5405 252.411 93.5405C255.113 93.5394 257.302 96.8242 257.302 100.875Z" fill="#7E9CE9"/>
<path d="M207.532 125.003C207.532 129.054 205.342 132.338 202.641 132.338C199.94 132.338 197.75 129.054 197.75 125.003C197.75 120.951 199.94 117.667 202.641 117.667C205.342 117.667 207.532 120.951 207.532 125.003Z" fill="#7E9CE9"/>
<path d="M214.748 132.517C216.322 132.517 217.598 130.604 217.598 128.244C217.598 125.883 216.322 123.97 214.748 123.97C213.174 123.97 211.898 125.883 211.898 128.244C211.898 130.604 213.174 132.517 214.748 132.517Z" fill="#7E9CE9"/>
<path d="M137.057 118.736C137.057 121.253 135.696 123.293 134.018 123.293C132.339 123.293 130.979 121.253 130.979 118.736C130.979 116.218 132.339 114.178 134.018 114.178C135.696 114.178 137.057 116.218 137.057 118.736Z" fill="#7E9CE9"/>
<path d="M265.27 107.427C266.948 107.427 268.309 105.387 268.309 102.869C268.309 100.352 266.948 98.3115 265.27 98.3115C263.591 98.3115 262.23 100.352 262.23 102.869C262.23 105.387 263.591 107.427 265.27 107.427Z" fill="#7E9CE9"/>
<path d="M348 85.6203C349.349 67.4228 350.696 49.2252 352.045 31.0276C352.519 24.6302 353.106 17.9036 356.85 12.5782C358.652 10.013 361.545 7.75482 364.766 8.02146C368.915 8.36533 371.409 12.5102 372.821 16.2486C376.133 25.0164 377.505 34.448 376.825 43.7454C376.715 45.2385 376.808 47.1473 378.27 47.6861C380.097 48.3591 381.563 46.1267 382.034 44.3117C383.294 39.4295 383.608 34.3284 382.955 29.3396C382.639 26.9122 382.28 23.9958 384.267 22.4493C385.645 21.3773 387.732 21.4747 389.292 22.2893C390.853 23.1058 391.977 24.507 392.931 25.9395C395.505 29.8103 397.17 34.2273 397.769 38.7767C398.507 44.3743 397.532 50.3579 394.037 54.9092C390.541 59.4586 384.25 62.2298 378.525 60.8249C380.482 70.6003 381.136 80.6112 380.461 90.543" fill="#A0B9F8"/>
<path d="M363.844 9.1543C361.593 35.6102 360.794 62.1802 361.451 88.7171" stroke="#F3E2A2" stroke-miterlimit="10" stroke-linecap="round"/>
<path d="M387.496 22.6021C388.945 27.0098 390.404 31.4563 390.857 36.0553C391.309 40.6543 390.685 45.4777 388.205 49.4442C385.725 53.4107 381.176 56.3621 376.335 56.2701" stroke="#F3E2A2" stroke-miterlimit="10" stroke-linecap="round"/>
<path d="M751 151.151C721.905 130.422 684.273 107.368 639.531 89.3469C555.558 138.238 446.715 156.865 375.095 71.9404C308.638 89.7796 253.337 121.629 212 151.151C391.667 151.151 571.333 151.151 751 151.151Z" fill="#7E9CE9"/>
<path d="M347.66 94.9781C347.66 99.6345 349.581 103.409 351.951 103.409C354.32 103.409 356.241 99.6345 356.241 94.9781C356.241 90.3217 354.32 86.5474 351.951 86.5474C349.581 86.5474 347.66 90.3217 347.66 94.9781Z" fill="#A0B9F8"/>
<path d="M340.262 102.829C341.788 102.829 343.025 100.399 343.025 97.4013C343.025 94.4036 341.788 91.9736 340.262 91.9736C338.737 91.9736 337.5 94.4036 337.5 97.4013C337.5 100.399 338.737 102.829 340.262 102.829Z" fill="#A0B9F8"/>
<path d="M639.53 89.62C586.772 68.3694 524.125 54.1163 453.896 58.9412C426.168 60.8466 399.862 65.5637 375.094 72.212C446.714 157.137 555.556 138.511 639.53 89.62Z" fill="#A0B9F8"/>
<path d="M427.755 94.9779C427.755 100.491 425.481 104.959 422.675 104.959C419.869 104.959 417.595 100.489 417.595 94.9779C417.595 89.4652 419.87 84.9971 422.675 84.9971C425.481 84.9971 427.755 89.4652 427.755 94.9779Z" fill="#7E9CE9"/>
</g>
</svg>
