<svg width="488" height="191" viewBox="0 0 488 191" fill="none" xmlns="http://www.w3.org/2000/svg">
<mask id="mask0_418_5438" style="mask-type:alpha" maskUnits="userSpaceOnUse" x="0" y="0" width="488" height="191">
<path d="M0 0H488V191H0V0Z" fill="white"/>
</mask>
<g mask="url(#mask0_418_5438)">
<path d="M565.093 104.166C561.207 124.923 557.321 145.678 553.434 166.435C552.066 138.972 542.306 113.69 526.677 94.0848C525.6 67.4753 511.506 43.551 490.67 31.1165C491.588 18.8758 483.238 7.41421 471.34 5.27272C459.363 3.11632 448.418 11.2397 446.269 23.3726C423.547 28.0335 403.95 45.482 395.965 70.5484C395.966 70.5484 395.968 70.5484 395.971 70.5484C376.228 83.9145 360.833 104.774 352.802 130.245C354.725 104.842 355.687 92.1423 357.612 66.7394C343.745 65.2924 336.807 64.656 322.923 63.5537C321.334 91.1312 319.746 118.71 318.157 146.288C310.664 145.693 306.916 145.423 299.418 144.932C300.282 126.694 300.714 117.575 301.58 99.3375C289.857 98.5717 283.994 98.2518 272.264 97.7363C272.72 83.4155 272.949 76.2551 273.405 61.9343C266.056 61.6111 262.381 61.4752 255.03 61.2481C255.304 49.0058 255.441 42.8847 255.714 30.6424C247.589 30.3921 243.528 30.296 235.402 30.1618C235.546 18.1764 235.616 12.1845 235.76 0.199163C224.927 0.0201526 219.511 -0.018016 208.677 0.00684652C208.696 11.9922 208.706 17.9857 208.726 29.9711C200.6 29.9894 196.537 30.0275 188.413 30.1618C188.559 42.4074 188.633 48.5302 188.78 60.7758C181.428 60.8968 177.752 60.9829 170.401 61.2001C170.71 75.5258 170.864 82.6896 171.172 97.017C159.439 97.365 153.573 97.6021 141.846 98.2004C142.522 116.449 142.86 125.572 143.536 143.821C136.654 144.173 133.213 144.37 126.334 144.809C125.283 122.153 124.758 110.826 123.707 88.1709C117.578 88.5621 114.515 88.7759 108.389 89.235C106.729 63.5719 87.9609 43.3173 65.5163 41.1675C65.8595 40.004 66.0078 38.7575 65.9117 37.4746C65.5135 32.1491 61.1087 28.249 56.077 28.8009C51.0452 29.3529 47.3296 34.1397 47.7773 39.4603C47.8846 40.7333 48.225 41.9184 48.739 42.9825C26.9724 49.949 11.733 73.9844 14.1564 99.5513C8.05698 100.43 5.00799 100.887 -1.08436 101.834C-2.63358 88.0963 -3.40888 81.2276 -4.9581 67.4903C-6.94793 67.8002 -7.94355 67.956 -9.93197 68.2726C-10.785 60.8868 -11.2114 57.1939 -12.063 49.8098C-15.2928 50.3236 -16.9084 50.5854 -20.1367 51.1175C-20.9445 44.3715 -21.3484 40.9985 -22.1548 34.2525C-28.2302 35.2536 -31.2665 35.7707 -37.3348 36.8381C-36.4748 43.5759 -36.0455 46.9439 -35.1854 53.68C-38.0847 54.1905 -39.5351 54.4491 -42.433 54.9729C-41.4642 62.3388 -40.9812 66.0218 -40.0124 73.386C-42.32 73.8037 -43.4738 74.0159 -45.78 74.4418C-44.194 86.2316 -43.4004 92.1273 -41.8144 103.917C-44.8507 104.481 -46.3689 104.766 -49.4051 105.346C-65.8265 92.6146 -74.1756 86.3692 -91.1407 74.1352C-104.106 92.6462 -110.425 101.98 -122.731 120.774C-122.181 120.883 -121.906 120.938 -121.357 121.047C-122.097 121.23 -122.467 121.321 -123.208 121.503C-125.175 121.989 -126.158 122.234 -128.124 122.726C-130.25 111.054 -131.313 105.218 -133.438 93.5462C-135.408 94.0401 -136.393 94.2887 -138.361 94.7909C-139.707 87.5079 -140.381 83.8664 -141.727 76.5833C-144.923 77.3972 -146.521 77.8082 -149.714 78.6403C-150.973 71.9904 -151.601 68.6654 -152.859 62.0156C-158.87 63.5819 -161.872 64.3808 -167.873 66.0134C-166.562 72.6501 -165.908 75.9684 -164.598 82.605C-167.465 83.384 -168.898 83.7785 -171.763 84.5725C-170.303 91.8257 -169.573 95.4523 -168.113 102.706C-170.394 103.339 -171.533 103.657 -173.814 104.298C-163.873 152.893 -153.934 201.487 -143.993 250.084C-129.124 245.894 -121.672 243.91 -106.739 240.164C-79.8034 233.718 -52.9696 227.868 -25.8577 222.538C-10.8118 219.75 -3.27612 218.465 11.8107 216.122C50.3645 210.602 88.7969 206.37 127.554 203.382C128.153 203.344 128.452 203.324 129.051 203.286C191.193 200.029 252.697 200.503 314.797 204.715C400.361 212.574 484.235 227.616 567.887 250.084C577.267 204.226 586.648 158.366 596.028 112.508C583.671 109.032 577.484 107.363 565.093 104.166Z" fill="#C62B29"/>
</g>
</svg>
