<svg width="430" height="191" viewBox="0 0 430 191" fill="none" xmlns="http://www.w3.org/2000/svg">
<mask id="mask0_312_27106" style="mask-type:alpha" maskUnits="userSpaceOnUse" x="0" y="0" width="430" height="191">
<rect width="430" height="191" fill="#D9D9D9"/>
</mask>
<g mask="url(#mask0_312_27106)">
<path d="M540.488 102.124C536.756 122.354 533.024 142.581 529.293 162.811C527.979 136.046 518.607 111.406 503.601 92.2998C502.567 66.3666 489.034 43.0504 469.028 30.9319C469.909 19.0024 461.891 7.83209 450.467 5.74503C438.967 3.64343 428.458 11.5604 426.394 23.3849C404.577 27.9273 385.76 44.9323 378.093 69.3616C378.095 69.3616 378.096 69.3616 378.099 69.3616C359.142 82.3879 344.36 102.717 336.648 127.541C338.495 102.784 339.419 90.4066 341.267 65.6494C327.952 64.2392 321.29 63.6189 307.96 62.5447C306.434 89.4212 304.908 116.299 303.383 143.176C296.188 142.596 292.589 142.333 285.39 141.854C286.22 124.081 286.635 115.193 287.466 97.4189C276.21 96.6726 270.58 96.3608 259.317 95.8584C259.755 81.9016 259.975 74.9232 260.413 60.9664C253.356 60.6515 249.828 60.519 242.77 60.2977C243.033 48.3666 243.164 42.401 243.426 30.4699C235.625 30.226 231.725 30.1323 223.923 30.0015C224.061 18.3207 224.129 12.4812 224.267 0.800424C213.865 0.625964 208.665 0.588765 198.262 0.612996C198.281 12.2937 198.29 18.1349 198.309 29.8157C190.507 29.8334 186.606 29.8706 178.805 30.0015C178.946 41.9358 179.016 47.903 179.157 59.8373C172.098 59.9553 168.568 60.0392 161.51 60.2509C161.807 74.2125 161.955 81.1941 162.251 95.1574C150.985 95.4966 145.352 95.7276 134.092 96.3107C134.741 114.096 135.065 122.987 135.715 140.772C129.107 141.115 125.803 141.307 119.198 141.735C118.189 119.654 117.684 108.615 116.675 86.5362C110.79 86.9174 107.849 87.1258 101.967 87.5732C100.374 62.5624 82.3523 42.8226 60.8013 40.7275C61.1309 39.5935 61.2732 38.3787 61.181 37.1285C60.7986 31.9383 56.5693 28.1373 51.7378 28.6752C46.9064 29.2131 43.3388 33.8783 43.7686 39.0637C43.8717 40.3043 44.1985 41.4593 44.6921 42.4963C23.792 49.2857 9.15942 72.7102 11.4863 97.6273C5.62976 98.4834 2.70216 98.9293 -3.14761 99.8517C-4.63515 86.4635 -5.37959 79.7694 -6.86713 66.3812C-8.77773 66.6833 -9.73372 66.8351 -11.643 67.1436C-12.462 59.9455 -12.8715 56.3465 -13.6892 49.1501C-16.7903 49.6508 -18.3416 49.906 -21.4414 50.4245C-22.217 43.85 -22.6049 40.5627 -23.3791 33.9882C-29.2126 34.9639 -32.1281 35.4678 -37.9548 36.5081C-37.129 43.0746 -36.7168 46.3571 -35.8909 52.9219C-38.6748 53.4195 -40.0674 53.6715 -42.85 54.1819C-41.9197 61.3606 -41.456 64.95 -40.5258 72.1271C-42.7415 72.5342 -43.8493 72.7409 -46.0637 73.1561C-44.5409 84.6462 -43.7788 90.392 -42.256 101.882C-45.1714 102.431 -46.6291 102.709 -49.5445 103.275C-65.3121 90.867 -73.3288 84.7803 -89.6184 72.8572C-102.068 90.8977 -108.135 99.9938 -119.951 118.31C-119.423 118.417 -119.159 118.47 -118.631 118.577C-119.342 118.755 -119.697 118.844 -120.409 119.021C-122.298 119.495 -123.242 119.734 -125.129 120.213C-127.17 108.838 -128.191 103.15 -130.232 91.7748C-132.124 92.2562 -133.069 92.4985 -134.959 92.9879C-136.251 85.89 -136.898 82.341 -138.19 75.2431C-141.259 76.0363 -142.794 76.4369 -145.86 77.2478C-147.068 70.7669 -147.671 67.5265 -148.88 61.0456C-154.651 62.5721 -157.534 63.3507 -163.295 64.9419C-162.037 71.4098 -161.409 74.6438 -160.151 81.1117C-162.903 81.871 -164.28 82.2554 -167.031 83.0292C-165.629 90.0981 -164.928 93.6325 -163.526 100.701C-165.716 101.318 -166.81 101.629 -169 102.254C-159.455 149.613 -149.912 196.973 -140.367 244.334C-126.089 240.25 -118.934 238.316 -104.595 234.666C-78.7324 228.383 -52.9671 222.683 -26.9346 217.488C-12.4877 214.771 -5.25212 213.519 9.23404 211.235C46.2528 205.855 83.155 201.731 120.369 198.819C120.944 198.782 121.232 198.762 121.806 198.725C181.475 195.551 240.53 196.013 300.157 200.118C382.314 207.778 462.849 222.437 543.17 244.334C552.176 199.641 561.184 154.947 570.191 110.255C558.326 106.867 552.385 105.241 540.488 102.124Z" fill="#C62B29"/>
</g>
</svg>
