<svg width="1628" height="194" viewBox="0 0 1628 194" fill="none" xmlns="http://www.w3.org/2000/svg">
<mask id="mask0_459_2776" style="mask-type:alpha" maskUnits="userSpaceOnUse" x="0" y="0" width="1628" height="194">
<path d="M0 0H1628V194H0V0Z" fill="white"/>
</mask>
<g mask="url(#mask0_459_2776)">
<path d="M1792.04 105.995C1782.25 127.116 1772.46 148.236 1762.66 169.357C1759.21 141.412 1734.62 115.686 1695.23 95.7368C1692.52 68.6601 1657 44.3157 1604.49 31.6628C1606.8 19.2073 1585.76 7.5444 1555.77 5.36531C1525.59 3.17104 1498.01 11.4371 1492.59 23.783C1435.33 28.5257 1385.94 46.2806 1365.82 71.7871C1365.82 71.7871 1365.83 71.7871 1365.83 71.7871C1316.08 85.3879 1277.28 106.614 1257.04 132.532C1261.89 106.683 1264.31 93.7602 1269.16 67.9113C1234.22 66.4389 1216.73 65.7912 1181.75 64.6696C1177.74 92.7313 1173.74 120.795 1169.73 148.856C1150.85 148.251 1141.4 147.976 1122.51 147.477C1124.69 128.919 1125.78 119.639 1127.96 101.082C1098.42 100.302 1083.64 99.977 1054.08 99.4524C1055.23 84.8802 1055.8 77.594 1056.95 63.0218C1038.43 62.6929 1029.17 62.5546 1010.65 62.3235C1011.34 49.8663 1011.68 43.6377 1012.37 31.1804C991.894 30.9258 981.659 30.828 961.18 30.6914C961.543 18.4955 961.721 12.3985 962.084 0.20266C934.783 0.0205065 921.135 -0.0183323 893.83 0.00696674C893.88 12.2028 893.905 18.3015 893.955 30.4974C873.476 30.5159 863.237 30.5547 842.762 30.6914C843.132 43.152 843.317 49.3823 843.687 61.8429C825.159 61.966 815.895 62.0537 797.371 62.2746C798.15 76.8519 798.538 84.1415 799.314 98.7204C769.746 99.0746 754.962 99.3158 725.408 99.9247C727.113 118.494 727.963 127.777 729.668 146.347C712.325 146.704 703.652 146.905 686.316 147.352C683.668 124.298 682.344 112.772 679.696 89.719C664.25 90.1171 656.531 90.3347 641.092 90.8018C636.91 64.6882 589.611 44.0779 533.048 41.8904C533.913 40.7064 534.287 39.4381 534.045 38.1326C533.041 32.7136 521.941 28.745 509.26 29.3066C496.579 29.8683 487.215 34.7392 488.344 40.1532C488.614 41.4485 489.472 42.6544 490.767 43.7372C435.913 50.826 397.508 75.2834 403.615 101.299C388.244 102.193 380.56 102.659 365.206 103.622C361.302 89.6432 359.348 82.6539 355.444 68.6753C350.429 68.9907 347.92 69.1492 342.909 69.4714C340.76 61.9559 339.685 58.1982 337.539 50.6844C329.399 51.2072 325.328 51.4736 317.192 52.015C315.156 45.1506 314.138 41.7183 312.106 34.8539C296.795 35.8726 289.144 36.3988 273.851 37.485C276.018 44.341 277.1 47.7682 279.267 54.6226C271.961 55.142 268.306 55.4051 261.003 55.9381C263.444 63.4334 264.661 67.181 267.103 74.6746C261.287 75.0996 258.38 75.3155 252.568 75.7489C256.565 87.7457 258.565 93.745 262.561 105.742C254.91 106.315 251.084 106.605 243.432 107.196C202.048 94.2408 181.007 87.8857 138.253 75.4369C105.578 94.2729 89.655 103.77 58.642 122.895C60.0265 123.006 60.7205 123.061 62.1049 123.173C60.24 123.358 59.3075 123.451 57.4391 123.637C52.4814 124.131 50.0043 124.38 45.0502 124.881C39.694 113.004 37.014 107.066 31.6578 95.1887C26.693 95.6913 24.2123 95.9443 19.2511 96.4553C15.8594 89.0444 14.1618 85.3389 10.77 77.928C2.71606 78.7561 -1.31272 79.1744 -9.3596 80.0211C-12.5307 73.2544 -14.1144 69.8711 -17.2855 63.1045C-32.4325 64.6983 -39.9989 65.5112 -55.1211 67.1725C-51.8183 73.9257 -50.1705 77.3023 -46.8678 84.0554C-54.0925 84.8481 -57.7049 85.2496 -64.9261 86.0574C-61.2461 93.438 -59.4061 97.1283 -55.7261 104.509C-61.4739 105.153 -64.346 105.477 -70.0938 106.13C-45.042 155.578 -19.9939 205.025 5.05787 254.475C42.5305 250.211 61.3113 248.192 98.944 244.38C166.825 237.821 234.449 231.869 302.774 226.445C340.692 223.608 359.683 222.301 397.703 219.916C494.864 214.3 591.718 209.994 689.391 206.953C690.9 206.914 691.655 206.894 693.164 206.855C849.77 203.541 1004.77 204.023 1161.27 208.309C1376.9 216.307 1588.27 231.613 1799.08 254.475C1822.72 207.812 1846.37 161.147 1870 114.483C1838.86 110.947 1823.27 109.248 1792.04 105.995Z" fill="#C62B29"/>
<path d="M57.0371 122.773C57.1901 123.121 57.2684 123.294 57.4215 123.644C57.9019 123.347 58.144 123.198 58.6244 122.901C57.9909 122.849 57.6742 122.824 57.0371 122.773Z" fill="#C62B29"/>
</g>
</svg>
