<svg width="1440" height="203" viewBox="0 0 1440 203" fill="none" xmlns="http://www.w3.org/2000/svg">
<path d="M754.682 19.3451C754.682 -6.27165 729.397 -6.27165 729.397 19.3451C729.397 51.6679 735.058 77.8722 742.039 77.8722C749.022 77.8722 754.682 51.6679 754.682 19.3451Z" fill="url(#paint0_linear_399_3610)"/>
<path opacity="0.2" d="M751.391 34.3902C751.391 34.3902 751.489 37.2529 753.822 40.6059C753.998 38.507 754.15 36.3513 754.274 34.143L751.391 34.3902Z" fill="#999999"/>
<path opacity="0.2" d="M730.074 38.2537C733.392 32.9942 733.065 28.8956 733.065 28.8956L729.578 29.2097C729.693 32.3135 729.858 35.3363 730.074 38.2537Z" fill="#999999"/>
<path d="M742.041 77.9228C739.753 77.9228 737.61 71.8205 736.007 60.7382C734.407 49.6803 733.525 34.9817 733.525 19.345C733.525 13.4007 734.442 8.41066 736.177 4.91176C737.721 1.7978 739.805 0.0817719 742.041 0.0817719C744.278 0.0817719 746.362 1.7978 747.906 4.91176C749.641 8.41066 750.558 13.4007 750.558 19.345C750.558 34.9797 749.676 49.6803 748.076 60.7382C746.473 71.8205 744.328 77.9228 742.041 77.9228ZM742.041 0.183109C739.841 0.183109 737.788 1.87886 736.259 4.95838C734.531 8.4431 733.618 13.4169 733.618 19.343C733.618 51.5868 737.397 77.8194 742.041 77.8194C746.686 77.8194 750.465 51.5868 750.465 19.343C750.465 13.4169 749.552 8.4431 747.824 4.95838C746.295 1.88089 744.242 0.183109 742.041 0.183109Z" fill="url(#paint1_linear_399_3610)"/>
<path d="M742.042 77.9228C740.923 77.9228 740.182 68.5748 739.759 60.7321C739.162 49.6762 738.833 34.9776 738.833 19.345C738.833 6.10917 740.496 0.0817719 742.042 0.0817719C743.587 0.0817719 745.25 6.10917 745.25 19.345C745.25 34.9797 744.922 49.6783 744.324 60.7321C743.901 68.5748 743.161 77.9228 742.042 77.9228ZM742.042 0.183109C740.494 0.183109 738.926 6.76558 738.926 19.343C738.926 34.9756 739.254 49.6722 739.852 60.724C740.685 76.152 741.661 77.8174 742.042 77.8174C742.422 77.8174 743.398 76.152 744.231 60.724C744.829 49.6702 745.158 34.9736 745.158 19.343C745.158 6.76558 743.589 0.183109 742.042 0.183109Z" fill="url(#paint2_linear_399_3610)"/>
<g opacity="0.4">
<path d="M734.65 4.10748C733.575 5.32308 732.671 6.80415 731.966 8.50801C731.881 8.71466 731.964 8.95575 732.154 9.04895C732.204 9.07326 732.256 9.08537 732.308 9.08537C732.45 9.08537 732.586 8.99625 732.649 8.8443C733.319 7.22552 734.174 5.8235 735.188 4.67476C735.331 4.51268 735.327 4.25339 735.178 4.09537C735.03 3.93936 734.794 3.94338 734.65 4.10748Z" fill="white"/>
<path d="M752.114 8.50802C750.04 3.49773 746.274 0.507339 742.041 0.507339C739.957 0.507339 737.918 1.26102 736.14 2.68327C735.973 2.81699 735.938 3.07223 736.06 3.25457C736.183 3.43691 736.417 3.4754 736.584 3.34169C738.232 2.02073 740.119 1.32379 742.041 1.32379C745.972 1.32379 749.483 4.13589 751.432 8.84431C751.495 8.99626 751.63 9.08538 751.773 9.08538C751.825 9.08538 751.877 9.07327 751.927 9.04896C752.116 8.95577 752.2 8.71265 752.114 8.50802Z" fill="white"/>
</g>
<path d="M744.066 70.2665L743.335 69.6081L743.376 69.5554L744.066 70.1774L744.758 69.5554L744.797 69.6081L744.066 70.2665Z" fill="url(#paint3_linear_399_3610)"/>
<path d="M744.068 70.2524L743.723 69.2535L743.782 69.2292L744.066 70.0497L744.328 69.2313L744.387 69.2535L744.068 70.2524Z" fill="url(#paint4_linear_399_3610)"/>
<path d="M737.934 68.899L737.073 68.4695L737.099 68.4066L737.914 68.8119L738.435 68.0177L738.485 68.0562L737.934 68.899Z" fill="url(#paint5_linear_399_3610)"/>
<path d="M737.932 68.8828L737.362 68.0177L737.414 67.9772L737.882 68.6883L737.941 67.8232L738.004 67.8293L737.932 68.8828Z" fill="url(#paint6_linear_399_3610)"/>
<path opacity="0.2" d="M742.026 68.1716C738.448 68.1716 735.19 64.7153 732.738 59.0486C735.036 70.6191 738.345 77.8823 742.026 77.8823C745.708 77.8823 749.017 70.6191 751.315 59.0486C748.863 64.7153 745.604 68.1716 742.026 68.1716Z" fill="#999999"/>
<path d="M766.866 34.1369C771.092 30.172 761.648 18.17 757.42 22.1349C752.087 27.1371 749.878 33.8796 752.486 37.1942C755.095 40.5087 761.532 39.1391 766.866 34.1369Z" fill="url(#paint7_linear_399_3610)"/>
<path d="M752.459 37.2185C750.702 34.9858 753.615 29.0962 758.956 24.0879C761.152 22.0295 763.804 23.1904 765.338 25.1394C766.873 27.0905 767.524 30.1274 765.329 32.1859C759.99 37.1941 754.217 39.4511 752.459 37.2185ZM765.286 25.188C763.774 23.2654 761.161 22.1187 759.001 24.1447C753.69 29.1246 750.78 34.9675 752.511 37.1698C754.243 39.3721 759.973 37.1111 765.284 32.1292C767.445 30.1032 766.799 27.1107 765.286 25.188Z" fill="url(#paint8_linear_399_3610)"/>
<path d="M752.46 37.2185C751.784 36.3615 755.509 31.6996 760.939 26.6063C763.134 24.5458 764.758 24.402 765.339 25.1394C765.918 25.8769 765.543 27.6071 763.346 29.6676C757.918 34.7589 753.135 38.0755 752.46 37.2185ZM765.287 25.188C764.728 24.4789 763.144 24.637 760.983 26.663C758.406 29.0821 756.105 31.5112 754.505 33.5027C752.941 35.4518 752.213 36.789 752.512 37.1678C752.811 37.5467 754.13 36.9652 756.131 35.5693C758.176 34.143 760.724 32.0258 763.301 29.6088C764.277 28.693 764.968 27.7651 765.3 26.9223C765.593 26.1869 765.588 25.5689 765.287 25.188Z" fill="url(#paint9_linear_399_3610)"/>
<path opacity="0.4" d="M767.177 31.8232H767.172C767.005 31.8212 766.871 31.6692 766.875 31.4889C766.884 30.9014 766.76 30.2287 766.507 29.4852C765.919 27.755 764.69 25.8911 763.219 24.5012C763.093 24.3817 763.08 24.173 763.187 24.0352C763.297 23.8975 763.488 23.8833 763.614 24.0008C765.182 25.4818 766.444 27.3964 767.075 29.2542C767.353 30.0727 767.489 30.8284 767.48 31.497C767.476 31.6794 767.34 31.8232 767.177 31.8232ZM762.469 23.778C762.41 23.778 762.35 23.7597 762.298 23.7192C761.255 22.9311 760.235 22.4976 759.428 22.4976C759.261 22.4976 759.125 22.3496 759.125 22.1673C759.125 21.9849 759.261 21.837 759.428 21.837C760.37 21.837 761.482 22.301 762.642 23.1762C762.779 23.2796 762.814 23.4862 762.718 23.6361C762.66 23.7273 762.566 23.778 762.469 23.778Z" fill="white"/>
<path opacity="0.2" d="M760.231 37.1212C749.913 39.8867 751.78 31.0574 751.891 30.5651C751.092 33.1847 751.225 35.5895 752.485 37.1921C755.094 40.5066 761.532 39.1391 766.866 34.1369C765.129 35.4072 762.065 36.6309 760.231 37.1212Z" fill="#999999"/>
<path d="M717.708 26.819C714.346 21.9687 725.903 12.4181 729.266 17.2684C733.51 23.3889 734.362 30.4881 731.17 33.1259C727.98 35.7618 721.952 32.9395 717.708 26.819Z" fill="url(#paint10_linear_399_3610)"/>
<path d="M719.588 25.265C717.84 22.7447 719.066 19.9265 720.944 18.3766C722.823 16.8247 725.64 16.302 727.386 18.8223C731.634 24.9489 733.341 31.3795 731.19 33.1563C729.041 34.9311 723.836 31.3917 719.588 25.265ZM719.644 25.2204C723.869 31.3147 729.03 34.848 731.151 33.0955C733.271 31.343 731.558 24.9611 727.332 18.8669C725.614 16.3891 722.837 16.9057 720.987 18.4354C719.135 19.965 717.925 22.7406 719.644 25.2204Z" fill="url(#paint11_linear_399_3610)"/>
<path d="M722.013 23.2613C720.267 20.741 720.234 18.9621 720.945 18.3766C721.653 17.7911 723.212 18.3078 724.96 20.8281C729.281 27.0601 732.018 32.4755 731.192 33.1563C730.366 33.837 726.334 29.4912 722.013 23.2613ZM720.636 20.1291C720.798 21.0287 721.293 22.0963 722.069 23.2147C724.12 26.1726 726.2 28.8308 727.922 30.6967C729.607 32.5222 730.784 33.3974 731.149 33.0955C731.515 32.7936 731.064 31.3207 729.912 29.0536C728.733 26.7359 726.955 23.8306 724.905 20.8727C723.186 18.3928 721.668 17.8722 720.985 18.4374C720.618 18.7393 720.494 19.341 720.636 20.1291Z" fill="url(#paint12_linear_399_3610)"/>
<path opacity="0.4" d="M717.621 24.096C717.742 23.4396 718.021 22.7325 718.451 21.9971C719.427 20.3277 721.031 18.7473 722.851 17.6614C722.998 17.5743 723.181 17.633 723.261 17.7931C723.341 17.9532 723.287 18.1537 723.141 18.2409C721.433 19.2599 719.871 20.7956 718.96 22.3516C718.57 23.0182 718.317 23.6483 718.213 24.2236C718.18 24.4019 718.022 24.5194 717.857 24.483L717.852 24.4809C717.692 24.4444 717.588 24.2723 717.621 24.096ZM723.797 17.5115C723.734 17.3434 723.807 17.1509 723.961 17.08C725.265 16.4924 726.44 16.2959 727.362 16.5147C727.526 16.5532 727.63 16.7295 727.594 16.9078C727.559 17.0861 727.398 17.1995 727.234 17.161C726.446 16.9746 725.364 17.163 724.191 17.6918C724.131 17.7182 724.07 17.7222 724.013 17.7101C723.92 17.6858 723.836 17.6149 723.797 17.5115Z" fill="white"/>
<path opacity="0.2" d="M723.615 31.266C733.163 36.3513 733.05 27.2911 733.035 26.7846C733.308 29.5298 732.714 31.8496 731.17 33.1239C727.978 35.7618 721.95 32.9375 717.708 26.817C719.159 28.46 721.917 30.3624 723.615 31.266Z" fill="#999999"/>
<path d="M734.349 45.8897L733.618 45.2312L733.657 45.1786L734.349 45.8006L735.04 45.1786L735.081 45.2312L734.349 45.8897Z" fill="url(#paint13_linear_399_3610)"/>
<path d="M734.351 45.8756L734.004 44.8767L734.063 44.8524L734.347 45.6729L734.609 44.8524L734.668 44.8767L734.351 45.8756Z" fill="url(#paint14_linear_399_3610)"/>
<path d="M745.25 26.7278L744.519 26.0713L744.559 26.0167L745.25 26.6386L745.942 26.0167L745.981 26.0713L745.25 26.7278Z" fill="url(#paint15_linear_399_3610)"/>
<path d="M745.251 26.7136L744.904 25.7148L744.964 25.6905L745.248 26.511L745.509 25.6925L745.569 25.7148L745.251 26.7136Z" fill="url(#paint16_linear_399_3610)"/>
<path d="M752.833 21.5757L752.102 20.9173L752.141 20.8626L752.833 21.4846L753.523 20.8626L753.564 20.9173L752.833 21.5757Z" fill="url(#paint17_linear_399_3610)"/>
<path d="M752.834 21.5595L752.487 20.5606L752.547 20.5384L752.831 21.3569L753.092 20.5384L753.152 20.5606L752.834 21.5595Z" fill="url(#paint18_linear_399_3610)"/>
<path d="M753.814 32.7531L753.617 31.7401L753.68 31.726L753.866 32.6822L754.76 32.668L754.762 32.7369L753.814 32.7531Z" fill="url(#paint19_linear_399_3610)"/>
<path d="M753.823 32.743L754.124 31.726L754.183 31.7482L753.936 32.583L754.61 32.119L754.644 32.1777L753.823 32.743Z" fill="url(#paint20_linear_399_3610)"/>
<path d="M758.606 22.8643L758.409 21.8532L758.472 21.837L758.656 22.7953L759.552 22.7791L759.554 22.848L758.606 22.8643Z" fill="url(#paint21_linear_399_3610)"/>
<path d="M758.615 22.8541L758.916 21.837L758.975 21.8594L758.728 22.694L759.4 22.2321L759.435 22.2888L758.615 22.8541Z" fill="url(#paint22_linear_399_3610)"/>
<path d="M766.207 32.8423L766.586 31.8941L766.643 31.9225L766.285 32.818L767.022 33.3731L766.986 33.4298L766.207 32.8423Z" fill="url(#paint23_linear_399_3610)"/>
<path d="M766.22 32.8402L767.005 32.2041L767.042 32.2588L766.398 32.7815L767.19 32.8321L767.187 32.901L766.22 32.8402Z" fill="url(#paint24_linear_399_3610)"/>
<path d="M760.293 34.4854L760.499 33.4764L760.562 33.4906L760.365 34.4448L761.186 34.8379L761.16 34.9007L760.293 34.4854Z" fill="url(#paint25_linear_399_3610)"/>
<path d="M760.306 34.4813L760.965 33.6932L761.011 33.7398L760.469 34.3861L761.256 34.2706L761.265 34.3395L760.306 34.4813Z" fill="url(#paint26_linear_399_3610)"/>
<path d="M755.33 37.9701L755.538 36.9591L755.599 36.9753L755.404 37.9295L756.225 38.3206L756.199 38.3854L755.33 37.9701Z" fill="url(#paint27_linear_399_3610)"/>
<path d="M755.344 37.964L756.004 37.1759L756.051 37.2225L755.509 37.8708L756.296 37.7553L756.305 37.8222L755.344 37.964Z" fill="url(#paint28_linear_399_3610)"/>
<path d="M761.412 27.9353L761.618 26.9243L761.681 26.9405L761.484 27.8948L762.305 28.2858L762.279 28.3506L761.412 27.9353Z" fill="url(#paint29_linear_399_3610)"/>
<path d="M761.426 27.9292L762.085 27.1411L762.131 27.1877L761.589 27.836L762.376 27.7185L762.385 27.7874L761.426 27.9292Z" fill="url(#paint30_linear_399_3610)"/>
<path d="M739.882 61.3704L739.15 60.712L739.191 60.6572L739.882 61.2792L740.574 60.6572L740.615 60.712L739.882 61.3704Z" fill="url(#paint31_linear_399_3610)"/>
<path d="M739.883 61.3542L739.538 60.3553L739.597 60.3331L739.881 61.1516L740.143 60.3331L740.203 60.3553L739.883 61.3542Z" fill="url(#paint32_linear_399_3610)"/>
<path d="M746.88 57.6162L746.148 56.9577L746.189 56.9051L746.88 57.527L747.572 56.9051L747.611 56.9577L746.88 57.6162Z" fill="url(#paint33_linear_399_3610)"/>
<path d="M746.881 57.602L746.536 56.6032L746.595 56.5789L746.879 57.3994L747.139 56.5789L747.201 56.6032L746.881 57.602Z" fill="url(#paint34_linear_399_3610)"/>
<path d="M736.716 13.5122L735.985 12.8538L736.024 12.8011L736.716 13.4231L737.407 12.8011L737.448 12.8538L736.716 13.5122Z" fill="url(#paint35_linear_399_3610)"/>
<path d="M736.718 13.496L736.371 12.4992L736.43 12.4749L736.714 13.2954L736.976 12.4749L737.035 12.4972L736.718 13.496Z" fill="url(#paint36_linear_399_3610)"/>
<path d="M748.125 11.2451L747.394 10.5867L747.433 10.534L748.125 11.1559L748.815 10.534L748.856 10.5867L748.125 11.2451Z" fill="url(#paint37_linear_399_3610)"/>
<path d="M748.126 11.2289L747.779 10.2321L747.839 10.2078L748.123 11.0283L748.384 10.2078L748.444 10.2301L748.126 11.2289Z" fill="url(#paint38_linear_399_3610)"/>
<path d="M741.295 1.54463L740.563 0.886159L740.602 0.833481L741.295 1.45548L741.985 0.833481L742.026 0.886159L741.295 1.54463Z" fill="url(#paint39_linear_399_3610)"/>
<path d="M741.296 1.52843L740.949 0.531634L741.009 0.505295L741.293 1.32582L741.554 0.507335L741.614 0.529593L741.296 1.52843Z" fill="url(#paint40_linear_399_3610)"/>
<path d="M749.174 50.1504L748.443 49.4919L748.484 49.4373L749.174 50.0612L749.867 49.4373L749.906 49.4919L749.174 50.1504Z" fill="url(#paint41_linear_399_3610)"/>
<path d="M749.176 50.1342L748.831 49.1374L748.889 49.1111L749.174 49.9316L749.434 49.1131L749.494 49.1354L749.176 50.1342Z" fill="url(#paint42_linear_399_3610)"/>
<path d="M744.518 45.371L743.787 44.7126L743.826 44.6599L744.518 45.2819L745.209 44.6599L745.25 44.7126L744.518 45.371Z" fill="url(#paint43_linear_399_3610)"/>
<path d="M744.52 45.3569L744.173 44.358L744.232 44.3337L744.516 45.1543L744.778 44.3337L744.837 44.358L744.52 45.3569Z" fill="url(#paint44_linear_399_3610)"/>
<path d="M740.95 37.2832L740.219 36.6248L740.26 36.5721L740.95 37.1941L741.642 36.5721L741.681 36.6248L740.95 37.2832Z" fill="url(#paint45_linear_399_3610)"/>
<path d="M740.952 37.267L740.604 36.2702L740.664 36.2459L740.948 37.0665L741.209 36.2459L741.269 36.2683L740.952 37.267Z" fill="url(#paint46_linear_399_3610)"/>
<path d="M733.618 25.0098L732.887 24.3513L732.926 24.2986L733.618 24.9206L734.308 24.2986L734.349 24.3513L733.618 25.0098Z" fill="url(#paint47_linear_399_3610)"/>
<path d="M733.618 24.9936L733.272 23.9968L733.332 23.9725L733.616 24.793L733.877 23.9725L733.937 23.9947L733.618 24.9936Z" fill="url(#paint48_linear_399_3610)"/>
<path d="M722.386 28.2838L721.468 28.0264L721.484 27.9596L722.351 28.2027L722.735 27.3194L722.793 27.3498L722.386 28.2838Z" fill="url(#paint49_linear_399_3610)"/>
<path d="M722.381 28.2696L721.682 27.5261L721.726 27.4774L722.301 28.0872L722.22 27.2242L722.283 27.2181L722.381 28.2696Z" fill="url(#paint50_linear_399_3610)"/>
<path d="M729.893 29.1999L728.95 29.0905L728.958 29.0236L729.848 29.1269L730.112 28.191L730.171 28.2112L729.893 29.1999Z" fill="url(#paint51_linear_399_3610)"/>
<path d="M729.887 29.1874L729.095 28.5613L729.132 28.5066L729.783 29.0192L729.587 28.1784L729.648 28.1622L729.887 29.1874Z" fill="url(#paint52_linear_399_3610)"/>
<path d="M728.542 20.5854L727.6 20.4759L727.607 20.4071L728.498 20.5104L728.761 19.5744L728.821 19.5946L728.542 20.5854Z" fill="url(#paint53_linear_399_3610)"/>
<path d="M728.537 20.5708L727.744 19.9468L727.781 19.8901L728.433 20.4047L728.236 19.5619L728.297 19.5457L728.537 20.5708Z" fill="url(#paint54_linear_399_3610)"/>
<path d="M721.19 21.9407L720.247 21.8313L720.255 21.7625L721.145 21.8658L721.409 20.9297L721.468 20.95L721.19 21.9407Z" fill="url(#paint55_linear_399_3610)"/>
<path d="M721.184 21.9262L720.392 21.3002L720.429 21.2454L721.08 21.758L720.883 20.9173L720.945 20.901L721.184 21.9262Z" fill="url(#paint56_linear_399_3610)"/>
<path d="M724.105 17.2343L723.164 17.1249L723.17 17.0561L724.06 17.1594L724.324 16.2234L724.383 16.2457L724.105 17.2343Z" fill="url(#paint57_linear_399_3610)"/>
<path d="M724.099 17.2198L723.307 16.5958L723.344 16.5391L723.995 17.0537L723.798 16.2129L723.86 16.1946L724.099 17.2198Z" fill="url(#paint58_linear_399_3610)"/>
<path d="M452.427 54.3787L452.42 54.3868C454.051 47.9603 454.422 42.1457 454.454 38.4989C454.465 37.1901 453.001 36.5661 452.175 37.5142C450.501 39.4329 447.647 42.2227 442.93 45.7155C438.73 41.6898 426.491 56.0137 426.491 56.0137C426.493 56.0117 426.497 56.0116 426.499 56.0096C426.497 56.0116 426.493 56.0117 426.489 56.0137H426.491C418.935 51.443 409.318 71.2147 409.318 71.2147L409.329 71.2046C409.323 71.2127 409.318 71.2228 409.312 71.2309L409.316 71.2147C403.769 70.0052 402.14 87.3316 401.678 95.6301C401.459 98.2882 401.501 99.9313 401.501 99.9313C401.501 99.9313 406.749 95.9927 412.575 93.8877C420.007 91.2012 424.426 89.0618 423.284 86.819H423.283C423.283 86.819 423.284 86.819 423.284 86.8169C423.284 86.8169 434.436 83.6929 439.584 79.8698C444.732 76.0468 442.837 73.9215 442.837 73.9215C442.837 73.9215 442.829 73.9235 442.827 73.9255C442.831 73.9214 442.835 73.9174 442.839 73.9134C442.839 73.9174 442.839 73.9195 442.837 73.9235C442.837 73.9235 449.02 67.9407 452.086 61.107C455.154 54.2713 452.427 54.3787 452.427 54.3787Z" fill="url(#paint59_linear_399_3610)"/>
<g opacity="0.2">
<path d="M420.676 84.709L420.678 84.7079L420.676 84.709Z" fill="#999999"/>
<path d="M439.559 72.7129L439.566 72.7092L439.568 72.7019L439.559 72.7129Z" fill="#999999"/>
<path d="M452.428 54.3787L452.421 54.3868C453.892 48.5925 454.334 43.3127 454.432 39.6537C453.781 43.4201 452.708 48.1325 450.929 53.1266L450.936 53.1185C450.936 53.1185 453.71 52.9119 449.824 60.009C446.078 66.8528 439.568 72.71 439.568 72.71C439.568 72.71 441.18 74.6752 436.017 78.2916C430.977 81.8229 420.678 84.708 420.678 84.708C421.606 86.659 418.236 89.7284 411.709 92.3135C405.64 94.7184 401.504 99.9293 401.504 99.9293C401.504 99.9293 406.752 95.9907 412.577 93.8857C420.01 91.1992 424.428 89.0598 423.287 86.817C423.287 86.817 434.438 83.6909 439.586 79.8678C444.734 76.0448 442.839 73.9195 442.839 73.9195C442.839 73.9195 442.832 73.9215 442.83 73.9236C442.834 73.9195 442.837 73.9154 442.841 73.9114C442.841 73.9134 442.841 73.9175 442.839 73.9215C442.839 73.9215 449.023 67.9388 452.088 61.1051C455.154 54.2714 452.428 54.3787 452.428 54.3787Z" fill="#999999"/>
</g>
<path d="M407.91 89.0821C409.159 88.7275 415.062 87.1898 423.351 86.9993C423.329 86.9385 423.318 86.8798 423.286 86.819V86.817C423.286 86.817 423.442 86.7724 423.695 86.6995C415.756 86.8434 409.932 88.2311 408.155 88.7113C411.517 83.6605 415.479 78.7556 420.119 73.9499C421.741 73.6379 431.021 72.0738 442.943 74.0735C442.887 73.9762 442.841 73.9195 442.841 73.9195C442.841 73.9195 442.833 73.9215 442.831 73.9236C442.835 73.9195 442.839 73.9154 442.843 73.9114C442.843 73.9134 442.843 73.9175 442.841 73.9215C442.841 73.9215 442.898 73.8648 442.98 73.7838C431.814 71.9117 422.943 73.1557 420.479 73.5893C422.778 71.2269 425.213 68.8849 427.839 66.5631C429.114 65.4367 430.4 64.3203 431.689 63.204C433.521 61.6156 435.364 59.9907 437.194 58.3375C438.817 57.6871 444.646 55.5376 452.816 54.476C452.602 54.3747 452.426 54.3808 452.426 54.3808L452.418 54.3889C452.433 54.3321 452.443 54.2774 452.457 54.2227C445.311 55.1831 439.998 56.966 437.774 57.8047C441.391 54.5084 444.914 51.0398 447.991 47.1256C450.308 44.1758 452.632 40.9403 454.174 37.6116C454.077 37.4799 453.961 37.3745 453.831 37.2874C452.309 40.608 449.976 43.8516 447.651 46.8076C444.722 50.5354 441.375 53.8621 437.929 57.0267C439.337 55.0878 441.677 51.2486 443.017 45.6487C442.986 45.673 442.96 45.6933 442.928 45.7176C442.872 45.6649 442.8 45.6487 442.742 45.6021C440.903 53.2584 437.197 57.596 436.65 58.1997C434.907 59.7679 433.154 61.3117 431.411 62.8231C430.121 63.9414 428.833 65.0578 427.558 66.1863C425.127 68.3358 422.873 70.5057 420.722 72.6877C422.218 70.1896 425.428 64.061 426.612 55.8719C426.54 55.955 426.49 56.0137 426.49 56.0137C426.491 56.0117 426.495 56.0117 426.497 56.0096C426.495 56.0117 426.491 56.0117 426.488 56.0137L426.49 56.0117C426.432 55.9772 426.373 55.957 426.315 55.9246C424.901 65.5157 420.716 72.2622 419.866 73.5447C415.281 78.2855 411.35 83.1257 408.004 88.1056C408.672 85.6278 410.27 78.5914 409.396 71.0527C409.346 71.1519 409.314 71.2168 409.314 71.2168L409.326 71.2067C409.32 71.2148 409.314 71.2249 409.309 71.233L409.313 71.2168C409.253 71.2047 409.203 71.2229 409.146 71.2148C410.129 79.9408 407.785 87.9597 407.512 88.8471C405.237 92.3034 403.213 95.8226 401.496 99.439C401.496 99.441 401.496 99.441 401.496 99.443C401.496 99.753 401.5 99.9333 401.5 99.9333C401.5 99.9333 401.648 99.8219 401.901 99.6436C403.619 96.0353 405.638 92.5283 407.91 89.0821Z" fill="url(#paint60_linear_399_3610)"/>
<g opacity="0.1">
<path d="M415.723 64.1683C414.708 65.5683 413.717 67.0919 412.781 68.6944C412.583 69.0328 412.676 69.4825 412.986 69.6993C413.102 69.7803 413.234 69.8168 413.364 69.8127C413.576 69.8067 413.784 69.6872 413.906 69.4765C414.804 67.9367 415.795 66.4151 416.769 65.0719C416.998 64.7579 416.949 64.298 416.66 64.0488C416.37 63.8016 415.951 63.8523 415.723 64.1683Z" fill="white"/>
<path d="M438.676 48.5378C438.493 48.1873 438.088 48.0698 437.765 48.2684C434.616 50.2417 430.55 54.2065 427.892 57.2962C427.729 57.5069 427.529 57.6771 427.299 57.8007C426.766 58.0823 426.12 58.064 425.606 57.754C425.092 57.442 424.563 57.3002 423.99 57.3205C422.26 57.3793 420.163 58.8157 417.758 61.5893C417.506 61.883 417.517 62.3429 417.786 62.6205C417.92 62.7583 418.092 62.8251 418.265 62.819C418.435 62.813 418.602 62.738 418.729 62.5921C420.822 60.1751 422.704 58.8218 424.029 58.7772C424.367 58.767 424.652 58.844 424.958 59.0284C425.846 59.5673 426.955 59.5977 427.881 59.1094C428.284 58.8967 428.631 58.5989 428.889 58.2605C431.452 55.2823 435.397 51.4289 438.429 49.5305C438.749 49.332 438.858 48.8863 438.676 48.5378Z" fill="white"/>
</g>
<path d="M429.15 24.4931C429.15 24.4931 429.147 24.5033 429.147 24.5053C428.61 17.5764 427.046 11.7455 425.868 8.16763C425.444 6.88315 423.808 6.8527 423.312 8.10679C422.312 10.6433 420.447 14.5009 416.993 19.7807C411.552 17.5034 404.333 36.3452 404.333 36.3452C404.335 36.3432 404.337 36.3412 404.339 36.3392C404.337 36.3412 404.335 36.3452 404.331 36.3473V36.3452C395.427 34.8622 392.581 57.9951 392.581 57.9951L392.588 57.9808C392.586 57.991 392.584 58.0032 392.581 58.0133L392.579 57.9951C386.755 59.004 390.905 76.5897 393.206 84.8861C393.872 87.5706 394.46 89.161 394.46 89.161C394.46 89.161 398.287 83.235 403.283 78.875C409.659 73.3096 413.271 69.4724 411.411 67.732L411.409 67.734C411.411 67.734 411.411 67.732 411.411 67.732C411.411 67.732 421.278 60.2702 425.044 54.4982C428.809 48.7261 426.254 47.395 426.254 47.395C426.254 47.395 426.246 47.4011 426.244 47.4011C426.246 47.395 426.248 47.389 426.25 47.3849C426.252 47.3869 426.254 47.391 426.254 47.395C426.254 47.395 430.314 39.1026 431.045 31.2073C431.776 23.3119 429.15 24.4931 429.15 24.4931Z" fill="url(#paint61_linear_399_3610)"/>
<g opacity="0.2">
<path d="M408.161 66.6978L408.162 66.6968L408.161 66.6978Z" fill="#999999"/>
<path d="M422.646 47.5069L422.652 47.5014V47.4923L422.646 47.5069Z" fill="#999999"/>
<path d="M429.15 24.4952L429.146 24.5054C428.664 18.2592 427.346 12.9227 426.227 9.30629C426.84 13.2469 427.354 18.2795 427.268 23.8651L427.274 23.853C427.274 23.853 429.918 22.5543 428.473 31.0291C427.077 39.202 422.655 47.5025 422.655 47.5025C422.655 47.5025 424.884 48.785 421.035 54.3625C417.279 59.8064 408.165 66.6988 408.165 66.6988C409.718 68.2406 407.443 72.5722 401.917 77.6817C396.78 82.4307 394.464 89.1611 394.464 89.1611C394.464 89.1611 398.29 83.235 403.286 78.8751C409.663 73.3097 413.274 69.4724 411.414 67.7321C411.414 67.7321 421.282 60.2703 425.047 54.4982C428.812 48.7262 426.257 47.3951 426.257 47.3951C426.257 47.3951 426.249 47.4012 426.248 47.4032C426.249 47.3971 426.253 47.391 426.255 47.387C426.257 47.391 426.257 47.3911 426.257 47.3951C426.257 47.3951 430.319 39.1047 431.05 31.2094C431.78 23.312 429.15 24.4952 429.15 24.4952Z" fill="#999999"/>
</g>
<path d="M397.129 76.0187C398.231 75.1779 403.494 71.3427 411.537 67.8802C411.494 67.8296 411.464 67.7769 411.414 67.7303C411.414 67.7303 411.554 67.625 411.774 67.4527C404.06 70.7308 398.827 74.3877 397.246 75.5608C398.858 69.2943 401.106 62.9307 404.049 56.4009C405.532 55.4547 414.087 50.256 426.405 47.5027C426.318 47.4298 426.255 47.3933 426.255 47.3933C426.255 47.3933 426.248 47.3994 426.246 47.4014C426.248 47.3953 426.251 47.3893 426.253 47.3852C426.255 47.3893 426.255 47.3913 426.255 47.3954C426.255 47.3954 426.292 47.3163 426.346 47.2049C414.807 49.786 406.547 54.5086 404.281 55.9066C405.747 52.6872 407.348 49.4355 409.147 46.1271C410.021 44.5205 410.908 42.9219 411.799 41.3193C413.062 39.0421 414.326 36.7244 415.568 34.3864C416.941 33.108 421.925 28.7035 429.562 24.4367C429.321 24.4205 429.15 24.4955 429.15 24.4955L429.146 24.5056C429.141 24.4448 429.133 24.3881 429.13 24.3273C422.462 28.0896 417.858 31.9329 415.961 33.6327C418.403 28.981 420.699 24.1956 422.41 19.1549C423.698 15.3541 424.897 11.2738 425.303 7.41018C425.166 7.31901 425.015 7.26229 424.859 7.22784C424.472 11.0752 423.267 15.1698 421.974 18.9787C420.346 23.7823 418.175 28.357 415.857 32.8122C416.592 30.3607 417.607 25.6807 417.06 19.6756C417.037 19.7101 417.017 19.7424 416.995 19.7769C416.922 19.7465 416.848 19.7607 416.774 19.7364C417.514 27.9498 415.328 33.655 414.994 34.4633C413.81 36.6859 412.608 38.8882 411.405 41.054C410.514 42.6565 409.627 44.2571 408.753 45.8637C407.089 48.927 405.604 51.9376 404.223 54.9239C404.858 51.891 405.966 44.6299 404.407 36.1551C404.364 36.2645 404.335 36.3415 404.335 36.3415C404.337 36.3394 404.338 36.3374 404.34 36.3354C404.338 36.3374 404.336 36.3415 404.333 36.3435V36.3415C404.264 36.3293 404.199 36.3334 404.132 36.3253C405.931 46.2608 404.075 54.5107 403.67 56.1011C400.759 62.5478 398.521 68.8345 396.9 75.0259C396.732 72.3395 395.961 64.827 392.608 57.8029C392.593 57.9184 392.582 57.9933 392.582 57.9933L392.589 57.9792C392.588 57.9913 392.586 58.0014 392.582 58.0116L392.58 57.9933C392.519 58.0035 392.474 58.042 392.415 58.0562C396.269 66.1987 396.637 74.9652 396.665 75.9417C395.587 80.2206 394.774 84.461 394.293 88.6751C394.293 88.6771 394.295 88.6771 394.295 88.6791C394.397 88.981 394.46 89.1593 394.46 89.1593C394.46 89.1593 394.57 88.9932 394.755 88.7156C395.238 84.5157 396.05 80.2854 397.129 76.0187Z" fill="url(#paint62_linear_399_3610)"/>
<g opacity="0.1">
<path d="M396.507 48.5743C395.978 50.345 395.516 52.2251 395.132 54.162C395.051 54.5712 395.29 54.9764 395.665 55.0635C395.806 55.0979 395.947 55.0797 396.073 55.025C396.277 54.9339 396.44 54.7373 396.491 54.4821C396.858 52.6222 397.322 50.7421 397.83 49.0443C397.949 48.6472 397.751 48.2177 397.385 48.088C397.018 47.9583 396.626 48.1731 396.507 48.5743Z" fill="white"/>
<path d="M413.766 24.2177C413.471 23.9462 413.035 23.9928 412.786 24.3129C410.361 27.4856 407.7 32.972 406.126 37.0423C406.037 37.3138 405.898 37.5589 405.712 37.7696C405.285 38.2559 404.649 38.4929 404.042 38.3936C403.435 38.2923 402.873 38.3632 402.318 38.6084H402.316C400.644 39.3479 399.072 41.5805 397.642 45.2435C397.491 45.6305 397.656 46.0762 398.009 46.2403C398.185 46.3214 398.376 46.3193 398.542 46.2464C398.707 46.1734 398.846 46.0336 398.92 45.8412C400.165 42.6522 401.555 40.5837 402.838 40.0164H402.84C403.166 39.8726 403.471 39.8361 403.831 39.8949C404.877 40.0711 405.972 39.6619 406.716 38.8191C407.039 38.4504 407.28 38.0249 407.421 37.5913C408.939 33.6669 411.519 28.3386 413.854 25.2854C414.1 24.9653 414.061 24.4872 413.766 24.2177Z" fill="white"/>
</g>
<path d="M415.273 83.8144C393.514 56.352 359.518 40.2331 322.752 43.7483C285.985 47.2613 255.072 69.5818 238.012 100.754L415.273 83.8144Z" fill="url(#paint63_linear_399_3610)"/>
<path d="M512.355 75.8501C503.199 60.2074 488.487 50.3347 472.254 51.0458C456.022 51.7549 442.079 62.8817 434.098 79.272L512.355 75.8501Z" fill="url(#paint64_linear_399_3610)"/>
<path d="M980.152 62.7744L980.162 62.7805C976.87 56.4939 975.055 50.4847 974.125 46.6576C973.791 45.284 975.179 44.2001 976.281 44.9558C978.514 46.4854 982.199 48.5884 988.021 50.8838C991.454 45.4197 1007.84 56.9152 1007.84 56.9152C1007.84 56.9152 1007.84 56.9132 1007.83 56.9132C1007.84 56.9132 1007.84 56.9152 1007.84 56.9152H1007.84C1014.67 49.8992 1029.64 67.8921 1029.64 67.8921L1029.63 67.884C1029.63 67.8921 1029.64 67.9002 1029.65 67.9084L1029.64 67.8921C1035.18 64.999 1041.14 82.7528 1043.66 91.3512C1044.55 94.0822 1044.9 95.8246 1044.9 95.8246C1044.9 95.8246 1038.42 93.2131 1031.77 92.7005C1023.29 92.0461 1018.12 91.0858 1018.77 88.3932C1018.77 88.3932 1018.77 88.3932 1018.77 88.3932C1018.77 88.3932 1018.77 88.3932 1018.77 88.3932C1018.77 88.3932 1006.27 88.3648 999.915 85.8465C993.56 83.3282 995.032 80.5364 995.032 80.5364C995.032 80.5364 995.041 80.5364 995.043 80.5364C995.038 80.5323 995.034 80.5303 995.028 80.5263C995.03 80.5303 995.03 80.5323 995.032 80.5364C995.032 80.5364 987.06 76.0488 982.159 69.752C977.257 63.4592 980.152 62.7744 980.152 62.7744Z" fill="url(#paint65_linear_399_3610)"/>
<g opacity="0.2">
<path d="M1021 85.4109L1021 85.4125V85.4109H1021Z" fill="#999999"/>
<path d="M998.188 78.3063H998.179L998.176 78.2977L998.188 78.3063Z" fill="#999999"/>
<path d="M980.152 62.7744L980.161 62.7806C977.192 57.1138 975.433 51.6882 974.433 47.8651C976.042 51.6376 978.326 56.2832 981.423 61.0179L981.412 61.0098C981.412 61.0098 978.443 61.6034 984.27 67.9367C989.891 74.0431 998.177 78.3037 998.177 78.3037C998.177 78.3037 996.962 80.8423 1003.28 83.1398C1009.45 85.3826 1020.99 85.409 1020.99 85.409C1020.5 87.7328 1024.79 89.9776 1032.3 90.792C1039.27 91.5477 1044.9 95.8226 1044.9 95.8226C1044.9 95.8226 1038.42 93.2131 1031.77 92.6985C1023.29 92.0441 1018.12 91.0838 1018.77 88.3912H1018.77C1018.77 88.3912 1018.77 88.3912 1018.77 88.3912C1018.77 88.3912 1006.27 88.3629 999.914 85.8445C993.56 83.3262 995.032 80.5344 995.032 80.5344C995.032 80.5344 995.041 80.5344 995.043 80.5344C995.037 80.5303 995.034 80.5283 995.028 80.5243C995.03 80.5283 995.03 80.5303 995.032 80.5344C995.032 80.5344 987.059 76.0468 982.158 69.75C977.257 63.4593 980.152 62.7744 980.152 62.7744Z" fill="#999999"/>
</g>
<path d="M1035.5 86.2801C1034.1 86.272 1027.52 86.3794 1018.75 88.6019C1018.76 88.533 1018.75 88.4662 1018.77 88.3932H1018.78C1018.77 88.3932 1018.77 88.3932 1018.77 88.3932C1018.77 88.3932 1018.6 88.3932 1018.31 88.3892C1026.7 86.2213 1033.17 85.9782 1035.16 85.9641C1030.38 81.6325 1025.01 77.6271 1018.95 73.9296C1017.17 74.0755 1007.02 75.1412 994.966 80.7309C995.001 80.6114 995.036 80.5405 995.036 80.5405C995.036 80.5405 995.046 80.5405 995.047 80.5405C995.042 80.5364 995.038 80.5344 995.033 80.5303C995.034 80.5344 995.034 80.5364 995.036 80.5405C995.036 80.5405 994.962 80.4979 994.854 80.4351C1006.14 75.2019 1015.78 73.9195 1018.48 73.6561C1015.48 71.8428 1012.35 70.0883 1009.02 68.4128C1007.4 67.6004 1005.77 66.8022 1004.14 66.0019C1001.82 64.8653 999.486 63.6943 997.156 62.4888C995.287 62.2781 988.626 61.721 979.771 62.9913C979.969 62.8211 980.157 62.7765 980.157 62.7765L980.166 62.7825C980.136 62.7278 980.112 62.6731 980.084 62.6184C987.84 61.5406 993.867 61.8648 996.413 62.0957C991.8 59.6848 987.242 57.0632 983.046 53.8439C979.884 51.4167 976.647 48.6917 974.207 45.6406C974.276 45.4724 974.374 45.3286 974.489 45.1989C976.905 48.248 980.155 50.9791 983.326 53.4123C987.324 56.4797 991.661 59.0021 996.062 61.3239C994.105 59.697 990.701 56.3399 987.917 50.8393C987.956 50.8555 987.99 50.8697 988.029 50.8839C988.075 50.8109 988.146 50.7745 988.196 50.7076C992.008 58.2261 996.972 61.7088 997.696 62.1849C999.913 63.3255 1002.14 64.4378 1004.34 65.5177C1005.97 66.3179 1007.6 67.1162 1009.22 67.9306C1012.31 69.4826 1015.21 71.1054 1018.01 72.7748C1015.82 70.5827 1010.94 65.074 1007.69 56.8018C1007.78 56.8687 1007.85 56.9153 1007.85 56.9153C1007.85 56.9153 1007.84 56.9133 1007.84 56.9133C1007.84 56.9133 1007.85 56.9153 1007.85 56.9153C1007.9 56.8626 1007.96 56.8221 1008.01 56.7714C1011.85 66.4496 1017.91 72.3251 1019.11 73.4272C1025.1 77.076 1030.42 81.0186 1035.17 85.2813C1033.86 82.8683 1030.45 75.9313 1029.52 67.7442C1029.6 67.8334 1029.64 67.8921 1029.64 67.8921L1029.63 67.884C1029.64 67.8921 1029.64 67.9003 1029.65 67.9084L1029.64 67.8921C1029.7 67.8617 1029.76 67.8658 1029.82 67.8394C1030.92 77.3069 1035.36 85.0625 1035.86 85.9155C1039.1 88.8876 1042.09 91.9995 1044.79 95.3019C1044.79 95.3039 1044.79 95.3039 1044.79 95.3059C1044.87 95.6321 1044.91 95.8246 1044.91 95.8246C1044.91 95.8246 1044.72 95.7516 1044.41 95.6362C1041.73 92.3459 1038.74 89.2442 1035.5 86.2801Z" fill="url(#paint66_linear_399_3610)"/>
<g opacity="0.3">
<path d="M1021.18 62.351C1022.59 63.5281 1024 64.841 1025.38 66.2551C1025.67 66.553 1025.69 67.0554 1025.41 67.3735C1025.31 67.493 1025.18 67.57 1025.04 67.6044C1024.81 67.6591 1024.57 67.5964 1024.39 67.4079C1023.06 66.0505 1021.65 64.7377 1020.29 63.6112C1019.97 63.3458 1019.91 62.8495 1020.16 62.503C1020.4 62.1525 1020.86 62.0856 1021.18 62.351Z" fill="white"/>
<path d="M993.191 52.61C993.298 52.1865 993.696 51.9454 994.083 52.0589C997.88 53.2137 1003.13 56.198 1006.69 58.6738C1006.91 58.848 1007.16 58.9696 1007.44 59.0304C1008.06 59.1702 1008.74 58.9635 1009.2 58.4874C1009.67 58.0093 1010.19 57.7054 1010.8 57.5595C1012.63 57.1158 1015.19 58.0154 1018.4 60.2318C1018.74 60.4668 1018.84 60.9551 1018.63 61.3238C1018.52 61.5082 1018.35 61.6277 1018.17 61.6723C1017.99 61.7169 1017.79 61.6844 1017.63 61.5689C1014.83 59.6382 1012.52 58.763 1011.11 59.1033C1010.76 59.1905 1010.47 59.3545 1010.2 59.6402C1009.4 60.4668 1008.24 60.8234 1007.14 60.5803C1006.67 60.4729 1006.23 60.2642 1005.87 59.9826C1002.44 57.598 997.348 54.6948 993.694 53.5845C993.31 53.467 993.083 53.0314 993.191 52.61Z" fill="white"/>
</g>
<path d="M1025.33 32.2528L1025.34 32.267C1027.09 24.3109 1029.87 17.8318 1031.82 13.8993C1032.53 12.4872 1034.44 12.7708 1034.81 14.3268C1035.56 17.4732 1037.09 22.3234 1040.25 29.1389C1046.95 27.5525 1052.26 50.8799 1052.26 50.8799C1052.26 50.8778 1052.26 50.8738 1052.26 50.8718C1052.26 50.8758 1052.26 50.8799 1052.27 50.8819V50.8799C1062.87 50.892 1062.39 78.3606 1062.39 78.3606L1062.39 78.3423C1062.39 78.3565 1062.39 78.3687 1062.39 78.3828L1062.39 78.3626C1069 80.6722 1061.29 100.322 1057.26 109.524C1056.05 112.519 1055.1 114.253 1055.1 114.253C1055.1 114.253 1051.62 106.613 1046.52 100.566C1040.01 92.8485 1036.44 87.6781 1038.89 86.0148C1038.89 86.0148 1028.63 75.4107 1025.19 67.9591C1021.76 60.5095 1024.95 59.46 1024.95 59.46C1024.95 59.46 1024.96 59.4681 1024.96 59.4701C1024.96 59.4641 1024.95 59.4559 1024.95 59.4499C1024.95 59.4539 1024.95 59.458 1024.95 59.46C1024.95 59.46 1021.58 49.0201 1022.02 39.6923C1022.47 30.3646 1025.33 32.2528 1025.33 32.2528Z" fill="url(#paint67_linear_399_3610)"/>
<g opacity="0.2">
<path d="M1042.84 85.4469L1042.84 85.4454H1042.84L1042.84 85.4469Z" fill="#999999"/>
<path d="M1029.13 60.2957L1029.12 60.2861L1029.13 60.2764L1029.13 60.2957Z" fill="#999999"/>
<path d="M1025.33 32.2527C1025.33 32.2527 1025.34 32.2649 1025.34 32.267C1026.92 25.0929 1029.33 19.1425 1031.22 15.1534C1029.86 19.6187 1028.44 25.3725 1027.63 31.8881L1027.62 31.8739C1027.62 31.8739 1024.76 29.8479 1025.05 39.99C1025.34 49.7716 1029.12 60.2885 1029.12 60.2885C1029.12 60.2885 1026.32 61.3461 1029.89 68.585C1033.37 75.6517 1042.84 85.4474 1042.84 85.4474C1040.78 86.9385 1042.72 92.4209 1048.31 99.443C1053.51 105.969 1055.11 114.253 1055.11 114.253C1055.11 114.253 1051.62 106.613 1046.52 100.565C1040.02 92.8484 1036.44 87.678 1038.89 86.0147L1038.89 86.0167C1038.89 86.0167 1038.89 86.0147 1038.89 86.0126C1038.89 86.0126 1028.63 75.4086 1025.2 67.959C1021.76 60.5094 1024.95 59.4599 1024.95 59.4599C1024.95 59.4599 1024.96 59.468 1024.96 59.4701C1024.96 59.464 1024.96 59.4559 1024.95 59.4498C1024.95 59.4538 1024.95 59.4579 1024.95 59.4599C1024.95 59.4599 1021.58 49.02 1022.02 39.6923C1022.47 30.3646 1025.33 32.2527 1025.33 32.2527Z" fill="#999999"/>
</g>
<path d="M1054.15 98.4424C1053.01 97.2491 1047.51 91.7607 1038.72 86.1649C1038.78 86.1142 1038.82 86.0575 1038.89 86.0129L1038.89 86.0149C1038.89 86.0149 1038.89 86.0149 1038.89 86.0129C1038.89 86.0129 1038.74 85.861 1038.52 85.6199C1046.95 90.9381 1052.45 96.2139 1054.09 97.8873C1053.24 90.2817 1051.67 82.4411 1049.31 74.2682C1047.74 72.8783 1038.64 65.1613 1024.76 59.5554C1024.87 59.4865 1024.95 59.4581 1024.95 59.4581C1024.95 59.4581 1024.96 59.4662 1024.96 59.4683C1024.96 59.4622 1024.96 59.4541 1024.95 59.448C1024.95 59.452 1024.95 59.4561 1024.95 59.4581C1024.95 59.4581 1024.92 59.3589 1024.88 59.2191C1037.88 64.4745 1046.72 71.5777 1049.12 73.6463C1047.94 69.6165 1046.61 65.5199 1045.06 61.32C1044.31 59.2819 1043.54 57.2478 1042.76 55.2096C1041.67 52.3125 1040.58 49.3707 1039.51 46.4087C1038.13 44.6522 1033.05 38.5559 1024.86 32.1031C1025.15 32.1315 1025.33 32.253 1025.33 32.253C1025.33 32.253 1025.33 32.2652 1025.33 32.2672C1025.35 32.1983 1025.37 32.1335 1025.38 32.0626C1032.53 37.7414 1037.25 43.1104 1039.18 45.4565C1037.1 39.5669 1035.21 33.5537 1034.05 27.3541C1033.17 22.6822 1032.45 17.7003 1032.61 13.1256C1032.78 13.0465 1032.97 13.0101 1033.15 12.9999C1032.98 17.5523 1033.71 22.5505 1034.59 27.2346C1035.69 33.1404 1037.47 38.8862 1039.44 44.5225C1038.98 41.526 1038.57 35.8836 1040.19 29.0053C1040.21 29.0499 1040.23 29.0924 1040.25 29.137C1040.34 29.1167 1040.42 29.1451 1040.51 29.133C1038.3 38.5438 1039.91 45.6084 1040.17 46.6133C1041.18 49.4294 1042.22 52.2253 1043.27 54.9807C1044.04 57.0188 1044.81 59.055 1045.56 61.0952C1047 64.9831 1048.23 68.7757 1049.35 72.5178C1049.11 68.8649 1049.01 60.2017 1052.21 50.645C1052.24 50.7808 1052.26 50.878 1052.26 50.878C1052.26 50.876 1052.26 50.872 1052.26 50.8699C1052.26 50.874 1052.26 50.878 1052.26 50.88C1052.35 50.88 1052.42 50.8942 1052.5 50.8983C1048.78 62.1081 1049.59 72.0659 1049.8 73.9967C1052.13 82.0663 1053.71 89.8137 1054.58 97.3342C1055.22 94.2405 1057.34 85.6523 1062.39 78.1338C1062.39 78.2716 1062.39 78.3607 1062.39 78.3607L1062.38 78.3425C1062.39 78.3567 1062.39 78.3688 1062.39 78.383L1062.39 78.3627C1062.46 78.387 1062.5 78.4397 1062.57 78.4681C1056.75 87.19 1054.89 97.318 1054.7 98.4465C1055.25 103.635 1055.51 108.726 1055.38 113.723C1055.38 113.725 1055.37 113.727 1055.37 113.727C1055.21 114.059 1055.1 114.251 1055.1 114.251C1055.1 114.251 1055 114.037 1054.83 113.678C1054.96 108.696 1054.71 103.617 1054.15 98.4424Z" fill="url(#paint68_linear_399_3610)"/>
<g opacity="0.3">
<path d="M1059.37 66.634C1059.7 68.7977 1059.93 71.075 1060.06 73.4028C1060.08 73.8952 1059.74 74.3186 1059.29 74.349C1059.12 74.3612 1058.96 74.3145 1058.82 74.2254C1058.6 74.0795 1058.44 73.8182 1058.42 73.5123C1058.3 71.2756 1058.07 68.9983 1057.76 66.9237C1057.68 66.4375 1057.98 65.9776 1058.43 65.8965C1058.87 65.8175 1059.3 66.1457 1059.37 66.634Z" fill="white"/>
<path d="M1043.27 34.9332C1043.66 34.6759 1044.16 34.8136 1044.4 35.235C1046.7 39.4005 1048.9 46.301 1050.07 51.3437C1050.12 51.676 1050.25 51.988 1050.43 52.2717C1050.84 52.92 1051.55 53.3212 1052.27 53.3232C1052.99 53.3232 1053.63 53.5157 1054.24 53.9087L1054.24 53.9107C1056.06 55.0979 1057.53 58.0032 1058.59 62.5435C1058.7 63.0216 1058.44 63.5099 1058 63.6314C1057.78 63.6922 1057.56 63.6517 1057.38 63.5342C1057.2 63.4167 1057.06 63.2263 1057 62.9892C1056.08 59.0365 1054.8 56.3581 1053.4 55.4484L1053.4 55.4464C1053.04 55.2155 1052.69 55.1121 1052.26 55.1121C1051.02 55.1121 1049.81 54.4253 1049.08 53.2988C1048.77 52.8085 1048.56 52.2636 1048.47 51.7328C1047.34 46.8704 1045.21 40.1684 1042.99 36.163C1042.76 35.7375 1042.89 35.1885 1043.27 34.9332Z" fill="white"/>
</g>
<path d="M1267.71 108.908C1246.28 71.4031 1207.09 43.9528 1160.22 38.6184C1113.36 33.2839 1069.82 51.3153 1041.77 83.1904L1267.71 108.908Z" fill="url(#paint69_linear_399_3610)"/>
<path d="M1685.74 203C1474.44 122.394 1121.13 69.5514 720.868 69.5514C320.605 69.5514 -32.7058 122.394 -244 203H1685.74Z" fill="url(#paint70_linear_399_3610)"/>
<g opacity="0.2">
<path d="M344.136 94.0761C299.6 98.0694 255.403 102.837 212.766 108.252C210.808 108.497 209.405 110.436 209.634 112.574C209.845 114.559 211.387 116.022 213.173 116.022C213.312 116.022 213.451 116.01 213.59 115.993C256.145 110.588 300.262 105.829 344.719 101.842C346.684 101.666 348.146 99.7874 347.985 97.6439C347.825 95.4943 346.12 93.8553 344.136 94.0761Z" fill="white"/>
<path d="M1228.97 108.252C1071.35 88.2271 895.651 77.6413 720.869 77.6413C604.913 77.6413 489.861 82.1795 378.906 91.1141C376.941 91.2722 375.464 93.1401 375.608 95.2897C375.753 97.4332 377.438 99.0075 379.433 98.89C490.213 89.9614 605.091 85.4414 720.871 85.4414C895.38 85.4414 1070.79 96.0049 1228.15 115.993C1228.29 116.012 1228.43 116.022 1228.56 116.022C1230.35 116.022 1231.9 114.557 1232.1 112.574C1232.33 110.436 1230.93 108.499 1228.97 108.252Z" fill="white"/>
</g>
<path d="M971.79 203C916.84 146.385 824.96 109.271 720.868 109.271C616.776 109.271 524.895 146.385 469.945 203H971.79Z" fill="url(#paint71_linear_399_3610)"/>
<path d="M971.79 203C916.84 146.385 824.96 109.271 720.868 109.271C616.776 109.271 524.895 146.385 469.945 203H971.79Z" fill="url(#paint72_linear_399_3610)" fill-opacity="0.2"/>
<path d="M1151.84 203C1128.74 179.205 1090.12 163.604 1046.37 163.604C1002.62 163.604 964.003 179.205 940.908 203H1151.84Z" fill="url(#paint73_linear_399_3610)"/>
<path d="M1151.84 203C1128.74 179.205 1090.12 163.604 1046.37 163.604C1002.62 163.604 964.003 179.205 940.908 203H1151.84Z" fill="url(#paint74_linear_399_3610)" fill-opacity="0.2"/>
<path d="M343.421 203C320.326 179.205 281.705 163.604 237.955 163.604C194.204 163.604 155.585 179.205 132.49 203H343.421Z" fill="url(#paint75_linear_399_3610)"/>
<path d="M343.421 203C320.326 179.205 281.705 163.604 237.955 163.604C194.204 163.604 155.585 179.205 132.49 203H343.421Z" fill="url(#paint76_linear_399_3610)" fill-opacity="0.2"/>
<defs>
<linearGradient id="paint0_linear_399_3610" x1="734.213" y1="76.8576" x2="748.056" y2="3.70392" gradientUnits="userSpaceOnUse">
<stop stop-color="#1C7042"/>
<stop offset="1" stop-color="#3CC677"/>
</linearGradient>
<linearGradient id="paint1_linear_399_3610" x1="734.696" y1="76.5562" x2="748.936" y2="1.30907" gradientUnits="userSpaceOnUse">
<stop stop-color="#115630"/>
<stop offset="1" stop-color="#05351B"/>
</linearGradient>
<linearGradient id="paint2_linear_399_3610" x1="735.607" y1="76.709" x2="749.831" y2="1.54521" gradientUnits="userSpaceOnUse">
<stop stop-color="#115630"/>
<stop offset="1" stop-color="#05351B"/>
</linearGradient>
<linearGradient id="paint3_linear_399_3610" x1="744.05" y1="70.1352" x2="744.08" y2="69.3455" gradientUnits="userSpaceOnUse">
<stop stop-color="#EBF2EE"/>
<stop offset="0.0906" stop-color="#EEF4F1"/>
<stop offset="0.5539" stop-color="#FBFCFB"/>
<stop offset="1" stop-color="white"/>
</linearGradient>
<linearGradient id="paint4_linear_399_3610" x1="744.026" y1="70.1342" x2="744.056" y2="69.3445" gradientUnits="userSpaceOnUse">
<stop stop-color="#EBF2EE"/>
<stop offset="0.0906" stop-color="#EEF4F1"/>
<stop offset="0.5539" stop-color="#FBFCFB"/>
<stop offset="1" stop-color="white"/>
</linearGradient>
<linearGradient id="paint5_linear_399_3610" x1="737.887" y1="68.7759" x2="737.696" y2="68.0131" gradientUnits="userSpaceOnUse">
<stop stop-color="#EBF2EE"/>
<stop offset="0.0906" stop-color="#EEF4F1"/>
<stop offset="0.5539" stop-color="#FBFCFB"/>
<stop offset="1" stop-color="white"/>
</linearGradient>
<linearGradient id="paint6_linear_399_3610" x1="737.864" y1="68.7819" x2="737.672" y2="68.019" gradientUnits="userSpaceOnUse">
<stop stop-color="#EBF2EE"/>
<stop offset="0.0906" stop-color="#EEF4F1"/>
<stop offset="0.5539" stop-color="#FBFCFB"/>
<stop offset="1" stop-color="white"/>
</linearGradient>
<linearGradient id="paint7_linear_399_3610" x1="751.312" y1="35.3716" x2="766.064" y2="27.3071" gradientUnits="userSpaceOnUse">
<stop stop-color="#1C7042"/>
<stop offset="1" stop-color="#3CC677"/>
</linearGradient>
<linearGradient id="paint8_linear_399_3610" x1="751.421" y1="35.3779" x2="766.529" y2="27.1184" gradientUnits="userSpaceOnUse">
<stop stop-color="#115630"/>
<stop offset="1" stop-color="#05351B"/>
</linearGradient>
<linearGradient id="paint9_linear_399_3610" x1="751.562" y1="35.5846" x2="766.577" y2="27.3759" gradientUnits="userSpaceOnUse">
<stop stop-color="#115630"/>
<stop offset="1" stop-color="#05351B"/>
</linearGradient>
<linearGradient id="paint10_linear_399_3610" x1="732.671" y1="31.6155" x2="719.672" y2="20.4957" gradientUnits="userSpaceOnUse">
<stop stop-color="#1C7042"/>
<stop offset="1" stop-color="#3CC677"/>
</linearGradient>
<linearGradient id="paint11_linear_399_3610" x1="725.175" y1="33.4074" x2="725.912" y2="17.1427" gradientUnits="userSpaceOnUse">
<stop stop-color="#115630"/>
<stop offset="1" stop-color="#05351B"/>
</linearGradient>
<linearGradient id="paint12_linear_399_3610" x1="725.663" y1="32.9854" x2="726.326" y2="18.369" gradientUnits="userSpaceOnUse">
<stop stop-color="#115630"/>
<stop offset="1" stop-color="#05351B"/>
</linearGradient>
<linearGradient id="paint13_linear_399_3610" x1="734.332" y1="45.758" x2="734.363" y2="44.9682" gradientUnits="userSpaceOnUse">
<stop stop-color="#EBF2EE"/>
<stop offset="0.0906" stop-color="#EEF4F1"/>
<stop offset="0.5539" stop-color="#FBFCFB"/>
<stop offset="1" stop-color="white"/>
</linearGradient>
<linearGradient id="paint14_linear_399_3610" x1="734.308" y1="45.757" x2="734.338" y2="44.9675" gradientUnits="userSpaceOnUse">
<stop stop-color="#EBF2EE"/>
<stop offset="0.0906" stop-color="#EEF4F1"/>
<stop offset="0.5539" stop-color="#FBFCFB"/>
<stop offset="1" stop-color="white"/>
</linearGradient>
<linearGradient id="paint15_linear_399_3610" x1="745.233" y1="26.5967" x2="745.263" y2="25.807" gradientUnits="userSpaceOnUse">
<stop stop-color="#EBF2EE"/>
<stop offset="0.0906" stop-color="#EEF4F1"/>
<stop offset="0.5539" stop-color="#FBFCFB"/>
<stop offset="1" stop-color="white"/>
</linearGradient>
<linearGradient id="paint16_linear_399_3610" x1="745.209" y1="26.5957" x2="745.239" y2="25.806" gradientUnits="userSpaceOnUse">
<stop stop-color="#EBF2EE"/>
<stop offset="0.0906" stop-color="#EEF4F1"/>
<stop offset="0.5539" stop-color="#FBFCFB"/>
<stop offset="1" stop-color="white"/>
</linearGradient>
<linearGradient id="paint17_linear_399_3610" x1="752.816" y1="21.4428" x2="752.846" y2="20.6533" gradientUnits="userSpaceOnUse">
<stop stop-color="#EBF2EE"/>
<stop offset="0.0906" stop-color="#EEF4F1"/>
<stop offset="0.5539" stop-color="#FBFCFB"/>
<stop offset="1" stop-color="white"/>
</linearGradient>
<linearGradient id="paint18_linear_399_3610" x1="752.791" y1="21.442" x2="752.822" y2="20.6522" gradientUnits="userSpaceOnUse">
<stop stop-color="#EBF2EE"/>
<stop offset="0.0906" stop-color="#EEF4F1"/>
<stop offset="0.5539" stop-color="#FBFCFB"/>
<stop offset="1" stop-color="white"/>
</linearGradient>
<linearGradient id="paint19_linear_399_3610" x1="753.876" y1="32.6383" x2="754.395" y2="32.0833" gradientUnits="userSpaceOnUse">
<stop stop-color="#EBF2EE"/>
<stop offset="0.0906" stop-color="#EEF4F1"/>
<stop offset="0.5539" stop-color="#FBFCFB"/>
<stop offset="1" stop-color="white"/>
</linearGradient>
<linearGradient id="paint20_linear_399_3610" x1="753.858" y1="32.6211" x2="754.377" y2="32.0662" gradientUnits="userSpaceOnUse">
<stop stop-color="#EBF2EE"/>
<stop offset="0.0906" stop-color="#EEF4F1"/>
<stop offset="0.5539" stop-color="#FBFCFB"/>
<stop offset="1" stop-color="white"/>
</linearGradient>
<linearGradient id="paint21_linear_399_3610" x1="758.668" y1="22.7499" x2="759.187" y2="22.1947" gradientUnits="userSpaceOnUse">
<stop stop-color="#EBF2EE"/>
<stop offset="0.0906" stop-color="#EEF4F1"/>
<stop offset="0.5539" stop-color="#FBFCFB"/>
<stop offset="1" stop-color="white"/>
</linearGradient>
<linearGradient id="paint22_linear_399_3610" x1="758.65" y1="22.7328" x2="759.169" y2="22.1779" gradientUnits="userSpaceOnUse">
<stop stop-color="#EBF2EE"/>
<stop offset="0.0906" stop-color="#EEF4F1"/>
<stop offset="0.5539" stop-color="#FBFCFB"/>
<stop offset="1" stop-color="white"/>
</linearGradient>
<linearGradient id="paint23_linear_399_3610" x1="766.318" y1="32.7888" x2="767.027" y2="32.628" gradientUnits="userSpaceOnUse">
<stop stop-color="#EBF2EE"/>
<stop offset="0.0906" stop-color="#EEF4F1"/>
<stop offset="0.5539" stop-color="#FBFCFB"/>
<stop offset="1" stop-color="white"/>
</linearGradient>
<linearGradient id="paint24_linear_399_3610" x1="766.312" y1="32.7636" x2="767.021" y2="32.6026" gradientUnits="userSpaceOnUse">
<stop stop-color="#EBF2EE"/>
<stop offset="0.0906" stop-color="#EEF4F1"/>
<stop offset="0.5539" stop-color="#FBFCFB"/>
<stop offset="1" stop-color="white"/>
</linearGradient>
<linearGradient id="paint25_linear_399_3610" x1="760.393" y1="34.4099" x2="761.069" y2="34.1235" gradientUnits="userSpaceOnUse">
<stop stop-color="#EBF2EE"/>
<stop offset="0.0906" stop-color="#EEF4F1"/>
<stop offset="0.5539" stop-color="#FBFCFB"/>
<stop offset="1" stop-color="white"/>
</linearGradient>
<linearGradient id="paint26_linear_399_3610" x1="760.382" y1="34.3862" x2="761.058" y2="34.0995" gradientUnits="userSpaceOnUse">
<stop stop-color="#EBF2EE"/>
<stop offset="0.0906" stop-color="#EEF4F1"/>
<stop offset="0.5539" stop-color="#FBFCFB"/>
<stop offset="1" stop-color="white"/>
</linearGradient>
<linearGradient id="paint27_linear_399_3610" x1="755.431" y1="37.8931" x2="756.107" y2="37.6066" gradientUnits="userSpaceOnUse">
<stop stop-color="#EBF2EE"/>
<stop offset="0.0906" stop-color="#EEF4F1"/>
<stop offset="0.5539" stop-color="#FBFCFB"/>
<stop offset="1" stop-color="white"/>
</linearGradient>
<linearGradient id="paint28_linear_399_3610" x1="755.421" y1="37.8693" x2="756.098" y2="37.5826" gradientUnits="userSpaceOnUse">
<stop stop-color="#EBF2EE"/>
<stop offset="0.0906" stop-color="#EEF4F1"/>
<stop offset="0.5539" stop-color="#FBFCFB"/>
<stop offset="1" stop-color="white"/>
</linearGradient>
<linearGradient id="paint29_linear_399_3610" x1="761.511" y1="27.8584" x2="762.188" y2="27.5717" gradientUnits="userSpaceOnUse">
<stop stop-color="#EBF2EE"/>
<stop offset="0.0906" stop-color="#EEF4F1"/>
<stop offset="0.5539" stop-color="#FBFCFB"/>
<stop offset="1" stop-color="white"/>
</linearGradient>
<linearGradient id="paint30_linear_399_3610" x1="761.502" y1="27.8346" x2="762.178" y2="27.548" gradientUnits="userSpaceOnUse">
<stop stop-color="#EBF2EE"/>
<stop offset="0.0906" stop-color="#EEF4F1"/>
<stop offset="0.5539" stop-color="#FBFCFB"/>
<stop offset="1" stop-color="white"/>
</linearGradient>
<linearGradient id="paint31_linear_399_3610" x1="739.866" y1="61.2375" x2="739.896" y2="60.4479" gradientUnits="userSpaceOnUse">
<stop stop-color="#EBF2EE"/>
<stop offset="0.0906" stop-color="#EEF4F1"/>
<stop offset="0.5539" stop-color="#FBFCFB"/>
<stop offset="1" stop-color="white"/>
</linearGradient>
<linearGradient id="paint32_linear_399_3610" x1="739.841" y1="61.2367" x2="739.872" y2="60.4469" gradientUnits="userSpaceOnUse">
<stop stop-color="#EBF2EE"/>
<stop offset="0.0906" stop-color="#EEF4F1"/>
<stop offset="0.5539" stop-color="#FBFCFB"/>
<stop offset="1" stop-color="white"/>
</linearGradient>
<linearGradient id="paint33_linear_399_3610" x1="746.863" y1="57.4843" x2="746.894" y2="56.6946" gradientUnits="userSpaceOnUse">
<stop stop-color="#EBF2EE"/>
<stop offset="0.0906" stop-color="#EEF4F1"/>
<stop offset="0.5539" stop-color="#FBFCFB"/>
<stop offset="1" stop-color="white"/>
</linearGradient>
<linearGradient id="paint34_linear_399_3610" x1="746.839" y1="57.4833" x2="746.87" y2="56.6938" gradientUnits="userSpaceOnUse">
<stop stop-color="#EBF2EE"/>
<stop offset="0.0906" stop-color="#EEF4F1"/>
<stop offset="0.5539" stop-color="#FBFCFB"/>
<stop offset="1" stop-color="white"/>
</linearGradient>
<linearGradient id="paint35_linear_399_3610" x1="736.699" y1="13.3797" x2="736.73" y2="12.5902" gradientUnits="userSpaceOnUse">
<stop stop-color="#EBF2EE"/>
<stop offset="0.0906" stop-color="#EEF4F1"/>
<stop offset="0.5539" stop-color="#FBFCFB"/>
<stop offset="1" stop-color="white"/>
</linearGradient>
<linearGradient id="paint36_linear_399_3610" x1="736.675" y1="13.3789" x2="736.706" y2="12.5891" gradientUnits="userSpaceOnUse">
<stop stop-color="#EBF2EE"/>
<stop offset="0.0906" stop-color="#EEF4F1"/>
<stop offset="0.5539" stop-color="#FBFCFB"/>
<stop offset="1" stop-color="white"/>
</linearGradient>
<linearGradient id="paint37_linear_399_3610" x1="748.107" y1="11.1128" x2="748.138" y2="10.3231" gradientUnits="userSpaceOnUse">
<stop stop-color="#EBF2EE"/>
<stop offset="0.0906" stop-color="#EEF4F1"/>
<stop offset="0.5539" stop-color="#FBFCFB"/>
<stop offset="1" stop-color="white"/>
</linearGradient>
<linearGradient id="paint38_linear_399_3610" x1="748.083" y1="11.1118" x2="748.114" y2="10.3223" gradientUnits="userSpaceOnUse">
<stop stop-color="#EBF2EE"/>
<stop offset="0.0906" stop-color="#EEF4F1"/>
<stop offset="0.5539" stop-color="#FBFCFB"/>
<stop offset="1" stop-color="white"/>
</linearGradient>
<linearGradient id="paint39_linear_399_3610" x1="741.277" y1="1.41193" x2="741.308" y2="0.622145" gradientUnits="userSpaceOnUse">
<stop stop-color="#EBF2EE"/>
<stop offset="0.0906" stop-color="#EEF4F1"/>
<stop offset="0.5539" stop-color="#FBFCFB"/>
<stop offset="1" stop-color="white"/>
</linearGradient>
<linearGradient id="paint40_linear_399_3610" x1="741.253" y1="1.41093" x2="741.284" y2="0.621373" gradientUnits="userSpaceOnUse">
<stop stop-color="#EBF2EE"/>
<stop offset="0.0906" stop-color="#EEF4F1"/>
<stop offset="0.5539" stop-color="#FBFCFB"/>
<stop offset="1" stop-color="white"/>
</linearGradient>
<linearGradient id="paint41_linear_399_3610" x1="749.158" y1="50.0177" x2="749.188" y2="49.228" gradientUnits="userSpaceOnUse">
<stop stop-color="#EBF2EE"/>
<stop offset="0.0906" stop-color="#EEF4F1"/>
<stop offset="0.5539" stop-color="#FBFCFB"/>
<stop offset="1" stop-color="white"/>
</linearGradient>
<linearGradient id="paint42_linear_399_3610" x1="749.134" y1="50.0167" x2="749.164" y2="49.2269" gradientUnits="userSpaceOnUse">
<stop stop-color="#EBF2EE"/>
<stop offset="0.0906" stop-color="#EEF4F1"/>
<stop offset="0.5539" stop-color="#FBFCFB"/>
<stop offset="1" stop-color="white"/>
</linearGradient>
<linearGradient id="paint43_linear_399_3610" x1="744.501" y1="45.2391" x2="744.532" y2="44.4496" gradientUnits="userSpaceOnUse">
<stop stop-color="#EBF2EE"/>
<stop offset="0.0906" stop-color="#EEF4F1"/>
<stop offset="0.5539" stop-color="#FBFCFB"/>
<stop offset="1" stop-color="white"/>
</linearGradient>
<linearGradient id="paint44_linear_399_3610" x1="744.477" y1="45.2382" x2="744.507" y2="44.4486" gradientUnits="userSpaceOnUse">
<stop stop-color="#EBF2EE"/>
<stop offset="0.0906" stop-color="#EEF4F1"/>
<stop offset="0.5539" stop-color="#FBFCFB"/>
<stop offset="1" stop-color="white"/>
</linearGradient>
<linearGradient id="paint45_linear_399_3610" x1="740.933" y1="37.1507" x2="740.964" y2="36.3612" gradientUnits="userSpaceOnUse">
<stop stop-color="#EBF2EE"/>
<stop offset="0.0906" stop-color="#EEF4F1"/>
<stop offset="0.5539" stop-color="#FBFCFB"/>
<stop offset="1" stop-color="white"/>
</linearGradient>
<linearGradient id="paint46_linear_399_3610" x1="740.909" y1="37.1499" x2="740.939" y2="36.3602" gradientUnits="userSpaceOnUse">
<stop stop-color="#EBF2EE"/>
<stop offset="0.0906" stop-color="#EEF4F1"/>
<stop offset="0.5539" stop-color="#FBFCFB"/>
<stop offset="1" stop-color="white"/>
</linearGradient>
<linearGradient id="paint47_linear_399_3610" x1="733.601" y1="24.8777" x2="733.631" y2="24.0879" gradientUnits="userSpaceOnUse">
<stop stop-color="#EBF2EE"/>
<stop offset="0.0906" stop-color="#EEF4F1"/>
<stop offset="0.5539" stop-color="#FBFCFB"/>
<stop offset="1" stop-color="white"/>
</linearGradient>
<linearGradient id="paint48_linear_399_3610" x1="733.576" y1="24.8767" x2="733.607" y2="24.0869" gradientUnits="userSpaceOnUse">
<stop stop-color="#EBF2EE"/>
<stop offset="0.0906" stop-color="#EEF4F1"/>
<stop offset="0.5539" stop-color="#FBFCFB"/>
<stop offset="1" stop-color="white"/>
</linearGradient>
<linearGradient id="paint49_linear_399_3610" x1="722.32" y1="28.1726" x2="721.991" y2="27.4664" gradientUnits="userSpaceOnUse">
<stop stop-color="#EBF2EE"/>
<stop offset="0.0906" stop-color="#EEF4F1"/>
<stop offset="0.5539" stop-color="#FBFCFB"/>
<stop offset="1" stop-color="white"/>
</linearGradient>
<linearGradient id="paint50_linear_399_3610" x1="722.298" y1="28.1828" x2="721.97" y2="27.4766" gradientUnits="userSpaceOnUse">
<stop stop-color="#EBF2EE"/>
<stop offset="0.0906" stop-color="#EEF4F1"/>
<stop offset="0.5539" stop-color="#FBFCFB"/>
<stop offset="1" stop-color="white"/>
</linearGradient>
<linearGradient id="paint51_linear_399_3610" x1="729.813" y1="29.1009" x2="729.385" y2="28.4596" gradientUnits="userSpaceOnUse">
<stop stop-color="#EBF2EE"/>
<stop offset="0.0906" stop-color="#EEF4F1"/>
<stop offset="0.5539" stop-color="#FBFCFB"/>
<stop offset="1" stop-color="white"/>
</linearGradient>
<linearGradient id="paint52_linear_399_3610" x1="729.792" y1="29.1143" x2="729.365" y2="28.473" gradientUnits="userSpaceOnUse">
<stop stop-color="#EBF2EE"/>
<stop offset="0.0906" stop-color="#EEF4F1"/>
<stop offset="0.5539" stop-color="#FBFCFB"/>
<stop offset="1" stop-color="white"/>
</linearGradient>
<linearGradient id="paint53_linear_399_3610" x1="728.462" y1="20.4848" x2="728.035" y2="19.8437" gradientUnits="userSpaceOnUse">
<stop stop-color="#EBF2EE"/>
<stop offset="0.0906" stop-color="#EEF4F1"/>
<stop offset="0.5539" stop-color="#FBFCFB"/>
<stop offset="1" stop-color="white"/>
</linearGradient>
<linearGradient id="paint54_linear_399_3610" x1="728.441" y1="20.4981" x2="728.014" y2="19.857" gradientUnits="userSpaceOnUse">
<stop stop-color="#EBF2EE"/>
<stop offset="0.0906" stop-color="#EEF4F1"/>
<stop offset="0.5539" stop-color="#FBFCFB"/>
<stop offset="1" stop-color="white"/>
</linearGradient>
<linearGradient id="paint55_linear_399_3610" x1="721.11" y1="21.8398" x2="720.682" y2="21.1987" gradientUnits="userSpaceOnUse">
<stop stop-color="#EBF2EE"/>
<stop offset="0.0906" stop-color="#EEF4F1"/>
<stop offset="0.5539" stop-color="#FBFCFB"/>
<stop offset="1" stop-color="white"/>
</linearGradient>
<linearGradient id="paint56_linear_399_3610" x1="721.089" y1="21.8532" x2="720.661" y2="21.212" gradientUnits="userSpaceOnUse">
<stop stop-color="#EBF2EE"/>
<stop offset="0.0906" stop-color="#EEF4F1"/>
<stop offset="0.5539" stop-color="#FBFCFB"/>
<stop offset="1" stop-color="white"/>
</linearGradient>
<linearGradient id="paint57_linear_399_3610" x1="724.025" y1="17.1341" x2="723.597" y2="16.4927" gradientUnits="userSpaceOnUse">
<stop stop-color="#EBF2EE"/>
<stop offset="0.0906" stop-color="#EEF4F1"/>
<stop offset="0.5539" stop-color="#FBFCFB"/>
<stop offset="1" stop-color="white"/>
</linearGradient>
<linearGradient id="paint58_linear_399_3610" x1="724.004" y1="17.1473" x2="723.577" y2="16.5063" gradientUnits="userSpaceOnUse">
<stop stop-color="#EBF2EE"/>
<stop offset="0.0906" stop-color="#EEF4F1"/>
<stop offset="0.5539" stop-color="#FBFCFB"/>
<stop offset="1" stop-color="white"/>
</linearGradient>
<linearGradient id="paint59_linear_399_3610" x1="451.044" y1="43.1936" x2="405.157" y2="88.6165" gradientUnits="userSpaceOnUse">
<stop stop-color="#115630"/>
<stop offset="1" stop-color="#05351B"/>
</linearGradient>
<linearGradient id="paint60_linear_399_3610" x1="412.863" y1="87.0358" x2="456.403" y2="47.1577" gradientUnits="userSpaceOnUse">
<stop stop-color="#1C7042"/>
<stop offset="1" stop-color="#3CC677"/>
</linearGradient>
<linearGradient id="paint61_linear_399_3610" x1="424.089" y1="14.1053" x2="395.588" y2="77.2415" gradientUnits="userSpaceOnUse">
<stop stop-color="#115630"/>
<stop offset="1" stop-color="#05351B"/>
</linearGradient>
<linearGradient id="paint62_linear_399_3610" x1="401.293" y1="72.061" x2="429.726" y2="15.4039" gradientUnits="userSpaceOnUse">
<stop stop-color="#1C7042"/>
<stop offset="1" stop-color="#3CC677"/>
</linearGradient>
<linearGradient id="paint63_linear_399_3610" x1="330.277" y1="47.3967" x2="325.7" y2="94.8182" gradientUnits="userSpaceOnUse">
<stop stop-color="#FFAA39"/>
<stop offset="1" stop-color="#EF771D"/>
</linearGradient>
<linearGradient id="paint64_linear_399_3610" x1="475.508" y1="53.2745" x2="470.614" y2="78.4893" gradientUnits="userSpaceOnUse">
<stop stop-color="#FFAA39"/>
<stop offset="1" stop-color="#EF771D"/>
</linearGradient>
<linearGradient id="paint65_linear_399_3610" x1="1046.94" y1="97.1497" x2="976.11" y2="57.5839" gradientUnits="userSpaceOnUse">
<stop stop-color="#1C7042"/>
<stop offset="1" stop-color="#3CC677"/>
</linearGradient>
<linearGradient id="paint66_linear_399_3610" x1="975.002" y1="53.5235" x2="1044.47" y2="85.8916" gradientUnits="userSpaceOnUse">
<stop stop-color="#115630"/>
<stop offset="1" stop-color="#05351B"/>
</linearGradient>
<linearGradient id="paint67_linear_399_3610" x1="1055.84" y1="117.061" x2="1028" y2="23.8752" gradientUnits="userSpaceOnUse">
<stop stop-color="#1C7042"/>
<stop offset="1" stop-color="#3CC677"/>
</linearGradient>
<linearGradient id="paint68_linear_399_3610" x1="1027.67" y1="20.2854" x2="1061.2" y2="105.955" gradientUnits="userSpaceOnUse">
<stop stop-color="#115630"/>
<stop offset="1" stop-color="#05351B"/>
</linearGradient>
<linearGradient id="paint69_linear_399_3610" x1="1168.64" y1="35.1166" x2="1143.34" y2="96.7782" gradientUnits="userSpaceOnUse">
<stop stop-color="#FFAA39"/>
<stop offset="1" stop-color="#EF771D"/>
</linearGradient>
<linearGradient id="paint70_linear_399_3610" x1="764" y1="70" x2="763.516" y2="202.998" gradientUnits="userSpaceOnUse">
<stop stop-color="#FFAA39"/>
<stop offset="1" stop-color="#EF771D"/>
</linearGradient>
<linearGradient id="paint71_linear_399_3610" x1="738.617" y1="109" x2="735.561" y2="202.901" gradientUnits="userSpaceOnUse">
<stop stop-color="#FFAA39"/>
<stop offset="1" stop-color="#EF771D"/>
</linearGradient>
<linearGradient id="paint72_linear_399_3610" x1="787.5" y1="92.5" x2="775.5" y2="148" gradientUnits="userSpaceOnUse">
<stop stop-color="white"/>
<stop offset="1" stop-color="white" stop-opacity="0"/>
</linearGradient>
<linearGradient id="paint73_linear_399_3610" x1="1053.83" y1="160.579" x2="1052.45" y2="202.955" gradientUnits="userSpaceOnUse">
<stop stop-color="#FFAA39"/>
<stop offset="1" stop-color="#EF771D"/>
</linearGradient>
<linearGradient id="paint74_linear_399_3610" x1="1086" y1="146" x2="1079.5" y2="174" gradientUnits="userSpaceOnUse">
<stop stop-color="white"/>
<stop offset="1" stop-opacity="0"/>
</linearGradient>
<linearGradient id="paint75_linear_399_3610" x1="245.416" y1="160.579" x2="244.037" y2="202.955" gradientUnits="userSpaceOnUse">
<stop stop-color="#FFAA39"/>
<stop offset="1" stop-color="#EF771D"/>
</linearGradient>
<linearGradient id="paint76_linear_399_3610" x1="267" y1="159" x2="263" y2="175" gradientUnits="userSpaceOnUse">
<stop stop-color="white"/>
<stop offset="1" stop-color="white" stop-opacity="0"/>
</linearGradient>
</defs>
</svg>
