<svg width="430" height="144" viewBox="0 0 430 144" fill="none" xmlns="http://www.w3.org/2000/svg">
<path d="M293.283 20.6493C293.283 -6.81004 266.18 -6.81004 266.18 20.6493C266.18 55.2984 272.247 83.3873 279.731 83.3873C287.215 83.3873 293.283 55.2984 293.283 20.6493Z" fill="url(#paint0_linear_292_3268)"/>
<path opacity="0.2" d="M289.756 36.7771C289.756 36.7771 289.863 39.8449 292.362 43.4409C292.551 41.1914 292.714 38.8805 292.847 36.513L289.756 36.7771Z" fill="#999999"/>
<path opacity="0.2" d="M266.903 40.9191C270.461 35.2822 270.111 30.8868 270.111 30.8868L266.373 31.2228C266.495 34.5512 266.673 37.7911 266.903 40.9191Z" fill="#999999"/>
<path d="M279.732 83.4416C277.28 83.4416 274.982 76.8992 273.263 65.0194C271.548 53.1667 270.604 37.4091 270.604 20.6482C270.604 14.2768 271.586 8.92753 273.447 5.17707C275.103 1.83808 277.335 0 279.733 0C282.131 0 284.363 1.83808 286.02 5.17707C287.881 8.92753 288.863 14.2779 288.863 20.6482C288.863 37.4091 287.918 53.1667 286.203 65.0194C284.483 76.8992 282.185 83.4416 279.732 83.4416ZM279.732 0.109634C277.373 0.109634 275.172 1.9277 273.535 5.22895C271.682 8.96291 270.703 14.2956 270.703 20.6482C270.703 55.2123 274.754 83.3308 279.732 83.3308C284.711 83.3308 288.762 55.2112 288.762 20.6482C288.762 14.2956 287.782 8.96291 285.931 5.22895C284.293 1.9277 282.092 0.109634 279.732 0.109634Z" fill="url(#paint1_linear_292_3268)"/>
<path d="M279.732 83.4416C278.532 83.4416 277.739 73.4211 277.285 65.0147C276.644 53.1644 276.291 37.408 276.291 20.6494C276.291 6.46222 278.074 0 279.732 0C281.388 0 283.172 6.46104 283.172 20.6494C283.172 37.408 282.819 53.1644 282.18 65.0147C281.725 73.4211 280.932 83.4416 279.732 83.4416ZM279.732 0.109634C278.072 0.109634 276.391 7.16491 276.391 20.6494C276.391 37.4068 276.745 53.1597 277.384 65.0088C278.277 81.5469 279.322 83.3331 279.731 83.3331C280.139 83.3331 281.184 81.5481 282.077 65.0088C282.718 53.1597 283.07 37.4068 283.07 20.6494C283.072 7.16491 281.392 0.109634 279.732 0.109634Z" fill="url(#paint2_linear_292_3268)"/>
<g opacity="0.4">
<path d="M271.81 4.3151C270.658 5.61792 269.69 7.20485 268.934 9.03233C268.842 9.25281 268.933 9.5122 269.135 9.61242C269.189 9.63954 269.245 9.65135 269.3 9.65135C269.454 9.65135 269.6 9.55582 269.667 9.39311C270.385 7.6576 271.3 6.15436 272.389 4.92347C272.544 4.74897 272.539 4.4719 272.379 4.3033C272.22 4.13588 271.965 4.14061 271.81 4.3151Z" fill="white"/>
<path d="M290.531 9.03238C288.307 3.66194 284.271 0.455017 279.733 0.455017C277.499 0.455017 275.311 1.26147 273.406 2.7883C273.227 2.93096 273.189 3.20566 273.32 3.40138C273.451 3.59592 273.702 3.63838 273.881 3.49572C275.648 2.0809 277.671 1.33223 279.733 1.33223C283.947 1.33223 287.709 4.34578 289.799 9.39316C289.866 9.55587 290.013 9.6514 290.165 9.6514C290.22 9.6514 290.276 9.6384 290.33 9.61246C290.533 9.51225 290.623 9.25286 290.531 9.03238Z" fill="white"/>
</g>
<path d="M281.903 75.2356L281.119 74.5306L281.162 74.4728L281.903 75.1401L282.644 74.4728L282.687 74.5306L281.903 75.2356Z" fill="url(#paint3_linear_292_3268)"/>
<path d="M281.904 75.2191L281.533 74.1498L281.597 74.1238L281.901 75.0022L282.181 74.1238L282.245 74.1486L281.904 75.2191Z" fill="url(#paint4_linear_292_3268)"/>
<path d="M275.331 73.7688L274.406 73.3079L274.434 73.2407L275.308 73.6757L275.866 72.8233L275.921 72.8657L275.331 73.7688Z" fill="url(#paint5_linear_292_3268)"/>
<path d="M275.328 73.7523L274.717 72.8233L274.772 72.7797L275.274 73.5437L275.337 72.6158L275.405 72.6217L275.328 73.7523Z" fill="url(#paint6_linear_292_3268)"/>
<path opacity="0.2" d="M279.718 72.9884C275.883 72.9884 272.389 69.2839 269.762 63.2096C272.224 75.6129 275.773 83.3979 279.718 83.3979C283.663 83.3979 287.212 75.6129 289.674 63.2096C287.046 69.2839 283.553 72.9884 279.718 72.9884Z" fill="#999999"/>
<path d="M306.343 36.5072C310.874 32.258 300.749 19.3913 296.219 23.6405C290.502 29.0027 288.134 36.2289 290.93 39.7825C293.725 43.3349 300.626 41.8682 306.343 36.5072Z" fill="url(#paint7_linear_292_3268)"/>
<path d="M290.9 39.8084C289.017 37.415 292.141 31.1013 297.864 25.7333C300.218 23.5261 303.06 24.77 304.705 26.8604C306.35 28.9508 307.049 32.2061 304.695 34.4144C298.972 39.7813 292.784 42.2018 290.9 39.8084ZM304.65 26.9123C303.028 24.8514 300.228 23.6216 297.912 25.7934C292.22 31.132 289.1 37.3961 290.956 39.7554C292.814 42.1146 298.955 39.6917 304.648 34.3519C306.963 32.1813 306.272 28.9744 304.65 26.9123Z" fill="url(#paint8_linear_292_3268)"/>
<path d="M290.901 39.8084C290.177 38.8888 294.17 33.8921 299.99 28.4332C302.344 26.2261 304.085 26.0705 304.706 26.8592C305.328 27.6492 304.924 29.505 302.571 31.7121C296.751 37.1721 291.625 40.7281 290.901 39.8084ZM304.651 26.9123C304.053 26.1518 302.354 26.3228 300.039 28.4945C297.275 31.0872 294.808 33.6905 293.093 35.8269C291.415 37.9173 290.636 39.3486 290.957 39.7565C291.278 40.1633 292.692 39.5384 294.836 38.0434C297.03 36.5142 299.759 34.2458 302.522 31.6531C303.568 30.6722 304.309 29.6771 304.665 28.774C304.978 27.9828 304.973 27.3214 304.651 26.9123Z" fill="url(#paint9_linear_292_3268)"/>
<path opacity="0.4" d="M306.678 34.0241C306.678 34.0241 306.675 34.0241 306.672 34.0241C306.493 34.0206 306.351 33.8602 306.354 33.6645C306.364 33.0349 306.231 32.3122 305.961 31.5175C305.331 29.6618 304.013 27.6645 302.435 26.1754C302.3 26.048 302.285 25.824 302.401 25.6766C302.519 25.5281 302.723 25.5128 302.858 25.6401C304.54 27.2271 305.892 29.2797 306.567 31.2711C306.865 32.1495 307.011 32.9583 307.001 33.6751C306.999 33.8697 306.854 34.0241 306.678 34.0241ZM301.632 25.4008C301.569 25.4008 301.505 25.3807 301.449 25.3383C300.33 24.4941 299.237 24.0284 298.371 24.0284C298.192 24.0284 298.047 23.8704 298.047 23.6747C298.047 23.479 298.192 23.321 298.371 23.321C299.382 23.321 300.573 23.8173 301.817 24.7558C301.964 24.8667 302.002 25.0872 301.899 25.2487C301.836 25.3477 301.735 25.4008 301.632 25.4008Z" fill="white"/>
<path opacity="0.2" d="M299.232 39.7058C288.172 42.6699 290.173 33.2059 290.292 32.6788C289.434 35.4873 289.577 38.0646 290.928 39.7825C293.724 43.3348 300.625 41.8693 306.342 36.5071C304.483 37.8677 301.197 39.1788 299.232 39.7058Z" fill="#999999"/>
<path d="M253.651 28.6607C250.046 23.4613 262.435 13.2239 266.04 18.4233C270.589 24.9846 271.502 32.5951 268.082 35.4213C264.66 38.2474 258.199 35.2208 253.651 28.6607Z" fill="url(#paint10_linear_292_3268)"/>
<path d="M255.667 26.9948C253.794 24.2937 255.107 21.273 257.12 19.6094C259.133 17.9458 262.153 17.3858 264.026 20.0869C268.58 26.6552 270.409 33.5478 268.105 35.4519C265.8 37.3572 260.22 33.5631 255.667 26.9948ZM255.725 26.9464C260.254 33.4794 265.788 37.2664 268.06 35.3882C270.332 33.5112 268.497 26.6682 263.967 20.1353C262.125 17.4778 259.15 18.0331 257.165 19.6731C255.18 21.3143 253.883 24.2889 255.725 26.9464Z" fill="url(#paint11_linear_292_3268)"/>
<path d="M258.266 24.8466C256.394 22.1455 256.359 20.239 257.119 19.6106C257.88 18.9822 259.552 19.5363 261.424 22.2374C266.055 28.9166 268.989 34.7221 268.104 35.4543C267.218 36.1852 262.897 31.5258 258.266 24.8466ZM256.788 21.4899C256.961 22.4544 257.493 23.598 258.325 24.7983C260.523 27.9698 262.751 30.8184 264.599 32.8192C266.406 34.7763 267.667 35.7136 268.059 35.3894C268.451 35.0652 267.968 33.4865 266.733 31.0553C265.471 28.5711 263.565 25.4562 261.366 22.2846C259.523 19.6271 257.896 19.0683 257.164 19.6731C256.77 19.9997 256.636 20.6446 256.788 21.4899Z" fill="url(#paint12_linear_292_3268)"/>
<path opacity="0.4" d="M253.555 25.7427C253.684 25.0388 253.983 24.2819 254.445 23.4919C255.491 21.7022 257.211 20.008 259.161 18.8443C259.318 18.7511 259.514 18.8136 259.601 18.9857C259.686 19.1567 259.629 19.3724 259.471 19.4656C257.641 20.5574 255.966 22.2045 254.99 23.8728C254.572 24.5873 254.302 25.2628 254.19 25.8806C254.156 26.0728 253.985 26.1966 253.809 26.1589C253.809 26.1589 253.806 26.1577 253.803 26.1577C253.632 26.1165 253.521 25.9325 253.555 25.7427ZM260.176 18.6827C260.108 18.5024 260.187 18.2948 260.352 18.2205C261.75 17.5909 263.01 17.3811 263.998 17.6146C264.173 17.6558 264.284 17.8445 264.247 18.0355C264.209 18.2265 264.036 18.3479 263.861 18.3066C263.014 18.1062 261.857 18.309 260.6 18.8761C260.537 18.9044 260.47 18.9091 260.407 18.895C260.307 18.8702 260.218 18.7948 260.176 18.6827Z" fill="white"/>
<path opacity="0.2" d="M259.98 33.4287C270.216 38.8805 270.094 29.1677 270.079 28.6254C270.372 31.5682 269.734 34.0548 268.081 35.4212C264.659 38.2485 258.199 35.2208 253.65 28.6607C255.204 30.4198 258.161 32.4607 259.98 33.4287Z" fill="#999999"/>
<path d="M271.487 49.1039L270.703 48.3988L270.745 48.3422L271.487 49.0084L272.228 48.3422L272.271 48.3988L271.487 49.1039Z" fill="url(#paint13_linear_292_3268)"/>
<path d="M271.488 49.0885L271.117 48.0179L271.18 47.992L271.484 48.8716L271.765 47.9932L271.829 48.0168L271.488 49.0885Z" fill="url(#paint14_linear_292_3268)"/>
<path d="M283.173 28.5641L282.389 27.859L282.432 27.8024L283.173 28.4686L283.914 27.8024L283.957 27.859L283.173 28.5641Z" fill="url(#paint15_linear_292_3268)"/>
<path d="M283.173 28.5488L282.803 27.4782L282.866 27.4523L283.171 28.3318L283.451 27.4535L283.514 27.477L283.173 28.5488Z" fill="url(#paint16_linear_292_3268)"/>
<path d="M291.302 23.0392L290.518 22.3341L290.561 22.2775L291.302 22.9437L292.042 22.2775L292.086 22.3341L291.302 23.0392Z" fill="url(#paint17_linear_292_3268)"/>
<path d="M291.302 23.0238L290.932 21.9533L290.995 21.9274L291.3 22.8069L291.58 21.9286L291.643 21.9521L291.302 23.0238Z" fill="url(#paint18_linear_292_3268)"/>
<path d="M292.355 35.0216L292.145 33.9369L292.212 33.9216L292.409 34.9473L293.369 34.9308L293.37 35.0039L292.355 35.0216Z" fill="url(#paint19_linear_292_3268)"/>
<path d="M292.365 35.0098L292.687 33.9216L292.751 33.944L292.487 34.8388L293.208 34.3425L293.244 34.405L292.365 35.0098Z" fill="url(#paint20_linear_292_3268)"/>
<path d="M297.489 24.4221L297.279 23.3375L297.345 23.3221L297.544 24.3467L298.504 24.3302L298.505 24.4045L297.489 24.4221Z" fill="url(#paint21_linear_292_3268)"/>
<path d="M297.5 24.4103L297.822 23.3221L297.886 23.3445L297.622 24.2394L298.342 23.743L298.378 23.8055L297.5 24.4103Z" fill="url(#paint22_linear_292_3268)"/>
<path d="M305.637 35.1182L306.043 34.1019L306.104 34.1314L305.721 35.0923L306.511 35.6877L306.473 35.7479L305.637 35.1182Z" fill="url(#paint23_linear_292_3268)"/>
<path d="M305.65 35.1159L306.492 34.4321L306.532 34.4922L305.842 35.0534L306.691 35.1065L306.688 35.1796L305.65 35.1159Z" fill="url(#paint24_linear_292_3268)"/>
<path d="M299.297 36.8797L299.519 35.7974L299.586 35.8139L299.376 36.8361L300.255 37.257L300.228 37.3254L299.297 36.8797Z" fill="url(#paint25_linear_292_3268)"/>
<path d="M299.311 36.8738L300.018 36.0296L300.068 36.0791L299.487 36.7736L300.331 36.6498L300.34 36.7229L299.311 36.8738Z" fill="url(#paint26_linear_292_3268)"/>
<path d="M293.979 40.6137L294.201 39.5313L294.267 39.5478L294.057 40.57L294.936 40.9909L294.909 41.0593L293.979 40.6137Z" fill="url(#paint27_linear_292_3268)"/>
<path d="M293.992 40.6077L294.7 39.7635L294.749 39.8131L294.168 40.5075L295.013 40.3837L295.021 40.4568L293.992 40.6077Z" fill="url(#paint28_linear_292_3268)"/>
<path d="M300.496 29.8563L300.719 28.7739L300.784 28.7904L300.574 29.8138L301.454 30.2347L301.427 30.3019L300.496 29.8563Z" fill="url(#paint29_linear_292_3268)"/>
<path d="M300.51 29.8503L301.216 29.0062L301.267 29.0569L300.686 29.7501L301.529 29.6263L301.539 29.6994L300.51 29.8503Z" fill="url(#paint30_linear_292_3268)"/>
<path d="M277.417 65.6973L276.633 64.9923L276.676 64.9345L277.417 65.6018L278.158 64.9345L278.201 64.9923L277.417 65.6973Z" fill="url(#paint31_linear_292_3268)"/>
<path d="M277.417 65.6808L277.047 64.6115L277.109 64.5855L277.414 65.4651L277.695 64.5867L277.759 64.6103L277.417 65.6808Z" fill="url(#paint32_linear_292_3268)"/>
<path d="M284.921 61.6745L284.137 60.9683L284.179 60.9117L284.921 61.5778L285.662 60.9117L285.705 60.9683L284.921 61.6745Z" fill="url(#paint33_linear_292_3268)"/>
<path d="M284.921 61.658L284.551 60.5875L284.613 60.5615L284.918 61.4411L285.199 60.5627L285.262 60.5875L284.921 61.658Z" fill="url(#paint34_linear_292_3268)"/>
<path d="M274.026 14.3957L273.242 13.6907L273.285 13.6341L274.026 14.3002L274.767 13.6341L274.81 13.6907L274.026 14.3957Z" fill="url(#paint35_linear_292_3268)"/>
<path d="M274.027 14.3804L273.656 13.3099L273.72 13.2839L274.024 14.1635L274.304 13.2851L274.368 13.3087L274.027 14.3804Z" fill="url(#paint36_linear_292_3268)"/>
<path d="M286.255 11.9658L285.471 11.2608L285.514 11.2042L286.255 11.8703L286.996 11.2042L287.039 11.2608L286.255 11.9658Z" fill="url(#paint37_linear_292_3268)"/>
<path d="M286.255 11.9505L285.885 10.8799L285.947 10.854L286.252 11.7336L286.533 10.8552L286.596 10.8799L286.255 11.9505Z" fill="url(#paint38_linear_292_3268)"/>
<path d="M278.934 1.56682L278.15 0.861774L278.194 0.805176L278.934 1.47133L279.675 0.805176L279.719 0.861774L278.934 1.56682Z" fill="url(#paint39_linear_292_3268)"/>
<path d="M278.935 1.5515L278.564 0.480959L278.628 0.455017L278.933 1.33457L279.212 0.456204L279.276 0.480959L278.935 1.5515Z" fill="url(#paint40_linear_292_3268)"/>
<path d="M287.382 53.6702L286.598 52.9651L286.641 52.9073L287.382 53.5747L288.123 52.9073L288.166 52.9651L287.382 53.6702Z" fill="url(#paint41_linear_292_3268)"/>
<path d="M287.382 53.6536L287.012 52.5843L287.075 52.5583L287.38 53.4367L287.66 52.5595L287.723 52.5831L287.382 53.6536Z" fill="url(#paint42_linear_292_3268)"/>
<path d="M282.39 48.5485L281.605 47.8422L281.649 47.7856L282.39 48.4518L283.13 47.7856L283.174 47.8422L282.39 48.5485Z" fill="url(#paint43_linear_292_3268)"/>
<path d="M282.39 48.532L282.02 47.4614L282.083 47.4355L282.387 48.315L282.668 47.4366L282.731 47.4614L282.39 48.532Z" fill="url(#paint44_linear_292_3268)"/>
<path d="M278.565 39.8779L277.781 39.1717L277.824 39.1151L278.565 39.7813L279.306 39.1151L279.349 39.1717L278.565 39.8779Z" fill="url(#paint45_linear_292_3268)"/>
<path d="M278.566 39.8614L278.195 38.7921L278.259 38.765L278.564 39.6445L278.843 38.7661L278.907 38.7909L278.566 39.8614Z" fill="url(#paint46_linear_292_3268)"/>
<path d="M270.704 26.7213L269.92 26.0162L269.962 25.9585L270.704 26.6258L271.445 25.9585L271.488 26.0162L270.704 26.7213Z" fill="url(#paint47_linear_292_3268)"/>
<path d="M270.706 26.7048L270.334 25.6354L270.398 25.6095L270.702 26.489L270.983 25.6106L271.047 25.6343L270.706 26.7048Z" fill="url(#paint48_linear_292_3268)"/>
<path d="M258.664 30.2312L257.68 29.9565L257.696 29.8846L258.627 30.1451L259.038 29.1984L259.1 29.2302L258.664 30.2312Z" fill="url(#paint49_linear_292_3268)"/>
<path d="M258.657 30.2159L257.906 29.4189L257.954 29.3658L258.57 30.0213L258.483 29.097L258.55 29.0887L258.657 30.2159Z" fill="url(#paint50_linear_292_3268)"/>
<path d="M266.712 31.2134L265.701 31.0966L265.709 31.0235L266.663 31.1343L266.945 30.1322L267.01 30.1534L266.712 31.2134Z" fill="url(#paint51_linear_292_3268)"/>
<path d="M266.704 31.1992L265.855 30.5295L265.895 30.4694L266.593 31.02L266.384 30.1192L266.449 30.1003L266.704 31.1992Z" fill="url(#paint52_linear_292_3268)"/>
<path d="M265.264 21.9781L264.254 21.8614L264.26 21.7871L265.216 21.8979L265.498 20.8958L265.563 20.917L265.264 21.9781Z" fill="url(#paint53_linear_292_3268)"/>
<path d="M265.258 21.964L264.408 21.2931L264.448 21.2341L265.146 21.7847L264.937 20.8828L265.002 20.8651L265.258 21.964Z" fill="url(#paint54_linear_292_3268)"/>
<path d="M257.383 23.4306L256.373 23.3139L256.381 23.2396L257.335 23.3504L257.617 22.3483L257.682 22.3707L257.383 23.4306Z" fill="url(#paint55_linear_292_3268)"/>
<path d="M257.376 23.4165L256.527 22.7456L256.566 22.6867L257.265 23.2373L257.055 22.3353L257.12 22.3176L257.376 23.4165Z" fill="url(#paint56_linear_292_3268)"/>
<path d="M260.507 18.3859L259.496 18.2692L259.504 18.1961L260.458 18.3057L260.74 17.3047L260.805 17.326L260.507 18.3859Z" fill="url(#paint57_linear_292_3268)"/>
<path d="M260.499 18.3715L259.65 17.7018L259.69 17.6417L260.388 18.1923L260.179 17.2915L260.243 17.2726L260.499 18.3715Z" fill="url(#paint58_linear_292_3268)"/>
<path d="M322.871 42.2102C322.871 27.3027 308.156 27.3027 308.156 42.2102C308.156 61.0203 311.45 76.2697 315.513 76.2697C319.577 76.2697 322.871 61.0203 322.871 42.2102Z" fill="url(#paint59_linear_292_3268)"/>
<path opacity="0.2" d="M320.955 50.9656C320.955 50.9656 321.012 52.6315 322.37 54.5828C322.472 53.3613 322.561 52.1068 322.633 50.8217L320.955 50.9656Z" fill="#999999"/>
<path opacity="0.2" d="M308.548 53.2139C310.479 50.1532 310.289 47.7681 310.289 47.7681L308.26 47.9508C308.327 49.7571 308.423 51.5162 308.548 53.2139Z" fill="#999999"/>
<path d="M315.514 76.2992C314.183 76.2992 312.936 72.748 312.002 66.2987C311.072 59.8636 310.559 51.3098 310.559 42.2102C310.559 38.7509 311.092 35.847 312.102 33.8108C313 31.9986 314.213 31 315.514 31C316.816 31 318.029 31.9986 318.927 33.8108C319.937 35.847 320.47 38.7509 320.47 42.2102C320.47 51.3087 319.957 59.8636 319.027 66.2987C318.093 72.748 316.845 76.2992 315.514 76.2992ZM315.514 31.059C314.234 31.059 313.039 32.0458 312.149 33.8379C311.144 35.8658 310.613 38.7603 310.613 42.209C310.613 60.9731 312.811 76.239 315.514 76.239C318.218 76.239 320.416 60.9731 320.416 42.209C320.416 38.7603 319.885 35.8658 318.88 33.8379C317.99 32.047 316.795 31.059 315.514 31.059Z" fill="url(#paint60_linear_292_3268)"/>
<path d="M315.512 76.2992C314.861 76.2992 314.43 70.8591 314.183 66.2952C313.836 59.8612 313.645 51.3075 313.645 42.2102C313.645 34.5076 314.612 31 315.512 31C316.411 31 317.379 34.5076 317.379 42.2102C317.379 51.3087 317.188 59.8624 316.84 66.2952C316.594 70.8591 316.163 76.2992 315.512 76.2992ZM315.512 31.059C314.611 31.059 313.699 34.8896 313.699 42.209C313.699 51.3063 313.89 59.8589 314.237 66.2904C314.722 75.2687 315.29 76.2378 315.512 76.2378C315.733 76.2378 316.301 75.2687 316.786 66.2904C317.134 59.8577 317.325 51.3051 317.325 42.209C317.325 34.8896 316.412 31.059 315.512 31.059Z" fill="url(#paint61_linear_292_3268)"/>
<g opacity="0.4">
<path d="M311.214 33.3427C310.589 34.0501 310.063 34.912 309.652 35.9035C309.603 36.0238 309.651 36.1641 309.761 36.2183C309.791 36.2325 309.821 36.2395 309.851 36.2395C309.934 36.2395 310.013 36.1876 310.05 36.0992C310.44 35.1572 310.937 34.3413 311.527 33.6728C311.61 33.5785 311.608 33.4276 311.522 33.3356C311.435 33.2448 311.298 33.2472 311.214 33.3427Z" fill="white"/>
<path d="M321.377 35.9036C320.17 32.9879 317.979 31.2476 315.515 31.2476C314.303 31.2476 313.116 31.6862 312.081 32.5139C311.984 32.5917 311.963 32.7402 312.035 32.8464C312.106 32.9525 312.242 32.9749 312.339 32.8971C313.298 32.1283 314.397 31.7227 315.515 31.7227C317.803 31.7227 319.846 33.3592 320.98 36.0993C321.017 36.1877 321.095 36.2396 321.179 36.2396C321.209 36.2396 321.239 36.2325 321.268 36.2184C321.378 36.1641 321.427 36.0227 321.377 35.9036Z" fill="white"/>
</g>
<path d="M316.691 71.8436L316.266 71.4605L316.289 71.4298L316.691 71.7918L317.094 71.4298L317.117 71.4605L316.691 71.8436Z" fill="url(#paint62_linear_292_3268)"/>
<path d="M316.693 71.8354L316.492 71.2541L316.527 71.24L316.692 71.7175L316.844 71.2412L316.879 71.2541L316.693 71.8354Z" fill="url(#paint63_linear_292_3268)"/>
<path d="M313.124 71.0478L312.623 70.7979L312.638 70.7613L313.112 70.9971L313.416 70.535L313.445 70.5574L313.124 71.0478Z" fill="url(#paint64_linear_292_3268)"/>
<path d="M313.123 71.0384L312.791 70.5349L312.821 70.5114L313.093 70.9252L313.128 70.4218L313.165 70.4253L313.123 71.0384Z" fill="url(#paint65_linear_292_3268)"/>
<path opacity="0.2" d="M315.505 70.6245C313.423 70.6245 311.526 68.6131 310.1 65.3154C311.437 72.0488 313.362 76.2756 315.505 76.2756C317.647 76.2756 319.573 72.0488 320.91 65.3154C319.483 68.6131 317.587 70.6245 315.505 70.6245Z" fill="#999999"/>
<path d="M329.961 50.8182C332.42 48.5108 326.924 41.5263 324.464 43.8337C321.36 46.7447 320.075 50.6685 321.592 52.5973C323.111 54.5262 326.857 53.7292 329.961 50.8182Z" fill="url(#paint66_linear_292_3268)"/>
<path d="M321.575 52.6115C320.553 51.3122 322.248 47.8848 325.356 44.9702C326.634 43.7723 328.177 44.4479 329.07 45.5821C329.963 46.7175 330.342 48.4849 329.065 49.6828C325.958 52.5973 322.598 53.9107 321.575 52.6115ZM329.04 45.6104C328.16 44.4915 326.639 43.8242 325.382 45.0032C322.291 47.9013 320.598 51.3016 321.606 52.5831C322.613 53.8647 325.948 52.549 329.039 49.6498C330.296 48.4708 329.92 46.7293 329.04 45.6104Z" fill="url(#paint67_linear_292_3268)"/>
<path d="M321.577 52.6115C321.184 52.1127 323.352 49.3998 326.512 46.4358C327.789 45.2367 328.734 45.153 329.072 45.5821C329.409 46.0113 329.191 47.0182 327.912 48.2173C324.753 51.1802 321.97 53.1102 321.577 52.6115ZM329.042 45.6104C328.717 45.1978 327.795 45.2898 326.538 46.4688C325.037 47.8765 323.698 49.2902 322.767 50.4491C321.857 51.5834 321.434 52.3615 321.608 52.582C321.781 52.8025 322.549 52.4641 323.713 51.6518C324.903 50.8217 326.386 49.5896 327.886 48.1831C328.454 47.6501 328.856 47.1102 329.049 46.6197C329.22 46.1917 329.217 45.8321 329.042 45.6104Z" fill="url(#paint68_linear_292_3268)"/>
<path opacity="0.4" d="M330.141 49.4717H330.138C330.041 49.4706 329.963 49.3821 329.965 49.2772C329.97 48.9353 329.898 48.5438 329.751 48.1111C329.409 47.1043 328.694 46.0196 327.837 45.2108C327.764 45.1412 327.756 45.0197 327.819 44.9396C327.883 44.8594 327.994 44.8511 328.067 44.9195C328.98 45.7814 329.714 46.8956 330.082 47.9767C330.244 48.4531 330.322 48.8928 330.317 49.2819C330.315 49.388 330.236 49.4717 330.141 49.4717ZM327.401 44.7898C327.367 44.7898 327.332 44.7792 327.302 44.7557C326.695 44.297 326.101 44.0447 325.631 44.0447C325.534 44.0447 325.455 43.9586 325.455 43.8525C325.455 43.7464 325.534 43.6603 325.631 43.6603C326.18 43.6603 326.827 43.9303 327.502 44.4397C327.582 44.4998 327.602 44.6201 327.546 44.7073C327.512 44.7604 327.457 44.7898 327.401 44.7898Z" fill="white"/>
<path opacity="0.2" d="M326.099 52.5549C320.095 54.1642 321.181 49.0261 321.246 48.7396C320.78 50.264 320.858 51.6635 321.592 52.5961C323.11 54.525 326.856 53.7292 329.96 50.8182C328.949 51.5574 327.166 52.2695 326.099 52.5549Z" fill="#999999"/>
<path d="M301.353 46.5596C299.396 43.737 306.122 38.1791 308.079 41.0016C310.549 44.5634 311.045 48.6948 309.187 50.2298C307.331 51.7638 303.823 50.1214 301.353 46.5596Z" fill="url(#paint69_linear_292_3268)"/>
<path d="M302.447 45.6553C301.43 44.1886 302.144 42.5485 303.237 41.6466C304.33 40.7435 305.969 40.4393 306.985 41.906C309.457 45.4713 310.451 49.2136 309.199 50.2476C307.949 51.2804 304.919 49.2206 302.447 45.6553ZM302.48 45.6293C304.939 49.1758 307.942 51.232 309.177 50.2122C310.41 49.1923 309.413 45.4784 306.954 41.9319C305.954 40.49 304.339 40.7906 303.262 41.6808C302.184 42.571 301.48 44.1862 302.48 45.6293Z" fill="url(#paint70_linear_292_3268)"/>
<path d="M303.857 44.4892C302.841 43.0225 302.822 41.9873 303.235 41.6465C303.648 41.3058 304.555 41.6065 305.572 43.0732C308.087 46.6998 309.679 49.8514 309.199 50.2475C308.718 50.6437 306.372 48.1147 303.857 44.4892ZM303.056 42.6664C303.15 43.1899 303.438 43.8112 303.89 44.462C305.083 46.1834 306.294 47.7303 307.296 48.8162C308.277 49.8785 308.961 50.3878 309.174 50.2121C309.387 50.0365 309.124 49.1793 308.454 47.86C307.768 46.5112 306.733 44.8205 305.54 43.0991C304.54 41.656 303.657 41.353 303.259 41.6819C303.045 41.8576 302.973 42.2078 303.056 42.6664Z" fill="url(#paint71_linear_292_3268)"/>
<path opacity="0.4" d="M301.302 44.975C301.373 44.593 301.535 44.1815 301.785 43.7535C302.353 42.782 303.286 41.8623 304.346 41.2304C304.431 41.1797 304.538 41.2139 304.584 41.307C304.631 41.4002 304.6 41.5169 304.514 41.5676C303.521 42.1606 302.611 43.0543 302.081 43.9598C301.854 44.3477 301.707 44.7144 301.647 45.0493C301.627 45.153 301.536 45.2214 301.44 45.2002L301.436 45.199C301.344 45.1777 301.283 45.0776 301.302 44.975ZM304.897 41.1432C304.86 41.0453 304.902 40.9333 304.992 40.892C305.751 40.5501 306.434 40.4358 306.971 40.5631C307.066 40.5855 307.127 40.6881 307.106 40.7918C307.086 40.8956 306.992 40.9616 306.897 40.9392C306.438 40.8307 305.808 40.9404 305.125 41.2481C305.091 41.2634 305.055 41.2658 305.022 41.2587C304.968 41.2446 304.919 41.2033 304.897 41.1432Z" fill="white"/>
<path opacity="0.2" d="M304.791 49.1475C310.347 52.1069 310.282 46.8343 310.273 46.5396C310.432 48.1371 310.086 49.4871 309.188 50.2287C307.33 51.7638 303.822 50.1202 301.354 46.5584C302.198 47.5146 303.803 48.6217 304.791 49.1475Z" fill="#999999"/>
<path d="M311.037 57.6577L310.611 57.2745L310.634 57.2438L311.037 57.6058L311.439 57.2438L311.462 57.2745L311.037 57.6577Z" fill="url(#paint72_linear_292_3268)"/>
<path d="M311.038 57.6494L310.836 57.0682L310.87 57.054L311.036 57.5315L311.188 57.054L311.223 57.0682L311.038 57.6494Z" fill="url(#paint73_linear_292_3268)"/>
<path d="M317.383 46.5065L316.957 46.1245L316.981 46.0927L317.383 46.4546L317.785 46.0927L317.808 46.1245L317.383 46.5065Z" fill="url(#paint74_linear_292_3268)"/>
<path d="M317.385 46.4982L317.184 45.917L317.218 45.9028L317.383 46.3803L317.536 45.904L317.57 45.917L317.385 46.4982Z" fill="url(#paint75_linear_292_3268)"/>
<path d="M321.793 43.5083L321.367 43.1251L321.39 43.0933L321.793 43.4552L322.194 43.0933L322.218 43.1251L321.793 43.5083Z" fill="url(#paint76_linear_292_3268)"/>
<path d="M321.794 43.4988L321.592 42.9176L321.626 42.9046L321.792 43.3809L321.944 42.9046L321.978 42.9176L321.794 43.4988Z" fill="url(#paint77_linear_292_3268)"/>
<path d="M322.364 50.0129L322.25 49.4234L322.287 49.4152L322.395 49.9716L322.915 49.9634L322.916 50.0035L322.364 50.0129Z" fill="url(#paint78_linear_292_3268)"/>
<path d="M322.369 50.007L322.544 49.4152L322.579 49.4281L322.435 49.9139L322.827 49.6439L322.846 49.6781L322.369 50.007Z" fill="url(#paint79_linear_292_3268)"/>
<path d="M325.154 44.2581L325.039 43.6698L325.076 43.6603L325.183 44.218L325.704 44.2086L325.705 44.2487L325.154 44.2581Z" fill="url(#paint80_linear_292_3268)"/>
<path d="M325.158 44.2522L325.333 43.6603L325.368 43.6733L325.224 44.1591L325.615 43.8903L325.635 43.9233L325.158 44.2522Z" fill="url(#paint81_linear_292_3268)"/>
<path d="M329.578 50.0648L329.798 49.5131L329.832 49.5295L329.623 50.0507L330.052 50.3737L330.032 50.4068L329.578 50.0648Z" fill="url(#paint82_linear_292_3268)"/>
<path d="M329.586 50.0637L330.043 49.6935L330.064 49.7253L329.69 50.0295L330.151 50.059L330.149 50.0991L329.586 50.0637Z" fill="url(#paint83_linear_292_3268)"/>
<path d="M326.135 51.021L326.255 50.4338L326.291 50.4421L326.177 50.9974L326.654 51.2261L326.639 51.2627L326.135 51.021Z" fill="url(#paint84_linear_292_3268)"/>
<path d="M326.143 51.0187L326.526 50.5601L326.553 50.5872L326.238 50.9633L326.696 50.896L326.701 50.9362L326.143 51.0187Z" fill="url(#paint85_linear_292_3268)"/>
<path d="M323.248 53.0488L323.369 52.4605L323.405 52.4699L323.291 53.0252L323.769 53.2528L323.753 53.2905L323.248 53.0488Z" fill="url(#paint86_linear_292_3268)"/>
<path d="M323.256 53.0453L323.64 52.5867L323.667 52.6138L323.352 52.9911L323.81 52.9238L323.815 52.9628L323.256 53.0453Z" fill="url(#paint87_linear_292_3268)"/>
<path d="M326.787 47.2092L326.907 46.6208L326.944 46.6303L326.829 47.1856L327.307 47.4131L327.291 47.4509L326.787 47.2092Z" fill="url(#paint88_linear_292_3268)"/>
<path d="M326.795 47.2057L327.178 46.747L327.205 46.7741L326.89 47.1514L327.348 47.083L327.353 47.1231L326.795 47.2057Z" fill="url(#paint89_linear_292_3268)"/>
<path d="M314.258 66.6665L313.832 66.2834L313.856 66.2515L314.258 66.6135L314.66 66.2515L314.684 66.2834L314.258 66.6665Z" fill="url(#paint90_linear_292_3268)"/>
<path d="M314.259 66.6571L314.059 66.0758L314.093 66.0629L314.258 66.5392L314.411 66.0629L314.445 66.0758L314.259 66.6571Z" fill="url(#paint91_linear_292_3268)"/>
<path d="M318.33 64.4819L317.904 64.0987L317.928 64.0681L318.33 64.43L318.733 64.0681L318.755 64.0987L318.33 64.4819Z" fill="url(#paint92_linear_292_3268)"/>
<path d="M318.332 64.4736L318.131 63.8924L318.165 63.8782L318.331 64.3557L318.482 63.8782L318.518 63.8924L318.332 64.4736Z" fill="url(#paint93_linear_292_3268)"/>
<path d="M312.414 38.8157L311.988 38.4326L312.011 38.4019L312.414 38.7639L312.816 38.4019L312.839 38.4326L312.414 38.8157Z" fill="url(#paint94_linear_292_3268)"/>
<path d="M312.415 38.8063L312.213 38.2262L312.247 38.2121L312.413 38.6896L312.565 38.2121L312.599 38.2251L312.415 38.8063Z" fill="url(#paint95_linear_292_3268)"/>
<path d="M319.052 37.4965L318.627 37.1134L318.65 37.0827L319.052 37.4446L319.454 37.0827L319.478 37.1134L319.052 37.4965Z" fill="url(#paint96_linear_292_3268)"/>
<path d="M319.054 37.487L318.852 36.907L318.886 36.8928L319.051 37.3703L319.204 36.8928L319.238 36.9058L319.054 37.487Z" fill="url(#paint97_linear_292_3268)"/>
<path d="M315.08 31.8513L314.654 31.4681L314.677 31.4374L315.08 31.7994L315.482 31.4374L315.505 31.4681L315.08 31.8513Z" fill="url(#paint98_linear_292_3268)"/>
<path d="M315.081 31.8419L314.879 31.2618L314.914 31.2465L315.079 31.724L315.231 31.2476L315.266 31.2606L315.081 31.8419Z" fill="url(#paint99_linear_292_3268)"/>
<path d="M319.664 60.1372L319.238 59.754L319.262 59.7222L319.664 60.0853L320.067 59.7222L320.089 59.754L319.664 60.1372Z" fill="url(#paint100_linear_292_3268)"/>
<path d="M319.666 60.1278L319.465 59.5477L319.498 59.5323L319.665 60.0099L319.816 59.5335L319.85 59.5465L319.666 60.1278Z" fill="url(#paint101_linear_292_3268)"/>
<path d="M316.955 57.3558L316.529 56.9727L316.552 56.942L316.955 57.304L317.357 56.942L317.38 56.9727L316.955 57.3558Z" fill="url(#paint102_linear_292_3268)"/>
<path d="M316.956 57.3476L316.754 56.7663L316.789 56.7522L316.954 57.2297L317.106 56.7522L317.141 56.7663L316.956 57.3476Z" fill="url(#paint103_linear_292_3268)"/>
<path d="M314.879 52.6492L314.453 52.266L314.477 52.2354L314.879 52.5973L315.281 52.2354L315.304 52.266L314.879 52.6492Z" fill="url(#paint104_linear_292_3268)"/>
<path d="M314.88 52.6398L314.678 52.0597L314.712 52.0455L314.878 52.523L315.03 52.0455L315.064 52.0585L314.88 52.6398Z" fill="url(#paint105_linear_292_3268)"/>
<path d="M310.613 45.5067L310.188 45.1236L310.21 45.0929L310.613 45.4549L311.015 45.0929L311.038 45.1236L310.613 45.5067Z" fill="url(#paint106_linear_292_3268)"/>
<path d="M310.613 45.4973L310.412 44.9172L310.447 44.9031L310.612 45.3806L310.764 44.9031L310.799 44.916L310.613 45.4973Z" fill="url(#paint107_linear_292_3268)"/>
<path d="M304.076 47.4119L303.541 47.2622L303.551 47.2233L304.055 47.3648L304.279 46.8507L304.312 46.8684L304.076 47.4119Z" fill="url(#paint108_linear_292_3268)"/>
<path d="M304.071 47.4037L303.664 46.971L303.69 46.9427L304.025 47.2976L303.977 46.7953L304.014 46.7918L304.071 47.4037Z" fill="url(#paint109_linear_292_3268)"/>
<path d="M308.445 47.9451L307.896 47.8815L307.901 47.8425L308.419 47.9026L308.573 47.358L308.607 47.3697L308.445 47.9451Z" fill="url(#paint110_linear_292_3268)"/>
<path d="M308.442 47.9378L307.98 47.5735L308.002 47.5417L308.381 47.84L308.267 47.3507L308.302 47.3412L308.442 47.9378Z" fill="url(#paint111_linear_292_3268)"/>
<path d="M307.658 42.932L307.109 42.8683L307.114 42.8282L307.632 42.8883L307.785 42.3436L307.82 42.3554L307.658 42.932Z" fill="url(#paint112_linear_292_3268)"/>
<path d="M307.655 42.9235L307.193 42.5603L307.215 42.5273L307.594 42.8268L307.479 42.3363L307.515 42.3269L307.655 42.9235Z" fill="url(#paint113_linear_292_3268)"/>
<path d="M303.379 43.7207L302.83 43.6571L302.834 43.617L303.353 43.6771L303.506 43.1324L303.541 43.1442L303.379 43.7207Z" fill="url(#paint114_linear_292_3268)"/>
<path d="M303.375 43.7123L302.914 43.348L302.936 43.3161L303.315 43.6144L303.2 43.1251L303.236 43.1157L303.375 43.7123Z" fill="url(#paint115_linear_292_3268)"/>
<path d="M305.075 40.982L304.527 40.9183L304.531 40.8783L305.049 40.9384L305.202 40.3937L305.237 40.4067L305.075 40.982Z" fill="url(#paint116_linear_292_3268)"/>
<path d="M305.072 40.9734L304.611 40.6102L304.633 40.5772L305.012 40.8767L304.897 40.3874L304.933 40.3768L305.072 40.9734Z" fill="url(#paint117_linear_292_3268)"/>
<path d="M95.558 52.4642L95.5537 52.4689C96.503 48.7291 96.719 45.3453 96.7373 43.223C96.7438 42.4614 95.8917 42.0983 95.4111 42.65C94.437 43.7666 92.7761 45.3901 90.0308 47.4227C87.5869 45.08 80.4646 53.4157 80.4646 53.4157C80.4656 53.4145 80.4678 53.4145 80.4689 53.4133C80.4678 53.4145 80.4656 53.4145 80.4635 53.4157H80.4646C76.067 50.7558 70.4707 62.2619 70.4707 62.2619L70.4771 62.256C70.4739 62.2607 70.4706 62.2666 70.4674 62.2713L70.4696 62.2619C67.2416 61.558 66.2934 71.641 66.0245 76.4702C65.897 78.0171 65.9219 78.9733 65.9219 78.9733C65.9219 78.9733 68.976 76.6813 72.3659 75.4563C76.6912 73.8929 79.2626 72.6478 78.5984 71.3427H78.5973C78.5973 71.3427 78.5984 71.3427 78.5984 71.3415C78.5984 71.3415 85.0878 69.5234 88.0836 67.2986C91.0794 65.0738 89.9768 63.837 89.9768 63.837C89.9768 63.837 89.9725 63.8382 89.9714 63.8394C89.9735 63.837 89.9757 63.8347 89.9779 63.8323C89.9779 63.8347 89.9779 63.8359 89.9768 63.8382C89.9768 63.8382 93.5752 60.3565 95.3593 56.3797C97.1445 52.4017 95.558 52.4642 95.558 52.4642Z" fill="url(#paint118_linear_292_3268)"/>
<g opacity="0.2">
<path d="M77.0781 70.1151L77.0801 70.1141L77.0781 70.1151Z" fill="#999999"/>
<path d="M88.0684 63.1343L88.0734 63.132L88.0744 63.1273L88.0684 63.1343Z" fill="#999999"/>
<path d="M95.5569 52.4642L95.5526 52.4689C96.409 49.0969 96.666 46.0244 96.7233 43.8951C96.3442 46.0869 95.72 48.8293 94.6843 51.7356L94.6886 51.7308C94.6886 51.7308 96.3032 51.6106 94.0417 55.7407C91.8613 59.7234 88.0728 63.132 88.0728 63.132C88.0728 63.132 89.0113 64.2756 86.0069 66.3802C83.0737 68.4352 77.08 70.1141 77.08 70.1141C77.62 71.2495 75.6587 73.0358 71.8605 74.5402C68.3291 75.9397 65.9219 78.9721 65.9219 78.9721C65.9219 78.9721 68.976 76.6801 72.3659 75.4551C76.6912 73.8917 79.2625 72.6467 78.5984 71.3415C78.5984 71.3415 85.0878 69.5223 88.0836 67.2975C91.0794 65.0726 89.9768 63.8358 89.9768 63.8358C89.9768 63.8358 89.9725 63.837 89.9714 63.8382C89.9735 63.8359 89.9757 63.8335 89.9779 63.8311C89.9779 63.8323 89.9779 63.8347 89.9768 63.837C89.9768 63.837 93.5752 60.3554 95.3593 56.3786C97.1434 52.4017 95.5569 52.4642 95.5569 52.4642Z" fill="#999999"/>
</g>
<path d="M69.6503 72.6597C70.3771 72.4533 73.8124 71.5584 78.6366 71.4476C78.6236 71.4122 78.6171 71.3781 78.5988 71.3427V71.3415C78.5988 71.3415 78.6895 71.3156 78.8364 71.2731C74.2163 71.3568 70.8274 72.1645 69.7928 72.4439C71.7497 69.5046 74.0554 66.6502 76.7553 63.8536C77.6992 63.672 83.1 62.7618 90.0377 63.9255C90.0053 63.8689 89.9783 63.8359 89.9783 63.8359C89.9783 63.8359 89.974 63.8371 89.9729 63.8382C89.975 63.8359 89.9772 63.8335 89.9794 63.8311C89.9794 63.8323 89.9794 63.8347 89.9783 63.837C89.9783 63.837 90.0117 63.804 90.0593 63.7569C83.5612 62.6675 78.399 63.3914 76.9648 63.6437C78.3029 62.2689 79.7198 60.906 81.2479 59.5549C81.9898 58.8993 82.7383 58.2497 83.4888 57.6C84.5547 56.6757 85.6271 55.7301 86.692 54.768C87.6369 54.3895 91.0291 53.1386 95.783 52.5208C95.6588 52.4619 95.5562 52.4654 95.5562 52.4654L95.5519 52.4701C95.5606 52.4371 95.566 52.4053 95.5746 52.3734C91.4157 52.9323 88.3238 53.9698 87.03 54.458C89.1348 52.5397 91.1846 50.5212 92.9752 48.2433C94.324 46.5267 95.6761 44.6438 96.5736 42.7067C96.5174 42.63 96.4494 42.5687 96.3738 42.518C95.4882 44.4504 94.1307 46.338 92.7775 48.0582C91.0733 50.2276 89.1251 52.1636 87.1196 54.0052C87.9393 52.8769 89.3012 50.6426 90.0809 47.3838C90.0625 47.398 90.0474 47.4098 90.029 47.4239C89.9966 47.3933 89.9545 47.3838 89.921 47.3567C88.8508 51.8122 86.6941 54.3365 86.3756 54.6878C85.3615 55.6004 84.3409 56.4988 83.3268 57.3784C82.5763 58.0292 81.8268 58.6788 81.0848 59.3356C79.6701 60.5865 78.358 61.8492 77.1063 63.119C77.9767 61.6653 79.8451 58.0988 80.5341 53.3332C80.492 53.3815 80.4628 53.4157 80.4628 53.4157C80.4639 53.4145 80.466 53.4145 80.4671 53.4133C80.466 53.4145 80.4639 53.4145 80.4617 53.4157L80.4628 53.4145C80.4293 53.3945 80.3948 53.3827 80.3613 53.3638C79.5384 58.9453 77.1031 62.8714 76.6084 63.6177C73.9399 66.3767 71.6525 69.1933 69.7054 72.0914C70.0941 70.6494 71.024 66.5547 70.5153 62.1675C70.4862 62.2253 70.4678 62.2631 70.4678 62.2631L70.4743 62.2572C70.4711 62.2619 70.4678 62.2678 70.4646 62.2725L70.4667 62.2631C70.4322 62.256 70.403 62.2666 70.3695 62.2619C70.9419 67.3399 69.5779 72.0065 69.4192 72.5229C68.0951 74.5343 66.9169 76.5823 65.918 78.6868C65.918 78.688 65.918 78.688 65.918 78.6891C65.918 78.8695 65.9201 78.9745 65.9201 78.9745C65.9201 78.9745 66.0065 78.9096 66.1534 78.8059C67.1534 76.706 68.3284 74.6652 69.6503 72.6597Z" fill="url(#paint119_linear_292_3268)"/>
<g opacity="0.1">
<path d="M74.1964 58.1613C73.6057 58.976 73.029 59.8626 72.4847 60.7952C72.3692 60.9921 72.4232 61.2538 72.6035 61.38C72.6715 61.4272 72.7482 61.4484 72.8238 61.446C72.9469 61.4425 73.0679 61.3729 73.1392 61.2503C73.6619 60.3543 74.2386 59.4688 74.8055 58.6871C74.9384 58.5044 74.9103 58.2367 74.7418 58.0917C74.5734 57.9479 74.3293 57.9774 74.1964 58.1613Z" fill="white"/>
<path d="M87.5545 49.0652C87.4476 48.8612 87.2122 48.7929 87.0242 48.9084C85.1916 50.0568 82.8254 52.3641 81.2789 54.1621C81.1839 54.2847 81.0672 54.3837 80.9333 54.4557C80.6234 54.6196 80.2475 54.6089 79.9484 54.4285C79.6492 54.247 79.3414 54.1645 79.0077 54.1762C78.0012 54.2104 76.7809 55.0464 75.3812 56.6604C75.2344 56.8314 75.2409 57.099 75.3975 57.2606C75.4752 57.3407 75.5756 57.3796 75.6761 57.3761C75.7754 57.3726 75.8726 57.3289 75.9461 57.244C77.1643 55.8375 78.2594 55.0499 79.0304 55.024C79.227 55.0181 79.3933 55.0629 79.5715 55.1701C80.0877 55.4838 80.7335 55.5015 81.2724 55.2173C81.5068 55.0935 81.7087 54.9202 81.8588 54.7233C83.3503 52.9901 85.6462 50.7477 87.4109 49.6429C87.5966 49.5274 87.6603 49.268 87.5545 49.0652Z" fill="white"/>
</g>
<path d="M82.0095 35.0724C82.0095 35.0724 82.0074 35.0783 82.0074 35.0795C81.6953 31.0472 80.7849 27.654 80.0991 25.5719C79.8529 24.8244 78.9004 24.8067 78.612 25.5365C78.0299 27.0126 76.9446 29.2575 74.9348 32.33C71.7683 31.0048 67.5673 41.9697 67.5673 41.9697C67.5684 41.9685 67.5695 41.9673 67.5705 41.9662C67.5695 41.9673 67.5684 41.9697 67.5662 41.9709V41.9697C62.3846 41.1066 60.7279 54.5687 60.7279 54.5687L60.7323 54.5604C60.7312 54.5663 60.7301 54.5734 60.7279 54.5793L60.7269 54.5687C57.338 55.1558 59.7528 65.3897 61.0919 70.2178C61.4796 71.78 61.8219 72.7056 61.8219 72.7056C61.8219 72.7056 64.0488 69.2569 66.956 66.7197C70.6668 63.4809 72.7684 61.2478 71.6863 60.2351L71.6852 60.2362C71.6862 60.2362 71.6863 60.2351 71.6863 60.2351C71.6863 60.2351 77.4284 55.8927 79.6196 52.5337C81.8108 49.1747 80.3237 48.4001 80.3237 48.4001C80.3237 48.4001 80.3194 48.4036 80.3184 48.4036C80.3194 48.4001 80.3205 48.3965 80.3216 48.3942C80.3227 48.3953 80.3237 48.3977 80.3237 48.4001C80.3237 48.4001 82.6867 43.5743 83.1122 38.9797C83.5377 34.385 82.0095 35.0724 82.0095 35.0724Z" fill="url(#paint120_linear_292_3268)"/>
<g opacity="0.2">
<path d="M69.7949 59.6336L69.7959 59.6326L69.7949 59.6336Z" fill="#999999"/>
<path d="M78.2246 48.466L78.2289 48.4625V48.4567L78.2246 48.466Z" fill="#999999"/>
<path d="M82.0096 35.0736L82.0075 35.0795C81.7267 31.4446 80.9599 28.339 80.3087 26.2345C80.6651 28.5277 80.9642 31.4564 80.9146 34.7069L80.9178 34.6999C80.9178 34.6999 82.4568 33.9441 81.6155 38.876C80.8033 43.6321 78.2298 48.4626 78.2298 48.4626C78.2298 48.4626 79.5268 49.2089 77.287 52.4547C75.1012 55.6228 69.7975 59.6338 69.7975 59.6338C70.7014 60.531 69.3774 63.0517 66.1613 66.0252C63.172 68.7889 61.8242 72.7056 61.8242 72.7056C61.8242 72.7056 64.0511 69.257 66.9583 66.7197C70.6691 63.4809 72.7706 61.2479 71.6885 60.2351C71.6885 60.2351 77.4306 55.8927 79.6219 52.5337C81.8131 49.1747 80.326 48.4001 80.326 48.4001C80.326 48.4001 80.3217 48.4036 80.3206 48.4048C80.3217 48.4013 80.3238 48.3977 80.3249 48.3953C80.326 48.3977 80.326 48.3977 80.326 48.4001C80.326 48.4001 82.69 43.5755 83.1155 38.9809C83.54 34.3851 82.0096 35.0736 82.0096 35.0736Z" fill="#999999"/>
</g>
<path d="M63.3759 65.0574C64.0174 64.5681 67.0801 62.3363 71.7607 60.3213C71.7358 60.2918 71.7185 60.2612 71.6894 60.2341C71.6894 60.2341 71.7704 60.1728 71.8989 60.0725C67.4095 61.9802 64.3641 64.1083 63.4439 64.791C64.3824 61.1442 65.6902 57.4409 67.403 53.641C68.2659 53.0904 73.2445 50.065 80.4132 48.4627C80.3625 48.4203 80.3258 48.3991 80.3258 48.3991C80.3258 48.3991 80.3215 48.4026 80.3204 48.4038C80.3215 48.4002 80.3236 48.3967 80.3247 48.3943C80.3258 48.3967 80.3258 48.3979 80.3258 48.4002C80.3258 48.4002 80.3474 48.3542 80.3787 48.2894C73.6635 49.7915 68.8567 52.5398 67.538 53.3533C68.3912 51.4798 69.3232 49.5875 70.3697 47.6622C70.8783 46.7272 71.3945 45.7969 71.9129 44.8643C72.6484 43.5391 73.3838 42.1903 74.1063 40.8297C74.9055 40.0858 77.8063 37.5226 82.2503 35.0396C82.1099 35.0302 82.0105 35.0738 82.0105 35.0738L82.0084 35.0797C82.0051 35.0443 82.0008 35.0113 81.9986 34.9759C78.1184 37.1653 75.439 39.402 74.3353 40.3912C75.7565 37.6841 77.0924 34.8993 78.0881 31.9658C78.8376 29.754 79.5353 27.3795 79.7718 25.1311C79.6918 25.078 79.6044 25.045 79.5137 25.025C79.288 27.2639 78.587 29.6467 77.8343 31.8633C76.8872 34.6588 75.6237 37.321 74.2748 39.9136C74.7025 38.487 75.2932 35.7635 74.9746 32.2689C74.9617 32.2889 74.9498 32.3078 74.9368 32.3278C74.8947 32.3101 74.8515 32.3184 74.8083 32.3042C75.2392 37.084 73.967 40.4041 73.7726 40.8745C73.0836 42.1679 72.3838 43.4495 71.684 44.7099C71.1656 45.6425 70.6494 46.5739 70.1407 47.5089C69.172 49.2916 68.308 51.0436 67.5045 52.7815C67.8739 51.0165 68.5186 46.7909 67.6115 41.859C67.5866 41.9227 67.5694 41.9675 67.5694 41.9675C67.5704 41.9663 67.5715 41.9651 67.5726 41.964C67.5715 41.9651 67.5704 41.9675 67.5683 41.9687V41.9675C67.5283 41.9604 67.4905 41.9628 67.4516 41.9581C68.4981 47.74 67.4182 52.541 67.1827 53.4665C65.4883 57.2181 64.1859 60.8766 63.2431 64.4797C63.1448 62.9163 62.6966 58.5445 60.7451 54.4569C60.7365 54.5241 60.73 54.5677 60.73 54.5677L60.7343 54.5594C60.7332 54.5665 60.7322 54.5724 60.73 54.5783L60.7289 54.5677C60.6933 54.5736 60.6674 54.596 60.6328 54.6042C62.8759 59.3427 63.0897 64.4443 63.1059 65.0126C62.4784 67.5027 62.0054 69.9704 61.7257 72.4228C61.7257 72.424 61.7268 72.4239 61.7268 72.4251C61.7862 72.6008 61.8229 72.7045 61.8229 72.7045C61.8229 72.7045 61.8866 72.6079 61.9946 72.4463C62.2754 70.0022 62.7484 67.5404 63.3759 65.0574Z" fill="url(#paint121_linear_292_3268)"/>
<g opacity="0.1">
<path d="M63.0127 49.0863C62.7049 50.1168 62.436 51.2109 62.2124 52.3381C62.1649 52.5762 62.3042 52.812 62.5224 52.8627C62.6044 52.8827 62.6865 52.8721 62.76 52.8403C62.8787 52.7873 62.9738 52.6729 63.0029 52.5243C63.2168 51.442 63.4868 50.3479 63.7827 49.3598C63.8518 49.1288 63.7362 48.8788 63.5235 48.8033C63.3096 48.7279 63.0818 48.8529 63.0127 49.0863Z" fill="white"/>
<path d="M73.0567 34.9121C72.885 34.7542 72.6312 34.7813 72.4865 34.9676C71.075 36.8139 69.5264 40.0067 68.6106 42.3753C68.5587 42.5333 68.4777 42.676 68.3697 42.7986C68.1213 43.0816 67.7509 43.2195 67.3977 43.1617C67.0446 43.1028 66.7174 43.1441 66.3945 43.2867H66.3934C65.4204 43.7171 64.5056 45.0163 63.673 47.148C63.5855 47.3732 63.6816 47.6326 63.8868 47.7281C63.9894 47.7752 64.1007 47.7741 64.1968 47.7316C64.2929 47.6892 64.3739 47.6078 64.4171 47.4958C65.1417 45.64 65.9506 44.4362 66.6969 44.1061H66.698C66.888 44.0224 67.0651 44.0012 67.2746 44.0354C67.8837 44.1379 68.5209 43.8998 68.954 43.4093C69.1419 43.1948 69.2823 42.9471 69.3644 42.6948C70.2478 40.4111 71.7489 37.3102 73.1075 35.5335C73.2511 35.3472 73.2284 35.069 73.0567 34.9121Z" fill="white"/>
</g>
<path d="M74.1562 70.5945C61.4938 54.6129 41.7101 45.2326 20.314 47.2782C-1.08208 49.3227 -19.072 62.3119 -29 80.4523L74.1562 70.5945Z" fill="url(#paint122_linear_292_3268)"/>
<path d="M153.542 66.4557C148.213 57.3525 139.651 51.6071 130.205 52.021C120.759 52.4336 112.645 58.9088 108 68.4471L153.542 66.4557Z" fill="url(#paint123_linear_292_3268)"/>
<path d="M361.389 61.9148L361.394 61.9183C359.478 58.2598 358.422 54.7628 357.881 52.5357C357.687 51.7363 358.494 51.1055 359.136 51.5453C360.435 52.4355 362.58 53.6593 365.968 54.9951C367.966 51.8153 377.504 58.505 377.504 58.505C377.502 58.505 377.501 58.5039 377.498 58.5039C377.501 58.5039 377.503 58.505 377.504 58.505H377.503C381.478 54.4221 390.188 64.893 390.188 64.893L390.179 64.8883C390.184 64.893 390.188 64.8977 390.193 64.9024L390.188 64.893C393.412 63.2093 396.883 73.5411 398.349 78.5449C398.863 80.1342 399.071 81.1481 399.071 81.1481C399.071 81.1481 395.295 79.6284 391.428 79.3301C386.492 78.9493 383.482 78.3904 383.86 76.8235C383.86 76.8235 383.862 76.8235 383.863 76.8235C383.862 76.8235 383.862 76.8235 383.86 76.8235C383.86 76.8235 376.586 76.807 372.889 75.3414C369.191 73.8759 370.048 72.2512 370.048 72.2512C370.048 72.2512 370.053 72.2512 370.054 72.2512C370.051 72.2489 370.049 72.2477 370.046 72.2454C370.047 72.2477 370.047 72.2489 370.048 72.2512C370.048 72.2512 365.408 69.6397 362.556 65.9753C359.704 62.3133 361.389 61.9148 361.389 61.9148Z" fill="url(#paint124_linear_292_3268)"/>
<g opacity="0.2">
<path d="M385.16 75.088L385.158 75.0889V75.088H385.16Z" fill="#999999"/>
<path d="M371.885 70.954H371.879L371.877 70.9485L371.885 70.954Z" fill="#999999"/>
<path d="M361.389 61.9148L361.394 61.9183C359.666 58.6206 358.643 55.4632 358.061 53.2384C358.997 55.4337 360.326 58.1372 362.129 60.8926L362.122 60.8879C362.122 60.8879 360.394 61.2333 363.785 64.9189C367.057 68.4725 371.879 70.952 371.879 70.952C371.879 70.952 371.171 72.4293 374.848 73.7663C378.438 75.0715 385.157 75.0868 385.157 75.0868C384.867 76.4392 387.368 77.7455 391.735 78.2195C395.793 78.6592 399.071 81.147 399.071 81.147C399.071 81.147 395.295 79.6284 391.428 79.3289C386.494 78.9481 383.483 78.3892 383.861 76.8223H383.863C383.862 76.8223 383.862 76.8223 383.861 76.8223C383.861 76.8223 376.586 76.8058 372.889 75.3403C369.192 73.8748 370.048 72.2501 370.048 72.2501C370.048 72.2501 370.053 72.2501 370.055 72.2501C370.051 72.2477 370.049 72.2466 370.046 72.2442C370.047 72.2466 370.047 72.2477 370.048 72.2501C370.048 72.2501 365.409 69.6386 362.556 65.9742C359.704 62.3133 361.389 61.9148 361.389 61.9148Z" fill="#999999"/>
</g>
<path d="M393.602 75.5938C392.786 75.5891 388.953 75.6515 383.85 76.9449C383.855 76.9048 383.853 76.8659 383.864 76.8235H383.866C383.865 76.8235 383.865 76.8235 383.864 76.8235C383.864 76.8235 383.761 76.8235 383.597 76.8211C388.478 75.5596 392.242 75.4181 393.401 75.4098C390.621 72.8891 387.496 70.5582 383.969 68.4065C382.931 68.4913 377.024 69.1115 370.01 72.3644C370.031 72.2949 370.051 72.2536 370.051 72.2536C370.051 72.2536 370.057 72.2536 370.058 72.2536C370.054 72.2512 370.052 72.2501 370.049 72.2477C370.05 72.2501 370.05 72.2512 370.051 72.2536C370.051 72.2536 370.008 72.2288 369.945 72.1923C376.516 69.1469 382.125 68.4005 383.695 68.2473C381.95 67.192 380.126 66.171 378.186 65.196C377.245 64.7232 376.298 64.2587 375.349 63.793C374.001 63.1315 372.641 62.45 371.284 61.7485C370.197 61.6259 366.321 61.3017 361.167 62.0409C361.283 61.9419 361.392 61.9159 361.392 61.9159L361.397 61.9195C361.38 61.8876 361.366 61.8558 361.35 61.824C365.863 61.1967 369.371 61.3854 370.852 61.5198C368.168 60.1168 365.515 58.5911 363.074 56.7176C361.233 55.3052 359.35 53.7194 357.93 51.9438C357.97 51.8459 358.027 51.7622 358.094 51.6868C359.5 53.4612 361.391 55.0505 363.237 56.4665C365.563 58.2515 368.087 59.7194 370.648 61.0706C369.509 60.1239 367.528 58.1702 365.908 54.9692C365.931 54.9786 365.951 54.9868 365.973 54.9951C366 54.9527 366.041 54.9314 366.07 54.8925C368.289 59.2679 371.178 61.2946 371.599 61.5717C372.889 62.2355 374.183 62.8827 375.466 63.5112C376.415 63.9769 377.363 64.4414 378.305 64.9154C380.101 65.8185 381.79 66.7629 383.42 67.7344C382.148 66.4587 379.307 63.2529 377.413 58.439C377.469 58.4779 377.508 58.505 377.508 58.505C377.506 58.505 377.505 58.5039 377.503 58.5039C377.505 58.5039 377.507 58.505 377.508 58.505C377.538 58.4744 377.571 58.4508 377.601 58.4213C379.834 64.0535 383.361 67.4727 384.064 68.1141C387.548 70.2375 390.645 72.5318 393.404 75.0125C392.642 73.6083 390.659 69.5713 390.119 64.8069C390.163 64.8588 390.191 64.893 390.191 64.893L390.183 64.8882C390.187 64.893 390.191 64.8977 390.197 64.9024L390.191 64.893C390.225 64.8753 390.259 64.8776 390.294 64.8623C390.936 70.3719 393.515 74.8852 393.809 75.3816C395.695 77.1112 397.437 78.9221 399.005 80.8439C399.005 80.8451 399.005 80.8451 399.006 80.8463C399.05 81.0361 399.074 81.1481 399.074 81.1481C399.074 81.1481 398.967 81.1057 398.787 81.0385C397.222 79.1237 395.484 77.3187 393.602 75.5938Z" fill="url(#paint125_linear_292_3268)"/>
<g opacity="0.3">
<path d="M385.262 61.6683C386.083 62.3533 386.906 63.1173 387.708 63.9403C387.878 64.1136 387.886 64.406 387.726 64.5911C387.666 64.6607 387.591 64.7055 387.51 64.7255C387.379 64.7573 387.236 64.7208 387.13 64.6112C386.36 63.8212 385.537 63.0572 384.748 62.4017C384.563 62.2472 384.527 61.9584 384.669 61.7568C384.812 61.5528 385.076 61.5139 385.262 61.6683Z" fill="white"/>
<path d="M368.977 55.9996C369.039 55.7532 369.27 55.6129 369.496 55.6789C371.706 56.3509 374.762 58.0876 376.83 59.5284C376.96 59.6298 377.106 59.7005 377.266 59.7359C377.632 59.8173 378.025 59.697 378.295 59.4199C378.567 59.1417 378.87 58.9648 379.223 58.88C380.29 58.6217 381.779 59.1452 383.648 60.4351C383.844 60.5718 383.903 60.856 383.778 61.0706C383.716 61.1779 383.62 61.2474 383.514 61.2734C383.409 61.2993 383.295 61.2804 383.196 61.2132C381.57 60.0896 380.224 59.5803 379.407 59.7784C379.198 59.8291 379.034 59.9245 378.873 60.0908C378.407 60.5718 377.732 60.7794 377.095 60.6379C376.818 60.5754 376.562 60.4539 376.356 60.29C374.361 58.9023 371.396 57.2128 369.269 56.5667C369.046 56.4983 368.914 56.2448 368.977 55.9996Z" fill="white"/>
</g>
<path d="M387.68 44.1528L387.682 44.1611C388.705 39.5311 390.321 35.7606 391.458 33.4721C391.866 32.6503 392.979 32.8154 393.193 33.7209C393.63 35.5519 394.525 38.3745 396.36 42.3407C400.261 41.4175 403.353 54.9927 403.353 54.9927C403.352 54.9916 403.35 54.9892 403.349 54.988C403.35 54.9904 403.352 54.9927 403.354 54.9939V54.9927C409.522 54.9998 409.247 70.985 409.247 70.985L409.243 70.9744C409.244 70.9826 409.244 70.9897 409.244 70.998L409.246 70.9861C413.093 72.3302 408.608 83.7656 406.261 89.1207C405.555 90.8633 405.005 91.8725 405.005 91.8725C405.005 91.8725 402.979 87.4264 400.011 83.907C396.224 79.4162 394.145 76.4073 395.569 75.4393C395.569 75.4393 389.599 69.2683 387.599 64.9319C385.599 60.5966 387.457 59.9859 387.457 59.9859C387.457 59.9859 387.461 59.9906 387.462 59.9918C387.461 59.9883 387.46 59.9835 387.459 59.98C387.458 59.9824 387.458 59.9847 387.457 59.9859C387.457 59.9859 385.497 53.9104 385.754 48.4822C386.012 43.054 387.68 44.1528 387.68 44.1528Z" fill="url(#paint126_linear_292_3268)"/>
<g opacity="0.2">
<path d="M397.873 75.109L397.872 75.108H397.871L397.873 75.109Z" fill="#999999"/>
<path d="M389.892 60.4724L389.887 60.4667L389.889 60.461L389.892 60.4724Z" fill="#999999"/>
<path d="M387.681 44.1528C387.681 44.1528 387.683 44.1599 387.683 44.1611C388.606 39.9862 390.006 36.5234 391.107 34.2019C390.317 36.8005 389.49 40.1489 389.015 43.9406L389.013 43.9323C389.013 43.9323 387.346 42.7533 387.518 48.6555C387.684 54.3478 389.888 60.4681 389.888 60.4681C389.888 60.4681 388.257 61.0835 390.331 65.2962C392.356 69.4086 397.871 75.1092 397.871 75.1092C396.672 75.9769 397.8 79.1673 401.054 83.2538C404.079 87.0515 405.007 91.8725 405.007 91.8725C405.007 91.8725 402.981 87.4264 400.013 83.907C396.226 79.4161 394.147 76.4073 395.571 75.4393L395.572 75.4405C395.572 75.4405 395.571 75.4393 395.571 75.4381C395.571 75.4381 389.601 69.2671 387.601 64.9319C385.601 60.5966 387.459 59.9859 387.459 59.9859C387.459 59.9859 387.463 59.9906 387.464 59.9918C387.463 59.9882 387.462 59.9835 387.461 59.98C387.46 59.9823 387.46 59.9847 387.459 59.9859C387.459 59.9859 385.499 53.9104 385.756 48.4822C386.013 43.054 387.681 44.1528 387.681 44.1528Z" fill="#999999"/>
</g>
<path d="M404.452 82.6716C403.786 81.9771 400.588 78.7831 395.472 75.5267C395.506 75.4972 395.532 75.4642 395.57 75.4383L395.571 75.4394C395.571 75.4394 395.57 75.4394 395.57 75.4383C395.57 75.4383 395.485 75.3498 395.352 75.2095C400.263 78.3045 403.459 81.3746 404.416 82.3485C403.921 77.9225 403.006 73.3596 401.635 68.6035C400.721 67.7947 395.424 63.3038 387.346 60.0414C387.412 60.0014 387.458 59.9848 387.458 59.9848C387.458 59.9848 387.462 59.9896 387.463 59.9907C387.462 59.9872 387.461 59.9825 387.46 59.9789C387.459 59.9813 387.459 59.9837 387.458 59.9848C387.458 59.9848 387.44 59.9271 387.415 59.8457C394.981 62.9041 400.124 67.0378 401.524 68.2415C400.839 65.8965 400.063 63.5125 399.161 61.0684C398.723 59.8823 398.275 58.6985 397.824 57.5125C397.185 55.8265 396.551 54.1145 395.933 52.3908C395.126 51.3686 392.17 47.8209 387.406 44.0657C387.571 44.0822 387.679 44.1529 387.679 44.1529C387.679 44.1529 387.682 44.16 387.682 44.1612C387.69 44.1211 387.701 44.0834 387.711 44.0421C391.867 47.3469 394.618 50.4714 395.74 51.8367C394.53 48.4092 393.431 44.9099 392.753 41.3021C392.243 38.5833 391.82 35.6841 391.914 33.0218C392.015 32.9759 392.122 32.9546 392.231 32.9487C392.128 35.598 392.553 38.5066 393.065 41.2325C393.71 44.6694 394.743 48.0131 395.889 51.2931C395.625 49.5494 395.384 46.2658 396.325 42.263C396.337 42.2889 396.348 42.3137 396.36 42.3396C396.412 42.3278 396.462 42.3444 396.512 42.3373C395.229 47.8138 396.165 51.9251 396.315 52.5099C396.904 54.1487 397.509 55.7757 398.117 57.3792C398.568 58.5653 399.017 59.7502 399.454 60.9375C400.289 63.2 401.007 65.4072 401.657 67.5848C401.517 65.459 401.459 60.4175 403.32 54.8561C403.339 54.9351 403.352 54.9917 403.352 54.9917C403.351 54.9905 403.35 54.9882 403.348 54.987C403.35 54.9894 403.351 54.9917 403.353 54.9929C403.4 54.9929 403.443 55.0011 403.49 55.0035C401.326 61.527 401.797 67.3219 401.92 68.4455C403.277 73.1415 404.193 77.6501 404.701 82.0266C405.071 80.2263 406.308 75.2284 409.247 70.8531C409.247 70.9332 409.246 70.9851 409.246 70.9851L409.242 70.9745C409.243 70.9828 409.243 70.9898 409.243 70.9981L409.245 70.9863C409.286 71.0004 409.312 71.0311 409.351 71.0476C405.966 76.1233 404.881 82.0172 404.771 82.6739C405.093 85.6934 405.239 88.6562 405.164 91.5637C405.164 91.5649 405.163 91.5661 405.163 91.5661C405.065 91.7594 405.005 91.8715 405.005 91.8715C405.005 91.8715 404.947 91.7465 404.847 91.5378C404.923 88.6386 404.776 85.6828 404.452 82.6716Z" fill="url(#paint127_linear_292_3268)"/>
<g opacity="0.3">
<path d="M407.487 64.1608C407.676 65.42 407.81 66.7452 407.885 68.0999C407.903 68.3864 407.702 68.6328 407.439 68.6505C407.34 68.6576 407.247 68.6304 407.167 68.5786C407.038 68.4937 406.946 68.3416 406.936 68.1636C406.864 66.8619 406.73 65.5367 406.547 64.3294C406.505 64.0464 406.68 63.7788 406.94 63.7316C407.198 63.6856 407.444 63.8766 407.487 64.1608Z" fill="white"/>
<path d="M398.121 45.7126C398.348 45.5629 398.637 45.6431 398.776 45.8883C400.116 48.3124 401.394 52.3281 402.073 55.2627C402.107 55.456 402.179 55.6376 402.283 55.8027C402.526 56.18 402.934 56.4134 403.355 56.4146C403.775 56.4146 404.149 56.5266 404.502 56.7553L404.503 56.7565C405.564 57.4474 406.416 59.1381 407.035 61.7803C407.1 62.0586 406.947 62.3427 406.691 62.4134C406.563 62.4488 406.435 62.4252 406.329 62.3568C406.224 62.2885 406.143 62.1777 406.111 62.0397C405.572 59.7394 404.827 58.1808 404.013 57.6514L404.012 57.6502C403.806 57.5158 403.603 57.4557 403.352 57.4557C402.627 57.4557 401.925 57.056 401.501 56.4004C401.318 56.1151 401.195 55.798 401.142 55.4891C400.487 52.6594 399.249 48.7592 397.958 46.4283C397.824 46.1807 397.895 45.8612 398.121 45.7126Z" fill="white"/>
</g>
<path d="M772 143C649.037 96.49 443.431 66 210.5 66C-22.4312 66 -228.038 96.49 -351 143H772Z" fill="url(#paint128_linear_292_3268)"/>
<g opacity="0.2">
<path d="M506.616 88.6625C414.89 77.1081 312.642 71 210.928 71C143.448 71 76.4942 73.6186 11.9248 78.7739C10.7811 78.8651 9.92146 79.9429 10.0057 81.1832C10.0899 82.42 11.0705 83.3283 12.2315 83.2605C76.6994 78.1087 143.552 75.5007 210.929 75.5007C312.484 75.5007 414.566 81.5958 506.136 93.1292C506.217 93.1398 506.298 93.1456 506.379 93.1456C507.418 93.1456 508.318 92.3004 508.439 91.156C508.572 89.9227 507.755 88.8051 506.616 88.6625Z" fill="white"/>
</g>
<path d="M422.75 142.926C409.31 129.078 386.835 120 361.375 120C335.914 120 313.44 129.078 300 142.926H422.75Z" fill="url(#paint129_linear_292_3268)"/>
<path d="M289 143C257.028 109.779 203.566 88 143 88C82.4337 88 28.9725 109.779 -3 143H289Z" fill="url(#paint130_linear_292_3268)"/>
<path d="M449.854 79.7118C436.235 58.584 412.604 43.8524 385.205 42.2113C357.806 40.5702 333.065 52.4038 317.756 71.8L449.854 79.7118Z" fill="url(#paint131_linear_292_3268)"/>
<defs>
<linearGradient id="paint0_linear_292_3268" x1="271.341" y1="82.2998" x2="286.181" y2="3.8829" gradientUnits="userSpaceOnUse">
<stop stop-color="#1C7042"/>
<stop offset="1" stop-color="#3CC677"/>
</linearGradient>
<linearGradient id="paint1_linear_292_3268" x1="271.86" y1="81.9768" x2="287.123" y2="1.316" gradientUnits="userSpaceOnUse">
<stop stop-color="#115630"/>
<stop offset="1" stop-color="#05351B"/>
</linearGradient>
<linearGradient id="paint2_linear_292_3268" x1="272.835" y1="82.1407" x2="288.082" y2="1.56913" gradientUnits="userSpaceOnUse">
<stop stop-color="#115630"/>
<stop offset="1" stop-color="#05351B"/>
</linearGradient>
<linearGradient id="paint3_linear_292_3268" x1="281.885" y1="75.0939" x2="281.918" y2="74.2475" gradientUnits="userSpaceOnUse">
<stop stop-color="#EBF2EE"/>
<stop offset="0.0906" stop-color="#EEF4F1"/>
<stop offset="0.5539" stop-color="#FBFCFB"/>
<stop offset="1" stop-color="white"/>
</linearGradient>
<linearGradient id="paint4_linear_292_3268" x1="281.859" y1="75.093" x2="281.891" y2="74.2465" gradientUnits="userSpaceOnUse">
<stop stop-color="#EBF2EE"/>
<stop offset="0.0906" stop-color="#EEF4F1"/>
<stop offset="0.5539" stop-color="#FBFCFB"/>
<stop offset="1" stop-color="white"/>
</linearGradient>
<linearGradient id="paint5_linear_292_3268" x1="275.28" y1="73.6369" x2="275.075" y2="72.8191" gradientUnits="userSpaceOnUse">
<stop stop-color="#EBF2EE"/>
<stop offset="0.0906" stop-color="#EEF4F1"/>
<stop offset="0.5539" stop-color="#FBFCFB"/>
<stop offset="1" stop-color="white"/>
</linearGradient>
<linearGradient id="paint6_linear_292_3268" x1="275.254" y1="73.6432" x2="275.049" y2="72.8254" gradientUnits="userSpaceOnUse">
<stop stop-color="#EBF2EE"/>
<stop offset="0.0906" stop-color="#EEF4F1"/>
<stop offset="0.5539" stop-color="#FBFCFB"/>
<stop offset="1" stop-color="white"/>
</linearGradient>
<linearGradient id="paint7_linear_292_3268" x1="289.671" y1="37.8291" x2="305.484" y2="29.1845" gradientUnits="userSpaceOnUse">
<stop stop-color="#1C7042"/>
<stop offset="1" stop-color="#3CC677"/>
</linearGradient>
<linearGradient id="paint8_linear_292_3268" x1="289.787" y1="37.836" x2="305.982" y2="28.9822" gradientUnits="userSpaceOnUse">
<stop stop-color="#115630"/>
<stop offset="1" stop-color="#05351B"/>
</linearGradient>
<linearGradient id="paint9_linear_292_3268" x1="289.939" y1="38.0574" x2="306.034" y2="29.258" gradientUnits="userSpaceOnUse">
<stop stop-color="#115630"/>
<stop offset="1" stop-color="#05351B"/>
</linearGradient>
<linearGradient id="paint10_linear_292_3268" x1="269.689" y1="33.8028" x2="255.755" y2="21.8828" gradientUnits="userSpaceOnUse">
<stop stop-color="#1C7042"/>
<stop offset="1" stop-color="#3CC677"/>
</linearGradient>
<linearGradient id="paint11_linear_292_3268" x1="261.655" y1="35.7235" x2="262.445" y2="18.2887" gradientUnits="userSpaceOnUse">
<stop stop-color="#115630"/>
<stop offset="1" stop-color="#05351B"/>
</linearGradient>
<linearGradient id="paint12_linear_292_3268" x1="262.178" y1="35.2713" x2="262.887" y2="19.6032" gradientUnits="userSpaceOnUse">
<stop stop-color="#115630"/>
<stop offset="1" stop-color="#05351B"/>
</linearGradient>
<linearGradient id="paint13_linear_292_3268" x1="271.468" y1="48.9629" x2="271.501" y2="48.1163" gradientUnits="userSpaceOnUse">
<stop stop-color="#EBF2EE"/>
<stop offset="0.0906" stop-color="#EEF4F1"/>
<stop offset="0.5539" stop-color="#FBFCFB"/>
<stop offset="1" stop-color="white"/>
</linearGradient>
<linearGradient id="paint14_linear_292_3268" x1="271.442" y1="48.9617" x2="271.475" y2="48.1153" gradientUnits="userSpaceOnUse">
<stop stop-color="#EBF2EE"/>
<stop offset="0.0906" stop-color="#EEF4F1"/>
<stop offset="0.5539" stop-color="#FBFCFB"/>
<stop offset="1" stop-color="white"/>
</linearGradient>
<linearGradient id="paint15_linear_292_3268" x1="283.154" y1="28.4228" x2="283.187" y2="27.5764" gradientUnits="userSpaceOnUse">
<stop stop-color="#EBF2EE"/>
<stop offset="0.0906" stop-color="#EEF4F1"/>
<stop offset="0.5539" stop-color="#FBFCFB"/>
<stop offset="1" stop-color="white"/>
</linearGradient>
<linearGradient id="paint16_linear_292_3268" x1="283.128" y1="28.4219" x2="283.161" y2="27.5754" gradientUnits="userSpaceOnUse">
<stop stop-color="#EBF2EE"/>
<stop offset="0.0906" stop-color="#EEF4F1"/>
<stop offset="0.5539" stop-color="#FBFCFB"/>
<stop offset="1" stop-color="white"/>
</linearGradient>
<linearGradient id="paint17_linear_292_3268" x1="291.283" y1="22.8982" x2="291.316" y2="22.0517" gradientUnits="userSpaceOnUse">
<stop stop-color="#EBF2EE"/>
<stop offset="0.0906" stop-color="#EEF4F1"/>
<stop offset="0.5539" stop-color="#FBFCFB"/>
<stop offset="1" stop-color="white"/>
</linearGradient>
<linearGradient id="paint18_linear_292_3268" x1="291.257" y1="22.8972" x2="291.29" y2="22.0508" gradientUnits="userSpaceOnUse">
<stop stop-color="#EBF2EE"/>
<stop offset="0.0906" stop-color="#EEF4F1"/>
<stop offset="0.5539" stop-color="#FBFCFB"/>
<stop offset="1" stop-color="white"/>
</linearGradient>
<linearGradient id="paint19_linear_292_3268" x1="292.421" y1="34.899" x2="292.978" y2="34.3041" gradientUnits="userSpaceOnUse">
<stop stop-color="#EBF2EE"/>
<stop offset="0.0906" stop-color="#EEF4F1"/>
<stop offset="0.5539" stop-color="#FBFCFB"/>
<stop offset="1" stop-color="white"/>
</linearGradient>
<linearGradient id="paint20_linear_292_3268" x1="292.402" y1="34.8807" x2="292.959" y2="34.2859" gradientUnits="userSpaceOnUse">
<stop stop-color="#EBF2EE"/>
<stop offset="0.0906" stop-color="#EEF4F1"/>
<stop offset="0.5539" stop-color="#FBFCFB"/>
<stop offset="1" stop-color="white"/>
</linearGradient>
<linearGradient id="paint21_linear_292_3268" x1="297.556" y1="24.2993" x2="298.112" y2="23.7044" gradientUnits="userSpaceOnUse">
<stop stop-color="#EBF2EE"/>
<stop offset="0.0906" stop-color="#EEF4F1"/>
<stop offset="0.5539" stop-color="#FBFCFB"/>
<stop offset="1" stop-color="white"/>
</linearGradient>
<linearGradient id="paint22_linear_292_3268" x1="297.537" y1="24.2809" x2="298.093" y2="23.686" gradientUnits="userSpaceOnUse">
<stop stop-color="#EBF2EE"/>
<stop offset="0.0906" stop-color="#EEF4F1"/>
<stop offset="0.5539" stop-color="#FBFCFB"/>
<stop offset="1" stop-color="white"/>
</linearGradient>
<linearGradient id="paint23_linear_292_3268" x1="305.756" y1="35.0605" x2="306.516" y2="34.8881" gradientUnits="userSpaceOnUse">
<stop stop-color="#EBF2EE"/>
<stop offset="0.0906" stop-color="#EEF4F1"/>
<stop offset="0.5539" stop-color="#FBFCFB"/>
<stop offset="1" stop-color="white"/>
</linearGradient>
<linearGradient id="paint24_linear_292_3268" x1="305.75" y1="35.0333" x2="306.51" y2="34.8609" gradientUnits="userSpaceOnUse">
<stop stop-color="#EBF2EE"/>
<stop offset="0.0906" stop-color="#EEF4F1"/>
<stop offset="0.5539" stop-color="#FBFCFB"/>
<stop offset="1" stop-color="white"/>
</linearGradient>
<linearGradient id="paint25_linear_292_3268" x1="299.405" y1="36.7981" x2="300.13" y2="36.4911" gradientUnits="userSpaceOnUse">
<stop stop-color="#EBF2EE"/>
<stop offset="0.0906" stop-color="#EEF4F1"/>
<stop offset="0.5539" stop-color="#FBFCFB"/>
<stop offset="1" stop-color="white"/>
</linearGradient>
<linearGradient id="paint26_linear_292_3268" x1="299.394" y1="36.7727" x2="300.118" y2="36.4656" gradientUnits="userSpaceOnUse">
<stop stop-color="#EBF2EE"/>
<stop offset="0.0906" stop-color="#EEF4F1"/>
<stop offset="0.5539" stop-color="#FBFCFB"/>
<stop offset="1" stop-color="white"/>
</linearGradient>
<linearGradient id="paint27_linear_292_3268" x1="294.086" y1="40.5321" x2="294.811" y2="40.2249" gradientUnits="userSpaceOnUse">
<stop stop-color="#EBF2EE"/>
<stop offset="0.0906" stop-color="#EEF4F1"/>
<stop offset="0.5539" stop-color="#FBFCFB"/>
<stop offset="1" stop-color="white"/>
</linearGradient>
<linearGradient id="paint28_linear_292_3268" x1="294.075" y1="40.5065" x2="294.8" y2="40.1993" gradientUnits="userSpaceOnUse">
<stop stop-color="#EBF2EE"/>
<stop offset="0.0906" stop-color="#EEF4F1"/>
<stop offset="0.5539" stop-color="#FBFCFB"/>
<stop offset="1" stop-color="white"/>
</linearGradient>
<linearGradient id="paint29_linear_292_3268" x1="300.603" y1="29.7752" x2="301.328" y2="29.4681" gradientUnits="userSpaceOnUse">
<stop stop-color="#EBF2EE"/>
<stop offset="0.0906" stop-color="#EEF4F1"/>
<stop offset="0.5539" stop-color="#FBFCFB"/>
<stop offset="1" stop-color="white"/>
</linearGradient>
<linearGradient id="paint30_linear_292_3268" x1="300.592" y1="29.7496" x2="301.317" y2="29.4425" gradientUnits="userSpaceOnUse">
<stop stop-color="#EBF2EE"/>
<stop offset="0.0906" stop-color="#EEF4F1"/>
<stop offset="0.5539" stop-color="#FBFCFB"/>
<stop offset="1" stop-color="white"/>
</linearGradient>
<linearGradient id="paint31_linear_292_3268" x1="277.398" y1="65.556" x2="277.431" y2="64.7095" gradientUnits="userSpaceOnUse">
<stop stop-color="#EBF2EE"/>
<stop offset="0.0906" stop-color="#EEF4F1"/>
<stop offset="0.5539" stop-color="#FBFCFB"/>
<stop offset="1" stop-color="white"/>
</linearGradient>
<linearGradient id="paint32_linear_292_3268" x1="277.372" y1="65.555" x2="277.405" y2="64.7086" gradientUnits="userSpaceOnUse">
<stop stop-color="#EBF2EE"/>
<stop offset="0.0906" stop-color="#EEF4F1"/>
<stop offset="0.5539" stop-color="#FBFCFB"/>
<stop offset="1" stop-color="white"/>
</linearGradient>
<linearGradient id="paint33_linear_292_3268" x1="284.902" y1="61.5327" x2="284.935" y2="60.6862" gradientUnits="userSpaceOnUse">
<stop stop-color="#EBF2EE"/>
<stop offset="0.0906" stop-color="#EEF4F1"/>
<stop offset="0.5539" stop-color="#FBFCFB"/>
<stop offset="1" stop-color="white"/>
</linearGradient>
<linearGradient id="paint34_linear_292_3268" x1="284.876" y1="61.5317" x2="284.908" y2="60.6853" gradientUnits="userSpaceOnUse">
<stop stop-color="#EBF2EE"/>
<stop offset="0.0906" stop-color="#EEF4F1"/>
<stop offset="0.5539" stop-color="#FBFCFB"/>
<stop offset="1" stop-color="white"/>
</linearGradient>
<linearGradient id="paint35_linear_292_3268" x1="274.008" y1="14.255" x2="274.041" y2="13.4084" gradientUnits="userSpaceOnUse">
<stop stop-color="#EBF2EE"/>
<stop offset="0.0906" stop-color="#EEF4F1"/>
<stop offset="0.5539" stop-color="#FBFCFB"/>
<stop offset="1" stop-color="white"/>
</linearGradient>
<linearGradient id="paint36_linear_292_3268" x1="273.982" y1="14.2539" x2="274.014" y2="13.4075" gradientUnits="userSpaceOnUse">
<stop stop-color="#EBF2EE"/>
<stop offset="0.0906" stop-color="#EEF4F1"/>
<stop offset="0.5539" stop-color="#FBFCFB"/>
<stop offset="1" stop-color="white"/>
</linearGradient>
<linearGradient id="paint37_linear_292_3268" x1="286.236" y1="11.8249" x2="286.269" y2="10.9785" gradientUnits="userSpaceOnUse">
<stop stop-color="#EBF2EE"/>
<stop offset="0.0906" stop-color="#EEF4F1"/>
<stop offset="0.5539" stop-color="#FBFCFB"/>
<stop offset="1" stop-color="white"/>
</linearGradient>
<linearGradient id="paint38_linear_292_3268" x1="286.21" y1="11.824" x2="286.242" y2="10.9774" gradientUnits="userSpaceOnUse">
<stop stop-color="#EBF2EE"/>
<stop offset="0.0906" stop-color="#EEF4F1"/>
<stop offset="0.5539" stop-color="#FBFCFB"/>
<stop offset="1" stop-color="white"/>
</linearGradient>
<linearGradient id="paint39_linear_292_3268" x1="278.916" y1="1.42593" x2="278.949" y2="0.579478" gradientUnits="userSpaceOnUse">
<stop stop-color="#EBF2EE"/>
<stop offset="0.0906" stop-color="#EEF4F1"/>
<stop offset="0.5539" stop-color="#FBFCFB"/>
<stop offset="1" stop-color="white"/>
</linearGradient>
<linearGradient id="paint40_linear_292_3268" x1="278.89" y1="1.42499" x2="278.923" y2="0.578544" gradientUnits="userSpaceOnUse">
<stop stop-color="#EBF2EE"/>
<stop offset="0.0906" stop-color="#EEF4F1"/>
<stop offset="0.5539" stop-color="#FBFCFB"/>
<stop offset="1" stop-color="white"/>
</linearGradient>
<linearGradient id="paint41_linear_292_3268" x1="287.364" y1="53.5289" x2="287.396" y2="52.6824" gradientUnits="userSpaceOnUse">
<stop stop-color="#EBF2EE"/>
<stop offset="0.0906" stop-color="#EEF4F1"/>
<stop offset="0.5539" stop-color="#FBFCFB"/>
<stop offset="1" stop-color="white"/>
</linearGradient>
<linearGradient id="paint42_linear_292_3268" x1="287.337" y1="53.5278" x2="287.37" y2="52.6814" gradientUnits="userSpaceOnUse">
<stop stop-color="#EBF2EE"/>
<stop offset="0.0906" stop-color="#EEF4F1"/>
<stop offset="0.5539" stop-color="#FBFCFB"/>
<stop offset="1" stop-color="white"/>
</linearGradient>
<linearGradient id="paint43_linear_292_3268" x1="282.371" y1="48.4068" x2="282.404" y2="47.5602" gradientUnits="userSpaceOnUse">
<stop stop-color="#EBF2EE"/>
<stop offset="0.0906" stop-color="#EEF4F1"/>
<stop offset="0.5539" stop-color="#FBFCFB"/>
<stop offset="1" stop-color="white"/>
</linearGradient>
<linearGradient id="paint44_linear_292_3268" x1="282.345" y1="48.4057" x2="282.377" y2="47.5592" gradientUnits="userSpaceOnUse">
<stop stop-color="#EBF2EE"/>
<stop offset="0.0906" stop-color="#EEF4F1"/>
<stop offset="0.5539" stop-color="#FBFCFB"/>
<stop offset="1" stop-color="white"/>
</linearGradient>
<linearGradient id="paint45_linear_292_3268" x1="278.547" y1="39.7362" x2="278.58" y2="38.8898" gradientUnits="userSpaceOnUse">
<stop stop-color="#EBF2EE"/>
<stop offset="0.0906" stop-color="#EEF4F1"/>
<stop offset="0.5539" stop-color="#FBFCFB"/>
<stop offset="1" stop-color="white"/>
</linearGradient>
<linearGradient id="paint46_linear_292_3268" x1="278.521" y1="39.7353" x2="278.553" y2="38.8888" gradientUnits="userSpaceOnUse">
<stop stop-color="#EBF2EE"/>
<stop offset="0.0906" stop-color="#EEF4F1"/>
<stop offset="0.5539" stop-color="#FBFCFB"/>
<stop offset="1" stop-color="white"/>
</linearGradient>
<linearGradient id="paint47_linear_292_3268" x1="270.685" y1="26.5802" x2="270.718" y2="25.7336" gradientUnits="userSpaceOnUse">
<stop stop-color="#EBF2EE"/>
<stop offset="0.0906" stop-color="#EEF4F1"/>
<stop offset="0.5539" stop-color="#FBFCFB"/>
<stop offset="1" stop-color="white"/>
</linearGradient>
<linearGradient id="paint48_linear_292_3268" x1="270.66" y1="26.5791" x2="270.693" y2="25.7327" gradientUnits="userSpaceOnUse">
<stop stop-color="#EBF2EE"/>
<stop offset="0.0906" stop-color="#EEF4F1"/>
<stop offset="0.5539" stop-color="#FBFCFB"/>
<stop offset="1" stop-color="white"/>
</linearGradient>
<linearGradient id="paint49_linear_292_3268" x1="258.592" y1="30.1121" x2="258.24" y2="29.3551" gradientUnits="userSpaceOnUse">
<stop stop-color="#EBF2EE"/>
<stop offset="0.0906" stop-color="#EEF4F1"/>
<stop offset="0.5539" stop-color="#FBFCFB"/>
<stop offset="1" stop-color="white"/>
</linearGradient>
<linearGradient id="paint50_linear_292_3268" x1="258.567" y1="30.123" x2="258.215" y2="29.3661" gradientUnits="userSpaceOnUse">
<stop stop-color="#EBF2EE"/>
<stop offset="0.0906" stop-color="#EEF4F1"/>
<stop offset="0.5539" stop-color="#FBFCFB"/>
<stop offset="1" stop-color="white"/>
</linearGradient>
<linearGradient id="paint51_linear_292_3268" x1="266.625" y1="31.1069" x2="266.167" y2="30.4197" gradientUnits="userSpaceOnUse">
<stop stop-color="#EBF2EE"/>
<stop offset="0.0906" stop-color="#EEF4F1"/>
<stop offset="0.5539" stop-color="#FBFCFB"/>
<stop offset="1" stop-color="white"/>
</linearGradient>
<linearGradient id="paint52_linear_292_3268" x1="266.603" y1="31.1215" x2="266.145" y2="30.4342" gradientUnits="userSpaceOnUse">
<stop stop-color="#EBF2EE"/>
<stop offset="0.0906" stop-color="#EEF4F1"/>
<stop offset="0.5539" stop-color="#FBFCFB"/>
<stop offset="1" stop-color="white"/>
</linearGradient>
<linearGradient id="paint53_linear_292_3268" x1="265.177" y1="21.8707" x2="264.719" y2="21.1834" gradientUnits="userSpaceOnUse">
<stop stop-color="#EBF2EE"/>
<stop offset="0.0906" stop-color="#EEF4F1"/>
<stop offset="0.5539" stop-color="#FBFCFB"/>
<stop offset="1" stop-color="white"/>
</linearGradient>
<linearGradient id="paint54_linear_292_3268" x1="265.157" y1="21.8855" x2="264.698" y2="21.1981" gradientUnits="userSpaceOnUse">
<stop stop-color="#EBF2EE"/>
<stop offset="0.0906" stop-color="#EEF4F1"/>
<stop offset="0.5539" stop-color="#FBFCFB"/>
<stop offset="1" stop-color="white"/>
</linearGradient>
<linearGradient id="paint55_linear_292_3268" x1="257.297" y1="23.3234" x2="256.839" y2="22.6362" gradientUnits="userSpaceOnUse">
<stop stop-color="#EBF2EE"/>
<stop offset="0.0906" stop-color="#EEF4F1"/>
<stop offset="0.5539" stop-color="#FBFCFB"/>
<stop offset="1" stop-color="white"/>
</linearGradient>
<linearGradient id="paint56_linear_292_3268" x1="257.275" y1="23.338" x2="256.817" y2="22.6508" gradientUnits="userSpaceOnUse">
<stop stop-color="#EBF2EE"/>
<stop offset="0.0906" stop-color="#EEF4F1"/>
<stop offset="0.5539" stop-color="#FBFCFB"/>
<stop offset="1" stop-color="white"/>
</linearGradient>
<linearGradient id="paint57_linear_292_3268" x1="260.42" y1="18.2792" x2="259.962" y2="17.592" gradientUnits="userSpaceOnUse">
<stop stop-color="#EBF2EE"/>
<stop offset="0.0906" stop-color="#EEF4F1"/>
<stop offset="0.5539" stop-color="#FBFCFB"/>
<stop offset="1" stop-color="white"/>
</linearGradient>
<linearGradient id="paint58_linear_292_3268" x1="260.398" y1="18.2936" x2="259.94" y2="17.6063" gradientUnits="userSpaceOnUse">
<stop stop-color="#EBF2EE"/>
<stop offset="0.0906" stop-color="#EEF4F1"/>
<stop offset="0.5539" stop-color="#FBFCFB"/>
<stop offset="1" stop-color="white"/>
</linearGradient>
<linearGradient id="paint59_linear_292_3268" x1="310.958" y1="75.6793" x2="319.014" y2="33.1079" gradientUnits="userSpaceOnUse">
<stop stop-color="#1C7042"/>
<stop offset="1" stop-color="#3CC677"/>
</linearGradient>
<linearGradient id="paint60_linear_292_3268" x1="311.24" y1="75.5039" x2="319.527" y2="31.7142" gradientUnits="userSpaceOnUse">
<stop stop-color="#115630"/>
<stop offset="1" stop-color="#05351B"/>
</linearGradient>
<linearGradient id="paint61_linear_292_3268" x1="311.767" y1="75.5928" x2="320.045" y2="31.8516" gradientUnits="userSpaceOnUse">
<stop stop-color="#115630"/>
<stop offset="1" stop-color="#05351B"/>
</linearGradient>
<linearGradient id="paint62_linear_292_3268" x1="316.681" y1="71.7672" x2="316.699" y2="71.3077" gradientUnits="userSpaceOnUse">
<stop stop-color="#EBF2EE"/>
<stop offset="0.0906" stop-color="#EEF4F1"/>
<stop offset="0.5539" stop-color="#FBFCFB"/>
<stop offset="1" stop-color="white"/>
</linearGradient>
<linearGradient id="paint63_linear_292_3268" x1="316.669" y1="71.7667" x2="316.686" y2="71.3071" gradientUnits="userSpaceOnUse">
<stop stop-color="#EBF2EE"/>
<stop offset="0.0906" stop-color="#EEF4F1"/>
<stop offset="0.5539" stop-color="#FBFCFB"/>
<stop offset="1" stop-color="white"/>
</linearGradient>
<linearGradient id="paint64_linear_292_3268" x1="313.097" y1="70.9762" x2="312.986" y2="70.5323" gradientUnits="userSpaceOnUse">
<stop stop-color="#EBF2EE"/>
<stop offset="0.0906" stop-color="#EEF4F1"/>
<stop offset="0.5539" stop-color="#FBFCFB"/>
<stop offset="1" stop-color="white"/>
</linearGradient>
<linearGradient id="paint65_linear_292_3268" x1="313.083" y1="70.9797" x2="312.971" y2="70.5357" gradientUnits="userSpaceOnUse">
<stop stop-color="#EBF2EE"/>
<stop offset="0.0906" stop-color="#EEF4F1"/>
<stop offset="0.5539" stop-color="#FBFCFB"/>
<stop offset="1" stop-color="white"/>
</linearGradient>
<linearGradient id="paint66_linear_292_3268" x1="320.91" y1="51.5367" x2="329.494" y2="46.8436" gradientUnits="userSpaceOnUse">
<stop stop-color="#1C7042"/>
<stop offset="1" stop-color="#3CC677"/>
</linearGradient>
<linearGradient id="paint67_linear_292_3268" x1="320.971" y1="51.5404" x2="329.763" y2="46.7338" gradientUnits="userSpaceOnUse">
<stop stop-color="#115630"/>
<stop offset="1" stop-color="#05351B"/>
</linearGradient>
<linearGradient id="paint68_linear_292_3268" x1="321.055" y1="51.6607" x2="329.793" y2="46.8836" gradientUnits="userSpaceOnUse">
<stop stop-color="#115630"/>
<stop offset="1" stop-color="#05351B"/>
</linearGradient>
<linearGradient id="paint69_linear_292_3268" x1="310.061" y1="49.3509" x2="302.496" y2="42.8797" gradientUnits="userSpaceOnUse">
<stop stop-color="#1C7042"/>
<stop offset="1" stop-color="#3CC677"/>
</linearGradient>
<linearGradient id="paint70_linear_292_3268" x1="305.699" y1="50.3937" x2="306.128" y2="40.9285" gradientUnits="userSpaceOnUse">
<stop stop-color="#115630"/>
<stop offset="1" stop-color="#05351B"/>
</linearGradient>
<linearGradient id="paint71_linear_292_3268" x1="305.981" y1="50.148" x2="306.367" y2="41.6421" gradientUnits="userSpaceOnUse">
<stop stop-color="#115630"/>
<stop offset="1" stop-color="#05351B"/>
</linearGradient>
<linearGradient id="paint72_linear_292_3268" x1="311.027" y1="57.581" x2="311.045" y2="57.1214" gradientUnits="userSpaceOnUse">
<stop stop-color="#EBF2EE"/>
<stop offset="0.0906" stop-color="#EEF4F1"/>
<stop offset="0.5539" stop-color="#FBFCFB"/>
<stop offset="1" stop-color="white"/>
</linearGradient>
<linearGradient id="paint73_linear_292_3268" x1="311.013" y1="57.5805" x2="311.031" y2="57.121" gradientUnits="userSpaceOnUse">
<stop stop-color="#EBF2EE"/>
<stop offset="0.0906" stop-color="#EEF4F1"/>
<stop offset="0.5539" stop-color="#FBFCFB"/>
<stop offset="1" stop-color="white"/>
</linearGradient>
<linearGradient id="paint74_linear_292_3268" x1="317.373" y1="46.4302" x2="317.39" y2="45.9706" gradientUnits="userSpaceOnUse">
<stop stop-color="#EBF2EE"/>
<stop offset="0.0906" stop-color="#EEF4F1"/>
<stop offset="0.5539" stop-color="#FBFCFB"/>
<stop offset="1" stop-color="white"/>
</linearGradient>
<linearGradient id="paint75_linear_292_3268" x1="317.361" y1="46.4296" x2="317.378" y2="45.97" gradientUnits="userSpaceOnUse">
<stop stop-color="#EBF2EE"/>
<stop offset="0.0906" stop-color="#EEF4F1"/>
<stop offset="0.5539" stop-color="#FBFCFB"/>
<stop offset="1" stop-color="white"/>
</linearGradient>
<linearGradient id="paint76_linear_292_3268" x1="321.783" y1="43.4309" x2="321.8" y2="42.9715" gradientUnits="userSpaceOnUse">
<stop stop-color="#EBF2EE"/>
<stop offset="0.0906" stop-color="#EEF4F1"/>
<stop offset="0.5539" stop-color="#FBFCFB"/>
<stop offset="1" stop-color="white"/>
</linearGradient>
<linearGradient id="paint77_linear_292_3268" x1="321.769" y1="43.4304" x2="321.786" y2="42.9709" gradientUnits="userSpaceOnUse">
<stop stop-color="#EBF2EE"/>
<stop offset="0.0906" stop-color="#EEF4F1"/>
<stop offset="0.5539" stop-color="#FBFCFB"/>
<stop offset="1" stop-color="white"/>
</linearGradient>
<linearGradient id="paint78_linear_292_3268" x1="322.401" y1="49.9461" x2="322.703" y2="49.6231" gradientUnits="userSpaceOnUse">
<stop stop-color="#EBF2EE"/>
<stop offset="0.0906" stop-color="#EEF4F1"/>
<stop offset="0.5539" stop-color="#FBFCFB"/>
<stop offset="1" stop-color="white"/>
</linearGradient>
<linearGradient id="paint79_linear_292_3268" x1="322.389" y1="49.9361" x2="322.692" y2="49.6131" gradientUnits="userSpaceOnUse">
<stop stop-color="#EBF2EE"/>
<stop offset="0.0906" stop-color="#EEF4F1"/>
<stop offset="0.5539" stop-color="#FBFCFB"/>
<stop offset="1" stop-color="white"/>
</linearGradient>
<linearGradient id="paint80_linear_292_3268" x1="325.19" y1="44.1916" x2="325.492" y2="43.8685" gradientUnits="userSpaceOnUse">
<stop stop-color="#EBF2EE"/>
<stop offset="0.0906" stop-color="#EEF4F1"/>
<stop offset="0.5539" stop-color="#FBFCFB"/>
<stop offset="1" stop-color="white"/>
</linearGradient>
<linearGradient id="paint81_linear_292_3268" x1="325.178" y1="44.1816" x2="325.48" y2="43.8587" gradientUnits="userSpaceOnUse">
<stop stop-color="#EBF2EE"/>
<stop offset="0.0906" stop-color="#EEF4F1"/>
<stop offset="0.5539" stop-color="#FBFCFB"/>
<stop offset="1" stop-color="white"/>
</linearGradient>
<linearGradient id="paint82_linear_292_3268" x1="329.643" y1="50.0337" x2="330.055" y2="49.9402" gradientUnits="userSpaceOnUse">
<stop stop-color="#EBF2EE"/>
<stop offset="0.0906" stop-color="#EEF4F1"/>
<stop offset="0.5539" stop-color="#FBFCFB"/>
<stop offset="1" stop-color="white"/>
</linearGradient>
<linearGradient id="paint83_linear_292_3268" x1="329.64" y1="50.0191" x2="330.052" y2="49.9254" gradientUnits="userSpaceOnUse">
<stop stop-color="#EBF2EE"/>
<stop offset="0.0906" stop-color="#EEF4F1"/>
<stop offset="0.5539" stop-color="#FBFCFB"/>
<stop offset="1" stop-color="white"/>
</linearGradient>
<linearGradient id="paint84_linear_292_3268" x1="326.193" y1="50.9771" x2="326.586" y2="50.8104" gradientUnits="userSpaceOnUse">
<stop stop-color="#EBF2EE"/>
<stop offset="0.0906" stop-color="#EEF4F1"/>
<stop offset="0.5539" stop-color="#FBFCFB"/>
<stop offset="1" stop-color="white"/>
</linearGradient>
<linearGradient id="paint85_linear_292_3268" x1="326.187" y1="50.9634" x2="326.581" y2="50.7965" gradientUnits="userSpaceOnUse">
<stop stop-color="#EBF2EE"/>
<stop offset="0.0906" stop-color="#EEF4F1"/>
<stop offset="0.5539" stop-color="#FBFCFB"/>
<stop offset="1" stop-color="white"/>
</linearGradient>
<linearGradient id="paint86_linear_292_3268" x1="323.307" y1="53.004" x2="323.7" y2="52.8373" gradientUnits="userSpaceOnUse">
<stop stop-color="#EBF2EE"/>
<stop offset="0.0906" stop-color="#EEF4F1"/>
<stop offset="0.5539" stop-color="#FBFCFB"/>
<stop offset="1" stop-color="white"/>
</linearGradient>
<linearGradient id="paint87_linear_292_3268" x1="323.301" y1="52.9902" x2="323.695" y2="52.8234" gradientUnits="userSpaceOnUse">
<stop stop-color="#EBF2EE"/>
<stop offset="0.0906" stop-color="#EEF4F1"/>
<stop offset="0.5539" stop-color="#FBFCFB"/>
<stop offset="1" stop-color="white"/>
</linearGradient>
<linearGradient id="paint88_linear_292_3268" x1="326.845" y1="47.1644" x2="327.238" y2="46.9976" gradientUnits="userSpaceOnUse">
<stop stop-color="#EBF2EE"/>
<stop offset="0.0906" stop-color="#EEF4F1"/>
<stop offset="0.5539" stop-color="#FBFCFB"/>
<stop offset="1" stop-color="white"/>
</linearGradient>
<linearGradient id="paint89_linear_292_3268" x1="326.839" y1="47.1506" x2="327.233" y2="46.9838" gradientUnits="userSpaceOnUse">
<stop stop-color="#EBF2EE"/>
<stop offset="0.0906" stop-color="#EEF4F1"/>
<stop offset="0.5539" stop-color="#FBFCFB"/>
<stop offset="1" stop-color="white"/>
</linearGradient>
<linearGradient id="paint90_linear_292_3268" x1="314.248" y1="66.5892" x2="314.266" y2="66.1297" gradientUnits="userSpaceOnUse">
<stop stop-color="#EBF2EE"/>
<stop offset="0.0906" stop-color="#EEF4F1"/>
<stop offset="0.5539" stop-color="#FBFCFB"/>
<stop offset="1" stop-color="white"/>
</linearGradient>
<linearGradient id="paint91_linear_292_3268" x1="314.235" y1="66.5887" x2="314.253" y2="66.1291" gradientUnits="userSpaceOnUse">
<stop stop-color="#EBF2EE"/>
<stop offset="0.0906" stop-color="#EEF4F1"/>
<stop offset="0.5539" stop-color="#FBFCFB"/>
<stop offset="1" stop-color="white"/>
</linearGradient>
<linearGradient id="paint92_linear_292_3268" x1="318.32" y1="64.4051" x2="318.338" y2="63.9456" gradientUnits="userSpaceOnUse">
<stop stop-color="#EBF2EE"/>
<stop offset="0.0906" stop-color="#EEF4F1"/>
<stop offset="0.5539" stop-color="#FBFCFB"/>
<stop offset="1" stop-color="white"/>
</linearGradient>
<linearGradient id="paint93_linear_292_3268" x1="318.307" y1="64.4046" x2="318.325" y2="63.9451" gradientUnits="userSpaceOnUse">
<stop stop-color="#EBF2EE"/>
<stop offset="0.0906" stop-color="#EEF4F1"/>
<stop offset="0.5539" stop-color="#FBFCFB"/>
<stop offset="1" stop-color="white"/>
</linearGradient>
<linearGradient id="paint94_linear_292_3268" x1="312.404" y1="38.7386" x2="312.422" y2="38.2792" gradientUnits="userSpaceOnUse">
<stop stop-color="#EBF2EE"/>
<stop offset="0.0906" stop-color="#EEF4F1"/>
<stop offset="0.5539" stop-color="#FBFCFB"/>
<stop offset="1" stop-color="white"/>
</linearGradient>
<linearGradient id="paint95_linear_292_3268" x1="312.39" y1="38.7382" x2="312.408" y2="38.2786" gradientUnits="userSpaceOnUse">
<stop stop-color="#EBF2EE"/>
<stop offset="0.0906" stop-color="#EEF4F1"/>
<stop offset="0.5539" stop-color="#FBFCFB"/>
<stop offset="1" stop-color="white"/>
</linearGradient>
<linearGradient id="paint96_linear_292_3268" x1="319.042" y1="37.4195" x2="319.06" y2="36.96" gradientUnits="userSpaceOnUse">
<stop stop-color="#EBF2EE"/>
<stop offset="0.0906" stop-color="#EEF4F1"/>
<stop offset="0.5539" stop-color="#FBFCFB"/>
<stop offset="1" stop-color="white"/>
</linearGradient>
<linearGradient id="paint97_linear_292_3268" x1="319.028" y1="37.4189" x2="319.046" y2="36.9594" gradientUnits="userSpaceOnUse">
<stop stop-color="#EBF2EE"/>
<stop offset="0.0906" stop-color="#EEF4F1"/>
<stop offset="0.5539" stop-color="#FBFCFB"/>
<stop offset="1" stop-color="white"/>
</linearGradient>
<linearGradient id="paint98_linear_292_3268" x1="315.07" y1="31.7741" x2="315.087" y2="31.3145" gradientUnits="userSpaceOnUse">
<stop stop-color="#EBF2EE"/>
<stop offset="0.0906" stop-color="#EEF4F1"/>
<stop offset="0.5539" stop-color="#FBFCFB"/>
<stop offset="1" stop-color="white"/>
</linearGradient>
<linearGradient id="paint99_linear_292_3268" x1="315.056" y1="31.7735" x2="315.073" y2="31.314" gradientUnits="userSpaceOnUse">
<stop stop-color="#EBF2EE"/>
<stop offset="0.0906" stop-color="#EEF4F1"/>
<stop offset="0.5539" stop-color="#FBFCFB"/>
<stop offset="1" stop-color="white"/>
</linearGradient>
<linearGradient id="paint100_linear_292_3268" x1="319.654" y1="60.0599" x2="319.672" y2="59.6004" gradientUnits="userSpaceOnUse">
<stop stop-color="#EBF2EE"/>
<stop offset="0.0906" stop-color="#EEF4F1"/>
<stop offset="0.5539" stop-color="#FBFCFB"/>
<stop offset="1" stop-color="white"/>
</linearGradient>
<linearGradient id="paint101_linear_292_3268" x1="319.641" y1="60.0594" x2="319.659" y2="59.5998" gradientUnits="userSpaceOnUse">
<stop stop-color="#EBF2EE"/>
<stop offset="0.0906" stop-color="#EEF4F1"/>
<stop offset="0.5539" stop-color="#FBFCFB"/>
<stop offset="1" stop-color="white"/>
</linearGradient>
<linearGradient id="paint102_linear_292_3268" x1="316.945" y1="57.2791" x2="316.963" y2="56.8196" gradientUnits="userSpaceOnUse">
<stop stop-color="#EBF2EE"/>
<stop offset="0.0906" stop-color="#EEF4F1"/>
<stop offset="0.5539" stop-color="#FBFCFB"/>
<stop offset="1" stop-color="white"/>
</linearGradient>
<linearGradient id="paint103_linear_292_3268" x1="316.931" y1="57.2785" x2="316.948" y2="56.819" gradientUnits="userSpaceOnUse">
<stop stop-color="#EBF2EE"/>
<stop offset="0.0906" stop-color="#EEF4F1"/>
<stop offset="0.5539" stop-color="#FBFCFB"/>
<stop offset="1" stop-color="white"/>
</linearGradient>
<linearGradient id="paint104_linear_292_3268" x1="314.869" y1="52.5721" x2="314.887" y2="52.1126" gradientUnits="userSpaceOnUse">
<stop stop-color="#EBF2EE"/>
<stop offset="0.0906" stop-color="#EEF4F1"/>
<stop offset="0.5539" stop-color="#FBFCFB"/>
<stop offset="1" stop-color="white"/>
</linearGradient>
<linearGradient id="paint105_linear_292_3268" x1="314.855" y1="52.5716" x2="314.872" y2="52.112" gradientUnits="userSpaceOnUse">
<stop stop-color="#EBF2EE"/>
<stop offset="0.0906" stop-color="#EEF4F1"/>
<stop offset="0.5539" stop-color="#FBFCFB"/>
<stop offset="1" stop-color="white"/>
</linearGradient>
<linearGradient id="paint106_linear_292_3268" x1="310.603" y1="45.4299" x2="310.621" y2="44.9703" gradientUnits="userSpaceOnUse">
<stop stop-color="#EBF2EE"/>
<stop offset="0.0906" stop-color="#EEF4F1"/>
<stop offset="0.5539" stop-color="#FBFCFB"/>
<stop offset="1" stop-color="white"/>
</linearGradient>
<linearGradient id="paint107_linear_292_3268" x1="310.589" y1="45.4293" x2="310.607" y2="44.9697" gradientUnits="userSpaceOnUse">
<stop stop-color="#EBF2EE"/>
<stop offset="0.0906" stop-color="#EEF4F1"/>
<stop offset="0.5539" stop-color="#FBFCFB"/>
<stop offset="1" stop-color="white"/>
</linearGradient>
<linearGradient id="paint108_linear_292_3268" x1="304.037" y1="47.3473" x2="303.846" y2="46.9363" gradientUnits="userSpaceOnUse">
<stop stop-color="#EBF2EE"/>
<stop offset="0.0906" stop-color="#EEF4F1"/>
<stop offset="0.5539" stop-color="#FBFCFB"/>
<stop offset="1" stop-color="white"/>
</linearGradient>
<linearGradient id="paint109_linear_292_3268" x1="304.023" y1="47.3532" x2="303.832" y2="46.9422" gradientUnits="userSpaceOnUse">
<stop stop-color="#EBF2EE"/>
<stop offset="0.0906" stop-color="#EEF4F1"/>
<stop offset="0.5539" stop-color="#FBFCFB"/>
<stop offset="1" stop-color="white"/>
</linearGradient>
<linearGradient id="paint110_linear_292_3268" x1="308.398" y1="47.8875" x2="308.15" y2="47.5143" gradientUnits="userSpaceOnUse">
<stop stop-color="#EBF2EE"/>
<stop offset="0.0906" stop-color="#EEF4F1"/>
<stop offset="0.5539" stop-color="#FBFCFB"/>
<stop offset="1" stop-color="white"/>
</linearGradient>
<linearGradient id="paint111_linear_292_3268" x1="308.386" y1="47.8953" x2="308.138" y2="47.5221" gradientUnits="userSpaceOnUse">
<stop stop-color="#EBF2EE"/>
<stop offset="0.0906" stop-color="#EEF4F1"/>
<stop offset="0.5539" stop-color="#FBFCFB"/>
<stop offset="1" stop-color="white"/>
</linearGradient>
<linearGradient id="paint112_linear_292_3268" x1="307.611" y1="42.8734" x2="307.362" y2="42.5004" gradientUnits="userSpaceOnUse">
<stop stop-color="#EBF2EE"/>
<stop offset="0.0906" stop-color="#EEF4F1"/>
<stop offset="0.5539" stop-color="#FBFCFB"/>
<stop offset="1" stop-color="white"/>
</linearGradient>
<linearGradient id="paint113_linear_292_3268" x1="307.599" y1="42.8812" x2="307.35" y2="42.5081" gradientUnits="userSpaceOnUse">
<stop stop-color="#EBF2EE"/>
<stop offset="0.0906" stop-color="#EEF4F1"/>
<stop offset="0.5539" stop-color="#FBFCFB"/>
<stop offset="1" stop-color="white"/>
</linearGradient>
<linearGradient id="paint114_linear_292_3268" x1="303.332" y1="43.662" x2="303.083" y2="43.2889" gradientUnits="userSpaceOnUse">
<stop stop-color="#EBF2EE"/>
<stop offset="0.0906" stop-color="#EEF4F1"/>
<stop offset="0.5539" stop-color="#FBFCFB"/>
<stop offset="1" stop-color="white"/>
</linearGradient>
<linearGradient id="paint115_linear_292_3268" x1="303.32" y1="43.6698" x2="303.071" y2="43.2967" gradientUnits="userSpaceOnUse">
<stop stop-color="#EBF2EE"/>
<stop offset="0.0906" stop-color="#EEF4F1"/>
<stop offset="0.5539" stop-color="#FBFCFB"/>
<stop offset="1" stop-color="white"/>
</linearGradient>
<linearGradient id="paint116_linear_292_3268" x1="305.028" y1="40.9237" x2="304.78" y2="40.5504" gradientUnits="userSpaceOnUse">
<stop stop-color="#EBF2EE"/>
<stop offset="0.0906" stop-color="#EEF4F1"/>
<stop offset="0.5539" stop-color="#FBFCFB"/>
<stop offset="1" stop-color="white"/>
</linearGradient>
<linearGradient id="paint117_linear_292_3268" x1="305.017" y1="40.9312" x2="304.768" y2="40.5582" gradientUnits="userSpaceOnUse">
<stop stop-color="#EBF2EE"/>
<stop offset="0.0906" stop-color="#EEF4F1"/>
<stop offset="0.5539" stop-color="#FBFCFB"/>
<stop offset="1" stop-color="white"/>
</linearGradient>
<linearGradient id="paint118_linear_292_3268" x1="94.7528" y1="45.9551" x2="68.049" y2="72.3887" gradientUnits="userSpaceOnUse">
<stop stop-color="#115630"/>
<stop offset="1" stop-color="#05351B"/>
</linearGradient>
<linearGradient id="paint119_linear_292_3268" x1="72.5331" y1="71.4688" x2="97.871" y2="48.262" gradientUnits="userSpaceOnUse">
<stop stop-color="#1C7042"/>
<stop offset="1" stop-color="#3CC677"/>
</linearGradient>
<linearGradient id="paint120_linear_292_3268" x1="79.0638" y1="29.0273" x2="62.478" y2="65.7691" gradientUnits="userSpaceOnUse">
<stop stop-color="#115630"/>
<stop offset="1" stop-color="#05351B"/>
</linearGradient>
<linearGradient id="paint121_linear_292_3268" x1="65.7992" y1="62.7543" x2="82.3458" y2="29.783" gradientUnits="userSpaceOnUse">
<stop stop-color="#1C7042"/>
<stop offset="1" stop-color="#3CC677"/>
</linearGradient>
<linearGradient id="paint122_linear_292_3268" x1="24.6933" y1="49.4014" x2="22.03" y2="76.9981" gradientUnits="userSpaceOnUse">
<stop stop-color="#FFAA39"/>
<stop offset="1" stop-color="#EF771D"/>
</linearGradient>
<linearGradient id="paint123_linear_292_3268" x1="132.099" y1="53.3179" x2="129.251" y2="67.9916" gradientUnits="userSpaceOnUse">
<stop stop-color="#FFAA39"/>
<stop offset="1" stop-color="#EF771D"/>
</linearGradient>
<linearGradient id="paint124_linear_292_3268" x1="400.255" y1="81.9193" x2="359.036" y2="58.8942" gradientUnits="userSpaceOnUse">
<stop stop-color="#1C7042"/>
<stop offset="1" stop-color="#3CC677"/>
</linearGradient>
<linearGradient id="paint125_linear_292_3268" x1="358.392" y1="56.5312" x2="398.822" y2="75.3676" gradientUnits="userSpaceOnUse">
<stop stop-color="#115630"/>
<stop offset="1" stop-color="#05351B"/>
</linearGradient>
<linearGradient id="paint126_linear_292_3268" x1="405.433" y1="93.5062" x2="389.231" y2="39.2775" gradientUnits="userSpaceOnUse">
<stop stop-color="#1C7042"/>
<stop offset="1" stop-color="#3CC677"/>
</linearGradient>
<linearGradient id="paint127_linear_292_3268" x1="389.039" y1="37.1885" x2="408.551" y2="87.0435" gradientUnits="userSpaceOnUse">
<stop stop-color="#115630"/>
<stop offset="1" stop-color="#05351B"/>
</linearGradient>
<linearGradient id="paint128_linear_292_3268" x1="210" y1="66" x2="209.747" y2="142.999" gradientUnits="userSpaceOnUse">
<stop stop-color="#FFAA39"/>
<stop offset="1" stop-color="#EF771D"/>
</linearGradient>
<linearGradient id="paint129_linear_292_3268" x1="365.716" y1="118.239" x2="364.825" y2="138.971" gradientUnits="userSpaceOnUse">
<stop stop-color="#FFAA39"/>
<stop offset="1" stop-color="#EF771D"/>
</linearGradient>
<linearGradient id="paint130_linear_292_3268" x1="153.328" y1="83.7759" x2="150.746" y2="132.908" gradientUnits="userSpaceOnUse">
<stop stop-color="#FFAA39"/>
<stop offset="1" stop-color="#EF771D"/>
</linearGradient>
<linearGradient id="paint131_linear_292_3268" x1="389.985" y1="39.9145" x2="377.203" y2="76.5343" gradientUnits="userSpaceOnUse">
<stop stop-color="#FFAA39"/>
<stop offset="1" stop-color="#EF771D"/>
</linearGradient>
</defs>
</svg>
