<svg width="431" height="155" viewBox="0 0 431 155" fill="none" xmlns="http://www.w3.org/2000/svg">
<mask id="mask0_474_2841" style="mask-type:alpha" maskUnits="userSpaceOnUse" x="0" y="0" width="431" height="155">
<rect width="431" height="155" fill="#D9D9D9"/>
</mask>
<g mask="url(#mask0_474_2841)">
<path d="M209 164.597C180.984 149.364 144.749 132.421 101.667 119.177C20.8096 155.108 -83.994 168.797 -152.957 106.385C-216.948 119.495 -270.196 142.902 -310 164.597C-137 164.597 36 164.597 209 164.597Z" fill="#3B365B"/>
<path d="M126.518 140.772C125.53 143.857 126.396 147.558 128.453 149.04C130.51 150.521 132.978 149.221 133.966 146.138C134.954 143.052 134.087 139.352 132.031 137.87C129.974 136.387 127.506 137.687 126.518 140.772Z" fill="#625B91"/>
<path d="M117.185 136.024C116.549 138.01 117.107 140.393 118.43 141.347C119.754 142.301 121.343 141.464 121.979 139.479C122.615 137.493 122.057 135.111 120.734 134.157C119.41 133.203 117.821 134.038 117.185 136.024Z" fill="#625B91"/>
<path d="M101.667 119.177C50.8664 103.56 -9.45539 93.0853 -77.0788 96.6312C-103.777 98.0314 -129.108 101.498 -152.957 106.384C-83.9944 168.796 20.8093 155.108 101.667 119.177Z" fill="#625B91"/>
<path d="M27.3025 112.875C27.3025 116.927 25.1121 120.212 22.4106 120.212C19.7091 120.212 17.5195 116.927 17.5195 112.875C17.5195 108.824 19.7099 105.541 22.4106 105.541C25.1128 105.539 27.3025 108.824 27.3025 112.875Z" fill="#3B365B"/>
<path d="M35.2697 119.427C36.9483 119.427 38.309 117.387 38.309 114.869C38.309 112.352 36.9483 110.312 35.2697 110.312C33.5912 110.312 32.2305 112.352 32.2305 114.869C32.2305 117.387 33.5912 119.427 35.2697 119.427Z" fill="#3B365B"/>
<path d="M118 97.6203C119.349 79.4228 120.696 61.2252 122.045 43.0276C122.519 36.6302 123.106 29.9036 126.85 24.5782C128.652 22.013 131.545 19.7548 134.766 20.0215C138.915 20.3653 141.409 24.5102 142.821 28.2486C146.133 37.0164 147.505 46.448 146.825 55.7454C146.715 57.2385 146.808 59.1473 148.27 59.6861C150.097 60.3591 151.563 58.1267 152.034 56.3117C153.294 51.4295 153.608 46.3284 152.955 41.3396C152.639 38.9122 152.28 35.9958 154.267 34.4493C155.645 33.3773 157.732 33.4747 159.292 34.2893C160.853 35.1058 161.977 36.507 162.931 37.9395C165.505 41.8103 167.17 46.2273 167.769 50.7767C168.507 56.3743 167.532 62.3579 164.037 66.9092C160.541 71.4586 154.25 74.2298 148.525 72.8249C150.482 82.6003 151.136 92.6112 150.461 102.543" fill="#625B91"/>
<path d="M133.844 21.1543C131.593 47.6102 130.794 74.1802 131.451 100.717" stroke="#3B365B" stroke-miterlimit="10" stroke-linecap="round"/>
<path d="M157.497 34.6021C158.946 39.0098 160.404 43.4563 160.857 48.0553C161.31 52.6543 160.686 57.4777 158.206 61.4442C155.726 65.4107 151.176 68.3621 146.336 68.2701" stroke="#3B365B" stroke-miterlimit="10" stroke-linecap="round"/>
<path d="M521 163.151C491.905 142.422 454.273 119.368 409.531 101.347C325.558 150.238 216.715 168.865 145.095 83.9404C78.6379 101.78 23.3374 133.629 -18 163.151C161.667 163.151 341.333 163.151 521 163.151Z" fill="#3B365B"/>
<path d="M117.66 106.978C117.66 111.634 119.581 115.409 121.951 115.409C124.32 115.409 126.241 111.634 126.241 106.978C126.241 102.322 124.32 98.5474 121.951 98.5474C119.581 98.5474 117.66 102.322 117.66 106.978Z" fill="#625B91"/>
<path d="M110.262 114.829C111.788 114.829 113.025 112.399 113.025 109.401C113.025 106.404 111.788 103.974 110.262 103.974C108.737 103.974 107.5 106.404 107.5 109.401C107.5 112.399 108.737 114.829 110.262 114.829Z" fill="#625B91"/>
<path d="M425.639 124.544C424.979 127.246 425.558 130.487 426.933 131.786C428.308 133.084 429.958 131.945 430.619 129.244C431.279 126.542 430.7 123.3 429.325 122.002C427.951 120.704 426.3 121.841 425.639 124.544Z" fill="#625B91"/>
<path d="M409.53 101.62C356.772 80.3694 294.125 66.1163 223.896 70.9412C196.168 72.8466 169.862 77.5637 145.094 84.212C216.714 169.137 325.556 150.511 409.53 101.62Z" fill="#625B91"/>
<path d="M197.755 106.978C197.755 112.491 195.481 116.959 192.675 116.959C189.869 116.959 187.595 112.489 187.595 106.978C187.595 101.465 189.87 96.9971 192.675 96.9971C195.481 96.9971 197.755 101.465 197.755 106.978Z" fill="#3B365B"/>
<path d="M332.296 93.0453C332.296 98.5579 330.022 103.028 327.216 103.028C324.41 103.028 322.136 98.5579 322.136 93.0453C322.136 87.5326 324.411 83.0645 327.216 83.0645C330.022 83.0629 332.296 87.5326 332.296 93.0453Z" fill="#3B365B"/>
<path d="M280.61 125.875C280.61 131.388 278.335 135.856 275.53 135.856C272.725 135.856 270.451 131.388 270.451 125.875C270.451 120.363 272.725 115.893 275.53 115.893C278.335 115.893 280.61 120.363 280.61 125.875Z" fill="#3B365B"/>
<path d="M288.111 136.1C289.746 136.1 291.071 133.497 291.071 130.286C291.071 127.074 289.746 124.471 288.111 124.471C286.477 124.471 285.152 127.074 285.152 130.286C285.152 133.497 286.477 136.1 288.111 136.1Z" fill="#3B365B"/>
<path d="M207.422 117.347C207.422 120.773 206.009 123.549 204.266 123.549C202.522 123.549 201.109 120.773 201.109 117.347C201.109 113.922 202.522 111.146 204.266 111.146C206.009 111.146 207.422 113.922 207.422 117.347Z" fill="#3B365B"/>
<path d="M340.575 101.961C342.318 101.961 343.731 99.1838 343.731 95.7586C343.731 92.3333 342.318 89.5566 340.575 89.5566C338.832 89.5566 337.419 92.3333 337.419 95.7586C337.419 99.1838 338.832 101.961 340.575 101.961Z" fill="#3B365B"/>
</g>
</svg>
