<svg width="430" height="149" viewBox="0 0 430 149" fill="none" xmlns="http://www.w3.org/2000/svg">
<mask id="mask0_474_2889" style="mask-type:alpha" maskUnits="userSpaceOnUse" x="0" y="0" width="430" height="149">
<rect width="430" height="149" fill="#D9D9D9"/>
</mask>
<g mask="url(#mask0_474_2889)">
<path d="M372.191 102.95C375.803 97.5248 377.815 80.9951 381.527 75.645C383.12 73.3479 385.429 71.4399 388.558 71.15C391.688 70.86 395.718 72.5746 397.644 75.6282C399.149 78.0134 399.116 80.6412 398.664 82.901C398.444 83.9969 398.138 85.0834 398.297 86.2898C398.457 87.4961 399.208 88.8857 400.432 89.5412C401.971 90.3655 403.575 89.6638 404.2 88.473C404.825 87.2821 404.757 85.7358 404.853 84.2886C404.981 82.3346 405.469 80.4088 406.846 79.2418C408.223 78.0747 410.671 77.8789 412.642 79.2338C414.06 80.2099 414.982 81.7965 415.35 83.2894C415.716 84.7822 415.602 86.2126 415.437 87.5959C415.059 90.7786 414.391 93.9492 412.504 96.2515C410.617 98.5537 407.28 99.8395 403.696 98.735C401.823 98.1576 399.535 96.9993 398.384 98.054C397.804 98.5858 397.781 99.5203 397.782 100.39C397.786 104.209 396.947 108.022 396.951 111.84" fill="#A357AF"/>
<path d="M412.033 79.2692C412.675 80.2677 412.602 81.3571 412.503 82.3421C412.206 85.2381 411.897 88.1854 410.642 90.6041C409.388 93.0228 407.013 94.874 403.873 94.7892C401.246 94.7177 398.477 93.342 395.851 92.0004" stroke="#A89757" stroke-miterlimit="10" stroke-linecap="round"/>
<path d="M393.93 73.541C393.372 83.6898 391.497 93.4245 388.357 102.48" stroke="#A89757" stroke-miterlimit="10" stroke-linecap="round"/>
<path d="M390.047 72.2944C385.192 80.298 381.567 89.174 379.276 98.6653" stroke="#A89757" stroke-miterlimit="10" stroke-linecap="round"/>
<path d="M65.7833 254.139C91.378 223.47 125.078 188.727 166.636 159.726C257.76 213.723 368.769 225.06 426.393 105.126C495.199 120.524 555.153 155.628 600.876 189.359C422.512 210.952 244.148 232.546 65.7833 254.139Z" fill="#A357AF"/>
<path d="M166.681 160.083C215.685 125.886 275.615 99.6726 346.101 97.5568C373.93 96.722 400.794 99.7439 426.438 105.482C368.815 225.415 257.805 214.081 166.681 160.083Z" fill="#BE72CA"/>
<path d="M377.771 141.654C378.646 148.881 381.613 154.464 384.398 154.127C387.183 153.79 388.731 147.658 387.857 140.433C386.982 133.207 384.014 127.623 381.23 127.96C378.445 128.297 376.896 134.428 377.771 141.654Z" fill="#A357AF"/>
<path d="M241.994 139.561C242.869 146.787 245.836 152.373 248.621 152.035C251.407 151.698 252.955 145.566 252.08 138.339C251.205 131.113 248.238 125.529 245.453 125.866C242.667 126.202 241.119 132.334 241.994 139.561Z" fill="#A357AF"/>
<path d="M369.82 156.409C370.363 160.899 372.207 164.369 373.938 164.16C375.668 163.95 376.63 160.14 376.087 155.65C375.543 151.161 373.7 147.69 371.969 147.9C370.239 148.109 369.276 151.919 369.82 156.409Z" fill="#A357AF"/>
<path d="M235.19 152.242C233.46 152.451 231.616 148.981 231.073 144.491C230.529 140.001 231.491 136.191 233.222 135.982C234.953 135.772 236.796 139.242 237.34 143.732C237.883 148.223 236.921 152.032 235.19 152.242Z" fill="#A357AF"/>
<path d="M53.2656 113.175C53.8329 80.9355 62.9892 49.2463 63.44 17.3284C42.6377 -10.4013 35.9746 54.8427 34.1538 64.8425C35.1395 58.0401 30.7877 32.6926 19.1146 46.9481C10.0987 66.4924 14.7488 90.354 9.13874 111.081" fill="#D884E5"/>
<path d="M25.8499 46.8091L17.7439 110.983" stroke="#F3E2A2" stroke-miterlimit="10" stroke-linecap="round"/>
<path d="M55.6584 11.2446L43.1136 111.91" stroke="#F3E2A2" stroke-miterlimit="10" stroke-linecap="round"/>
<path d="M34.0764 64.8721L29.1611 106.921" stroke="#F3E2A2" stroke-miterlimit="10" stroke-linecap="round"/>
<path d="M429.585 203.864C403.646 181.06 369.744 155.208 328.554 133.578C243.483 173.21 137.418 181.181 76.7484 92.1653C11.3801 103.303 -44.6107 129.065 -87.0005 153.865C85.1948 170.531 257.39 187.198 429.585 203.864Z" fill="#B05EBC"/>
<path d="M48.3218 111.7C47.8847 116.217 49.3714 120.056 51.6426 120.275C53.9139 120.495 56.1092 117.013 56.5463 112.496C56.9835 107.98 55.4968 104.141 53.2255 103.921C50.9543 103.701 48.759 107.184 48.3218 111.7Z" fill="#D884E5"/>
<path d="M40.4936 118.629C41.9558 118.77 43.3692 116.528 43.6506 113.621C43.932 110.713 42.9748 108.242 41.5127 108.1C40.0505 107.958 38.6371 110.201 38.3557 113.108C38.0743 116.016 39.0315 118.487 40.4936 118.629Z" fill="#D884E5"/>
<path d="M328.555 133.578C279.986 108.072 221.283 88.4366 153.521 86.6017C126.768 85.8777 101.112 88.0128 76.7498 92.1636C137.419 181.179 243.484 173.21 328.555 133.578Z" fill="#D884E5"/>
<path d="M125.077 119.13C124.56 124.477 121.961 128.6 119.272 128.34C116.583 128.08 114.823 123.534 115.34 118.188C115.858 112.841 118.458 108.718 121.146 108.979C123.835 109.239 125.595 113.784 125.077 119.13Z" fill="#B05EBC"/>
<path d="M255.338 118.097C254.82 123.444 252.22 127.568 249.531 127.308C246.842 127.048 245.083 122.502 245.6 117.155C246.118 111.808 248.717 107.685 251.405 107.945C254.095 108.204 255.855 112.75 255.338 118.097Z" fill="#B05EBC"/>
<path d="M202.716 145.146C202.198 150.493 199.598 154.615 196.91 154.355C194.221 154.095 192.461 149.55 192.979 144.203C193.496 138.856 196.095 134.732 198.784 134.992C201.473 135.252 203.233 139.799 202.716 145.146Z" fill="#B05EBC"/>
<path d="M208.938 155.759C210.504 155.91 212.019 153.508 212.32 150.393C212.622 147.278 211.596 144.63 210.03 144.479C208.463 144.327 206.949 146.729 206.647 149.844C206.346 152.959 207.371 155.607 208.938 155.759Z" fill="#B05EBC"/>
<path d="M133.368 130.084C133.047 133.407 131.432 135.969 129.761 135.807C128.09 135.645 126.997 132.821 127.318 129.499C127.64 126.177 129.255 123.614 130.926 123.776C132.596 123.938 133.69 126.762 133.368 130.084Z" fill="#B05EBC"/>
<path d="M262.427 127.512C264.098 127.674 265.713 125.112 266.034 121.79C266.356 118.467 265.262 115.643 263.592 115.481C261.921 115.32 260.306 117.882 259.984 121.204C259.663 124.526 260.756 127.351 262.427 127.512Z" fill="#B05EBC"/>
</g>
</svg>
