<svg width="1440" height="197" viewBox="0 0 1440 197" fill="none" xmlns="http://www.w3.org/2000/svg">
<mask id="mask0_438_2772" style="mask-type:alpha" maskUnits="userSpaceOnUse" x="0" y="0" width="1440" height="197">
<path d="M0 0H1440V197H0V0Z" fill="white"/>
</mask>
<g mask="url(#mask0_438_2772)">
<path d="M128.315 119.038C121.497 81.6105 126.202 43.0605 119.306 6.02924C85.2003 -21.8011 91.6814 55.0714 91.6141 67.0173C91.3244 58.9429 79.5999 30.4994 67.4629 49.3888C60.0923 73.8546 71.8636 100.517 69.2887 125.655" fill="#596B0B"/>
<path d="M76.3604 47.8484L80.6762 123.779" stroke="#667A0B" stroke-miterlimit="10" stroke-linecap="round"/>
<path d="M107.555 0.582764L114.551 119.654" stroke="#667A0B" stroke-miterlimit="10" stroke-linecap="round"/>
<path d="M91.5176 67.0671L94.8708 116.738" stroke="#667A0B" stroke-miterlimit="10" stroke-linecap="round"/>
<path d="M936 198C879.159 167.452 805.641 133.477 718.233 106.918C554.18 178.97 341.544 206.422 201.625 81.2664C71.7935 107.556 -36.2425 154.493 -117 198C234 198 585 198 936 198Z" fill="#667A0B"/>
<path d="M148.033 114.814C148.033 121.677 151.786 127.239 156.416 127.239C161.045 127.239 164.798 121.677 164.798 114.814C164.798 107.952 161.045 102.39 156.416 102.39C151.786 102.39 148.033 107.952 148.033 114.814Z" fill="#596B0B"/>
<path d="M133.581 126.384C136.562 126.384 138.978 122.803 138.978 118.385C138.978 113.967 136.562 110.386 133.581 110.386C130.601 110.386 128.185 113.967 128.185 118.385C128.185 122.803 130.601 126.384 133.581 126.384Z" fill="#596B0B"/>
<path d="M768.645 150.222C766.64 156.408 768.399 163.83 772.571 166.801C776.745 169.772 781.752 167.166 783.757 160.981C785.761 154.795 784.003 147.373 779.83 144.402C775.656 141.429 770.649 144.035 768.645 150.222Z" fill="#596B0B"/>
<path d="M749.709 140.701C748.419 144.684 749.551 149.461 752.236 151.374C754.922 153.287 758.146 151.609 759.436 147.629C760.727 143.646 759.595 138.869 756.91 136.956C754.224 135.043 751 136.719 749.709 140.701Z" fill="#596B0B"/>
<path d="M718.232 106.918C615.163 75.6009 492.776 54.5959 355.574 61.7064C301.405 64.5144 250.013 71.4661 201.625 81.2638C341.543 206.419 554.18 178.97 718.232 106.918Z" fill="#596B0B"/>
<path d="M304.507 114.815C304.507 122.939 300.065 129.523 294.584 129.523C289.103 129.523 284.66 122.936 284.66 114.815C284.66 106.69 289.104 100.106 294.584 100.106C300.065 100.106 304.507 106.69 304.507 114.815Z" fill="#667A0B"/>
<path d="M567.356 94.2816C567.356 102.406 562.912 108.993 557.431 108.993C551.95 108.993 547.508 102.406 547.508 94.2816C547.508 86.1575 551.952 79.5728 557.431 79.5728C562.914 79.5705 567.356 86.1575 567.356 94.2816Z" fill="#667A0B"/>
<path d="M466.38 142.664C466.38 150.788 461.936 157.373 456.457 157.373C450.976 157.373 446.533 150.788 446.533 142.664C446.533 134.54 450.976 127.953 456.457 127.953C461.936 127.953 466.38 134.54 466.38 142.664Z" fill="#667A0B"/>
<path d="M481.026 157.733C484.219 157.733 486.807 153.896 486.807 149.164C486.807 144.431 484.219 140.594 481.026 140.594C477.833 140.594 475.244 144.431 475.244 149.164C475.244 153.896 477.833 157.733 481.026 157.733Z" fill="#667A0B"/>
<path d="M323.393 130.096C323.393 135.144 320.632 139.236 317.227 139.236C313.821 139.236 311.061 135.144 311.061 130.096C311.061 125.048 313.821 120.956 317.227 120.956C320.632 120.956 323.393 125.048 323.393 130.096Z" fill="#667A0B"/>
<path d="M583.522 107.42C586.927 107.42 589.688 103.328 589.688 98.2798C589.688 93.2319 586.927 89.1399 583.522 89.1399C580.116 89.1399 577.355 93.2319 577.355 98.2798C577.355 103.328 580.116 107.42 583.522 107.42Z" fill="#667A0B"/>
<path d="M850 153.419C852.048 125.891 854.093 98.3629 856.142 70.8348C856.861 61.1571 857.754 50.9815 863.439 42.9256C866.175 39.0451 870.567 35.6291 875.459 36.0325C881.759 36.5526 885.545 42.8227 887.69 48.478C892.72 61.7413 894.803 76.0089 893.77 90.0734C893.603 92.3322 893.744 95.2196 895.965 96.0347C898.738 97.0528 900.965 93.6757 901.679 90.9301C903.593 83.5446 904.07 75.828 903.078 68.2812C902.598 64.6093 902.054 60.1975 905.07 57.858C907.162 56.2363 910.331 56.3837 912.701 57.616C915.071 58.8511 916.777 60.9708 918.226 63.1377C922.135 68.9933 924.663 75.6751 925.573 82.5571C926.693 91.0248 925.213 100.076 919.905 106.961C914.597 113.843 905.044 118.035 896.351 115.91C899.324 130.698 900.316 145.842 899.291 160.866" fill="#596B0B"/>
<path d="M874.064 37.7458C870.646 77.7668 869.432 117.96 870.429 158.104" stroke="#667A0B" stroke-miterlimit="10" stroke-linecap="round"/>
<path d="M909.975 58.0886C912.175 64.7565 914.39 71.4827 915.078 78.4399C915.765 85.397 914.817 92.6936 911.052 98.6938C907.286 104.694 900.377 109.159 893.027 109.02" stroke="#667A0B" stroke-miterlimit="10" stroke-linecap="round"/>
<path d="M1360 148.28C1360 144.688 1360.13 141.553 1360.93 137.959C1361.81 133.979 1362.78 130.012 1363.86 126.058C1365.98 118.264 1368.48 110.525 1371.35 102.864C1373.14 98.0634 1375.21 93.1196 1379.7 89.4301C1384.18 85.7406 1391.77 83.6825 1397.71 85.9421C1401.13 87.2398 1403.5 89.7573 1404.76 92.4653C1406.02 95.1712 1406.27 98.0786 1406.33 100.943C1406.52 109.483 1405.08 118.04 1402.09 126.284C1403.8 123.004 1406.54 119.349 1411.22 118.924C1415.33 118.549 1419.11 121.05 1420.54 123.95C1421.97 126.851 1421.6 130.049 1421.21 133.125C1419.87 143.722 1418.54 154.318 1417.2 164.912" fill="#596B0B"/>
<path d="M1393.91 86.7827C1383.93 109.238 1377.25 132.515 1374.04 156.055" stroke="#667A0B" stroke-miterlimit="10" stroke-linecap="round"/>
<path d="M1414.2 120.016C1412.09 132.632 1408.99 145.156 1404.91 157.498" stroke="#667A0B" stroke-miterlimit="10" stroke-linecap="round"/>
<path d="M1551 218.914C1500.74 195.123 1435.74 168.662 1358.46 147.978C1213.42 204.093 1025.42 225.473 901.71 128C786.92 148.475 691.401 185.03 620 218.914C930.333 218.914 1240.67 218.914 1551 218.914Z" fill="#667A0B"/>
<path d="M854.326 154.441C854.326 159.786 857.644 164.118 861.737 164.118C865.831 164.118 869.149 159.786 869.149 154.441C869.149 149.097 865.831 144.765 861.737 144.765C857.644 144.765 854.326 149.097 854.326 154.441Z" fill="#596B0B"/>
<path d="M841.549 163.452C844.184 163.452 846.32 160.663 846.32 157.222C846.32 153.782 844.184 150.993 841.549 150.993C838.914 150.993 836.777 153.782 836.777 157.222C836.777 160.663 838.914 163.452 841.549 163.452Z" fill="#596B0B"/>
<path d="M1403.03 182.017C1401.26 186.835 1402.82 192.615 1406.51 194.929C1410.2 197.243 1414.62 195.213 1416.4 190.397C1418.17 185.579 1416.61 179.799 1412.92 177.485C1409.23 175.169 1404.81 177.199 1403.03 182.017Z" fill="#596B0B"/>
<path d="M1386.29 174.602C1385.15 177.704 1386.15 181.424 1388.53 182.914C1390.9 184.404 1393.75 183.097 1394.89 179.997C1396.03 176.896 1395.03 173.175 1392.66 171.685C1390.28 170.195 1387.43 171.501 1386.29 174.602Z" fill="#596B0B"/>
<path d="M1358.46 148.292C1267.34 123.901 1159.13 107.542 1037.82 113.08C989.93 115.267 944.491 120.681 901.71 128.312C1025.42 225.784 1213.42 204.407 1358.46 148.292Z" fill="#596B0B"/>
<path d="M992.672 154.441C992.672 160.768 988.744 165.897 983.898 165.897C979.052 165.897 975.124 160.767 975.124 154.441C975.124 148.114 979.053 142.986 983.898 142.986C988.744 142.986 992.672 148.114 992.672 154.441Z" fill="#667A0B"/>
<path d="M1225.07 138.45C1225.07 144.777 1221.14 149.907 1216.29 149.907C1211.45 149.907 1207.52 144.777 1207.52 138.45C1207.52 132.123 1211.45 126.995 1216.29 126.995C1221.14 126.993 1225.07 132.123 1225.07 138.45Z" fill="#667A0B"/>
<path d="M1135.79 176.131C1135.79 182.458 1131.86 187.586 1127.02 187.586C1122.17 187.586 1118.24 182.458 1118.24 176.131C1118.24 169.804 1122.17 164.674 1127.02 164.674C1131.86 164.674 1135.79 169.804 1135.79 176.131Z" fill="#667A0B"/>
<path d="M1148.74 187.867C1151.56 187.867 1153.85 184.879 1153.85 181.193C1153.85 177.507 1151.56 174.519 1148.74 174.519C1145.92 174.519 1143.63 177.507 1143.63 181.193C1143.63 184.879 1145.92 187.867 1148.74 187.867Z" fill="#667A0B"/>
<path d="M1009.37 166.343C1009.37 170.274 1006.93 173.461 1003.92 173.461C1000.91 173.461 998.465 170.274 998.465 166.343C998.465 162.412 1000.91 159.225 1003.92 159.225C1006.93 159.225 1009.37 162.412 1009.37 166.343Z" fill="#667A0B"/>
<path d="M1239.36 148.682C1242.37 148.682 1244.81 145.495 1244.81 141.564C1244.81 137.633 1242.37 134.446 1239.36 134.446C1236.35 134.446 1233.91 137.633 1233.91 141.564C1233.91 145.495 1236.35 148.682 1239.36 148.682Z" fill="#667A0B"/>
</g>
</svg>
