<svg width="1440" height="230" viewBox="0 0 1440 230" fill="none" xmlns="http://www.w3.org/2000/svg">
<mask id="mask0_312_693" style="mask-type:alpha" maskUnits="userSpaceOnUse" x="0" y="0" width="1440" height="230">
<rect width="1440" height="230" fill="white"/>
</mask>
<g mask="url(#mask0_312_693)">
<path d="M1317.93 154.315C1317.93 150.723 1318.06 147.588 1318.86 143.994C1319.74 140.014 1320.71 136.047 1321.79 132.093C1323.91 124.298 1326.41 116.56 1329.27 108.899C1331.07 104.098 1333.14 99.1545 1337.63 95.465C1342.11 91.7756 1349.7 89.7174 1355.64 91.977C1359.06 93.2747 1361.43 95.7922 1362.69 98.5002C1363.95 101.206 1364.2 104.114 1364.26 106.978C1364.44 115.518 1363.01 124.075 1360.02 132.319C1361.73 129.039 1364.47 125.384 1369.15 124.959C1373.25 124.584 1377.04 127.084 1378.47 129.985C1379.89 132.886 1379.53 136.084 1379.14 139.16C1377.8 149.757 1376.47 160.353 1375.13 170.947" fill="#2E4C18"/>
<path d="M1351.84 92.8176C1341.86 115.273 1335.18 138.549 1331.97 162.09" stroke="#F3E2A2" stroke-miterlimit="10" stroke-linecap="round"/>
<path d="M1372.13 126.051C1370.02 138.667 1366.92 151.191 1362.84 163.533" stroke="#F3E2A2" stroke-miterlimit="10" stroke-linecap="round"/>
<path d="M126.717 169.223C125.117 156.291 110.5 131.141 109.149 118.194C108.569 112.635 109.581 106.734 113.945 102.214C118.31 97.6951 126.653 95.039 133.553 97.1556C138.943 98.8086 142.32 102.834 144.58 106.848C145.675 108.796 146.629 110.841 148.443 112.462C150.257 114.082 153.207 115.209 155.917 114.606C159.325 113.848 160.841 110.694 160.235 108.075C159.629 105.455 157.511 103.2 155.769 100.882C153.416 97.7536 151.645 94.1984 152.21 90.6346C152.776 87.0707 156.23 83.5828 160.983 83.0672C164.405 82.6967 167.871 83.899 170.375 85.682C172.876 87.4672 174.569 89.7832 176.122 92.0948C179.698 97.4113 182.819 103.087 182.961 109.037C183.103 114.986 179.721 121.286 172.85 124.284C169.259 125.85 164.281 127.079 163.913 130.177C163.727 131.739 164.909 133.186 166.045 134.503C171.03 140.285 176.018 146.07 181.002 151.852" fill="#2E4C18"/>
<path d="M160.105 83.9165C162.38 84.5924 163.69 86.3386 164.823 87.9612C168.15 92.7361 171.523 97.6063 172.775 102.908C174.027 108.209 172.841 114.11 167.973 118.075C163.898 121.392 157.908 122.917 152.179 124.308" stroke="#F3E2A2" stroke-miterlimit="10" stroke-linecap="round"/>
<path d="M125.201 98.8369C137.587 114.945 147.438 132.142 154.485 149.959" stroke="#F3E2A2" stroke-miterlimit="10" stroke-linecap="round"/>
<path d="M117.689 102.011C120.767 120.469 126.844 138.648 135.747 156.018" stroke="#F3E2A2" stroke-miterlimit="10" stroke-linecap="round"/>
<path d="M507.342 119.038C500.589 81.6105 505.249 43.0605 498.419 6.02924C464.64 -21.8011 471.059 55.0714 470.992 67.0173C470.705 58.9429 459.093 30.4994 447.072 49.3888C439.772 73.8546 451.431 100.517 448.881 125.655" fill="#2E4C18"/>
<path d="M455.885 47.8484L460.159 123.779" stroke="#F3E2A2" stroke-miterlimit="10" stroke-linecap="round"/>
<path d="M486.78 0.582764L493.709 119.654" stroke="#F3E2A2" stroke-miterlimit="10" stroke-linecap="round"/>
<path d="M470.896 67.0671L474.218 116.738" stroke="#F3E2A2" stroke-miterlimit="10" stroke-linecap="round"/>
<path d="M978.809 115.589C980.837 94.1501 982.863 72.7107 984.891 51.2714C985.604 43.7343 986.488 35.8094 992.119 29.5354C994.829 26.5132 999.179 23.8527 1004.02 24.1669C1010.26 24.572 1014.01 29.4552 1016.14 33.8596C1021.12 44.1893 1023.18 55.3011 1022.16 66.2547C1021.99 68.0139 1022.13 70.2627 1024.33 70.8974C1027.08 71.6904 1029.29 69.0602 1029.99 66.9219C1031.89 61.17 1032.36 55.1602 1031.38 49.2826C1030.9 46.4229 1030.36 42.9869 1033.35 41.1649C1035.42 39.9019 1038.56 40.0167 1040.91 40.9765C1043.26 41.9384 1044.95 43.5892 1046.38 45.2768C1050.25 49.8372 1052.76 55.0411 1053.66 60.4009C1054.77 66.9956 1053.3 74.0453 1048.04 79.4073C1042.79 84.7671 1033.33 88.032 1024.72 86.3768C1027.66 97.8937 1028.64 109.688 1027.63 121.389" fill="#2E4C18"/>
<path d="M1002.64 25.5015C999.257 56.6703 998.054 87.9735 999.042 119.238" stroke="#F3E2A2" stroke-miterlimit="10" stroke-linecap="round"/>
<path d="M1038.21 41.3447C1040.39 46.5377 1042.58 51.7763 1043.26 57.1946C1043.94 62.6129 1043.01 68.2955 1039.28 72.9686C1035.55 77.6416 1028.7 81.1188 1021.42 81.0105" stroke="#F3E2A2" stroke-miterlimit="10" stroke-linecap="round"/>
<path d="M1382.61 165.739C1201.17 132.356 969.613 104.23 700.638 105.981C487.563 107.368 298.969 127.195 141.223 152.785C301.381 184.331 505.324 212.292 742.813 216.034C996.764 220.034 1214.44 195.171 1382.61 165.739Z" fill="#2E4C18"/>
<path d="M1382.61 165.739C1214.44 195.169 996.764 220.034 742.812 216.031C505.321 212.289 301.38 184.329 141.222 152.783C90.9508 160.94 43.7888 169.673 0 178.591V230.201H1449C1449 212.846 1449 195.719 1449 178.591C1427.7 174.254 1405.53 169.958 1382.61 165.739Z" fill="#2E4C18"/>
</g>
</svg>
