<svg width="430" height="155" viewBox="0 0 430 155" fill="none" xmlns="http://www.w3.org/2000/svg">
<mask id="mask0_312_26992" style="mask-type:alpha" maskUnits="userSpaceOnUse" x="-1" y="0" width="431" height="155">
<rect x="-1" width="431" height="155" fill="#D9D9D9"/>
</mask>
<g mask="url(#mask0_312_26992)">
<path d="M208 164.597C179.984 149.364 143.749 132.421 100.667 119.177C19.8096 155.108 -84.994 168.797 -153.957 106.385C-217.948 119.495 -271.196 142.901 -311 164.597C-138 164.597 35 164.597 208 164.597Z" fill="#3B365B"/>
<path d="M125.518 140.772C124.53 143.857 125.396 147.558 127.453 149.039C129.51 150.521 131.978 149.221 132.966 146.137C133.954 143.052 133.087 139.351 131.031 137.869C128.974 136.387 126.506 137.686 125.518 140.772Z" fill="#625B91"/>
<path d="M116.185 136.024C115.549 138.01 116.107 140.392 117.43 141.346C118.754 142.3 120.343 141.463 120.979 139.478C121.615 137.492 121.057 135.11 119.734 134.156C118.41 133.202 116.821 134.038 116.185 136.024Z" fill="#625B91"/>
<path d="M100.667 119.177C49.8664 103.56 -10.4554 93.0852 -78.0788 96.631C-104.777 98.0313 -130.108 101.498 -153.957 106.384C-84.9944 168.796 19.8093 155.108 100.667 119.177Z" fill="#625B91"/>
<path d="M26.3025 112.875C26.3025 116.927 24.1121 120.211 21.4106 120.211C18.7091 120.211 16.5195 116.927 16.5195 112.875C16.5195 108.824 18.7099 105.54 21.4106 105.54C24.1128 105.539 26.3025 108.824 26.3025 112.875Z" fill="#3B365B"/>
<path d="M34.2697 119.427C35.9483 119.427 37.309 117.386 37.309 114.869C37.309 112.352 35.9483 110.311 34.2697 110.311C32.5912 110.311 31.2305 112.352 31.2305 114.869C31.2305 117.386 32.5912 119.427 34.2697 119.427Z" fill="#3B365B"/>
<path d="M117 97.6203C118.349 79.4228 119.696 61.2252 121.045 43.0276C121.519 36.6302 122.106 29.9036 125.85 24.5782C127.652 22.013 130.545 19.7548 133.766 20.0215C137.915 20.3653 140.409 24.5102 141.821 28.2486C145.133 37.0164 146.505 46.448 145.825 55.7454C145.715 57.2385 145.808 59.1473 147.27 59.6861C149.097 60.3591 150.563 58.1267 151.034 56.3117C152.294 51.4295 152.608 46.3284 151.955 41.3396C151.639 38.9122 151.28 35.9958 153.267 34.4493C154.645 33.3773 156.732 33.4747 158.292 34.2893C159.853 35.1058 160.977 36.507 161.931 37.9395C164.505 41.8103 166.17 46.2273 166.769 50.7767C167.507 56.3743 166.532 62.3579 163.037 66.9092C159.541 71.4586 153.25 74.2298 147.525 72.8249C149.482 82.6003 150.136 92.6112 149.461 102.543" fill="#625B91"/>
<path d="M132.844 21.1542C130.593 47.6101 129.794 74.1801 130.451 100.717" stroke="#3B365B" stroke-miterlimit="10" stroke-linecap="round"/>
<path d="M156.497 34.6021C157.946 39.0098 159.404 43.4563 159.857 48.0553C160.31 52.6543 159.686 57.4777 157.206 61.4442C154.726 65.4107 150.176 68.3621 145.336 68.2701" stroke="#3B365B" stroke-miterlimit="10" stroke-linecap="round"/>
<path d="M520 163.151C490.905 142.422 453.273 119.368 408.531 101.347C324.558 150.238 215.715 168.865 144.095 83.9402C77.6379 101.779 22.3374 133.629 -19 163.151C160.667 163.151 340.333 163.151 520 163.151Z" fill="#3B365B"/>
<path d="M116.66 106.978C116.66 111.634 118.581 115.409 120.951 115.409C123.32 115.409 125.241 111.634 125.241 106.978C125.241 102.321 123.32 98.5471 120.951 98.5471C118.581 98.5471 116.66 102.321 116.66 106.978Z" fill="#625B91"/>
<path d="M109.262 114.829C110.788 114.829 112.025 112.399 112.025 109.401C112.025 106.403 110.788 103.973 109.262 103.973C107.737 103.973 106.5 106.403 106.5 109.401C106.5 112.399 107.737 114.829 109.262 114.829Z" fill="#625B91"/>
<path d="M424.639 124.544C423.979 127.246 424.558 130.487 425.933 131.786C427.308 133.084 428.958 131.945 429.619 129.244C430.279 126.542 429.7 123.3 428.325 122.002C426.951 120.704 425.3 121.841 424.639 124.544Z" fill="#625B91"/>
<path d="M408.53 101.62C355.772 80.3694 293.125 66.1163 222.896 70.9412C195.168 72.8466 168.862 77.5637 144.094 84.212C215.714 169.137 324.556 150.511 408.53 101.62Z" fill="#625B91"/>
<path d="M196.755 106.978C196.755 112.49 194.481 116.958 191.675 116.958C188.869 116.958 186.595 112.489 186.595 106.978C186.595 101.465 188.87 96.9968 191.675 96.9968C194.481 96.9968 196.755 101.465 196.755 106.978Z" fill="#3B365B"/>
<path d="M331.296 93.0451C331.296 98.5578 329.022 103.027 326.216 103.027C323.41 103.027 321.136 98.5578 321.136 93.0451C321.136 87.5325 323.411 83.0643 326.216 83.0643C329.022 83.0628 331.296 87.5325 331.296 93.0451Z" fill="#3B365B"/>
<path d="M279.61 125.875C279.61 131.388 277.335 135.856 274.53 135.856C271.725 135.856 269.451 131.388 269.451 125.875C269.451 120.362 271.725 115.893 274.53 115.893C277.335 115.893 279.61 120.362 279.61 125.875Z" fill="#3B365B"/>
<path d="M287.111 136.1C288.746 136.1 290.071 133.497 290.071 130.286C290.071 127.074 288.746 124.471 287.111 124.471C285.477 124.471 284.152 127.074 284.152 130.286C284.152 133.497 285.477 136.1 287.111 136.1Z" fill="#3B365B"/>
<path d="M206.422 117.347C206.422 120.772 205.009 123.549 203.266 123.549C201.522 123.549 200.109 120.772 200.109 117.347C200.109 113.922 201.522 111.145 203.266 111.145C205.009 111.145 206.422 113.922 206.422 117.347Z" fill="#3B365B"/>
<path d="M339.575 101.96C341.318 101.96 342.731 99.1835 342.731 95.7582C342.731 92.333 341.318 89.5563 339.575 89.5563C337.832 89.5563 336.419 92.333 336.419 95.7582C336.419 99.1835 337.832 101.96 339.575 101.96Z" fill="#3B365B"/>
</g>
</svg>
