<svg width="430" height="2575" viewBox="0 0 430 2575" fill="none" xmlns="http://www.w3.org/2000/svg">
<g clip-path="url(#clip0_799_18633)">
<rect width="430" height="2575" fill="#9C47AA"/>
<path d="M-35.6113 4031H15.8545V0.000253081H-35.6113V4031Z" fill="#90379E"/>
<path d="M39.0723 4031H53.3426V0.000253081H39.0723V4031Z" fill="#90379E"/>
<path d="M76.0762 4031H127.542V0.000253081H76.0762V4031Z" fill="#90379E"/>
<path d="M150.762 4031H165.032V0.000253081H150.762V4031Z" fill="#90379E"/>
<path d="M187.77 4031H239.235V0.000253081H187.77V4031Z" fill="#90379E"/>
<path d="M262.455 4031H276.725V0.000253081H262.455V4031Z" fill="#90379E"/>
<path d="M299.463 4031H350.929V0.000253081H299.463V4031Z" fill="#90379E"/>
<path d="M374.143 4031H388.413V0.000253081H374.143V4031Z" fill="#90379E"/>
<path d="M411.15 4031H462.616V0.000253081H411.15V4031Z" fill="#90379E"/>
<rect x="-94" y="2528" width="1498" height="47" fill="#652A6E"/>
<rect x="-122" y="2517" width="1498" height="11" fill="#4F1B58"/>
<path d="M217.5 2564.29C150.398 2564.29 96 2559.29 96 2553.13C96 2550.41 106.636 2547.91 124.306 2545.97C128.023 2551.04 134.025 2554.33 140.795 2554.33H294.205C300.974 2554.33 306.978 2551.04 310.692 2545.97C328.364 2547.91 339 2550.41 339 2553.13C339 2559.29 284.602 2564.29 217.5 2564.29Z" fill="black" fill-opacity="0.25"/>
<path d="M170.068 2363H177.192V2348.36H170.068V2363Z" fill="#753180"/>
<path d="M173.935 2356.47C171.826 2356.47 170.068 2355.68 170.068 2355.68V2354.02C171.118 2354.52 172.291 2354.82 173.53 2354.83C173.544 2354.83 173.556 2354.83 173.569 2354.83C173.571 2354.83 173.571 2354.83 173.573 2354.83C173.59 2354.83 173.607 2354.83 173.626 2354.83C173.88 2354.83 174.131 2354.82 174.38 2354.79V2356.46C174.23 2356.47 174.083 2356.47 173.935 2356.47ZM176.219 2356.12V2354.41C176.554 2354.29 176.878 2354.16 177.192 2354.01V2355.68C176.875 2355.86 176.548 2356 176.219 2356.12Z" fill="#753180"/>
<path d="M176.214 2361.12H174.375V2356.46C174.978 2356.43 175.602 2356.32 176.214 2356.12V2361.12Z" fill="#753180"/>
<path d="M174.375 2356.46V2354.79C175.012 2354.73 175.628 2354.6 176.214 2354.41V2356.11C175.602 2356.32 174.978 2356.43 174.375 2356.46Z" fill="#753180"/>
<path d="M257.008 2363H264.129V2348.36H257.008V2363Z" fill="#753180"/>
<path d="M260.875 2356.47C258.767 2356.47 257.008 2355.68 257.008 2355.68V2354.01C258.083 2354.54 259.293 2354.83 260.569 2354.83C260.579 2354.83 260.593 2354.83 260.602 2354.83C260.846 2354.82 261.085 2354.82 261.32 2354.79V2356.46C261.171 2356.47 261.023 2356.47 260.875 2356.47ZM263.16 2356.12V2354.41C263.494 2354.3 263.82 2354.16 264.13 2354.01V2355.68C263.815 2355.86 263.49 2356 263.16 2356.12Z" fill="#753180"/>
<path d="M263.161 2361.12H261.32V2356.46C261.923 2356.43 262.549 2356.32 263.161 2356.12V2361.12Z" fill="#753180"/>
<path d="M261.32 2356.46V2354.79C261.956 2354.73 262.573 2354.6 263.161 2354.41V2356.11C262.549 2356.32 261.923 2356.43 261.32 2356.46Z" fill="#753180"/>
<path d="M291.687 2368.53H143.307C135.847 2368.53 129.799 2371.3 129.799 2378.76V2379.04C129.799 2386.5 132.575 2392.54 140.035 2392.54H294.957C302.414 2392.54 305.191 2386.5 305.191 2379.04V2378.76C305.191 2371.3 299.144 2368.53 291.687 2368.53Z" fill="#753180"/>
<path d="M296.612 2370.43C296.612 2370.85 261.65 2371.18 218.523 2371.18C175.396 2371.18 140.436 2370.85 140.436 2370.43C140.436 2370.02 175.396 2369.68 218.523 2369.68C261.65 2369.68 296.612 2370.02 296.612 2370.43Z" fill="#753180"/>
<path d="M295.223 2381.72C295.223 2429.67 339 2469.09 339 2515.64C339 2536.26 300.157 2551.97 300.157 2551.97L285.85 2391.33C285.85 2391.33 287.427 2381.72 295.223 2381.72Z" fill="#9530A5"/>
<path d="M313.182 2545.49C313.316 2545.15 313.445 2544.81 313.56 2544.46C314.306 2543.79 315.032 2543.06 315.726 2542.27C325.654 2535.22 336.71 2525.37 336.949 2516.32C336.949 2492.65 312.977 2448.6 299.722 2419.43C298.015 2411.43 296.662 2403.42 295.898 2395.45C295.773 2393.36 295.654 2391.17 295.539 2388.91C299.521 2433.66 338.995 2471.44 338.995 2515.64C338.995 2527.91 325.252 2538.43 314.115 2544.95C313.804 2545.13 313.488 2545.32 313.182 2545.49Z" fill="#682B72"/>
<path d="M313.839 2543.59C314.389 2541.69 314.671 2539.66 314.632 2537.57C313.189 2453.34 302.682 2466.1 297.381 2414.17C298.117 2415.86 298.901 2417.62 299.723 2419.43C307.343 2455.21 321.96 2491.17 321.96 2525.58C321.96 2532.86 319.24 2538.3 315.727 2542.27C315.091 2542.72 314.46 2543.16 313.839 2543.59Z" fill="#682B72"/>
<path d="M139.776 2381.72C139.776 2429.67 96 2469.09 96 2515.64C96 2536.26 134.841 2551.97 134.841 2551.97L149.149 2391.33C149.149 2391.33 147.573 2381.72 139.776 2381.72Z" fill="#9530A5"/>
<path d="M121.813 2545.49C110.527 2539.03 96 2528.25 96 2515.64C96 2514.52 96.0263 2513.41 96.0746 2512.31C96.4947 2502.85 98.6606 2493.66 101.822 2484.63C112.56 2453.96 134.785 2425 139.057 2392.5C139.213 2391.32 139.346 2390.11 139.454 2388.9C139.341 2391.17 139.221 2393.35 139.094 2395.45C138.354 2403.19 137.057 2410.96 135.421 2418.73C122.237 2447.89 97.8748 2492.46 97.8748 2516.32C98.1157 2525.51 109.517 2535.53 119.563 2542.6C120.168 2543.26 120.793 2543.88 121.432 2544.46C121.549 2544.81 121.676 2545.15 121.813 2545.49Z" fill="#682B72"/>
<path d="M121.203 2543.74C120.663 2543.37 120.116 2542.99 119.565 2542.6C115.909 2538.6 113.037 2533.07 113.037 2525.58C113.037 2490.95 127.846 2454.74 135.423 2418.73C136.213 2416.98 136.964 2415.29 137.666 2413.66C132.383 2466.19 121.815 2453.07 120.364 2537.57C120.329 2539.72 120.624 2541.78 121.203 2543.74Z" fill="#682B72"/>
<path d="M295.224 2378.28H139.776C136.103 2469.69 122.052 2435.73 120.362 2534.13C120.166 2545.54 129.389 2554.89 140.796 2554.89H294.206C305.611 2554.89 314.832 2545.54 314.636 2534.13C312.949 2435.73 298.9 2469.69 295.224 2378.28Z" fill="#A439B5"/>
<path d="M295.264 2383.67H269.843V2381.72H295.225C295.24 2382.05 295.249 2382.37 295.264 2382.7V2383.67ZM251.3 2383.67H182.896V2381.72H251.3V2383.67ZM164.352 2383.67H139.777V2381.72H164.352V2383.67Z" fill="#682B72"/>
<path d="M291.211 2555.16H143.795C132.833 2555.16 123.973 2546.16 124.159 2535.21C124.26 2529.31 124.408 2523.91 124.596 2518.94C144.727 2520.3 207.276 2521.37 256.077 2521.37C279.381 2521.37 299.558 2521.13 310.466 2520.56C310.628 2525.08 310.753 2529.94 310.843 2535.21C311.035 2546.16 302.172 2555.16 291.211 2555.16Z" fill="#A439B5"/>
<path d="M184.678 2427.74H182.891V2383.67H184.678V2427.74ZM164.347 2427.74H162.562V2383.67H164.347V2427.74Z" fill="#682B72"/>
<path d="M173.62 2450.58C172.47 2450.58 171.318 2450.09 170.52 2449.1L163.826 2441.6C163.008 2440.59 162.562 2439.33 162.562 2438.03V2427.74H164.347V2437.94C164.347 2439.1 164.745 2440.21 165.472 2441.12L170.864 2447.79C171.574 2448.66 172.597 2449.1 173.62 2449.1C174.643 2449.1 175.667 2448.66 176.374 2447.79L181.767 2441.12C182.495 2440.21 182.891 2439.1 182.891 2437.94V2427.74H184.678V2438.03C184.678 2439.33 184.232 2440.59 183.414 2441.6L176.718 2449.1C175.921 2450.09 174.77 2450.58 173.62 2450.58Z" fill="#682B72"/>
<path d="M181.767 2441.12L176.374 2447.79C174.958 2449.54 172.284 2449.54 170.864 2447.79L165.472 2441.12C164.745 2440.21 164.348 2439.09 164.348 2437.94V2368.53H182.891V2437.94C182.891 2439.09 182.495 2440.21 181.767 2441.12Z" fill="#A439B5"/>
<path d="M164.348 2423.68H182.891V2400.24H164.348V2423.68Z" fill="#A439B5"/>
<path d="M271.626 2427.74H269.838V2383.67H271.626V2427.74ZM251.295 2427.74H249.508V2383.67H251.295V2427.74Z" fill="#682B72"/>
<path d="M260.564 2450.58C259.417 2450.58 258.265 2450.09 257.467 2449.1L250.772 2441.6C249.954 2440.59 249.508 2439.33 249.508 2438.03V2427.74H251.295V2437.94C251.295 2439.1 251.691 2440.21 252.417 2441.12L257.811 2447.79C258.518 2448.66 259.541 2449.1 260.564 2449.1C261.587 2449.1 262.61 2448.66 263.322 2447.79L268.714 2441.12C269.441 2440.21 269.838 2439.1 269.838 2437.94V2427.74H271.626V2438.03C271.626 2439.33 271.176 2440.59 270.359 2441.6L263.662 2449.1C262.868 2450.09 261.716 2450.58 260.564 2450.58Z" fill="#682B72"/>
<path d="M268.72 2441.12L263.328 2447.79C261.908 2449.54 259.236 2449.54 257.817 2447.79L252.423 2441.12C251.697 2440.21 251.301 2439.09 251.301 2437.94V2368.53H269.843V2437.94C269.843 2439.09 269.447 2440.21 268.72 2441.12Z" fill="#A439B5"/>
<path d="M251.301 2423.68H269.844V2400.24H251.301V2423.68Z" fill="#A439B5"/>
<path d="M226.774 2368.53H205.514V2366.74C205.514 2363.63 208.03 2361.12 211.136 2361.12H221.151C224.257 2361.12 226.774 2363.63 226.774 2366.74V2368.53Z" fill="#753180"/>
<path d="M226.771 2368.53H206.072V2366.74C206.072 2364.27 207.759 2362.73 210.615 2362.02C210.615 2362.02 207.708 2364.62 208.526 2366.52C209.344 2368.41 226.771 2368.53 226.771 2368.53Z" fill="#682B72"/>
<path d="M226.776 2368.53C226.776 2368.53 226.314 2365.65 223.045 2363.5C220.254 2361.67 211.287 2361.22 210.654 2361.14C210.815 2361.12 210.975 2361.12 211.138 2361.12H221.153C224.259 2361.12 226.776 2363.63 226.776 2366.74V2368.53Z" fill="#753180"/>
<path d="M294.774 2488.25H140.039C132.644 2488.25 127.114 2481.47 128.6 2474.22L129.177 2471.41C130.292 2465.98 135.072 2462.08 140.616 2462.08H294.239C299.846 2462.08 304.664 2466.07 305.711 2471.57L306.247 2474.39C307.614 2481.58 302.097 2488.25 294.774 2488.25Z" fill="#A439B5"/>
<path d="M178.397 2361.12H168.841C166.336 2361.12 164.305 2363.15 164.305 2365.65V2368.53H182.93V2365.65C182.93 2363.15 180.901 2361.12 178.397 2361.12Z" fill="#9530A5"/>
<path d="M265.344 2361.12H255.789C253.283 2361.12 251.252 2363.15 251.252 2365.65V2368.53H269.881V2365.65C269.881 2363.15 267.849 2361.12 265.344 2361.12Z" fill="#9530A5"/>
<path d="M260.571 2354.83C256.053 2354.83 252.394 2351.17 252.394 2346.65C252.394 2327.19 236.561 2311.35 217.101 2311.35C197.635 2311.35 181.803 2327.19 181.803 2346.65C181.803 2351.17 178.143 2354.83 173.626 2354.83C169.109 2354.83 165.447 2351.17 165.447 2346.65C165.447 2318.17 188.618 2295 217.101 2295C245.578 2295 268.749 2318.17 268.749 2346.65C268.749 2351.17 265.088 2354.83 260.571 2354.83Z" fill="#A439B5"/>
<path d="M168.44 2350.04C167.997 2350.04 167.555 2348.9 167.555 2346.65C167.555 2318.17 194.129 2297.59 217.095 2297.59C242.099 2297.59 266.224 2316.72 266.224 2345.19C266.224 2346.96 265.665 2348.04 265.124 2348.04C264.618 2348.04 264.13 2347.1 264.13 2344.92C264.13 2325.46 247.278 2300.86 217.095 2300.86C187.724 2300.86 169.327 2327.19 169.327 2346.65C169.327 2348.9 168.884 2350.04 168.44 2350.04Z" fill="#A439B5"/>
<path d="M260.57 2354.83C259.294 2354.83 258.085 2354.54 257.009 2354.01C254.277 2352.69 252.394 2349.89 252.394 2346.65C252.394 2331.49 242.788 2318.53 229.346 2313.55C225.53 2312.13 221.403 2311.35 217.101 2311.35C197.635 2311.35 181.802 2327.19 181.802 2346.65C181.802 2349.89 179.92 2352.69 177.192 2354.01C176.878 2354.16 176.554 2354.29 176.219 2354.41C175.633 2354.6 175.017 2354.73 174.38 2354.79C174.132 2354.82 173.88 2354.83 173.626 2354.83C173.609 2354.83 173.59 2354.83 173.573 2354.83C173.571 2354.83 173.571 2354.83 173.57 2354.83C173.557 2354.83 173.544 2354.83 173.53 2354.83C171.161 2354.8 171.813 2353.7 172.892 2351.98C173.133 2352.03 173.377 2352.06 173.626 2352.06C174.08 2352.06 174.539 2351.97 174.984 2351.79C176.363 2351.22 177.196 2349.89 177.192 2348.48C177.191 2348.03 177.104 2347.57 176.921 2347.13C176.55 2346.23 175.848 2345.56 175.013 2345.21C175.719 2327.51 189.376 2306.86 217.101 2306.86C245.578 2306.86 257.004 2327.84 257.004 2345.19C257.004 2345.77 257.138 2346.36 257.358 2346.95C257.129 2347.42 257.004 2347.96 257.004 2348.5C257.004 2348.95 257.095 2349.41 257.277 2349.85C257.841 2351.22 259.17 2352.06 260.575 2352.06C260.633 2352.06 260.695 2352.06 260.752 2352.05C262.033 2353.69 262.678 2354.82 260.604 2354.83C260.594 2354.83 260.58 2354.83 260.57 2354.83Z" fill="#9A35AA"/>
<path d="M173.621 2352.05C172.221 2352.05 170.891 2351.22 170.323 2349.85C170.142 2349.41 170.057 2348.95 170.055 2348.5C170.051 2347.09 170.884 2345.76 172.264 2345.19C172.264 2345.19 174.25 2346.68 175 2348.5C175.749 2350.32 174.979 2351.79 174.979 2351.79C174.534 2351.97 174.075 2352.05 173.621 2352.05Z" fill="#753180"/>
<path d="M174.981 2351.79C174.981 2351.79 173.537 2350.67 172.787 2348.85C172.036 2347.03 172.266 2345.19 172.266 2345.19C172.71 2345.01 173.169 2344.93 173.621 2344.93C175.023 2344.93 176.353 2345.76 176.919 2347.14C177.102 2347.57 177.188 2348.03 177.19 2348.48C177.193 2349.89 176.36 2351.22 174.981 2351.79Z" fill="#753180"/>
<path d="M174.983 2351.79C174.983 2351.79 177.552 2349.72 176.269 2347.18C175.289 2344.99 172.268 2345.19 172.268 2345.19C174.088 2344.44 176.172 2345.31 176.921 2347.14C177.672 2348.96 176.803 2351.04 174.983 2351.79Z" fill="#753180"/>
<path d="M260.571 2352.05C259.165 2352.05 257.837 2351.22 257.272 2349.85C257.091 2349.41 257 2348.95 257 2348.5C256.995 2347.09 257.832 2345.76 259.208 2345.19C259.208 2345.19 260.25 2346.68 261 2348.5C261.75 2350.32 261.924 2351.79 261.924 2351.79C261.479 2351.97 261.02 2352.05 260.571 2352.05Z" fill="#753180"/>
<path d="M261.925 2351.79C261.925 2351.79 260.481 2350.67 259.731 2348.85C258.985 2347.03 259.21 2345.19 259.21 2345.19C259.654 2345.01 260.113 2344.93 260.567 2344.93C261.968 2344.93 263.297 2345.76 263.865 2347.14C264.047 2347.57 264.133 2348.03 264.133 2348.48C264.138 2349.89 263.306 2351.22 261.925 2351.79Z" fill="#753180"/>
<path d="M261.928 2351.79C261.928 2351.79 264.5 2349.72 263.219 2347.18C262.234 2344.99 259.213 2345.19 259.213 2345.19C261.034 2344.44 263.118 2345.31 263.869 2347.14C264.619 2348.96 263.749 2351.04 261.928 2351.79Z" fill="#753180"/>
<path d="M225.028 2363.1L225.324 2364.16L224.269 2363.86L223.973 2362.81L225.028 2363.1Z" fill="#753180"/>
<path d="M164.348 2368.53H182.891V2366.24H164.348V2368.53Z" fill="#682B72"/>
</g>
<defs>
<clipPath id="clip0_799_18633">
<rect width="430" height="2575" fill="white"/>
</clipPath>
</defs>
</svg>
