<svg width="1440" height="1045" viewBox="0 0 1440 1045" fill="none" xmlns="http://www.w3.org/2000/svg">
<g clip-path="url(#clip0_1149_18718)">
<rect width="1440" height="1045" fill="#C62B29"/>
<path d="M1604.26 -19H-304V1282.97H1604.26V-19Z" fill="url(#paint0_linear_1149_18718)"/>
<path d="M38.6108 395.452C37.2373 395.452 35.914 395.72 34.6296 396.134C27.1461 359.901 3.36491 333.384 -24.8689 333.384C-36.3484 333.384 -47.0595 337.84 -56.2802 345.47C-70.0965 325.745 -89.3193 313.5 -110.587 313.5C-144.965 313.5 -174.012 345.468 -183.479 389.368C-183.976 389.321 -184.472 389.261 -184.977 389.261C-197.217 389.261 -207.14 403.184 -207.14 420.359H-186.744H-162.816H-86.8545H-34.4293H20.8617H37.1185H56.3636C56.3636 406.603 48.4161 395.452 38.6108 395.452Z" fill="url(#paint1_linear_1149_18718)"/>
<path d="M442.335 440.015C441.355 440.015 440.411 440.165 439.495 440.397C434.157 420.052 417.189 405.164 397.044 405.164C388.854 405.164 381.211 407.666 374.634 411.951C364.775 400.876 351.061 394 335.887 394C311.36 394 290.636 411.95 283.881 436.599C283.526 436.573 283.173 436.539 282.812 436.539C274.079 436.539 267 444.356 267 454H281.552H298.624H352.819H390.223H429.67H441.269H455C455 446.277 449.329 440.015 442.335 440.015Z" fill="url(#paint2_linear_1149_18718)"/>
<path d="M233.568 203.511C232.838 203.511 232.135 203.624 231.453 203.798C227.477 188.54 214.842 177.373 199.841 177.373C193.742 177.373 188.051 179.25 183.152 182.463C175.811 174.157 165.598 169 154.298 169C136.034 169 120.601 182.462 115.571 200.949C115.307 200.929 115.043 200.904 114.775 200.904C108.272 200.904 103 206.767 103 214H113.836H126.549H166.908H194.761H224.138H232.775H243C243 208.207 238.777 203.511 233.568 203.511Z" fill="url(#paint3_linear_1149_18718)"/>
<path d="M513.094 151.571C512.792 151.571 512.5 151.618 512.218 151.692C510.57 145.249 505.336 140.535 499.121 140.535C496.595 140.535 494.237 141.327 492.207 142.684C489.166 139.176 484.935 137 480.253 137C472.686 137 466.292 142.684 464.208 150.49C464.098 150.482 463.989 150.471 463.879 150.471C461.184 150.471 459 152.946 459 156H463.489H468.756H485.476H497.015H509.186H512.764H517C517.001 153.553 515.251 151.571 513.094 151.571Z" fill="url(#paint4_linear_1149_18718)"/>
<path d="M136.835 471.737C136.589 471.737 136.353 471.772 136.124 471.826C134.789 467.079 130.548 463.605 125.511 463.605C123.463 463.605 121.553 464.189 119.909 465.188C117.444 462.604 114.015 461 110.222 461C104.09 461 98.9095 465.188 97.2202 470.939C97.1312 470.933 97.0431 470.926 96.953 470.926C94.7704 470.926 93 472.75 93 475H96.6378H100.906H114.455H123.807H133.668H136.567H140C140.001 473.198 138.583 471.737 136.835 471.737Z" fill="url(#paint5_linear_1149_18718)"/>
<path d="M745.732 208.014C746.717 208.014 747.666 208.163 748.588 208.396C753.954 188.052 771.012 173.164 791.263 173.164C799.496 173.164 807.181 175.666 813.793 179.951C823.704 168.875 837.491 162 852.746 162C877.404 162 898.237 179.95 905.029 204.599C905.386 204.573 905.741 204.539 906.103 204.539C914.883 204.539 922 212.356 922 222H907.371H890.208H835.724H798.122H758.464H746.804H733C733 214.276 738.7 208.014 745.732 208.014Z" fill="url(#paint6_linear_1149_18718)"/>
<path d="M841.687 1083.92C842.823 1083.92 843.917 1084.09 844.98 1084.36C851.171 1060.96 870.845 1043.84 894.205 1043.84C903.701 1043.84 912.563 1046.72 920.192 1051.64C931.622 1038.91 947.526 1031 965.121 1031C993.562 1031 1017.59 1051.64 1025.43 1079.99C1025.84 1079.96 1026.25 1079.92 1026.67 1079.92C1036.79 1079.92 1045 1088.91 1045 1100H1028.13H1008.33H945.486H902.114H856.372H842.922H827C827 1091.12 833.575 1083.92 841.687 1083.92Z" fill="url(#paint7_linear_1149_18718)"/>
<path d="M1142.95 358.375C1143.57 358.375 1144.16 358.467 1144.73 358.611C1148.08 346.065 1158.73 336.885 1171.38 336.885C1176.52 336.885 1181.31 338.428 1185.44 341.07C1191.63 334.241 1200.24 330 1209.76 330C1225.16 330 1238.17 341.068 1242.4 356.27C1242.63 356.253 1242.85 356.233 1243.08 356.233C1248.56 356.233 1253 361.054 1253 367H1243.87H1233.15H1199.13H1175.66H1150.9H1143.62H1135C1135 362.236 1138.56 358.375 1142.95 358.375Z" fill="url(#paint8_linear_1149_18718)"/>
<path d="M936.392 430.173C936.809 430.173 937.21 430.236 937.6 430.333C939.871 421.855 947.092 415.652 955.664 415.652C959.148 415.652 962.401 416.695 965.2 418.479C969.394 413.864 975.23 411 981.687 411C992.124 411 1000.94 418.479 1003.82 428.749C1003.97 428.739 1004.12 428.725 1004.27 428.725C1007.99 428.725 1011 431.982 1011 436H1004.81H997.542H974.481H958.564H941.779H936.843H931C931.001 432.782 933.415 430.173 936.392 430.173Z" fill="url(#paint9_linear_1149_18718)"/>
<path d="M657.335 861.015C656.355 861.015 655.411 861.165 654.495 861.397C649.157 841.052 632.189 826.164 612.044 826.164C603.854 826.164 596.211 828.666 589.634 832.951C579.775 821.876 566.061 815 550.887 815C526.36 815 505.636 832.95 498.881 857.599C498.526 857.573 498.173 857.539 497.812 857.539C489.079 857.539 482 865.356 482 875H496.552H513.624H567.819H605.223H644.67H656.269H670C670 867.277 664.329 861.015 657.335 861.015Z" fill="url(#paint10_linear_1149_18718)"/>
<path d="M448.568 624.511C447.838 624.511 447.135 624.624 446.453 624.798C442.477 609.54 429.842 598.373 414.841 598.373C408.742 598.373 403.051 600.25 398.152 603.463C390.811 595.157 380.598 590 369.298 590C351.034 590 335.601 603.462 330.571 621.949C330.307 621.929 330.043 621.904 329.775 621.904C323.272 621.904 318 627.767 318 635H328.836H341.549H381.908H409.761H439.138H447.775H458C458 629.207 453.777 624.511 448.568 624.511Z" fill="url(#paint11_linear_1149_18718)"/>
<path d="M728.094 572.571C727.792 572.571 727.5 572.618 727.218 572.692C725.57 566.249 720.336 561.535 714.121 561.535C711.595 561.535 709.237 562.327 707.207 563.684C704.166 560.176 699.935 558 695.253 558C687.686 558 681.292 563.684 679.208 571.49C679.098 571.482 678.989 571.471 678.879 571.471C676.184 571.471 674 573.946 674 577H678.489H683.756H700.476H712.015H724.186H727.764H732C732.001 574.553 730.251 572.571 728.094 572.571Z" fill="url(#paint12_linear_1149_18718)"/>
<path d="M351.835 892.737C351.589 892.737 351.353 892.772 351.124 892.826C349.789 888.079 345.548 884.605 340.511 884.605C338.463 884.605 336.553 885.189 334.909 886.188C332.444 883.604 329.015 882 325.222 882C319.09 882 313.91 886.188 312.22 891.939C312.131 891.933 312.043 891.926 311.953 891.926C309.77 891.926 308 893.75 308 896H311.638H315.906H329.455H338.807H348.668H351.567H355C355.001 894.198 353.583 892.737 351.835 892.737Z" fill="url(#paint13_linear_1149_18718)"/>
<path d="M960.732 629.014C961.717 629.014 962.666 629.163 963.588 629.396C968.954 609.052 986.012 594.164 1006.26 594.164C1014.5 594.164 1022.18 596.666 1028.79 600.951C1038.7 589.875 1052.49 583 1067.75 583C1092.4 583 1113.24 600.95 1120.03 625.599C1120.39 625.573 1120.74 625.539 1121.1 625.539C1129.88 625.539 1137 633.356 1137 643H1122.37H1105.21H1050.72H1013.12H973.464H961.804H948C948 635.276 953.7 629.014 960.732 629.014Z" fill="url(#paint14_linear_1149_18718)"/>
<path d="M1357.95 779.375C1358.57 779.375 1359.16 779.467 1359.73 779.611C1363.08 767.065 1373.73 757.885 1386.38 757.885C1391.52 757.885 1396.31 759.428 1400.44 762.07C1406.63 755.241 1415.24 751 1424.76 751C1440.16 751 1453.17 762.068 1457.4 777.27C1457.63 777.253 1457.85 777.233 1458.08 777.233C1463.56 777.233 1468 782.054 1468 788H1458.87H1448.15H1414.13H1390.66H1365.9H1358.62H1350C1350 783.236 1353.56 779.375 1357.95 779.375Z" fill="url(#paint15_linear_1149_18718)"/>
<path d="M1151.39 851.173C1151.81 851.173 1152.21 851.236 1152.6 851.333C1154.87 842.855 1162.09 836.652 1170.66 836.652C1174.15 836.652 1177.4 837.695 1180.2 839.479C1184.39 834.864 1190.23 832 1196.69 832C1207.12 832 1215.94 839.479 1218.82 849.749C1218.97 849.739 1219.12 849.725 1219.27 849.725C1222.99 849.725 1226 852.982 1226 857H1219.81H1212.54H1189.48H1173.56H1156.78H1151.84H1146C1146 853.782 1148.41 851.173 1151.39 851.173Z" fill="url(#paint16_linear_1149_18718)"/>
<path d="M330.568 881.511C329.838 881.511 329.135 881.624 328.453 881.798C324.477 866.54 311.842 855.373 296.841 855.373C290.742 855.373 285.051 857.25 280.152 860.463C272.811 852.157 262.598 847 251.298 847C233.034 847 217.601 860.462 212.571 878.949C212.307 878.929 212.043 878.904 211.775 878.904C205.272 878.904 200 884.767 200 892H210.836H223.549H263.908H291.761H321.138H329.775H340C340 886.207 335.777 881.511 330.568 881.511Z" fill="url(#paint17_linear_1149_18718)"/>
<path d="M610.094 829.571C609.792 829.571 609.5 829.618 609.218 829.692C607.57 823.249 602.336 818.535 596.121 818.535C593.595 818.535 591.237 819.327 589.207 820.684C586.166 817.176 581.935 815 577.253 815C569.686 815 563.292 820.684 561.208 828.49C561.098 828.482 560.989 828.471 560.879 828.471C558.184 828.471 556 830.946 556 834H560.489H565.756H582.476H594.015H606.186H609.764H614C614.001 831.553 612.251 829.571 610.094 829.571Z" fill="url(#paint18_linear_1149_18718)"/>
<path d="M842.732 886.014C843.717 886.014 844.666 886.163 845.588 886.396C850.954 866.052 868.012 851.164 888.263 851.164C896.496 851.164 904.181 853.666 910.793 857.951C920.704 846.875 934.491 840 949.746 840C974.404 840 995.237 857.95 1002.03 882.599C1002.39 882.573 1002.74 882.539 1003.1 882.539C1011.88 882.539 1019 890.356 1019 900H1004.37H987.208H932.724H895.122H855.464H843.804H830C830 892.276 835.7 886.014 842.732 886.014Z" fill="url(#paint19_linear_1149_18718)"/>
<path d="M1239.95 1036.38C1240.57 1036.38 1241.16 1036.47 1241.73 1036.61C1245.08 1024.06 1255.73 1014.88 1268.38 1014.88C1273.52 1014.88 1278.31 1016.43 1282.44 1019.07C1288.63 1012.24 1297.24 1008 1306.76 1008C1322.16 1008 1335.17 1019.07 1339.4 1034.27C1339.63 1034.25 1339.85 1034.23 1340.08 1034.23C1345.56 1034.23 1350 1039.05 1350 1045H1340.87H1330.15H1296.13H1272.66H1247.9H1240.62H1232C1232 1040.24 1235.56 1036.38 1239.95 1036.38Z" fill="url(#paint20_linear_1149_18718)"/>
<path d="M1608.26 996H-300V5102.89H1608.26V996Z" fill="url(#paint21_linear_1149_18718)"/>
</g>
<defs>
<linearGradient id="paint0_linear_1149_18718" x1="1523.67" y1="33.1705" x2="-338.906" y2="667.143" gradientUnits="userSpaceOnUse">
<stop stop-color="#FFFBF8"/>
<stop offset="1" stop-color="#FFF0E3"/>
</linearGradient>
<linearGradient id="paint1_linear_1149_18718" x1="27.3362" y1="347.141" x2="-219.098" y2="389.139" gradientUnits="userSpaceOnUse">
<stop stop-color="#FFEEE3"/>
<stop offset="1" stop-color="#FFDCC5"/>
</linearGradient>
<linearGradient id="paint2_linear_1149_18718" x1="434.29" y1="412.89" x2="261.466" y2="450.316" gradientUnits="userSpaceOnUse">
<stop stop-color="#FFEEE3"/>
<stop offset="1" stop-color="#FFDCC5"/>
</linearGradient>
<linearGradient id="paint3_linear_1149_18718" x1="227.578" y1="183.167" x2="98.7977" y2="210.857" gradientUnits="userSpaceOnUse">
<stop stop-color="#FFEEE3"/>
<stop offset="1" stop-color="#FFDCC5"/>
</linearGradient>
<linearGradient id="paint4_linear_1149_18718" x1="510.612" y1="142.982" x2="457.172" y2="154.257" gradientUnits="userSpaceOnUse">
<stop stop-color="#FFEEE3"/>
<stop offset="1" stop-color="#FFDCC5"/>
</linearGradient>
<linearGradient id="paint5_linear_1149_18718" x1="134.823" y1="465.408" x2="91.9021" y2="475.367" gradientUnits="userSpaceOnUse">
<stop stop-color="#FFEEE3"/>
<stop offset="1" stop-color="#FFDCC5"/>
</linearGradient>
<linearGradient id="paint6_linear_1149_18718" x1="753.82" y1="180.889" x2="927.48" y2="218.696" gradientUnits="userSpaceOnUse">
<stop stop-color="#FFEEE3"/>
<stop offset="1" stop-color="#FFDCC5"/>
</linearGradient>
<linearGradient id="paint7_linear_1149_18718" x1="851.015" y1="1052.72" x2="1051.26" y2="1096.45" gradientUnits="userSpaceOnUse">
<stop stop-color="#FFEEE3"/>
<stop offset="1" stop-color="#FFDCC5"/>
</linearGradient>
<linearGradient id="paint8_linear_1149_18718" x1="1148" y1="341.648" x2="1256.3" y2="365.518" gradientUnits="userSpaceOnUse">
<stop stop-color="#FFEEE3"/>
<stop offset="1" stop-color="#FFDCC5"/>
</linearGradient>
<linearGradient id="paint9_linear_1149_18718" x1="939.814" y1="418.87" x2="1013.21" y2="435.103" gradientUnits="userSpaceOnUse">
<stop stop-color="#FFEEE3"/>
<stop offset="1" stop-color="#FFDCC5"/>
</linearGradient>
<linearGradient id="paint10_linear_1149_18718" x1="649.29" y1="833.89" x2="476.466" y2="871.316" gradientUnits="userSpaceOnUse">
<stop stop-color="#FFEEE3"/>
<stop offset="1" stop-color="#FFDCC5"/>
</linearGradient>
<linearGradient id="paint11_linear_1149_18718" x1="442.578" y1="604.167" x2="313.798" y2="631.857" gradientUnits="userSpaceOnUse">
<stop stop-color="#FFEEE3"/>
<stop offset="1" stop-color="#FFDCC5"/>
</linearGradient>
<linearGradient id="paint12_linear_1149_18718" x1="725.612" y1="563.982" x2="672.172" y2="575.257" gradientUnits="userSpaceOnUse">
<stop stop-color="#FFEEE3"/>
<stop offset="1" stop-color="#FFDCC5"/>
</linearGradient>
<linearGradient id="paint13_linear_1149_18718" x1="349.823" y1="886.408" x2="306.902" y2="896.367" gradientUnits="userSpaceOnUse">
<stop stop-color="#FFEEE3"/>
<stop offset="1" stop-color="#FFDCC5"/>
</linearGradient>
<linearGradient id="paint14_linear_1149_18718" x1="968.82" y1="601.889" x2="1142.48" y2="639.696" gradientUnits="userSpaceOnUse">
<stop stop-color="#FFEEE3"/>
<stop offset="1" stop-color="#FFDCC5"/>
</linearGradient>
<linearGradient id="paint15_linear_1149_18718" x1="1363" y1="762.648" x2="1471.3" y2="786.518" gradientUnits="userSpaceOnUse">
<stop stop-color="#FFEEE3"/>
<stop offset="1" stop-color="#FFDCC5"/>
</linearGradient>
<linearGradient id="paint16_linear_1149_18718" x1="1154.81" y1="839.87" x2="1228.21" y2="856.103" gradientUnits="userSpaceOnUse">
<stop stop-color="#FFEEE3"/>
<stop offset="1" stop-color="#FFDCC5"/>
</linearGradient>
<linearGradient id="paint17_linear_1149_18718" x1="324.578" y1="861.167" x2="195.798" y2="888.857" gradientUnits="userSpaceOnUse">
<stop stop-color="#FFEEE3"/>
<stop offset="1" stop-color="#FFDCC5"/>
</linearGradient>
<linearGradient id="paint18_linear_1149_18718" x1="607.612" y1="820.982" x2="554.172" y2="832.257" gradientUnits="userSpaceOnUse">
<stop stop-color="#FFEEE3"/>
<stop offset="1" stop-color="#FFDCC5"/>
</linearGradient>
<linearGradient id="paint19_linear_1149_18718" x1="850.82" y1="858.889" x2="1024.48" y2="896.696" gradientUnits="userSpaceOnUse">
<stop stop-color="#FFEEE3"/>
<stop offset="1" stop-color="#FFDCC5"/>
</linearGradient>
<linearGradient id="paint20_linear_1149_18718" x1="1245" y1="1019.65" x2="1353.3" y2="1043.52" gradientUnits="userSpaceOnUse">
<stop stop-color="#FFEEE3"/>
<stop offset="1" stop-color="#FFDCC5"/>
</linearGradient>
<linearGradient id="paint21_linear_1149_18718" x1="1527.67" y1="1160.57" x2="-526.774" y2="1382.25" gradientUnits="userSpaceOnUse">
<stop stop-color="#FFFBF8"/>
<stop offset="1" stop-color="#FFF0E3"/>
</linearGradient>
<clipPath id="clip0_1149_18718">
<rect width="1440" height="1045" fill="white"/>
</clipPath>
</defs>
</svg>
