<svg width="1440" height="2525" viewBox="0 0 1440 2525" fill="none" xmlns="http://www.w3.org/2000/svg">
<g clip-path="url(#clip0_799_16979)">
<rect width="1440" height="2525" fill="#9C47AA"/>
<path d="M-70 3035H16.0487V0.000246411H-70V3035Z" fill="#90379E"/>
<path d="M54.873 3035H78.7338V0.000300407H54.873V3035Z" fill="#90379E"/>
<path d="M116.744 3035H202.793V0.000246411H116.744V3035Z" fill="#90379E"/>
<path d="M241.617 3035H265.478V0.000300407H241.617V3035Z" fill="#90379E"/>
<path d="M303.49 3035H389.539V0.000300407H303.49V3035Z" fill="#90379E"/>
<path d="M428.361 3035H452.221V0.000300407H428.361V3035Z" fill="#90379E"/>
<path d="M490.232 3035H576.281V0.000300407H490.232V3035Z" fill="#90379E"/>
<path d="M615.107 3035H638.967V0.000300407H615.107V3035Z" fill="#90379E"/>
<path d="M676.977 3035H763.025V0.000300407H676.977V3035Z" fill="#90379E"/>
<path d="M801.852 3035H825.711V0.000300407H801.852V3035Z" fill="#90379E"/>
<path d="M863.721 3035H949.769V0.000300407H863.721V3035Z" fill="#90379E"/>
<path d="M988.592 3035H1012.45V0.000300407H988.592V3035Z" fill="#90379E"/>
<path d="M1050.46 3035H1136.51V0.000300407H1050.46V3035Z" fill="#90379E"/>
<path d="M1175.34 3035H1199.2V0.000300407H1175.34V3035Z" fill="#90379E"/>
<path d="M1237.21 3035H1323.26V0.000300407H1237.21V3035Z" fill="#90379E"/>
<path d="M1362.08 3035H1385.94V0.000300407H1362.08V3035Z" fill="#90379E"/>
<path d="M1510 0.000300407H1423.95V3035H1510V0.000300407Z" fill="#90379E"/>
<rect x="-9" y="2478" width="1498" height="47" fill="#652A6E"/>
<rect x="-37" y="2467" width="1498" height="11" fill="#4F1B58"/>
<path d="M645 2074.46H1386.78V2059H645V2074.46Z" fill="#753180"/>
<path d="M645 2074.46H1386.78V2066.73H645V2074.46Z" fill="#682B72"/>
<path d="M655.266 2132.22H1372.61V2074.46H655.266V2132.22Z" fill="#753180"/>
<path d="M655.266 2113.1H1372.61V2074.46H655.266V2113.1Z" fill="#682B72"/>
<path d="M655.832 2497.3H692.841V2132.22H655.832V2497.3Z" fill="#753180"/>
<path d="M655.832 2170.67H692.84V2132.22H655.832V2170.67Z" fill="#682B72"/>
<path d="M1335.6 2132.22V2497.3H1372.61V2132.22H1335.6Z" fill="#753180"/>
<path d="M1335.6 2170.67H1372.61V2132.22H1335.6V2170.67Z" fill="#682B72"/>
<path d="M692.84 2320.91H1335.6V2132.22H692.84V2320.91Z" fill="#753180"/>
<path d="M692.84 2320.91L701.263 2186.35H1325.1L1335.6 2320.91V2132.22H692.84V2320.91Z" fill="#682B72"/>
<path d="M914.371 2132.22H692.84V2335.48H914.371V2132.22Z" fill="#682B72"/>
<path d="M1025.68 2051.78H817.668V2110.79H1025.68V2051.78Z" fill="#753180"/>
<path d="M907.613 2202.6H699.598V2261.6H907.613V2202.6Z" fill="#753180"/>
<path d="M813.899 2224.28H793.316V2217.07H813.899V2224.28Z" fill="#682B72"/>
<path d="M907.613 2265.37H699.598V2324.38H907.613V2265.37Z" fill="#753180"/>
<path d="M813.899 2287.05H793.316V2279.85H813.899V2287.05Z" fill="#682B72"/>
<path d="M1241.65 2256.44H1057.23C1051.52 2256.44 1046.89 2271.79 1046.89 2277.5V2277.6H1251.99V2277.5C1251.99 2271.79 1247.36 2256.44 1241.65 2256.44Z" fill="#B667C3"/>
<path d="M1244.14 2277.6H1054.74V2267.5C1055.53 2267.19 1056.37 2267.02 1057.22 2267.02H1241.65C1242.51 2267.02 1243.34 2267.19 1244.14 2267.5V2277.6Z" fill="#9F62A9"/>
<path d="M1054.74 2326.15H1244.14V2301H1054.74V2326.15Z" fill="#682B72"/>
<path d="M1034.9 2518.9H1054.74V2048H1034.9V2518.9Z" fill="#B855C8"/>
<path d="M1054.74 2347.8H1034.9V2251.94H1054.74V2267.5V2277.6V2301V2326.15V2347.8Z" fill="#AE4BBE"/>
<path d="M1054.74 2076.71H1034.9V2055.12H1054.74V2056.49V2058.91V2066.73V2074.46V2076.71Z" fill="#CB51DE"/>
<path d="M1244.14 2518.9H1263.98V2048H1244.14V2518.9Z" fill="#B855C8"/>
<path d="M1263.98 2347.8H1244.14V2251.94H1263.98V2320.91V2337.58V2347.8Z" fill="#AE4BBE"/>
<path d="M1263.98 2076.71H1244.14V2055.12H1263.98V2066.73V2074.46V2076.71Z" fill="#CB51DE"/>
<path d="M1244.14 2301H1054.74V2277.6H1244.14V2301Z" fill="#AE4BBE"/>
<path d="M1244.14 2306.06H1054.74V2301H1244.14V2306.06Z" fill="#56215F"/>
<path d="M1054.74 2115.1H1244.14V2099.92H1054.74V2115.1Z" fill="#A439B5"/>
<path d="M1054.74 2149.12H1244.14V2133.94H1054.74V2149.12Z" fill="#A439B5"/>
<path d="M1054.74 2104.48H1243.75V2101.38H1054.74V2104.48Z" fill="#CB51DE"/>
<path d="M1054.74 2138.68H1243.75V2135.59H1054.74V2138.68Z" fill="#CB51DE"/>
<path d="M1054.74 2417.25H1244.14V2402.08H1054.74V2417.25Z" fill="#AE4BBE"/>
<path d="M1054.74 2406.82H1243.75V2403.73H1054.74V2406.82Z" fill="#A439B5"/>
<path d="M275.5 2519.29C208.398 2519.29 154 2514.29 154 2508.13C154 2505.41 164.636 2502.91 182.306 2500.97C186.023 2506.04 192.025 2509.33 198.795 2509.33H352.205C358.974 2509.33 364.978 2506.04 368.692 2500.97C386.364 2502.91 397 2505.41 397 2508.13C397 2514.29 342.602 2519.29 275.5 2519.29Z" fill="black" fill-opacity="0.25"/>
<path d="M228.068 2318H235.192V2303.36H228.068V2318Z" fill="#753180"/>
<path d="M231.935 2311.47C229.826 2311.47 228.068 2310.68 228.068 2310.68V2309.02C229.118 2309.52 230.291 2309.82 231.53 2309.83C231.544 2309.83 231.556 2309.83 231.569 2309.83C231.571 2309.83 231.571 2309.83 231.573 2309.83C231.59 2309.83 231.607 2309.83 231.626 2309.83C231.88 2309.83 232.131 2309.82 232.38 2309.79V2311.46C232.23 2311.47 232.083 2311.47 231.935 2311.47ZM234.219 2311.12V2309.41C234.554 2309.29 234.878 2309.16 235.192 2309.01V2310.68C234.875 2310.86 234.548 2311 234.219 2311.12Z" fill="#753180"/>
<path d="M234.214 2316.12H232.375V2311.46C232.978 2311.43 233.602 2311.32 234.214 2311.12V2316.12Z" fill="#753180"/>
<path d="M232.375 2311.46V2309.79C233.012 2309.73 233.628 2309.6 234.214 2309.41V2311.11C233.602 2311.32 232.978 2311.43 232.375 2311.46Z" fill="#753180"/>
<path d="M315.008 2318H322.129V2303.36H315.008V2318Z" fill="#753180"/>
<path d="M318.875 2311.47C316.767 2311.47 315.008 2310.68 315.008 2310.68V2309.01C316.083 2309.54 317.293 2309.83 318.569 2309.83C318.579 2309.83 318.593 2309.83 318.602 2309.83C318.846 2309.82 319.085 2309.82 319.32 2309.79V2311.46C319.171 2311.47 319.023 2311.47 318.875 2311.47ZM321.16 2311.12V2309.41C321.494 2309.3 321.82 2309.16 322.13 2309.01V2310.68C321.815 2310.86 321.49 2311 321.16 2311.12Z" fill="#753180"/>
<path d="M321.161 2316.12H319.32V2311.46C319.923 2311.43 320.549 2311.32 321.161 2311.12V2316.12Z" fill="#753180"/>
<path d="M319.32 2311.46V2309.79C319.956 2309.73 320.573 2309.6 321.161 2309.41V2311.11C320.549 2311.32 319.923 2311.43 319.32 2311.46Z" fill="#753180"/>
<path d="M349.687 2323.53H201.307C193.847 2323.53 187.799 2326.3 187.799 2333.76V2334.04C187.799 2341.5 190.575 2347.54 198.035 2347.54H352.957C360.414 2347.54 363.191 2341.5 363.191 2334.04V2333.76C363.191 2326.3 357.144 2323.53 349.687 2323.53Z" fill="#753180"/>
<path d="M354.612 2325.43C354.612 2325.85 319.65 2326.18 276.523 2326.18C233.396 2326.18 198.436 2325.85 198.436 2325.43C198.436 2325.02 233.396 2324.68 276.523 2324.68C319.65 2324.68 354.612 2325.02 354.612 2325.43Z" fill="#753180"/>
<path d="M353.223 2336.72C353.223 2384.67 397 2424.09 397 2470.64C397 2491.26 358.157 2506.97 358.157 2506.97L343.85 2346.33C343.85 2346.33 345.427 2336.72 353.223 2336.72Z" fill="#9530A5"/>
<path d="M371.182 2500.49C371.316 2500.15 371.445 2499.81 371.56 2499.46C372.306 2498.79 373.032 2498.06 373.726 2497.27C383.654 2490.22 394.71 2480.37 394.949 2471.32C394.949 2447.65 370.977 2403.6 357.722 2374.43C356.015 2366.43 354.662 2358.42 353.898 2350.45C353.773 2348.36 353.654 2346.17 353.539 2343.91C357.521 2388.66 396.995 2426.44 396.995 2470.64C396.995 2482.91 383.252 2493.43 372.115 2499.95C371.804 2500.13 371.488 2500.32 371.182 2500.49Z" fill="#682B72"/>
<path d="M371.839 2498.59C372.389 2496.69 372.671 2494.66 372.632 2492.57C371.189 2408.34 360.682 2421.1 355.381 2369.17C356.117 2370.86 356.901 2372.62 357.723 2374.43C365.343 2410.21 379.96 2446.17 379.96 2480.58C379.96 2487.86 377.24 2493.3 373.727 2497.27C373.091 2497.72 372.46 2498.16 371.839 2498.59Z" fill="#682B72"/>
<path d="M197.776 2336.72C197.776 2384.67 154 2424.09 154 2470.64C154 2491.26 192.841 2506.97 192.841 2506.97L207.149 2346.33C207.149 2346.33 205.573 2336.72 197.776 2336.72Z" fill="#9530A5"/>
<path d="M179.813 2500.49C168.527 2494.03 154 2483.25 154 2470.64C154 2469.52 154.026 2468.41 154.075 2467.31C154.495 2457.85 156.661 2448.66 159.822 2439.63C170.56 2408.96 192.785 2380 197.057 2347.5C197.213 2346.32 197.346 2345.11 197.454 2343.9C197.341 2346.17 197.221 2348.35 197.094 2350.45C196.354 2358.19 195.057 2365.96 193.421 2373.73C180.237 2402.89 155.875 2447.46 155.875 2471.32C156.116 2480.51 167.517 2490.53 177.563 2497.6C178.168 2498.26 178.793 2498.88 179.432 2499.46C179.549 2499.81 179.676 2500.15 179.813 2500.49Z" fill="#682B72"/>
<path d="M179.203 2498.74C178.663 2498.37 178.116 2497.99 177.565 2497.6C173.909 2493.6 171.037 2488.07 171.037 2480.58C171.037 2445.95 185.846 2409.74 193.423 2373.73C194.213 2371.98 194.964 2370.29 195.666 2368.66C190.383 2421.19 179.815 2408.07 178.364 2492.57C178.329 2494.72 178.624 2496.78 179.203 2498.74Z" fill="#682B72"/>
<path d="M353.224 2333.28H197.776C194.103 2424.69 180.052 2390.73 178.362 2489.13C178.166 2500.54 187.389 2509.89 198.796 2509.89H352.206C363.611 2509.89 372.832 2500.54 372.636 2489.13C370.949 2390.73 356.9 2424.69 353.224 2333.28Z" fill="#A439B5"/>
<path d="M353.264 2338.67H327.843V2336.72H353.225C353.24 2337.05 353.249 2337.37 353.264 2337.7V2338.67ZM309.3 2338.67H240.896V2336.72H309.3V2338.67ZM222.352 2338.67H197.777V2336.72H222.352V2338.67Z" fill="#682B72"/>
<path d="M349.211 2510.16H201.795C190.833 2510.16 181.973 2501.16 182.159 2490.21C182.26 2484.31 182.408 2478.91 182.596 2473.94C202.727 2475.3 265.276 2476.37 314.077 2476.37C337.381 2476.37 357.558 2476.13 368.466 2475.56C368.628 2480.08 368.753 2484.94 368.843 2490.21C369.035 2501.16 360.172 2510.16 349.211 2510.16Z" fill="#A439B5"/>
<path d="M242.678 2382.74H240.891V2338.67H242.678V2382.74ZM222.347 2382.74H220.562V2338.67H222.347V2382.74Z" fill="#682B72"/>
<path d="M231.62 2405.58C230.47 2405.58 229.318 2405.09 228.52 2404.1L221.826 2396.6C221.008 2395.59 220.562 2394.33 220.562 2393.03V2382.74H222.347V2392.94C222.347 2394.1 222.745 2395.21 223.472 2396.12L228.864 2402.79C229.574 2403.66 230.597 2404.1 231.62 2404.1C232.643 2404.1 233.667 2403.66 234.374 2402.79L239.767 2396.12C240.495 2395.21 240.891 2394.1 240.891 2392.94V2382.74H242.678V2393.03C242.678 2394.33 242.232 2395.59 241.414 2396.6L234.718 2404.1C233.921 2405.09 232.77 2405.58 231.62 2405.58Z" fill="#682B72"/>
<path d="M239.767 2396.12L234.374 2402.79C232.958 2404.54 230.284 2404.54 228.864 2402.79L223.472 2396.12C222.745 2395.21 222.348 2394.09 222.348 2392.94V2323.53H240.891V2392.94C240.891 2394.09 240.495 2395.21 239.767 2396.12Z" fill="#A439B5"/>
<path d="M222.348 2378.68H240.891V2355.24H222.348V2378.68Z" fill="#A439B5"/>
<path d="M329.626 2382.74H327.838V2338.67H329.626V2382.74ZM309.295 2382.74H307.508V2338.67H309.295V2382.74Z" fill="#682B72"/>
<path d="M318.564 2405.58C317.417 2405.58 316.265 2405.09 315.467 2404.1L308.772 2396.6C307.954 2395.59 307.508 2394.33 307.508 2393.03V2382.74H309.295V2392.94C309.295 2394.1 309.691 2395.21 310.417 2396.12L315.811 2402.79C316.518 2403.66 317.541 2404.1 318.564 2404.1C319.587 2404.1 320.61 2403.66 321.322 2402.79L326.714 2396.12C327.441 2395.21 327.838 2394.1 327.838 2392.94V2382.74H329.626V2393.03C329.626 2394.33 329.176 2395.59 328.359 2396.6L321.662 2404.1C320.868 2405.09 319.716 2405.58 318.564 2405.58Z" fill="#682B72"/>
<path d="M326.72 2396.12L321.328 2402.79C319.908 2404.54 317.236 2404.54 315.817 2402.79L310.423 2396.12C309.697 2395.21 309.301 2394.09 309.301 2392.94V2323.53H327.843V2392.94C327.843 2394.09 327.447 2395.21 326.72 2396.12Z" fill="#A439B5"/>
<path d="M309.301 2378.68H327.844V2355.24H309.301V2378.68Z" fill="#A439B5"/>
<path d="M284.774 2323.53H263.514V2321.74C263.514 2318.63 266.03 2316.12 269.136 2316.12H279.151C282.257 2316.12 284.774 2318.63 284.774 2321.74V2323.53Z" fill="#753180"/>
<path d="M284.771 2323.53H264.072V2321.74C264.072 2319.27 265.759 2317.73 268.615 2317.02C268.615 2317.02 265.708 2319.62 266.526 2321.52C267.344 2323.41 284.771 2323.53 284.771 2323.53Z" fill="#682B72"/>
<path d="M284.776 2323.53C284.776 2323.53 284.314 2320.65 281.045 2318.5C278.254 2316.67 269.287 2316.22 268.654 2316.14C268.815 2316.12 268.975 2316.12 269.138 2316.12H279.153C282.259 2316.12 284.776 2318.63 284.776 2321.74V2323.53Z" fill="#753180"/>
<path d="M352.774 2443.25H198.039C190.644 2443.25 185.114 2436.47 186.6 2429.22L187.177 2426.41C188.292 2420.98 193.072 2417.08 198.616 2417.08H352.239C357.846 2417.08 362.664 2421.07 363.711 2426.57L364.247 2429.39C365.614 2436.58 360.097 2443.25 352.774 2443.25Z" fill="#A439B5"/>
<path d="M236.397 2316.12H226.841C224.336 2316.12 222.305 2318.15 222.305 2320.65V2323.53H240.93V2320.65C240.93 2318.15 238.901 2316.12 236.397 2316.12Z" fill="#9530A5"/>
<path d="M323.344 2316.12H313.789C311.283 2316.12 309.252 2318.15 309.252 2320.65V2323.53H327.881V2320.65C327.881 2318.15 325.849 2316.12 323.344 2316.12Z" fill="#9530A5"/>
<path d="M318.571 2309.83C314.053 2309.83 310.394 2306.17 310.394 2301.65C310.394 2282.19 294.561 2266.35 275.101 2266.35C255.635 2266.35 239.803 2282.19 239.803 2301.65C239.803 2306.17 236.143 2309.83 231.626 2309.83C227.109 2309.83 223.447 2306.17 223.447 2301.65C223.447 2273.17 246.618 2250 275.101 2250C303.578 2250 326.749 2273.17 326.749 2301.65C326.749 2306.17 323.088 2309.83 318.571 2309.83Z" fill="#A439B5"/>
<path d="M226.44 2305.04C225.997 2305.04 225.555 2303.9 225.555 2301.65C225.555 2273.17 252.129 2252.59 275.095 2252.59C300.099 2252.59 324.224 2271.72 324.224 2300.19C324.224 2301.96 323.665 2303.04 323.124 2303.04C322.618 2303.04 322.13 2302.1 322.13 2299.92C322.13 2280.46 305.278 2255.86 275.095 2255.86C245.724 2255.86 227.327 2282.19 227.327 2301.65C227.327 2303.9 226.884 2305.04 226.44 2305.04Z" fill="#A439B5"/>
<path d="M318.57 2309.83C317.294 2309.83 316.085 2309.54 315.009 2309.01C312.277 2307.69 310.394 2304.89 310.394 2301.65C310.394 2286.49 300.788 2273.53 287.346 2268.55C283.53 2267.13 279.403 2266.35 275.101 2266.35C255.635 2266.35 239.802 2282.19 239.802 2301.65C239.802 2304.89 237.92 2307.69 235.192 2309.01C234.878 2309.16 234.554 2309.29 234.219 2309.41C233.633 2309.6 233.017 2309.73 232.38 2309.79C232.132 2309.82 231.88 2309.83 231.626 2309.83C231.609 2309.83 231.59 2309.83 231.573 2309.83C231.571 2309.83 231.571 2309.83 231.57 2309.83C231.557 2309.83 231.544 2309.83 231.53 2309.83C229.161 2309.8 229.813 2308.7 230.892 2306.98C231.133 2307.03 231.377 2307.06 231.626 2307.06C232.08 2307.06 232.539 2306.97 232.984 2306.79C234.363 2306.22 235.196 2304.89 235.192 2303.48C235.191 2303.03 235.104 2302.57 234.921 2302.13C234.55 2301.23 233.848 2300.56 233.013 2300.21C233.719 2282.51 247.376 2261.86 275.101 2261.86C303.578 2261.86 315.004 2282.84 315.004 2300.19C315.004 2300.77 315.138 2301.36 315.358 2301.95C315.129 2302.42 315.004 2302.96 315.004 2303.5C315.004 2303.95 315.095 2304.41 315.277 2304.85C315.841 2306.22 317.17 2307.06 318.575 2307.06C318.633 2307.06 318.695 2307.06 318.752 2307.05C320.033 2308.69 320.678 2309.82 318.604 2309.83C318.594 2309.83 318.58 2309.83 318.57 2309.83Z" fill="#9A35AA"/>
<path d="M231.621 2307.05C230.221 2307.05 228.891 2306.22 228.323 2304.85C228.142 2304.41 228.057 2303.95 228.055 2303.5C228.051 2302.09 228.884 2300.76 230.264 2300.19C230.264 2300.19 232.25 2301.68 233 2303.5C233.749 2305.32 232.979 2306.79 232.979 2306.79C232.534 2306.97 232.075 2307.05 231.621 2307.05Z" fill="#753180"/>
<path d="M232.981 2306.79C232.981 2306.79 231.537 2305.67 230.787 2303.85C230.036 2302.03 230.266 2300.19 230.266 2300.19C230.71 2300.01 231.169 2299.93 231.621 2299.93C233.023 2299.93 234.353 2300.76 234.919 2302.14C235.102 2302.57 235.188 2303.03 235.19 2303.48C235.193 2304.89 234.36 2306.22 232.981 2306.79Z" fill="#753180"/>
<path d="M232.983 2306.79C232.983 2306.79 235.552 2304.72 234.269 2302.18C233.289 2299.99 230.268 2300.19 230.268 2300.19C232.088 2299.44 234.172 2300.31 234.921 2302.14C235.672 2303.96 234.803 2306.04 232.983 2306.79Z" fill="#753180"/>
<path d="M318.571 2307.05C317.165 2307.05 315.837 2306.22 315.272 2304.85C315.091 2304.41 315 2303.95 315 2303.5C314.995 2302.09 315.832 2300.76 317.208 2300.19C317.208 2300.19 318.25 2301.68 319 2303.5C319.75 2305.32 319.924 2306.79 319.924 2306.79C319.479 2306.97 319.02 2307.05 318.571 2307.05Z" fill="#753180"/>
<path d="M319.925 2306.79C319.925 2306.79 318.481 2305.67 317.731 2303.85C316.985 2302.03 317.21 2300.19 317.21 2300.19C317.654 2300.01 318.113 2299.93 318.567 2299.93C319.968 2299.93 321.297 2300.76 321.865 2302.14C322.047 2302.57 322.133 2303.03 322.133 2303.48C322.138 2304.89 321.306 2306.22 319.925 2306.79Z" fill="#753180"/>
<path d="M319.928 2306.79C319.928 2306.79 322.5 2304.72 321.219 2302.18C320.234 2299.99 317.213 2300.19 317.213 2300.19C319.034 2299.44 321.118 2300.31 321.869 2302.14C322.619 2303.96 321.749 2306.04 319.928 2306.79Z" fill="#753180"/>
<path d="M283.028 2318.1L283.324 2319.16L282.269 2318.86L281.973 2317.81L283.028 2318.1Z" fill="#753180"/>
<path d="M222.348 2323.53H240.891V2321.24H222.348V2323.53Z" fill="#682B72"/>
</g>
<defs>
<clipPath id="clip0_799_16979">
<rect width="1440" height="2525" fill="white"/>
</clipPath>
</defs>
</svg>
